<?xml version="1.0" standalone="no"?>
<!DOCTYPE svg PUBLIC "-//W3C//DTD SVG 1.1//EN" "http://www.w3.org/Graphics/SVG/1.1/DTD/svg11.dtd" >
<svg xmlns="http://www.w3.org/2000/svg" xmlns:xlink="http://www.w3.org/1999/xlink" version="1.1">
<metadata>
Created by FontForge 20170731 at Tue Jan 19 19:36:28 2021
 By Aleksey,,,
Copyright (c) 2019 by Art. Lebedev Studio. All rights reserved.
</metadata>
<defs>
<font id="ALSHauss-Regular" horiz-adv-x="1257" >
  <font-face 
    font-family="ALS Hauss"
    font-weight="400"
    font-stretch="normal"
    units-per-em="2048"
    panose-1="2 0 0 0 0 0 0 0 0 0"
    ascent="1638"
    descent="-410"
    x-height="1032"
    cap-height="1442"
    bbox="-356 -537 2497 1970"
    underline-thickness="102"
    underline-position="-307"
    unicode-range="U+000D-277E"
  />
<missing-glyph horiz-adv-x="1251" 
d="M113 1442h1026v-1442h-1026v1442zM887 1192h-525v-942h525v942z" />
    <glyph glyph-name="copyright" unicode="&#x28;C&#x29;" horiz-adv-x="1785" 
d="M893 -61q135 0 253 49.5t202.5 136.5t133 210.5t48.5 266.5t-48.5 266.5t-133 211t-202.5 137t-253 49.5t-253 -49.5t-202.5 -137t-133 -211t-48.5 -266.5t48.5 -266.5t133 -210.5t202.5 -136.5t253 -49.5zM893 -215q-167 0 -314.5 61.5t-253.5 169t-167.5 260
t-61.5 326.5t61.5 326.5t167.5 260t253.5 169t314.5 61.5t314.5 -61.5t253.5 -169t167.5 -260t61.5 -326.5t-61.5 -326.5t-167.5 -260t-253.5 -169t-314.5 -61.5zM887 311q89 0 139 43t66 105h161q-12 -123 -114.5 -210t-251.5 -87q-179 0 -290.5 123.5t-111.5 316.5
q0 194 111.5 320.5t290.5 126.5q81 0 149 -26t112 -69t71 -94t34 -106h-161q-20 62 -70 102.5t-135 40.5q-106 0 -171 -79t-65 -216q0 -136 64.5 -213.5t171.5 -77.5z" />
    <glyph glyph-name="registered" unicode="&#x28;R&#x29;" horiz-adv-x="1253" 
d="M627 420q-110 0 -208.5 41t-170.5 112.5t-114 172.5t-42 215q0 152 71.5 276.5t194 194t269.5 69.5t269 -69.5t193.5 -193.5t71.5 -277q0 -114 -42 -215t-113.5 -172.5t-170 -112.5t-208.5 -41zM627 541q176 0 292.5 118.5t116.5 301.5t-116.5 301t-292.5 118t-293 -118
t-117 -301t117 -301.5t293 -118.5zM838 1049q0 -93 -84 -150l120 -201h-137l-100 168h-98v-168h-121v529h221q90 0 144.5 -49.5t54.5 -128.5zM631 1120h-92v-147h92q36 0 58 20.5t22 53.5t-21 53t-59 20z" />
    <glyph glyph-name="Ldot" unicode="L&#xb7;" horiz-adv-x="1171" 
d="M362 1442v-1274h732v-168h-914v1442h182zM737 893q53 0 90 -36t37 -89t-37 -89t-90 -36t-90 36t-37 89t37 89t90 36z" />
    <glyph glyph-name="ldot" unicode="l&#xb7;" horiz-adv-x="722" 
d="M330 1489v-1489h-176v1489h176zM586 846q53 0 90 -36t37 -89t-37 -89t-90 -36t-90 36t-37 89t37 89t90 36z" />
    <glyph glyph-name="uni2460" unicode="&#x28;&#x31;&#x29;" horiz-adv-x="1933" 
d="M967 -12q146 0 275.5 54t224 148t149.5 228t55 287t-55 287t-149.5 227.5t-224 147.5t-275.5 54t-276 -54t-224.5 -147.5t-149.5 -227.5t-55 -287t55 -287t149.5 -228t224.5 -148t276 -54zM967 -164q-176 0 -334.5 66t-274.5 180.5t-184 276.5t-68 346t68 346t184 276
t274.5 180t334.5 66t334.5 -66t274 -180t183.5 -276t68 -346t-68 -346t-183.5 -276.5t-274 -180.5t-334.5 -66zM1081 1139v-871h-155v703l-215 -131v153l225 146h145z" />
    <glyph glyph-name="uni2461" unicode="&#x28;&#x32;&#x29;" horiz-adv-x="1933" 
d="M967 -12q146 0 275.5 54t224 148t149.5 228t55 287t-55 287t-149.5 227.5t-224 147.5t-275.5 54t-276 -54t-224.5 -147.5t-149.5 -227.5t-55 -287t55 -287t149.5 -228t224.5 -148t276 -54zM967 -164q-176 0 -334.5 66t-274.5 180.5t-184 276.5t-68 346t68 346t184 276
t274.5 180t334.5 66t334.5 -66t274 -180t183.5 -276t68 -346t-68 -346t-183.5 -276.5t-274 -180.5t-334.5 -66zM864 401h418v-133h-627v125l338 312q4 4 21.5 20t24 23t20.5 22.5t20.5 26.5t15 26.5t12 32t3.5 33.5q0 57 -43 93t-109 36q-65 0 -107.5 -35t-53.5 -90h-148
q11 113 97.5 186.5t220.5 73.5q131 0 216 -74.5t85 -185.5q0 -77 -44 -142t-120 -133z" />
    <glyph glyph-name="uni2462" unicode="&#x28;&#x33;&#x29;" horiz-adv-x="1933" 
d="M967 -12q146 0 275.5 54t224 148t149.5 228t55 287t-55 287t-149.5 227.5t-224 147.5t-275.5 54t-276 -54t-224.5 -147.5t-149.5 -227.5t-55 -287t55 -287t149.5 -228t224.5 -148t276 -54zM967 -164q-176 0 -334.5 66t-274.5 180.5t-184 276.5t-68 346t68 346t184 276
t274.5 180t334.5 66t334.5 -66t274 -180t183.5 -276t68 -346t-68 -346t-183.5 -276.5t-274 -180.5t-334.5 -66zM647 905q15 114 105 181t215 67q129 0 213 -67t84 -168q0 -70 -38 -119.5t-96 -73.5q64 -16 114 -72t50 -141q0 -110 -90.5 -184t-230.5 -74q-136 0 -231 70.5
t-105 185.5h147q15 -57 66 -90t123 -33q71 0 117.5 37.5t46.5 95.5q0 61 -45 94t-123 33h-107v131h90q72 0 113 34.5t41 86.5q0 54 -41 87.5t-107 33.5q-65 0 -107.5 -32.5t-53.5 -82.5h-150z" />
    <glyph glyph-name="uni2463" unicode="&#x28;&#x34;&#x29;" horiz-adv-x="1933" 
d="M967 -12q146 0 275.5 54t224 148t149.5 228t55 287t-55 287t-149.5 227.5t-224 147.5t-275.5 54t-276 -54t-224.5 -147.5t-149.5 -227.5t-55 -287t55 -287t149.5 -228t224.5 -148t276 -54zM967 -164q-176 0 -334.5 66t-274.5 180.5t-184 276.5t-68 346t68 346t184 276
t274.5 180t334.5 66t334.5 -66t274 -180t183.5 -276t68 -346t-68 -346t-183.5 -276.5t-274 -180.5t-334.5 -66zM1296 584v-131h-122v-185h-148v185h-436v127l387 561h197v-557h122zM745 584h281v399z" />
    <glyph glyph-name="uni2464" unicode="&#x28;&#x35;&#x29;" horiz-adv-x="1933" 
d="M967 -12q146 0 275.5 54t224 148t149.5 228t55 287t-55 287t-149.5 227.5t-224 147.5t-275.5 54t-276 -54t-224.5 -147.5t-149.5 -227.5t-55 -287t55 -287t149.5 -228t224.5 -148t276 -54zM967 -164q-176 0 -334.5 66t-274.5 180.5t-184 276.5t-68 346t68 346t184 276
t274.5 180t334.5 66t334.5 -66t274 -180t183.5 -276t68 -346t-68 -346t-183.5 -276.5t-274 -180.5t-334.5 -66zM1001 842q120 0 205.5 -77.5t85.5 -209.5q0 -135 -93.5 -218t-229.5 -83q-134 0 -225 69.5t-105 174.5h154q14 -42 57 -76.5t117 -34.5q71 0 119.5 46.5
t48.5 119.5q0 74 -49 118t-119 44q-113 0 -168 -88h-152l41 512h555v-133h-428l-20 -244q76 80 206 80z" />
    <glyph glyph-name="uni2465" unicode="&#x28;&#x36;&#x29;" horiz-adv-x="1933" 
d="M967 -12q146 0 275.5 54t224 148t149.5 228t55 287t-55 287t-149.5 227.5t-224 147.5t-275.5 54t-276 -54t-224.5 -147.5t-149.5 -227.5t-55 -287t55 -287t149.5 -228t224.5 -148t276 -54zM967 -164q-176 0 -334.5 66t-274.5 180.5t-184 276.5t-68 346t68 346t184 276
t274.5 180t334.5 66t334.5 -66t274 -180t183.5 -276t68 -346t-68 -346t-183.5 -276.5t-274 -180.5t-334.5 -66zM997 840q121 0 207 -78t86 -205q0 -129 -91 -216t-228 -87q-169 0 -266 117t-97 315q0 227 99.5 347t261.5 120q123 0 206 -65.5t97 -163.5h-152
q-11 39 -52 67.5t-99 28.5q-92 0 -147 -71.5t-62 -219.5q79 111 237 111zM965 387q72 0 120 47.5t48 118.5q0 72 -49.5 117t-120.5 45q-72 0 -123.5 -46.5t-51.5 -115.5q0 -70 51.5 -118t125.5 -48z" />
    <glyph glyph-name="uni2466" unicode="&#x28;&#x37;&#x29;" horiz-adv-x="1933" 
d="M967 -12q146 0 275.5 54t224 148t149.5 228t55 287t-55 287t-149.5 227.5t-224 147.5t-275.5 54t-276 -54t-224.5 -147.5t-149.5 -227.5t-55 -287t55 -287t149.5 -228t224.5 -148t276 -54zM967 -164q-176 0 -334.5 66t-274.5 180.5t-184 276.5t-68 346t68 346t184 276
t274.5 180t334.5 66t334.5 -66t274 -180t183.5 -276t68 -346t-68 -346t-183.5 -276.5t-274 -180.5t-334.5 -66zM662 1141h610v-121l-344 -750h-168l344 738h-442v133z" />
    <glyph glyph-name="uni2467" unicode="&#x28;&#x38;&#x29;" horiz-adv-x="1933" 
d="M967 -12q146 0 275.5 54t224 148t149.5 228t55 287t-55 287t-149.5 227.5t-224 147.5t-275.5 54t-276 -54t-224.5 -147.5t-149.5 -227.5t-55 -287t55 -287t149.5 -228t224.5 -148t276 -54zM967 -164q-176 0 -334.5 66t-274.5 180.5t-184 276.5t-68 346t68 346t184 276
t274.5 180t334.5 66t334.5 -66t274 -180t183.5 -276t68 -346t-68 -346t-183.5 -276.5t-274 -180.5t-334.5 -66zM631 508q0 81 50 138.5t116 76.5q-57 23 -98.5 70.5t-41.5 121.5q0 100 86 169t224 69q136 0 221.5 -69.5t85.5 -168.5q0 -74 -41 -121.5t-98 -70.5
q66 -19 115.5 -76.5t49.5 -138.5q0 -108 -93 -181t-240 -73q-148 0 -242 73t-94 181zM1122 901q0 56 -43 90.5t-112 34.5q-70 0 -114 -34.5t-44 -90.5q0 -55 45.5 -90t112.5 -35q66 0 110.5 35t44.5 90zM1145 518q0 60 -49.5 99.5t-128.5 39.5q-81 0 -131 -39t-50 -100
q0 -60 51 -98.5t130 -38.5q78 0 128 38.5t50 98.5z" />
    <glyph glyph-name="uni2468" unicode="&#x28;&#x39;&#x29;" horiz-adv-x="1933" 
d="M967 -12q146 0 275.5 54t224 148t149.5 228t55 287t-55 287t-149.5 227.5t-224 147.5t-275.5 54t-276 -54t-224.5 -147.5t-149.5 -227.5t-55 -287t55 -287t149.5 -228t224.5 -148t276 -54zM967 -164q-176 0 -334.5 66t-274.5 180.5t-184 276.5t-68 346t68 346t184 276
t274.5 180t334.5 66t334.5 -66t274 -180t183.5 -276t68 -346t-68 -346t-183.5 -276.5t-274 -180.5t-334.5 -66zM936 569q-121 0 -207 78t-86 205q0 129 91 216t229 87q169 0 265.5 -117t96.5 -315q0 -227 -99 -347t-261 -120q-123 0 -206 65.5t-97 163.5h151
q11 -38 52.5 -67t99.5 -29q92 0 147 71.5t62 219.5q-38 -54 -100 -82.5t-138 -28.5zM969 1022q-72 0 -120 -47.5t-48 -118.5q0 -72 49.5 -117t120.5 -45q72 0 123 46.5t51 115.5q0 70 -51 118t-125 48z" />
    <glyph glyph-name="uni24EA" unicode="&#x28;&#x30;&#x29;" horiz-adv-x="1933" 
d="M967 -12q146 0 275.5 54t224 148t149.5 228t55 287t-55 287t-149.5 227.5t-224 147.5t-275.5 54t-276 -54t-224.5 -147.5t-149.5 -227.5t-55 -287t55 -287t149.5 -228t224.5 -148t276 -54zM967 -164q-176 0 -334.5 66t-274.5 180.5t-184 276.5t-68 346t68 346t184 276
t274.5 180t334.5 66t334.5 -66t274 -180t183.5 -276t68 -346t-68 -346t-183.5 -276.5t-274 -180.5t-334.5 -66zM967 1153q160 0 255 -124t95 -324q0 -201 -95 -326t-255 -125t-255.5 125t-95.5 326q0 200 95.5 324t255.5 124zM967 389q92 0 142 87t50 229q0 140 -50 226.5
t-142 86.5t-142.5 -86.5t-50.5 -226.5q0 -141 50.5 -228.5t142.5 -87.5z" />
    <glyph glyph-name=".notdef" horiz-adv-x="1251" 
d="M113 1442h1026v-1442h-1026v1442zM887 1192h-525v-942h525v942z" />
    <glyph glyph-name="uni0000" horiz-adv-x="0" 
 />
    <glyph glyph-name="uni0000" horiz-adv-x="0" 
 />
    <glyph glyph-name="uni000D" unicode="&#xd;" horiz-adv-x="450" 
 />
    <glyph glyph-name="space" unicode=" " horiz-adv-x="450" 
 />
    <glyph glyph-name="exclam" unicode="!" horiz-adv-x="622" 
d="M227 430l-12 1012h191l-13 -1012h-166zM311 227q53 0 90 -36t37 -89t-37 -89t-90 -36t-90 36t-37 89t37 89t90 36z" />
    <glyph glyph-name="quotedbl" unicode="&#x22;" horiz-adv-x="866" 
d="M532 887v555h173l-13 -555h-160zM162 887v555h172l-12 -555h-160z" />
    <glyph glyph-name="numbersign" unicode="#" horiz-adv-x="1476" 
d="M1374 1057v-152h-264l-66 -370h238v-152h-264l-66 -383h-157l65 383h-360l-66 -383h-158l66 383h-240v152h265l65 370h-239v152h264l67 385h160l-68 -385h359l67 385h160l-67 -385h239zM590 905l-64 -370h361l63 370h-360z" />
    <glyph glyph-name="dollar" unicode="$" horiz-adv-x="1212" 
d="M100 391h179q28 -82 91 -137.5t162 -73.5v477l-65 13q-163 28 -254.5 124t-91.5 238q0 165 117 271t294 124v183h150v-187q160 -21 269 -112.5t139 -247.5h-177q-53 167 -231 199v-457l68 -10q362 -64 362 -369q0 -179 -119 -288.5t-311 -123.5v-194h-150v198
q-175 21 -291 116t-141 257zM715 629l-33 4v-459q115 12 183.5 76t68.5 166q0 175 -219 213zM299 1040q0 -77 52.5 -131t148.5 -71l32 -7v435q-103 -14 -168 -72.5t-65 -153.5z" />
    <glyph glyph-name="percent" unicode="%" horiz-adv-x="1779" 
d="M279 0l1034 1442h188l-1034 -1442h-188zM422 1319q-83 0 -131.5 -62.5t-48.5 -158.5t48.5 -158.5t131.5 -62.5t131.5 62.5t48.5 158.5t-48.5 158.5t-131.5 62.5zM82 1098q0 157 95.5 261.5t244.5 104.5t244.5 -104.5t95.5 -261.5t-95.5 -262t-244.5 -105t-244.5 105
t-95.5 262zM1358 565q-83 0 -131.5 -62.5t-48.5 -158.5t48.5 -158.5t131.5 -62.5t131.5 62.5t48.5 158.5t-48.5 158.5t-131.5 62.5zM1018 344q0 157 95.5 262t244.5 105t244.5 -105t95.5 -262t-95.5 -262t-244.5 -105t-244.5 105t-95.5 262z" />
    <glyph glyph-name="ampersand" unicode="&#x26;" horiz-adv-x="1486" 
d="M1432 641l-275 -340l279 -301h-224l-168 182l-18 -18q-187 -187 -440 -187q-108 0 -198 33.5t-149.5 90.5t-92.5 133.5t-33 162.5q0 278 342 414l-25 27q-73 75 -112 140.5t-39 149.5q0 140 106.5 238t269.5 98q159 0 260 -94.5t101 -239.5q0 -120 -72.5 -207
t-218.5 -157l326 -350l174 225h207zM928 283l12 12l-377 410q-138 -55 -201 -128.5t-63 -173.5q0 -119 78 -191.5t219 -72.5q194 0 332 144zM453 1135q0 -43 20 -86.5t39 -66t49 -52.5l57 -58q228 103 228 261q0 82 -55.5 130t-139.5 48q-86 0 -142 -48.5t-56 -127.5z" />
    <glyph glyph-name="quotesingle" unicode="'" horiz-adv-x="495" 
d="M162 887v555h172l-12 -555h-160z" />
    <glyph glyph-name="parenleft" unicode="(" horiz-adv-x="706" 
d="M645 1489q-299 -417 -299 -907q0 -489 299 -906h-178q-58 74 -109 165.5t-96 206t-71.5 253.5t-26.5 281t26.5 281.5t71.5 254t96 206t109 165.5h178z" />
    <glyph glyph-name="parenright" unicode=")" horiz-adv-x="706" 
d="M61 1489h179q58 -74 109 -165.5t96 -206t71.5 -254t26.5 -281.5t-26.5 -281t-71.5 -253.5t-96 -206t-109 -165.5h-179q299 417 299 906q0 490 -299 907z" />
    <glyph glyph-name="asterisk" unicode="*" horiz-adv-x="901" 
d="M522 1464l-6 -284l272 92l43 -133l-272 -86l170 -230l-115 -80l-163 232l-166 -232l-113 80l170 230l-272 86l43 133l270 -92l-4 284h143z" />
    <glyph glyph-name="plus" unicode="+" 
d="M543 1049h170v-412h397v-168h-397v-414h-170v414h-396v168h396v412z" />
    <glyph glyph-name="comma" unicode="," horiz-adv-x="540" 
d="M397 94q0 -42 -18 -92l-123 -334h-145l114 322q-37 12 -61.5 40.5t-24.5 71.5q0 52 35.5 86.5t89.5 34.5q56 0 94.5 -36.5t38.5 -92.5z" />
    <glyph glyph-name="hyphen" unicode="-" horiz-adv-x="862" 
d="M113 469v168h637v-168h-637z" />
    <glyph glyph-name="period" unicode="." horiz-adv-x="540" 
d="M270 227q53 0 90 -36t37 -89t-37 -89t-90 -36t-90 36t-37 89t37 89t90 36z" />
    <glyph glyph-name="slash" unicode="/" horiz-adv-x="749" 
d="M555 1489h174l-534 -1813h-175z" />
    <glyph glyph-name="zero" unicode="0" horiz-adv-x="1335" 
d="M668 1464q169 0 293.5 -96t187.5 -263t63 -384t-63 -384t-187.5 -263.5t-293.5 -96.5t-293.5 96.5t-188 263.5t-63.5 384t63.5 384t188 263t293.5 96zM668 145q115 0 197 77t121.5 205.5t39.5 293.5t-39.5 293t-121.5 205t-197 77t-197.5 -77t-122 -205t-39.5 -293
t39.5 -293.5t122 -205.5t197.5 -77z" />
    <glyph glyph-name="one" unicode="1" horiz-adv-x="913" 
d="M657 1442v-1442h-182v1229l-362 -228v191l381 250h163z" />
    <glyph glyph-name="two" unicode="2" horiz-adv-x="1249" 
d="M905 1040q0 110 -77.5 183t-200.5 73q-127 0 -208 -65.5t-106 -179.5h-180q25 186 158.5 299.5t339.5 113.5q207 0 334 -122t127 -302q0 -63 -17 -123t-40.5 -104t-66.5 -95.5t-75.5 -83.5t-87.5 -83l-416 -383h737v-168h-989v158l545 510q61 57 94.5 92.5t67 82.5
t47.5 94t14 103z" />
    <glyph glyph-name="three" unicode="3" 
d="M133 1073q19 127 91.5 217t175 132t225.5 42q212 0 338.5 -113t126.5 -286q0 -63 -20.5 -117.5t-54.5 -91.5t-69 -61.5t-72 -38.5q41 -10 83 -33.5t85.5 -63.5t71 -106t27.5 -145q0 -183 -141.5 -307t-356.5 -124q-211 0 -356.5 107t-169.5 297h184q22 -106 114 -171
t228 -65q137 0 224 74.5t87 192.5q0 122 -90.5 184.5t-232.5 62.5h-178v166h165q131 0 208 67.5t77 170.5q0 105 -73.5 169t-204.5 64q-124 0 -204.5 -60t-105.5 -163h-182z" />
    <glyph glyph-name="four" unicode="4" horiz-adv-x="1327" 
d="M1014 0h-183v338h-729v147l695 957h217v-942h211v-162h-211v-338zM305 500h526v725z" />
    <glyph glyph-name="five" unicode="5" horiz-adv-x="1275" 
d="M651 145q144 0 232 89.5t88 234.5q0 140 -91.5 224.5t-222.5 84.5q-200 0 -317 -160h-184l69 824h852v-168h-696l-41 -469q130 139 346 139q123 0 229 -55t174 -165t68 -253q0 -147 -67 -260.5t-181.5 -173.5t-255.5 -60q-211 0 -349 113.5t-161 278.5h187
q20 -87 103.5 -155.5t217.5 -68.5z" />
    <glyph glyph-name="six" unicode="6" horiz-adv-x="1290" 
d="M707 944q124 0 230.5 -56.5t173.5 -166.5t67 -252q0 -217 -142 -354.5t-354 -137.5q-182 0 -309 92t-188.5 255t-61.5 385q0 191 43.5 337.5t120.5 236.5t177.5 135.5t221.5 45.5q96 0 180 -30t142 -80t95.5 -113.5t49.5 -132.5h-186q-23 78 -93.5 133t-187.5 55
q-83 0 -150 -32t-119.5 -99t-82 -179.5t-31.5 -264.5q58 107 167 165t237 58zM676 145q135 0 225 89t90 231q0 140 -90.5 226.5t-224.5 86.5q-135 0 -227.5 -87t-92.5 -226q0 -142 92.5 -231t227.5 -89z" />
    <glyph glyph-name="seven" unicode="7" horiz-adv-x="1144" 
d="M1042 1284l-587 -1284h-205l588 1274h-756v168h960v-158z" />
    <glyph glyph-name="eight" unicode="8" horiz-adv-x="1284" 
d="M123 393q0 62 18.5 117.5t47 95t65.5 70.5t71.5 49t67.5 27q-39 16 -74 39.5t-71.5 61.5t-58 95.5t-21.5 126.5q0 169 131 279t344 110q212 0 342.5 -110.5t130.5 -278.5q0 -69 -21.5 -126.5t-58 -95.5t-71.5 -61.5t-74 -39.5q33 -9 67.5 -27t71.5 -49t65.5 -70.5t47 -95
t18.5 -117.5q0 -186 -144.5 -301t-373.5 -115q-230 0 -375 115t-145 301zM932 1061q0 108 -79.5 173.5t-209.5 65.5q-131 0 -211 -65.5t-80 -173.5q0 -106 83.5 -173t207.5 -67q122 0 205.5 67.5t83.5 172.5zM975 401q0 121 -94 194t-238 73q-145 0 -239.5 -73t-94.5 -194
q0 -116 91.5 -188t242.5 -72q150 0 241 72t91 188z" />
    <glyph glyph-name="nine" unicode="9" horiz-adv-x="1290" 
d="M584 498q-124 0 -230.5 56.5t-173.5 166.5t-67 252q0 217 141.5 354t353.5 137q272 0 415.5 -196.5t143.5 -534.5q0 -191 -43.5 -337.5t-120.5 -237t-178 -136t-221 -45.5q-96 0 -180 30t-142 80.5t-95.5 114t-49.5 132.5h187q24 -78 93.5 -133.5t186.5 -55.5
q83 0 150 32t119.5 99t82 179.5t31.5 263.5q-60 -107 -167.5 -164t-235.5 -57zM614 1296q-135 0 -225 -88.5t-90 -230.5q0 -140 90.5 -226.5t224.5 -86.5q135 0 227.5 87t92.5 226q0 142 -92.5 230.5t-227.5 88.5z" />
    <glyph glyph-name="colon" unicode=":" horiz-adv-x="540" 
d="M270 227q53 0 90 -36t37 -89t-37 -89t-90 -36t-90 36t-37 89t37 89t90 36zM270 1001q53 0 90 -35.5t37 -88.5t-37 -89t-90 -36t-90 36t-37 89t37 88.5t90 35.5z" />
    <glyph glyph-name="semicolon" unicode=";" horiz-adv-x="540" 
d="M397 94q0 -42 -18 -92l-123 -334h-145l114 322q-37 12 -61.5 40.5t-24.5 71.5q0 52 35.5 86.5t89.5 34.5q56 0 94.5 -36.5t38.5 -92.5zM268 1001q53 0 90 -35.5t37 -88.5t-37 -89t-90 -36t-90 36t-37 89t37 88.5t90 35.5z" />
    <glyph glyph-name="less" unicode="&#x3c;" 
d="M1106 39l-952 440v146l952 440v-176l-731 -338l731 -336v-176z" />
    <glyph glyph-name="equal" unicode="=" 
d="M170 678v162h915v-162h-915zM170 260v162h915v-162h-915z" />
    <glyph glyph-name="greater" unicode="&#x3e;" 
d="M154 39v176l731 336l-731 338v176l952 -440v-146z" />
    <glyph glyph-name="question" unicode="?" horiz-adv-x="1087" 
d="M799 1079q0 99 -70.5 160t-185.5 61q-223 0 -289 -215h-178q27 166 151 272.5t318 106.5q199 0 318.5 -107t119.5 -270q0 -58 -13.5 -108t-32 -83.5t-51 -66.5t-57 -52.5t-62.5 -46.5l-4.5 -3t-4 -3t-4.5 -3q-11 -8 -36 -25.5t-35 -25t-29.5 -23.5t-28 -26t-21 -27.5
t-18 -34t-9.5 -39t-4 -47.5v-43h-172v53q0 54 11 99t27 75t47.5 62.5t57 52t72.5 51.5q38 27 57 41t48 41t42.5 49.5t24.5 55t11 69.5zM494 227q53 0 90 -36t37 -89t-37 -89t-90 -36t-90 36t-37 89t37 89t90 36z" />
    <glyph glyph-name="at" unicode="@" horiz-adv-x="1857" 
d="M969 1419q231 0 412 -102.5t280.5 -282.5t99.5 -405q0 -129 -28.5 -224.5t-78 -148.5t-108 -77.5t-127.5 -24.5q-87 0 -148.5 38.5t-92.5 104.5q-41 -66 -113 -108t-174 -42q-156 0 -265.5 116.5t-109.5 314.5q0 188 110 305.5t271 117.5q172 0 256 -129v109h162v-543
q0 -62 34 -100.5t89 -38.5q75 0 116 75t41 255q0 186 -75 331t-218.5 227.5t-334.5 82.5q-140 0 -263 -47t-217 -134.5t-148 -223t-54 -302.5q0 -163 55 -294t152.5 -215t228.5 -128.5t285 -44.5q190 0 333 58v-152q-130 -55 -335 -55q-191 0 -353.5 57t-280.5 161.5
t-184.5 262t-66.5 350.5q0 196 67 358.5t182.5 270.5t270 167.5t330.5 59.5zM918 297q102 0 168.5 72t66.5 198v17q0 122 -65.5 195t-169.5 73q-101 0 -165.5 -74t-64.5 -200q0 -128 64.5 -204.5t165.5 -76.5z" />
    <glyph glyph-name="A" unicode="A" horiz-adv-x="1359" 
d="M586 1442h188l545 -1442h-197l-141 381h-606l-137 -381h-197zM678 1210l-242 -661h484z" />
    <glyph glyph-name="B" unicode="B" horiz-adv-x="1300" 
d="M180 0v1442h535q203 0 317.5 -105t114.5 -268q0 -122 -56 -202.5t-133 -112.5q41 -12 81.5 -37.5t78.5 -66.5t61 -104t23 -138q0 -183 -128.5 -295.5t-346.5 -112.5h-547zM725 662h-365v-498h355q137 0 219 65.5t82 182.5q0 115 -78.5 182.5t-212.5 67.5zM692 1278h-332
v-455h345q126 0 192 63.5t66 164.5q0 106 -72 166.5t-199 60.5z" />
    <glyph glyph-name="C" unicode="C" horiz-adv-x="1445" 
d="M1165 451h185q-10 -65 -37 -129t-76.5 -127t-115.5 -111t-160.5 -77.5t-204.5 -29.5q-189 0 -337.5 94.5t-230.5 264t-82 385.5q0 214 80.5 382.5t229.5 264.5t340 96q125 0 230 -37t177.5 -102t119 -149.5t63.5 -182.5h-185q-25 87 -72 151.5t-132.5 107t-200.5 42.5
q-210 0 -336.5 -159t-126.5 -414q0 -252 125.5 -413t335.5 -161q73 0 137 19t109.5 49.5t80.5 71t55 81.5t29 83z" />
    <glyph glyph-name="D" unicode="D" horiz-adv-x="1449" 
d="M629 1442q336 0 525 -191.5t189 -529.5t-189 -529.5t-525 -191.5h-449v1442h449zM606 166q273 0 412 144t139 411q0 266 -139.5 410.5t-411.5 144.5h-244v-1110h244z" />
    <glyph glyph-name="E" unicode="E" horiz-adv-x="1216" 
d="M1094 1274h-732v-451h693v-166h-693v-489h732v-168h-914v1442h914v-168z" />
    <glyph glyph-name="F" unicode="F" horiz-adv-x="1202" 
d="M362 0h-182v1442h910v-168h-728v-477h678v-166h-678v-631z" />
    <glyph glyph-name="G" unicode="G" horiz-adv-x="1480" 
d="M741 741h623v-149q0 -176 -70 -314.5t-208 -219.5t-324 -81q-141 0 -262.5 54.5t-208 151.5t-136 236t-49.5 302q0 217 82 386t232.5 263t345.5 94q236 0 391 -129.5t195 -328.5h-189q-91 288 -397 288q-216 0 -344.5 -157t-128.5 -416q0 -261 132 -418.5t341 -157.5
q190 0 303 116t113 306v11h-441v163z" />
    <glyph glyph-name="H" unicode="H" horiz-adv-x="1495" 
d="M362 0h-182v1442h182v-617h771v617h182v-1442h-182v655h-771v-655z" />
    <glyph glyph-name="I" unicode="I" horiz-adv-x="542" 
d="M362 1442v-1442h-182v1442h182z" />
    <glyph glyph-name="J" unicode="J" horiz-adv-x="1105" 
d="M66 371h180q3 -36 18 -72t42.5 -71.5t75.5 -58t110 -22.5q129 0 193.5 87t64.5 231v977h182v-977q0 -231 -116.5 -359.5t-326.5 -128.5q-101 0 -183.5 35t-133.5 92.5t-78 126t-28 140.5z" />
    <glyph glyph-name="K" unicode="K" horiz-adv-x="1282" 
d="M362 0h-182v1442h182v-643l642 643h235l-684 -690l696 -752h-241l-648 688v-688z" />
    <glyph glyph-name="L" unicode="L" horiz-adv-x="1171" 
d="M362 1442v-1274h732v-168h-914v1442h182z" />
    <glyph glyph-name="M" unicode="M" horiz-adv-x="1828" 
d="M180 1442h221l514 -1206l515 1206h219v-1442h-179v1108l-471 -1108h-168l-473 1108v-1108h-178v1442z" />
    <glyph glyph-name="N" unicode="N" horiz-adv-x="1501" 
d="M377 1442l766 -1143v1143h178v-1442h-178l-785 1167v-1167h-178v1442h197z" />
    <glyph glyph-name="O" unicode="O" horiz-adv-x="1540" 
d="M770 1464q198 0 350 -96.5t233 -265t81 -381.5q0 -159 -47.5 -296.5t-133 -236.5t-210.5 -155t-273 -56t-273 56t-210.5 155t-133 236.5t-47.5 296.5q0 213 81 381.5t233 265t350 96.5zM770 147q218 0 347.5 159.5t129.5 414.5t-129 414t-348 159t-348 -159t-129 -414
t129.5 -414.5t347.5 -159.5z" />
    <glyph glyph-name="P" unicode="P" horiz-adv-x="1255" 
d="M682 1442q112 0 204 -36t151.5 -99t91.5 -146t32 -178q0 -93 -33 -176.5t-92.5 -147t-150.5 -100.5t-199 -37h-324v-522h-182v1442h502zM662 1276h-300v-588h300q147 0 230 81.5t83 213.5q0 133 -82 213t-231 80z" />
    <glyph glyph-name="Q" unicode="Q" horiz-adv-x="1540" 
d="M770 1464q198 0 350 -96.5t233 -265t81 -381.5q0 -185 -62 -338.5t-176 -253.5l172 -254h-203l-110 162q-136 -60 -285 -60q-148 0 -273 56t-210.5 155t-133 236.5t-47.5 296.5q0 213 81 381.5t233 265t350 96.5zM770 147q105 0 186 37l-168 252h203l105 -157
q151 157 151 442q0 255 -129 414t-348 159t-348 -159t-129 -414t129.5 -414.5t347.5 -159.5z" />
    <glyph glyph-name="R" unicode="R" horiz-adv-x="1298" 
d="M1171 993q0 -141 -82.5 -259.5t-226.5 -166.5l383 -567h-215l-364 541h-304v-541h-182v1442h516q115 0 207.5 -37t149.5 -100.5t87.5 -143t30.5 -168.5zM674 1276h-312v-569h312q153 0 232 81.5t79 204.5q0 125 -78 204t-233 79z" />
    <glyph glyph-name="S" unicode="S" horiz-adv-x="1261" 
d="M100 375h187q36 -106 128 -168t240 -62q144 0 232 68.5t88 187.5q0 184 -230 222l-266 43q-171 28 -264.5 124t-93.5 244q0 129 68 228.5t180 150.5t247 51q203 0 346 -99t177 -286h-187q-66 217 -336 217q-129 0 -219 -66t-90 -181q0 -80 54.5 -133t156.5 -70l268 -45
q375 -63 375 -387q0 -203 -142.5 -320t-367.5 -117q-219 0 -369.5 102.5t-181.5 295.5z" />
    <glyph glyph-name="T" unicode="T" horiz-adv-x="1275" 
d="M72 1274v168h1132v-168h-475v-1274h-182v1274h-475z" />
    <glyph glyph-name="U" unicode="U" horiz-adv-x="1474" 
d="M170 565v877h182v-871q0 -206 106.5 -315t278.5 -109t278.5 109t106.5 315v871h183v-877q0 -144 -43 -257t-120 -185t-180 -109t-225 -37t-224.5 37t-179.5 109t-120 185t-43 257z" />
    <glyph glyph-name="V" unicode="V" horiz-adv-x="1351" 
d="M1311 1442l-541 -1442h-188l-541 1442h197l438 -1202l438 1202h197z" />
    <glyph glyph-name="W" unicode="W" horiz-adv-x="2007" 
d="M1950 1442l-447 -1442h-172l-330 1141l-329 -1141h-168l-447 1442h193l338 -1123l327 1123h177l325 -1123l340 1123h193z" />
    <glyph glyph-name="X" unicode="X" horiz-adv-x="1347" 
d="M1073 0l-403 588l-398 -588h-215l500 727l-496 715h215l400 -582l397 582h213l-495 -719l499 -723h-217z" />
    <glyph glyph-name="Y" unicode="Y" horiz-adv-x="1304" 
d="M743 0h-182v565l-530 877h207l413 -692l416 692h207l-531 -877v-565z" />
    <glyph glyph-name="Z" unicode="Z" horiz-adv-x="1265" 
d="M121 154l801 1120h-801v168h1024v-154l-803 -1120h803v-168h-1024v154z" />
    <glyph glyph-name="bracketleft" unicode="[" horiz-adv-x="749" 
d="M688 1333h-297v-1501h297v-156h-473v1813h473v-156z" />
    <glyph glyph-name="backslash" unicode="\" horiz-adv-x="749" 
d="M195 1489l534 -1813h-174l-535 1813h175z" />
    <glyph glyph-name="bracketright" unicode="]" horiz-adv-x="749" 
d="M61 -324v156h297v1501h-297v156h474v-1813h-474z" />
    <glyph glyph-name="asciicircum" unicode="^" horiz-adv-x="921" 
d="M866 770h-174l-231 463l-232 -463h-174l328 647h156z" />
    <glyph glyph-name="underscore" unicode="_" horiz-adv-x="989" 
d="M0 -98h989v-160h-989v160z" />
    <glyph glyph-name="grave" unicode="`" horiz-adv-x="1064" 
d="M340 1505h190l195 -315h-178z" />
    <glyph glyph-name="a" unicode="a" horiz-adv-x="1087" 
d="M770 684q0 104 -64.5 159.5t-168.5 55.5q-96 0 -155 -37.5t-83 -99.5h-170q26 127 134.5 210t277.5 83q183 0 293 -99.5t110 -271.5v-684h-166v123q-58 -71 -145 -108.5t-187 -37.5q-154 0 -255 86.5t-101 231.5q0 149 108.5 234t297.5 85h274v70zM469 131q127 0 214 71
t87 187v76h-264q-109 0 -173.5 -43.5t-64.5 -124.5q0 -79 56 -122.5t145 -43.5z" />
    <glyph glyph-name="b" unicode="b" horiz-adv-x="1218" 
d="M662 1055q89 0 171 -34t148 -99t105.5 -170t39.5 -236q0 -132 -40 -237.5t-107 -170t-150 -98t-174 -33.5q-121 0 -207.5 46t-123.5 114v-137h-170v1489h176v-594q44 70 128 115t204 45zM639 137q138 0 222.5 105t84.5 274t-84.5 274t-222.5 105q-143 0 -229 -102
t-86 -273v-8q0 -171 86 -273t229 -102z" />
    <glyph glyph-name="c" unicode="c" horiz-adv-x="1103" 
d="M582 137q61 0 109.5 18t79 48.5t48 62.5t27.5 68h176q-18 -146 -138.5 -251.5t-303.5 -105.5q-218 0 -353 150.5t-135 388.5q0 235 134 387t354 152q98 0 180 -31.5t134.5 -84t84.5 -113t43 -124.5h-176q-25 79 -90 136t-176 57q-140 0 -224 -105t-84 -274t85.5 -274
t224.5 -105z" />
    <glyph glyph-name="d" unicode="d" horiz-adv-x="1218" 
d="M557 -23q-89 0 -171 34t-148.5 99t-106 170t-39.5 236q0 132 40 237.5t107 170t150 98t174 33.5q115 0 200.5 -44t125.5 -108v586h176v-1489h-170v147q-42 -73 -128.5 -121.5t-209.5 -48.5zM580 895q-138 0 -223 -105t-85 -274t85 -274t223 -105q143 0 229 102t86 273v8
q0 171 -86 273t-229 102z" />
    <glyph glyph-name="e" unicode="e" horiz-adv-x="1120" 
d="M1028 463h-752v-4q0 -140 88.5 -232t229.5 -92q97 0 162.5 41.5t81.5 89.5h178q-11 -49 -41 -97t-79.5 -92.5t-129 -72t-174.5 -27.5q-226 0 -363 146t-137 393t135 393t351 146q206 0 328 -136t122 -366v-90zM573 897q-127 0 -205 -78.5t-89 -206.5h571
q-6 134 -79.5 209.5t-197.5 75.5z" />
    <glyph glyph-name="f" unicode="f" horiz-adv-x="667" 
d="M387 0h-176v874h-176v158h176v131q0 160 85.5 243t242.5 83h71v-158h-59q-80 0 -122 -40t-42 -132v-127h223v-158h-223v-874z" />
    <glyph glyph-name="g" unicode="g" horiz-adv-x="1218" 
d="M895 1032h170v-969q0 -226 -129 -357.5t-352 -131.5q-103 0 -187.5 27t-137 72.5t-83 100t-35.5 113.5h174q56 -153 271 -153q145 0 224 87.5t79 241.5v95q-45 -69 -129 -114.5t-203 -45.5q-89 0 -171 34t-148.5 97.5t-106 166.5t-39.5 230q0 128 40 231t106.5 167
t150 97.5t174.5 33.5q121 0 207 -46t125 -114v137zM580 158q142 0 228.5 100.5t86.5 263.5v8q0 163 -86.5 264t-228.5 101q-137 0 -222.5 -103.5t-85.5 -265.5t85.5 -265t222.5 -103z" />
    <glyph glyph-name="h" unicode="h" horiz-adv-x="1165" 
d="M637 1055q78 0 145.5 -24t122 -71.5t86 -127.5t31.5 -183v-649h-176v625q0 135 -66 202.5t-176 67.5q-52 0 -99 -16.5t-87.5 -49t-64 -90t-23.5 -131.5v-608h-176v1489h176v-569q43 56 123 95.5t184 39.5z" />
    <glyph glyph-name="i" unicode="i" horiz-adv-x="483" 
d="M330 1032v-1032h-176v1032h176zM242 1464q51 0 85.5 -33.5t34.5 -84.5t-34.5 -85t-85.5 -34t-86 34t-35 85t35 84.5t86 33.5z" />
    <glyph glyph-name="j" unicode="j" horiz-adv-x="483" 
d="M-31 -391v158h45q62 0 101 38.5t39 141.5v1085h176v-1093q0 -330 -287 -330h-74zM242 1464q51 0 85.5 -33.5t34.5 -84.5t-34.5 -85t-85.5 -34t-86 34t-35 85t35 84.5t86 33.5z" />
    <glyph glyph-name="k" unicode="k" horiz-adv-x="1036" 
d="M330 0h-176v1489h176v-899l446 442h223l-485 -481l492 -551h-228l-448 498v-498z" />
    <glyph glyph-name="l" unicode="l" horiz-adv-x="483" 
d="M330 1489v-1489h-176v1489h176z" />
    <glyph glyph-name="m" unicode="m" horiz-adv-x="1775" 
d="M1266 1055q70 0 133.5 -23t116.5 -68.5t84.5 -123t31.5 -178.5v-662h-176v639q0 129 -63.5 192.5t-163.5 63.5q-102 0 -175 -69t-73 -193v-633h-176v639q0 129 -63.5 192.5t-163.5 63.5q-102 0 -175 -69t-73 -193v-633h-176v1032h170v-121q40 61 119.5 102.5t172.5 41.5
q95 0 178 -43.5t132 -128.5q46 71 136 121.5t204 50.5z" />
    <glyph glyph-name="n" unicode="n" horiz-adv-x="1165" 
d="M154 1032h170v-121q42 60 123.5 102t189.5 42q78 0 145.5 -24t122 -71.5t86 -127.5t31.5 -183v-649h-176v625q0 135 -66 202.5t-176 67.5q-52 0 -99 -16.5t-87.5 -49t-64 -90t-23.5 -131.5v-608h-176v1032z" />
    <glyph glyph-name="o" unicode="o" horiz-adv-x="1175" 
d="M588 1055q223 0 359 -151t136 -388t-136 -388t-359 -151t-359.5 151t-136.5 388t136.5 388t359.5 151zM588 137q145 0 230 104.5t85 274.5t-85 274.5t-230 104.5t-230.5 -104.5t-85.5 -274.5t85.5 -274.5t230.5 -104.5z" />
    <glyph glyph-name="p" unicode="p" horiz-adv-x="1218" 
d="M662 1055q89 0 171 -34t148 -99t105.5 -170t39.5 -236q0 -132 -40 -237.5t-107 -170t-150 -98t-174 -33.5q-117 0 -201 43t-124 107v-518h-176v1423h170v-147q41 72 127.5 121t210.5 49zM639 137q138 0 222.5 105t84.5 274t-84.5 274t-222.5 105q-143 0 -229 -102
t-86 -273v-8q0 -171 86 -273t229 -102z" />
    <glyph glyph-name="q" unicode="q" horiz-adv-x="1218" 
d="M557 -23q-89 0 -171 34t-148.5 99t-106 170t-39.5 236q0 132 40 237.5t107 170t150 98t174 33.5q120 0 206.5 -46.5t125.5 -113.5v137h170v-1423h-176v528q-44 -70 -128.5 -115t-203.5 -45zM580 895q-138 0 -223 -105t-85 -274t85 -274t223 -105q143 0 229 102t86 273v8
q0 171 -86 273t-229 102z" />
    <glyph glyph-name="r" unicode="r" horiz-adv-x="759" 
d="M649 1036h53v-166h-53q-142 0 -230.5 -77.5t-88.5 -225.5v-567h-176v1032h170v-158q103 162 325 162z" />
    <glyph glyph-name="s" unicode="s" horiz-adv-x="1015" 
d="M266 289q17 -73 85 -114.5t173 -41.5t165.5 40.5t60.5 115.5q0 58 -42 94t-116 45l-184 25q-293 41 -293 280q0 137 110 229.5t277 92.5q163 0 270.5 -77.5t132.5 -217.5h-172q-49 139 -231 139q-97 0 -154 -43.5t-57 -110.5q0 -111 147 -129l187 -24q137 -19 219 -89.5
t82 -203.5q0 -151 -113 -236.5t-285 -85.5q-78 0 -148.5 17t-133 52t-103.5 97.5t-51 145.5h174z" />
    <glyph glyph-name="t" unicode="t" horiz-adv-x="688" 
d="M383 322q0 -93 42 -128.5t116 -35.5h69v-158h-98q-152 0 -228.5 76.5t-76.5 236.5v561h-172v158h172v275h176v-275h227v-158h-227v-552z" />
    <glyph glyph-name="u" unicode="u" horiz-adv-x="1165" 
d="M1012 0h-170v121q-44 -60 -125 -102t-189 -42q-78 0 -145.5 24t-122 71.5t-86 127.5t-31.5 183v649h176v-624q0 -135 66 -203t176 -68q52 0 99.5 16.5t87.5 49t64 90t24 131.5v608h176v-1032z" />
    <glyph glyph-name="v" unicode="v" horiz-adv-x="1050" 
d="M1020 1032l-404 -1032h-182l-403 1032h190l303 -811l305 811h191z" />
    <glyph glyph-name="w" unicode="w" horiz-adv-x="1583" 
d="M1542 1032l-338 -1032h-170l-246 788l-241 -788h-168l-338 1032h184l240 -760l237 760h179l237 -760l240 760h184z" />
    <glyph glyph-name="x" unicode="x" horiz-adv-x="1058" 
d="M801 0l-277 391l-270 -391h-203l367 516l-363 516h207l273 -395l266 395h203l-363 -522l367 -510h-207z" />
    <glyph glyph-name="y" unicode="y" horiz-adv-x="1062" 
d="M842 1032h190l-565 -1423h-191l160 403l-405 1020h190l311 -805z" />
    <glyph glyph-name="z" unicode="z" horiz-adv-x="1003" 
d="M102 0v137l574 737h-574v158h799v-139l-575 -735h575v-158h-799z" />
    <glyph glyph-name="braceleft" unicode="{" horiz-adv-x="765" 
d="M457 844q0 -122 -36 -181t-120 -83q84 -23 120 -84t36 -183v-262q0 -122 41.5 -170.5t140.5 -48.5h66v-156h-76q-164 0 -256 86.5t-92 270.5v256q0 109 -35 161t-123 52h-72v153h72q88 0 123 52t35 161v265q0 184 92 270t256 86h76v-156h-66q-99 0 -140.5 -48.5
t-41.5 -170.5v-270z" />
    <glyph glyph-name="bar" unicode="|" horiz-adv-x="552" 
d="M195 1489h163v-1813h-163v1813z" />
    <glyph glyph-name="braceright" unicode="}" horiz-adv-x="765" 
d="M309 844v270q0 122 -41.5 170.5t-140.5 48.5h-66v156h76q164 0 256 -86t92 -270v-265q0 -109 35 -161t123 -52h72v-153h-72q-88 0 -123 -52t-35 -161v-256q0 -184 -92 -270.5t-256 -86.5h-76v156h66q99 0 140.5 48.5t41.5 170.5v262q0 122 36 183t120 84q-84 24 -120 83
t-36 181z" />
    <glyph glyph-name="asciitilde" unicode="~" 
d="M975 723h160v-61q0 -139 -80 -220.5t-203 -81.5q-61 0 -116.5 22t-95.5 54t-77 63.5t-76 53.5t-77 22q-58 0 -92.5 -39.5t-34.5 -107.5v-49h-160v61q0 139 80 220t203 81q61 0 116.5 -22t95.5 -53.5t77 -63.5t76 -54t77 -22q58 0 92.5 40t34.5 108v49z" />
    <glyph glyph-name="uni00A0" unicode="&#xa0;" horiz-adv-x="450" 
 />
    <glyph glyph-name="exclamdown" unicode="&#xa1;" horiz-adv-x="622" 
d="M227 602h166l13 -993h-191zM311 1055q53 0 90 -36t37 -89t-37 -89t-90 -36t-90 36t-37 89t37 89t90 36z" />
    <glyph glyph-name="cent" unicode="&#xa2;" horiz-adv-x="1157" 
d="M885 918q-20 63 -75.5 116t-143.5 70v-768q94 16 149 70.5t70 121.5h176q-14 -130 -123.5 -232t-271.5 -120v-194h-146v194q-190 27 -302 172t-112 373q0 225 112 371t302 172v196h146v-194q167 -19 271.5 -121.5t123.5 -226.5h-176zM287 721q0 -155 62.5 -254
t170.5 -127v760q-109 -27 -171 -125t-62 -254z" />
    <glyph glyph-name="sterling" unicode="&#xa3;" horiz-adv-x="1196" 
d="M973 623h-486q5 -50 5 -64q0 -216 -175 -391h787v-168h-1010v158q219 219 219 403q0 32 -6 62h-213v159h162q-61 153 -61 267q0 185 129 300t319 115q179 0 302.5 -102.5t154.5 -267.5h-187q-27 100 -99 151t-177 51q-115 0 -186.5 -65.5t-71.5 -186.5q0 -25 3.5 -50.5
t7 -44t12.5 -45t14 -39.5t17 -42.5t16 -40.5h524v-159z" />
    <glyph glyph-name="currency" unicode="&#xa4;" 
d="M1075 721q0 -135 -78 -250l185 -184l-119 -117l-184 184q-110 -75 -250 -75q-143 0 -250 75l-184 -184l-119 117l184 184q-78 115 -78 250t78 250l-184 184l119 117l184 -185q113 76 250 76q134 0 250 -76l184 185l119 -117l-185 -184q78 -115 78 -250zM350 721
q0 -123 81 -203t198 -80t197.5 80t80.5 203t-80.5 203t-197.5 80t-198 -80t-81 -203z" />
    <glyph glyph-name="yen" unicode="&#xa5;" horiz-adv-x="1234" 
d="M1067 264h-358v-264h-183v264h-358v152h358v166h-358v151h274l-411 709h200l385 -686l390 686h198l-413 -709h276v-151h-358v-166h358v-152z" />
    <glyph glyph-name="brokenbar" unicode="&#xa6;" horiz-adv-x="552" 
d="M358 428v-752h-163v752h163zM195 737v752h163v-752h-163z" />
    <glyph glyph-name="section" unicode="&#xa7;" horiz-adv-x="1097" 
d="M98 606q0 97 54 170t137 111q-135 86 -135 241q0 144 111 240t282 96q160 0 273 -83.5t130 -219.5h-174q-20 71 -79.5 109.5t-151.5 38.5q-96 0 -155.5 -46t-59.5 -122q0 -126 170 -158l200 -39q137 -27 218 -108.5t81 -202.5q0 -93 -48.5 -163t-125.5 -110
q121 -91 121 -243q0 -151 -113 -248.5t-286 -97.5t-290 84t-138 239h174q18 -82 87 -125t171 -43q97 0 158 49t61 127q0 136 -166 166l-215 39q-132 24 -211.5 100t-79.5 199zM674 424l16 -4q58 30 95.5 78t37.5 108q0 77 -47.5 123t-132.5 62l-211 40h-4q-68 -28 -112 -78
t-44 -114q0 -145 170 -174z" />
    <glyph glyph-name="dieresis" unicode="&#xa8;" horiz-adv-x="1064" 
d="M322 1464q51 0 85.5 -33.5t34.5 -84.5t-34.5 -85t-85.5 -34t-86 34t-35 85t35 84.5t86 33.5zM743 1464q51 0 86 -33.5t35 -84.5t-35 -85t-86 -34t-85.5 34t-34.5 85t34.5 84.5t85.5 33.5z" />
    <glyph glyph-name="ordfeminine" unicode="&#xaa;" horiz-adv-x="784" 
d="M539 1208q0 63 -40.5 98t-111.5 35q-59 0 -98 -23t-51 -65h-148q17 92 101.5 151.5t199.5 59.5q136 0 216.5 -69.5t80.5 -186.5v-467h-139v88q-38 -50 -99.5 -77t-136.5 -27q-112 0 -182 61.5t-70 159.5q0 101 79 160t214 59h185v43zM354 846q77 0 131 47.5t54 114.5v45
h-177q-70 0 -108.5 -27.5t-38.5 -73.5t39 -76t100 -30z" />
    <glyph glyph-name="guillemotleft" unicode="&#xab;" horiz-adv-x="1226" 
d="M313 526l351 -426h-205l-357 426l357 426h205zM774 526l350 -426h-204l-357 426l357 426h204z" />
    <glyph glyph-name="logicalnot" unicode="&#xac;" 
d="M164 793h915v-545h-170v377h-745v168z" />
    <glyph glyph-name="uni00AD" unicode="&#xad;" horiz-adv-x="862" 
d="M113 469v168h637v-168h-637z" />
    <glyph glyph-name="macron" unicode="&#xaf;" horiz-adv-x="1064" 
d="M231 1421h603v-151h-603v151z" />
    <glyph glyph-name="degree" unicode="&#xb0;" horiz-adv-x="901" 
d="M809 1094q0 -152 -105 -253.5t-253 -101.5t-253.5 101.5t-105.5 253.5t105 253t254 101q148 0 253 -101t105 -253zM248 1094q0 -86 60 -144.5t143 -58.5t142.5 58.5t59.5 144.5t-59.5 144t-142.5 58t-143 -58t-60 -144z" />
    <glyph glyph-name="plusminus" unicode="&#xb1;" 
d="M1090 530h-379v-354h374v-156h-911v156h373v354h-379v156h379v377h164v-377h379v-156z" />
    <glyph glyph-name="twosuperior" unicode="&#xb2;" horiz-adv-x="792" 
d="M299 844h418v-133h-627v125l338 311q4 4 21.5 20t24 23t20.5 22.5t20.5 26.5t15 26.5t12 32t3.5 33.5q0 57 -43 93t-109 36q-65 0 -108 -35t-54 -90h-147q11 113 97 186.5t220 73.5q131 0 216 -74.5t85 -185.5q0 -77 -43.5 -141.5t-119.5 -132.5z" />
    <glyph glyph-name="threesuperior" unicode="&#xb3;" horiz-adv-x="804" 
d="M84 1348q15 114 104.5 180.5t214.5 66.5q129 0 213 -67t84 -168q0 -70 -37.5 -119.5t-95.5 -73.5q64 -16 114 -72t50 -141q0 -110 -90.5 -184t-230.5 -74q-136 0 -231 70.5t-105 185.5h147q15 -57 66 -90t123 -33q71 0 117 38t46 96q0 61 -44.5 94t-122.5 33h-107v131h90
q72 0 113 34t41 86q0 54 -41 87.5t-107 33.5q-65 0 -108 -32t-54 -82h-149z" />
    <glyph glyph-name="acute" unicode="&#xb4;" horiz-adv-x="1064" 
d="M725 1505l-207 -315h-178l195 315h190z" />
    <glyph glyph-name="mu" unicode="&#xb5;" horiz-adv-x="1183" 
d="M854 1032h176v-1032h-170v121q-43 -60 -126 -102t-191 -42q-57 0 -115.5 16.5t-97.5 45.5v-430h-176v1423h176v-624q0 -135 67.5 -203t177.5 -68q52 0 100 16.5t89 49t65.5 90t24.5 131.5v608z" />
    <glyph glyph-name="paragraph" unicode="&#xb6;" horiz-adv-x="1212" 
d="M532 1442h500v-1649h-162v1493h-313q-127 0 -205 -67.5t-78 -192.5q0 -119 78.5 -186.5t204.5 -67.5h143v-979h-161v823h-11q-188 0 -309 115t-121 295q0 187 120.5 301.5t313.5 114.5z" />
    <glyph glyph-name="periodcentered" unicode="&#xb7;" horiz-adv-x="540" 
d="M270 641q53 0 90 -36t37 -89t-37 -89t-90 -36t-90 36t-37 89t37 89t90 36z" />
    <glyph glyph-name="cedilla" unicode="&#xb8;" horiz-adv-x="1064" 
d="M590 27v-27l-41 -111q66 -7 116 -52t50 -124q0 -90 -64.5 -145t-187.5 -55h-113v127h109q46 0 72 20t26 57q0 36 -25.5 54t-68.5 18h-74v43l74 195h127z" />
    <glyph glyph-name="onesuperior" unicode="&#xb9;" horiz-adv-x="598" 
d="M440 1581v-870h-155v702l-215 -131v154l225 145h145z" />
    <glyph glyph-name="ordmasculine" unicode="&#xba;" horiz-adv-x="833" 
d="M416 1464q158 0 257 -103t99 -267q0 -163 -98.5 -266t-255.5 -103q-158 0 -257.5 103.5t-99.5 267.5q0 163 99 265.5t256 102.5zM416 858q92 0 147 66.5t55 169.5q0 104 -54.5 170.5t-145.5 66.5q-92 0 -147.5 -66t-55.5 -169q0 -104 55 -171t146 -67z" />
    <glyph glyph-name="guillemotright" unicode="&#xbb;" horiz-adv-x="1226" 
d="M453 526l-351 426h205l357 -426l-357 -426h-205zM913 526l-350 426h205l356 -426l-356 -426h-205z" />
    <glyph glyph-name="onequarter" unicode="&#xbc;" horiz-adv-x="1849" 
d="M440 1442v-871h-155v703l-215 -131v153l225 146h145zM250 0l1034 1442h182l-1034 -1442h-182zM1786 315v-131h-123v-184h-147v184h-437v127l387 561h197v-557h123zM1235 315h281v400z" />
    <glyph glyph-name="onehalf" unicode="&#xbd;" horiz-adv-x="1910" 
d="M440 1442v-871h-155v703l-215 -131v153l225 146h145zM250 0l1034 1442h182l-1034 -1442h-182zM1417 133h418v-133h-627v125l338 311q3 3 21.5 20t24 23t20.5 22.5t21 27t14.5 26.5t12 32.5t3.5 33.5q0 57 -43 93t-109 36q-65 0 -107.5 -35t-53.5 -90h-148
q11 113 97.5 186.5t220.5 73.5q131 0 216 -74.5t85 -185.5q0 -77 -44 -142t-120 -133z" />
    <glyph glyph-name="threequarters" unicode="&#xbe;" horiz-adv-x="2056" 
d="M84 1208q15 114 104.5 181t214.5 67q129 0 213 -67t84 -168q0 -70 -37.5 -119.5t-95.5 -73.5q64 -16 114 -72t50 -141q0 -110 -90.5 -184t-230.5 -74q-136 0 -231 70.5t-105 185.5h147q15 -57 66 -90t123 -33q71 0 117 37.5t46 95.5q0 61 -44.5 94t-122.5 33h-107v131h90
q72 0 113 34.5t41 86.5q0 54 -41 87.5t-107 33.5q-65 0 -108 -32.5t-54 -82.5h-149zM457 0l1034 1442h182l-1034 -1442h-182zM1993 315v-131h-123v-184h-148v184h-436v127l387 561h197v-557h123zM1442 315h280v400z" />
    <glyph glyph-name="questiondown" unicode="&#xbf;" horiz-adv-x="1087" 
d="M594 1055q53 0 90 -36t37 -89t-37 -89t-90 -36t-90 36t-37 89t37 89t90 36zM289 -47q0 -99 70.5 -160t185.5 -61q223 0 289 215h178q-27 -166 -151 -272.5t-318 -106.5q-199 0 -319 107t-120 270q0 58 14 108t31.5 82.5t51.5 67.5t56 52t63 46q9 7 14 10q8 6 40.5 28.5
t40 29t31 26.5t30.5 32.5t19 34t15.5 45t3.5 52.5v43h172v-53q0 -54 -11 -99t-27 -75t-47.5 -62.5t-57 -52t-72.5 -51.5q-38 -27 -57 -41.5t-47.5 -41t-42 -49t-24.5 -55t-11 -69.5z" />
    <glyph glyph-name="Agrave" unicode="&#xc0;" horiz-adv-x="1359" 
d="M586 1442h188l545 -1442h-197l-141 381h-606l-137 -381h-197zM678 1210l-242 -661h484zM383 1898h190l195 -315h-178z" />
    <glyph glyph-name="Aacute" unicode="&#xc1;" horiz-adv-x="1359" 
d="M586 1442h188l545 -1442h-197l-141 381h-606l-137 -381h-197zM678 1210l-242 -661h484zM985 1898l-207 -315h-178l195 315h190z" />
    <glyph glyph-name="Acircumflex" unicode="&#xc2;" horiz-adv-x="1359" 
d="M586 1442h188l545 -1442h-197l-141 381h-606l-137 -381h-197zM678 1210l-242 -661h484zM514 1583h-186l270 315h172l270 -315h-186l-170 186z" />
    <glyph glyph-name="Atilde" unicode="&#xc3;" horiz-adv-x="1359" 
d="M586 1442h188l545 -1442h-197l-141 381h-606l-137 -381h-197zM678 1210l-242 -661h484zM889 1866h133v-37q0 -105 -54 -166t-145 -61q-51 0 -95.5 20.5t-69.5 45t-54.5 45t-54.5 20.5q-30 0 -50 -23.5t-20 -64.5v-31h-133v37q0 105 54 166t145 61q51 0 95.5 -20.5
t69.5 -45t54.5 -45t54.5 -20.5q30 0 50 23.5t20 64.5v31z" />
    <glyph glyph-name="Adieresis" unicode="&#xc4;" horiz-adv-x="1359" 
d="M586 1442h188l545 -1442h-197l-141 381h-606l-137 -381h-197zM678 1210l-242 -661h484zM465 1858q51 0 86 -34t35 -85t-35 -85t-86 -34t-86 34t-35 85t35 85t86 34zM903 1858q51 0 86 -34t35 -85t-35 -85t-86 -34t-86 34t-35 85t35 85t86 34z" />
    <glyph glyph-name="Aring" unicode="&#xc5;" horiz-adv-x="1359" 
d="M586 1442h188l545 -1442h-197l-141 381h-606l-137 -381h-197zM678 1210l-242 -661h484zM901 1759q0 -91 -61.5 -151t-155.5 -60t-155.5 60t-61.5 151t61.5 151t155.5 60t155.5 -60t61.5 -151zM590 1759q0 -41 27.5 -67.5t66.5 -26.5t66.5 26.5t27.5 67.5t-27.5 67.5
t-66.5 26.5t-66.5 -26.5t-27.5 -67.5z" />
    <glyph glyph-name="AE" unicode="&#xc6;" horiz-adv-x="2033" 
d="M897 1442h1014v-168h-727v-451h688v-166h-688v-489h727v-168h-907v383h-549l-232 -383h-203zM555 549h449v741z" />
    <glyph glyph-name="Ccedilla" unicode="&#xc7;" horiz-adv-x="1445" 
d="M1165 451h185q-9 -61 -33.5 -121.5t-69 -120t-103.5 -107t-143 -80t-182 -40.5l-33 -93q66 -7 116 -52t50 -124q0 -90 -64.5 -145t-187.5 -55h-112v127h108q46 0 72.5 20.5t26.5 56.5q0 35 -26 53.5t-69 18.5h-73v43l55 150q-257 28 -416.5 231t-159.5 508
q0 214 80.5 382.5t229.5 264.5t340 96q125 0 230 -37t177.5 -102t119 -149.5t63.5 -182.5h-185q-25 87 -72 151.5t-132.5 107t-200.5 42.5q-210 0 -336.5 -159t-126.5 -414q0 -252 125.5 -413t335.5 -161q73 0 137 19t109.5 49.5t80.5 71t55 81.5t29 83z" />
    <glyph glyph-name="Egrave" unicode="&#xc8;" horiz-adv-x="1216" 
d="M1094 1274h-732v-451h693v-166h-693v-489h732v-168h-914v1442h914v-168zM342 1898h190l195 -315h-178z" />
    <glyph glyph-name="Eacute" unicode="&#xc9;" horiz-adv-x="1216" 
d="M1094 1274h-732v-451h693v-166h-693v-489h732v-168h-914v1442h914v-168zM944 1898l-207 -315h-178l195 315h190z" />
    <glyph glyph-name="Ecircumflex" unicode="&#xca;" horiz-adv-x="1216" 
d="M1094 1274h-732v-451h693v-166h-693v-489h732v-168h-914v1442h914v-168zM473 1583h-186l270 315h172l270 -315h-186l-170 186z" />
    <glyph glyph-name="Edieresis" unicode="&#xcb;" horiz-adv-x="1216" 
d="M1094 1274h-732v-451h693v-166h-693v-489h732v-168h-914v1442h914v-168zM424 1858q51 0 86 -34t35 -85t-35 -85t-86 -34t-86 34t-35 85t35 85t86 34zM862 1858q51 0 86 -34t35 -85t-35 -85t-86 -34t-86 34t-35 85t35 85t86 34z" />
    <glyph glyph-name="Igrave" unicode="&#xcc;" horiz-adv-x="542" 
d="M362 1442v-1442h-182v1442h182zM-27 1898h191l194 -315h-178z" />
    <glyph glyph-name="Iacute" unicode="&#xcd;" horiz-adv-x="542" 
d="M362 1442v-1442h-182v1442h182zM571 1898l-206 -315h-179l195 315h190z" />
    <glyph glyph-name="Icircumflex" unicode="&#xce;" horiz-adv-x="542" 
d="M362 1442v-1442h-182v1442h182zM113 1583h-187l260 315h172l263 -315h-187l-162 186z" />
    <glyph glyph-name="Idieresis" unicode="&#xcf;" horiz-adv-x="542" 
d="M362 1442v-1442h-182v1442h182zM61 1858q51 0 86 -34t35 -85t-35 -85t-86 -34t-85.5 34t-34.5 85t34.5 85t85.5 34zM483 1858q51 0 86 -34t35 -85t-35 -85t-86 -34t-86 34t-35 85t35 85t86 34z" />
    <glyph glyph-name="Eth" unicode="&#xd0;" horiz-adv-x="1484" 
d="M664 1442q336 0 525 -191.5t189 -529.5t-189 -529.5t-525 -191.5h-449v659h-166v162h166v621h449zM752 659h-355v-493h244q273 0 412 144t139 411q0 266 -139.5 410.5t-411.5 144.5h-244v-455h355v-162z" />
    <glyph glyph-name="Ntilde" unicode="&#xd1;" horiz-adv-x="1501" 
d="M377 1442l766 -1143v1143h178v-1442h-178l-785 1167v-1167h-178v1442h197zM963 1866h133v-37q0 -105 -54 -166t-145 -61q-51 0 -95.5 20.5t-69.5 45t-54.5 45t-54.5 20.5q-30 0 -50 -23.5t-20 -64.5v-31h-133v37q0 105 53.5 166t144.5 61q51 0 95.5 -20.5t70 -45t55 -45
t54.5 -20.5q30 0 50 23.5t20 64.5v31z" />
    <glyph glyph-name="Ograve" unicode="&#xd2;" horiz-adv-x="1540" 
d="M770 1464q198 0 350 -96.5t233 -265t81 -381.5q0 -159 -47.5 -296.5t-133 -236.5t-210.5 -155t-273 -56t-273 56t-210.5 155t-133 236.5t-47.5 296.5q0 213 81 381.5t233 265t350 96.5zM770 147q218 0 347.5 159.5t129.5 414.5t-129 414t-348 159t-348 -159t-129 -414
t129.5 -414.5t347.5 -159.5zM469 1898h190l195 -315h-178z" />
    <glyph glyph-name="Oacute" unicode="&#xd3;" horiz-adv-x="1540" 
d="M770 1464q198 0 350 -96.5t233 -265t81 -381.5q0 -159 -47.5 -296.5t-133 -236.5t-210.5 -155t-273 -56t-273 56t-210.5 155t-133 236.5t-47.5 296.5q0 213 81 381.5t233 265t350 96.5zM770 147q218 0 347.5 159.5t129.5 414.5t-129 414t-348 159t-348 -159t-129 -414
t129.5 -414.5t347.5 -159.5zM1071 1898l-207 -315h-178l195 315h190z" />
    <glyph glyph-name="Ocircumflex" unicode="&#xd4;" horiz-adv-x="1540" 
d="M770 1464q198 0 350 -96.5t233 -265t81 -381.5q0 -159 -47.5 -296.5t-133 -236.5t-210.5 -155t-273 -56t-273 56t-210.5 155t-133 236.5t-47.5 296.5q0 213 81 381.5t233 265t350 96.5zM770 147q218 0 347.5 159.5t129.5 414.5t-129 414t-348 159t-348 -159t-129 -414
t129.5 -414.5t347.5 -159.5zM600 1583h-186l270 315h172l270 -315h-186l-170 186z" />
    <glyph glyph-name="Otilde" unicode="&#xd5;" horiz-adv-x="1540" 
d="M770 1464q198 0 350 -96.5t233 -265t81 -381.5q0 -159 -47.5 -296.5t-133 -236.5t-210.5 -155t-273 -56t-273 56t-210.5 155t-133 236.5t-47.5 296.5q0 213 81 381.5t233 265t350 96.5zM770 147q218 0 347.5 159.5t129.5 414.5t-129 414t-348 159t-348 -159t-129 -414
t129.5 -414.5t347.5 -159.5zM975 1866h133v-37q0 -105 -54 -166t-145 -61q-51 0 -95.5 20.5t-69.5 45t-54.5 45t-54.5 20.5q-30 0 -50 -23.5t-20 -64.5v-31h-133v37q0 105 54 166t145 61q51 0 95.5 -20.5t69.5 -45t54.5 -45t54.5 -20.5q30 0 50 23.5t20 64.5v31z" />
    <glyph glyph-name="Odieresis" unicode="&#xd6;" horiz-adv-x="1540" 
d="M770 1464q198 0 350 -96.5t233 -265t81 -381.5q0 -159 -47.5 -296.5t-133 -236.5t-210.5 -155t-273 -56t-273 56t-210.5 155t-133 236.5t-47.5 296.5q0 213 81 381.5t233 265t350 96.5zM770 147q218 0 347.5 159.5t129.5 414.5t-129 414t-348 159t-348 -159t-129 -414
t129.5 -414.5t347.5 -159.5zM551 1858q51 0 86 -34t35 -85t-35 -85t-86 -34t-86 34t-35 85t35 85t86 34zM989 1858q51 0 86 -34t35 -85t-35 -85t-86 -34t-86 34t-35 85t35 85t86 34z" />
    <glyph glyph-name="multiply" unicode="&#xd7;" 
d="M1081 213l-112 -111l-340 340l-340 -340l-113 111l340 340l-338 340l111 113l340 -340l340 340l110 -113l-340 -340z" />
    <glyph glyph-name="Oslash" unicode="&#xd8;" horiz-adv-x="1540" 
d="M1413 1516l-172 -250q93 -101 143 -240.5t50 -304.5q0 -159 -47.5 -296.5t-133 -236.5t-210.5 -155t-273 -56q-200 0 -354 99l-103 -150h-186l172 248q-93 100 -143 241t-50 306q0 213 81 381.5t233 265t350 96.5q195 0 352 -98l105 150h186zM770 145q146 0 255.5 74
t166.5 204t57 298q0 239 -114 393l-621 -895q113 -74 256 -74zM291 721q0 -244 112 -395l621 897q-112 73 -254 73q-146 0 -255.5 -73.5t-166.5 -203.5t-57 -298z" />
    <glyph glyph-name="Ugrave" unicode="&#xd9;" horiz-adv-x="1474" 
d="M170 565v877h182v-871q0 -206 106.5 -315t278.5 -109t278.5 109t106.5 315v871h183v-877q0 -144 -43 -257t-120 -185t-180 -109t-225 -37t-224.5 37t-179.5 109t-120 185t-43 257zM436 1898h191l194 -315h-178z" />
    <glyph glyph-name="Uacute" unicode="&#xda;" horiz-adv-x="1474" 
d="M170 565v877h182v-871q0 -206 106.5 -315t278.5 -109t278.5 109t106.5 315v871h183v-877q0 -144 -43 -257t-120 -185t-180 -109t-225 -37t-224.5 37t-179.5 109t-120 185t-43 257zM1038 1898l-207 -315h-178l195 315h190z" />
    <glyph glyph-name="Ucircumflex" unicode="&#xdb;" horiz-adv-x="1474" 
d="M170 565v877h182v-871q0 -206 106.5 -315t278.5 -109t278.5 109t106.5 315v871h183v-877q0 -144 -43 -257t-120 -185t-180 -109t-225 -37t-224.5 37t-179.5 109t-120 185t-43 257zM567 1583h-186l270 315h172l271 -315h-187l-170 186z" />
    <glyph glyph-name="Udieresis" unicode="&#xdc;" horiz-adv-x="1474" 
d="M170 565v877h182v-871q0 -206 106.5 -315t278.5 -109t278.5 109t106.5 315v871h183v-877q0 -144 -43 -257t-120 -185t-180 -109t-225 -37t-224.5 37t-179.5 109t-120 185t-43 257zM518 1858q51 0 86 -34t35 -85t-35 -85t-86 -34t-86 34t-35 85t35 85t86 34zM956 1858
q51 0 86 -34t35 -85t-35 -85t-86 -34t-85.5 34t-34.5 85t34.5 85t85.5 34z" />
    <glyph glyph-name="Yacute" unicode="&#xdd;" horiz-adv-x="1304" 
d="M743 0h-182v565l-530 877h207l413 -692l416 692h207l-531 -877v-565zM956 1898l-206 -315h-179l195 315h190z" />
    <glyph glyph-name="Thorn" unicode="&#xde;" horiz-adv-x="1243" 
d="M362 0h-182v1442h182v-268h312q217 0 346 -122t129 -313q0 -188 -130.5 -312t-340.5 -124h-316v-303zM653 1008h-291v-539h291q142 0 226 72t84 198q0 128 -83 198.5t-227 70.5z" />
    <glyph glyph-name="germandbls" unicode="&#xdf;" horiz-adv-x="1216" 
d="M154 0v1016q0 214 127.5 343.5t339.5 129.5q201 0 315.5 -111.5t114.5 -271.5q0 -63 -18 -115t-49.5 -87.5t-63.5 -59t-70 -39.5q45 -12 89.5 -38.5t87.5 -70.5t70 -113t27 -153q0 -192 -126 -311t-343 -119h-153v158h141q136 0 218.5 75.5t82.5 200.5q0 129 -87.5 202
t-225.5 73h-101v157h68q127 0 199.5 65.5t72.5 166.5q0 104 -68 167.5t-184 63.5q-131 0 -209.5 -86t-78.5 -239v-1004h-176z" />
    <glyph glyph-name="agrave" unicode="&#xe0;" horiz-adv-x="1087" 
d="M770 684q0 104 -64.5 159.5t-168.5 55.5q-96 0 -155 -37.5t-83 -99.5h-170q26 127 134.5 210t277.5 83q183 0 293 -99.5t110 -271.5v-684h-166v123q-58 -71 -145 -108.5t-187 -37.5q-154 0 -255 86.5t-101 231.5q0 149 108.5 234t297.5 85h274v70zM469 131q127 0 214 71
t87 187v76h-264q-109 0 -173.5 -43.5t-64.5 -124.5q0 -79 56 -122.5t145 -43.5zM244 1505h190l195 -315h-178z" />
    <glyph glyph-name="aacute" unicode="&#xe1;" horiz-adv-x="1087" 
d="M770 684q0 104 -64.5 159.5t-168.5 55.5q-96 0 -155 -37.5t-83 -99.5h-170q26 127 134.5 210t277.5 83q183 0 293 -99.5t110 -271.5v-684h-166v123q-58 -71 -145 -108.5t-187 -37.5q-154 0 -255 86.5t-101 231.5q0 149 108.5 234t297.5 85h274v70zM469 131q127 0 214 71
t87 187v76h-264q-109 0 -173.5 -43.5t-64.5 -124.5q0 -79 56 -122.5t145 -43.5zM846 1505l-207 -315h-178l194 315h191z" />
    <glyph glyph-name="acircumflex" unicode="&#xe2;" horiz-adv-x="1087" 
d="M770 684q0 104 -64.5 159.5t-168.5 55.5q-96 0 -155 -37.5t-83 -99.5h-170q26 127 134.5 210t277.5 83q183 0 293 -99.5t110 -271.5v-684h-166v123q-58 -71 -145 -108.5t-187 -37.5q-154 0 -255 86.5t-101 231.5q0 149 108.5 234t297.5 85h274v70zM469 131q127 0 214 71
t87 187v76h-264q-109 0 -173.5 -43.5t-64.5 -124.5q0 -79 56 -122.5t145 -43.5zM385 1190h-186l260 315h172l262 -315h-186l-162 186z" />
    <glyph glyph-name="atilde" unicode="&#xe3;" horiz-adv-x="1087" 
d="M770 684q0 104 -64.5 159.5t-168.5 55.5q-96 0 -155 -37.5t-83 -99.5h-170q26 127 134.5 210t277.5 83q183 0 293 -99.5t110 -271.5v-684h-166v123q-58 -71 -145 -108.5t-187 -37.5q-154 0 -255 86.5t-101 231.5q0 149 108.5 234t297.5 85h274v70zM469 131q127 0 214 71
t87 187v76h-264q-109 0 -173.5 -43.5t-64.5 -124.5q0 -79 56 -122.5t145 -43.5zM743 1473h134v-33q0 -108 -54 -170t-145 -62q-41 0 -76 13.5t-58.5 33t-44 38.5t-41.5 32.5t-42 13.5q-30 0 -50 -22.5t-20 -63.5v-32h-133v32q0 108 54 170t145 62q41 0 76 -13.5t58.5 -32.5
t44 -38.5t41.5 -33t42 -13.5q29 0 49 22.5t20 63.5v33z" />
    <glyph glyph-name="adieresis" unicode="&#xe4;" horiz-adv-x="1087" 
d="M770 684q0 104 -64.5 159.5t-168.5 55.5q-96 0 -155 -37.5t-83 -99.5h-170q26 127 134.5 210t277.5 83q183 0 293 -99.5t110 -271.5v-684h-166v123q-58 -71 -145 -108.5t-187 -37.5q-154 0 -255 86.5t-101 231.5q0 149 108.5 234t297.5 85h274v70zM469 131q127 0 214 71
t87 187v76h-264q-109 0 -173.5 -43.5t-64.5 -124.5q0 -79 56 -122.5t145 -43.5zM334 1464q51 0 86 -33.5t35 -84.5t-35 -85t-86 -34t-86 34t-35 85t35 84.5t86 33.5zM756 1464q51 0 86 -33.5t35 -84.5t-35 -85t-86 -34t-86 34t-35 85t35 84.5t86 33.5z" />
    <glyph glyph-name="aring" unicode="&#xe5;" horiz-adv-x="1087" 
d="M770 684q0 104 -64.5 159.5t-168.5 55.5q-96 0 -155 -37.5t-83 -99.5h-170q26 127 134.5 210t277.5 83q183 0 293 -99.5t110 -271.5v-684h-166v123q-58 -71 -145 -108.5t-187 -37.5q-154 0 -255 86.5t-101 231.5q0 149 108.5 234t297.5 85h274v70zM469 131q127 0 214 71
t87 187v76h-264q-109 0 -173.5 -43.5t-64.5 -124.5q0 -79 56 -122.5t145 -43.5zM762 1366q0 -91 -61.5 -151t-155.5 -60t-155.5 60t-61.5 151t61.5 151t155.5 60t155.5 -60t61.5 -151zM451 1366q0 -41 27.5 -67.5t66.5 -26.5t66.5 26.5t27.5 67.5t-27.5 67.5t-66.5 26.5
t-66.5 -26.5t-27.5 -67.5z" />
    <glyph glyph-name="ae" unicode="&#xe6;" horiz-adv-x="1787" 
d="M537 1055q121 0 209.5 -47t134.5 -134q62 87 156 134t210 47q204 0 326.5 -136t122.5 -366v-90h-752v-4q0 -140 88.5 -232t229.5 -92q97 0 162 41.5t81 89.5h178q-11 -49 -41 -97t-79 -92.5t-127.5 -72t-173.5 -27.5q-134 0 -238 54.5t-166 156.5q-60 -97 -165 -154
t-238 -57q-159 0 -262 86.5t-103 231.5q0 149 108.5 234t297.5 85h274v70q0 104 -64.5 159.5t-168.5 55.5q-96 0 -155 -37.5t-83 -99.5h-170q26 127 133.5 210t274.5 83zM477 131q124 0 208.5 73t84.5 185v76h-264q-109 0 -173.5 -43t-64.5 -125q0 -79 57.5 -122.5
t151.5 -43.5zM1241 897q-127 0 -205.5 -78.5t-89.5 -206.5h572q-6 134 -79.5 209.5t-197.5 75.5z" />
    <glyph glyph-name="ccedilla" unicode="&#xe7;" horiz-adv-x="1103" 
d="M582 137q61 0 109.5 18t79 48.5t48 62.5t27.5 68h176q-16 -133 -118.5 -233.5t-262.5 -118.5l-33 -93q66 -7 116 -52t50 -124q0 -90 -64.5 -145t-187.5 -55h-112v127h108q46 0 72 20t26 57q0 36 -25.5 54t-68.5 18h-73v43l57 152q-189 25 -301.5 170t-112.5 362
q0 235 134 387t354 152q98 0 180 -31.5t134.5 -84t84.5 -113t43 -124.5h-176q-25 79 -90 136t-176 57q-140 0 -224 -105t-84 -274t85.5 -274t224.5 -105z" />
    <glyph glyph-name="egrave" unicode="&#xe8;" horiz-adv-x="1120" 
d="M1028 463h-752v-4q0 -140 88.5 -232t229.5 -92q97 0 162.5 41.5t81.5 89.5h178q-11 -49 -41 -97t-79.5 -92.5t-129 -72t-174.5 -27.5q-226 0 -363 146t-137 393t135 393t351 146q206 0 328 -136t122 -366v-90zM573 897q-127 0 -205 -78.5t-89 -206.5h571
q-6 134 -79.5 209.5t-197.5 75.5zM276 1505h191l195 -315h-179z" />
    <glyph glyph-name="eacute" unicode="&#xe9;" horiz-adv-x="1120" 
d="M1028 463h-752v-4q0 -140 88.5 -232t229.5 -92q97 0 162.5 41.5t81.5 89.5h178q-11 -49 -41 -97t-79.5 -92.5t-129 -72t-174.5 -27.5q-226 0 -363 146t-137 393t135 393t351 146q206 0 328 -136t122 -366v-90zM573 897q-127 0 -205 -78.5t-89 -206.5h571
q-6 134 -79.5 209.5t-197.5 75.5zM879 1505l-207 -315h-178l194 315h191z" />
    <glyph glyph-name="ecircumflex" unicode="&#xea;" horiz-adv-x="1120" 
d="M1028 463h-752v-4q0 -140 88.5 -232t229.5 -92q97 0 162.5 41.5t81.5 89.5h178q-11 -49 -41 -97t-79.5 -92.5t-129 -72t-174.5 -27.5q-226 0 -363 146t-137 393t135 393t351 146q206 0 328 -136t122 -366v-90zM573 897q-127 0 -205 -78.5t-89 -206.5h571
q-6 134 -79.5 209.5t-197.5 75.5zM418 1190h-187l261 315h172l262 -315h-187l-161 186z" />
    <glyph glyph-name="edieresis" unicode="&#xeb;" horiz-adv-x="1120" 
d="M1028 463h-752v-4q0 -140 88.5 -232t229.5 -92q97 0 162.5 41.5t81.5 89.5h178q-11 -49 -41 -97t-79.5 -92.5t-129 -72t-174.5 -27.5q-226 0 -363 146t-137 393t135 393t351 146q206 0 328 -136t122 -366v-90zM573 897q-127 0 -205 -78.5t-89 -206.5h571
q-6 134 -79.5 209.5t-197.5 75.5zM367 1464q51 0 85.5 -33.5t34.5 -84.5t-34.5 -85t-85.5 -34t-86 34t-35 85t35 84.5t86 33.5zM788 1464q51 0 86 -33.5t35 -84.5t-35 -85t-86 -34t-85.5 34t-34.5 85t34.5 84.5t85.5 33.5z" />
    <glyph glyph-name="igrave" unicode="&#xec;" horiz-adv-x="483" 
d="M330 1032v-1032h-176v1032h176zM-57 1505h190l195 -315h-178z" />
    <glyph glyph-name="iacute" unicode="&#xed;" horiz-adv-x="483" 
d="M330 1032v-1032h-176v1032h176zM541 1505l-207 -315h-178l194 315h191z" />
    <glyph glyph-name="icircumflex" unicode="&#xee;" horiz-adv-x="483" 
d="M330 1032v-1032h-176v1032h176zM94 1190h-180l242 315h172l241 -315h-180l-147 184z" />
    <glyph glyph-name="idieresis" unicode="&#xef;" horiz-adv-x="483" 
d="M330 1032v-1032h-176v1032h176zM43 1464q51 0 86 -33.5t35 -84.5t-35 -85t-86 -34t-86 34t-35 85t35 84.5t86 33.5zM440 1464q51 0 86 -33.5t35 -84.5t-35 -85t-86 -34t-86 34t-35 85t35 84.5t86 33.5z" />
    <glyph glyph-name="eth" unicode="&#xf0;" horiz-adv-x="1193" 
d="M410 1122v142l161 63q-72 61 -213 162h224q7 -5 32.5 -23t53 -38t53.5 -42l254 103v-141l-150 -60q262 -282 262 -688q0 -297 -132.5 -460t-368.5 -163q-147 0 -260.5 71.5t-173.5 191.5t-60 268q0 242 137 381t344 139q204 0 314 -137q-46 173 -207 338zM586 137
q147 0 234 102.5t87 276.5q0 166 -89 260t-230 94t-228.5 -101.5t-87.5 -260.5q0 -164 85 -267.5t229 -103.5z" />
    <glyph glyph-name="ntilde" unicode="&#xf1;" horiz-adv-x="1165" 
d="M154 1032h170v-121q42 60 123.5 102t189.5 42q78 0 145.5 -24t122 -71.5t86 -127.5t31.5 -183v-649h-176v625q0 135 -66 202.5t-176 67.5q-52 0 -99 -16.5t-87.5 -49t-64 -90t-23.5 -131.5v-608h-176v1032zM797 1473h133v-33q0 -108 -54 -170t-145 -62q-41 0 -76 13.5
t-58.5 33t-44 38.5t-41.5 32.5t-42 13.5q-30 0 -50 -22.5t-20 -63.5v-32h-133v32q0 108 54 170t145 62q41 0 76 -13.5t58.5 -32.5t44 -38.5t41.5 -33t42 -13.5q30 0 50 22.5t20 63.5v33z" />
    <glyph glyph-name="ograve" unicode="&#xf2;" horiz-adv-x="1175" 
d="M588 1055q223 0 359 -151t136 -388t-136 -388t-359 -151t-359.5 151t-136.5 388t136.5 388t359.5 151zM588 137q145 0 230 104.5t85 274.5t-85 274.5t-230 104.5t-230.5 -104.5t-85.5 -274.5t85.5 -274.5t230.5 -104.5zM287 1505h190l195 -315h-178z" />
    <glyph glyph-name="oacute" unicode="&#xf3;" horiz-adv-x="1175" 
d="M588 1055q223 0 359 -151t136 -388t-136 -388t-359 -151t-359.5 151t-136.5 388t136.5 388t359.5 151zM588 137q145 0 230 104.5t85 274.5t-85 274.5t-230 104.5t-230.5 -104.5t-85.5 -274.5t85.5 -274.5t230.5 -104.5zM889 1505l-207 -315h-178l194 315h191z" />
    <glyph glyph-name="ocircumflex" unicode="&#xf4;" horiz-adv-x="1175" 
d="M588 1055q223 0 359 -151t136 -388t-136 -388t-359 -151t-359.5 151t-136.5 388t136.5 388t359.5 151zM588 137q145 0 230 104.5t85 274.5t-85 274.5t-230 104.5t-230.5 -104.5t-85.5 -274.5t85.5 -274.5t230.5 -104.5zM428 1190h-186l260 315h172l262 -315h-186
l-162 186z" />
    <glyph glyph-name="otilde" unicode="&#xf5;" horiz-adv-x="1175" 
d="M588 1055q223 0 359 -151t136 -388t-136 -388t-359 -151t-359.5 151t-136.5 388t136.5 388t359.5 151zM588 137q145 0 230 104.5t85 274.5t-85 274.5t-230 104.5t-230.5 -104.5t-85.5 -274.5t85.5 -274.5t230.5 -104.5zM786 1473h134v-33q0 -108 -54 -170t-145 -62
q-41 0 -76 13.5t-58.5 33t-44 38.5t-41.5 32.5t-42 13.5q-30 0 -50 -22.5t-20 -63.5v-32h-133v32q0 108 54 170t145 62q41 0 76 -13.5t58.5 -32.5t44 -38.5t41.5 -33t42 -13.5q29 0 49 22.5t20 63.5v33z" />
    <glyph glyph-name="odieresis" unicode="&#xf6;" horiz-adv-x="1175" 
d="M588 1055q223 0 359 -151t136 -388t-136 -388t-359 -151t-359.5 151t-136.5 388t136.5 388t359.5 151zM588 137q145 0 230 104.5t85 274.5t-85 274.5t-230 104.5t-230.5 -104.5t-85.5 -274.5t85.5 -274.5t230.5 -104.5zM377 1464q51 0 86 -33.5t35 -84.5t-35 -85t-86 -34
t-86 34t-35 85t35 84.5t86 33.5zM799 1464q51 0 86 -33.5t35 -84.5t-35 -85t-86 -34t-86 34t-35 85t35 84.5t86 33.5z" />
    <glyph glyph-name="divide" unicode="&#xf7;" 
d="M629 1063q52 0 87.5 -34.5t35.5 -86.5t-35.5 -86.5t-87.5 -34.5q-53 0 -89 34.5t-36 86.5t36 86.5t89 34.5zM1110 473h-963v160h963v-160zM629 283q52 0 87.5 -34.5t35.5 -86.5t-35.5 -86.5t-87.5 -34.5q-53 0 -89 34.5t-36 86.5t36 86.5t89 34.5z" />
    <glyph glyph-name="oslash" unicode="&#xf8;" horiz-adv-x="1175" 
d="M1069 1110l-131 -197q145 -151 145 -397q0 -237 -136 -388t-359 -151q-127 0 -236 56l-71 -111h-175l132 197q-146 149 -146 397q0 237 136.5 388t359.5 151q124 0 233 -56l74 111h174zM588 133q145 0 233 106t88 277q0 149 -69 250l-398 -600q59 -33 146 -33zM266 516
q0 -148 68 -252l397 600q-62 35 -143 35q-146 0 -234 -106t-88 -277z" />
    <glyph glyph-name="ugrave" unicode="&#xf9;" horiz-adv-x="1165" 
d="M1012 0h-170v121q-44 -60 -125 -102t-189 -42q-78 0 -145.5 24t-122 71.5t-86 127.5t-31.5 183v649h176v-624q0 -135 66 -203t176 -68q52 0 99.5 16.5t87.5 49t64 90t24 131.5v608h176v-1032zM276 1505h191l195 -315h-179z" />
    <glyph glyph-name="uacute" unicode="&#xfa;" horiz-adv-x="1165" 
d="M1012 0h-170v121q-44 -60 -125 -102t-189 -42q-78 0 -145.5 24t-122 71.5t-86 127.5t-31.5 183v649h176v-624q0 -135 66 -203t176 -68q52 0 99.5 16.5t87.5 49t64 90t24 131.5v608h176v-1032zM879 1505l-207 -315h-178l194 315h191z" />
    <glyph glyph-name="ucircumflex" unicode="&#xfb;" horiz-adv-x="1165" 
d="M1012 0h-170v121q-44 -60 -125 -102t-189 -42q-78 0 -145.5 24t-122 71.5t-86 127.5t-31.5 183v649h176v-624q0 -135 66 -203t176 -68q52 0 99.5 16.5t87.5 49t64 90t24 131.5v608h176v-1032zM418 1190h-187l261 315h172l262 -315h-187l-161 186z" />
    <glyph glyph-name="udieresis" unicode="&#xfc;" horiz-adv-x="1165" 
d="M1012 0h-170v121q-44 -60 -125 -102t-189 -42q-78 0 -145.5 24t-122 71.5t-86 127.5t-31.5 183v649h176v-624q0 -135 66 -203t176 -68q52 0 99.5 16.5t87.5 49t64 90t24 131.5v608h176v-1032zM367 1464q51 0 85.5 -33.5t34.5 -84.5t-34.5 -85t-85.5 -34t-86 34t-35 85
t35 84.5t86 33.5zM788 1464q51 0 86 -33.5t35 -84.5t-35 -85t-86 -34t-85.5 34t-34.5 85t34.5 84.5t85.5 33.5z" />
    <glyph glyph-name="yacute" unicode="&#xfd;" horiz-adv-x="1062" 
d="M842 1032h190l-565 -1423h-191l160 403l-405 1020h190l311 -805zM831 1505l-206 -315h-179l195 315h190z" />
    <glyph glyph-name="thorn" unicode="&#xfe;" horiz-adv-x="1218" 
d="M662 1055q89 0 171 -34t148 -99t105.5 -170t39.5 -236q0 -132 -40 -237.5t-107 -170t-150 -98t-174 -33.5q-117 0 -201 43t-124 107v-518h-176v1880h176v-594q44 70 128 115t204 45zM639 137q138 0 222.5 105t84.5 274t-84.5 274t-222.5 105q-143 0 -229 -102t-86 -273
v-8q0 -171 86 -273t229 -102z" />
    <glyph glyph-name="ydieresis" unicode="&#xff;" horiz-adv-x="1062" 
d="M842 1032h190l-565 -1423h-191l160 403l-405 1020h190l311 -805zM319 1464q51 0 86 -33.5t35 -84.5t-35 -85t-86 -34t-85.5 34t-34.5 85t34.5 84.5t85.5 33.5zM741 1464q51 0 86 -33.5t35 -84.5t-35 -85t-86 -34t-85.5 34t-34.5 85t34.5 84.5t85.5 33.5z" />
    <glyph glyph-name="Amacron" unicode="&#x100;" horiz-adv-x="1359" 
d="M586 1442h188l545 -1442h-197l-141 381h-606l-137 -381h-197zM678 1210l-242 -661h484zM375 1815h618v-152h-618v152z" />
    <glyph glyph-name="amacron" unicode="&#x101;" horiz-adv-x="1087" 
d="M770 684q0 104 -64.5 159.5t-168.5 55.5q-96 0 -155 -37.5t-83 -99.5h-170q26 127 134.5 210t277.5 83q183 0 293 -99.5t110 -271.5v-684h-166v123q-58 -71 -145 -108.5t-187 -37.5q-154 0 -255 86.5t-101 231.5q0 149 108.5 234t297.5 85h274v70zM469 131q127 0 214 71
t87 187v76h-264q-109 0 -173.5 -43.5t-64.5 -124.5q0 -79 56 -122.5t145 -43.5zM244 1421h602v-151h-602v151z" />
    <glyph glyph-name="Abreve" unicode="&#x102;" horiz-adv-x="1359" 
d="M586 1442h188l545 -1442h-197l-141 381h-606l-137 -381h-197zM678 1210l-242 -661h484zM508 1898q0 -76 47.5 -128t128.5 -52t128.5 52t47.5 128h158q-3 -142 -96 -230.5t-238 -88.5t-238 88.5t-96 230.5h158z" />
    <glyph glyph-name="abreve" unicode="&#x103;" horiz-adv-x="1087" 
d="M770 684q0 104 -64.5 159.5t-168.5 55.5q-96 0 -155 -37.5t-83 -99.5h-170q26 127 134.5 210t277.5 83q183 0 293 -99.5t110 -271.5v-684h-166v123q-58 -71 -145 -108.5t-187 -37.5q-154 0 -255 86.5t-101 231.5q0 149 108.5 234t297.5 85h274v70zM469 131q127 0 214 71
t87 187v76h-264q-109 0 -173.5 -43.5t-64.5 -124.5q0 -79 56 -122.5t145 -43.5zM377 1505q0 -77 44 -128.5t124 -51.5t124 51.5t44 128.5h157q-3 -143 -92 -231t-233 -88t-233.5 88t-92.5 231h158z" />
    <glyph glyph-name="Aogonek" unicode="&#x104;" horiz-adv-x="1359" 
d="M586 1442h188l545 -1442q-73 -45 -123.5 -106t-50.5 -119q0 -48 31 -76.5t90 -28.5h69v-139h-104q-123 0 -187.5 57t-64.5 148q0 75 40 145.5t103 118.5l-141 381h-606l-137 -381h-197zM678 1210l-242 -661h484z" />
    <glyph glyph-name="aogonek" unicode="&#x105;" horiz-adv-x="1087" 
d="M770 684q0 104 -64.5 159.5t-168.5 55.5q-96 0 -155 -37.5t-83 -99.5h-170q26 127 134.5 210t277.5 83q183 0 293 -99.5t110 -271.5v-684q-73 -45 -123.5 -106t-50.5 -119q0 -48 31 -76.5t90 -28.5h70v-139h-105q-123 0 -187.5 57t-64.5 148q0 84 50.5 161.5t123.5 122.5
v103q-58 -71 -145 -108.5t-187 -37.5q-154 0 -255 86.5t-101 231.5q0 149 108.5 234t297.5 85h274v70zM469 131q127 0 214 71t87 187v76h-264q-109 0 -173.5 -43.5t-64.5 -124.5q0 -79 56 -122.5t145 -43.5z" />
    <glyph glyph-name="Cacute" unicode="&#x106;" horiz-adv-x="1445" 
d="M1165 451h185q-10 -65 -37 -129t-76.5 -127t-115.5 -111t-160.5 -77.5t-204.5 -29.5q-189 0 -337.5 94.5t-230.5 264t-82 385.5q0 214 80.5 382.5t229.5 264.5t340 96q125 0 230 -37t177.5 -102t119 -149.5t63.5 -182.5h-185q-25 87 -72 151.5t-132.5 107t-200.5 42.5
q-210 0 -336.5 -159t-126.5 -414q0 -252 125.5 -413t335.5 -161q73 0 137 19t109.5 49.5t80.5 71t55 81.5t29 83zM1057 1898l-207 -315h-178l194 315h191z" />
    <glyph glyph-name="cacute" unicode="&#x107;" horiz-adv-x="1103" 
d="M582 137q61 0 109.5 18t79 48.5t48 62.5t27.5 68h176q-18 -146 -138.5 -251.5t-303.5 -105.5q-218 0 -353 150.5t-135 388.5q0 235 134 387t354 152q98 0 180 -31.5t134.5 -84t84.5 -113t43 -124.5h-176q-25 79 -90 136t-176 57q-140 0 -224 -105t-84 -274t85.5 -274
t224.5 -105zM881 1505l-207 -315h-178l194 315h191z" />
    <glyph glyph-name="Ccircumflex" unicode="&#x108;" horiz-adv-x="1445" 
d="M1165 451h185q-10 -65 -37 -129t-76.5 -127t-115.5 -111t-160.5 -77.5t-204.5 -29.5q-189 0 -337.5 94.5t-230.5 264t-82 385.5q0 214 80.5 382.5t229.5 264.5t340 96q125 0 230 -37t177.5 -102t119 -149.5t63.5 -182.5h-185q-25 87 -72 151.5t-132.5 107t-200.5 42.5
q-210 0 -336.5 -159t-126.5 -414q0 -252 125.5 -413t335.5 -161q73 0 137 19t109.5 49.5t80.5 71t55 81.5t29 83zM586 1583h-187l271 315h172l270 -315h-186l-170 186z" />
    <glyph glyph-name="ccircumflex" unicode="&#x109;" horiz-adv-x="1103" 
d="M582 137q61 0 109.5 18t79 48.5t48 62.5t27.5 68h176q-18 -146 -138.5 -251.5t-303.5 -105.5q-218 0 -353 150.5t-135 388.5q0 235 134 387t354 152q98 0 180 -31.5t134.5 -84t84.5 -113t43 -124.5h-176q-25 79 -90 136t-176 57q-140 0 -224 -105t-84 -274t85.5 -274
t224.5 -105zM420 1190h-187l261 315h172l262 -315h-187l-161 186z" />
    <glyph glyph-name="Cdotaccent" unicode="&#x10a;" horiz-adv-x="1445" 
d="M1165 451h185q-10 -65 -37 -129t-76.5 -127t-115.5 -111t-160.5 -77.5t-204.5 -29.5q-189 0 -337.5 94.5t-230.5 264t-82 385.5q0 214 80.5 382.5t229.5 264.5t340 96q125 0 230 -37t177.5 -102t119 -149.5t63.5 -182.5h-185q-25 87 -72 151.5t-132.5 107t-200.5 42.5
q-210 0 -336.5 -159t-126.5 -414q0 -252 125.5 -413t335.5 -161q73 0 137 19t109.5 49.5t80.5 71t55 81.5t29 83zM758 1858q51 0 86 -34t35 -85t-35 -85t-86 -34t-86 34t-35 85t35 85t86 34z" />
    <glyph glyph-name="cdotaccent" unicode="&#x10b;" horiz-adv-x="1103" 
d="M582 137q61 0 109.5 18t79 48.5t48 62.5t27.5 68h176q-18 -146 -138.5 -251.5t-303.5 -105.5q-218 0 -353 150.5t-135 388.5q0 235 134 387t354 152q98 0 180 -31.5t134.5 -84t84.5 -113t43 -124.5h-176q-25 79 -90 136t-176 57q-140 0 -224 -105t-84 -274t85.5 -274
t224.5 -105zM582 1464q51 0 85.5 -33.5t34.5 -84.5t-34.5 -85t-85.5 -34t-86 34t-35 85t35 84.5t86 33.5z" />
    <glyph glyph-name="Ccaron" unicode="&#x10c;" horiz-adv-x="1445" 
d="M1165 451h185q-10 -65 -37 -129t-76.5 -127t-115.5 -111t-160.5 -77.5t-204.5 -29.5q-189 0 -337.5 94.5t-230.5 264t-82 385.5q0 214 80.5 382.5t229.5 264.5t340 96q125 0 230 -37t177.5 -102t119 -149.5t63.5 -182.5h-185q-25 87 -72 151.5t-132.5 107t-200.5 42.5
q-210 0 -336.5 -159t-126.5 -414q0 -252 125.5 -413t335.5 -161q73 0 137 19t109.5 49.5t80.5 71t55 81.5t29 83zM586 1898l170 -186l170 186h186l-270 -315h-172l-271 315h187z" />
    <glyph glyph-name="ccaron" unicode="&#x10d;" horiz-adv-x="1103" 
d="M582 137q61 0 109.5 18t79 48.5t48 62.5t27.5 68h176q-18 -146 -138.5 -251.5t-303.5 -105.5q-218 0 -353 150.5t-135 388.5q0 235 134 387t354 152q98 0 180 -31.5t134.5 -84t84.5 -113t43 -124.5h-176q-25 79 -90 136t-176 57q-140 0 -224 -105t-84 -274t85.5 -274
t224.5 -105zM420 1505l160 -186l161 186h187l-262 -315h-172l-261 315h187z" />
    <glyph glyph-name="Dcaron" unicode="&#x10e;" horiz-adv-x="1449" 
d="M629 1442q336 0 525 -191.5t189 -529.5t-189 -529.5t-525 -191.5h-449v1442h449zM606 166q273 0 412 144t139 411q0 266 -139.5 410.5t-411.5 144.5h-244v-1110h244zM479 1898l170 -186l170 186h187l-271 -315h-172l-270 315h186z" />
    <glyph glyph-name="dcaron" unicode="&#x10f;" horiz-adv-x="1415" 
d="M557 -23q-89 0 -171 34t-148.5 99t-106 170t-39.5 236q0 132 40 237.5t107 170t150 98t174 33.5q115 0 200.5 -44t125.5 -108v586h176v-1489h-170v147q-42 -73 -128.5 -121.5t-209.5 -48.5zM580 895q-138 0 -223 -105t-85 -274t85 -274t223 -105q143 0 229 102t86 273v8
q0 171 -86 273t-229 102zM1432 1382q0 -34 -21 -92l-94 -254h-137l88 246q-34 8 -58 36.5t-24 70.5q0 51 33.5 82.5t85.5 31.5q53 0 90 -34t37 -87z" />
    <glyph glyph-name="Dcroat" unicode="&#x110;" horiz-adv-x="1484" 
d="M664 1442q336 0 525 -191.5t189 -529.5t-189 -529.5t-525 -191.5h-449v659h-166v162h166v621h449zM752 659h-355v-493h244q273 0 412 144t139 411q0 266 -139.5 410.5t-411.5 144.5h-244v-455h355v-162z" />
    <glyph glyph-name="dcroat" unicode="&#x111;" horiz-adv-x="1224" 
d="M608 1356h281v133h176v-133h149v-139h-149v-1217h-170v147q-42 -73 -128.5 -121.5t-209.5 -48.5q-89 0 -171 34t-148.5 99t-106 170t-39.5 236q0 132 40 237.5t107 170t150 98t174 33.5q115 0 200.5 -44t125.5 -108v314h-281v139zM580 895q-138 0 -223 -105t-85 -274
t85 -274t223 -105q143 0 229 102t86 273v8q0 171 -86 273t-229 102z" />
    <glyph glyph-name="Emacron" unicode="&#x112;" horiz-adv-x="1216" 
d="M1094 1274h-732v-451h693v-166h-693v-489h732v-168h-914v1442h914v-168zM334 1815h618v-152h-618v152z" />
    <glyph glyph-name="emacron" unicode="&#x113;" horiz-adv-x="1120" 
d="M1028 463h-752v-4q0 -140 88.5 -232t229.5 -92q97 0 162.5 41.5t81.5 89.5h178q-11 -49 -41 -97t-79.5 -92.5t-129 -72t-174.5 -27.5q-226 0 -363 146t-137 393t135 393t351 146q206 0 328 -136t122 -366v-90zM573 897q-127 0 -205 -78.5t-89 -206.5h571
q-6 134 -79.5 209.5t-197.5 75.5zM276 1421h603v-151h-603v151z" />
    <glyph glyph-name="Edotaccent" unicode="&#x116;" horiz-adv-x="1216" 
d="M1094 1274h-732v-451h693v-166h-693v-489h732v-168h-914v1442h914v-168zM645 1858q51 0 86 -34t35 -85t-35 -85t-86 -34t-86 34t-35 85t35 85t86 34z" />
    <glyph glyph-name="edotaccent" unicode="&#x117;" horiz-adv-x="1120" 
d="M1028 463h-752v-4q0 -140 88.5 -232t229.5 -92q97 0 162.5 41.5t81.5 89.5h178q-11 -49 -41 -97t-79.5 -92.5t-129 -72t-174.5 -27.5q-226 0 -363 146t-137 393t135 393t351 146q206 0 328 -136t122 -366v-90zM573 897q-127 0 -205 -78.5t-89 -206.5h571
q-6 134 -79.5 209.5t-197.5 75.5zM580 1464q51 0 85.5 -33.5t34.5 -84.5t-34.5 -85t-85.5 -34t-86 34t-35 85t35 84.5t86 33.5z" />
    <glyph glyph-name="Eogonek" unicode="&#x118;" horiz-adv-x="1216" 
d="M1094 1274h-732v-451h693v-166h-693v-489h732v-168q-73 -45 -123.5 -106t-50.5 -119q0 -49 30.5 -77t89.5 -28h70v-139h-104q-123 0 -187.5 57t-64.5 148q0 74 40.5 144.5t102.5 119.5h-717v1442h914v-168z" />
    <glyph glyph-name="eogonek" unicode="&#x119;" horiz-adv-x="1120" 
d="M1028 463h-752v-4q0 -140 88.5 -232t229.5 -92q97 0 162.5 41.5t81.5 89.5h178q-13 -56 -51 -112.5t-99 -98.5q-11 -8 -50 -36t-58 -42.5t-51 -43t-48.5 -50t-29.5 -51t-13 -57.5q0 -48 31 -76.5t90 -28.5h70v-139h-105q-122 0 -186.5 57t-64.5 148q0 126 131 241
q-223 5 -356.5 150t-133.5 389q0 247 135 393t351 146q206 0 328 -136t122 -366v-90zM573 897q-127 0 -205 -78.5t-89 -206.5h571q-6 134 -79.5 209.5t-197.5 75.5z" />
    <glyph glyph-name="Ecaron" unicode="&#x11a;" horiz-adv-x="1216" 
d="M1094 1274h-732v-451h693v-166h-693v-489h732v-168h-914v1442h914v-168zM473 1898l170 -186l170 186h186l-270 -315h-172l-270 315h186z" />
    <glyph glyph-name="ecaron" unicode="&#x11b;" horiz-adv-x="1120" 
d="M1028 463h-752v-4q0 -140 88.5 -232t229.5 -92q97 0 162.5 41.5t81.5 89.5h178q-11 -49 -41 -97t-79.5 -92.5t-129 -72t-174.5 -27.5q-226 0 -363 146t-137 393t135 393t351 146q206 0 328 -136t122 -366v-90zM573 897q-127 0 -205 -78.5t-89 -206.5h571
q-6 134 -79.5 209.5t-197.5 75.5zM418 1505l160 -186l161 186h187l-262 -315h-172l-261 315h187z" />
    <glyph glyph-name="Gcircumflex" unicode="&#x11c;" horiz-adv-x="1480" 
d="M741 741h623v-149q0 -176 -70 -314.5t-208 -219.5t-324 -81q-141 0 -262.5 54.5t-208 151.5t-136 236t-49.5 302q0 217 82 386t232.5 263t345.5 94q236 0 391 -129.5t195 -328.5h-189q-91 288 -397 288q-216 0 -344.5 -157t-128.5 -416q0 -261 132 -418.5t341 -157.5
q190 0 303 116t113 306v11h-441v163zM596 1583h-186l270 315h172l270 -315h-186l-170 186z" />
    <glyph glyph-name="gcircumflex" unicode="&#x11d;" horiz-adv-x="1218" 
d="M895 1032h170v-969q0 -226 -129 -357.5t-352 -131.5q-103 0 -187.5 27t-137 72.5t-83 100t-35.5 113.5h174q56 -153 271 -153q145 0 224 87.5t79 241.5v95q-45 -69 -129 -114.5t-203 -45.5q-89 0 -171 34t-148.5 97.5t-106 166.5t-39.5 230q0 128 40 231t106.5 167
t150 97.5t174.5 33.5q121 0 207 -46t125 -114v137zM580 158q142 0 228.5 100.5t86.5 263.5v8q0 163 -86.5 264t-228.5 101q-137 0 -222.5 -103.5t-85.5 -265.5t85.5 -265t222.5 -103zM432 1190h-186l260 315h172l262 -315h-186l-162 186z" />
    <glyph glyph-name="Gbreve" unicode="&#x11e;" horiz-adv-x="1480" 
d="M741 741h623v-149q0 -176 -70 -314.5t-208 -219.5t-324 -81q-141 0 -262.5 54.5t-208 151.5t-136 236t-49.5 302q0 217 82 386t232.5 263t345.5 94q236 0 391 -129.5t195 -328.5h-189q-91 288 -397 288q-216 0 -344.5 -157t-128.5 -416q0 -261 132 -418.5t341 -157.5
q190 0 303 116t113 306v11h-441v163zM590 1898q0 -76 47.5 -128t128.5 -52t128.5 52t47.5 128h158q-3 -142 -96 -230.5t-238 -88.5t-238 88.5t-96 230.5h158z" />
    <glyph glyph-name="gbreve" unicode="&#x11f;" horiz-adv-x="1218" 
d="M895 1032h170v-969q0 -226 -129 -357.5t-352 -131.5q-103 0 -187.5 27t-137 72.5t-83 100t-35.5 113.5h174q56 -153 271 -153q145 0 224 87.5t79 241.5v95q-45 -69 -129 -114.5t-203 -45.5q-89 0 -171 34t-148.5 97.5t-106 166.5t-39.5 230q0 128 40 231t106.5 167
t150 97.5t174.5 33.5q121 0 207 -46t125 -114v137zM580 158q142 0 228.5 100.5t86.5 263.5v8q0 163 -86.5 264t-228.5 101q-137 0 -222.5 -103.5t-85.5 -265.5t85.5 -265t222.5 -103zM424 1505q0 -77 44 -128.5t124 -51.5t124 51.5t44 128.5h158q-3 -143 -92.5 -231
t-233.5 -88t-233.5 88t-92.5 231h158z" />
    <glyph glyph-name="Gdotaccent" unicode="&#x120;" horiz-adv-x="1480" 
d="M741 741h623v-149q0 -176 -70 -314.5t-208 -219.5t-324 -81q-141 0 -262.5 54.5t-208 151.5t-136 236t-49.5 302q0 217 82 386t232.5 263t345.5 94q236 0 391 -129.5t195 -328.5h-189q-91 288 -397 288q-216 0 -344.5 -157t-128.5 -416q0 -261 132 -418.5t341 -157.5
q190 0 303 116t113 306v11h-441v163zM768 1858q51 0 86 -34t35 -85t-35 -85t-86 -34t-86 34t-35 85t35 85t86 34z" />
    <glyph glyph-name="gdotaccent" unicode="&#x121;" horiz-adv-x="1218" 
d="M895 1032h170v-969q0 -226 -129 -357.5t-352 -131.5q-103 0 -187.5 27t-137 72.5t-83 100t-35.5 113.5h174q56 -153 271 -153q145 0 224 87.5t79 241.5v95q-45 -69 -129 -114.5t-203 -45.5q-89 0 -171 34t-148.5 97.5t-106 166.5t-39.5 230q0 128 40 231t106.5 167
t150 97.5t174.5 33.5q121 0 207 -46t125 -114v137zM580 158q142 0 228.5 100.5t86.5 263.5v8q0 163 -86.5 264t-228.5 101q-137 0 -222.5 -103.5t-85.5 -265.5t85.5 -265t222.5 -103zM594 1464q51 0 86 -33.5t35 -84.5t-35 -85t-86 -34t-86 34t-35 85t35 84.5t86 33.5z" />
    <glyph glyph-name="uni0122" unicode="&#x122;" horiz-adv-x="1480" 
d="M741 741h623v-149q0 -176 -70 -314.5t-208 -219.5t-324 -81q-141 0 -262.5 54.5t-208 151.5t-136 236t-49.5 302q0 217 82 386t232.5 263t345.5 94q236 0 391 -129.5t195 -328.5h-189q-91 288 -397 288q-216 0 -344.5 -157t-128.5 -416q0 -261 132 -418.5t341 -157.5
q190 0 303 116t113 306v11h-441v163zM885 -231q0 -35 -21 -93l-80 -213h-137l74 205q-34 8 -58 36.5t-24 70.5q0 51 33.5 82.5t85.5 31.5q54 0 90.5 -33.5t36.5 -86.5z" />
    <glyph glyph-name="uni0123" unicode="&#x123;" horiz-adv-x="1218" 
d="M895 1032h170v-969q0 -226 -129 -357.5t-352 -131.5q-103 0 -187.5 27t-137 72.5t-83 100t-35.5 113.5h174q56 -153 271 -153q145 0 224 87.5t79 241.5v95q-45 -69 -129 -114.5t-203 -45.5q-89 0 -171 34t-148.5 97.5t-106 166.5t-39.5 230q0 128 40 231t106.5 167
t150 97.5t174.5 33.5q121 0 207 -46t125 -114v137zM580 158q142 0 228.5 100.5t86.5 263.5v8q0 163 -86.5 264t-228.5 101q-137 0 -222.5 -103.5t-85.5 -265.5t85.5 -265t222.5 -103zM469 1311q0 37 20 92l80 213h138l-74 -205q34 -8 58 -36t24 -70q0 -51 -34 -83t-85 -32
q-53 0 -90 34t-37 87z" />
    <glyph glyph-name="Hcircumflex" unicode="&#x124;" horiz-adv-x="1495" 
d="M362 0h-182v1442h182v-617h771v617h182v-1442h-182v655h-771v-655zM578 1583h-187l271 315h172l270 -315h-186l-170 186z" />
    <glyph glyph-name="hcircumflex" unicode="&#x125;" horiz-adv-x="1165" 
d="M637 1055q78 0 145.5 -24t122 -71.5t86 -127.5t31.5 -183v-649h-176v625q0 135 -66 202.5t-176 67.5q-52 0 -99 -16.5t-87.5 -49t-64 -90t-23.5 -131.5v-608h-176v1489h176v-569q43 56 123 95.5t184 39.5zM94 1624h-180l242 315h172l241 -315h-180l-147 184z" />
    <glyph glyph-name="Hbar" unicode="&#x126;" horiz-adv-x="1548" 
d="M387 0h-180v1071h-141v158h141v213h180v-213h774v213h180v-213h142v-158h-142v-1071h-180v635h-774v-635zM387 1071v-268h774v268h-774z" />
    <glyph glyph-name="hbar" unicode="&#x127;" horiz-adv-x="1171" 
d="M10 1356h150v133h176v-133h280v-139h-280v-297q43 56 123 95.5t184 39.5q78 0 145.5 -24t122 -71.5t86 -127.5t31.5 -183v-649h-176v625q0 135 -66 202.5t-176 67.5q-52 0 -99 -16.5t-87.5 -49t-64 -90t-23.5 -131.5v-608h-176v1217h-150v139z" />
    <glyph glyph-name="Itilde" unicode="&#x128;" horiz-adv-x="542" 
d="M362 1442v-1442h-182v1442h182zM471 1866h133v-33q0 -108 -53.5 -169.5t-144.5 -61.5q-41 0 -76 13.5t-59 33t-44.5 38.5t-41.5 32.5t-42 13.5q-29 0 -49 -22.5t-20 -63.5v-33h-133v33q0 108 53.5 169.5t144.5 61.5q41 0 76 -13.5t58.5 -33t44 -38.5t41.5 -32.5t42 -13.5
q30 0 50 22.5t20 63.5v33z" />
    <glyph glyph-name="itilde" unicode="&#x129;" horiz-adv-x="483" 
d="M330 1032v-1032h-176v1032h176zM428 1473h133v-33q0 -108 -52 -170t-142 -62q-40 0 -73.5 13.5t-55 33t-40 38.5t-38 32.5t-39.5 13.5q-28 0 -47 -22.5t-19 -63.5v-32h-133v32q0 108 52.5 170t142.5 62q40 0 73.5 -13.5t55 -32.5t39.5 -38.5t37.5 -33t39.5 -13.5
q28 0 47 22.5t19 63.5v33z" />
    <glyph glyph-name="Imacron" unicode="&#x12a;" horiz-adv-x="542" 
d="M362 1442v-1442h-182v1442h182zM-29 1815h602v-152h-602v152z" />
    <glyph glyph-name="imacron" unicode="&#x12b;" horiz-adv-x="483" 
d="M330 1032v-1032h-176v1032h176zM-18 1421h520v-151h-520v151z" />
    <glyph glyph-name="Ibreve" unicode="&#x12c;" horiz-adv-x="542" 
d="M362 1442v-1442h-182v1442h182zM104 1898q0 -77 44 -128.5t124 -51.5t124 51.5t44 128.5h158q-3 -143 -92.5 -231t-233.5 -88t-233 88t-92 231h157z" />
    <glyph glyph-name="ibreve" unicode="&#x12d;" horiz-adv-x="483" 
d="M330 1032v-1032h-176v1032h176zM84 1505q0 -78 40 -129t118 -51t117.5 50.5t39.5 129.5h158q-3 -144 -88.5 -231.5t-226.5 -87.5t-227 87.5t-89 231.5h158z" />
    <glyph glyph-name="Iogonek" unicode="&#x12e;" horiz-adv-x="542" 
d="M362 1442v-1442q-73 -45 -123.5 -106t-50.5 -119q0 -48 31 -76.5t90 -28.5h70v-139h-105q-122 0 -186.5 57t-64.5 148q0 79 44 152t113 122v1432h182z" />
    <glyph glyph-name="iogonek" unicode="&#x12f;" horiz-adv-x="483" 
d="M330 1032v-1032q-73 -45 -123.5 -106t-50.5 -119q0 -49 30.5 -77t89.5 -28h70v-139h-104q-123 0 -187.5 57t-64.5 148q0 81 47 156t117 122v1018h176zM242 1464q51 0 85.5 -33.5t34.5 -84.5t-34.5 -85t-85.5 -34t-86 34t-35 85t35 84.5t86 33.5z" />
    <glyph glyph-name="Idotaccent" unicode="&#x130;" horiz-adv-x="542" 
d="M362 1442v-1442h-182v1442h182zM272 1858q51 0 86 -34t35 -85t-35 -85t-86 -34t-85.5 34t-34.5 85t34.5 85t85.5 34z" />
    <glyph glyph-name="dotlessi" unicode="&#x131;" horiz-adv-x="483" 
d="M330 1032v-1032h-176v1032h176z" />
    <glyph glyph-name="Jcircumflex" unicode="&#x134;" horiz-adv-x="1105" 
d="M66 371h180q3 -36 18 -72t42.5 -71.5t75.5 -58t110 -22.5q129 0 193.5 87t64.5 231v977h182v-977q0 -231 -116.5 -359.5t-326.5 -128.5q-101 0 -183.5 35t-133.5 92.5t-78 126t-28 140.5zM682 1583h-186l260 315h172l262 -315h-186l-162 186z" />
    <glyph glyph-name="jcircumflex" unicode="&#x135;" horiz-adv-x="483" 
d="M-31 -391v158h45q62 0 101 38.5t39 141.5v1085h176v-1093q0 -330 -287 -330h-74zM94 1190h-180l242 315h172l241 -315h-180l-147 184z" />
    <glyph glyph-name="uni0136" unicode="&#x136;" horiz-adv-x="1282" 
d="M362 0h-182v1442h182v-643l642 643h235l-684 -690l696 -752h-241l-648 688v-688zM803 -231q0 -35 -21 -93l-80 -213h-137l74 205q-34 8 -58 36.5t-24 70.5q0 51 33.5 82.5t85.5 31.5q54 0 90.5 -33.5t36.5 -86.5z" />
    <glyph glyph-name="uni0137" unicode="&#x137;" horiz-adv-x="1036" 
d="M330 0h-176v1489h176v-899l446 442h223l-485 -481l492 -551h-228l-448 498v-498zM670 -231q0 -35 -21 -93l-80 -213h-137l74 205q-34 8 -58 36.5t-24 70.5q0 51 33.5 82.5t85.5 31.5q54 0 90.5 -33.5t36.5 -86.5z" />
    <glyph glyph-name="Lacute" unicode="&#x139;" horiz-adv-x="1171" 
d="M362 1442v-1274h732v-168h-914v1442h182zM573 1898l-206 -315h-179l195 315h190z" />
    <glyph glyph-name="lacute" unicode="&#x13a;" horiz-adv-x="483" 
d="M330 1489v-1489h-176v1489h176zM543 1939l-207 -315h-178l194 315h191z" />
    <glyph glyph-name="uni013B" unicode="&#x13b;" horiz-adv-x="1171" 
d="M362 1442v-1274h732v-168h-914v1442h182zM762 -231q0 -35 -21 -93l-79 -213h-138l74 205q-34 8 -58 36.5t-24 70.5q0 51 33.5 82.5t85.5 31.5q54 0 90.5 -33.5t36.5 -86.5z" />
    <glyph glyph-name="uni013C" unicode="&#x13c;" horiz-adv-x="483" 
d="M330 1489v-1489h-176v1489h176zM365 -231q0 -35 -21 -93l-80 -213h-137l74 205q-34 8 -58 36.5t-24 70.5q0 51 33.5 82.5t85.5 31.5q54 0 90.5 -33.5t36.5 -86.5z" />
    <glyph glyph-name="Lcaron" unicode="&#x13d;" horiz-adv-x="1171" 
d="M362 1442v-1274h732v-168h-914v1442h182zM788 1335q0 -37 -20 -92l-94 -254h-137l88 246q-34 8 -58 36t-24 70q0 51 34 83t85 32q53 0 89.5 -34t36.5 -87z" />
    <glyph glyph-name="lcaron" unicode="&#x13e;" horiz-adv-x="679" 
d="M330 1489v-1489h-176v1489h176zM696 1382q0 -37 -20 -92l-94 -254h-138l88 246q-33 8 -57 36.5t-24 70.5q0 51 33.5 82.5t84.5 31.5q53 0 90 -34t37 -87z" />
    <glyph glyph-name="Lslash" unicode="&#x141;" horiz-adv-x="1206" 
d="M760 915l-363 -176v-571h731v-168h-913v651l-168 -80v170l168 80v621h182v-533l363 176v-170z" />
    <glyph glyph-name="lslash" unicode="&#x142;" horiz-adv-x="557" 
d="M23 768l167 82v639h177v-553l168 82v-162l-168 -82v-774h-177v688l-167 -82v162z" />
    <glyph glyph-name="Nacute" unicode="&#x143;" horiz-adv-x="1501" 
d="M377 1442l766 -1143v1143h178v-1442h-178l-785 1167v-1167h-178v1442h197zM1059 1898l-207 -315h-178l194 315h191z" />
    <glyph glyph-name="nacute" unicode="&#x144;" horiz-adv-x="1165" 
d="M154 1032h170v-121q42 60 123.5 102t189.5 42q78 0 145.5 -24t122 -71.5t86 -127.5t31.5 -183v-649h-176v625q0 135 -66 202.5t-176 67.5q-52 0 -99 -16.5t-87.5 -49t-64 -90t-23.5 -131.5v-608h-176v1032zM899 1505l-207 -315h-178l195 315h190z" />
    <glyph glyph-name="uni0145" unicode="&#x145;" horiz-adv-x="1501" 
d="M377 1442l766 -1143v1143h178v-1442h-178l-785 1167v-1167h-178v1442h197zM864 -215q0 -37 -20 -92l-80 -213h-137l73 205q-34 8 -58 36t-24 70q0 51 34 83t85 32q53 0 90 -34t37 -87z" />
    <glyph glyph-name="uni0146" unicode="&#x146;" horiz-adv-x="1165" 
d="M154 1032h170v-121q42 60 123.5 102t189.5 42q78 0 145.5 -24t122 -71.5t86 -127.5t31.5 -183v-649h-176v625q0 135 -66 202.5t-176 67.5q-52 0 -99 -16.5t-87.5 -49t-64 -90t-23.5 -131.5v-608h-176v1032zM711 -231q0 -35 -21 -93l-80 -213h-137l74 205q-34 8 -58 36.5
t-24 70.5q0 51 33.5 82.5t85.5 31.5q54 0 90.5 -33.5t36.5 -86.5z" />
    <glyph glyph-name="Ncaron" unicode="&#x147;" horiz-adv-x="1501" 
d="M377 1442l766 -1143v1143h178v-1442h-178l-785 1167v-1167h-178v1442h197zM588 1898l170 -186l170 186h186l-270 -315h-172l-271 315h187z" />
    <glyph glyph-name="ncaron" unicode="&#x148;" horiz-adv-x="1165" 
d="M154 1032h170v-121q42 60 123.5 102t189.5 42q78 0 145.5 -24t122 -71.5t86 -127.5t31.5 -183v-649h-176v625q0 135 -66 202.5t-176 67.5q-52 0 -99 -16.5t-87.5 -49t-64 -90t-23.5 -131.5v-608h-176v1032zM438 1505l160 -186l162 186h186l-262 -315h-172l-260 315h186z
" />
    <glyph glyph-name="Eng" unicode="&#x14a;" horiz-adv-x="1501" 
d="M1143 1442h178v-1501q0 -166 -81 -249t-222 -83h-74v164h47q152 0 152 176v51l-785 1167v-1167h-178v1442h197l766 -1143v1143z" />
    <glyph glyph-name="eng" unicode="&#x14b;" horiz-adv-x="1165" 
d="M637 1055q78 0 145.5 -24t122 -71.5t86 -127.5t31.5 -183v-710q0 -330 -287 -330h-73v158h45q62 0 100.5 38.5t38.5 141.5v678q0 135 -66 202.5t-176 67.5q-52 0 -99 -16.5t-87.5 -49t-64 -90t-23.5 -131.5v-608h-176v1032h170v-121q42 60 123.5 102t189.5 42z" />
    <glyph glyph-name="Omacron" unicode="&#x14c;" horiz-adv-x="1540" 
d="M770 1464q198 0 350 -96.5t233 -265t81 -381.5q0 -159 -47.5 -296.5t-133 -236.5t-210.5 -155t-273 -56t-273 56t-210.5 155t-133 236.5t-47.5 296.5q0 213 81 381.5t233 265t350 96.5zM770 147q218 0 347.5 159.5t129.5 414.5t-129 414t-348 159t-348 -159t-129 -414
t129.5 -414.5t347.5 -159.5zM461 1815h618v-152h-618v152z" />
    <glyph glyph-name="omacron" unicode="&#x14d;" horiz-adv-x="1175" 
d="M588 1055q223 0 359 -151t136 -388t-136 -388t-359 -151t-359.5 151t-136.5 388t136.5 388t359.5 151zM588 137q145 0 230 104.5t85 274.5t-85 274.5t-230 104.5t-230.5 -104.5t-85.5 -274.5t85.5 -274.5t230.5 -104.5zM287 1421h602v-151h-602v151z" />
    <glyph glyph-name="Obreve" unicode="&#x14e;" horiz-adv-x="1540" 
d="M770 1464q198 0 350 -96.5t233 -265t81 -381.5q0 -159 -47.5 -296.5t-133 -236.5t-210.5 -155t-273 -56t-273 56t-210.5 155t-133 236.5t-47.5 296.5q0 213 81 381.5t233 265t350 96.5zM770 147q218 0 347.5 159.5t129.5 414.5t-129 414t-348 159t-348 -159t-129 -414
t129.5 -414.5t347.5 -159.5zM594 1898q0 -76 47.5 -128t128.5 -52t128.5 52t47.5 128h158q-3 -142 -96 -230.5t-238 -88.5t-238 88.5t-96 230.5h158z" />
    <glyph glyph-name="obreve" unicode="&#x14f;" horiz-adv-x="1175" 
d="M588 1055q223 0 359 -151t136 -388t-136 -388t-359 -151t-359.5 151t-136.5 388t136.5 388t359.5 151zM588 137q145 0 230 104.5t85 274.5t-85 274.5t-230 104.5t-230.5 -104.5t-85.5 -274.5t85.5 -274.5t230.5 -104.5zM420 1505q0 -77 44 -128.5t124 -51.5t124 51.5
t44 128.5h157q-3 -143 -92 -231t-233 -88t-233.5 88t-92.5 231h158z" />
    <glyph glyph-name="Ohungarumlaut" unicode="&#x150;" horiz-adv-x="1540" 
d="M770 1464q198 0 350 -96.5t233 -265t81 -381.5q0 -159 -47.5 -296.5t-133 -236.5t-210.5 -155t-273 -56t-273 56t-210.5 155t-133 236.5t-47.5 296.5q0 213 81 381.5t233 265t350 96.5zM770 147q218 0 347.5 159.5t129.5 414.5t-129 414t-348 159t-348 -159t-129 -414
t129.5 -414.5t347.5 -159.5zM877 1898l-195 -315h-172l182 315h185zM1225 1898l-195 -315h-172l182 315h185z" />
    <glyph glyph-name="ohungarumlaut" unicode="&#x151;" horiz-adv-x="1175" 
d="M588 1055q223 0 359 -151t136 -388t-136 -388t-359 -151t-359.5 151t-136.5 388t136.5 388t359.5 151zM588 137q145 0 230 104.5t85 274.5t-85 274.5t-230 104.5t-230.5 -104.5t-85.5 -274.5t85.5 -274.5t230.5 -104.5zM698 1505l-194 -315h-172l182 315h184zM1038 1505
l-194 -315h-172l182 315h184z" />
    <glyph glyph-name="OE" unicode="&#x152;" horiz-adv-x="2086" 
d="M1964 1442v-168h-725v-451h686v-166h-686v-489h725v-168h-1120q-160 0 -296 51t-233.5 143.5t-153 228t-55.5 298.5t55.5 298.5t153 228t233.5 143.5t296 51h1120zM293 721q0 -257 155.5 -406t417.5 -149h191v1110h-191q-261 0 -417 -149.5t-156 -405.5z" />
    <glyph glyph-name="oe" unicode="&#x153;" horiz-adv-x="1925" 
d="M588 1055q135 0 237 -59t162 -165q62 107 165 165.5t232 58.5q204 0 326.5 -136t122.5 -366v-90h-752v-4q0 -140 88.5 -232t229.5 -92q97 0 162 41.5t81 89.5h179q-11 -49 -41 -97t-79.5 -92.5t-128 -72t-173.5 -27.5q-138 0 -244 58.5t-168 165.5q-60 -106 -162 -165
t-237 -59q-223 0 -359.5 151t-136.5 388t136.5 388t359.5 151zM588 137q145 0 230 104.5t85 274.5t-85 274.5t-230 104.5t-230.5 -104.5t-85.5 -274.5t85.5 -274.5t230.5 -104.5zM1378 897q-127 0 -205.5 -78.5t-89.5 -206.5h572q-6 134 -79.5 209.5t-197.5 75.5z" />
    <glyph glyph-name="Racute" unicode="&#x154;" horiz-adv-x="1298" 
d="M1171 993q0 -141 -82.5 -259.5t-226.5 -166.5l383 -567h-215l-364 541h-304v-541h-182v1442h516q115 0 207.5 -37t149.5 -100.5t87.5 -143t30.5 -168.5zM674 1276h-312v-569h312q153 0 232 81.5t79 204.5q0 125 -78 204t-233 79zM946 1898l-207 -315h-178l195 315h190z
" />
    <glyph glyph-name="racute" unicode="&#x155;" horiz-adv-x="759" 
d="M649 1036h53v-166h-53q-142 0 -230.5 -77.5t-88.5 -225.5v-567h-176v1032h170v-158q103 162 325 162zM729 1505l-207 -315h-178l195 315h190z" />
    <glyph glyph-name="uni0156" unicode="&#x156;" horiz-adv-x="1298" 
d="M1171 993q0 -141 -82.5 -259.5t-226.5 -166.5l383 -567h-215l-364 541h-304v-541h-182v1442h516q115 0 207.5 -37t149.5 -100.5t87.5 -143t30.5 -168.5zM674 1276h-312v-569h312q153 0 232 81.5t79 204.5q0 125 -78 204t-233 79zM815 -231q0 -38 -20 -93l-80 -213h-137
l73 205q-34 8 -58 36.5t-24 70.5q0 51 33.5 82.5t85.5 31.5q54 0 90.5 -33.5t36.5 -86.5z" />
    <glyph glyph-name="uni0157" unicode="&#x157;" horiz-adv-x="759" 
d="M649 1036h53v-166h-53q-142 0 -230.5 -77.5t-88.5 -225.5v-567h-176v1032h170v-158q103 162 325 162zM365 -231q0 -35 -21 -93l-80 -213h-137l74 205q-34 8 -58 36.5t-24 70.5q0 51 33.5 82.5t85.5 31.5q54 0 90.5 -33.5t36.5 -86.5z" />
    <glyph glyph-name="Rcaron" unicode="&#x158;" horiz-adv-x="1298" 
d="M1171 993q0 -141 -82.5 -259.5t-226.5 -166.5l383 -567h-215l-364 541h-304v-541h-182v1442h516q115 0 207.5 -37t149.5 -100.5t87.5 -143t30.5 -168.5zM674 1276h-312v-569h312q153 0 232 81.5t79 204.5q0 125 -78 204t-233 79zM475 1898l170 -186l170 186h186
l-270 -315h-172l-270 315h186z" />
    <glyph glyph-name="rcaron" unicode="&#x159;" horiz-adv-x="759" 
d="M649 1036h53v-166h-53q-142 0 -230.5 -77.5t-88.5 -225.5v-567h-176v1032h170v-158q103 162 325 162zM268 1505l160 -186l162 186h186l-262 -315h-172l-260 315h186z" />
    <glyph glyph-name="Sacute" unicode="&#x15a;" horiz-adv-x="1261" 
d="M100 375h187q36 -106 128 -168t240 -62q144 0 232 68.5t88 187.5q0 184 -230 222l-266 43q-171 28 -264.5 124t-93.5 244q0 129 68 228.5t180 150.5t247 51q203 0 346 -99t177 -286h-187q-66 217 -336 217q-129 0 -219 -66t-90 -181q0 -80 54.5 -133t156.5 -70l268 -45
q375 -63 375 -387q0 -203 -142.5 -320t-367.5 -117q-219 0 -369.5 102.5t-181.5 295.5zM930 1898l-207 -315h-178l194 315h191z" />
    <glyph glyph-name="sacute" unicode="&#x15b;" horiz-adv-x="1015" 
d="M266 289q17 -73 85 -114.5t173 -41.5t165.5 40.5t60.5 115.5q0 58 -42 94t-116 45l-184 25q-293 41 -293 280q0 137 110 229.5t277 92.5q163 0 270.5 -77.5t132.5 -217.5h-172q-49 139 -231 139q-97 0 -154 -43.5t-57 -110.5q0 -111 147 -129l187 -24q137 -19 219 -89.5
t82 -203.5q0 -151 -113 -236.5t-285 -85.5q-78 0 -148.5 17t-133 52t-103.5 97.5t-51 145.5h174zM811 1505l-207 -315h-178l195 315h190z" />
    <glyph glyph-name="Scircumflex" unicode="&#x15c;" horiz-adv-x="1261" 
d="M100 375h187q36 -106 128 -168t240 -62q144 0 232 68.5t88 187.5q0 184 -230 222l-266 43q-171 28 -264.5 124t-93.5 244q0 129 68 228.5t180 150.5t247 51q203 0 346 -99t177 -286h-187q-66 217 -336 217q-129 0 -219 -66t-90 -181q0 -80 54.5 -133t156.5 -70l268 -45
q375 -63 375 -387q0 -203 -142.5 -320t-367.5 -117q-219 0 -369.5 102.5t-181.5 295.5zM459 1583h-187l271 315h172l270 -315h-186l-170 186z" />
    <glyph glyph-name="scircumflex" unicode="&#x15d;" horiz-adv-x="1015" 
d="M266 289q17 -73 85 -114.5t173 -41.5t165.5 40.5t60.5 115.5q0 58 -42 94t-116 45l-184 25q-293 41 -293 280q0 137 110 229.5t277 92.5q163 0 270.5 -77.5t132.5 -217.5h-172q-49 139 -231 139q-97 0 -154 -43.5t-57 -110.5q0 -111 147 -129l187 -24q137 -19 219 -89.5
t82 -203.5q0 -151 -113 -236.5t-285 -85.5q-78 0 -148.5 17t-133 52t-103.5 97.5t-51 145.5h174zM350 1190h-186l260 315h172l262 -315h-186l-162 186z" />
    <glyph glyph-name="Scedilla" unicode="&#x15e;" horiz-adv-x="1261" 
d="M100 375h187q36 -106 128 -168t240 -62q144 0 232 68.5t88 187.5q0 184 -230 222l-266 43q-171 28 -264.5 124t-93.5 244q0 129 68 228.5t180 150.5t247 51q203 0 346 -99t177 -286h-187q-66 217 -336 217q-129 0 -219 -66t-90 -181q0 -80 54.5 -133t156.5 -70l268 -45
q375 -63 375 -387q0 -189 -124 -303.5t-326 -128.5l-33 -93q66 -7 116 -52t50 -124q0 -90 -64.5 -145t-187.5 -55h-113v127h109q46 0 72 20t26 57q0 36 -25.5 54t-68.5 18h-74v43l55 150q-190 16 -317.5 116.5t-155.5 276.5z" />
    <glyph glyph-name="scedilla" unicode="&#x15f;" horiz-adv-x="1015" 
d="M266 289q17 -73 85 -114.5t173 -41.5t165.5 40.5t60.5 115.5q0 58 -42 94t-116 45l-184 25q-293 41 -293 280q0 137 110 229.5t277 92.5q163 0 270.5 -77.5t132.5 -217.5h-172q-49 139 -231 139q-97 0 -154 -43.5t-57 -110.5q0 -111 147 -129l187 -24q137 -19 219 -89.5
t82 -203.5q0 -137 -94.5 -220t-243.5 -97l-33 -93q66 -7 116 -52t50 -124q0 -90 -64.5 -145t-187.5 -55h-113v127h109q46 0 72 20t26 57q0 36 -25.5 54t-68.5 18h-74v43l56 150q-68 7 -126 27.5t-108.5 56t-83.5 93t-41 130.5h174z" />
    <glyph glyph-name="Scaron" unicode="&#x160;" horiz-adv-x="1261" 
d="M100 375h187q36 -106 128 -168t240 -62q144 0 232 68.5t88 187.5q0 184 -230 222l-266 43q-171 28 -264.5 124t-93.5 244q0 129 68 228.5t180 150.5t247 51q203 0 346 -99t177 -286h-187q-66 217 -336 217q-129 0 -219 -66t-90 -181q0 -80 54.5 -133t156.5 -70l268 -45
q375 -63 375 -387q0 -203 -142.5 -320t-367.5 -117q-219 0 -369.5 102.5t-181.5 295.5zM459 1898l170 -186l170 186h186l-270 -315h-172l-271 315h187z" />
    <glyph glyph-name="scaron" unicode="&#x161;" horiz-adv-x="1015" 
d="M266 289q17 -73 85 -114.5t173 -41.5t165.5 40.5t60.5 115.5q0 58 -42 94t-116 45l-184 25q-293 41 -293 280q0 137 110 229.5t277 92.5q163 0 270.5 -77.5t132.5 -217.5h-172q-49 139 -231 139q-97 0 -154 -43.5t-57 -110.5q0 -111 147 -129l187 -24q137 -19 219 -89.5
t82 -203.5q0 -151 -113 -236.5t-285 -85.5q-78 0 -148.5 17t-133 52t-103.5 97.5t-51 145.5h174zM350 1505l160 -186l162 186h186l-262 -315h-172l-260 315h186z" />
    <glyph glyph-name="uni0162" unicode="&#x162;" horiz-adv-x="1275" 
d="M72 1274v168h1132v-168h-475v-1274h-22l-41 -111q66 -7 115.5 -52t49.5 -124q0 -90 -64 -145t-187 -55h-113v127h108q46 0 72.5 20.5t26.5 56.5t-25.5 54t-68.5 18h-74v43l63 168h-22v1274h-475z" />
    <glyph glyph-name="uni0163" unicode="&#x163;" horiz-adv-x="688" 
d="M383 322q0 -93 42 -128.5t116 -35.5h69v-158h-98h-20l-41 -111q66 -7 115.5 -52t49.5 -124q0 -90 -64 -145t-187 -55h-113v127h108q46 0 72.5 20.5t26.5 56.5t-25.5 54t-68.5 18h-74v43l71 193q-155 62 -155 288v561h-172v158h172v275h176v-275h227v-158h-227v-552z" />
    <glyph glyph-name="Tcaron" unicode="&#x164;" horiz-adv-x="1275" 
d="M72 1274v168h1132v-168h-475v-1274h-182v1274h-475zM469 1898l170 -186l170 186h186l-270 -315h-172l-270 315h186z" />
    <glyph glyph-name="tcaron" unicode="&#x165;" horiz-adv-x="688" 
d="M383 322q0 -93 42 -128.5t116 -35.5h69v-158h-98q-152 0 -228.5 76.5t-76.5 236.5v561h-172v158h172v275h176v-275h227v-158h-227v-552zM741 1483q0 -37 -20 -92l-80 -213h-137l74 204q-34 8 -58 36.5t-24 70.5q0 51 33.5 83t84.5 32q53 0 90 -34t37 -87z" />
    <glyph glyph-name="Tbar" unicode="&#x166;" horiz-adv-x="1275" 
d="M1083 592h-354v-592h-182v592h-354v164h354v518h-475v168h1132v-168h-475v-518h354v-164z" />
    <glyph glyph-name="tbar" unicode="&#x167;" horiz-adv-x="688" 
d="M35 635h172v242h-172v155h172v275h174v-275h229v-155h-229v-242h229v-148h-229v-165q0 -94 42.5 -130t115.5 -36h71v-156h-98q-152 0 -228.5 76.5t-76.5 236.5v174h-172v148z" />
    <glyph glyph-name="Utilde" unicode="&#x168;" horiz-adv-x="1474" 
d="M170 565v877h182v-871q0 -206 106.5 -315t278.5 -109t278.5 109t106.5 315v871h183v-877q0 -144 -43 -257t-120 -185t-180 -109t-225 -37t-224.5 37t-179.5 109t-120 185t-43 257zM942 1866h133v-37q0 -105 -53.5 -166t-144.5 -61q-51 0 -95.5 20.5t-70 45t-55 45
t-54.5 20.5q-30 0 -50 -23.5t-20 -64.5v-31h-133v37q0 105 54 166t145 61q51 0 95.5 -20.5t69.5 -45t54.5 -45t54.5 -20.5q30 0 50 23.5t20 64.5v31z" />
    <glyph glyph-name="utilde" unicode="&#x169;" horiz-adv-x="1165" 
d="M1012 0h-170v121q-44 -60 -125 -102t-189 -42q-78 0 -145.5 24t-122 71.5t-86 127.5t-31.5 183v649h176v-624q0 -135 66 -203t176 -68q52 0 99.5 16.5t87.5 49t64 90t24 131.5v608h176v-1032zM776 1473h133v-33q0 -108 -53.5 -170t-144.5 -62q-41 0 -76 13.5t-58.5 33
t-44 38.5t-41.5 32.5t-42 13.5q-30 0 -50 -22.5t-20 -63.5v-32h-133v32q0 108 53.5 170t144.5 62q41 0 76 -13.5t59 -32.5t44.5 -38.5t41.5 -33t42 -13.5q29 0 49 22.5t20 63.5v33z" />
    <glyph glyph-name="Umacron" unicode="&#x16a;" horiz-adv-x="1474" 
d="M170 565v877h182v-871q0 -206 106.5 -315t278.5 -109t278.5 109t106.5 315v871h183v-877q0 -144 -43 -257t-120 -185t-180 -109t-225 -37t-224.5 37t-179.5 109t-120 185t-43 257zM428 1815h619v-152h-619v152z" />
    <glyph glyph-name="umacron" unicode="&#x16b;" horiz-adv-x="1165" 
d="M1012 0h-170v121q-44 -60 -125 -102t-189 -42q-78 0 -145.5 24t-122 71.5t-86 127.5t-31.5 183v649h176v-624q0 -135 66 -203t176 -68q52 0 99.5 16.5t87.5 49t64 90t24 131.5v608h176v-1032zM276 1421h603v-151h-603v151z" />
    <glyph glyph-name="Ubreve" unicode="&#x16c;" horiz-adv-x="1474" 
d="M170 565v877h182v-871q0 -206 106.5 -315t278.5 -109t278.5 109t106.5 315v871h183v-877q0 -144 -43 -257t-120 -185t-180 -109t-225 -37t-224.5 37t-179.5 109t-120 185t-43 257zM561 1898q0 -76 47.5 -128t128.5 -52t128.5 52t47.5 128h158q-3 -142 -96 -230.5
t-238 -88.5t-238 88.5t-96 230.5h158z" />
    <glyph glyph-name="ubreve" unicode="&#x16d;" horiz-adv-x="1165" 
d="M1012 0h-170v121q-44 -60 -125 -102t-189 -42q-78 0 -145.5 24t-122 71.5t-86 127.5t-31.5 183v649h176v-624q0 -135 66 -203t176 -68q52 0 99.5 16.5t87.5 49t64 90t24 131.5v608h176v-1032zM410 1505q0 -77 44 -128.5t124 -51.5t123.5 51t43.5 129h158
q-3 -143 -92 -231t-233 -88t-233.5 88t-92.5 231h158z" />
    <glyph glyph-name="Uring" unicode="&#x16e;" horiz-adv-x="1474" 
d="M170 565v877h182v-871q0 -206 106.5 -315t278.5 -109t278.5 109t106.5 315v871h183v-877q0 -144 -43 -257t-120 -185t-180 -109t-225 -37t-224.5 37t-179.5 109t-120 185t-43 257zM954 1759q0 -91 -61.5 -151t-155.5 -60t-155.5 60t-61.5 151t61.5 151t155.5 60
t155.5 -60t61.5 -151zM643 1759q0 -41 27.5 -67.5t66.5 -26.5t66.5 26.5t27.5 67.5t-27.5 67.5t-66.5 26.5t-66.5 -26.5t-27.5 -67.5z" />
    <glyph glyph-name="uring" unicode="&#x16f;" horiz-adv-x="1165" 
d="M1012 0h-170v121q-44 -60 -125 -102t-189 -42q-78 0 -145.5 24t-122 71.5t-86 127.5t-31.5 183v649h176v-624q0 -135 66 -203t176 -68q52 0 99.5 16.5t87.5 49t64 90t24 131.5v608h176v-1032zM795 1366q0 -91 -61.5 -151t-155.5 -60t-156 60t-62 151t62 151t156 60
t155.5 -60t61.5 -151zM483 1366q0 -40 28 -67t67 -27t66.5 26.5t27.5 67.5t-27.5 67.5t-66.5 26.5t-67 -27t-28 -67z" />
    <glyph glyph-name="Uhungarumlaut" unicode="&#x170;" horiz-adv-x="1474" 
d="M170 565v877h182v-871q0 -206 106.5 -315t278.5 -109t278.5 109t106.5 315v871h183v-877q0 -144 -43 -257t-120 -185t-180 -109t-225 -37t-224.5 37t-179.5 109t-120 185t-43 257zM844 1898l-195 -315h-172l182 315h185zM1192 1898l-195 -315h-172l183 315h184z" />
    <glyph glyph-name="uhungarumlaut" unicode="&#x171;" horiz-adv-x="1165" 
d="M1012 0h-170v121q-44 -60 -125 -102t-189 -42q-78 0 -145.5 24t-122 71.5t-86 127.5t-31.5 183v649h176v-624q0 -135 66 -203t176 -68q52 0 99.5 16.5t87.5 49t64 90t24 131.5v608h176v-1032zM688 1505l-194 -315h-172l182 315h184zM1028 1505l-194 -315h-172l182 315
h184z" />
    <glyph glyph-name="Uogonek" unicode="&#x172;" horiz-adv-x="1474" 
d="M170 565v877h182v-871q0 -206 106.5 -315t278.5 -109t278.5 109t106.5 315v871h183v-877q0 -176 -62.5 -302t-175.5 -197q-17 -14 -61 -46t-72.5 -55t-61.5 -55.5t-50 -66.5t-17 -68q0 -48 31 -76.5t90 -28.5h69v-139h-104q-123 0 -187.5 57t-64.5 148q0 126 131 241h-33
q-122 0 -224.5 37t-179.5 109t-120 185t-43 257z" />
    <glyph glyph-name="uogonek" unicode="&#x173;" horiz-adv-x="1165" 
d="M1012 0q-73 -45 -123.5 -106t-50.5 -119q0 -49 30.5 -77t89.5 -28h70v-139h-104q-123 0 -187.5 57t-64.5 148q0 84 49 160t121 122v103q-44 -60 -125 -102t-189 -42q-78 0 -145.5 24t-122 71.5t-86 127.5t-31.5 183v649h176v-624q0 -135 66 -203t176 -68q52 0 99.5 16.5
t87.5 49t64 90t24 131.5v608h176v-1032z" />
    <glyph glyph-name="Wcircumflex" unicode="&#x174;" horiz-adv-x="2007" 
d="M1950 1442l-447 -1442h-172l-330 1141l-329 -1141h-168l-447 1442h193l338 -1123l327 1123h177l325 -1123l340 1123h193zM831 1583h-186l270 315h172l271 -315h-187l-170 186z" />
    <glyph glyph-name="wcircumflex" unicode="&#x175;" horiz-adv-x="1583" 
d="M1542 1032l-338 -1032h-170l-246 788l-241 -788h-168l-338 1032h184l240 -760l237 760h179l237 -760l240 760h184zM631 1190h-187l261 315h172l262 -315h-187l-161 186z" />
    <glyph glyph-name="Ycircumflex" unicode="&#x176;" horiz-adv-x="1304" 
d="M743 0h-182v565l-530 877h207l413 -692l416 692h207l-531 -877v-565zM485 1583h-186l270 315h172l271 -315h-187l-170 186z" />
    <glyph glyph-name="ycircumflex" unicode="&#x177;" horiz-adv-x="1062" 
d="M842 1032h190l-565 -1423h-191l160 403l-405 1020h190l311 -805zM371 1190h-187l260 315h172l263 -315h-187l-162 186z" />
    <glyph glyph-name="Ydieresis" unicode="&#x178;" horiz-adv-x="1304" 
d="M743 0h-182v565l-530 877h207l413 -692l416 692h207l-531 -877v-565zM436 1858q51 0 86 -34t35 -85t-35 -85t-86 -34t-86 34t-35 85t35 85t86 34zM874 1858q51 0 86 -34t35 -85t-35 -85t-86 -34t-85.5 34t-34.5 85t34.5 85t85.5 34z" />
    <glyph glyph-name="Zacute" unicode="&#x179;" horiz-adv-x="1265" 
d="M121 154l801 1120h-801v168h1024v-154l-803 -1120h803v-168h-1024v154zM936 1898l-207 -315h-178l194 315h191z" />
    <glyph glyph-name="zacute" unicode="&#x17a;" horiz-adv-x="1003" 
d="M102 0v137l574 737h-574v158h799v-139l-575 -735h575v-158h-799zM803 1505l-207 -315h-178l194 315h191z" />
    <glyph glyph-name="Zdotaccent" unicode="&#x17b;" horiz-adv-x="1265" 
d="M121 154l801 1120h-801v168h1024v-154l-803 -1120h803v-168h-1024v154zM637 1858q51 0 86 -34t35 -85t-35 -85t-86 -34t-86 34t-35 85t35 85t86 34z" />
    <glyph glyph-name="zdotaccent" unicode="&#x17c;" horiz-adv-x="1003" 
d="M102 0v137l574 737h-574v158h799v-139l-575 -735h575v-158h-799zM504 1464q51 0 86 -33.5t35 -84.5t-35 -85t-86 -34t-86 34t-35 85t35 84.5t86 33.5z" />
    <glyph glyph-name="Zcaron" unicode="&#x17d;" horiz-adv-x="1265" 
d="M121 154l801 1120h-801v168h1024v-154l-803 -1120h803v-168h-1024v154zM465 1898l170 -186l170 186h186l-270 -315h-172l-270 315h186z" />
    <glyph glyph-name="zcaron" unicode="&#x17e;" horiz-adv-x="1003" 
d="M102 0v137l574 737h-574v158h799v-139l-575 -735h575v-158h-799zM342 1505l160 -186l162 186h186l-262 -315h-172l-260 315h186z" />
    <glyph glyph-name="uni018F" unicode="&#x18f;" horiz-adv-x="1460" 
d="M106 680v108h1059q-6 229 -134 368.5t-324 139.5q-145 0 -240.5 -58.5t-153.5 -170.5h-188q56 177 208.5 287t373.5 110q296 0 471.5 -202t175.5 -541q0 -336 -169.5 -540t-453.5 -204q-189 0 -332 91t-218 250t-75 362zM727 145q194 0 309.5 131.5t126.5 348.5h-874
q7 -215 128.5 -347.5t309.5 -132.5z" />
    <glyph glyph-name="florin" unicode="&#x192;" horiz-adv-x="1048" 
d="M287 907h194l31 193q27 168 117.5 255t257.5 87h80v-158h-74q-173 0 -205 -199l-29 -178h203v-157h-229l-117 -732q-27 -168 -117.5 -255t-257.5 -87h-80v158h74q173 0 205 199l115 717h-168v157z" />
    <glyph glyph-name="uni01CD" unicode="&#x1cd;" horiz-adv-x="1359" 
d="M586 1442h188l545 -1442h-197l-141 381h-606l-137 -381h-197zM678 1210l-242 -661h484zM514 1898l170 -186l170 186h186l-270 -315h-172l-270 315h186z" />
    <glyph glyph-name="uni01CE" unicode="&#x1ce;" horiz-adv-x="1087" 
d="M770 684q0 104 -64.5 159.5t-168.5 55.5q-96 0 -155 -37.5t-83 -99.5h-170q26 127 134.5 210t277.5 83q183 0 293 -99.5t110 -271.5v-684h-166v123q-58 -71 -145 -108.5t-187 -37.5q-154 0 -255 86.5t-101 231.5q0 149 108.5 234t297.5 85h274v70zM469 131q127 0 214 71
t87 187v76h-264q-109 0 -173.5 -43.5t-64.5 -124.5q0 -79 56 -122.5t145 -43.5zM385 1505l160 -186l162 186h186l-262 -315h-172l-260 315h186z" />
    <glyph glyph-name="uni01D1" unicode="&#x1d1;" horiz-adv-x="1540" 
d="M770 1464q198 0 350 -96.5t233 -265t81 -381.5q0 -159 -47.5 -296.5t-133 -236.5t-210.5 -155t-273 -56t-273 56t-210.5 155t-133 236.5t-47.5 296.5q0 213 81 381.5t233 265t350 96.5zM770 147q218 0 347.5 159.5t129.5 414.5t-129 414t-348 159t-348 -159t-129 -414
t129.5 -414.5t347.5 -159.5zM600 1898l170 -186l170 186h186l-270 -315h-172l-270 315h186z" />
    <glyph glyph-name="uni01D2" unicode="&#x1d2;" horiz-adv-x="1175" 
d="M588 1055q223 0 359 -151t136 -388t-136 -388t-359 -151t-359.5 151t-136.5 388t136.5 388t359.5 151zM588 137q145 0 230 104.5t85 274.5t-85 274.5t-230 104.5t-230.5 -104.5t-85.5 -274.5t85.5 -274.5t230.5 -104.5zM428 1505l160 -186l162 186h186l-262 -315h-172
l-260 315h186z" />
    <glyph glyph-name="uni01D3" unicode="&#x1d3;" horiz-adv-x="1474" 
d="M170 565v877h182v-871q0 -206 106.5 -315t278.5 -109t278.5 109t106.5 315v871h183v-877q0 -144 -43 -257t-120 -185t-180 -109t-225 -37t-224.5 37t-179.5 109t-120 185t-43 257zM567 1898l170 -186l170 186h187l-271 -315h-172l-270 315h186z" />
    <glyph glyph-name="uni01D4" unicode="&#x1d4;" horiz-adv-x="1165" 
d="M1012 0h-170v121q-44 -60 -125 -102t-189 -42q-78 0 -145.5 24t-122 71.5t-86 127.5t-31.5 183v649h176v-624q0 -135 66 -203t176 -68q52 0 99.5 16.5t87.5 49t64 90t24 131.5v608h176v-1032zM418 1505l160 -186l161 186h187l-262 -315h-172l-261 315h187z" />
    <glyph glyph-name="uni0218" unicode="&#x218;" horiz-adv-x="1261" 
d="M100 375h187q36 -106 128 -168t240 -62q144 0 232 68.5t88 187.5q0 184 -230 222l-266 43q-171 28 -264.5 124t-93.5 244q0 129 68 228.5t180 150.5t247 51q203 0 346 -99t177 -286h-187q-66 217 -336 217q-129 0 -219 -66t-90 -181q0 -80 54.5 -133t156.5 -70l268 -45
q375 -63 375 -387q0 -203 -142.5 -320t-367.5 -117q-219 0 -369.5 102.5t-181.5 295.5zM774 -231q0 -38 -20 -93l-80 -213h-137l73 205q-34 8 -58 36.5t-24 70.5q0 51 33.5 82.5t85.5 31.5q54 0 90.5 -33.5t36.5 -86.5z" />
    <glyph glyph-name="uni0219" unicode="&#x219;" horiz-adv-x="1015" 
d="M266 289q17 -73 85 -114.5t173 -41.5t165.5 40.5t60.5 115.5q0 58 -42 94t-116 45l-184 25q-293 41 -293 280q0 137 110 229.5t277 92.5q163 0 270.5 -77.5t132.5 -217.5h-172q-49 139 -231 139q-97 0 -154 -43.5t-57 -110.5q0 -111 147 -129l187 -24q137 -19 219 -89.5
t82 -203.5q0 -151 -113 -236.5t-285 -85.5q-78 0 -148.5 17t-133 52t-103.5 97.5t-51 145.5h174zM651 -231q0 -38 -20 -93l-80 -213h-137l73 205q-33 8 -57 36.5t-24 70.5q0 51 33.5 82.5t84.5 31.5q54 0 90.5 -33.5t36.5 -86.5z" />
    <glyph glyph-name="uni021A" unicode="&#x21a;" horiz-adv-x="1275" 
d="M72 1274v168h1132v-168h-475v-1274h-182v1274h-475zM762 -231q0 -35 -21 -93l-79 -213h-138l74 205q-34 8 -58 36.5t-24 70.5q0 51 33.5 82.5t85.5 31.5q54 0 90.5 -33.5t36.5 -86.5z" />
    <glyph glyph-name="uni021B" unicode="&#x21b;" horiz-adv-x="688" 
d="M383 322q0 -93 42 -128.5t116 -35.5h69v-158h-98q-152 0 -228.5 76.5t-76.5 236.5v561h-172v158h172v275h176v-275h227v-158h-227v-552zM532 -231q0 -38 -20 -93l-80 -213h-137l74 205q-34 8 -58 36.5t-24 70.5q0 51 33.5 82.5t85.5 31.5q54 0 90 -33.5t36 -86.5z" />
    <glyph glyph-name="uni0237" unicode="&#x237;" horiz-adv-x="483" 
d="M-31 -391v158h45q62 0 101 38.5t39 141.5v1085h176v-1093q0 -330 -287 -330h-74z" />
    <glyph glyph-name="uni0259" unicode="&#x259;" horiz-adv-x="1120" 
d="M92 481v97h752q0 141 -84 230t-228 89q-98 0 -162.5 -41t-80.5 -88h-178q11 49 41 96.5t79.5 91.5t129 71.5t174.5 27.5q227 0 360 -145t133 -394q0 -248 -131 -393.5t-346 -145.5q-207 0 -333 137t-126 367zM555 135q128 0 203 79.5t84 213.5h-572q3 -137 80.5 -215
t204.5 -78z" />
    <glyph glyph-name="circumflex" unicode="&#x2c6;" horiz-adv-x="1064" 
d="M371 1190h-187l260 315h172l263 -315h-187l-162 186z" />
    <glyph glyph-name="caron" unicode="&#x2c7;" horiz-adv-x="1064" 
d="M373 1505l159 -186l162 186h187l-263 -315h-172l-260 315h187z" />
    <glyph glyph-name="breve" unicode="&#x2d8;" horiz-adv-x="1064" 
d="M365 1505q0 -78 43.5 -129t123.5 -51t124 51.5t44 128.5h158q-3 -143 -92.5 -231t-233.5 -88t-233 88t-92 231h158z" />
    <glyph glyph-name="dotaccent" unicode="&#x2d9;" horiz-adv-x="1064" 
d="M532 1464q51 0 86 -33.5t35 -84.5t-35 -85t-86 -34t-85.5 34t-34.5 85t34.5 84.5t85.5 33.5z" />
    <glyph glyph-name="ring" unicode="&#x2da;" horiz-adv-x="1064" 
d="M750 1366q0 -91 -62 -151t-156 -60t-155.5 60t-61.5 151t61.5 151t155.5 60t156 -60t62 -151zM438 1366q0 -41 27.5 -67.5t66.5 -26.5t67 27t28 67t-28 67t-67 27t-66.5 -26.5t-27.5 -67.5z" />
    <glyph glyph-name="ogonek" unicode="&#x2db;" horiz-adv-x="1064" 
d="M694 0q-73 -45 -123.5 -106t-50.5 -119q0 -48 31 -76.5t90 -28.5h70v-139h-105q-123 0 -187.5 57t-64.5 148q0 96 65.5 182.5t151.5 126.5z" />
    <glyph glyph-name="tilde" unicode="&#x2dc;" horiz-adv-x="1064" 
d="M731 1473h133v-33q0 -108 -53.5 -170t-144.5 -62q-41 0 -76 13.5t-59 33t-44.5 38.5t-41.5 32.5t-42 13.5q-29 0 -49 -22.5t-20 -63.5v-32h-133v32q0 108 53.5 170t144.5 62q41 0 76 -13.5t59 -32.5t44.5 -38.5t41.5 -33t42 -13.5q29 0 49 22.5t20 63.5v33z" />
    <glyph glyph-name="hungarumlaut" unicode="&#x2dd;" horiz-adv-x="1064" 
d="M545 1505l-195 -315h-172l182 315h185zM885 1505l-195 -315h-172l182 315h185z" />
    <glyph glyph-name="gravecomb" unicode="&#x300;" horiz-adv-x="0" 
d="M-301 1505h190l195 -315h-178z" />
    <glyph glyph-name="acutecomb" unicode="&#x301;" horiz-adv-x="0" 
d="M301 1505l-207 -315h-178l195 315h190z" />
    <glyph glyph-name="uni0302" unicode="&#x302;" horiz-adv-x="0" 
d="M-160 1190h-186l260 315h172l262 -315h-186l-162 186z" />
    <glyph glyph-name="tildecomb" unicode="&#x303;" horiz-adv-x="0" 
d="M199 1473h133v-33q0 -108 -54 -170t-145 -62q-41 0 -76 13.5t-58.5 33t-44 38.5t-41.5 32.5t-42 13.5q-30 0 -50 -22.5t-20 -63.5v-32h-133v32q0 108 54 170t145 62q41 0 76 -13.5t58.5 -32.5t44 -38.5t41.5 -33t42 -13.5q30 0 50 22.5t20 63.5v33z" />
    <glyph glyph-name="uni0304" unicode="&#x304;" horiz-adv-x="0" 
d="M-301 1421h602v-151h-602v151z" />
    <glyph glyph-name="uni0306" unicode="&#x306;" horiz-adv-x="0" 
d="M-168 1505q0 -77 44 -128.5t124 -51.5t124 51.5t44 128.5h158q-3 -143 -92.5 -231t-233.5 -88t-233.5 88t-92.5 231h158z" />
    <glyph glyph-name="uni0307" unicode="&#x307;" horiz-adv-x="0" 
d="M0 1464q51 0 86 -33.5t35 -84.5t-35 -85t-86 -34t-86 34t-35 85t35 84.5t86 33.5z" />
    <glyph glyph-name="uni0308" unicode="&#x308;" horiz-adv-x="0" 
d="M-211 1464q51 0 86 -33.5t35 -84.5t-35 -85t-86 -34t-86 34t-35 85t35 84.5t86 33.5zM211 1464q51 0 86 -33.5t35 -84.5t-35 -85t-86 -34t-86 34t-35 85t35 84.5t86 33.5z" />
    <glyph glyph-name="uni030A" unicode="&#x30a;" horiz-adv-x="0" 
d="M217 1366q0 -91 -61.5 -151t-155.5 -60t-155.5 60t-61.5 151t61.5 151t155.5 60t155.5 -60t61.5 -151zM-94 1366q0 -41 27.5 -67.5t66.5 -26.5t66.5 26.5t27.5 67.5t-27.5 67.5t-66.5 26.5t-66.5 -26.5t-27.5 -67.5z" />
    <glyph glyph-name="uni030B" unicode="&#x30b;" horiz-adv-x="0" 
d="M111 1505l-195 -315h-172l182 315h185zM451 1505l-195 -315h-172l182 315h185z" />
    <glyph glyph-name="uni030C" unicode="&#x30c;" horiz-adv-x="0" 
d="M-160 1505l160 -186l162 186h186l-262 -315h-172l-260 315h186z" />
    <glyph glyph-name="uni0312" unicode="&#x312;" horiz-adv-x="0" 
d="M-123 1311q0 34 21 92l79 213h138l-74 -205q34 -8 58 -36t24 -70q0 -51 -34 -83t-85 -32q-53 0 -90 34t-37 87z" />
    <glyph glyph-name="uni0326" unicode="&#x326;" horiz-adv-x="0" 
d="M123 -231q0 -35 -21 -93l-79 -213h-138l74 205q-34 8 -58 36.5t-24 70.5q0 51 33.5 82.5t85.5 31.5q54 0 90.5 -33.5t36.5 -86.5z" />
    <glyph glyph-name="uni0327" unicode="&#x327;" horiz-adv-x="0" 
d="M68 27v-27l-41 -111q66 -7 116 -52t50 -124q0 -90 -64.5 -145t-187.5 -55h-113v127h109q46 0 72 20t26 57q0 36 -25.5 54t-68.5 18h-74v43l74 195h127z" />
    <glyph glyph-name="uni0328" unicode="&#x328;" horiz-adv-x="0" 
d="M0 0q-73 -45 -123.5 -106t-50.5 -119q0 -48 31 -76.5t90 -28.5h69v-139h-104q-123 0 -187.5 57t-64.5 148q0 96 65.5 182.5t151.5 126.5z" />
    <glyph glyph-name="uni037E" unicode="&#x37e;" horiz-adv-x="540" 
d="M397 94q0 -42 -18 -92l-123 -334h-145l114 322q-37 12 -61.5 40.5t-24.5 71.5q0 52 35.5 86.5t89.5 34.5q56 0 94.5 -36.5t38.5 -92.5zM268 1001q53 0 90 -35.5t37 -88.5t-37 -89t-90 -36t-90 36t-37 89t37 88.5t90 35.5z" />
    <glyph glyph-name="tonos" unicode="&#x384;" horiz-adv-x="1064" 
d="M725 1505l-207 -315h-178l195 315h190z" />
    <glyph glyph-name="dieresistonos" unicode="&#x385;" horiz-adv-x="1064" 
d="M260 1450q46 0 79.5 -32.5t33.5 -78.5q0 -45 -33.5 -77.5t-79.5 -32.5t-79.5 32.5t-33.5 77.5q0 46 33.5 78.5t79.5 32.5zM662 1505l-103 -315h-149l90 315h162zM805 1450q46 0 79.5 -32.5t33.5 -78.5q0 -45 -33.5 -77.5t-79.5 -32.5t-79.5 32.5t-33.5 77.5
q0 46 33.5 78.5t79.5 32.5z" />
    <glyph glyph-name="Alphatonos" unicode="&#x386;" horiz-adv-x="1359" 
d="M586 1442h188l545 -1442h-197l-141 381h-606l-137 -381h-197zM678 1210l-242 -661h484zM475 1442l-207 -316h-178l195 316h190z" />
    <glyph glyph-name="anoteleia" unicode="&#x387;" horiz-adv-x="540" 
d="M270 641q53 0 90 -36t37 -89t-37 -89t-90 -36t-90 36t-37 89t37 89t90 36z" />
    <glyph glyph-name="Epsilontonos" unicode="&#x388;" horiz-adv-x="1454" 
d="M1331 1274h-731v-451h692v-166h-692v-489h731v-168h-913v1442h913v-168zM344 1442l-207 -316h-178l195 316h190z" />
    <glyph glyph-name="Etatonos" unicode="&#x389;" horiz-adv-x="1732" 
d="M600 0h-182v1442h182v-617h770v617h182v-1442h-182v655h-770v-655zM344 1442l-207 -316h-178l195 316h190z" />
    <glyph glyph-name="Iotatonos" unicode="&#x38a;" horiz-adv-x="780" 
d="M600 1442v-1442h-182v1442h182zM344 1442l-207 -316h-178l195 316h190z" />
    <glyph glyph-name="Omicrontonos" unicode="&#x38c;" horiz-adv-x="1642" 
d="M872 1464q198 0 350 -96.5t233 -265t81 -381.5q0 -159 -47.5 -296.5t-133 -236.5t-210.5 -155t-273 -56q-198 0 -349.5 96.5t-232.5 265.5t-81 382t81 381.5t232.5 265t349.5 96.5zM872 147q219 0 348.5 159.5t129.5 414.5t-129.5 414t-348.5 159t-348 -159t-129 -414
t129.5 -414.5t347.5 -159.5zM348 1442l-207 -316h-178l195 316h190z" />
    <glyph glyph-name="Upsilontonos" unicode="&#x38e;" horiz-adv-x="1654" 
d="M1094 0h-183v565l-530 877h207l413 -692l416 692h207l-530 -877v-565zM344 1442l-207 -316h-178l195 316h190z" />
    <glyph glyph-name="Omegatonos" unicode="&#x38f;" horiz-adv-x="1665" 
d="M1548 758q0 -186 -74 -337.5t-198 -254.5h272v-166h-520v166q66 40 123.5 95.5t106 128t76.5 167t28 197.5q0 240 -129.5 390t-347.5 150t-347.5 -150t-129.5 -390q0 -103 28 -197.5t76 -167t105.5 -128t123.5 -95.5v-166h-520v166h271q-123 103 -197 254.5t-74 337.5
q0 202 81.5 362.5t233.5 252t349 91.5t348.5 -91.5t233 -252t81.5 -362.5zM348 1442l-207 -316h-178l195 316h190z" />
    <glyph glyph-name="iotadieresistonos" unicode="&#x390;" horiz-adv-x="598" 
d="M330 322q0 -93 41.5 -128.5t115.5 -35.5h50v-158h-78q-152 0 -228.5 76.5t-76.5 236.5v719h176v-710zM2 1450q46 0 79.5 -32.5t33.5 -78.5q0 -45 -33.5 -77.5t-79.5 -32.5t-79.5 32.5t-33.5 77.5q0 46 33.5 78.5t79.5 32.5zM403 1505l-102 -315h-149l90 315h161z
M547 1450q46 0 79 -32.5t33 -78.5t-33 -78t-79 -32t-79.5 32.5t-33.5 77.5q0 46 33.5 78.5t79.5 32.5z" />
    <glyph glyph-name="Alpha" unicode="&#x391;" horiz-adv-x="1359" 
d="M586 1442h188l545 -1442h-197l-141 381h-606l-137 -381h-197zM678 1210l-242 -661h484z" />
    <glyph glyph-name="Beta" unicode="&#x392;" horiz-adv-x="1300" 
d="M180 0v1442h535q203 0 317.5 -105t114.5 -268q0 -122 -56 -202.5t-133 -112.5q41 -12 81.5 -37.5t78.5 -66.5t61 -104t23 -138q0 -183 -128.5 -295.5t-346.5 -112.5h-547zM725 662h-365v-498h355q137 0 219 65.5t82 182.5q0 115 -78.5 182.5t-212.5 67.5zM692 1278h-332
v-455h345q126 0 192 63.5t66 164.5q0 106 -72 166.5t-199 60.5z" />
    <glyph glyph-name="Gamma" unicode="&#x393;" horiz-adv-x="1150" 
d="M1073 1274h-711v-1274h-182v1442h893v-168z" />
    <glyph glyph-name="uni0394" unicode="&#x394;" horiz-adv-x="1392" 
d="M791 1442l563 -1442h-1315l563 1442h189zM696 1210l-399 -1040h797z" />
    <glyph glyph-name="Epsilon" unicode="&#x395;" horiz-adv-x="1216" 
d="M1094 1274h-732v-451h693v-166h-693v-489h732v-168h-914v1442h914v-168z" />
    <glyph glyph-name="Zeta" unicode="&#x396;" horiz-adv-x="1265" 
d="M121 154l801 1120h-801v168h1024v-154l-803 -1120h803v-168h-1024v154z" />
    <glyph glyph-name="Eta" unicode="&#x397;" horiz-adv-x="1495" 
d="M362 0h-182v1442h182v-617h771v617h182v-1442h-182v655h-771v-655z" />
    <glyph glyph-name="Theta" unicode="&#x398;" horiz-adv-x="1540" 
d="M770 1464q198 0 350 -96.5t233 -265t81 -381.5q0 -159 -47.5 -296.5t-133 -236.5t-210.5 -155t-273 -56t-273 56t-210.5 155t-133 236.5t-47.5 296.5q0 213 81 381.5t233 265t350 96.5zM770 147q219 0 349 159.5t130 414.5t-130 414t-349 159t-349 -159t-130 -414
t130 -414.5t349 -159.5zM1083 657h-626v166h626v-166z" />
    <glyph glyph-name="Iota" unicode="&#x399;" horiz-adv-x="542" 
d="M362 1442v-1442h-182v1442h182z" />
    <glyph glyph-name="Kappa" unicode="&#x39a;" horiz-adv-x="1282" 
d="M362 0h-182v1442h182v-643l642 643h235l-684 -690l696 -752h-241l-648 688v-688z" />
    <glyph glyph-name="Lambda" unicode="&#x39b;" horiz-adv-x="1339" 
d="M47 0l528 1442h189l528 -1442h-196l-426 1196l-426 -1196h-197z" />
    <glyph glyph-name="Mu" unicode="&#x39c;" horiz-adv-x="1828" 
d="M180 1442h221l514 -1206l515 1206h219v-1442h-179v1108l-471 -1108h-168l-473 1108v-1108h-178v1442z" />
    <glyph glyph-name="Nu" unicode="&#x39d;" horiz-adv-x="1501" 
d="M377 1442l766 -1143v1143h178v-1442h-178l-785 1167v-1167h-178v1442h197z" />
    <glyph glyph-name="Xi" unicode="&#x39e;" horiz-adv-x="1286" 
d="M123 172h1040v-172h-1040v172zM217 823h852v-168h-852v168zM123 1442h1040v-172h-1040v172z" />
    <glyph glyph-name="Omicron" unicode="&#x39f;" horiz-adv-x="1540" 
d="M770 1464q198 0 350 -96.5t233 -265t81 -381.5q0 -159 -47.5 -296.5t-133 -236.5t-210.5 -155t-273 -56t-273 56t-210.5 155t-133 236.5t-47.5 296.5q0 213 81 381.5t233 265t350 96.5zM770 147q218 0 347.5 159.5t129.5 414.5t-129 414t-348 159t-348 -159t-129 -414
t129.5 -414.5t347.5 -159.5z" />
    <glyph glyph-name="Pi" unicode="&#x3a0;" horiz-adv-x="1488" 
d="M180 1442h1129v-1442h-183v1274h-764v-1274h-182v1442z" />
    <glyph glyph-name="Rho" unicode="&#x3a1;" horiz-adv-x="1255" 
d="M682 1442q112 0 204 -36t151.5 -99t91.5 -146t32 -178q0 -93 -33 -176.5t-92.5 -147t-150.5 -100.5t-199 -37h-324v-522h-182v1442h502zM662 1276h-300v-588h300q147 0 230 81.5t83 213.5q0 133 -82 213t-231 80z" />
    <glyph glyph-name="Sigma" unicode="&#x3a3;" horiz-adv-x="1251" 
d="M1128 1442v-166h-778l453 -553l-457 -557h784v-166h-1009v152l467 569l-465 569v152h1005z" />
    <glyph glyph-name="Tau" unicode="&#x3a4;" horiz-adv-x="1275" 
d="M72 1274v168h1132v-168h-475v-1274h-182v1274h-475z" />
    <glyph glyph-name="Upsilon" unicode="&#x3a5;" horiz-adv-x="1304" 
d="M743 0h-182v565l-530 877h207l413 -692l416 692h207l-531 -877v-565z" />
    <glyph glyph-name="Phi" unicode="&#x3a6;" horiz-adv-x="1689" 
d="M934 1335q135 -2 254 -43.5t209.5 -116t143 -190t52.5 -256.5q0 -140 -52.5 -255t-143 -189.5t-209.5 -116t-254 -43.5v-148h-178v148q-135 2 -254 43.5t-210 116t-143.5 189.5t-52.5 255q0 141 52.5 256.5t143.5 190t210 116t254 43.5v148h178v-148zM756 291v878
q-215 -5 -345 -122.5t-130 -317.5q0 -199 130 -316t345 -122zM934 291q215 5 345 122t130 316q0 200 -130 317.5t-345 122.5v-878z" />
    <glyph glyph-name="Chi" unicode="&#x3a7;" horiz-adv-x="1347" 
d="M1073 0l-403 588l-398 -588h-215l500 727l-496 715h215l400 -582l397 582h213l-495 -719l499 -723h-217z" />
    <glyph glyph-name="Psi" unicode="&#x3a8;" horiz-adv-x="1693" 
d="M342 924q0 -195 105 -302.5t309 -119.5v940h182v-940q204 12 309 119.5t105 302.5v518h182v-527q0 -273 -161.5 -422t-434.5 -161v-332h-182v332q-273 12 -434.5 161t-161.5 422v527h182v-518z" />
    <glyph glyph-name="uni03A9" unicode="&#x3a9;" horiz-adv-x="1560" 
d="M1444 758q0 -186 -74.5 -337.5t-198.5 -254.5h273v-166h-520v166q66 40 123.5 95.5t105.5 128t76 167t28 197.5q0 240 -129.5 390t-347.5 150t-347.5 -150t-129.5 -390q0 -103 28 -197.5t76.5 -167t106 -128t123.5 -95.5v-166h-520v166h270q-123 103 -196.5 254.5
t-73.5 337.5q0 202 81.5 362.5t233 252t348.5 91.5t349 -91.5t233.5 -252t81.5 -362.5z" />
    <glyph glyph-name="Iotadieresis" unicode="&#x3aa;" horiz-adv-x="542" 
d="M362 1442v-1442h-182v1442h182zM61 1858q51 0 86 -34t35 -85t-35 -85t-86 -34t-85.5 34t-34.5 85t34.5 85t85.5 34zM483 1858q51 0 86 -34t35 -85t-35 -85t-86 -34t-86 34t-35 85t35 85t86 34z" />
    <glyph glyph-name="Upsilondieresis" unicode="&#x3ab;" horiz-adv-x="1304" 
d="M743 0h-182v565l-530 877h207l413 -692l416 692h207l-531 -877v-565zM436 1858q51 0 86 -34t35 -85t-35 -85t-86 -34t-86 34t-35 85t35 85t86 34zM874 1858q51 0 86 -34t35 -85t-35 -85t-86 -34t-85.5 34t-34.5 85t34.5 85t85.5 34z" />
    <glyph glyph-name="alphatonos" unicode="&#x3ac;" horiz-adv-x="1218" 
d="M557 -23q-89 0 -171 34t-148.5 99t-106 170t-39.5 236q0 132 40 237.5t107 170t150 98t174 33.5q120 0 206.5 -46.5t125.5 -113.5v137h170v-1032h-170v147q-42 -73 -128.5 -121.5t-209.5 -48.5zM580 895q-138 0 -223 -105t-85 -274t85 -274t223 -105q143 0 229 102
t86 273v8q0 171 -86 273t-229 102zM893 1505l-207 -315h-178l194 315h191z" />
    <glyph glyph-name="epsilontonos" unicode="&#x3ad;" horiz-adv-x="1034" 
d="M942 748h-172q-14 70 -75.5 110.5t-172.5 40.5q-106 0 -164.5 -42t-58.5 -112q0 -68 56.5 -103.5t156.5 -35.5h166v-151h-164q-115 0 -175 -44t-60 -120t64.5 -117t174.5 -41q114 0 186.5 40t83.5 126h175q-6 -82 -44.5 -145.5t-101 -101t-138 -56.5t-161.5 -19
q-185 0 -300.5 82t-115.5 226q0 56 18.5 102t49 74.5t61 46t62.5 24.5q-66 21 -117 76.5t-51 143.5q0 134 112 218.5t285 84.5q178 0 291.5 -80t128.5 -227zM829 1505l-206 -315h-179l195 315h190z" />
    <glyph glyph-name="etatonos" unicode="&#x3ae;" horiz-adv-x="1165" 
d="M154 1032h170v-121q42 60 123.5 102t189.5 42q78 0 145.5 -24t122 -71.5t86 -127.5t31.5 -183v-1040h-176v1016q0 135 -66 202.5t-176 67.5q-52 0 -99 -16.5t-87.5 -49t-64 -90t-23.5 -131.5v-608h-176v1032zM899 1505l-207 -315h-178l195 315h190z" />
    <glyph glyph-name="iotatonos" unicode="&#x3af;" horiz-adv-x="598" 
d="M330 322q0 -93 41.5 -128.5t115.5 -35.5h50v-158h-78q-152 0 -228.5 76.5t-76.5 236.5v719h176v-710zM543 1505l-207 -315h-178l194 315h191z" />
    <glyph glyph-name="upsilondieresistonos" unicode="&#x3b0;" horiz-adv-x="1155" 
d="M836 1032h176v-629q0 -104 -33.5 -186.5t-93 -134t-137.5 -78.5t-170 -27q-191 0 -313 110.5t-122 315.5v629h176v-620q0 -135 72.5 -205t186.5 -70t186 70t72 205v620zM307 1450q46 0 79.5 -32.5t33.5 -78.5q0 -45 -33.5 -77.5t-79.5 -32.5t-79 32t-33 78t33 78.5
t79 32.5zM709 1505l-103 -315h-149l90 315h162zM852 1450q46 0 79.5 -32.5t33.5 -78.5q0 -45 -33.5 -77.5t-79.5 -32.5t-79.5 32.5t-33.5 77.5q0 46 33.5 78.5t79.5 32.5z" />
    <glyph glyph-name="alpha" unicode="&#x3b1;" horiz-adv-x="1218" 
d="M557 -23q-89 0 -171 34t-148.5 99t-106 170t-39.5 236q0 132 40 237.5t107 170t150 98t174 33.5q120 0 206.5 -46.5t125.5 -113.5v137h170v-1032h-170v147q-42 -73 -128.5 -121.5t-209.5 -48.5zM580 895q-138 0 -223 -105t-85 -274t85 -274t223 -105q143 0 229 102
t86 273v8q0 171 -86 273t-229 102z" />
    <glyph glyph-name="beta" unicode="&#x3b2;" horiz-adv-x="1228" 
d="M862 809q44 -14 87 -41t86 -71.5t69 -114.5t26 -154q0 -194 -127.5 -322.5t-328.5 -128.5q-109 0 -198.5 41t-145.5 115v-524h-176v1456q0 199 130 322.5t332 123.5q100 0 183 -32t137.5 -85.5t84.5 -122.5t30 -145q0 -122 -56 -202t-133 -115zM653 137q133 0 215 82.5
t82 212.5q0 134 -86.5 208.5t-236.5 74.5h-66v157h57q122 0 187 69.5t65 176.5q0 104 -70 169t-186 65q-125 0 -204.5 -79t-79.5 -212v-627q0 -125 95 -211t228 -86z" />
    <glyph glyph-name="gamma" unicode="&#x3b3;" horiz-adv-x="1062" 
d="M1032 1032l-414 -1036v-387h-176v391l-411 1032h190l309 -807l312 807h190z" />
    <glyph glyph-name="delta" unicode="&#x3b4;" horiz-adv-x="1187" 
d="M530 1329q-67 0 -106 -32t-39 -83q0 -110 178 -151q183 -42 248 -74q285 -135 285 -481q0 -230 -138 -380.5t-364 -150.5q-150 0 -265 69t-176 188.5t-61 269.5q0 182 83.5 299t223.5 162q-194 77 -194 260q0 116 85.5 190t233.5 74h459v-160h-453zM594 137
q145 0 233 104t88 267q0 172 -90.5 269t-230.5 97t-231 -97t-91 -269q0 -163 88.5 -267t233.5 -104z" />
    <glyph glyph-name="epsilon" unicode="&#x3b5;" horiz-adv-x="1034" 
d="M942 748h-172q-14 70 -75.5 110.5t-172.5 40.5q-106 0 -164.5 -42t-58.5 -112q0 -68 56.5 -103.5t156.5 -35.5h166v-151h-164q-115 0 -175 -44t-60 -120t64.5 -117t174.5 -41q114 0 186.5 40t83.5 126h175q-6 -82 -44.5 -145.5t-101 -101t-138 -56.5t-161.5 -19
q-185 0 -300.5 82t-115.5 226q0 56 18.5 102t49 74.5t61 46t62.5 24.5q-66 21 -117 76.5t-51 143.5q0 134 112 218.5t285 84.5q178 0 291.5 -80t128.5 -227z" />
    <glyph glyph-name="zeta" unicode="&#x3b6;" horiz-adv-x="952" 
d="M627 1042q-186 -186 -270.5 -321.5t-84.5 -261.5q0 -128 64.5 -197.5t198.5 -91.5l77 -12q170 -27 240 -90.5t70 -210.5v-113h-168v84q0 73 -29 111.5t-123 50.5l-76 10q-212 29 -323 147t-111 312q0 92 31.5 183t95 182t131 167.5t166.5 173.5l166 164h-535v160h775
v-154z" />
    <glyph glyph-name="eta" unicode="&#x3b7;" horiz-adv-x="1165" 
d="M154 1032h170v-121q42 60 123.5 102t189.5 42q78 0 145.5 -24t122 -71.5t86 -127.5t31.5 -183v-1040h-176v1016q0 135 -66 202.5t-176 67.5q-52 0 -99 -16.5t-87.5 -49t-64 -90t-23.5 -131.5v-608h-176v1032z" />
    <glyph glyph-name="theta" unicode="&#x3b8;" 
d="M629 1511q131 0 229.5 -58t158 -163.5t89 -242t29.5 -302.5t-29.5 -303t-89 -242.5t-158 -164t-229.5 -58.5t-229.5 58.5t-158 164t-89 242.5t-29.5 303t29.5 302.5t89 242t158 163.5t229.5 58zM629 137q314 0 325 551h-651q15 -551 326 -551zM629 1352q-298 0 -324 -506
h647q-28 506 -323 506z" />
    <glyph glyph-name="iota" unicode="&#x3b9;" horiz-adv-x="598" 
d="M330 322q0 -93 41.5 -128.5t115.5 -35.5h50v-158h-78q-152 0 -228.5 76.5t-76.5 236.5v719h176v-710z" />
    <glyph glyph-name="kappa" unicode="&#x3ba;" horiz-adv-x="1036" 
d="M330 0h-176v1032h176v-442l446 442h223l-485 -481l492 -551h-228l-448 498v-498z" />
    <glyph glyph-name="lambda" unicode="&#x3bb;" horiz-adv-x="1062" 
d="M209 1489q76 0 130.5 -17.5t95 -59t68 -92t60.5 -134.5l469 -1186h-190l-310 803l-311 -803h-190l407 1020l-43 110q-41 105 -86 152t-119 47h-40v160h59z" />
    <glyph glyph-name="uni03BC" unicode="&#x3bc;" horiz-adv-x="1183" 
d="M854 1032h176v-1032h-170v121q-43 -60 -126 -102t-191 -42q-57 0 -115.5 16.5t-97.5 45.5v-430h-176v1423h176v-624q0 -135 67.5 -203t177.5 -68q52 0 100 16.5t89 49t65.5 90t24.5 131.5v608z" />
    <glyph glyph-name="nu" unicode="&#x3bd;" horiz-adv-x="1050" 
d="M1020 1032l-404 -1032h-182l-403 1032h190l303 -811l305 811h191z" />
    <glyph glyph-name="xi" unicode="&#x3be;" horiz-adv-x="999" 
d="M133 1489h805v-160h-295q-133 0 -209 -67t-76 -170q0 -101 71 -160.5t200 -59.5h235v-159h-274q-147 0 -232.5 -77.5t-85.5 -199.5q0 -111 76.5 -179t212.5 -87l88 -12q168 -24 238.5 -89t70.5 -212v-113h-167v84q0 73 -29 111.5t-123 50.5l-92 12q-212 28 -333.5 142.5
t-121.5 291.5q0 77 26.5 143.5t68.5 110t86.5 72t88.5 41.5q-82 40 -133 109.5t-51 166.5q0 78 39.5 144.5t101.5 105.5h-186v160z" />
    <glyph glyph-name="omicron" unicode="&#x3bf;" horiz-adv-x="1175" 
d="M588 1055q223 0 359 -151t136 -388t-136 -388t-359 -151t-359.5 151t-136.5 388t136.5 388t359.5 151zM588 137q145 0 230 104.5t85 274.5t-85 274.5t-230 104.5t-230.5 -104.5t-85.5 -274.5t85.5 -274.5t230.5 -104.5z" />
    <glyph glyph-name="pi" unicode="&#x3c0;" horiz-adv-x="1243" 
d="M397 0h-176v874h-164v158h1129v-158h-164v-874h-176v874h-449v-874z" />
    <glyph glyph-name="rho" unicode="&#x3c1;" horiz-adv-x="1196" 
d="M616 1055q96 0 182.5 -34t155.5 -99t109.5 -170t40.5 -236q0 -105 -27 -194t-73 -151.5t-106.5 -107t-127.5 -65.5t-137 -21q-114 0 -199 43t-127 107v-518h-176v911q0 131 39.5 235t107.5 168.5t154 98t184 33.5zM616 137q138 0 223 105t85 274t-85 274t-223 105
q-143 0 -229 -102t-86 -273v-8q0 -171 86 -273t229 -102z" />
    <glyph glyph-name="sigmafinal" unicode="&#x3c2;" horiz-adv-x="1103" 
d="M659 158q85 -14 140 -33.5t95.5 -54t58.5 -86t18 -127.5v-113h-168v84q0 73 -29 111.5t-123 50.5l-71 10q-228 32 -358 161.5t-130 358.5q0 153 59.5 274.5t171 191t257.5 69.5q98 0 180 -32t134.5 -84.5t84.5 -113.5t43 -125h-176q-25 79 -90 137t-176 58
q-140 0 -224 -104t-84 -271q0 -160 81.5 -242.5t230.5 -107.5z" />
    <glyph glyph-name="sigma" unicode="&#x3c3;" horiz-adv-x="1228" 
d="M1155 1032v-158h-240q166 -144 166 -370q0 -150 -60.5 -269.5t-173.5 -188.5t-261 -69q-222 0 -358 151t-136 382q0 149 59.5 267t174 186.5t266.5 68.5h563zM903 510q0 164 -83.5 264t-227.5 100q-145 0 -232.5 -101t-87.5 -263q0 -164 85 -268.5t229 -104.5
t230.5 104.5t86.5 268.5z" />
    <glyph glyph-name="tau" unicode="&#x3c4;" horiz-adv-x="1001" 
d="M57 874v158h871v-158h-359v-552q0 -93 42 -128.5t116 -35.5h55v-158h-84q-152 0 -228.5 76.5t-76.5 236.5v561h-336z" />
    <glyph glyph-name="upsilon" unicode="&#x3c5;" horiz-adv-x="1155" 
d="M836 1032h176v-629q0 -104 -33.5 -186.5t-93 -134t-137.5 -78.5t-170 -27q-191 0 -313 110.5t-122 315.5v629h176v-620q0 -135 72.5 -205t186.5 -70t186 70t72 205v620z" />
    <glyph glyph-name="phi" unicode="&#x3c6;" horiz-adv-x="1466" 
d="M819 1053q248 -8 401.5 -154.5t153.5 -382.5t-153.5 -382t-401.5 -154v-371h-172v371q-248 8 -401.5 154t-153.5 382t153.5 382.5t401.5 154.5v389h172v-389zM647 139v754q-166 -3 -271.5 -103t-105.5 -274t105.5 -274t271.5 -103zM1196 516q0 174 -105.5 274t-271.5 103
v-754q166 3 271.5 103t105.5 274z" />
    <glyph glyph-name="chi" unicode="&#x3c7;" horiz-adv-x="1062" 
d="M836 -391l-308 569l-305 -569h-192l397 721l-393 702h196l304 -549l301 549h192l-393 -704l397 -719h-196z" />
    <glyph glyph-name="psi" unicode="&#x3c8;" horiz-adv-x="1429" 
d="M1116 1032h176v-540q0 -229 -126 -360t-365 -150v-373h-172v373q-241 19 -366.5 150t-125.5 360v540h176v-532q0 -330 316 -357v1217h172v-1217q315 27 315 357v532z" />
    <glyph glyph-name="omega" unicode="&#x3c9;" horiz-adv-x="1554" 
d="M987 1055q206 0 336.5 -153t130.5 -386q0 -241 -106 -390t-291 -149q-101 0 -171.5 50t-109.5 137q-37 -87 -107 -137t-171 -50q-186 0 -292 149t-106 390q0 233 130.5 386t336.5 153v-160q-126 0 -206 -106t-80 -273q0 -172 59 -275.5t164 -103.5q54 0 92 24.5
t57.5 67.5t28 88.5t8.5 98.5v293h174v-293q0 -42 5 -79t18 -74.5t33.5 -64.5t54 -44t76.5 -17q105 0 164 103.5t59 275.5q0 167 -80.5 273t-206.5 106v160z" />
    <glyph glyph-name="iotadieresis" unicode="&#x3ca;" horiz-adv-x="598" 
d="M330 322q0 -93 41.5 -128.5t115.5 -35.5h50v-158h-78q-152 0 -228.5 76.5t-76.5 236.5v719h176v-710zM45 1464q51 0 86 -33.5t35 -84.5t-35 -85t-86 -34t-86 34t-35 85t35 84.5t86 33.5zM442 1464q51 0 86 -33.5t35 -84.5t-35 -85t-86 -34t-85.5 34t-34.5 85t34.5 84.5
t85.5 33.5z" />
    <glyph glyph-name="upsilondieresis" unicode="&#x3cb;" horiz-adv-x="1155" 
d="M836 1032h176v-629q0 -104 -33.5 -186.5t-93 -134t-137.5 -78.5t-170 -27q-191 0 -313 110.5t-122 315.5v629h176v-620q0 -135 72.5 -205t186.5 -70t186 70t72 205v620zM367 1464q51 0 85.5 -33.5t34.5 -84.5t-34.5 -85t-85.5 -34t-86 34t-35 85t35 84.5t86 33.5z
M788 1464q51 0 86 -33.5t35 -84.5t-35 -85t-86 -34t-85.5 34t-34.5 85t34.5 84.5t85.5 33.5z" />
    <glyph glyph-name="omicrontonos" unicode="&#x3cc;" horiz-adv-x="1175" 
d="M588 1055q223 0 359 -151t136 -388t-136 -388t-359 -151t-359.5 151t-136.5 388t136.5 388t359.5 151zM588 137q145 0 230 104.5t85 274.5t-85 274.5t-230 104.5t-230.5 -104.5t-85.5 -274.5t85.5 -274.5t230.5 -104.5zM889 1505l-207 -315h-178l194 315h191z" />
    <glyph glyph-name="upsilontonos" unicode="&#x3cd;" horiz-adv-x="1155" 
d="M836 1032h176v-629q0 -104 -33.5 -186.5t-93 -134t-137.5 -78.5t-170 -27q-191 0 -313 110.5t-122 315.5v629h176v-620q0 -135 72.5 -205t186.5 -70t186 70t72 205v620zM879 1505l-207 -315h-178l194 315h191z" />
    <glyph glyph-name="omegatonos" unicode="&#x3ce;" horiz-adv-x="1554" 
d="M987 1055q206 0 336.5 -153t130.5 -386q0 -241 -106 -390t-291 -149q-101 0 -171.5 50t-109.5 137q-37 -87 -107 -137t-171 -50q-186 0 -292 149t-106 390q0 233 130.5 386t336.5 153v-160q-126 0 -206 -106t-80 -273q0 -172 59 -275.5t164 -103.5q54 0 92 24.5
t57.5 67.5t28 88.5t8.5 98.5v293h174v-293q0 -42 5 -79t18 -74.5t33.5 -64.5t54 -44t76.5 -17q105 0 164 103.5t59 275.5q0 167 -80.5 273t-206.5 106v160zM1077 1505l-207 -315h-178l195 315h190z" />
    <glyph glyph-name="uni0400" unicode="&#x400;" horiz-adv-x="1216" 
d="M1094 1274h-732v-451h693v-166h-693v-489h732v-168h-914v1442h914v-168zM342 1898h190l195 -315h-178z" />
    <glyph glyph-name="uni0401" unicode="&#x401;" horiz-adv-x="1216" 
d="M1094 1274h-732v-451h693v-166h-693v-489h732v-168h-914v1442h914v-168zM424 1858q51 0 86 -34t35 -85t-35 -85t-86 -34t-86 34t-35 85t35 85t86 34zM862 1858q51 0 86 -34t35 -85t-35 -85t-86 -34t-86 34t-35 85t35 85t86 34z" />
    <glyph glyph-name="uni0402" unicode="&#x402;" horiz-adv-x="1667" 
d="M1087 893q215 0 349.5 -124.5t134.5 -332.5q0 -196 -122.5 -317t-326.5 -121h-57v168h43q122 0 199 69.5t77 200.5q0 136 -88 211.5t-235 75.5q-95 0 -185 -32.5t-151 -84.5v-606h-182v1274h-465v168h1112v-168h-465v-488q145 107 362 107z" />
    <glyph glyph-name="uni0403" unicode="&#x403;" horiz-adv-x="1150" 
d="M1073 1274h-711v-1274h-182v1442h893v-168zM954 1898l-206 -315h-179l195 315h190z" />
    <glyph glyph-name="uni0404" unicode="&#x404;" horiz-adv-x="1445" 
d="M1165 430h185q-10 -50 -31 -100t-54.5 -102t-82.5 -96t-110 -79.5t-142.5 -55.5t-173.5 -20q-187 0 -334 89.5t-231.5 259.5t-84.5 395q0 167 48 306.5t134 235t206 148.5t262 53q123 0 227.5 -36.5t177.5 -99.5t120 -143t65 -171h-183q-41 121 -143 200.5t-264 79.5
q-189 0 -313 -127.5t-146 -347.5h627v-164h-629q14 -232 138.5 -370t320.5 -138q91 0 166 27.5t123 72.5t77 90.5t45 92.5z" />
    <glyph glyph-name="uni0405" unicode="&#x405;" horiz-adv-x="1261" 
d="M100 375h187q36 -106 128 -168t240 -62q144 0 232 68.5t88 187.5q0 184 -230 222l-266 43q-171 28 -264.5 124t-93.5 244q0 129 68 228.5t180 150.5t247 51q203 0 346 -99t177 -286h-187q-66 217 -336 217q-129 0 -219 -66t-90 -181q0 -80 54.5 -133t156.5 -70l268 -45
q375 -63 375 -387q0 -203 -142.5 -320t-367.5 -117q-219 0 -369.5 102.5t-181.5 295.5z" />
    <glyph glyph-name="uni0406" unicode="&#x406;" horiz-adv-x="542" 
d="M362 1442v-1442h-182v1442h182z" />
    <glyph glyph-name="uni0407" unicode="&#x407;" horiz-adv-x="542" 
d="M362 1442v-1442h-182v1442h182zM61 1858q51 0 86 -34t35 -85t-35 -85t-86 -34t-85.5 34t-34.5 85t34.5 85t85.5 34zM483 1858q51 0 86 -34t35 -85t-35 -85t-86 -34t-86 34t-35 85t35 85t86 34z" />
    <glyph glyph-name="uni0408" unicode="&#x408;" horiz-adv-x="1105" 
d="M66 371h180q3 -36 18 -72t42.5 -71.5t75.5 -58t110 -22.5q129 0 193.5 87t64.5 231v977h182v-977q0 -231 -116.5 -359.5t-326.5 -128.5q-101 0 -183.5 35t-133.5 92.5t-78 126t-28 140.5z" />
    <glyph glyph-name="uni0409" unicode="&#x409;" horiz-adv-x="2136" 
d="M1563 911q148 0 258.5 -62t165.5 -164t55 -228q0 -124 -56 -227t-166 -166.5t-253 -63.5h-506v1274h-539l-53 -797q-6 -89 -19.5 -158.5t-42.5 -132t-72 -103t-108.5 -64t-152.5 -23.5h-54v170h31q125 0 177.5 73.5t64.5 249.5l65 953h885v-531h320zM1542 745h-299v-579
h299q146 0 229.5 80.5t83.5 210.5q0 131 -82.5 209.5t-230.5 78.5z" />
    <glyph glyph-name="uni040A" unicode="&#x40a;" horiz-adv-x="2195" 
d="M362 0h-182v1442h182v-578h764v578h183v-572h317q217 0 346 -121.5t129 -312.5q0 -188 -130.5 -312t-340.5 -124h-504v698h-764v-698zM1606 705h-297v-539h297q142 0 225.5 72t83.5 198q0 128 -82.5 198.5t-226.5 70.5z" />
    <glyph glyph-name="uni040B" unicode="&#x40b;" horiz-adv-x="1693" 
d="M78 1274v168h1112v-168h-465v-488q145 107 356 107q106 0 191 -29.5t149 -90t98.5 -160.5t34.5 -234v-379h-182v379q0 179 -83.5 261.5t-233.5 82.5q-92 0 -180.5 -32.5t-149.5 -84.5v-606h-182v1274h-465z" />
    <glyph glyph-name="uni040C" unicode="&#x40c;" horiz-adv-x="1282" 
d="M362 0h-182v1442h182v-643l642 643h235l-684 -690l696 -752h-241l-648 688v-688zM961 1898l-207 -315h-179l195 315h191z" />
    <glyph glyph-name="uni040D" unicode="&#x40d;" horiz-adv-x="1501" 
d="M1321 1442v-1442h-180v1151l-781 -1151h-180v1442h180v-1151l781 1151h180zM451 1898h190l195 -315h-179z" />
    <glyph glyph-name="uni040E" unicode="&#x40e;" horiz-adv-x="1325" 
d="M41 1442h205l432 -846l407 846h199l-702 -1442h-201l199 406zM494 1898q0 -76 47.5 -128t128.5 -52t128.5 52t47.5 128h158q-3 -142 -96 -230.5t-238 -88.5t-238 88.5t-96 230.5h158z" />
    <glyph glyph-name="uni040F" unicode="&#x40f;" horiz-adv-x="1488" 
d="M180 0v1442h182v-1272h764v1272h183v-1442h-475v-313h-179v313h-475z" />
    <glyph glyph-name="uni0410" unicode="&#x410;" horiz-adv-x="1359" 
d="M586 1442h188l545 -1442h-197l-141 381h-606l-137 -381h-197zM678 1210l-242 -661h484z" />
    <glyph glyph-name="uni0411" unicode="&#x411;" 
d="M1061 1274h-699v-402h336q214 0 338.5 -119.5t124.5 -314.5q0 -192 -125.5 -315t-333.5 -123h-522v1442h881v-168zM676 707h-314v-541h314q138 0 218.5 73t80.5 199t-80.5 197.5t-218.5 71.5z" />
    <glyph glyph-name="uni0412" unicode="&#x412;" horiz-adv-x="1300" 
d="M180 0v1442h535q203 0 317.5 -105t114.5 -268q0 -122 -56 -202.5t-133 -112.5q41 -12 81.5 -37.5t78.5 -66.5t61 -104t23 -138q0 -183 -128.5 -295.5t-346.5 -112.5h-547zM725 662h-365v-498h355q137 0 219 65.5t82 182.5q0 115 -78.5 182.5t-212.5 67.5zM692 1278h-332
v-455h345q126 0 192 63.5t66 164.5q0 106 -72 166.5t-199 60.5z" />
    <glyph glyph-name="uni0413" unicode="&#x413;" horiz-adv-x="1150" 
d="M1073 1274h-711v-1274h-182v1442h893v-168z" />
    <glyph glyph-name="uni0414" unicode="&#x414;" horiz-adv-x="1501" 
d="M1440 170v-444h-176v274h-1067v-274h-177v444h111q80 56 118.5 178.5t53.5 353.5l49 740h912v-1272h176zM479 702q-15 -235 -43.5 -351.5t-89.5 -180.5h735v1104h-565z" />
    <glyph glyph-name="uni0415" unicode="&#x415;" horiz-adv-x="1216" 
d="M1094 1274h-732v-451h693v-166h-693v-489h732v-168h-914v1442h914v-168z" />
    <glyph glyph-name="uni0416" unicode="&#x416;" horiz-adv-x="1910" 
d="M864 0v705l-602 -705h-227l637 750l-623 692h227l588 -649v649h183v-649l587 649h228l-623 -688l637 -754h-227l-602 705v-705h-183z" />
    <glyph glyph-name="uni0417" unicode="&#x417;" horiz-adv-x="1228" 
d="M102 1073q15 127 90 217.5t181 132t231 41.5q213 0 343 -111.5t130 -287.5q0 -115 -60.5 -197.5t-144.5 -113.5q39 -10 80 -33.5t83 -63.5t68.5 -104.5t26.5 -142.5q0 -187 -139.5 -310t-365.5 -123q-225 0 -369.5 107.5t-167.5 296.5h182q23 -104 114 -169t241 -65
q147 0 233 71.5t86 193.5q0 124 -86.5 184.5t-232.5 60.5h-219v166h206q137 0 208 65.5t71 170.5q0 108 -78.5 171.5t-208.5 63.5t-214.5 -58t-106.5 -163h-181z" />
    <glyph glyph-name="uni0418" unicode="&#x418;" horiz-adv-x="1501" 
d="M1321 1442v-1442h-180v1151l-781 -1151h-180v1442h180v-1151l781 1151h180z" />
    <glyph glyph-name="uni0419" unicode="&#x419;" horiz-adv-x="1501" 
d="M1321 1442v-1442h-180v1151l-781 -1151h-180v1442h180v-1151l781 1151h180zM575 1898q0 -76 48 -128t129 -52t128.5 52t47.5 128h157q-3 -142 -95.5 -230.5t-237.5 -88.5t-238 88.5t-96 230.5h157z" />
    <glyph glyph-name="uni041A" unicode="&#x41a;" horiz-adv-x="1282" 
d="M362 0h-182v1442h182v-643l642 643h235l-684 -690l696 -752h-241l-648 688v-688z" />
    <glyph glyph-name="uni041B" unicode="&#x41b;" horiz-adv-x="1423" 
d="M20 -4v170h31q125 0 177.5 73.5t64.5 249.5l65 953h885v-1442h-182v1274h-539l-53 -797q-6 -89 -19.5 -158.5t-42.5 -132t-72 -103t-108.5 -64t-152.5 -23.5h-54z" />
    <glyph glyph-name="uni041C" unicode="&#x41c;" horiz-adv-x="1828" 
d="M180 1442h221l514 -1206l515 1206h219v-1442h-179v1108l-471 -1108h-168l-473 1108v-1108h-178v1442z" />
    <glyph glyph-name="uni041D" unicode="&#x41d;" horiz-adv-x="1495" 
d="M362 0h-182v1442h182v-617h771v617h182v-1442h-182v655h-771v-655z" />
    <glyph glyph-name="uni041E" unicode="&#x41e;" horiz-adv-x="1540" 
d="M770 1464q198 0 350 -96.5t233 -265t81 -381.5q0 -159 -47.5 -296.5t-133 -236.5t-210.5 -155t-273 -56t-273 56t-210.5 155t-133 236.5t-47.5 296.5q0 213 81 381.5t233 265t350 96.5zM770 147q218 0 347.5 159.5t129.5 414.5t-129 414t-348 159t-348 -159t-129 -414
t129.5 -414.5t347.5 -159.5z" />
    <glyph glyph-name="uni041F" unicode="&#x41f;" horiz-adv-x="1488" 
d="M180 1442h1129v-1442h-183v1274h-764v-1274h-182v1442z" />
    <glyph glyph-name="uni0420" unicode="&#x420;" horiz-adv-x="1255" 
d="M682 1442q112 0 204 -36t151.5 -99t91.5 -146t32 -178q0 -93 -33 -176.5t-92.5 -147t-150.5 -100.5t-199 -37h-324v-522h-182v1442h502zM662 1276h-300v-588h300q147 0 230 81.5t83 213.5q0 133 -82 213t-231 80z" />
    <glyph glyph-name="uni0421" unicode="&#x421;" horiz-adv-x="1445" 
d="M1165 451h185q-10 -65 -37 -129t-76.5 -127t-115.5 -111t-160.5 -77.5t-204.5 -29.5q-189 0 -337.5 94.5t-230.5 264t-82 385.5q0 214 80.5 382.5t229.5 264.5t340 96q125 0 230 -37t177.5 -102t119 -149.5t63.5 -182.5h-185q-25 87 -72 151.5t-132.5 107t-200.5 42.5
q-210 0 -336.5 -159t-126.5 -414q0 -252 125.5 -413t335.5 -161q73 0 137 19t109.5 49.5t80.5 71t55 81.5t29 83z" />
    <glyph glyph-name="uni0422" unicode="&#x422;" horiz-adv-x="1275" 
d="M72 1274v168h1132v-168h-475v-1274h-182v1274h-475z" />
    <glyph glyph-name="uni0423" unicode="&#x423;" horiz-adv-x="1325" 
d="M41 1442h205l432 -846l407 846h199l-702 -1442h-201l199 406z" />
    <glyph glyph-name="uni0424" unicode="&#x424;" horiz-adv-x="1689" 
d="M934 1335q135 -2 254 -43.5t209.5 -116t143 -190t52.5 -256.5q0 -140 -52.5 -255t-143 -189.5t-209.5 -116t-254 -43.5v-148h-178v148q-135 2 -254 43.5t-210 116t-143.5 189.5t-52.5 255q0 141 52.5 256.5t143.5 190t210 116t254 43.5v148h178v-148zM756 291v878
q-215 -5 -345 -122.5t-130 -317.5q0 -199 130 -316t345 -122zM934 291q215 5 345 122t130 316q0 200 -130 317.5t-345 122.5v-878z" />
    <glyph glyph-name="uni0425" unicode="&#x425;" horiz-adv-x="1347" 
d="M1073 0l-403 588l-398 -588h-215l500 727l-496 715h215l400 -582l397 582h213l-495 -719l499 -723h-217z" />
    <glyph glyph-name="uni0426" unicode="&#x426;" horiz-adv-x="1540" 
d="M1479 170v-444h-176v274h-1123v1442h182v-1272h758v1272h183v-1272h176z" />
    <glyph glyph-name="uni0427" unicode="&#x427;" horiz-adv-x="1363" 
d="M1001 1442h183v-1442h-183v616q-129 -79 -335 -79q-113 0 -209.5 33t-172 97.5t-118.5 169.5t-43 240v365h182v-363q0 -185 105 -278.5t274 -93.5q186 0 317 88v647z" />
    <glyph glyph-name="uni0428" unicode="&#x428;" horiz-adv-x="2004" 
d="M1094 1442v-1272h548v1272h183v-1442h-1645v1442h182v-1272h549v1272h183z" />
    <glyph glyph-name="uni0429" unicode="&#x429;" horiz-adv-x="2062" 
d="M2001 170v-444h-176v274h-1645v1442h182v-1272h549v1272h183v-1272h548v1272h183v-1272h176z" />
    <glyph glyph-name="uni042A" unicode="&#x42a;" horiz-adv-x="1464" 
d="M891 911q148 0 258.5 -62t165.5 -164t55 -228q0 -124 -56 -227t-166 -166.5t-253 -63.5h-506v1274h-317v168h499v-531h320zM870 745h-299v-579h299q147 0 230.5 80.5t83.5 210.5q0 131 -83 209.5t-231 78.5z" />
    <glyph glyph-name="uni042B" unicode="&#x42b;" horiz-adv-x="1691" 
d="M682 911q148 0 258.5 -62t165.5 -164t55 -228q0 -124 -56 -227t-166 -166.5t-253 -63.5h-506v1442h182v-531h320zM662 745h-300v-579h300q146 0 229.5 80.5t83.5 210.5q0 131 -82.5 209.5t-230.5 78.5zM1511 1442v-1442h-182v1442h182z" />
    <glyph glyph-name="uni042C" unicode="&#x42c;" horiz-adv-x="1255" 
d="M682 911q148 0 258.5 -62t165.5 -164t55 -228q0 -124 -56 -227t-166 -166.5t-253 -63.5h-506v1442h182v-531h320zM662 745h-300v-579h300q146 0 229.5 80.5t83.5 210.5q0 131 -82.5 209.5t-230.5 78.5z" />
    <glyph glyph-name="uni042D" unicode="&#x42d;" horiz-adv-x="1445" 
d="M522 655v164h627q-23 221 -146 348t-311 127q-162 0 -264 -79.5t-143 -200.5h-183q19 91 66 171t119.5 143t177 99.5t227.5 36.5q288 0 467.5 -203t179.5 -540q0 -225 -84 -395t-231 -259.5t-334 -89.5q-92 0 -173.5 20t-142.5 55.5t-110 79.5t-82.5 96t-54.5 102
t-31 100h185q16 -47 45 -92.5t77 -90.5t123 -72.5t166 -27.5q195 0 319.5 138t139.5 370h-629z" />
    <glyph glyph-name="uni042E" unicode="&#x42e;" horiz-adv-x="2002" 
d="M362 0h-182v1442h182v-617h232q20 187 102.5 331t224 226t322.5 82q148 0 271 -56t206.5 -155t129.5 -235.5t46 -296.5q0 -214 -78.5 -382t-228 -265t-346.5 -97q-187 0 -331.5 87.5t-225.5 240t-94 350.5h-230v-655zM1243 147q216 0 341.5 159t125.5 415t-125.5 414.5
t-341.5 158.5t-341.5 -158.5t-125.5 -414.5t125.5 -415t341.5 -159z" />
    <glyph glyph-name="uni042F" unicode="&#x42f;" horiz-adv-x="1302" 
d="M268 0h-215l379 561q-136 47 -215.5 161.5t-79.5 264.5q0 198 130.5 326.5t348.5 128.5h506v-1442h-182v532h-315zM324 987q0 -129 83 -210t234 -81h299v580h-301q-150 0 -232.5 -80.5t-82.5 -208.5z" />
    <glyph glyph-name="uni0430" unicode="&#x430;" horiz-adv-x="1087" 
d="M770 684q0 104 -64.5 159.5t-168.5 55.5q-96 0 -155 -37.5t-83 -99.5h-170q26 127 134.5 210t277.5 83q183 0 293 -99.5t110 -271.5v-684h-166v123q-58 -71 -145 -108.5t-187 -37.5q-154 0 -255 86.5t-101 231.5q0 149 108.5 234t297.5 85h274v70zM469 131q127 0 214 71
t87 187v76h-264q-109 0 -173.5 -43.5t-64.5 -124.5q0 -79 56 -122.5t145 -43.5z" />
    <glyph glyph-name="uni0431" unicode="&#x431;" horiz-adv-x="1208" 
d="M643 1032q100 0 186 -35t150 -100t100.5 -165t36.5 -224q0 -148 -58.5 -268t-171 -191.5t-259.5 -71.5q-239 0 -380 165.5t-141 461.5q0 384 115.5 572.5t378.5 242.5l414 84v-170l-377 -69q-171 -32 -252.5 -129.5t-99.5 -276.5q118 174 358 174zM618 137
q144 0 231 103.5t87 267.5q0 162 -86.5 264t-228.5 102t-235 -95t-93 -263q0 -174 89 -276.5t236 -102.5z" />
    <glyph glyph-name="uni0432" unicode="&#x432;" horiz-adv-x="1052" 
d="M154 0v1032h438q157 0 240 -74.5t83 -191.5q0 -85 -39 -141.5t-96 -79.5q76 -21 128.5 -86t52.5 -166q0 -128 -92 -210.5t-253 -82.5h-462zM596 455h-268v-303h268q93 0 140.5 40.5t47.5 114.5q0 148 -188 148zM575 881h-247v-277h247q80 0 123 37.5t43 103.5t-42.5 101
t-123.5 35z" />
    <glyph glyph-name="uni0433" unicode="&#x433;" horiz-adv-x="909" 
d="M838 874h-508v-874h-176v1032h684v-158z" />
    <glyph glyph-name="uni0434" unicode="&#x434;" horiz-adv-x="1236" 
d="M1176 160v-422h-170v262h-805v-262h-170v422h86q50 29 82 123t43 231l41 518h741v-872h152zM412 510q-8 -90 -14.5 -140.5t-26.5 -112t-52 -97.5h529v714h-408z" />
    <glyph glyph-name="uni0435" unicode="&#x435;" horiz-adv-x="1120" 
d="M1028 463h-752v-4q0 -140 88.5 -232t229.5 -92q97 0 162.5 41.5t81.5 89.5h178q-11 -49 -41 -97t-79.5 -92.5t-129 -72t-174.5 -27.5q-226 0 -363 146t-137 393t135 393t351 146q206 0 328 -136t122 -366v-90zM573 897q-127 0 -205 -78.5t-89 -206.5h571
q-6 134 -79.5 209.5t-197.5 75.5z" />
    <glyph glyph-name="uni0436" unicode="&#x436;" horiz-adv-x="1488" 
d="M829 1032v-448l408 448h213l-440 -483l446 -549h-217l-410 504v-504h-172v504l-409 -504h-215l444 545l-440 487h213l407 -448v448h172z" />
    <glyph glyph-name="uni0437" unicode="&#x437;" horiz-adv-x="1005" 
d="M102 756q17 142 132 220.5t274 78.5q157 0 259.5 -80.5t102.5 -214.5q0 -86 -42.5 -141t-104.5 -80q32 -8 62.5 -24t60.5 -43.5t48.5 -73t18.5 -101.5q0 -145 -115 -232.5t-292 -87.5q-170 0 -287 82.5t-137 235.5h174q19 -77 86.5 -119.5t167.5 -42.5q104 0 165.5 44.5
t61.5 121.5q0 152 -225 152h-162v151h152q93 0 143.5 40t50.5 112q0 68 -52 106.5t-142 38.5q-94 0 -153 -40t-75 -103h-172z" />
    <glyph glyph-name="uni0438" unicode="&#x438;" horiz-adv-x="1181" 
d="M1028 1032v-1032h-174v760l-526 -760h-174v1032h174v-762l526 762h174z" />
    <glyph glyph-name="uni0439" unicode="&#x439;" horiz-adv-x="1181" 
d="M1028 1032v-1032h-174v760l-526 -760h-174v1032h174v-762l526 762h174zM424 1505q0 -77 44 -128.5t124 -51.5t124 51.5t44 128.5h158q-3 -143 -92.5 -231t-233.5 -88t-233.5 88t-92.5 231h158z" />
    <glyph glyph-name="uni043A" unicode="&#x43a;" horiz-adv-x="1036" 
d="M330 0h-176v1032h176v-442l446 442h223l-485 -481l492 -551h-228l-448 498v-498z" />
    <glyph glyph-name="uni043B" unicode="&#x43b;" horiz-adv-x="1159" 
d="M31 -4v160h28q95 0 132.5 53t48.5 190l53 633h713v-1032h-177v874h-378l-41 -487q-17 -210 -94 -300.5t-236 -90.5h-49z" />
    <glyph glyph-name="uni043C" unicode="&#x43c;" horiz-adv-x="1484" 
d="M154 1032h215l374 -823l375 823h213v-1032h-172v750l-342 -750h-147l-344 750v-750h-172v1032z" />
    <glyph glyph-name="uni043D" unicode="&#x43d;" horiz-adv-x="1169" 
d="M330 0h-176v1032h176v-416h510v416h176v-1032h-176v457h-510v-457z" />
    <glyph glyph-name="uni043E" unicode="&#x43e;" horiz-adv-x="1175" 
d="M588 1055q223 0 359 -151t136 -388t-136 -388t-359 -151t-359.5 151t-136.5 388t136.5 388t359.5 151zM588 137q145 0 230 104.5t85 274.5t-85 274.5t-230 104.5t-230.5 -104.5t-85.5 -274.5t85.5 -274.5t230.5 -104.5z" />
    <glyph glyph-name="uni043F" unicode="&#x43f;" horiz-adv-x="1163" 
d="M154 1032h856v-1032h-176v874h-504v-874h-176v1032z" />
    <glyph glyph-name="uni0440" unicode="&#x440;" horiz-adv-x="1218" 
d="M662 1055q89 0 171 -34t148 -99t105.5 -170t39.5 -236q0 -132 -40 -237.5t-107 -170t-150 -98t-174 -33.5q-117 0 -201 43t-124 107v-518h-176v1423h170v-147q41 72 127.5 121t210.5 49zM639 137q138 0 222.5 105t84.5 274t-84.5 274t-222.5 105q-143 0 -229 -102
t-86 -273v-8q0 -171 86 -273t229 -102z" />
    <glyph glyph-name="uni0441" unicode="&#x441;" horiz-adv-x="1103" 
d="M582 137q61 0 109.5 18t79 48.5t48 62.5t27.5 68h176q-18 -146 -138.5 -251.5t-303.5 -105.5q-218 0 -353 150.5t-135 388.5q0 235 134 387t354 152q98 0 180 -31.5t134.5 -84t84.5 -113t43 -124.5h-176q-25 79 -90 136t-176 57q-140 0 -224 -105t-84 -274t85.5 -274
t224.5 -105z" />
    <glyph glyph-name="uni0442" unicode="&#x442;" horiz-adv-x="1001" 
d="M66 874v158h870v-158h-348v-874h-176v874h-346z" />
    <glyph glyph-name="uni0443" unicode="&#x443;" horiz-adv-x="1062" 
d="M842 1032h190l-565 -1423h-191l160 403l-405 1020h190l311 -805z" />
    <glyph glyph-name="uni0444" unicode="&#x444;" horiz-adv-x="1425" 
d="M799 1053q153 -5 274 -72t190.5 -188.5t69.5 -276.5q0 -234 -150 -381t-384 -155v-371h-172v371q-234 8 -384.5 155t-150.5 381t150.5 381.5t384.5 155.5v389h172v-389zM627 139v754q-153 -3 -255 -104t-102 -273t102 -273t255 -104zM1155 516q0 172 -101.5 273
t-254.5 104v-754q153 3 254.5 104t101.5 273z" />
    <glyph glyph-name="uni0445" unicode="&#x445;" horiz-adv-x="1058" 
d="M801 0l-277 391l-270 -391h-203l367 516l-363 516h207l273 -395l266 395h203l-363 -522l367 -510h-207z" />
    <glyph glyph-name="uni0446" unicode="&#x446;" horiz-adv-x="1216" 
d="M1155 160v-422h-170v262h-831v1032h176v-872h497v872h177v-872h151z" />
    <glyph glyph-name="uni0447" unicode="&#x447;" horiz-adv-x="1081" 
d="M752 1032h176v-1032h-176v418q-90 -51 -228 -51q-188 0 -299.5 105.5t-111.5 309.5v250h176v-246q0 -130 66.5 -195t189.5 -65q124 0 207 54v452z" />
    <glyph glyph-name="uni0448" unicode="&#x448;" horiz-adv-x="1630" 
d="M903 1032v-872h397v872h177v-1032h-1323v1032h176v-872h397v872h176z" />
    <glyph glyph-name="uni0449" unicode="&#x449;" horiz-adv-x="1689" 
d="M1628 160v-422h-170v262h-1304v1032h176v-872h397v872h176v-872h397v872h177v-872h151z" />
    <glyph glyph-name="uni044A" unicode="&#x44a;" horiz-adv-x="1200" 
d="M524 1032v-334h232q163 0 262.5 -97t99.5 -249q0 -153 -100.5 -252.5t-263.5 -99.5h-406v874h-282v158h458zM733 543h-209v-387h209q98 0 153.5 55t55.5 141t-55 138.5t-154 52.5z" />
    <glyph glyph-name="uni044B" unicode="&#x44b;" horiz-adv-x="1402" 
d="M330 1032v-334h231q163 0 263 -97t100 -249q0 -153 -100.5 -252.5t-264.5 -99.5h-405v1032h176zM1249 1032v-1032h-176v1032h176zM539 543h-209v-387h209q98 0 153.5 55t55.5 141t-55 138.5t-154 52.5z" />
    <glyph glyph-name="uni044C" unicode="&#x44c;" horiz-adv-x="1005" 
d="M330 1032v-334h231q163 0 263 -97t100 -249q0 -153 -100.5 -252.5t-264.5 -99.5h-405v1032h176zM539 543h-209v-387h209q98 0 153.5 55t55.5 141t-55 138.5t-154 52.5z" />
    <glyph glyph-name="uni044D" unicode="&#x44d;" horiz-adv-x="1101" 
d="M373 608h452q-19 137 -98 213t-201 76q-115 0 -179 -52t-85 -122h-174q10 62 40.5 119t82.5 106t133.5 78t181.5 29q219 0 351.5 -148t132.5 -391q0 -242 -134 -390.5t-352 -148.5q-189 0 -307.5 100t-134.5 245h170q8 -34 25.5 -64t48 -59t81 -46.5t115.5 -17.5
q129 0 212 86.5t95 235.5h-456v151z" />
    <glyph glyph-name="uni044E" unicode="&#x44e;" horiz-adv-x="1587" 
d="M330 0h-176v1032h176v-416h196q30 197 160.5 318t321.5 121q220 0 353.5 -150.5t133.5 -388.5t-133.5 -388.5t-353.5 -150.5q-201 0 -335 133.5t-151 346.5h-192v-457zM1008 137q141 0 224 104.5t83 274.5t-83 274.5t-224 104.5t-224.5 -104.5t-83.5 -274.5t83.5 -274.5
t224.5 -104.5z" />
    <glyph glyph-name="uni044F" unicode="&#x44f;" horiz-adv-x="1036" 
d="M883 0h-176v350h-185l-266 -350h-205l283 371q-105 36 -165 123t-60 198q0 146 97.5 243t266.5 97h410v-1032zM285 692q0 -84 56 -136t153 -52h213v375h-213q-97 0 -153 -52t-56 -135z" />
    <glyph glyph-name="uni0450" unicode="&#x450;" horiz-adv-x="1120" 
d="M1028 463h-752v-4q0 -140 88.5 -232t229.5 -92q97 0 162.5 41.5t81.5 89.5h178q-11 -49 -41 -97t-79.5 -92.5t-129 -72t-174.5 -27.5q-226 0 -363 146t-137 393t135 393t351 146q206 0 328 -136t122 -366v-90zM573 897q-127 0 -205 -78.5t-89 -206.5h571
q-6 134 -79.5 209.5t-197.5 75.5zM276 1505h191l195 -315h-179z" />
    <glyph glyph-name="uni0451" unicode="&#x451;" horiz-adv-x="1120" 
d="M1028 463h-752v-4q0 -140 88.5 -232t229.5 -92q97 0 162.5 41.5t81.5 89.5h178q-11 -49 -41 -97t-79.5 -92.5t-129 -72t-174.5 -27.5q-226 0 -363 146t-137 393t135 393t351 146q206 0 328 -136t122 -366v-90zM573 897q-127 0 -205 -78.5t-89 -206.5h571
q-6 134 -79.5 209.5t-197.5 75.5zM367 1464q51 0 85.5 -33.5t34.5 -84.5t-34.5 -85t-85.5 -34t-86 34t-35 85t35 84.5t86 33.5zM788 1464q51 0 86 -33.5t35 -84.5t-35 -85t-86 -34t-85.5 34t-34.5 85t34.5 84.5t85.5 33.5z" />
    <glyph glyph-name="uni0452" unicode="&#x452;" horiz-adv-x="1171" 
d="M643 1055q78 0 145.5 -24t122 -71.5t86 -127.5t31.5 -183v-710q0 -330 -287 -330h-73v158h45q62 0 100.5 38.5t38.5 141.5v678q0 135 -66 202.5t-176 67.5q-52 0 -99 -16.5t-87.5 -49t-64 -90t-23.5 -131.5v-608h-176v1214h-150v142h150v133h176v-133h280v-142h-280v-294
q43 56 123 95.5t184 39.5z" />
    <glyph glyph-name="uni0453" unicode="&#x453;" horiz-adv-x="909" 
d="M838 874h-508v-874h-176v1032h684v-158zM815 1505l-207 -315h-178l195 315h190z" />
    <glyph glyph-name="uni0454" unicode="&#x454;" horiz-adv-x="1101" 
d="M729 608v-151h-457q12 -149 94.5 -235.5t213.5 -86.5q65 0 115 17.5t80.5 47t47.5 59t27 63.5h170q-16 -145 -134.5 -245t-307.5 -100q-218 0 -352 148.5t-134 390.5q0 243 133 391t353 148q100 0 182.5 -29t135 -78t84 -106t40.5 -119h-176q-10 32 -28.5 60t-49 55
t-79 43t-109.5 16q-123 0 -203.5 -76t-100.5 -213h455z" />
    <glyph glyph-name="uni0455" unicode="&#x455;" horiz-adv-x="1015" 
d="M266 289q17 -73 85 -114.5t173 -41.5t165.5 40.5t60.5 115.5q0 58 -42 94t-116 45l-184 25q-293 41 -293 280q0 137 110 229.5t277 92.5q163 0 270.5 -77.5t132.5 -217.5h-172q-49 139 -231 139q-97 0 -154 -43.5t-57 -110.5q0 -111 147 -129l187 -24q137 -19 219 -89.5
t82 -203.5q0 -151 -113 -236.5t-285 -85.5q-78 0 -148.5 17t-133 52t-103.5 97.5t-51 145.5h174z" />
    <glyph glyph-name="uni0456" unicode="&#x456;" horiz-adv-x="483" 
d="M330 1032v-1032h-176v1032h176zM242 1464q51 0 85.5 -33.5t34.5 -84.5t-34.5 -85t-85.5 -34t-86 34t-35 85t35 84.5t86 33.5z" />
    <glyph glyph-name="uni0457" unicode="&#x457;" horiz-adv-x="483" 
d="M330 1032v-1032h-176v1032h176zM90 1456q44 0 77.5 -33t33.5 -77t-33.5 -77.5t-77.5 -33.5q-48 0 -80.5 33t-32.5 78t32 77.5t81 32.5zM393 1456q49 0 81 -32.5t32 -77.5t-32.5 -78t-80.5 -33q-44 0 -77 33.5t-33 77.5t33 77t77 33z" />
    <glyph glyph-name="uni0458" unicode="&#x458;" horiz-adv-x="483" 
d="M-31 -391v158h45q62 0 101 38.5t39 141.5v1085h176v-1093q0 -330 -287 -330h-74zM242 1464q51 0 85.5 -33.5t34.5 -84.5t-34.5 -85t-85.5 -34t-86 34t-35 85t35 84.5t86 33.5z" />
    <glyph glyph-name="uni0459" unicode="&#x459;" horiz-adv-x="1681" 
d="M1237 698q163 0 262.5 -97t99.5 -249q0 -153 -100.5 -252.5t-263.5 -99.5h-406v874h-378l-41 -487q-17 -210 -94 -300.5t-236 -90.5h-49v160h28q95 0 132.5 53t48.5 190l53 633h713v-334h231zM1214 543h-208v-387h208q98 0 153.5 55t55.5 141t-55 138.5t-154 52.5z" />
    <glyph glyph-name="uni045A" unicode="&#x45a;" horiz-adv-x="1679" 
d="M330 0h-176v1032h176v-385h504v385h176v-379h241q160 0 253 -92.5t93 -234.5t-94.5 -234t-253.5 -92h-415v492h-504v-492zM1229 500h-219v-346h219q94 0 143 49.5t49 124.5t-49 123.5t-143 48.5z" />
    <glyph glyph-name="uni045B" unicode="&#x45b;" horiz-adv-x="1171" 
d="M10 1356h150v133h176v-133h280v-139h-280v-297q43 56 123 95.5t184 39.5q78 0 145.5 -24t122 -71.5t86 -127.5t31.5 -183v-649h-176v625q0 135 -66 202.5t-176 67.5q-52 0 -99 -16.5t-87.5 -49t-64 -90t-23.5 -131.5v-608h-176v1217h-150v139z" />
    <glyph glyph-name="uni045C" unicode="&#x45c;" horiz-adv-x="1036" 
d="M330 0h-176v1032h176v-442l446 442h223l-485 -481l492 -551h-228l-448 498v-498zM844 1505l-207 -315h-178l194 315h191z" />
    <glyph glyph-name="uni045D" unicode="&#x45d;" horiz-adv-x="1181" 
d="M1028 1032v-1032h-174v760l-526 -760h-174v1032h174v-762l526 762h174zM291 1505h190l195 -315h-178z" />
    <glyph glyph-name="uni045E" unicode="&#x45e;" horiz-adv-x="1062" 
d="M842 1032h190l-565 -1423h-191l160 403l-405 1020h190l311 -805zM362 1505q0 -77 44 -128.5t124 -51.5t124 51.5t44 128.5h158q-3 -143 -92.5 -231t-233.5 -88t-233 88t-92 231h157z" />
    <glyph glyph-name="uni045F" unicode="&#x45f;" horiz-adv-x="1165" 
d="M154 0v1032h176v-872h506v872h176v-1032h-344v-301h-170v301h-344z" />
    <glyph glyph-name="uni0462" unicode="&#x462;" horiz-adv-x="1511" 
d="M72 1081v162h364v221h180v-221h422v-162h-422v-213h336q214 0 338.5 -119t124.5 -313q0 -192 -125.5 -314t-333.5 -122h-520v1081h-364zM930 705h-314v-541h314q138 0 218.5 73t80.5 199t-80.5 197.5t-218.5 71.5z" />
    <glyph glyph-name="uni0463" unicode="&#x463;" horiz-adv-x="1236" 
d="M66 879v153h327v410h174v-410h369v-153h-369v-222h242q160 0 253 -93.5t93 -235.5t-94.5 -235t-253.5 -93h-414v879h-327zM786 504h-219v-350h219q93 0 143 50.5t50 125.5t-49.5 124.5t-143.5 49.5z" />
    <glyph glyph-name="uni0472" unicode="&#x472;" horiz-adv-x="1540" 
d="M770 1464q198 0 350 -96.5t233 -265t81 -381.5q0 -159 -47.5 -296.5t-133 -236.5t-210.5 -155t-273 -56t-273 56t-210.5 155t-133 236.5t-47.5 296.5q0 213 81 381.5t233 265t350 96.5zM770 147q208 0 336.5 145t140.5 382q-94 -70 -233 -70q-74 0 -145 17.5t-118.5 38
t-109 38t-117.5 17.5q-125 0 -231 -60q18 -229 145.5 -368.5t331.5 -139.5zM770 1294q-198 0 -324.5 -132t-150.5 -351q94 70 233 70q73 0 144 -17.5t118.5 -38t109 -38t116.5 -17.5q126 0 227 55q-27 212 -153 340.5t-320 128.5z" />
    <glyph glyph-name="uni0473" unicode="&#x473;" horiz-adv-x="1175" 
d="M588 1055q223 0 359 -151t136 -388t-136 -388t-359 -151t-359.5 151t-136.5 388t136.5 388t359.5 151zM588 137q132 0 216.5 89.5t96.5 238.5q-62 -45 -151 -45q-76 0 -174.5 37t-151.5 37q-74 0 -150 -37q15 -147 98.5 -233.5t215.5 -86.5zM588 895q-126 0 -207 -79.5
t-102 -215.5q58 45 147 45q61 0 119 -18.5t109.5 -37t97.5 -18.5q79 0 143 33q-21 134 -102 212.5t-205 78.5z" />
    <glyph glyph-name="uni0474" unicode="&#x474;" horiz-adv-x="1495" 
d="M1395 1446h53v-168h-31q-31 0 -56.5 -3.5t-47.5 -15t-38 -21.5t-32.5 -33.5t-27.5 -40t-26 -53t-24.5 -60.5t-27.5 -72l-367 -979h-188l-541 1442h197l438 -1202l289 792q20 54 34 89.5t33.5 79t38 72t43 59t52.5 49t62 35t76 23.5t91 7z" />
    <glyph glyph-name="uni0475" unicode="&#x475;" horiz-adv-x="1150" 
d="M1067 1036h53v-157h-37q-71 0 -115.5 -46t-84.5 -149l-267 -684h-182l-403 1032h190l303 -811l195 518q31 82 58.5 133t67.5 90.5t93.5 56.5t128.5 17z" />
    <glyph glyph-name="uni0490" unicode="&#x490;" horiz-adv-x="1150" 
d="M1073 1712v-438h-711v-1274h-182v1442h719v270h174z" />
    <glyph glyph-name="uni0491" unicode="&#x491;" horiz-adv-x="909" 
d="M838 1290v-416h-508v-874h-176v1032h516v258h168z" />
    <glyph glyph-name="uni0492" unicode="&#x492;" horiz-adv-x="1185" 
d="M915 604h-518v-604h-182v604h-166v164h166v674h893v-168h-711v-506h518v-164z" />
    <glyph glyph-name="uni0493" unicode="&#x493;" horiz-adv-x="935" 
d="M31 569h149v463h684v-158h-508v-305h353v-145h-353v-424h-176v424h-149v145z" />
    <glyph glyph-name="uni0496" unicode="&#x496;" horiz-adv-x="1974" 
d="M1913 170v-444h-176v274h-88l-602 705v-705h-183v705l-602 -705h-227l637 750l-623 692h227l588 -649v649h183v-649l587 649h228l-623 -688l494 -584h180z" />
    <glyph glyph-name="uni0497" unicode="&#x497;" horiz-adv-x="1531" 
d="M1470 160v-422h-170v262h-61l-410 504v-504h-172v504l-409 -504h-215l444 545l-440 487h213l407 -448v448h172v-448l408 448h213l-440 -483l315 -389h145z" />
    <glyph glyph-name="uni0498" unicode="&#x498;" horiz-adv-x="1228" 
d="M102 1073q15 127 90 217.5t181 132t231 41.5q213 0 343 -111.5t130 -287.5q0 -115 -60.5 -197.5t-144.5 -113.5q39 -10 80 -33.5t83 -63.5t68.5 -104.5t26.5 -142.5q0 -167 -114 -285t-303 -141v-312h-176v310q-190 21 -309.5 125t-139.5 274h182q23 -104 114 -169
t241 -65q147 0 233 71.5t86 193.5q0 124 -86.5 184.5t-232.5 60.5h-219v166h206q137 0 208 65.5t71 170.5q0 108 -78.5 171.5t-208.5 63.5t-214.5 -58t-106.5 -163h-181z" />
    <glyph glyph-name="uni0499" unicode="&#x499;" horiz-adv-x="1005" 
d="M102 756q17 142 132 220.5t274 78.5q157 0 259.5 -80.5t102.5 -214.5q0 -86 -42.5 -141t-104.5 -80q32 -8 62.5 -24t60.5 -43.5t48.5 -73t18.5 -101.5q0 -126 -88 -209t-231 -104v-299h-170v299q-140 18 -232.5 97.5t-109.5 213.5h174q19 -77 86.5 -119.5t167.5 -42.5
q104 0 165.5 44.5t61.5 121.5q0 152 -225 152h-162v151h152q93 0 143.5 40t50.5 112q0 68 -52 106.5t-142 38.5q-94 0 -153 -40t-75 -103h-172z" />
    <glyph glyph-name="uni049A" unicode="&#x49a;" horiz-adv-x="1335" 
d="M1274 170v-444h-176v274h-88l-648 688v-688h-182v1442h182v-643l642 643h235l-684 -690l539 -582h180z" />
    <glyph glyph-name="uni049B" unicode="&#x49b;" horiz-adv-x="1071" 
d="M1010 160v-422h-170v262h-62l-448 498v-498h-176v1032h176v-442l446 442h223l-485 -481l348 -391h148z" />
    <glyph glyph-name="uni049C" unicode="&#x49c;" horiz-adv-x="1452" 
d="M362 0h-182v1442h182v-619h177v353h159v-342l463 608h221l-532 -690l545 -752h-228l-469 651v-344h-159v350h-177v-657z" />
    <glyph glyph-name="uni049D" unicode="&#x49d;" horiz-adv-x="1191" 
d="M328 0h-174v1032h174v-418h141v254h145v-239l332 403h209l-403 -481l409 -551h-213l-334 455v-250h-145v254h-141v-459z" />
    <glyph glyph-name="uni04A0" unicode="&#x4a0;" horiz-adv-x="1490" 
d="M571 1442v-643l641 643h236l-684 -690l696 -752h-241l-648 688v-688h-182v1274h-317v168h499z" />
    <glyph glyph-name="uni04A1" unicode="&#x4a1;" horiz-adv-x="1230" 
d="M348 0v872h-282v160h458v-442l447 442h223l-485 -481l491 -551h-227l-449 498v-498h-176z" />
    <glyph glyph-name="uni04A2" unicode="&#x4a2;" horiz-adv-x="1552" 
d="M1491 170v-444h-176v274h-182v655h-771v-655h-182v1442h182v-617h771v617h182v-1272h176z" />
    <glyph glyph-name="uni04A3" unicode="&#x4a3;" horiz-adv-x="1228" 
d="M1167 160v-422h-170v262h-157v457h-510v-457h-176v1032h176v-416h510v416h176v-872h151z" />
    <glyph glyph-name="uni04A4" unicode="&#x4a4;" horiz-adv-x="2103" 
d="M362 0h-182v1442h182v-617h771v617h892v-168h-710v-1274h-182v655h-771v-655z" />
    <glyph glyph-name="uni04A5" unicode="&#x4a5;" horiz-adv-x="1595" 
d="M330 0h-176v1032h176v-416h510v416h684v-158h-508v-874h-176v457h-510v-457z" />
    <glyph glyph-name="uni04AA" unicode="&#x4aa;" horiz-adv-x="1445" 
d="M1165 451h185q-11 -75 -47 -148.5t-96 -141.5t-154.5 -116t-208.5 -61v-312h-176v312q-167 21 -294.5 119.5t-197.5 259t-70 358.5q0 214 80.5 382.5t229.5 264.5t340 96q125 0 230 -37t177.5 -102t119 -149.5t63.5 -182.5h-185q-25 87 -72 151.5t-132.5 107t-200.5 42.5
q-210 0 -336.5 -159t-126.5 -414q0 -252 125.5 -413t335.5 -161q73 0 137 19t109.5 49.5t80.5 71t55 81.5t29 83z" />
    <glyph glyph-name="uni04AB" unicode="&#x4ab;" horiz-adv-x="1103" 
d="M582 137q61 0 109.5 18t79 48.5t48 62.5t27.5 68h176q-16 -127 -111 -225.5t-243 -122.5v-301h-170v299q-186 28 -296 173t-110 359q0 235 134 387t354 152q98 0 180 -31.5t134.5 -84t84.5 -113t43 -124.5h-176q-25 79 -90 136t-176 57q-140 0 -224 -105t-84 -274
t85.5 -274t224.5 -105z" />
    <glyph glyph-name="uni04AC" unicode="&#x4ac;" horiz-adv-x="1275" 
d="M905 170v-444h-176v274h-182v1274h-475v168h1132v-168h-475v-1104h176z" />
    <glyph glyph-name="uni04AD" unicode="&#x4ad;" horiz-adv-x="1001" 
d="M739 160v-422h-170v262h-157v874h-346v158h870v-158h-348v-714h151z" />
    <glyph glyph-name="uni04AE" unicode="&#x4ae;" horiz-adv-x="1304" 
d="M743 0h-182v565l-530 877h207l413 -692l416 692h207l-531 -877v-565z" />
    <glyph glyph-name="uni04AF" unicode="&#x4af;" horiz-adv-x="1062" 
d="M1032 1032l-414 -1036v-387h-176v391l-411 1032h190l309 -807l312 807h190z" />
    <glyph glyph-name="uni04B0" unicode="&#x4b0;" horiz-adv-x="1300" 
d="M1120 545h-379v-545h-182v545h-379v160h297l-446 737h205l413 -699l416 699h205l-447 -737h297v-160z" />
    <glyph glyph-name="uni04B1" unicode="&#x4b1;" horiz-adv-x="1062" 
d="M207 10h231l-407 1022h190l309 -807l312 807h190l-407 -1022h231v-145h-238v-256h-176v256h-235v145z" />
    <glyph glyph-name="uni04B2" unicode="&#x4b2;" horiz-adv-x="1398" 
d="M1337 170v-444h-176v274h-88l-403 588l-398 -588h-215l500 727l-496 715h215l400 -582l397 582h213l-495 -719l380 -553h166z" />
    <glyph glyph-name="uni04B3" unicode="&#x4b3;" horiz-adv-x="1093" 
d="M1032 160v-422h-170v262h-61l-277 391l-270 -391h-203l367 516l-363 516h207l273 -395l266 395h203l-363 -522l252 -350h139z" />
    <glyph glyph-name="uni04B4" unicode="&#x4b4;" horiz-adv-x="1878" 
d="M72 1274v168h1071v-168h-455v-1104h770v1272h182v-1272h177v-444h-177v274h-1134v1274h-434z" />
    <glyph glyph-name="uni04B5" unicode="&#x4b5;" horiz-adv-x="1466" 
d="M66 874v158h827v-158h-326v-714h510v872h176v-872h152v-422h-170v262h-844v874h-325z" />
    <glyph glyph-name="uni04B6" unicode="&#x4b6;" horiz-adv-x="1421" 
d="M1360 170v-444h-176v274h-183v616q-129 -79 -335 -79q-113 0 -209.5 33t-172 97.5t-118.5 169.5t-43 240v365h182v-363q0 -185 105 -278.5t274 -93.5q186 0 317 88v647h183v-1272h176z" />
    <glyph glyph-name="uni04B7" unicode="&#x4b7;" horiz-adv-x="1140" 
d="M1079 160v-422h-170v262h-157v418q-90 -51 -228 -51q-188 0 -299.5 105.5t-111.5 309.5v250h176v-246q0 -130 66.5 -195t189.5 -65q124 0 207 54v452h176v-872h151z" />
    <glyph glyph-name="uni04B8" unicode="&#x4b8;" horiz-adv-x="1368" 
d="M735 211h-160v332q-97 13 -178 51.5t-143 103t-96.5 161.5t-34.5 218v365h182v-363q0 -154 72 -244t198 -118v362h160v-370q161 11 271 86v647h182v-1442h-182v618q-107 -68 -271 -79v-328z" />
    <glyph glyph-name="uni04B9" unicode="&#x4b9;" horiz-adv-x="1093" 
d="M608 135h-145v236q-163 18 -256.5 122t-93.5 289v250h176v-246q0 -209 174 -251v264h145v-271q88 11 156 52v452h176v-1032h-176v418q-63 -35 -156 -47v-236z" />
    <glyph glyph-name="uni04BA" unicode="&#x4ba;" horiz-adv-x="1380" 
d="M362 0h-182v1442h182v-576q129 82 336 82q113 0 209.5 -33t172 -97.5t118.5 -169.5t43 -240v-408h-182v406q0 185 -105 278.5t-274 93.5q-187 0 -318 -90v-688z" />
    <glyph glyph-name="uni04BB" unicode="&#x4bb;" horiz-adv-x="1165" 
d="M637 1055q78 0 145.5 -24t122 -71.5t86 -127.5t31.5 -183v-649h-176v625q0 135 -66 202.5t-176 67.5q-52 0 -99 -16.5t-87.5 -49t-64 -90t-23.5 -131.5v-608h-176v1489h176v-569q43 56 123 95.5t184 39.5z" />
    <glyph glyph-name="uni04C0" unicode="&#x4c0;" horiz-adv-x="542" 
d="M362 1442v-1442h-182v1442h182z" />
    <glyph glyph-name="uni04C1" unicode="&#x4c1;" horiz-adv-x="1910" 
d="M864 0v705l-602 -705h-227l637 750l-623 692h227l588 -649v649h183v-649l587 649h228l-623 -688l637 -754h-227l-602 705v-705h-183zM780 1898q0 -76 47.5 -128t128.5 -52t129 52t48 128h157q-3 -142 -96 -230.5t-238 -88.5t-237.5 88.5t-95.5 230.5h157z" />
    <glyph glyph-name="uni04C2" unicode="&#x4c2;" horiz-adv-x="1488" 
d="M829 1032v-448l408 448h213l-440 -483l446 -549h-217l-410 504v-504h-172v504l-409 -504h-215l444 545l-440 487h213l407 -448v448h172zM575 1505q0 -77 44 -128.5t124 -51.5t124 51.5t44 128.5h158q-3 -143 -92.5 -231t-233.5 -88t-233 88t-92 231h157z" />
    <glyph glyph-name="uni04CF" unicode="&#x4cf;" horiz-adv-x="483" 
d="M330 1489v-1489h-176v1489h176z" />
    <glyph glyph-name="uni04D0" unicode="&#x4d0;" horiz-adv-x="1359" 
d="M586 1442h188l545 -1442h-197l-141 381h-606l-137 -381h-197zM678 1210l-242 -661h484zM508 1898q0 -76 47.5 -128t128.5 -52t128.5 52t47.5 128h158q-3 -142 -96 -230.5t-238 -88.5t-238 88.5t-96 230.5h158z" />
    <glyph glyph-name="uni04D1" unicode="&#x4d1;" horiz-adv-x="1087" 
d="M770 684q0 104 -64.5 159.5t-168.5 55.5q-96 0 -155 -37.5t-83 -99.5h-170q26 127 134.5 210t277.5 83q183 0 293 -99.5t110 -271.5v-684h-166v123q-58 -71 -145 -108.5t-187 -37.5q-154 0 -255 86.5t-101 231.5q0 149 108.5 234t297.5 85h274v70zM469 131q127 0 214 71
t87 187v76h-264q-109 0 -173.5 -43.5t-64.5 -124.5q0 -79 56 -122.5t145 -43.5zM377 1505q0 -77 44 -128.5t124 -51.5t124 51.5t44 128.5h157q-3 -143 -92 -231t-233 -88t-233.5 88t-92.5 231h158z" />
    <glyph glyph-name="uni04D2" unicode="&#x4d2;" horiz-adv-x="1359" 
d="M586 1442h188l545 -1442h-197l-141 381h-606l-137 -381h-197zM678 1210l-242 -661h484zM465 1858q51 0 86 -34t35 -85t-35 -85t-86 -34t-86 34t-35 85t35 85t86 34zM903 1858q51 0 86 -34t35 -85t-35 -85t-86 -34t-86 34t-35 85t35 85t86 34z" />
    <glyph glyph-name="uni04D3" unicode="&#x4d3;" horiz-adv-x="1087" 
d="M770 684q0 104 -64.5 159.5t-168.5 55.5q-96 0 -155 -37.5t-83 -99.5h-170q26 127 134.5 210t277.5 83q183 0 293 -99.5t110 -271.5v-684h-166v123q-58 -71 -145 -108.5t-187 -37.5q-154 0 -255 86.5t-101 231.5q0 149 108.5 234t297.5 85h274v70zM469 131q127 0 214 71
t87 187v76h-264q-109 0 -173.5 -43.5t-64.5 -124.5q0 -79 56 -122.5t145 -43.5zM334 1464q51 0 86 -33.5t35 -84.5t-35 -85t-86 -34t-86 34t-35 85t35 84.5t86 33.5zM756 1464q51 0 86 -33.5t35 -84.5t-35 -85t-86 -34t-86 34t-35 85t35 84.5t86 33.5z" />
    <glyph glyph-name="uni04D4" unicode="&#x4d4;" horiz-adv-x="2033" 
d="M897 1442h1014v-168h-727v-451h688v-166h-688v-489h727v-168h-907v383h-549l-232 -383h-203zM555 549h449v741z" />
    <glyph glyph-name="uni04D5" unicode="&#x4d5;" horiz-adv-x="1787" 
d="M537 1055q121 0 209.5 -47t134.5 -134q62 87 156 134t210 47q204 0 326.5 -136t122.5 -366v-90h-752v-4q0 -140 88.5 -232t229.5 -92q97 0 162 41.5t81 89.5h178q-11 -49 -41 -97t-79 -92.5t-127.5 -72t-173.5 -27.5q-134 0 -238 54.5t-166 156.5q-60 -97 -165 -154
t-238 -57q-159 0 -262 86.5t-103 231.5q0 149 108.5 234t297.5 85h274v70q0 104 -64.5 159.5t-168.5 55.5q-96 0 -155 -37.5t-83 -99.5h-170q26 127 133.5 210t274.5 83zM477 131q124 0 208.5 73t84.5 185v76h-264q-109 0 -173.5 -43t-64.5 -125q0 -79 57.5 -122.5
t151.5 -43.5zM1241 897q-127 0 -205.5 -78.5t-89.5 -206.5h572q-6 134 -79.5 209.5t-197.5 75.5z" />
    <glyph glyph-name="uni04D6" unicode="&#x4d6;" horiz-adv-x="1216" 
d="M1094 1274h-732v-451h693v-166h-693v-489h732v-168h-914v1442h914v-168zM467 1898q0 -76 47.5 -128t128.5 -52t128.5 52t47.5 128h158q-3 -142 -96 -230.5t-238 -88.5t-238 88.5t-96 230.5h158z" />
    <glyph glyph-name="uni04D7" unicode="&#x4d7;" horiz-adv-x="1120" 
d="M1028 463h-752v-4q0 -140 88.5 -232t229.5 -92q97 0 162.5 41.5t81.5 89.5h178q-11 -49 -41 -97t-79.5 -92.5t-129 -72t-174.5 -27.5q-226 0 -363 146t-137 393t135 393t351 146q206 0 328 -136t122 -366v-90zM573 897q-127 0 -205 -78.5t-89 -206.5h571
q-6 134 -79.5 209.5t-197.5 75.5zM410 1505q0 -77 44 -128.5t124 -51.5t123.5 51t43.5 129h158q-3 -143 -92 -231t-233 -88t-233.5 88t-92.5 231h158z" />
    <glyph glyph-name="uni04D8" unicode="&#x4d8;" horiz-adv-x="1460" 
d="M106 680v108h1059q-6 229 -134 368.5t-324 139.5q-145 0 -240.5 -58.5t-153.5 -170.5h-188q56 177 208.5 287t373.5 110q296 0 471.5 -202t175.5 -541q0 -336 -169.5 -540t-453.5 -204q-189 0 -332 91t-218 250t-75 362zM727 145q194 0 309.5 131.5t126.5 348.5h-874
q7 -215 128.5 -347.5t309.5 -132.5z" />
    <glyph glyph-name="uni04D9" unicode="&#x4d9;" horiz-adv-x="1120" 
d="M92 481v97h752q0 141 -84 230t-228 89q-98 0 -162.5 -41t-80.5 -88h-178q11 49 41 96.5t79.5 91.5t129 71.5t174.5 27.5q227 0 360 -145t133 -394q0 -248 -131 -393.5t-346 -145.5q-207 0 -333 137t-126 367zM555 135q128 0 203 79.5t84 213.5h-572q3 -137 80.5 -215
t204.5 -78z" />
    <glyph glyph-name="uni04DA" unicode="&#x4da;" horiz-adv-x="1460" 
d="M106 680v108h1059q-6 229 -134 368.5t-324 139.5q-145 0 -240.5 -58.5t-153.5 -170.5h-188q56 177 208.5 287t373.5 110q296 0 471.5 -202t175.5 -541q0 -336 -169.5 -540t-453.5 -204q-189 0 -332 91t-218 250t-75 362zM727 145q194 0 309.5 131.5t126.5 348.5h-874
q7 -215 128.5 -347.5t309.5 -132.5zM510 1858q51 0 86 -34t35 -85t-35 -85t-86 -34t-86 34t-35 85t35 85t86 34zM948 1858q51 0 86 -34t35 -85t-35 -85t-86 -34t-86 34t-35 85t35 85t86 34z" />
    <glyph glyph-name="uni04DB" unicode="&#x4db;" horiz-adv-x="1120" 
d="M92 481v97h752q0 141 -84 230t-228 89q-98 0 -162.5 -41t-80.5 -88h-178q11 49 41 96.5t79.5 91.5t129 71.5t174.5 27.5q227 0 360 -145t133 -394q0 -248 -131 -393.5t-346 -145.5q-207 0 -333 137t-126 367zM555 135q128 0 203 79.5t84 213.5h-572q3 -137 80.5 -215
t204.5 -78zM344 1464q51 0 86 -33.5t35 -84.5t-35 -85t-86 -34t-86 34t-35 85t35 84.5t86 33.5zM766 1464q51 0 86 -33.5t35 -84.5t-35 -85t-86 -34t-86 34t-35 85t35 84.5t86 33.5z" />
    <glyph glyph-name="uni04DC" unicode="&#x4dc;" horiz-adv-x="1910" 
d="M864 0v705l-602 -705h-227l637 750l-623 692h227l588 -649v649h183v-649l587 649h228l-623 -688l637 -754h-227l-602 705v-705h-183zM737 1858q51 0 86 -34t35 -85t-35 -85t-86 -34t-86 34t-35 85t35 85t86 34zM1176 1858q51 0 85.5 -34t34.5 -85t-34.5 -85t-85.5 -34
t-86 34t-35 85t35 85t86 34z" />
    <glyph glyph-name="uni04DD" unicode="&#x4dd;" horiz-adv-x="1488" 
d="M829 1032v-448l408 448h213l-440 -483l446 -549h-217l-410 504v-504h-172v504l-409 -504h-215l444 545l-440 487h213l407 -448v448h172zM532 1464q51 0 86 -33.5t35 -84.5t-35 -85t-86 -34t-85.5 34t-34.5 85t34.5 84.5t85.5 33.5zM954 1464q51 0 86 -33.5t35 -84.5
t-35 -85t-86 -34t-85.5 34t-34.5 85t34.5 84.5t85.5 33.5z" />
    <glyph glyph-name="uni04DE" unicode="&#x4de;" horiz-adv-x="1228" 
d="M102 1073q15 127 90 217.5t181 132t231 41.5q213 0 343 -111.5t130 -287.5q0 -115 -60.5 -197.5t-144.5 -113.5q39 -10 80 -33.5t83 -63.5t68.5 -104.5t26.5 -142.5q0 -187 -139.5 -310t-365.5 -123q-225 0 -369.5 107.5t-167.5 296.5h182q23 -104 114 -169t241 -65
q147 0 233 71.5t86 193.5q0 124 -86.5 184.5t-232.5 60.5h-219v166h206q137 0 208 65.5t71 170.5q0 108 -78.5 171.5t-208.5 63.5t-214.5 -58t-106.5 -163h-181zM383 1858q51 0 86 -34t35 -85t-35 -85t-86 -34t-86 34t-35 85t35 85t86 34zM821 1858q51 0 86 -34t35 -85
t-35 -85t-86 -34t-86 34t-35 85t35 85t86 34z" />
    <glyph glyph-name="uni04DF" unicode="&#x4df;" horiz-adv-x="1005" 
d="M102 756q17 142 132 220.5t274 78.5q157 0 259.5 -80.5t102.5 -214.5q0 -86 -42.5 -141t-104.5 -80q32 -8 62.5 -24t60.5 -43.5t48.5 -73t18.5 -101.5q0 -145 -115 -232.5t-292 -87.5q-170 0 -287 82.5t-137 235.5h174q19 -77 86.5 -119.5t167.5 -42.5q104 0 165.5 44.5
t61.5 121.5q0 152 -225 152h-162v151h152q93 0 143.5 40t50.5 112q0 68 -52 106.5t-142 38.5q-94 0 -153 -40t-75 -103h-172zM289 1464q51 0 86 -33.5t35 -84.5t-35 -85t-86 -34t-86 34t-35 85t35 84.5t86 33.5zM711 1464q51 0 85.5 -33.5t34.5 -84.5t-34.5 -85t-85.5 -34
t-86 34t-35 85t35 84.5t86 33.5z" />
    <glyph glyph-name="uni04E2" unicode="&#x4e2;" horiz-adv-x="1501" 
d="M1321 1442v-1442h-180v1151l-781 -1151h-180v1442h180v-1151l781 1151h180zM442 1815h619v-152h-619v152z" />
    <glyph glyph-name="uni04E3" unicode="&#x4e3;" horiz-adv-x="1181" 
d="M1028 1032v-1032h-174v760l-526 -760h-174v1032h174v-762l526 762h174zM291 1421h602v-151h-602v151z" />
    <glyph glyph-name="uni04E4" unicode="&#x4e4;" horiz-adv-x="1501" 
d="M1321 1442v-1442h-180v1151l-781 -1151h-180v1442h180v-1151l781 1151h180zM532 1858q51 0 86 -34t35 -85t-35 -85t-86 -34t-85.5 34t-34.5 85t34.5 85t85.5 34zM971 1858q51 0 86 -34t35 -85t-35 -85t-86 -34t-86 34t-35 85t35 85t86 34z" />
    <glyph glyph-name="uni04E5" unicode="&#x4e5;" horiz-adv-x="1181" 
d="M1028 1032v-1032h-174v760l-526 -760h-174v1032h174v-762l526 762h174zM381 1464q51 0 86 -33.5t35 -84.5t-35 -85t-86 -34t-86 34t-35 85t35 84.5t86 33.5zM803 1464q51 0 86 -33.5t35 -84.5t-35 -85t-86 -34t-86 34t-35 85t35 84.5t86 33.5z" />
    <glyph glyph-name="uni04E6" unicode="&#x4e6;" horiz-adv-x="1540" 
d="M770 1464q198 0 350 -96.5t233 -265t81 -381.5q0 -159 -47.5 -296.5t-133 -236.5t-210.5 -155t-273 -56t-273 56t-210.5 155t-133 236.5t-47.5 296.5q0 213 81 381.5t233 265t350 96.5zM770 147q218 0 347.5 159.5t129.5 414.5t-129 414t-348 159t-348 -159t-129 -414
t129.5 -414.5t347.5 -159.5zM551 1858q51 0 86 -34t35 -85t-35 -85t-86 -34t-86 34t-35 85t35 85t86 34zM989 1858q51 0 86 -34t35 -85t-35 -85t-86 -34t-86 34t-35 85t35 85t86 34z" />
    <glyph glyph-name="uni04E7" unicode="&#x4e7;" horiz-adv-x="1175" 
d="M588 1055q223 0 359 -151t136 -388t-136 -388t-359 -151t-359.5 151t-136.5 388t136.5 388t359.5 151zM588 137q145 0 230 104.5t85 274.5t-85 274.5t-230 104.5t-230.5 -104.5t-85.5 -274.5t85.5 -274.5t230.5 -104.5zM377 1464q51 0 86 -33.5t35 -84.5t-35 -85t-86 -34
t-86 34t-35 85t35 84.5t86 33.5zM799 1464q51 0 86 -33.5t35 -84.5t-35 -85t-86 -34t-86 34t-35 85t35 84.5t86 33.5z" />
    <glyph glyph-name="uni04E8" unicode="&#x4e8;" horiz-adv-x="1540" 
d="M770 1464q198 0 350 -96.5t233 -265t81 -381.5q0 -159 -47.5 -296.5t-133 -236.5t-210.5 -155t-273 -56t-273 56t-210.5 155t-133 236.5t-47.5 296.5q0 213 81 381.5t233 265t350 96.5zM770 147q204 0 331.5 139.5t145.5 370.5h-954q15 -230 143.5 -370t333.5 -140z
M770 1294q-195 0 -320.5 -128t-152.5 -343h946q-24 208 -150.5 339.5t-322.5 131.5z" />
    <glyph glyph-name="uni04E9" unicode="&#x4e9;" horiz-adv-x="1175" 
d="M588 1055q223 0 359 -151t136 -388t-136 -388t-359 -151t-359.5 151t-136.5 388t136.5 388t359.5 151zM588 137q133 0 213 87t98 227h-625q17 -144 100.5 -229t213.5 -85zM588 895q-125 0 -206.5 -79.5t-102.5 -213.5h618q-22 134 -103.5 213.5t-205.5 79.5z" />
    <glyph glyph-name="uni04EA" unicode="&#x4ea;" horiz-adv-x="1540" 
d="M770 1464q198 0 350 -96.5t233 -265t81 -381.5q0 -159 -47.5 -296.5t-133 -236.5t-210.5 -155t-273 -56t-273 56t-210.5 155t-133 236.5t-47.5 296.5q0 213 81 381.5t233 265t350 96.5zM770 147q204 0 331.5 139.5t145.5 370.5h-954q15 -230 143.5 -370t333.5 -140z
M770 1294q-195 0 -320.5 -128t-152.5 -343h946q-24 208 -150.5 339.5t-322.5 131.5zM551 1858q51 0 86 -34t35 -85t-35 -85t-86 -34t-86 34t-35 85t35 85t86 34zM989 1858q51 0 86 -34t35 -85t-35 -85t-86 -34t-86 34t-35 85t35 85t86 34z" />
    <glyph glyph-name="uni04EB" unicode="&#x4eb;" horiz-adv-x="1175" 
d="M588 1055q223 0 359 -151t136 -388t-136 -388t-359 -151t-359.5 151t-136.5 388t136.5 388t359.5 151zM588 137q133 0 213 87t98 227h-625q17 -144 100.5 -229t213.5 -85zM588 895q-125 0 -206.5 -79.5t-102.5 -213.5h618q-22 134 -103.5 213.5t-205.5 79.5zM377 1464
q51 0 86 -33.5t35 -84.5t-35 -85t-86 -34t-86 34t-35 85t35 84.5t86 33.5zM799 1464q51 0 86 -33.5t35 -84.5t-35 -85t-86 -34t-86 34t-35 85t35 84.5t86 33.5z" />
    <glyph glyph-name="uni04EC" unicode="&#x4ec;" horiz-adv-x="1445" 
d="M522 655v164h627q-23 221 -146 348t-311 127q-162 0 -264 -79.5t-143 -200.5h-183q19 91 66 171t119.5 143t177 99.5t227.5 36.5q288 0 467.5 -203t179.5 -540q0 -225 -84 -395t-231 -259.5t-334 -89.5q-92 0 -173.5 20t-142.5 55.5t-110 79.5t-82.5 96t-54.5 102
t-31 100h185q16 -47 45 -92.5t77 -90.5t123 -72.5t166 -27.5q195 0 319.5 138t139.5 370h-629zM473 1858q51 0 86 -34t35 -85t-35 -85t-86 -34t-86 34t-35 85t35 85t86 34zM911 1858q51 0 86 -34t35 -85t-35 -85t-86 -34t-85.5 34t-34.5 85t34.5 85t85.5 34z" />
    <glyph glyph-name="uni04ED" unicode="&#x4ed;" horiz-adv-x="1101" 
d="M373 608h452q-19 137 -98 213t-201 76q-115 0 -179 -52t-85 -122h-174q10 62 40.5 119t82.5 106t133.5 78t181.5 29q219 0 351.5 -148t132.5 -391q0 -242 -134 -390.5t-352 -148.5q-189 0 -307.5 100t-134.5 245h170q8 -34 25.5 -64t48 -59t81 -46.5t115.5 -17.5
q129 0 212 86.5t95 235.5h-456v151zM315 1464q51 0 86 -33.5t35 -84.5t-35 -85t-86 -34t-85.5 34t-34.5 85t34.5 84.5t85.5 33.5zM737 1464q51 0 86 -33.5t35 -84.5t-35 -85t-86 -34t-86 34t-35 85t35 84.5t86 33.5z" />
    <glyph glyph-name="uni04EE" unicode="&#x4ee;" horiz-adv-x="1325" 
d="M41 1442h205l432 -846l407 846h199l-702 -1442h-201l199 406zM360 1815h619v-152h-619v152z" />
    <glyph glyph-name="uni04EF" unicode="&#x4ef;" horiz-adv-x="1062" 
d="M842 1032h190l-565 -1423h-191l160 403l-405 1020h190l311 -805zM229 1421h602v-151h-602v151z" />
    <glyph glyph-name="uni04F0" unicode="&#x4f0;" horiz-adv-x="1325" 
d="M41 1442h205l432 -846l407 846h199l-702 -1442h-201l199 406zM451 1858q51 0 85.5 -34t34.5 -85t-34.5 -85t-85.5 -34t-86 34t-35 85t35 85t86 34zM889 1858q51 0 86 -34t35 -85t-35 -85t-86 -34t-86 34t-35 85t35 85t86 34z" />
    <glyph glyph-name="uni04F1" unicode="&#x4f1;" horiz-adv-x="1062" 
d="M842 1032h190l-565 -1423h-191l160 403l-405 1020h190l311 -805zM319 1464q51 0 86 -33.5t35 -84.5t-35 -85t-86 -34t-85.5 34t-34.5 85t34.5 84.5t85.5 33.5zM741 1464q51 0 86 -33.5t35 -84.5t-35 -85t-86 -34t-85.5 34t-34.5 85t34.5 84.5t85.5 33.5z" />
    <glyph glyph-name="uni04F2" unicode="&#x4f2;" horiz-adv-x="1325" 
d="M41 1442h205l432 -846l407 846h199l-702 -1442h-201l199 406zM776 1898l-194 -315h-172l182 315h184zM1124 1898l-194 -315h-172l182 315h184z" />
    <glyph glyph-name="uni04F3" unicode="&#x4f3;" horiz-adv-x="1062" 
d="M842 1032h190l-565 -1423h-191l160 403l-405 1020h190l311 -805zM641 1505l-195 -315h-172l183 315h184zM981 1505l-195 -315h-172l183 315h184z" />
    <glyph glyph-name="uni04F4" unicode="&#x4f4;" horiz-adv-x="1363" 
d="M1001 1442h183v-1442h-183v616q-129 -79 -335 -79q-113 0 -209.5 33t-172 97.5t-118.5 169.5t-43 240v365h182v-363q0 -185 105 -278.5t274 -93.5q186 0 317 88v647zM436 1858q51 0 86 -34t35 -85t-35 -85t-86 -34t-86 34t-35 85t35 85t86 34zM874 1858q51 0 86 -34
t35 -85t-35 -85t-86 -34t-85.5 34t-34.5 85t34.5 85t85.5 34z" />
    <glyph glyph-name="uni04F5" unicode="&#x4f5;" horiz-adv-x="1081" 
d="M752 1032h176v-1032h-176v418q-90 -51 -228 -51q-188 0 -299.5 105.5t-111.5 309.5v250h176v-246q0 -130 66.5 -195t189.5 -65q124 0 207 54v452zM309 1464q51 0 86 -33.5t35 -84.5t-35 -85t-86 -34t-86 34t-35 85t35 84.5t86 33.5zM731 1464q51 0 86 -33.5t35 -84.5
t-35 -85t-86 -34t-86 34t-35 85t35 84.5t86 33.5z" />
    <glyph glyph-name="uni04F6" unicode="&#x4f6;" horiz-adv-x="1150" 
d="M539 170v-444h-177v274h-182v1442h893v-168h-711v-1104h177z" />
    <glyph glyph-name="uni04F7" unicode="&#x4f7;" horiz-adv-x="909" 
d="M481 160v-422h-170v262h-157v1032h684v-158h-508v-714h151z" />
    <glyph glyph-name="uni04F8" unicode="&#x4f8;" horiz-adv-x="1691" 
d="M682 911q148 0 258.5 -62t165.5 -164t55 -228q0 -124 -56 -227t-166 -166.5t-253 -63.5h-506v1442h182v-531h320zM662 745h-300v-579h300q146 0 229.5 80.5t83.5 210.5q0 131 -82.5 209.5t-230.5 78.5zM1511 1442v-1442h-182v1442h182zM627 1858q51 0 86 -34t35 -85
t-35 -85t-86 -34t-86 34t-35 85t35 85t86 34zM1065 1858q51 0 86 -34t35 -85t-35 -85t-86 -34t-86 34t-35 85t35 85t86 34z" />
    <glyph glyph-name="uni04F9" unicode="&#x4f9;" horiz-adv-x="1402" 
d="M330 1032v-334h231q163 0 263 -97t100 -249q0 -153 -100.5 -252.5t-264.5 -99.5h-405v1032h176zM1249 1032v-1032h-176v1032h176zM539 543h-209v-387h209q98 0 153.5 55t55.5 141t-55 138.5t-154 52.5zM489 1464q51 0 86 -33.5t35 -84.5t-35 -85t-86 -34t-85.5 34
t-34.5 85t34.5 84.5t85.5 33.5zM911 1464q51 0 86 -33.5t35 -84.5t-35 -85t-86 -34t-85.5 34t-34.5 85t34.5 84.5t85.5 33.5z" />
    <glyph glyph-name="uni0512" unicode="&#x512;" horiz-adv-x="1423" 
d="M358 1442h885v-1501q0 -166 -81 -249t-222 -83h-78v164h47q152 0 152 176v1325h-539l-53 -797q-6 -89 -19.5 -158.5t-42.5 -132t-72 -103t-108.5 -64t-152.5 -23.5h-54v170h31q125 0 177.5 73.5t64.5 249.5z" />
    <glyph glyph-name="uni0513" unicode="&#x513;" horiz-adv-x="1159" 
d="M293 1032h713v-1093q0 -330 -287 -330h-74v158h45q62 0 100.5 38.5t38.5 141.5v927h-378l-41 -487q-17 -210 -94 -300.5t-236 -90.5h-49v160h28q95 0 132.5 53t48.5 190z" />
    <glyph glyph-name="uni051C" unicode="&#x51c;" horiz-adv-x="2007" 
d="M1950 1442l-447 -1442h-172l-330 1141l-329 -1141h-168l-447 1442h193l338 -1123l327 1123h177l325 -1123l340 1123h193z" />
    <glyph glyph-name="uni051D" unicode="&#x51d;" horiz-adv-x="1583" 
d="M1542 1032l-338 -1032h-170l-246 788l-241 -788h-168l-338 1032h184l240 -760l237 760h179l237 -760l240 760h184z" />
    <glyph glyph-name="uni0524" unicode="&#x524;" horiz-adv-x="1546" 
d="M1485 170v-444h-176v274h-183v1274h-764v-1274h-182v1442h1129v-1272h176z" />
    <glyph glyph-name="uni0525" unicode="&#x525;" horiz-adv-x="1222" 
d="M1161 160v-422h-170v262h-157v874h-504v-874h-176v1032h856v-872h151z" />
    <glyph glyph-name="Wgrave" unicode="&#x1e80;" horiz-adv-x="2007" 
d="M1950 1442l-447 -1442h-172l-330 1141l-329 -1141h-168l-447 1442h193l338 -1123l327 1123h177l325 -1123l340 1123h193zM700 1898h191l194 -315h-178z" />
    <glyph glyph-name="wgrave" unicode="&#x1e81;" horiz-adv-x="1583" 
d="M1542 1032l-338 -1032h-170l-246 788l-241 -788h-168l-338 1032h184l240 -760l237 760h179l237 -760l240 760h184zM489 1505h191l194 -315h-178z" />
    <glyph glyph-name="Wacute" unicode="&#x1e82;" horiz-adv-x="2007" 
d="M1950 1442l-447 -1442h-172l-330 1141l-329 -1141h-168l-447 1442h193l338 -1123l327 1123h177l325 -1123l340 1123h193zM1303 1898l-207 -315h-178l194 315h191z" />
    <glyph glyph-name="wacute" unicode="&#x1e83;" horiz-adv-x="1583" 
d="M1542 1032l-338 -1032h-170l-246 788l-241 -788h-168l-338 1032h184l240 -760l237 760h179l237 -760l240 760h184zM1092 1505l-207 -315h-178l194 315h191z" />
    <glyph glyph-name="Wdieresis" unicode="&#x1e84;" horiz-adv-x="2007" 
d="M1950 1442l-447 -1442h-172l-330 1141l-329 -1141h-168l-447 1442h193l338 -1123l327 1123h177l325 -1123l340 1123h193zM782 1858q51 0 86 -34t35 -85t-35 -85t-86 -34t-85.5 34t-34.5 85t34.5 85t85.5 34zM1221 1858q51 0 85.5 -34t34.5 -85t-34.5 -85t-85.5 -34
t-86 34t-35 85t35 85t86 34z" />
    <glyph glyph-name="wdieresis" unicode="&#x1e85;" horiz-adv-x="1583" 
d="M1542 1032l-338 -1032h-170l-246 788l-241 -788h-168l-338 1032h184l240 -760l237 760h179l237 -760l240 760h184zM580 1464q51 0 85.5 -33.5t34.5 -84.5t-34.5 -85t-85.5 -34t-86 34t-35 85t35 84.5t86 33.5zM1001 1464q51 0 86 -33.5t35 -84.5t-35 -85t-86 -34
t-85.5 34t-34.5 85t34.5 84.5t85.5 33.5z" />
    <glyph glyph-name="Ygrave" unicode="&#x1ef2;" horiz-adv-x="1304" 
d="M743 0h-182v565l-530 877h207l413 -692l416 692h207l-531 -877v-565zM354 1898h191l194 -315h-178z" />
    <glyph glyph-name="ygrave" unicode="&#x1ef3;" horiz-adv-x="1062" 
d="M842 1032h190l-565 -1423h-191l160 403l-405 1020h190l311 -805zM229 1505h191l194 -315h-178z" />
    <glyph glyph-name="uni2000" unicode="&#x2000;" horiz-adv-x="1024" 
 />
    <glyph glyph-name="uni2001" unicode="&#x2001;" horiz-adv-x="2048" 
 />
    <glyph glyph-name="uni2002" unicode="&#x2002;" horiz-adv-x="1064" 
 />
    <glyph glyph-name="uni2003" unicode="&#x2003;" horiz-adv-x="2048" 
 />
    <glyph glyph-name="uni2004" unicode="&#x2004;" horiz-adv-x="655" 
 />
    <glyph glyph-name="uni2005" unicode="&#x2005;" horiz-adv-x="512" 
 />
    <glyph glyph-name="uni2006" unicode="&#x2006;" horiz-adv-x="307" 
 />
    <glyph glyph-name="uni2007" unicode="&#x2007;" horiz-adv-x="1228" 
 />
    <glyph glyph-name="uni2008" unicode="&#x2008;" horiz-adv-x="540" 
 />
    <glyph glyph-name="uni2009" unicode="&#x2009;" horiz-adv-x="389" 
 />
    <glyph glyph-name="uni200A" unicode="&#x200a;" horiz-adv-x="102" 
 />
    <glyph glyph-name="uni200B" unicode="&#x200b;" horiz-adv-x="0" 
 />
    <glyph glyph-name="endash" unicode="&#x2013;" horiz-adv-x="1024" 
d="M0 469v168h1024v-168h-1024z" />
    <glyph glyph-name="emdash" unicode="&#x2014;" horiz-adv-x="2048" 
d="M0 469v168h2048v-168h-2048z" />
    <glyph glyph-name="quoteleft" unicode="&#x2018;" horiz-adv-x="544" 
d="M141 1016q0 40 19 92l123 334h145l-115 -322q37 -12 61.5 -40.5t24.5 -71.5q0 -52 -35.5 -86.5t-89.5 -34.5q-56 0 -94.5 36.5t-38.5 92.5z" />
    <glyph glyph-name="quoteright" unicode="&#x2019;" horiz-adv-x="544" 
d="M403 1313q0 -43 -18 -92l-123 -334h-145l114 321q-37 11 -61.5 40.5t-24.5 72.5q0 52 35.5 86.5t89.5 34.5q56 0 94.5 -36.5t38.5 -92.5z" />
    <glyph glyph-name="quotesinglbase" unicode="&#x201a;" horiz-adv-x="544" 
d="M403 94q0 -42 -18 -92l-123 -334h-145l114 322q-37 12 -61.5 40.5t-24.5 71.5q0 52 35.5 86.5t89.5 34.5q56 0 94.5 -36.5t38.5 -92.5z" />
    <glyph glyph-name="quotedblleft" unicode="&#x201c;" horiz-adv-x="917" 
d="M514 1016q0 42 18 92l123 334h146l-115 -322q37 -12 61.5 -40.5t24.5 -71.5q0 -52 -35.5 -86.5t-89.5 -34.5q-56 0 -94.5 36.5t-38.5 92.5zM141 1016q0 40 19 92l123 334h145l-115 -322q37 -12 61.5 -40.5t24.5 -71.5q0 -52 -35.5 -86.5t-89.5 -34.5q-56 0 -94.5 36.5
t-38.5 92.5z" />
    <glyph glyph-name="quotedblright" unicode="&#x201d;" horiz-adv-x="917" 
d="M403 1313q0 -43 -18 -92l-123 -334h-145l114 321q-37 11 -61.5 40.5t-24.5 72.5q0 52 35.5 86.5t89.5 34.5q56 0 94.5 -36.5t38.5 -92.5zM776 1313q0 -43 -18 -92l-123 -334h-146l115 321q-37 11 -61.5 40.5t-24.5 72.5q0 52 35.5 86.5t89.5 34.5q56 0 94.5 -36.5
t38.5 -92.5z" />
    <glyph glyph-name="quotedblbase" unicode="&#x201e;" horiz-adv-x="917" 
d="M403 94q0 -42 -18 -92l-123 -334h-145l114 322q-37 12 -61.5 40.5t-24.5 71.5q0 52 35.5 86.5t89.5 34.5q56 0 94.5 -36.5t38.5 -92.5zM776 94q0 -42 -18 -92l-123 -334h-146l115 322q-37 12 -61.5 40.5t-24.5 71.5q0 52 35.5 86.5t89.5 34.5q56 0 94.5 -36.5t38.5 -92.5
z" />
    <glyph glyph-name="dagger" unicode="&#x2020;" horiz-adv-x="921" 
d="M840 1032h-299v-598h-160v598h-299v158h299v348h160v-348h299v-158z" />
    <glyph glyph-name="daggerdbl" unicode="&#x2021;" horiz-adv-x="921" 
d="M840 438h-299v-348h-160v348h-299v158h299v436h-299v158h299v348h160v-348h299v-158h-299v-436h299v-158z" />
    <glyph glyph-name="bullet" unicode="&#x2022;" horiz-adv-x="839" 
d="M420 834q124 0 210.5 -85.5t86.5 -213.5t-86.5 -213.5t-210.5 -85.5t-210.5 85.5t-86.5 213.5t86.5 213.5t210.5 85.5z" />
    <glyph glyph-name="ellipsis" unicode="&#x2026;" horiz-adv-x="1527" 
d="M764 227q53 0 90 -36t37 -89t-37 -89t-90 -36t-90 36t-37 89t37 89t90 36zM270 227q53 0 90 -36t37 -89t-37 -89t-90 -36t-90 36t-37 89t37 89t90 36zM1257 227q53 0 90 -36t37 -89t-37 -89t-90 -36t-90 36t-37 89t37 89t90 36z" />
    <glyph glyph-name="perthousand" unicode="&#x2030;" horiz-adv-x="2578" 
d="M279 0l1034 1442h188l-1034 -1442h-188zM422 1319q-83 0 -131.5 -62.5t-48.5 -158.5t48.5 -158.5t131.5 -62.5t131.5 62.5t48.5 158.5t-48.5 158.5t-131.5 62.5zM82 1098q0 157 95.5 261.5t244.5 104.5t244.5 -104.5t95.5 -261.5t-95.5 -262t-244.5 -105t-244.5 105
t-95.5 262zM1358 565q-83 0 -131.5 -62.5t-48.5 -158.5t48.5 -158.5t131.5 -62.5t131.5 62.5t48.5 158.5t-48.5 158.5t-131.5 62.5zM1018 344q0 157 95.5 262t244.5 105t244.5 -105t95.5 -262t-95.5 -262t-244.5 -105t-244.5 105t-95.5 262zM2157 565q-83 0 -132 -62.5
t-49 -158.5t49 -158.5t132 -62.5t131.5 62.5t48.5 158.5t-48.5 158.5t-131.5 62.5zM1817 344q0 157 95.5 262t244.5 105t244.5 -105t95.5 -262t-95.5 -262t-244.5 -105t-244.5 105t-95.5 262z" />
    <glyph glyph-name="guilsinglleft" unicode="&#x2039;" horiz-adv-x="765" 
d="M313 526l351 -426h-205l-357 426l357 426h205z" />
    <glyph glyph-name="guilsinglright" unicode="&#x203a;" horiz-adv-x="765" 
d="M453 526l-351 426h205l357 -426l-357 -426h-205z" />
    <glyph glyph-name="fraction" unicode="&#x2044;" horiz-adv-x="520" 
d="M-348 0l1034 1442h182l-1034 -1442h-182z" />
    <glyph glyph-name="zerosuperior" unicode="&#x2070;" horiz-adv-x="856" 
d="M428 1595q160 0 255 -124t95 -324q0 -201 -95 -326t-255 -125t-255 125t-95 326q0 200 95 324t255 124zM428 831q92 0 142.5 87.5t50.5 228.5q0 140 -50.5 226.5t-142.5 86.5t-142 -86.5t-50 -226.5q0 -142 50 -229t142 -87z" />
    <glyph glyph-name="foursuperior" unicode="&#x2074;" horiz-adv-x="833" 
d="M770 1026v-131h-123v-184h-147v184h-437v127l388 561h196v-557h123zM219 1026h281v399z" />
    <glyph glyph-name="fivesuperior" unicode="&#x2075;" horiz-adv-x="819" 
d="M453 1284q120 0 205 -77.5t85 -209.5q0 -135 -93.5 -218t-229.5 -83q-134 0 -225 69.5t-105 174.5h154q14 -42 57 -76.5t117 -34.5q71 0 119.5 46.5t48.5 119.5q0 74 -49 118t-119 44q-113 0 -168 -88h-152l41 512h555v-133h-428l-20 -244q76 80 207 80z" />
    <glyph glyph-name="sixsuperior" unicode="&#x2076;" horiz-adv-x="829" 
d="M467 1282q121 0 207 -78t86 -205q0 -129 -91 -216t-229 -87q-169 0 -265.5 117t-96.5 315q0 227 99 347t261 120q123 0 206 -65.5t97 -163.5h-151q-11 38 -52.5 67t-99.5 29q-92 0 -147 -71.5t-62 -219.5q38 54 100 82.5t138 28.5zM434 829q72 0 120 47.5t48 118.5
q0 72 -49.5 117t-120.5 45q-72 0 -123 -46.5t-51 -115.5q0 -70 51 -118t125 -48z" />
    <glyph glyph-name="sevensuperior" unicode="&#x2077;" horiz-adv-x="724" 
d="M51 1581h611v-121l-345 -749h-167l344 737h-443v133z" />
    <glyph glyph-name="eightsuperior" unicode="&#x2078;" horiz-adv-x="825" 
d="M78 950q0 81 50 138.5t116 76.5q-57 23 -98.5 71t-41.5 122q0 99 86 168t224 69q136 0 221.5 -69t85.5 -168q0 -74 -41 -122t-98 -71q66 -19 116 -76.5t50 -138.5q0 -108 -93.5 -181t-240.5 -73q-148 0 -242 73t-94 181zM569 1343q0 56 -43 90.5t-112 34.5
q-70 0 -114 -34.5t-44 -90.5q0 -55 45.5 -89.5t112.5 -34.5q66 0 110.5 34.5t44.5 89.5zM592 961q0 60 -49.5 99.5t-128.5 39.5q-81 0 -131 -39t-50 -100q0 -60 51 -99t130 -39q78 0 128 39t50 99z" />
    <glyph glyph-name="ninesuperior" unicode="&#x2079;" horiz-adv-x="829" 
d="M362 1010q-121 0 -206.5 77.5t-85.5 204.5q0 129 91 216t228 87q169 0 266 -117t97 -315q0 -227 -99.5 -347t-261.5 -120q-123 0 -206 66t-97 164h152q12 -39 52.5 -68t98.5 -29q92 0 147 71.5t62 219.5q-78 -110 -238 -110zM395 1462q-72 0 -120 -47.5t-48 -118.5
q0 -72 49.5 -116.5t120.5 -44.5q72 0 123 46t51 115q0 70 -51 118t-125 48z" />
    <glyph glyph-name="uni207A" unicode="&#x207a;" horiz-adv-x="802" 
d="M334 1452h133v-244h233v-127h-233v-243h-133v243h-234v127h234v244z" />
    <glyph glyph-name="uni207B" unicode="&#x207b;" horiz-adv-x="802" 
d="M692 1081h-583v127h583v-127z" />
    <glyph glyph-name="uni207C" unicode="&#x207c;" horiz-adv-x="802" 
d="M106 1221v127h590v-127h-590zM106 942v129h590v-129h-590z" />
    <glyph glyph-name="parenleftsuperior" unicode="&#x207d;" horiz-adv-x="473" 
d="M432 1688q-180 -239 -180 -543q0 -303 180 -545h-143q-80 98 -134.5 239t-54.5 306q0 164 54.5 305.5t134.5 237.5h143z" />
    <glyph glyph-name="parenrightsuperior" unicode="&#x207e;" horiz-adv-x="473" 
d="M41 1688h145q80 -98 133.5 -238.5t53.5 -304.5q0 -166 -53.5 -305.5t-133.5 -239.5h-145q182 245 182 545q0 301 -182 543z" />
    <glyph glyph-name="zeroinferior" unicode="&#x2080;" horiz-adv-x="856" 
d="M428 633q160 0 255 -124.5t95 -324.5q0 -201 -95 -325.5t-255 -124.5t-255 124.5t-95 325.5q0 200 95 324.5t255 124.5zM428 -131q93 0 143 87t50 228q0 140 -50.5 227t-142.5 87t-142 -87t-50 -227q0 -141 50 -228t142 -87z" />
    <glyph glyph-name="oneinferior" unicode="&#x2081;" horiz-adv-x="598" 
d="M440 618v-870h-155v703l-215 -132v154l225 145h145z" />
    <glyph glyph-name="twoinferior" unicode="&#x2082;" horiz-adv-x="792" 
d="M299 -119h418v-133h-627v125l338 311q3 3 21.5 20t24 23t20.5 22.5t21 27t14.5 26.5t12 32.5t3.5 33.5q0 57 -43 93t-109 36q-65 0 -108 -35t-54 -90h-147q11 113 97 186.5t220 73.5q131 0 216 -74.5t85 -185.5q0 -77 -44 -142t-119 -133z" />
    <glyph glyph-name="threeinferior" unicode="&#x2083;" horiz-adv-x="804" 
d="M84 385q15 114 104.5 181t214.5 67q129 0 213 -67t84 -169q0 -70 -37.5 -119t-95.5 -73q64 -16 114 -72t50 -141q0 -110 -90.5 -184t-230.5 -74q-136 0 -231 70.5t-105 185.5h147q15 -57 66 -90t123 -33q71 0 117 37.5t46 95.5q0 61 -44.5 94t-122.5 33h-107v131h90
q72 0 113 34.5t41 86.5q0 54 -41 87.5t-107 33.5q-65 0 -108 -32.5t-54 -82.5h-149z" />
    <glyph glyph-name="fourinferior" unicode="&#x2084;" horiz-adv-x="833" 
d="M770 63v-131h-123v-184h-147v184h-437v127l388 562h196v-558h123zM219 63h281v400z" />
    <glyph glyph-name="fiveinferior" unicode="&#x2085;" horiz-adv-x="819" 
d="M453 322q120 0 205 -77.5t85 -209.5q0 -135 -93.5 -218t-229.5 -83q-134 0 -225 69t-105 174h154q14 -42 57 -76t117 -34q71 0 119.5 46.5t48.5 119.5q0 74 -49 118t-119 44q-113 0 -168 -89h-152l41 512h555v-133h-428l-20 -243q76 80 207 80z" />
    <glyph glyph-name="sixinferior" unicode="&#x2086;" horiz-adv-x="829" 
d="M467 319q121 0 207 -78t86 -204q0 -129 -91 -216t-229 -87q-169 0 -265.5 117t-96.5 315q0 227 99 347t261 120q123 0 206 -66t97 -164h-151q-11 39 -52.5 68t-99.5 29q-92 0 -147 -71.5t-62 -219.5q78 110 238 110zM434 -133q72 0 120 47.5t48 118.5q0 72 -49.5 117
t-120.5 45q-72 0 -123 -46.5t-51 -115.5q0 -70 51 -118t125 -48z" />
    <glyph glyph-name="seveninferior" unicode="&#x2087;" horiz-adv-x="724" 
d="M51 618h611v-120l-345 -750h-167l344 737h-443v133z" />
    <glyph glyph-name="eightinferior" unicode="&#x2088;" horiz-adv-x="825" 
d="M78 -12q0 81 50 138.5t116 76.5q-57 23 -98.5 70.5t-41.5 121.5q0 100 86 169t224 69q136 0 221.5 -69.5t85.5 -168.5q0 -74 -41 -121.5t-98 -70.5q66 -19 116 -76.5t50 -138.5q0 -108 -93.5 -181t-240.5 -73q-148 0 -242 73t-94 181zM569 381q0 56 -43 90.5t-112 34.5
q-70 0 -114 -34.5t-44 -90.5q0 -55 45.5 -90t112.5 -35q66 0 110.5 35t44.5 90zM592 -2q0 60 -49.5 99.5t-128.5 39.5q-81 0 -131 -39t-50 -100q0 -60 51 -98.5t130 -38.5q78 0 128 38.5t50 98.5z" />
    <glyph glyph-name="nineinferior" unicode="&#x2089;" horiz-adv-x="829" 
d="M362 47q-121 0 -206.5 78t-85.5 205q0 129 91 216t228 87q169 0 266 -117t97 -315q0 -227 -99.5 -347t-261.5 -120q-123 0 -206 65.5t-97 163.5h152q11 -39 52 -67.5t99 -28.5q92 0 147 71.5t62 219.5q-38 -54 -100 -82.5t-138 -28.5zM395 500q-72 0 -120 -47.5
t-48 -118.5q0 -72 49.5 -117t120.5 -45q72 0 123 46.5t51 115.5q0 70 -51 118t-125 48z" />
    <glyph glyph-name="uni208A" unicode="&#x208a;" horiz-adv-x="802" 
d="M334 489h133v-243h233v-127h-233v-244h-133v244h-234v127h234v243z" />
    <glyph glyph-name="uni208B" unicode="&#x208b;" horiz-adv-x="802" 
d="M692 119h-583v127h583v-127z" />
    <glyph glyph-name="uni208C" unicode="&#x208c;" horiz-adv-x="802" 
d="M106 258v127h590v-127h-590zM106 -20v129h590v-129h-590z" />
    <glyph glyph-name="parenleftinferior" unicode="&#x208d;" horiz-adv-x="473" 
d="M432 725q-180 -239 -180 -543q0 -302 180 -544h-143q-81 99 -135 239t-54 305q0 164 54.5 305.5t134.5 237.5h143z" />
    <glyph glyph-name="parenrightinferior" unicode="&#x208e;" horiz-adv-x="473" 
d="M41 725h145q80 -98 133.5 -238.5t53.5 -304.5q0 -166 -53.5 -305t-133.5 -239h-145q182 245 182 544q0 301 -182 543z" />
    <glyph glyph-name="Euro" unicode="&#x20ac;" horiz-adv-x="1357" 
d="M1104 358h178q-12 -68 -48.5 -134t-93.5 -122t-143.5 -90.5t-187.5 -34.5q-202 0 -342.5 133.5t-185.5 376.5h-209v150h190q-2 27 -2 84q0 51 2 76h-190v149h207q45 242 183 380t347 138q186 0 312 -108.5t157 -270.5h-176q-32 91 -104 152t-189 61q-139 0 -226 -92
t-120 -260h473l-21 -149h-469q-2 -25 -2 -76q0 -57 2 -84h449l-21 -150h-407q34 -165 121 -254.5t219 -89.5q113 0 194.5 66.5t102.5 148.5z" />
    <glyph glyph-name="uni20B4" unicode="&#x20b4;" horiz-adv-x="1345" 
d="M92 487v154h1161v-154h-802q-64 -52 -64 -141q0 -93 79 -149t202 -56q127 0 209 57t116 154h178q-33 -179 -171.5 -277t-331.5 -98q-197 0 -328 99t-131 256q0 94 47 155h-164zM92 793v153h799q70 58 70 154q0 93 -75.5 146.5t-187.5 53.5q-236 0 -301 -198h-176
q36 169 167 265.5t312 96.5q186 0 312.5 -99t126.5 -253q0 -99 -58 -166h172v-153h-1161z" />
    <glyph glyph-name="uni20B8" unicode="&#x20b8;" horiz-adv-x="1214" 
d="M92 946v166h1030v-166h-424v-946h-182v946h-424zM92 1284v158h1030v-158h-1030z" />
    <glyph glyph-name="uni20BD" unicode="&#x20bd;" horiz-adv-x="1304" 
d="M72 233v150h202v174h-202v156h202v729h457q221 0 350 -124.5t129 -316.5q0 -195 -128.5 -319.5t-346.5 -124.5h-280v-174h469v-150h-469v-233h-181v233h-202zM711 1278h-256v-559h256q149 0 231 75t82 205q0 127 -82 203t-231 76z" />
    <glyph glyph-name="uni20BF" unicode="&#x20bf;" horiz-adv-x="1245" 
d="M180 35v1372h172v203h150v-203h178v203h149v-221q126 -33 195.5 -124t69.5 -212q0 -116 -52.5 -193.5t-126.5 -107.5q39 -11 77 -35.5t74.5 -63.5t58.5 -99.5t22 -131.5q0 -143 -84.5 -242t-233.5 -131v-229h-149v215h-178v-215h-150v215h-172zM692 664h-340v-474h332
q130 0 208.5 62.5t78.5 173.5q0 110 -75.5 174t-203.5 64zM662 1251h-310v-432h322q120 0 183 59.5t63 155.5q0 101 -68.5 159t-189.5 58z" />
    <glyph glyph-name="uni2116" unicode="&#x2116;" horiz-adv-x="2334" 
d="M377 1442l766 -1143v1143h178v-1442h-178l-785 1167v-1167h-178v1442h197zM1487 1090q0 163 104.5 268.5t268.5 105.5t268 -105.5t104 -268.5t-104 -269t-268 -106t-268.5 106t-104.5 269zM1860 1315q-90 0 -146.5 -62t-56.5 -163t56.5 -163.5t146.5 -62.5t146 62.5
t56 163.5t-56 163t-146 62zM1509 444v164h701v-164h-701z" />
    <glyph glyph-name="trademark" unicode="&#x2122;" horiz-adv-x="2013" 
d="M942 1442h195l274 -660l277 660h192v-871h-147v633l-267 -633h-112l-264 631v-631h-148v871zM61 1300v142h725v-142h-284v-729h-156v729h-285z" />
    <glyph glyph-name="oneeighth" unicode="&#x215b;" horiz-adv-x="1943" 
d="M440 1442v-871h-155v703l-215 -131v153l225 146h145zM250 0l1034 1442h182l-1034 -1442h-182zM1196 240q0 81 50 138.5t116 76.5q-57 23 -98 70.5t-41 121.5q0 100 86 169t223 69q136 0 221.5 -69.5t85.5 -168.5q0 -74 -41 -121.5t-98 -70.5q66 -19 116 -76.5t50 -138.5
q0 -108 -93.5 -181t-240.5 -73q-148 0 -242 73t-94 181zM1688 633q0 55 -43.5 90t-112.5 35q-70 0 -114 -34.5t-44 -90.5q0 -55 45.5 -90t112.5 -35q66 0 111 35t45 90zM1710 250q0 60 -49.5 99.5t-128.5 39.5q-81 0 -130.5 -39t-49.5 -100q0 -60 50.5 -98.5t129.5 -38.5
q78 0 128 38.5t50 98.5z" />
    <glyph glyph-name="threeeighths" unicode="&#x215c;" horiz-adv-x="2150" 
d="M84 1208q15 114 104.5 181t214.5 67q129 0 213 -67t84 -168q0 -70 -37.5 -119.5t-95.5 -73.5q64 -16 114 -72t50 -141q0 -110 -90.5 -184t-230.5 -74q-136 0 -231 70.5t-105 185.5h147q15 -57 66 -90t123 -33q71 0 117 37.5t46 95.5q0 61 -44.5 94t-122.5 33h-107v131h90
q72 0 113 34.5t41 86.5q0 54 -41 87.5t-107 33.5q-65 0 -108 -32.5t-54 -82.5h-149zM457 0l1034 1442h182l-1034 -1442h-182zM1403 240q0 81 50 138.5t116 76.5q-57 23 -98 70.5t-41 121.5q0 100 86 169t223 69q136 0 221.5 -69.5t85.5 -168.5q0 -74 -41 -121.5t-98 -70.5
q66 -19 116 -76.5t50 -138.5q0 -108 -93.5 -181t-240.5 -73q-148 0 -242 73t-94 181zM1894 633q0 56 -43 90.5t-112 34.5q-70 0 -114 -34.5t-44 -90.5q0 -55 45.5 -90t112.5 -35q66 0 110.5 35t44.5 90zM1917 250q0 60 -49.5 99.5t-128.5 39.5q-81 0 -130.5 -39t-49.5 -100
q0 -60 50.5 -98.5t129.5 -38.5q78 0 128 38.5t50 98.5z" />
    <glyph glyph-name="fiveeighths" unicode="&#x215d;" horiz-adv-x="2164" 
d="M453 1145q120 0 205 -77.5t85 -209.5q0 -135 -93.5 -218t-229.5 -83q-134 0 -225 69.5t-105 174.5h154q14 -42 57 -76.5t117 -34.5q71 0 119.5 46.5t48.5 119.5q0 74 -49 118t-119 44q-113 0 -168 -88h-152l41 512h555v-133h-428l-20 -244q76 80 207 80zM471 0l1034 1442
h183l-1035 -1442h-182zM1417 240q0 81 50 138.5t116 76.5q-57 23 -98 70.5t-41 121.5q0 100 86 169t223 69q136 0 221.5 -69.5t85.5 -168.5q0 -74 -41 -121.5t-98 -70.5q66 -19 116 -76.5t50 -138.5q0 -108 -93.5 -181t-240.5 -73q-148 0 -242 73t-94 181zM1909 633
q0 55 -43.5 90t-112.5 35q-70 0 -114 -34.5t-44 -90.5q0 -55 45.5 -90t112.5 -35q66 0 111 35t45 90zM1931 250q0 60 -49.5 99.5t-128.5 39.5q-81 0 -130.5 -39t-49.5 -100q0 -60 50.5 -98.5t129.5 -38.5q78 0 128 38.5t50 98.5z" />
    <glyph glyph-name="seveneighths" unicode="&#x215e;" horiz-adv-x="1947" 
d="M51 1442h611v-121l-345 -750h-167l344 738h-443v133zM254 0l1034 1442h182l-1034 -1442h-182zM1200 240q0 81 50 138.5t116 76.5q-57 23 -98 70.5t-41 121.5q0 100 86 169t223 69q136 0 221.5 -69.5t85.5 -168.5q0 -74 -41 -121.5t-98 -70.5q66 -19 116 -76.5t50 -138.5
q0 -108 -93.5 -181t-240.5 -73q-148 0 -242 73t-94 181zM1692 633q0 55 -43.5 90t-112.5 35q-70 0 -114 -34.5t-44 -90.5q0 -55 45.5 -90t112.5 -35q66 0 111 35t45 90zM1714 250q0 60 -49.5 99.5t-128.5 39.5q-81 0 -130.5 -39t-49.5 -100q0 -60 50.5 -98.5t129.5 -38.5
q78 0 128 38.5t50 98.5z" />
    <glyph glyph-name="leftArrow" unicode="&#x2190;" horiz-adv-x="1781" 
d="M598 274l-446 447l446 446h215l-364 -366h1171v-160h-1171l364 -367h-215z" />
    <glyph glyph-name="upArrow" unicode="&#x2191;" horiz-adv-x="1173" 
d="M1032 1022v-217l-364 366v-1171h-162v1169l-365 -364v217l447 446z" />
    <glyph glyph-name="rightArrow" unicode="&#x2192;" horiz-adv-x="1781" 
d="M1184 274h-217l366 367h-1171v160h1171l-366 366h217l446 -446z" />
    <glyph glyph-name="downArrow" unicode="&#x2193;" horiz-adv-x="1173" 
d="M1032 420l-444 -447l-447 447v217l365 -365v1170h162v-1172l364 367v-217z" />
    </font>
</defs>
</svg>
