<?xml version="1.0" standalone="no"?>
<!DOCTYPE svg PUBLIC "-//W3C//DTD SVG 1.1//EN" "http://www.w3.org/Graphics/SVG/1.1/DTD/svg11.dtd" >
<svg xmlns="http://www.w3.org/2000/svg" xmlns:xlink="http://www.w3.org/1999/xlink" version="1.1">
<metadata>
Created by FontForge 20170731 at Tue Jan 19 19:36:27 2021
 By Aleksey,,,
Copyright (c) 2019 by Art. Lebedev Studio. All rights reserved.
</metadata>
<defs>
<font id="ALSHauss-Bold" horiz-adv-x="0" >
  <font-face 
    font-family="ALS Hauss Bold"
    font-weight="700"
    font-stretch="normal"
    units-per-em="2048"
    panose-1="2 0 0 0 0 0 0 0 0 0"
    ascent="1638"
    descent="-410"
    x-height="1059"
    cap-height="1442"
    bbox="-414 -625 2734 2034"
    underline-thickness="102"
    underline-position="-307"
    unicode-range="U+000D-277E"
  />
<missing-glyph horiz-adv-x="1204" 
d="M135 1442h934v-1442h-934v1442zM950 1325h-700v-1208h700v1208z" />
    <glyph glyph-name="copyright" unicode="&#x28;C&#x29;" horiz-adv-x="1794" 
d="M897 -25q131 0 245.5 47t197 130t130.5 202t48 256t-48 256t-130.5 202t-197 130t-245.5 47q-130 0 -244.5 -47t-197.5 -130t-131 -202t-48 -256t48 -256t131 -202t197.5 -130t244.5 -47zM897 -223q-171 0 -323 63t-262.5 172t-175 264.5t-64.5 333.5t64.5 334t175 265.5
t262.5 173t323 63.5q170 0 322 -63.5t263 -173t175.5 -265.5t64.5 -334t-64.5 -333.5t-175.5 -264.5t-263 -172t-322 -63zM899 385q62 0 103 33t53 88h237q-12 -152 -124.5 -247t-272.5 -95q-187 0 -308.5 123.5t-121.5 322.5q0 201 120.5 326t309.5 125q165 0 271.5 -93
t125.5 -241h-243q-14 53 -54 84t-100 31q-79 0 -127.5 -61t-48.5 -171q0 -107 49.5 -166t130.5 -59z" />
    <glyph glyph-name="registered" unicode="&#x28;R&#x29;" horiz-adv-x="1280" 
d="M639 367q-156 0 -285.5 74t-205.5 206t-76 295t76 295t205.5 205.5t285.5 73.5q157 0 287 -73.5t206 -205.5t76 -295t-76 -295t-206 -206t-287 -74zM639 532q172 0 286.5 115.5t114.5 294.5t-114.5 294.5t-286.5 115.5q-170 0 -284.5 -116t-114.5 -294t114.5 -294
t284.5 -116zM860 1026q0 -89 -76 -145l113 -203h-170l-90 160h-62v-160h-153v532h229q97 0 153 -50.5t56 -133.5zM637 1083h-62v-120h62q28 0 45.5 16.5t17.5 44.5q0 27 -17 43t-46 16z" />
    <glyph glyph-name="Ldot" unicode="L&#xb7;" horiz-adv-x="1189" 
d="M465 1442v-1163h653v-279h-966v1442h313zM807 1012q75 0 126.5 -51.5t51.5 -126.5t-51.5 -127t-126.5 -52q-76 0 -129 52t-53 127t52.5 126.5t129.5 51.5z" />
    <glyph glyph-name="ldot" unicode="l&#xb7;" horiz-adv-x="907" 
d="M428 1489v-1489h-299v1489h299zM719 899q75 0 126.5 -51.5t51.5 -126.5t-51.5 -126.5t-126.5 -51.5q-77 0 -129.5 51.5t-52.5 126.5t52.5 126.5t129.5 51.5z" />
    <glyph glyph-name="uni2460" unicode="&#x28;&#x31;&#x29;" horiz-adv-x="1994" 
d="M997 20q187 0 340.5 86.5t242.5 243t89 352.5q0 148 -52 276t-142 217t-214 140t-264 51q-187 0 -340 -86t-242 -242.5t-89 -352.5q0 -197 89 -354t242 -244t340 -87zM997 -213q-188 0 -355.5 69t-290 189t-194 291t-71.5 366q0 261 122 472t330 328.5t459 117.5
q150 0 289 -44t251 -126t196 -193.5t130 -253.5t46 -298q0 -196 -71.5 -367.5t-194 -291.5t-290.5 -189.5t-356 -69.5zM1149 1153v-897h-238v645l-194 -121v232l211 141h221z" />
    <glyph glyph-name="uni2461" unicode="&#x28;&#x32;&#x29;" horiz-adv-x="1994" 
d="M997 20q187 0 340.5 86.5t242.5 243t89 352.5q0 148 -52 276t-142 217t-214 140t-264 51q-187 0 -340 -86t-242 -242.5t-89 -352.5q0 -197 89 -354t242 -244t340 -87zM997 -213q-188 0 -355.5 69t-290 189t-194 291t-71.5 366q0 261 122 472t330 328.5t459 117.5
q150 0 289 -44t251 -126t196 -193.5t130 -253.5t46 -298q0 -196 -71.5 -367.5t-194 -291.5t-290.5 -189.5t-356 -69.5zM979 459h371v-203h-695v190l349 302q31 27 47 43.5t30.5 41t14.5 48.5q0 37 -30 61.5t-77 24.5q-46 0 -76.5 -23t-38.5 -61h-229q9 125 103.5 205.5
t246.5 80.5q155 0 247.5 -79.5t92.5 -198.5q0 -46 -12.5 -85.5t-37.5 -73.5t-48.5 -57t-60.5 -54z" />
    <glyph glyph-name="uni2462" unicode="&#x28;&#x33;&#x29;" horiz-adv-x="1994" 
d="M997 20q187 0 340.5 86.5t242.5 243t89 352.5q0 148 -52 276t-142 217t-214 140t-264 51q-187 0 -340 -86t-242 -242.5t-89 -352.5q0 -197 89 -354t242 -244t340 -87zM997 -213q-188 0 -355.5 69t-290 189t-194 291t-71.5 366q0 261 122 472t330 328.5t459 117.5
q150 0 289 -44t251 -126t196 -193.5t130 -253.5t46 -298q0 -196 -71.5 -367.5t-194 -291.5t-290.5 -189.5t-356 -69.5zM641 895q12 125 113.5 199.5t240.5 74.5q147 0 240.5 -70.5t93.5 -176.5q0 -72 -39.5 -121.5t-93.5 -73.5q66 -17 117 -74t51 -141q0 -120 -102.5 -197
t-260.5 -77q-151 0 -255 78.5t-113 209.5h229q11 -38 48 -63t91 -25q52 0 86.5 24.5t34.5 67.5q0 41 -34.5 62.5t-92.5 21.5h-102v195h80q55 0 87 22.5t32 59.5q0 35 -29.5 56.5t-77.5 21.5q-44 0 -76 -22t-37 -52h-231z" />
    <glyph glyph-name="uni2463" unicode="&#x28;&#x34;&#x29;" horiz-adv-x="1994" 
d="M997 20q187 0 340.5 86.5t242.5 243t89 352.5q0 148 -52 276t-142 217t-214 140t-264 51q-187 0 -340 -86t-242 -242.5t-89 -352.5q0 -197 89 -354t242 -244t340 -87zM997 -213q-188 0 -355.5 69t-290 189t-194 291t-71.5 366q0 261 122 472t330 328.5t459 117.5
q150 0 289 -44t251 -126t196 -193.5t130 -253.5t46 -298q0 -196 -71.5 -367.5t-194 -291.5t-290.5 -189.5t-356 -69.5zM1366 608v-190h-119v-162h-229v162h-432v190l354 545h307v-545h119zM813 608h205v310z" />
    <glyph glyph-name="uni2464" unicode="&#x28;&#x35;&#x29;" horiz-adv-x="1994" 
d="M997 20q187 0 340.5 86.5t242.5 243t89 352.5q0 148 -52 276t-142 217t-214 140t-264 51q-187 0 -340 -86t-242 -242.5t-89 -352.5q0 -197 89 -354t242 -244t340 -87zM997 -213q-188 0 -355.5 69t-290 189t-194 291t-71.5 366q0 261 122 472t330 328.5t459 117.5
q150 0 289 -44t251 -126t196 -193.5t130 -253.5t46 -298q0 -196 -71.5 -367.5t-194 -291.5t-290.5 -189.5t-356 -69.5zM1061 848q124 0 210.5 -76t86.5 -213q0 -147 -104.5 -234t-256.5 -87q-146 0 -247 76t-113 196h233q9 -27 42 -49.5t83 -22.5q52 0 86.5 32.5t34.5 82.5
q0 49 -36 80t-85 31q-80 0 -118 -58h-234l43 547h614v-203h-415l-17 -176q74 74 193 74z" />
    <glyph glyph-name="uni2465" unicode="&#x28;&#x36;&#x29;" horiz-adv-x="1994" 
d="M997 20q187 0 340.5 86.5t242.5 243t89 352.5q0 148 -52 276t-142 217t-214 140t-264 51q-187 0 -340 -86t-242 -242.5t-89 -352.5q0 -197 89 -354t242 -244t340 -87zM997 -213q-188 0 -355.5 69t-290 189t-194 291t-71.5 366q0 261 122 472t330 328.5t459 117.5
q150 0 289 -44t251 -126t196 -193.5t130 -253.5t46 -298q0 -196 -71.5 -367.5t-194 -291.5t-290.5 -189.5t-356 -69.5zM1059 846q121 0 212 -78t91 -205q0 -138 -98.5 -231.5t-255.5 -93.5q-188 0 -296 127t-108 333q0 226 110 348.5t287 122.5q139 0 233.5 -75.5
t108.5 -186.5h-227q-12 26 -42 45t-70 19q-154 0 -168 -223q71 98 223 98zM997 438q52 0 87.5 33t35.5 78q0 49 -35.5 81t-87.5 32t-89.5 -32t-37.5 -81q0 -46 37.5 -78.5t89.5 -32.5z" />
    <glyph glyph-name="uni2466" unicode="&#x28;&#x37;&#x29;" horiz-adv-x="1994" 
d="M997 20q187 0 340.5 86.5t242.5 243t89 352.5q0 148 -52 276t-142 217t-214 140t-264 51q-187 0 -340 -86t-242 -242.5t-89 -352.5q0 -197 89 -354t242 -244t340 -87zM997 -213q-188 0 -355.5 69t-290 189t-194 291t-71.5 366q0 261 122 472t330 328.5t459 117.5
q150 0 289 -44t251 -126t196 -193.5t130 -253.5t46 -298q0 -196 -71.5 -367.5t-194 -291.5t-290.5 -189.5t-356 -69.5zM662 1155h673v-184l-336 -713h-256l334 694h-415v203z" />
    <glyph glyph-name="uni2467" unicode="&#x28;&#x38;&#x29;" horiz-adv-x="1994" 
d="M997 20q187 0 340.5 86.5t242.5 243t89 352.5q0 148 -52 276t-142 217t-214 140t-264 51q-187 0 -340 -86t-242 -242.5t-89 -352.5q0 -197 89 -354t242 -244t340 -87zM997 -213q-188 0 -355.5 69t-290 189t-194 291t-71.5 366q0 261 122 472t330 328.5t459 117.5
q150 0 289 -44t251 -126t196 -193.5t130 -253.5t46 -298q0 -196 -71.5 -367.5t-194 -291.5t-290.5 -189.5t-356 -69.5zM623 508q0 77 46 133.5t115 81.5q-58 24 -96.5 73t-38.5 119q0 105 96 179.5t252 74.5q155 0 252 -74.5t97 -179.5q0 -70 -39.5 -119t-98.5 -73
q70 -25 116 -81.5t46 -133.5q0 -115 -105 -192.5t-268 -77.5q-164 0 -269 77.5t-105 192.5zM1112 889q0 39 -32 64.5t-83 25.5t-83.5 -25.5t-32.5 -64.5q0 -38 34 -63t82 -25q47 0 81 25t34 63zM1126 528q0 42 -36 71.5t-93 29.5t-94 -29.5t-37 -71.5q0 -43 37 -69.5
t94 -26.5t93 26.5t36 69.5z" />
    <glyph glyph-name="uni2468" unicode="&#x28;&#x39;&#x29;" horiz-adv-x="1994" 
d="M997 20q187 0 340.5 86.5t242.5 243t89 352.5q0 148 -52 276t-142 217t-214 140t-264 51q-187 0 -340 -86t-242 -242.5t-89 -352.5q0 -197 89 -354t242 -244t340 -87zM997 -213q-188 0 -355.5 69t-290 189t-194 291t-71.5 366q0 261 122 472t330 328.5t459 117.5
q150 0 289 -44t251 -126t196 -193.5t130 -253.5t46 -298q0 -196 -71.5 -367.5t-194 -291.5t-290.5 -189.5t-356 -69.5zM936 565q-121 0 -212 77t-91 206q0 136 98.5 229.5t255.5 93.5q186 0 295 -127t109 -333q0 -226 -110.5 -348.5t-287.5 -122.5q-141 0 -234.5 75.5
t-107.5 186.5h228q12 -26 41.5 -44t70.5 -18q154 0 168 222q-76 -97 -223 -97zM997 971q-52 0 -87.5 -33t-35.5 -78q0 -49 35 -80.5t88 -31.5q52 0 89.5 32t37.5 80q0 46 -37.5 78.5t-89.5 32.5z" />
    <glyph glyph-name="uni24EA" unicode="&#x28;&#x30;&#x29;" horiz-adv-x="1994" 
d="M997 20q187 0 340.5 86.5t242.5 243t89 352.5q0 148 -52 276t-142 217t-214 140t-264 51q-187 0 -340 -86t-242 -242.5t-89 -352.5q0 -197 89 -354t242 -244t340 -87zM997 -213q-188 0 -355.5 69t-290 189t-194 291t-71.5 366q0 261 122 472t330 328.5t459 117.5
q150 0 289 -44t251 -126t196 -193.5t130 -253.5t46 -298q0 -196 -71.5 -367.5t-194 -291.5t-290.5 -189.5t-356 -69.5zM997 1169q173 0 280 -129t107 -335q0 -207 -107 -337t-280 -130t-281 130t-108 337q0 206 108 335t281 129zM997 442q72 0 109 74.5t37 188.5
q0 73 -15 130t-48.5 93.5t-82.5 36.5q-72 0 -108.5 -73t-36.5 -187q0 -115 36 -189t109 -74z" />
    <glyph glyph-name=".notdef" horiz-adv-x="1204" 
d="M135 1442h934v-1442h-934v1442zM950 1325h-700v-1208h700v1208z" />
    <glyph glyph-name="uni0000" 
 />
    <glyph glyph-name="uni0000" 
 />
    <glyph glyph-name="uni000D" unicode="&#xd;" horiz-adv-x="442" 
 />
    <glyph glyph-name="space" unicode=" " horiz-adv-x="442" 
 />
    <glyph glyph-name="exclam" unicode="!" horiz-adv-x="686" 
d="M209 477l-23 965h310l-23 -965h-264zM344 332q75 0 126.5 -51.5t51.5 -126.5t-51.5 -127t-126.5 -52q-76 0 -129 52t-53 127t52.5 126.5t129.5 51.5z" />
    <glyph glyph-name="quotedbl" unicode="&#x22;" horiz-adv-x="1007" 
d="M592 836v606h274l-18 -606h-256zM141 836v606h275l-19 -606h-256z" />
    <glyph glyph-name="numbersign" unicode="#" horiz-adv-x="1492" 
d="M1405 1100v-242h-246l-49 -276h203v-242h-244l-59 -340h-252l57 340h-268l-60 -340h-251l59 340h-207v242h248l49 276h-205v242h246l59 342h252l-59 -342h268l60 342h254l-60 -342h205zM633 860l-49 -280h276l47 280h-274z" />
    <glyph glyph-name="dollar" unicode="$" horiz-adv-x="1245" 
d="M84 428h301q20 -74 84 -120t172 -46q100 0 159.5 46t59.5 122q0 125 -164 150l-219 32q-185 28 -281 126t-96 259q0 166 111.5 281t292.5 145v189h241v-193q166 -30 270.5 -131.5t127.5 -261.5h-297q-45 152 -236 152q-89 0 -148 -43.5t-59 -116.5q0 -111 154 -135
l217 -33q180 -30 284.5 -127t104.5 -270q0 -179 -111 -295t-307 -142v-198h-241v202q-175 31 -287 137.5t-133 270.5z" />
    <glyph glyph-name="percent" unicode="%" horiz-adv-x="1947" 
d="M324 0l1022 1442h278l-1024 -1442h-276zM449 1253q-63 0 -100.5 -49.5t-37.5 -124.5t37.5 -124.5t100.5 -49.5t99 49t36 125t-36 125t-99 49zM68 1079q0 169 108 278t273 109t272.5 -108.5t107.5 -278.5t-107.5 -279.5t-272.5 -109.5t-273 109.5t-108 279.5zM1499 537
q-63 0 -100 -49.5t-37 -125.5t37 -125t100 -49t100 49t37 125t-37 125.5t-100 49.5zM1118 362q0 170 108 280t273 110t273 -110t108 -280q0 -169 -108 -278t-273 -109t-273 109t-108 278z" />
    <glyph glyph-name="ampersand" unicode="&#x26;" horiz-adv-x="1505" 
d="M1464 666l-280 -347l284 -319h-338l-126 141l-15 -14q-162 -152 -405 -152q-222 0 -357 120t-135 308q0 132 75 231t236 175l-12 16q-45 49 -70 81.5t-48 88.5t-23 115q0 149 118 252.5t298 103.5q177 0 287 -100.5t110 -255.5q0 -115 -66.5 -201t-201.5 -157l229 -256
l135 170h305zM834 311l12 11l-287 323q-93 -44 -134.5 -98.5t-41.5 -128.5q0 -88 58.5 -141.5t162.5 -53.5q133 0 230 88zM518 1108q0 -35 18 -70.5t32.5 -52t41.5 -43.5l35 -35q158 84 158 203q0 57 -39.5 92t-99.5 35q-63 0 -104.5 -35t-41.5 -94z" />
    <glyph glyph-name="quotesingle" unicode="'" horiz-adv-x="557" 
d="M141 836v606h275l-19 -606h-256z" />
    <glyph glyph-name="parenleft" unicode="(" horiz-adv-x="794" 
d="M743 1489q-299 -413 -299 -907q0 -493 299 -906h-284q-61 75 -113.5 165.5t-99.5 204.5t-74 253t-27 283t27.5 283.5t74 253.5t99 204.5t113.5 165.5h284z" />
    <glyph glyph-name="parenright" unicode=")" horiz-adv-x="794" 
d="M49 1489h287q60 -75 112.5 -165.5t98.5 -204.5t73 -253t27 -284t-27 -283.5t-73 -252.5t-98.5 -204.5t-112.5 -165.5h-287q299 408 299 906q0 499 -299 907z" />
    <glyph glyph-name="asterisk" unicode="*" horiz-adv-x="974" 
d="M590 1466l-6 -282l268 92l63 -193l-270 -84l168 -227l-162 -117l-164 230l-161 -230l-166 117l170 227l-271 84l62 193l268 -90l-4 280h205z" />
    <glyph glyph-name="plus" unicode="+" horiz-adv-x="1314" 
d="M516 1081h281v-387h370v-270h-370v-387h-281v387h-369v270h369v387z" />
    <glyph glyph-name="comma" unicode="," horiz-adv-x="604" 
d="M481 147q0 -59 -24 -122l-135 -349h-218l123 322q-47 20 -77.5 59t-30.5 99q0 73 50.5 121.5t127.5 48.5q78 0 131 -52t53 -127z" />
    <glyph glyph-name="hyphen" unicode="-" horiz-adv-x="907" 
d="M121 424v270h665v-270h-665z" />
    <glyph glyph-name="period" unicode="." horiz-adv-x="604" 
d="M303 332q75 0 126.5 -51.5t51.5 -126.5t-51.5 -127t-126.5 -52q-76 0 -129 52t-53 127t52.5 126.5t129.5 51.5z" />
    <glyph glyph-name="slash" unicode="/" horiz-adv-x="837" 
d="M543 1489h282l-528 -1813h-285z" />
    <glyph glyph-name="zero" unicode="0" horiz-adv-x="1372" 
d="M686 1466q176 0 308.5 -93.5t204 -262t71.5 -389.5t-71 -390t-204 -262.5t-309 -93.5t-309 93.5t-204 262.5t-71 390t71.5 389.5t204 262t308.5 93.5zM686 248q89 0 151.5 63t91.5 168t29 242t-29 242t-91.5 168t-151.5 63t-151 -63.5t-90.5 -168t-28.5 -241.5
t28.5 -241.5t90.5 -168t151 -63.5z" />
    <glyph glyph-name="one" unicode="1" horiz-adv-x="935" 
d="M723 1442v-1442h-307v1104l-326 -207v307l350 238h283z" />
    <glyph glyph-name="two" unicode="2" horiz-adv-x="1280" 
d="M838 1018q0 78 -56 128t-145 50q-93 0 -150 -47.5t-71 -126.5h-301q18 196 159 320t369 124q233 0 370.5 -124.5t137.5 -313.5q0 -73 -19 -137.5t-57.5 -121t-79.5 -100t-102 -96.5l-348 -303h631v-270h-1051v254l545 491q88 79 128 139t40 134z" />
    <glyph glyph-name="three" unicode="3" horiz-adv-x="1292" 
d="M111 1042q14 131 89.5 228t190 146.5t252.5 49.5q226 0 364 -113.5t138 -285.5q0 -118 -62.5 -196.5t-148.5 -112.5q46 -13 88.5 -38t83.5 -66t65.5 -104t24.5 -140q0 -190 -151.5 -312.5t-389.5 -122.5q-231 0 -386.5 118.5t-172.5 320.5h303q18 -76 85 -123t171 -47
q98 0 163 50.5t65 135.5q0 87 -66.5 131.5t-173.5 44.5h-160v258h135q100 0 158 47t58 123q0 74 -54.5 119t-146.5 45q-90 0 -147.5 -43.5t-71.5 -112.5h-303z" />
    <glyph glyph-name="four" unicode="4" horiz-adv-x="1345" 
d="M1073 0h-301v285h-688v254l598 903h391v-899h193v-258h-193v-285zM387 543h385v577z" />
    <glyph glyph-name="five" unicode="5" horiz-adv-x="1306" 
d="M664 244q103 0 167 64.5t64 168.5q0 103 -66.5 165.5t-162.5 62.5q-152 0 -226 -117h-307l70 854h921v-271h-659l-33 -346q113 127 311 127q91 0 174 -30.5t148.5 -87.5t104 -148t38.5 -203q0 -157 -72.5 -273.5t-193.5 -175.5t-272 -59q-226 0 -376 119.5t-171 304.5
h309q15 -62 76.5 -108.5t155.5 -46.5z" />
    <glyph glyph-name="six" unicode="6" horiz-adv-x="1331" 
d="M770 948q90 0 174.5 -32.5t150 -90.5t105 -146.5t39.5 -193.5q0 -224 -148.5 -367t-383.5 -143q-285 0 -445 199t-160 535q0 188 45 334t126 237.5t189.5 138.5t239.5 47q212 0 350.5 -114.5t161.5 -282.5h-305q-15 53 -69 92t-138 39q-132 0 -211.5 -104t-89.5 -330
q59 92 156.5 137t212.5 45zM696 244q100 0 165 64.5t65 164.5t-67 163.5t-167 63.5q-98 0 -165.5 -62.5t-67.5 -164.5q0 -99 68 -164t169 -65z" />
    <glyph glyph-name="seven" unicode="7" horiz-adv-x="1169" 
d="M1087 1192l-544 -1192h-336l543 1171h-682v271h1019v-250z" />
    <glyph glyph-name="eight" unicode="8" horiz-adv-x="1325" 
d="M102 401q0 135 77 226.5t181 122.5q-95 41 -157 119t-62 198q0 82 36 154t102 126.5t165.5 86.5t219.5 32q236 0 378 -115.5t142 -283.5q0 -120 -62 -198t-157 -119q104 -31 181 -122.5t77 -226.5q0 -186 -155 -306t-404 -120q-250 0 -406 120t-156 306zM874 1032
q0 79 -58 128.5t-152 49.5q-95 0 -154 -49t-59 -129q0 -76 61.5 -127t151.5 -51q88 0 149 51t61 127zM905 426q0 88 -67 143.5t-174 55.5q-108 0 -176 -55.5t-68 -143.5q0 -86 67.5 -140.5t176.5 -54.5q108 0 174.5 54.5t66.5 140.5z" />
    <glyph glyph-name="nine" unicode="9" horiz-adv-x="1331" 
d="M561 494q-122 0 -227.5 54t-173.5 161.5t-68 246.5q0 224 149 367t384 143q285 0 444.5 -198.5t159.5 -534.5q0 -188 -45 -334t-126 -238t-189.5 -139t-239.5 -47q-212 0 -350.5 115t-161.5 283h305q15 -53 69 -92t138 -39q132 0 211 104.5t88 331.5q-59 -94 -156 -139
t-211 -45zM635 1198q-100 0 -164.5 -64.5t-64.5 -164.5t67 -164t166 -64q98 0 164.5 63t66.5 165q0 99 -67.5 164t-167.5 65z" />
    <glyph glyph-name="colon" unicode=":" horiz-adv-x="604" 
d="M303 332q75 0 126.5 -51.5t51.5 -126.5t-51.5 -127t-126.5 -52q-76 0 -129 52t-53 127t52.5 126.5t129.5 51.5zM303 1028q75 0 126.5 -51.5t51.5 -126.5t-51.5 -126.5t-126.5 -51.5q-77 0 -129.5 51.5t-52.5 126.5t52.5 126.5t129.5 51.5z" />
    <glyph glyph-name="semicolon" unicode=";" horiz-adv-x="604" 
d="M481 147q0 -59 -24 -122l-135 -349h-218l123 322q-47 20 -77.5 59t-30.5 99q0 73 50.5 121.5t127.5 48.5q78 0 131 -52t53 -127zM303 1028q75 0 126.5 -51.5t51.5 -126.5t-51.5 -126.5t-126.5 -51.5q-77 0 -129.5 51.5t-52.5 126.5t52.5 126.5t129.5 51.5z" />
    <glyph glyph-name="less" unicode="&#x3c;" horiz-adv-x="1314" 
d="M1163 10l-1009 434v228l1009 436v-287l-633 -262l633 -262v-287z" />
    <glyph glyph-name="equal" unicode="=" horiz-adv-x="1314" 
d="M164 666v258h987v-258h-987zM164 193v258h987v-258h-987z" />
    <glyph glyph-name="greater" unicode="&#x3e;" horiz-adv-x="1314" 
d="M154 10v287l630 262l-630 262v287l1009 -436v-228z" />
    <glyph glyph-name="question" unicode="?" horiz-adv-x="1112" 
d="M731 1061q0 64 -47 102.5t-127 38.5q-85 0 -139.5 -41t-69.5 -114h-280q12 182 147 300.5t348 118.5q217 0 341 -110.5t124 -278.5q0 -33 -4.5 -63t-9.5 -53t-17.5 -47t-20 -39t-26.5 -34.5t-27.5 -28.5t-32 -26.5t-30.5 -22.5t-34 -22t-31 -20q-33 -21 -43 -28
t-33.5 -25t-31.5 -29.5t-20 -31t-16 -41.5t-4 -50v-39h-274v70q0 69 13 119t42.5 88.5t61 64t85.5 60.5q85 55 109 78q47 46 47 104zM518 332q75 0 126.5 -51.5t51.5 -126.5t-51.5 -127t-126.5 -52q-76 0 -129 52t-53 127t52.5 126.5t129.5 51.5z" />
    <glyph glyph-name="at" unicode="@" horiz-adv-x="1855" 
d="M965 1446q178 0 330 -60.5t258.5 -165.5t166.5 -253t60 -318q0 -134 -31.5 -232t-87.5 -153.5t-124.5 -81.5t-150.5 -26q-186 0 -260 141q-86 -141 -266 -141q-155 0 -260.5 115.5t-105.5 318.5q0 192 105 312t263 120q155 0 234 -117v94h254v-524q0 -48 24.5 -77
t65.5 -29q123 0 123 280q0 268 -159.5 433t-442.5 165q-133 0 -250.5 -46.5t-206 -131.5t-140 -212.5t-51.5 -281.5q0 -156 55 -281t149 -203.5t214 -119.5t256 -41q195 0 354 56v-197q-142 -55 -356 -55q-183 0 -344.5 57t-282.5 162t-191.5 265.5t-70.5 356.5
q0 194 69.5 359t187.5 276t276.5 173.5t335.5 62.5zM920 379q74 0 122 55.5t48 147.5v14q0 91 -48 147t-122 56q-70 0 -117 -57t-47 -152t47 -153t117 -58z" />
    <glyph glyph-name="A" unicode="A" horiz-adv-x="1431" 
d="M553 1442h324l528 -1442h-324l-102 297h-528l-101 -297h-323zM713 1079l-174 -520h348z" />
    <glyph glyph-name="B" unicode="B" horiz-adv-x="1323" 
d="M152 0v1442h581q112 0 200.5 -29.5t143.5 -81.5t84 -119.5t29 -146.5q0 -117 -54.5 -195.5t-134.5 -113.5q98 -29 171 -115.5t73 -226.5q0 -183 -131.5 -298.5t-355.5 -115.5h-606zM719 614h-256v-354h254q96 0 153.5 47t57.5 129q0 83 -56.5 130.5t-152.5 47.5z
M684 1182h-221v-324h229q88 0 135 45.5t47 116.5q0 77 -49 119.5t-141 42.5z" />
    <glyph glyph-name="C" unicode="C" horiz-adv-x="1464" 
d="M1075 498h311q-5 -75 -31 -147.5t-77 -141t-122 -120t-173.5 -83t-222.5 -31.5q-143 0 -266 52t-213.5 146t-142.5 235.5t-52 312.5q0 220 86 390t239 262.5t349 92.5q138 0 251.5 -41t190 -112.5t123 -164.5t59.5 -202h-311q-27 104 -106.5 172t-206.5 68
q-157 0 -255.5 -127t-98.5 -338q0 -208 97.5 -336.5t258.5 -128.5q70 0 128 22.5t95.5 59t60 77.5t29.5 83z" />
    <glyph glyph-name="D" unicode="D" horiz-adv-x="1466" 
d="M662 1442q342 0 530 -192t188 -529t-188 -529t-530 -192h-510v1442h510zM635 274q209 0 317.5 116.5t108.5 330.5t-108 330t-318 116h-170v-893h170z" />
    <glyph glyph-name="E" unicode="E" horiz-adv-x="1220" 
d="M1118 1163h-653v-295h614v-268h-614v-321h653v-279h-966v1442h966v-279z" />
    <glyph glyph-name="F" unicode="F" horiz-adv-x="1206" 
d="M465 0h-313v1442h960v-281h-647v-327h600v-269h-600v-565z" />
    <glyph glyph-name="G" unicode="G" horiz-adv-x="1503" 
d="M756 791h651v-162q0 -191 -72 -337.5t-217.5 -231.5t-347.5 -85q-147 0 -273.5 53.5t-217 149.5t-142 236t-51.5 307q0 215 83 383.5t240 265t363 96.5q130 0 240 -38.5t186.5 -105.5t127 -153.5t69.5 -187.5h-318q-31 94 -107 150.5t-196 56.5q-165 0 -266.5 -124.5
t-101.5 -342.5q0 -223 104.5 -347t269.5 -124q149 0 231.5 80.5t82.5 199.5v7h-338v254z" />
    <glyph glyph-name="H" unicode="H" horiz-adv-x="1513" 
d="M465 0h-313v1442h313v-563h584v563h313v-1442h-313v598h-584v-598z" />
    <glyph glyph-name="I" unicode="I" horiz-adv-x="616" 
d="M465 1442v-1442h-313v1442h313z" />
    <glyph glyph-name="J" unicode="J" horiz-adv-x="1183" 
d="M47 418h305q5 -64 52.5 -113t130.5 -49q93 0 142.5 60.5t49.5 170.5v955h313v-959q0 -241 -135 -374.5t-373 -133.5q-217 0 -350 126t-135 317z" />
    <glyph glyph-name="K" unicode="K" horiz-adv-x="1361" 
d="M465 0h-313v1442h313v-594l504 594h366l-577 -692l590 -750h-381l-502 629v-629z" />
    <glyph glyph-name="L" unicode="L" horiz-adv-x="1189" 
d="M465 1442v-1163h653v-279h-966v1442h313z" />
    <glyph glyph-name="M" unicode="M" horiz-adv-x="1875" 
d="M152 1442h389l399 -1012l397 1012h387v-1442h-292v969l-379 -957h-230l-377 949v-961h-294v1442z" />
    <glyph glyph-name="N" unicode="N" horiz-adv-x="1529" 
d="M479 1442l598 -914v914h301v-1442h-295l-630 958v-958h-301v1442h327z" />
    <glyph glyph-name="O" unicode="O" horiz-adv-x="1552" 
d="M776 1466q202 0 359 -92.5t244 -262.5t87 -390t-87 -390t-244 -263t-359 -93t-359 93t-244 263t-87 390t87 390t244 262.5t359 92.5zM776 256q171 0 271 130t100 335t-100 335t-271 130t-270.5 -129.5t-99.5 -335.5t99.5 -335.5t270.5 -129.5z" />
    <glyph glyph-name="P" unicode="P" horiz-adv-x="1292" 
d="M700 1442q243 0 381 -136.5t138 -351.5q0 -209 -140 -347t-370 -138h-244v-469h-313v1442h548zM672 1174h-207v-437h207q105 0 167 60.5t62 156.5q0 99 -60.5 159.5t-168.5 60.5z" />
    <glyph glyph-name="Q" unicode="Q" horiz-adv-x="1552" 
d="M776 1466q202 0 359 -92.5t244 -262.5t87 -390q0 -181 -61 -329.5t-172 -248.5l180 -270h-311l-92 139q-116 -37 -234 -37q-202 0 -359 93t-244 263t-87 390t87 390t244 262.5t359 92.5zM776 254q36 0 70 6l-156 238h309l64 -97q84 125 84 320q0 207 -100 337t-271 130
t-270.5 -130t-99.5 -337t99.5 -337t270.5 -130z" />
    <glyph glyph-name="R" unicode="R" horiz-adv-x="1335" 
d="M1225 967q0 -137 -64.5 -247.5t-181.5 -170.5l326 -549h-351l-286 489h-203v-489h-313v1442h557q121 0 219.5 -36.5t163 -100.5t99 -150.5t34.5 -187.5zM682 1174h-217v-420h217q105 0 165 58.5t60 150.5q0 94 -59.5 152.5t-165.5 58.5z" />
    <glyph glyph-name="S" unicode="S" horiz-adv-x="1298" 
d="M84 414h315q22 -79 89 -126.5t180 -47.5q106 0 167.5 48.5t61.5 127.5q0 130 -170 155l-231 37q-194 29 -295 131.5t-101 270.5q0 202 152 329t385 127q230 0 380 -113t179 -313h-311q-48 160 -248 160q-95 0 -157 -46t-62 -122q0 -118 164 -141l227 -35
q189 -29 297 -131.5t108 -284.5q0 -214 -147 -339.5t-401 -125.5q-239 0 -396.5 117.5t-185.5 321.5z" />
    <glyph glyph-name="T" unicode="T" horiz-adv-x="1298" 
d="M63 1163v279h1172v-279h-428v-1163h-313v1163h-431z" />
    <glyph glyph-name="U" unicode="U" horiz-adv-x="1495" 
d="M141 586v856h314v-848q0 -162 78.5 -250t214.5 -88t214 88t78 250v848h314v-856q0 -152 -46 -270t-128.5 -192t-191.5 -111.5t-240 -37.5t-240.5 37.5t-192 111.5t-128.5 192t-46 270z" />
    <glyph glyph-name="V" unicode="V" horiz-adv-x="1406" 
d="M1380 1442l-514 -1442h-325l-514 1442h329l349 -1045l346 1045h329z" />
    <glyph glyph-name="W" unicode="W" horiz-adv-x="2072" 
d="M2030 1442l-426 -1442h-297l-273 993l-270 -993h-295l-426 1442h317l267 -942l266 942h287l268 -944l266 944h316z" />
    <glyph glyph-name="X" unicode="X" horiz-adv-x="1425" 
d="M1026 0l-317 494l-316 -494h-350l475 725l-471 717h359l311 -492l315 492h346l-471 -723l475 -719h-356z" />
    <glyph glyph-name="Y" unicode="Y" horiz-adv-x="1370" 
d="M842 0h-314v547l-508 895h340l326 -596l326 596h338l-508 -895v-547z" />
    <glyph glyph-name="Z" unicode="Z" horiz-adv-x="1288" 
d="M102 248l695 915h-695v279h1082v-246l-695 -917h695v-279h-1082v248z" />
    <glyph glyph-name="bracketleft" unicode="[" horiz-adv-x="794" 
d="M739 1241h-260v-1317h260v-248h-546v1813h546v-248z" />
    <glyph glyph-name="backslash" unicode="\" horiz-adv-x="837" 
d="M297 1489l528 -1813h-284l-529 1813h285z" />
    <glyph glyph-name="bracketright" unicode="]" horiz-adv-x="794" 
d="M55 -324v248h260v1317h-260v248h547v-1813h-547z" />
    <glyph glyph-name="asciicircum" unicode="^" horiz-adv-x="995" 
d="M950 702h-268l-180 441l-191 -441h-268l336 723h252z" />
    <glyph glyph-name="underscore" unicode="_" horiz-adv-x="989" 
d="M0 -98h989v-254h-989v254z" />
    <glyph glyph-name="grave" unicode="`" horiz-adv-x="1064" 
d="M299 1548h274l193 -348h-244z" />
    <glyph glyph-name="a" unicode="a" horiz-adv-x="1146" 
d="M735 702q0 71 -48 110.5t-126 39.5q-72 0 -115.5 -28.5t-56.5 -73.5h-278q23 145 143.5 239t318.5 94q209 0 332 -101t123 -290v-692h-276v115q-111 -140 -314 -140q-159 0 -263.5 90.5t-104.5 245.5q0 162 115.5 252t318.5 90h231v49zM520 207q90 0 152.5 51.5
t62.5 140.5v47h-209q-70 0 -113.5 -32t-43.5 -88q0 -55 41 -87t110 -32z" />
    <glyph glyph-name="b" unicode="b" horiz-adv-x="1255" 
d="M725 1083q196 0 327.5 -149t131.5 -406q0 -254 -133 -403.5t-334 -149.5q-108 0 -186 40.5t-115 105.5v-121h-287v1489h299v-537q44 59 119.5 95t177.5 36zM653 233q104 0 167 80t63 215t-63 216t-167 81t-167.5 -80t-63.5 -213v-8q0 -133 63 -212t168 -79z" />
    <glyph glyph-name="c" unicode="c" horiz-adv-x="1146" 
d="M600 233q85 0 133 43t64 105h284q-14 -176 -145 -291t-338 -115q-239 0 -382.5 155t-143.5 398q0 118 37 220t104 176.5t166.5 116.5t218.5 42q209 0 336 -116.5t145 -286.5h-286q-18 60 -66.5 102.5t-128.5 42.5q-104 0 -165.5 -81.5t-61.5 -215.5q0 -135 62.5 -215
t166.5 -80z" />
    <glyph glyph-name="d" unicode="d" horiz-adv-x="1255" 
d="M530 -25q-95 0 -178 37.5t-145.5 106.5t-98.5 174.5t-36 234.5q0 255 133 405t334 150q98 0 173 -35.5t115 -93.5v535h299v-1489h-286v125q-43 -67 -121.5 -108.5t-188.5 -41.5zM602 825q-104 0 -167.5 -81t-63.5 -216q0 -133 63.5 -214t167.5 -81t168 79.5t64 211.5v8
q0 134 -63.5 213.5t-168.5 79.5z" />
    <glyph glyph-name="e" unicode="e" horiz-adv-x="1159" 
d="M1087 444h-714v-4q0 -98 66.5 -163.5t172.5 -65.5q70 0 117 28.5t59 63.5h289q-12 -59 -44.5 -114t-88 -104.5t-143 -79.5t-195.5 -30q-244 0 -389 146.5t-145 402.5q0 257 142.5 408t375.5 151q227 0 362 -145t135 -391v-103zM592 850q-90 0 -147.5 -52t-69.5 -145h422
q-6 91 -61 144t-144 53z" />
    <glyph glyph-name="f" unicode="f" horiz-adv-x="741" 
d="M496 0h-299v815h-164v244h164v69q0 178 99 269.5t296 91.5h96v-238h-53q-146 0 -146 -133v-59h199v-244h-192v-815z" />
    <glyph glyph-name="g" unicode="g" horiz-adv-x="1253" 
d="M838 1059h286v-983q0 -234 -139 -370t-383 -136q-114 0 -206.5 30t-151 81t-92.5 113t-41 130h292q38 -117 201 -117q107 0 164 70.5t57 200.5v72q-97 -134 -297 -134q-197 0 -326.5 143.5t-129.5 389.5q0 239 132 386.5t333 147.5q109 0 186.5 -40.5t114.5 -102.5v119z
M602 268q105 0 167 78.5t62 198.5v8q0 120 -61 199t-168 79q-105 0 -168 -79.5t-63 -202.5t63 -202t168 -79z" />
    <glyph glyph-name="h" unicode="h" horiz-adv-x="1222" 
d="M723 1083q77 0 144 -23.5t121 -70.5t85 -127.5t31 -185.5v-676h-299v610q0 101 -49 153t-133 52q-81 0 -138 -53.5t-57 -155.5v-606h-299v1489h299v-537q44 56 120.5 93.5t174.5 37.5z" />
    <glyph glyph-name="i" unicode="i" horiz-adv-x="557" 
d="M428 1059v-1059h-299v1059h299zM276 1534q72 0 122.5 -49t50.5 -119q0 -72 -50.5 -121t-122.5 -49t-121 49t-49 121q0 71 49 119.5t121 48.5z" />
    <glyph glyph-name="j" unicode="j" horiz-adv-x="557" 
d="M-41 -395v239h43q129 0 129 168v1047h297v-1057q0 -205 -92 -301t-303 -96h-74zM279 1534q72 0 122 -49t50 -119q0 -72 -50 -121t-122 -49t-121 49t-49 121q0 71 49 119.5t121 48.5z" />
    <glyph glyph-name="k" unicode="k" horiz-adv-x="1130" 
d="M428 0h-299v1489h299v-850l346 420h338l-412 -498l420 -561h-348l-344 469v-469z" />
    <glyph glyph-name="l" unicode="l" horiz-adv-x="557" 
d="M428 1489v-1489h-299v1489h299z" />
    <glyph glyph-name="m" unicode="m" horiz-adv-x="1843" 
d="M1352 1083q72 0 136.5 -23t118 -69t85.5 -126t32 -183v-682h-299v621q0 98 -47 146t-123 48t-128 -52t-52 -145v-618h-299v621q0 98 -47 146t-123 48t-127 -52t-51 -145v-618h-299v1059h287v-123q50 72 128 109.5t167 37.5q93 0 173.5 -40.5t129.5 -122.5q58 79 148 121
t190 42z" />
    <glyph glyph-name="n" unicode="n" horiz-adv-x="1222" 
d="M129 1059h287v-125q41 63 120.5 106t186.5 43q77 0 144 -23.5t121 -70.5t85 -127.5t31 -185.5v-676h-299v610q0 101 -49 153t-133 52q-81 0 -138 -53.5t-57 -155.5v-606h-299v1059z" />
    <glyph glyph-name="o" unicode="o" horiz-adv-x="1210" 
d="M606 1083q236 0 384.5 -153t148.5 -402t-148.5 -401t-384.5 -152q-238 0 -386 152t-148 401t148.5 402t385.5 153zM606 233q107 0 170.5 82t63.5 213q0 132 -63.5 214.5t-170.5 82.5q-109 0 -172 -82t-63 -215q0 -131 63.5 -213t171.5 -82z" />
    <glyph glyph-name="p" unicode="p" horiz-adv-x="1255" 
d="M725 1083q196 0 327.5 -149t131.5 -406q0 -254 -133 -403.5t-334 -149.5q-99 0 -174 34.5t-115 92.5v-493h-299v1450h287v-123q43 66 121 106.5t188 40.5zM653 233q104 0 167 80t63 215t-63 216t-167 81t-167.5 -80t-63.5 -213v-8q0 -133 63 -212t168 -79z" />
    <glyph glyph-name="q" unicode="q" horiz-adv-x="1255" 
d="M530 -25q-95 0 -178 37.5t-145.5 106.5t-98.5 174.5t-36 234.5q0 255 133 405t334 150q108 0 186 -41t115 -108v125h286v-1450h-299v497q-44 -59 -119.5 -95t-177.5 -36zM602 825q-104 0 -167.5 -81t-63.5 -216q0 -133 63.5 -214t167.5 -81t168 79.5t64 211.5v8
q0 134 -63.5 213.5t-168.5 79.5z" />
    <glyph glyph-name="r" unicode="r" horiz-adv-x="827" 
d="M723 1063h53v-283h-69q-134 0 -206.5 -64t-72.5 -179v-537h-299v1059h287v-166q95 170 307 170z" />
    <glyph glyph-name="s" unicode="s" horiz-adv-x="1062" 
d="M362 313q12 -54 61.5 -83t123.5 -29q73 0 114 29t41 79q0 40 -29 61t-87 29l-180 21q-320 39 -320 311q0 156 124.5 254t317.5 98q186 0 306.5 -88t140.5 -243h-289q-30 104 -166 104q-65 0 -105 -29.5t-40 -72.5q0 -75 110 -88l189 -23q148 -18 233.5 -96t85.5 -219
q0 -165 -125.5 -259t-320.5 -94q-124 0 -225 35t-170 113t-80 190h290z" />
    <glyph glyph-name="t" unicode="t" horiz-adv-x="765" 
d="M492 393q0 -80 34.5 -109.5t106.5 -29.5h61v-256h-114q-200 0 -293.5 87t-93.5 286v444h-162v244h162v270h299v-270h202v-244h-202v-422z" />
    <glyph glyph-name="u" unicode="u" horiz-adv-x="1222" 
d="M1096 0h-287v123q-42 -63 -122 -105.5t-187 -42.5q-77 0 -143 23t-120 70.5t-85 128t-31 186.5v676h297v-610q0 -101 49.5 -153t134.5 -52q81 0 138 53t57 156v606h299v-1059z" />
    <glyph glyph-name="v" unicode="v" horiz-adv-x="1112" 
d="M1104 1059l-393 -1059h-312l-391 1059h322l227 -694l227 694h320z" />
    <glyph glyph-name="w" unicode="w" horiz-adv-x="1667" 
d="M1651 1059l-330 -1059h-293l-197 694l-194 -694h-291l-328 1059h304l184 -647l184 647h289l184 -649l183 649h305z" />
    <glyph glyph-name="x" unicode="x" horiz-adv-x="1126" 
d="M768 0l-213 326l-209 -326h-326l361 532l-356 527h337l209 -332l211 332h320l-357 -535l361 -524h-338z" />
    <glyph glyph-name="y" unicode="y" horiz-adv-x="1126" 
d="M799 1059h319l-557 -1450h-317l159 420l-395 1030h322l233 -682z" />
    <glyph glyph-name="z" unicode="z" horiz-adv-x="1046" 
d="M86 0v231l500 570h-500v258h875v-234l-500 -569h500v-256h-875z" />
    <glyph glyph-name="braceleft" unicode="{" horiz-adv-x="819" 
d="M541 856q0 -236 -187 -274q187 -38 187 -277v-190q0 -104 35 -147.5t118 -43.5h68v-248h-82q-206 0 -317 90t-111 291v201q0 105 -33 152t-115 47h-61v245h61q82 0 115 48t33 153v205q0 201 111 291t317 90h82v-248h-68q-83 0 -118 -43t-35 -147v-195z" />
    <glyph glyph-name="bar" unicode="|" horiz-adv-x="651" 
d="M184 1489h283v-1813h-283v1813z" />
    <glyph glyph-name="braceright" unicode="}" horiz-adv-x="819" 
d="M279 856v195q0 103 -36 146.5t-118 43.5h-70v248h84q205 0 315.5 -90t110.5 -291v-205q0 -105 33 -153t115 -48h61v-245h-61q-82 0 -115 -47t-33 -152v-201q0 -201 -110.5 -291t-315.5 -90h-84v248h70q82 0 118 43.5t36 147.5v190q0 239 184 277q-184 38 -184 274z" />
    <glyph glyph-name="asciitilde" unicode="~" horiz-adv-x="1314" 
d="M942 754h240v-64q0 -163 -93 -255.5t-229 -92.5q-55 0 -105.5 17.5t-87.5 42.5t-70 50t-65.5 42.5t-60.5 17.5q-43 0 -70.5 -31t-27.5 -80v-41h-238v62q0 164 92.5 256t229.5 92q55 0 105.5 -17.5t87.5 -42t70 -49t65.5 -42t60.5 -17.5q42 0 69 30t27 79v43z" />
    <glyph glyph-name="uni00A0" unicode="&#xa0;" horiz-adv-x="442" 
 />
    <glyph glyph-name="exclamdown" unicode="&#xa1;" horiz-adv-x="686" 
d="M209 578h264l23 -969h-310zM344 1083q75 0 126.5 -51.5t51.5 -126.5t-51.5 -126.5t-126.5 -51.5q-77 0 -129.5 51.5t-52.5 126.5t52.5 126.5t129.5 51.5z" />
    <glyph glyph-name="cent" unicode="&#xa2;" horiz-adv-x="1191" 
d="M623 418q88 0 139.5 42.5t66.5 104.5h285q-12 -152 -116 -260t-271 -137v-188h-240v194q-185 41 -293 189t-108 358q0 208 108 357t293 190v194h240v-190q165 -28 267 -138t118 -255h-287q-17 59 -70 102t-137 43q-105 0 -169 -83t-64 -220q0 -139 65.5 -221t172.5 -82z
" />
    <glyph glyph-name="sterling" unicode="&#xa3;" horiz-adv-x="1245" 
d="M1016 588h-422q0 -172 -141 -322h700v-266h-1061v248q82 67 142.5 156.5t60.5 179.5v4h-209v227h139q-47 124 -47 221q0 184 134 307t354 123q211 0 341.5 -116t151.5 -293h-299q-16 65 -66.5 105t-127.5 40q-83 0 -132 -48.5t-49 -133.5q0 -21 2.5 -40.5t10.5 -45.5
t11 -35.5t17 -45t15 -38.5h475v-227z" />
    <glyph glyph-name="currency" unicode="&#xa4;" horiz-adv-x="1294" 
d="M1122 721q0 -125 -67 -234l176 -172l-178 -182l-179 180q-105 -57 -227 -57t-227 57l-178 -180l-179 182l175 170q-66 113 -66 236q0 120 66 233l-175 172l179 183l178 -181q107 58 227 58q117 0 227 -60l179 183l178 -183l-176 -172q67 -109 67 -233zM436 721
q0 -95 62.5 -155t148.5 -60q88 0 150.5 59t62.5 156q0 95 -62.5 155t-150.5 60q-86 0 -148.5 -60.5t-62.5 -154.5z" />
    <glyph glyph-name="yen" unicode="&#xa5;" horiz-adv-x="1320" 
d="M1141 231h-328v-231h-305v231h-328v203h328v125h-328v203h228l-377 680h329l302 -576l301 576h327l-377 -680h228v-203h-328v-125h328v-203z" />
    <glyph glyph-name="brokenbar" unicode="&#xa6;" horiz-adv-x="651" 
d="M467 424v-748h-283v748h283zM184 741v748h283v-748h-283z" />
    <glyph glyph-name="section" unicode="&#xa7;" horiz-adv-x="1153" 
d="M80 563q0 99 55 171t137 110q-137 89 -137 256q0 161 126.5 263.5t322.5 102.5q179 0 305 -91t141 -245h-293q-12 47 -53.5 76t-105.5 29q-65 0 -105.5 -31t-40.5 -82q0 -83 121 -104l227 -43q137 -26 215 -106.5t78 -198.5q0 -91 -51 -161.5t-127 -109.5
q61 -45 95 -111.5t34 -144.5q0 -164 -127.5 -269t-327.5 -105q-195 0 -322.5 92t-140.5 256h295q10 -54 57 -84.5t117 -30.5q68 0 110 32.5t42 84.5q0 88 -121 110l-229 41q-135 24 -216 99.5t-81 193.5zM375 633q0 -53 35.5 -84.5t97.5 -40.5l176 -33q40 24 66 60t26 79
q0 105 -141 131l-154 29q-47 -23 -76.5 -59.5t-29.5 -81.5z" />
    <glyph glyph-name="dieresis" unicode="&#xa8;" horiz-adv-x="1064" 
d="M307 1522q66 0 113 -46.5t47 -111.5q0 -66 -47 -113t-113 -47q-67 0 -114.5 47t-47.5 113q0 65 47.5 111.5t114.5 46.5zM756 1522q67 0 113 -46.5t46 -111.5q0 -66 -46 -113t-113 -47t-113.5 47t-46.5 113q0 65 46.5 111.5t113.5 46.5z" />
    <glyph glyph-name="ordfeminine" unicode="&#xaa;" horiz-adv-x="841" 
d="M530 1192q0 51 -31.5 76.5t-86.5 25.5q-96 0 -115 -65h-213q15 104 107 170.5t231 66.5q154 0 244 -71.5t90 -204.5v-481h-209v82q-79 -101 -228 -101q-114 0 -190 64.5t-76 173.5q0 113 84.5 176t233.5 63h159v25zM387 864q59 0 101 33.5t42 89.5v29h-143q-52 0 -78 -21
t-26 -55t29 -55t75 -21z" />
    <glyph glyph-name="guillemotleft" unicode="&#xab;" horiz-adv-x="1400" 
d="M418 539l348 -441h-313l-359 441l359 442h313zM956 539l349 -441h-314l-358 441l358 442h314z" />
    <glyph glyph-name="logicalnot" unicode="&#xac;" horiz-adv-x="1314" 
d="M152 836h997v-617h-279v344h-718v273z" />
    <glyph glyph-name="uni00AD" unicode="&#xad;" horiz-adv-x="907" 
d="M121 424v270h665v-270h-665z" />
    <glyph glyph-name="macron" unicode="&#xaf;" horiz-adv-x="1064" 
d="M203 1468h659v-211h-659v211z" />
    <glyph glyph-name="degree" unicode="&#xb0;" horiz-adv-x="974" 
d="M893 1057q0 -171 -119 -286.5t-287 -115.5q-169 0 -287 115t-118 287q0 170 118 284.5t287 114.5q168 0 287 -114.5t119 -284.5zM315 1057q0 -75 50 -124.5t122 -49.5q71 0 120.5 49.5t49.5 124.5q0 74 -49.5 123t-120.5 49q-72 0 -122 -49t-50 -123z" />
    <glyph glyph-name="plusminus" unicode="&#xb1;" horiz-adv-x="1314" 
d="M1157 563h-369v-313h369v-246h-997v246h366v313h-368v236h368v323h262v-323h369v-236z" />
    <glyph glyph-name="twosuperior" unicode="&#xb2;" horiz-adv-x="841" 
d="M406 887h370v-203h-694v190l348 302q31 27 47 43.5t30.5 41t14.5 48.5q0 37 -29.5 61.5t-76.5 24.5q-46 0 -76.5 -23t-38.5 -61h-229q9 125 103.5 205.5t246.5 80.5q155 0 247.5 -79.5t92.5 -198.5q0 -87 -41 -146.5t-119 -123.5z" />
    <glyph glyph-name="threesuperior" unicode="&#xb3;" horiz-adv-x="854" 
d="M70 1323q12 125 113.5 199.5t240.5 74.5q147 0 240.5 -70.5t93.5 -176.5q0 -72 -39.5 -121.5t-93.5 -73.5q66 -17 117 -74t51 -141q0 -120 -102.5 -197t-260.5 -77q-151 0 -255.5 78.5t-113.5 209.5h230q11 -38 48 -63t91 -25q52 0 86.5 24.5t34.5 67.5q0 41 -34.5 62.5
t-92.5 21.5h-102v195h79q55 0 87 22.5t32 59.5q0 35 -29.5 56.5t-76.5 21.5q-44 0 -76 -22t-37 -52h-231z" />
    <glyph glyph-name="acute" unicode="&#xb4;" horiz-adv-x="1064" 
d="M766 1548l-223 -348h-244l193 348h274z" />
    <glyph glyph-name="mu" unicode="&#xb5;" horiz-adv-x="1234" 
d="M807 1059h299v-1059h-287v123q-42 -63 -122 -105.5t-187 -42.5q-43 0 -82 17v-383h-299v1450h299v-610q0 -101 49.5 -153t134.5 -52q81 0 138 53t57 156v606z" />
    <glyph glyph-name="paragraph" unicode="&#xb6;" horiz-adv-x="1325" 
d="M80 1020q0 187 123.5 304.5t331.5 117.5h258v-1649h-240v809h-18q-207 0 -331 117.5t-124 300.5zM936 1442h238v-1649h-238v1649z" />
    <glyph glyph-name="periodcentered" unicode="&#xb7;" horiz-adv-x="604" 
d="M303 709q75 0 126.5 -52t51.5 -127t-51.5 -126.5t-126.5 -51.5q-77 0 -129.5 51.5t-52.5 126.5t53 127t129 52z" />
    <glyph glyph-name="cedilla" unicode="&#xb8;" horiz-adv-x="1064" 
d="M606 29v-29l-33 -100q71 -9 125 -57.5t54 -133.5q0 -104 -80 -166.5t-234 -62.5h-129v168h105q44 0 69 18t25 53q0 68 -92 68h-62v43l74 199h178z" />
    <glyph glyph-name="onesuperior" unicode="&#xb9;" horiz-adv-x="624" 
d="M489 1581v-897h-237v645l-195 -121v232l211 141h221z" />
    <glyph glyph-name="ordmasculine" unicode="&#xba;" horiz-adv-x="884" 
d="M442 1466q171 0 279 -107t108 -282q0 -173 -108.5 -280t-278.5 -107q-171 0 -280 107t-109 282q0 173 109.5 280t279.5 107zM442 887q72 0 115 53.5t43 136.5q0 85 -43 140t-115 55t-115.5 -54.5t-43.5 -138.5q0 -85 43.5 -138.5t115.5 -53.5z" />
    <glyph glyph-name="guillemotright" unicode="&#xbb;" horiz-adv-x="1400" 
d="M444 539l-350 442h316l356 -442l-356 -441h-316zM981 539l-348 442h313l359 -442l-359 -441h-313z" />
    <glyph glyph-name="onequarter" unicode="&#xbc;" horiz-adv-x="2039" 
d="M489 1442v-897h-237v645l-195 -121v231l211 142h221zM291 0l1022 1442h276l-1022 -1442h-276zM1987 352v-190h-119v-162h-230v162h-432v190l355 545h307v-545h119zM1434 352h204v310z" />
    <glyph glyph-name="onehalf" unicode="&#xbd;" horiz-adv-x="2097" 
d="M489 1442v-897h-237v645l-195 -121v231l211 142h221zM291 0l1022 1442h276l-1022 -1442h-276zM1661 203h371v-203h-695v190l349 302q31 27 47 43.5t30.5 41t14.5 48.5q0 37 -30 61.5t-77 24.5q-46 0 -76.5 -23t-38.5 -61h-229q9 125 103.5 205.5t246.5 80.5
q155 0 247.5 -79.5t92.5 -198.5q0 -46 -12.5 -85.5t-37.5 -73.5t-48.5 -57t-60.5 -54z" />
    <glyph glyph-name="threequarters" unicode="&#xbe;" horiz-adv-x="2269" 
d="M70 1184q12 125 113.5 199.5t240.5 74.5q147 0 240.5 -71t93.5 -177q0 -72 -39 -121t-94 -73q66 -17 117 -74t51 -141q0 -120 -102.5 -197.5t-260.5 -77.5q-151 0 -255.5 79t-113.5 210h230q11 -38 48 -63t91 -25q52 0 86.5 24.5t34.5 67.5q0 41 -34.5 62.5t-92.5 21.5
h-102v195h79q55 0 87 22.5t32 59.5q0 35 -29 56t-77 21q-45 0 -76.5 -21.5t-36.5 -51.5h-231zM520 0l1022 1442h277l-1022 -1442h-277zM2216 352v-190h-119v-162h-229v162h-432v190l354 545h307v-545h119zM1663 352h205v310z" />
    <glyph glyph-name="questiondown" unicode="&#xbf;" horiz-adv-x="1112" 
d="M594 1083q76 0 128 -51.5t52 -126.5t-52 -126.5t-128 -51.5q-75 0 -127.5 51.5t-52.5 126.5t52.5 126.5t127.5 51.5zM381 -4q0 -63 47.5 -102t126.5 -39q85 0 139.5 42t69.5 115h280q-12 -182 -147 -302t-348 -120q-217 0 -341 111.5t-124 280.5q0 73 16.5 129t55 98
t62.5 61t78 54q14 9 21 14q33 21 42.5 28t33.5 25t32 29t20 30.5t16 41.5t4 49v39h274v-68q0 -69 -13 -119t-42.5 -88.5t-61 -64t-85.5 -60.5q-84 -55 -108 -77q-48 -47 -48 -107z" />
    <glyph glyph-name="Agrave" unicode="&#xc0;" horiz-adv-x="1431" 
d="M553 1442h324l528 -1442h-324l-102 297h-528l-101 -297h-323zM713 1079l-174 -520h348zM362 1927h275l192 -348h-243z" />
    <glyph glyph-name="Aacute" unicode="&#xc1;" horiz-adv-x="1431" 
d="M553 1442h324l528 -1442h-324l-102 297h-528l-101 -297h-323zM713 1079l-174 -520h348zM1071 1927l-223 -348h-244l193 348h274z" />
    <glyph glyph-name="Acircumflex" unicode="&#xc2;" horiz-adv-x="1431" 
d="M553 1442h324l528 -1442h-324l-102 297h-528l-101 -297h-323zM713 1079l-174 -520h348zM561 1579h-258l291 348h246l290 -348h-258l-155 172z" />
    <glyph glyph-name="Atilde" unicode="&#xc3;" horiz-adv-x="1431" 
d="M553 1442h324l528 -1442h-324l-102 297h-528l-101 -297h-323zM713 1079l-174 -520h348zM911 1901h187v-46q0 -135 -64 -208.5t-172 -73.5q-47 0 -92.5 19t-73.5 42.5t-58 42.5t-50 19q-29 0 -48.5 -21t-19.5 -59v-29h-184v45q0 136 62.5 209.5t170.5 73.5q47 0 92.5 -19
t74 -41.5t58.5 -41.5t50 -19q30 0 48.5 20.5t18.5 57.5v29z" />
    <glyph glyph-name="Adieresis" unicode="&#xc4;" horiz-adv-x="1431" 
d="M553 1442h324l528 -1442h-324l-102 297h-528l-101 -297h-323zM713 1079l-174 -520h348zM483 1901q67 0 113.5 -47t46.5 -113t-46.5 -112t-113.5 -46t-113 46t-46 112t46 113t113 47zM952 1901q66 0 113 -47t47 -113t-47 -112t-113 -46q-67 0 -113 46t-46 112t46 113
t113 47z" />
    <glyph glyph-name="Aring" unicode="&#xc5;" horiz-adv-x="1431" 
d="M553 1442h324l528 -1442h-324l-102 297h-528l-101 -297h-323zM713 1079l-174 -520h348zM967 1794q0 -103 -71.5 -171.5t-178.5 -68.5t-178.5 68.5t-71.5 171.5q0 104 71 172t179 68t179 -68t71 -172zM629 1794q0 -38 25.5 -63t62.5 -25t62.5 25t25.5 63t-25.5 63
t-62.5 25t-62.5 -25t-25.5 -63z" />
    <glyph glyph-name="AE" unicode="&#xc6;" horiz-adv-x="2056" 
d="M817 1442h1137v-279h-654v-295h615v-268h-615v-321h654v-279h-963v299h-489l-168 -299h-328zM649 559h342v608z" />
    <glyph glyph-name="Ccedilla" unicode="&#xc7;" horiz-adv-x="1464" 
d="M1075 498h311q-6 -87 -41.5 -170.5t-98.5 -157.5t-165 -125.5t-229 -64.5l-27 -80q71 -9 125 -57.5t54 -133.5q0 -104 -80 -166.5t-234 -62.5h-129v168h105q44 0 69 18t25 53q0 68 -92 68h-62v43l56 152q-125 16 -230 74t-182 151t-120.5 225t-43.5 289q0 220 86 390
t239 262.5t349 92.5q138 0 251.5 -41t190 -112.5t123 -164.5t59.5 -202h-311q-27 104 -106.5 172t-206.5 68q-157 0 -255.5 -127t-98.5 -338q0 -208 97.5 -336.5t258.5 -128.5q70 0 128 22.5t95.5 59t60 77.5t29.5 83z" />
    <glyph glyph-name="Egrave" unicode="&#xc8;" horiz-adv-x="1220" 
d="M1118 1163h-653v-295h614v-268h-614v-321h653v-279h-966v1442h966v-279zM287 1927h274l193 -348h-244z" />
    <glyph glyph-name="Eacute" unicode="&#xc9;" horiz-adv-x="1220" 
d="M1118 1163h-653v-295h614v-268h-614v-321h653v-279h-966v1442h966v-279zM995 1927l-223 -348h-244l193 348h274z" />
    <glyph glyph-name="Ecircumflex" unicode="&#xca;" horiz-adv-x="1220" 
d="M1118 1163h-653v-295h614v-268h-614v-321h653v-279h-966v1442h966v-279zM485 1579h-258l291 348h246l291 -348h-258l-156 172z" />
    <glyph glyph-name="Edieresis" unicode="&#xcb;" horiz-adv-x="1220" 
d="M1118 1163h-653v-295h614v-268h-614v-321h653v-279h-966v1442h966v-279zM408 1901q67 0 113 -47t46 -113t-46 -112t-113 -46t-113.5 46t-46.5 112t46.5 113t113.5 47zM877 1901q66 0 112.5 -47t46.5 -113t-46.5 -112t-112.5 -46q-67 0 -113.5 46t-46.5 112t46.5 113
t113.5 47z" />
    <glyph glyph-name="Igrave" unicode="&#xcc;" horiz-adv-x="616" 
d="M465 1442v-1442h-313v1442h313zM-43 1927h274l193 -348h-244z" />
    <glyph glyph-name="Iacute" unicode="&#xcd;" horiz-adv-x="616" 
d="M465 1442v-1442h-313v1442h313zM662 1927l-224 -348h-243l192 348h275z" />
    <glyph glyph-name="Icircumflex" unicode="&#xce;" horiz-adv-x="616" 
d="M465 1442v-1442h-313v1442h313zM162 1579h-258l282 348h246l283 -348h-256l-150 172z" />
    <glyph glyph-name="Idieresis" unicode="&#xcf;" horiz-adv-x="616" 
d="M465 1442v-1442h-313v1442h313zM86 1901q66 0 113 -46.5t47 -111.5q0 -66 -47 -113t-113 -47q-67 0 -114.5 47t-47.5 113q0 65 47.5 111.5t114.5 46.5zM535 1901q67 0 113 -46.5t46 -111.5q0 -66 -46 -113t-113 -47t-113.5 47t-46.5 113q0 65 46.5 111.5t113.5 46.5z" />
    <glyph glyph-name="Eth" unicode="&#xd0;" horiz-adv-x="1507" 
d="M702 1442q343 0 531 -192t188 -529t-188 -529t-531 -192h-509v621h-150v235h150v586h509zM778 621h-272v-347h172q209 0 317.5 116.5t108.5 330.5t-108 330t-318 116h-172v-311h272v-235z" />
    <glyph glyph-name="Ntilde" unicode="&#xd1;" horiz-adv-x="1529" 
d="M479 1442l598 -914v914h301v-1442h-295l-630 958v-958h-301v1442h327zM965 1901h186v-46q0 -135 -64 -208.5t-172 -73.5q-47 0 -92.5 19t-73.5 42.5t-58 42.5t-50 19q-29 0 -48.5 -21t-19.5 -59v-29h-184v45q0 136 63 209.5t171 73.5q47 0 92.5 -19t73.5 -41.5t58 -41.5
t50 -19q30 0 49 20.5t19 57.5v29z" />
    <glyph glyph-name="Ograve" unicode="&#xd2;" horiz-adv-x="1552" 
d="M776 1466q202 0 359 -92.5t244 -262.5t87 -390t-87 -390t-244 -263t-359 -93t-359 93t-244 263t-87 390t87 390t244 262.5t359 92.5zM776 256q171 0 271 130t100 335t-100 335t-271 130t-270.5 -129.5t-99.5 -335.5t99.5 -335.5t270.5 -129.5zM422 1927h274l193 -348
h-244z" />
    <glyph glyph-name="Oacute" unicode="&#xd3;" horiz-adv-x="1552" 
d="M776 1466q202 0 359 -92.5t244 -262.5t87 -390t-87 -390t-244 -263t-359 -93t-359 93t-244 263t-87 390t87 390t244 262.5t359 92.5zM776 256q171 0 271 130t100 335t-100 335t-271 130t-270.5 -129.5t-99.5 -335.5t99.5 -335.5t270.5 -129.5zM1130 1927l-223 -348h-243
l192 348h274z" />
    <glyph glyph-name="Ocircumflex" unicode="&#xd4;" horiz-adv-x="1552" 
d="M776 1466q202 0 359 -92.5t244 -262.5t87 -390t-87 -390t-244 -263t-359 -93t-359 93t-244 263t-87 390t87 390t244 262.5t359 92.5zM776 256q171 0 271 130t100 335t-100 335t-271 130t-270.5 -129.5t-99.5 -335.5t99.5 -335.5t270.5 -129.5zM621 1579h-259l291 348h246
l291 -348h-258l-156 172z" />
    <glyph glyph-name="Otilde" unicode="&#xd5;" horiz-adv-x="1552" 
d="M776 1466q202 0 359 -92.5t244 -262.5t87 -390t-87 -390t-244 -263t-359 -93t-359 93t-244 263t-87 390t87 390t244 262.5t359 92.5zM776 256q171 0 271 130t100 335t-100 335t-271 130t-270.5 -129.5t-99.5 -335.5t99.5 -335.5t270.5 -129.5zM971 1901h186v-46
q0 -135 -63.5 -208.5t-171.5 -73.5q-47 0 -92.5 19t-74 42.5t-58.5 42.5t-50 19q-29 0 -48 -21t-19 -59v-29h-185v45q0 136 63 209.5t171 73.5q47 0 92.5 -19t73.5 -41.5t58 -41.5t50 -19q30 0 49 20.5t19 57.5v29z" />
    <glyph glyph-name="Odieresis" unicode="&#xd6;" horiz-adv-x="1552" 
d="M776 1466q202 0 359 -92.5t244 -262.5t87 -390t-87 -390t-244 -263t-359 -93t-359 93t-244 263t-87 390t87 390t244 262.5t359 92.5zM776 256q171 0 271 130t100 335t-100 335t-271 130t-270.5 -129.5t-99.5 -335.5t99.5 -335.5t270.5 -129.5zM543 1901q67 0 113 -47
t46 -113t-46 -112t-113 -46t-113.5 46t-46.5 112t46.5 113t113.5 47zM1012 1901q66 0 112.5 -47t46.5 -113t-46.5 -112t-112.5 -46q-67 0 -113.5 46t-46.5 112t46.5 113t113.5 47z" />
    <glyph glyph-name="multiply" unicode="&#xd7;" horiz-adv-x="1314" 
d="M1161 236l-180 -179l-324 322l-323 -324l-180 181l323 323l-323 326l180 178l323 -324l324 324l182 -178l-325 -326z" />
    <glyph glyph-name="Oslash" unicode="&#xd8;" horiz-adv-x="1552" 
d="M1438 1516l-168 -252q94 -100 145 -239t51 -304q0 -220 -87 -390t-244 -263t-359 -93q-170 0 -313 70l-80 -119h-268l168 252q-197 206 -197 543q0 220 87 390t244 262.5t359 92.5q175 0 314 -71l79 121h269zM393 721q0 -166 62 -281l479 721q-72 35 -158 35
q-177 0 -280 -132.5t-103 -342.5zM776 246q176 0 279.5 133t103.5 342q0 161 -63 278l-478 -718q68 -35 158 -35z" />
    <glyph glyph-name="Ugrave" unicode="&#xd9;" horiz-adv-x="1495" 
d="M141 586v856h314v-848q0 -162 78.5 -250t214.5 -88t214 88t78 250v848h314v-856q0 -152 -46 -270t-128.5 -192t-191.5 -111.5t-240 -37.5t-240.5 37.5t-192 111.5t-128.5 192t-46 270zM393 1927h275l192 -348h-244z" />
    <glyph glyph-name="Uacute" unicode="&#xda;" horiz-adv-x="1495" 
d="M141 586v856h314v-848q0 -162 78.5 -250t214.5 -88t214 88t78 250v848h314v-856q0 -152 -46 -270t-128.5 -192t-191.5 -111.5t-240 -37.5t-240.5 37.5t-192 111.5t-128.5 192t-46 270zM1102 1927l-223 -348h-244l192 348h275z" />
    <glyph glyph-name="Ucircumflex" unicode="&#xdb;" horiz-adv-x="1495" 
d="M141 586v856h314v-848q0 -162 78.5 -250t214.5 -88t214 88t78 250v848h314v-856q0 -152 -46 -270t-128.5 -192t-191.5 -111.5t-240 -37.5t-240.5 37.5t-192 111.5t-128.5 192t-46 270zM592 1579h-258l291 348h245l291 -348h-258l-155 172z" />
    <glyph glyph-name="Udieresis" unicode="&#xdc;" horiz-adv-x="1495" 
d="M141 586v856h314v-848q0 -162 78.5 -250t214.5 -88t214 88t78 250v848h314v-856q0 -152 -46 -270t-128.5 -192t-191.5 -111.5t-240 -37.5t-240.5 37.5t-192 111.5t-128.5 192t-46 270zM514 1901q67 0 113.5 -47t46.5 -113t-46.5 -112t-113.5 -46t-113.5 46t-46.5 112
t46.5 113t113.5 47zM983 1901q66 0 113 -47t47 -113t-47 -112t-113 -46q-67 0 -113.5 46t-46.5 112t46.5 113t113.5 47z" />
    <glyph glyph-name="Yacute" unicode="&#xdd;" horiz-adv-x="1370" 
d="M842 0h-314v547l-508 895h340l326 -596l326 596h338l-508 -895v-547zM1047 1927l-224 -348h-243l192 348h275z" />
    <glyph glyph-name="Thorn" unicode="&#xde;" horiz-adv-x="1290" 
d="M465 0h-313v1442h313v-236h240q238 0 375 -130t137 -341q0 -207 -139.5 -339t-366.5 -132h-246v-264zM676 936h-211v-404h211q101 0 162 55t61 148q0 96 -59.5 148.5t-163.5 52.5z" />
    <glyph glyph-name="germandbls" unicode="&#xdf;" horiz-adv-x="1269" 
d="M129 0v1004q0 116 41.5 209.5t113 153t164.5 91t199 31.5q215 0 349 -116.5t134 -289.5q0 -114 -53 -186.5t-133 -110.5q45 -13 87.5 -40.5t81 -70t62 -107t23.5 -140.5q0 -186 -132 -307t-353 -121h-154v256h127q96 0 153.5 52.5t57.5 137.5q0 88 -59 141.5t-154 53.5
h-100v244h61q87 0 138 49.5t51 122.5q0 76 -52 125t-135 49q-96 0 -157.5 -63.5t-61.5 -180.5v-987h-299z" />
    <glyph glyph-name="agrave" unicode="&#xe0;" horiz-adv-x="1146" 
d="M735 702q0 71 -48 110.5t-126 39.5q-72 0 -115.5 -28.5t-56.5 -73.5h-278q23 145 143.5 239t318.5 94q209 0 332 -101t123 -290v-692h-276v115q-111 -140 -314 -140q-159 0 -263.5 90.5t-104.5 245.5q0 162 115.5 252t318.5 90h231v49zM520 207q90 0 152.5 51.5
t62.5 140.5v47h-209q-70 0 -113.5 -32t-43.5 -88q0 -55 41 -87t110 -32zM223 1548h275l192 -348h-244z" />
    <glyph glyph-name="aacute" unicode="&#xe1;" horiz-adv-x="1146" 
d="M735 702q0 71 -48 110.5t-126 39.5q-72 0 -115.5 -28.5t-56.5 -73.5h-278q23 145 143.5 239t318.5 94q209 0 332 -101t123 -290v-692h-276v115q-111 -140 -314 -140q-159 0 -263.5 90.5t-104.5 245.5q0 162 115.5 252t318.5 90h231v49zM520 207q90 0 152.5 51.5
t62.5 140.5v47h-209q-70 0 -113.5 -32t-43.5 -88q0 -55 41 -87t110 -32zM932 1548l-223 -348h-244l192 348h275z" />
    <glyph glyph-name="acircumflex" unicode="&#xe2;" horiz-adv-x="1146" 
d="M735 702q0 71 -48 110.5t-126 39.5q-72 0 -115.5 -28.5t-56.5 -73.5h-278q23 145 143.5 239t318.5 94q209 0 332 -101t123 -290v-692h-276v115q-111 -140 -314 -140q-159 0 -263.5 90.5t-104.5 245.5q0 162 115.5 252t318.5 90h231v49zM520 207q90 0 152.5 51.5
t62.5 140.5v47h-209q-70 0 -113.5 -32t-43.5 -88q0 -55 41 -87t110 -32zM430 1200h-258l283 348h245l283 -348h-256l-149 172z" />
    <glyph glyph-name="atilde" unicode="&#xe3;" horiz-adv-x="1146" 
d="M735 702q0 71 -48 110.5t-126 39.5q-72 0 -115.5 -28.5t-56.5 -73.5h-278q23 145 143.5 239t318.5 94q209 0 332 -101t123 -290v-692h-276v115q-111 -140 -314 -140q-159 0 -263.5 90.5t-104.5 245.5q0 162 115.5 252t318.5 90h231v49zM520 207q90 0 152.5 51.5
t62.5 140.5v47h-209q-70 0 -113.5 -32t-43.5 -88q0 -55 41 -87t110 -32zM768 1522h184v-45q0 -135 -63.5 -208t-171.5 -73q-46 0 -89.5 19t-70 41.5t-56 41.5t-50.5 19q-29 0 -46.5 -20.5t-17.5 -57.5v-31h-184v45q0 136 62.5 209.5t170.5 73.5q46 0 90 -19t71 -41.5
t56 -41.5t49 -19q29 0 47.5 20t18.5 58v29z" />
    <glyph glyph-name="adieresis" unicode="&#xe4;" horiz-adv-x="1146" 
d="M735 702q0 71 -48 110.5t-126 39.5q-72 0 -115.5 -28.5t-56.5 -73.5h-278q23 145 143.5 239t318.5 94q209 0 332 -101t123 -290v-692h-276v115q-111 -140 -314 -140q-159 0 -263.5 90.5t-104.5 245.5q0 162 115.5 252t318.5 90h231v49zM520 207q90 0 152.5 51.5
t62.5 140.5v47h-209q-70 0 -113.5 -32t-43.5 -88q0 -55 41 -87t110 -32zM354 1522q66 0 113 -46.5t47 -111.5q0 -66 -47 -113t-113 -47q-67 0 -114 47t-47 113q0 65 47 111.5t114 46.5zM803 1522q67 0 113.5 -46.5t46.5 -111.5q0 -66 -46.5 -113t-113.5 -47t-113.5 47
t-46.5 113q0 65 46.5 111.5t113.5 46.5z" />
    <glyph glyph-name="aring" unicode="&#xe5;" horiz-adv-x="1146" 
d="M735 702q0 71 -48 110.5t-126 39.5q-72 0 -115.5 -28.5t-56.5 -73.5h-278q23 145 143.5 239t318.5 94q209 0 332 -101t123 -290v-692h-276v115q-111 -140 -314 -140q-159 0 -263.5 90.5t-104.5 245.5q0 162 115.5 252t318.5 90h231v49zM520 207q90 0 152.5 51.5
t62.5 140.5v47h-209q-70 0 -113.5 -32t-43.5 -88q0 -55 41 -87t110 -32zM827 1415q0 -103 -71 -171t-178 -68t-178.5 68t-71.5 171q0 104 71 172t179 68q107 0 178 -68t71 -172zM489 1415q0 -38 26 -63t63 -25t62.5 25t25.5 63t-25.5 63t-62.5 25t-63 -25t-26 -63z" />
    <glyph glyph-name="ae" unicode="&#xe6;" horiz-adv-x="1814" 
d="M559 1083q243 0 346 -155q133 155 355 155q220 0 351.5 -145.5t131.5 -390.5v-103h-715v-4q0 -98 66.5 -163.5t171.5 -65.5q71 0 118.5 28.5t57.5 63.5h289q-11 -58 -43 -113.5t-86 -105t-139.5 -79.5t-190.5 -30q-266 0 -400 191q-65 -90 -168 -140.5t-237 -50.5
q-174 0 -285.5 90.5t-111.5 245.5q0 162 115.5 252t318.5 90h231v49q0 72 -48.5 111t-127.5 39q-71 0 -114 -28.5t-56 -73.5h-278q23 144 140.5 238.5t307.5 94.5zM522 207q90 0 151.5 52t61.5 140v47h-209q-70 0 -113.5 -32t-43.5 -88q0 -55 41.5 -87t111.5 -32zM1247 850
q-91 0 -149 -52.5t-68 -144.5h420q-6 91 -60 144t-143 53z" />
    <glyph glyph-name="ccedilla" unicode="&#xe7;" horiz-adv-x="1146" 
d="M600 233q85 0 133 43t64 105h284q-12 -156 -117 -265.5t-276 -133.5l-26 -82q71 -9 124.5 -57.5t53.5 -133.5q0 -104 -80 -166.5t-234 -62.5h-129v168h105q44 0 69 18t25 53q0 68 -92 68h-62v43l58 154q-198 32 -313 179.5t-115 364.5q0 118 37 220t104 176.5
t166.5 116.5t218.5 42q209 0 336 -116.5t145 -286.5h-286q-18 60 -66.5 102.5t-128.5 42.5q-104 0 -165.5 -81.5t-61.5 -215.5q0 -135 62.5 -215t166.5 -80z" />
    <glyph glyph-name="egrave" unicode="&#xe8;" horiz-adv-x="1159" 
d="M1087 444h-714v-4q0 -98 66.5 -163.5t172.5 -65.5q70 0 117 28.5t59 63.5h289q-12 -59 -44.5 -114t-88 -104.5t-143 -79.5t-195.5 -30q-244 0 -389 146.5t-145 402.5q0 257 142.5 408t375.5 151q227 0 362 -145t135 -391v-103zM592 850q-90 0 -147.5 -52t-69.5 -145h422
q-6 91 -61 144t-144 53zM236 1548h274l192 -348h-243z" />
    <glyph glyph-name="eacute" unicode="&#xe9;" horiz-adv-x="1159" 
d="M1087 444h-714v-4q0 -98 66.5 -163.5t172.5 -65.5q70 0 117 28.5t59 63.5h289q-12 -59 -44.5 -114t-88 -104.5t-143 -79.5t-195.5 -30q-244 0 -389 146.5t-145 402.5q0 257 142.5 408t375.5 151q227 0 362 -145t135 -391v-103zM592 850q-90 0 -147.5 -52t-69.5 -145h422
q-6 91 -61 144t-144 53zM944 1548l-223 -348h-244l193 348h274z" />
    <glyph glyph-name="ecircumflex" unicode="&#xea;" horiz-adv-x="1159" 
d="M1087 444h-714v-4q0 -98 66.5 -163.5t172.5 -65.5q70 0 117 28.5t59 63.5h289q-12 -59 -44.5 -114t-88 -104.5t-143 -79.5t-195.5 -30q-244 0 -389 146.5t-145 402.5q0 257 142.5 408t375.5 151q227 0 362 -145t135 -391v-103zM592 850q-90 0 -147.5 -52t-69.5 -145h422
q-6 91 -61 144t-144 53zM442 1200h-258l283 348h246l282 -348h-256l-149 172z" />
    <glyph glyph-name="edieresis" unicode="&#xeb;" horiz-adv-x="1159" 
d="M1087 444h-714v-4q0 -98 66.5 -163.5t172.5 -65.5q70 0 117 28.5t59 63.5h289q-12 -59 -44.5 -114t-88 -104.5t-143 -79.5t-195.5 -30q-244 0 -389 146.5t-145 402.5q0 257 142.5 408t375.5 151q227 0 362 -145t135 -391v-103zM592 850q-90 0 -147.5 -52t-69.5 -145h422
q-6 91 -61 144t-144 53zM367 1522q66 0 112.5 -46.5t46.5 -111.5q0 -66 -46.5 -113t-112.5 -47q-67 0 -114.5 47t-47.5 113q0 65 47.5 111.5t114.5 46.5zM815 1522q67 0 113.5 -46.5t46.5 -111.5q0 -66 -46.5 -113t-113.5 -47t-113.5 47t-46.5 113q0 65 46.5 111.5
t113.5 46.5z" />
    <glyph glyph-name="igrave" unicode="&#xec;" horiz-adv-x="557" 
d="M428 1059v-1059h-299v1059h299zM-76 1548h275l192 -348h-244z" />
    <glyph glyph-name="iacute" unicode="&#xed;" horiz-adv-x="557" 
d="M428 1059v-1059h-299v1059h299zM629 1548l-223 -348h-244l192 348h275z" />
    <glyph glyph-name="icircumflex" unicode="&#xee;" horiz-adv-x="557" 
d="M428 1059v-1059h-299v1059h299zM147 1200h-251l258 348h245l258 -348h-251l-130 172z" />
    <glyph glyph-name="idieresis" unicode="&#xef;" horiz-adv-x="557" 
d="M428 1059v-1059h-299v1059h299zM63 1522q67 0 113.5 -46.5t46.5 -111.5q0 -66 -46.5 -113t-113.5 -47t-113 47t-46 113q0 65 46 111.5t113 46.5zM492 1522q66 0 112.5 -46.5t46.5 -111.5q0 -66 -46.5 -113t-112.5 -47q-67 0 -113.5 47t-46.5 113q0 65 46.5 111.5
t113.5 46.5z" />
    <glyph glyph-name="eth" unicode="&#xf0;" horiz-adv-x="1234" 
d="M387 1085v183l150 49q-102 89 -228 172h344q65 -36 127 -88l262 88v-182l-129 -43q232 -282 232 -656q0 -294 -140.5 -463.5t-400.5 -169.5q-120 0 -220.5 41t-168.5 112t-105.5 169.5t-37.5 212.5q0 232 134.5 375t342.5 143q172 0 264 -106q-40 128 -145 258zM606 225
q113 0 175.5 80.5t62.5 208.5q0 120 -63.5 196t-174.5 76t-173 -76.5t-62 -199.5q0 -122 62 -203.5t173 -81.5z" />
    <glyph glyph-name="ntilde" unicode="&#xf1;" horiz-adv-x="1222" 
d="M129 1059h287v-125q41 63 120.5 106t186.5 43q77 0 144 -23.5t121 -70.5t85 -127.5t31 -185.5v-676h-299v610q0 101 -49 153t-133 52q-81 0 -138 -53.5t-57 -155.5v-606h-299v1059zM813 1522h184v-45q0 -135 -63.5 -208t-171.5 -73q-46 0 -89.5 19t-70 41.5t-56 41.5
t-50.5 19q-29 0 -46.5 -20.5t-17.5 -57.5v-31h-184v45q0 136 62.5 209.5t170.5 73.5q46 0 90 -19t71.5 -41.5t56.5 -41.5t49 -19q29 0 47 20t18 58v29z" />
    <glyph glyph-name="ograve" unicode="&#xf2;" horiz-adv-x="1210" 
d="M606 1083q236 0 384.5 -153t148.5 -402t-148.5 -401t-384.5 -152q-238 0 -386 152t-148 401t148.5 402t385.5 153zM606 233q107 0 170.5 82t63.5 213q0 132 -63.5 214.5t-170.5 82.5q-109 0 -172 -82t-63 -215q0 -131 63.5 -213t171.5 -82zM252 1548h274l193 -348h-244z
" />
    <glyph glyph-name="oacute" unicode="&#xf3;" horiz-adv-x="1210" 
d="M606 1083q236 0 384.5 -153t148.5 -402t-148.5 -401t-384.5 -152q-238 0 -386 152t-148 401t148.5 402t385.5 153zM606 233q107 0 170.5 82t63.5 213q0 132 -63.5 214.5t-170.5 82.5q-109 0 -172 -82t-63 -215q0 -131 63.5 -213t171.5 -82zM961 1548l-224 -348h-243
l192 348h275z" />
    <glyph glyph-name="ocircumflex" unicode="&#xf4;" horiz-adv-x="1210" 
d="M606 1083q236 0 384.5 -153t148.5 -402t-148.5 -401t-384.5 -152q-238 0 -386 152t-148 401t148.5 402t385.5 153zM606 233q107 0 170.5 82t63.5 213q0 132 -63.5 214.5t-170.5 82.5q-109 0 -172 -82t-63 -215q0 -131 63.5 -213t171.5 -82zM459 1200h-258l282 348h246
l283 -348h-256l-150 172z" />
    <glyph glyph-name="otilde" unicode="&#xf5;" horiz-adv-x="1210" 
d="M606 1083q236 0 384.5 -153t148.5 -402t-148.5 -401t-384.5 -152q-238 0 -386 152t-148 401t148.5 402t385.5 153zM606 233q107 0 170.5 82t63.5 213q0 132 -63.5 214.5t-170.5 82.5q-109 0 -172 -82t-63 -215q0 -131 63.5 -213t171.5 -82zM797 1522h184v-45
q0 -135 -64 -208t-172 -73q-46 0 -89.5 19t-70 41.5t-56 41.5t-50.5 19q-29 0 -46 -20.5t-17 -57.5v-31h-185v45q0 136 63 209.5t171 73.5q46 0 90 -19t71 -41.5t56 -41.5t49 -19q29 0 47.5 20t18.5 58v29z" />
    <glyph glyph-name="odieresis" unicode="&#xf6;" horiz-adv-x="1210" 
d="M606 1083q236 0 384.5 -153t148.5 -402t-148.5 -401t-384.5 -152q-238 0 -386 152t-148 401t148.5 402t385.5 153zM606 233q107 0 170.5 82t63.5 213q0 132 -63.5 214.5t-170.5 82.5q-109 0 -172 -82t-63 -215q0 -131 63.5 -213t171.5 -82zM383 1522q66 0 113 -46.5
t47 -111.5q0 -66 -47 -113t-113 -47q-67 0 -114.5 47t-47.5 113q0 65 47.5 111.5t114.5 46.5zM831 1522q67 0 113.5 -46.5t46.5 -111.5q0 -66 -46.5 -113t-113.5 -47t-113 47t-46 113q0 65 46 111.5t113 46.5z" />
    <glyph glyph-name="divide" unicode="&#xf7;" horiz-adv-x="1314" 
d="M653 1126q69 0 117.5 -47t48.5 -114q0 -69 -48.5 -115.5t-117.5 -46.5t-117.5 46.5t-48.5 115.5q0 67 48.5 114t117.5 47zM1167 436h-1020v246h1020v-246zM653 315q68 0 117 -46.5t49 -114.5t-48 -114t-118 -46t-118 46t-48 114q0 67 48.5 114t117.5 47z" />
    <glyph glyph-name="oslash" unicode="&#xf8;" horiz-adv-x="1210" 
d="M1106 1139l-127 -199q76 -73 118 -179t42 -233q0 -249 -148.5 -401t-384.5 -152q-119 0 -219 41l-61 -96h-222l125 197q-157 157 -157 411q0 249 148.5 402t385.5 153q117 0 217 -41l62 97h221zM606 209q115 0 184.5 88t69.5 231q0 99 -35 174l-305 -479q38 -14 86 -14z
M350 528q0 -91 33 -172l307 480q-47 14 -84 14q-117 0 -186.5 -88.5t-69.5 -233.5z" />
    <glyph glyph-name="ugrave" unicode="&#xf9;" horiz-adv-x="1222" 
d="M1096 0h-287v123q-42 -63 -122 -105.5t-187 -42.5q-77 0 -143 23t-120 70.5t-85 128t-31 186.5v676h297v-610q0 -101 49.5 -153t134.5 -52q81 0 138 53t57 156v606h299v-1059zM252 1548h274l193 -348h-244z" />
    <glyph glyph-name="uacute" unicode="&#xfa;" horiz-adv-x="1222" 
d="M1096 0h-287v123q-42 -63 -122 -105.5t-187 -42.5q-77 0 -143 23t-120 70.5t-85 128t-31 186.5v676h297v-610q0 -101 49.5 -153t134.5 -52q81 0 138 53t57 156v606h299v-1059zM961 1548l-224 -348h-243l192 348h275z" />
    <glyph glyph-name="ucircumflex" unicode="&#xfb;" horiz-adv-x="1222" 
d="M1096 0h-287v123q-42 -63 -122 -105.5t-187 -42.5q-77 0 -143 23t-120 70.5t-85 128t-31 186.5v676h297v-610q0 -101 49.5 -153t134.5 -52q81 0 138 53t57 156v606h299v-1059zM459 1200h-258l282 348h246l283 -348h-256l-150 172z" />
    <glyph glyph-name="udieresis" unicode="&#xfc;" horiz-adv-x="1222" 
d="M1096 0h-287v123q-42 -63 -122 -105.5t-187 -42.5q-77 0 -143 23t-120 70.5t-85 128t-31 186.5v676h297v-610q0 -101 49.5 -153t134.5 -52q81 0 138 53t57 156v606h299v-1059zM383 1522q66 0 113 -46.5t47 -111.5q0 -66 -47 -113t-113 -47q-67 0 -114.5 47t-47.5 113
q0 65 47.5 111.5t114.5 46.5zM831 1522q67 0 113.5 -46.5t46.5 -111.5q0 -66 -46.5 -113t-113.5 -47t-113 47t-46 113q0 65 46 111.5t113 46.5z" />
    <glyph glyph-name="yacute" unicode="&#xfd;" horiz-adv-x="1126" 
d="M799 1059h319l-557 -1450h-317l159 420l-395 1030h322l233 -682zM918 1548l-224 -348h-243l192 348h275z" />
    <glyph glyph-name="thorn" unicode="&#xfe;" horiz-adv-x="1255" 
d="M725 1083q196 0 327.5 -149t131.5 -406q0 -254 -133 -403.5t-334 -149.5q-99 0 -174 34.5t-115 92.5v-493h-299v1880h299v-537q44 59 119.5 95t177.5 36zM653 233q104 0 167 80t63 215t-63 216t-167 81t-167.5 -80t-63.5 -213v-8q0 -133 63 -212t168 -79z" />
    <glyph glyph-name="ydieresis" unicode="&#xff;" horiz-adv-x="1126" 
d="M799 1059h319l-557 -1450h-317l159 420l-395 1030h322l233 -682zM340 1522q66 0 113 -46.5t47 -111.5q0 -66 -47 -113t-113 -47q-67 0 -114.5 47t-47.5 113q0 65 47.5 111.5t114.5 46.5zM788 1522q67 0 113.5 -46.5t46.5 -111.5q0 -66 -46.5 -113t-113.5 -47t-113 47
t-46 113q0 65 46 111.5t113 46.5z" />
    <glyph glyph-name="Amacron" unicode="&#x100;" horiz-adv-x="1431" 
d="M553 1442h324l528 -1442h-324l-102 297h-528l-101 -297h-323zM713 1079l-174 -520h348zM377 1847h680v-213h-680v213z" />
    <glyph glyph-name="amacron" unicode="&#x101;" horiz-adv-x="1146" 
d="M735 702q0 71 -48 110.5t-126 39.5q-72 0 -115.5 -28.5t-56.5 -73.5h-278q23 145 143.5 239t318.5 94q209 0 332 -101t123 -290v-692h-276v115q-111 -140 -314 -140q-159 0 -263.5 90.5t-104.5 245.5q0 162 115.5 252t318.5 90h231v49zM520 207q90 0 152.5 51.5
t62.5 140.5v47h-209q-70 0 -113.5 -32t-43.5 -88q0 -55 41 -87t110 -32zM248 1468h659v-211h-659v211z" />
    <glyph glyph-name="Abreve" unicode="&#x102;" horiz-adv-x="1431" 
d="M553 1442h324l528 -1442h-324l-102 297h-528l-101 -297h-323zM713 1079l-174 -520h348zM565 1921q0 -67 39.5 -113.5t112.5 -46.5t112 46t39 114h226q-2 -160 -103.5 -257t-273.5 -97t-273.5 97t-103.5 257h225z" />
    <glyph glyph-name="abreve" unicode="&#x103;" horiz-adv-x="1146" 
d="M735 702q0 71 -48 110.5t-126 39.5q-72 0 -115.5 -28.5t-56.5 -73.5h-278q23 145 143.5 239t318.5 94q209 0 332 -101t123 -290v-692h-276v115q-111 -140 -314 -140q-159 0 -263.5 90.5t-104.5 245.5q0 162 115.5 252t318.5 90h231v49zM520 207q90 0 152.5 51.5
t62.5 140.5v47h-209q-70 0 -113.5 -32t-43.5 -88q0 -55 41 -87t110 -32zM432 1542q0 -67 38 -113.5t108 -46.5t107.5 46t37.5 114h223q-2 -161 -100.5 -257.5t-267.5 -96.5t-268 96.5t-101 257.5h223z" />
    <glyph glyph-name="Aogonek" unicode="&#x104;" horiz-adv-x="1431" 
d="M553 1442h324l528 -1442q-75 -54 -113.5 -102.5t-38.5 -98.5q0 -44 28 -69t79 -25h80v-197h-140q-147 0 -225 61.5t-78 164.5q0 75 45.5 145t116.5 121h-78l-102 297h-528l-101 -297h-323zM713 1079l-174 -520h348z" />
    <glyph glyph-name="aogonek" unicode="&#x105;" horiz-adv-x="1146" 
d="M735 702q0 71 -48 110.5t-126 39.5q-72 0 -115.5 -28.5t-56.5 -73.5h-278q23 145 143.5 239t318.5 94q209 0 332 -101t123 -290v-692q-151 -109 -151 -201q0 -44 27.5 -69t78.5 -25h80v-197h-139q-147 0 -225 61.5t-78 164.5q0 75 45 145t116 121h-30v115
q-111 -140 -314 -140q-159 0 -263.5 90.5t-104.5 245.5q0 162 115.5 252t318.5 90h231v49zM520 207q90 0 152.5 51.5t62.5 140.5v47h-209q-70 0 -113.5 -32t-43.5 -88q0 -55 41 -87t110 -32z" />
    <glyph glyph-name="Cacute" unicode="&#x106;" horiz-adv-x="1464" 
d="M1075 498h311q-5 -75 -31 -147.5t-77 -141t-122 -120t-173.5 -83t-222.5 -31.5q-143 0 -266 52t-213.5 146t-142.5 235.5t-52 312.5q0 220 86 390t239 262.5t349 92.5q138 0 251.5 -41t190 -112.5t123 -164.5t59.5 -202h-311q-27 104 -106.5 172t-206.5 68
q-157 0 -255.5 -127t-98.5 -338q0 -208 97.5 -336.5t258.5 -128.5q70 0 128 22.5t95.5 59t60 77.5t29.5 83zM1114 1927l-223 -348h-244l193 348h274z" />
    <glyph glyph-name="cacute" unicode="&#x107;" horiz-adv-x="1146" 
d="M600 233q85 0 133 43t64 105h284q-14 -176 -145 -291t-338 -115q-239 0 -382.5 155t-143.5 398q0 118 37 220t104 176.5t166.5 116.5t218.5 42q209 0 336 -116.5t145 -286.5h-286q-18 60 -66.5 102.5t-128.5 42.5q-104 0 -165.5 -81.5t-61.5 -215.5q0 -135 62.5 -215
t166.5 -80zM952 1548l-223 -348h-244l193 348h274z" />
    <glyph glyph-name="Ccircumflex" unicode="&#x108;" horiz-adv-x="1464" 
d="M1075 498h311q-5 -75 -31 -147.5t-77 -141t-122 -120t-173.5 -83t-222.5 -31.5q-143 0 -266 52t-213.5 146t-142.5 235.5t-52 312.5q0 220 86 390t239 262.5t349 92.5q138 0 251.5 -41t190 -112.5t123 -164.5t59.5 -202h-311q-27 104 -106.5 172t-206.5 68
q-157 0 -255.5 -127t-98.5 -338q0 -208 97.5 -336.5t258.5 -128.5q70 0 128 22.5t95.5 59t60 77.5t29.5 83zM604 1579h-258l291 348h246l291 -348h-259l-155 172z" />
    <glyph glyph-name="ccircumflex" unicode="&#x109;" horiz-adv-x="1146" 
d="M600 233q85 0 133 43t64 105h284q-14 -176 -145 -291t-338 -115q-239 0 -382.5 155t-143.5 398q0 118 37 220t104 176.5t166.5 116.5t218.5 42q209 0 336 -116.5t145 -286.5h-286q-18 60 -66.5 102.5t-128.5 42.5q-104 0 -165.5 -81.5t-61.5 -215.5q0 -135 62.5 -215
t166.5 -80zM451 1200h-258l282 348h246l283 -348h-256l-150 172z" />
    <glyph glyph-name="Cdotaccent" unicode="&#x10a;" horiz-adv-x="1464" 
d="M1075 498h311q-5 -75 -31 -147.5t-77 -141t-122 -120t-173.5 -83t-222.5 -31.5q-143 0 -266 52t-213.5 146t-142.5 235.5t-52 312.5q0 220 86 390t239 262.5t349 92.5q138 0 251.5 -41t190 -112.5t123 -164.5t59.5 -202h-311q-27 104 -106.5 172t-206.5 68
q-157 0 -255.5 -127t-98.5 -338q0 -208 97.5 -336.5t258.5 -128.5q70 0 128 22.5t95.5 59t60 77.5t29.5 83zM760 1913q72 0 122 -49t50 -119q0 -72 -50 -121t-122 -49t-121 49t-49 121q0 71 49 119.5t121 48.5z" />
    <glyph glyph-name="cdotaccent" unicode="&#x10b;" horiz-adv-x="1146" 
d="M600 233q85 0 133 43t64 105h284q-14 -176 -145 -291t-338 -115q-239 0 -382.5 155t-143.5 398q0 118 37 220t104 176.5t166.5 116.5t218.5 42q209 0 336 -116.5t145 -286.5h-286q-18 60 -66.5 102.5t-128.5 42.5q-104 0 -165.5 -81.5t-61.5 -215.5q0 -135 62.5 -215
t166.5 -80zM598 1534q72 0 122 -49t50 -119q0 -72 -50 -121t-122 -49t-121 49t-49 121q0 71 49 119.5t121 48.5z" />
    <glyph glyph-name="Ccaron" unicode="&#x10c;" horiz-adv-x="1464" 
d="M1075 498h311q-5 -75 -31 -147.5t-77 -141t-122 -120t-173.5 -83t-222.5 -31.5q-143 0 -266 52t-213.5 146t-142.5 235.5t-52 312.5q0 220 86 390t239 262.5t349 92.5q138 0 251.5 -41t190 -112.5t123 -164.5t59.5 -202h-311q-27 104 -106.5 172t-206.5 68
q-157 0 -255.5 -127t-98.5 -338q0 -208 97.5 -336.5t258.5 -128.5q70 0 128 22.5t95.5 59t60 77.5t29.5 83zM604 1927l156 -172l155 172h259l-291 -348h-246l-291 348h258z" />
    <glyph glyph-name="ccaron" unicode="&#x10d;" horiz-adv-x="1146" 
d="M600 233q85 0 133 43t64 105h284q-14 -176 -145 -291t-338 -115q-239 0 -382.5 155t-143.5 398q0 118 37 220t104 176.5t166.5 116.5t218.5 42q209 0 336 -116.5t145 -286.5h-286q-18 60 -66.5 102.5t-128.5 42.5q-104 0 -165.5 -81.5t-61.5 -215.5q0 -135 62.5 -215
t166.5 -80zM451 1548l147 -172l150 172h256l-283 -348h-246l-282 348h258z" />
    <glyph glyph-name="Dcaron" unicode="&#x10e;" horiz-adv-x="1466" 
d="M662 1442q342 0 530 -192t188 -529t-188 -529t-530 -192h-510v1442h510zM635 274q209 0 317.5 116.5t108.5 330.5t-108 330t-318 116h-170v-893h170zM516 1927l156 -172l155 172h258l-290 -348h-246l-291 348h258z" />
    <glyph glyph-name="dcaron" unicode="&#x10f;" horiz-adv-x="1576" 
d="M530 -25q-95 0 -178 37.5t-145.5 106.5t-98.5 174.5t-36 234.5q0 255 133 405t334 150q98 0 173 -35.5t115 -93.5v535h299v-1489h-286v125q-43 -67 -121.5 -108.5t-188.5 -41.5zM602 825q-104 0 -167.5 -81t-63.5 -216q0 -133 63.5 -214t167.5 -81t168 79.5t64 211.5v8
q0 134 -63.5 213.5t-168.5 79.5zM1581 1335q0 -57 -25 -121l-106 -253h-205l96 235q-44 17 -73 54.5t-29 95.5q0 69 47.5 114t120.5 45q74 0 124 -48.5t50 -121.5z" />
    <glyph glyph-name="Dcroat" unicode="&#x110;" horiz-adv-x="1507" 
d="M702 1442q343 0 531 -192t188 -529t-188 -529t-531 -192h-509v621h-150v235h150v586h509zM778 621h-272v-347h172q209 0 317.5 116.5t108.5 330.5t-108 330t-318 116h-172v-311h272v-235z" />
    <glyph glyph-name="dcroat" unicode="&#x111;" horiz-adv-x="1259" 
d="M580 1368h247v121h299v-121h134v-182h-134v-1186h-286v125q-43 -67 -121.5 -108.5t-188.5 -41.5q-95 0 -178 37.5t-145.5 106.5t-98.5 174.5t-36 234.5q0 255 133 405t334 150q98 0 173 -35.5t115 -93.5v232h-247v182zM602 825q-104 0 -167.5 -81t-63.5 -216
q0 -133 63.5 -214t167.5 -81t168 79.5t64 211.5v8q0 134 -63.5 213.5t-168.5 79.5z" />
    <glyph glyph-name="Emacron" unicode="&#x112;" horiz-adv-x="1220" 
d="M1118 1163h-653v-295h614v-268h-614v-321h653v-279h-966v1442h966v-279zM301 1847h680v-213h-680v213z" />
    <glyph glyph-name="emacron" unicode="&#x113;" horiz-adv-x="1159" 
d="M1087 444h-714v-4q0 -98 66.5 -163.5t172.5 -65.5q70 0 117 28.5t59 63.5h289q-12 -59 -44.5 -114t-88 -104.5t-143 -79.5t-195.5 -30q-244 0 -389 146.5t-145 402.5q0 257 142.5 408t375.5 151q227 0 362 -145t135 -391v-103zM592 850q-90 0 -147.5 -52t-69.5 -145h422
q-6 91 -61 144t-144 53zM260 1468h660v-211h-660v211z" />
    <glyph glyph-name="Edotaccent" unicode="&#x116;" horiz-adv-x="1220" 
d="M1118 1163h-653v-295h614v-268h-614v-321h653v-279h-966v1442h966v-279zM641 1913q72 0 122 -49t50 -119q0 -72 -50 -121t-122 -49t-121 49t-49 121q0 71 49 119.5t121 48.5z" />
    <glyph glyph-name="edotaccent" unicode="&#x117;" horiz-adv-x="1159" 
d="M1087 444h-714v-4q0 -98 66.5 -163.5t172.5 -65.5q70 0 117 28.5t59 63.5h289q-12 -59 -44.5 -114t-88 -104.5t-143 -79.5t-195.5 -30q-244 0 -389 146.5t-145 402.5q0 257 142.5 408t375.5 151q227 0 362 -145t135 -391v-103zM592 850q-90 0 -147.5 -52t-69.5 -145h422
q-6 91 -61 144t-144 53zM590 1534q72 0 122 -49t50 -119q0 -72 -50 -121t-122 -49t-121 49t-49 121q0 71 49 119.5t121 48.5z" />
    <glyph glyph-name="Eogonek" unicode="&#x118;" horiz-adv-x="1220" 
d="M1118 1163h-653v-295h614v-268h-614v-321h653v-279q-151 -109 -151 -201q0 -44 27.5 -69t78.5 -25h80v-197h-139q-147 0 -225 61.5t-78 164.5q0 75 45 145t116 121h-720v1442h966v-279z" />
    <glyph glyph-name="eogonek" unicode="&#x119;" horiz-adv-x="1159" 
d="M932 74q-6 -5 -41.5 -33.5t-48 -39t-43 -37t-44 -43t-31.5 -39.5t-25 -43.5t-7 -39.5q0 -44 28 -69t79 -25h80v-197h-140q-147 0 -225 61.5t-78 164.5q0 120 139 241q-231 9 -367 155t-136 394q0 257 142.5 408t375.5 151q227 0 362 -145t135 -391v-103h-714v-4
q0 -98 66.5 -163.5t172.5 -65.5q70 0 117 28.5t59 63.5h289q-29 -143 -147 -229h2zM592 850q-90 0 -147.5 -52t-69.5 -145h422q-6 91 -61 144t-144 53z" />
    <glyph glyph-name="Ecaron" unicode="&#x11a;" horiz-adv-x="1220" 
d="M1118 1163h-653v-295h614v-268h-614v-321h653v-279h-966v1442h966v-279zM485 1927l156 -172l156 172h258l-291 -348h-246l-291 348h258z" />
    <glyph glyph-name="ecaron" unicode="&#x11b;" horiz-adv-x="1159" 
d="M1087 444h-714v-4q0 -98 66.5 -163.5t172.5 -65.5q70 0 117 28.5t59 63.5h289q-12 -59 -44.5 -114t-88 -104.5t-143 -79.5t-195.5 -30q-244 0 -389 146.5t-145 402.5q0 257 142.5 408t375.5 151q227 0 362 -145t135 -391v-103zM592 850q-90 0 -147.5 -52t-69.5 -145h422
q-6 91 -61 144t-144 53zM442 1548l148 -172l149 172h256l-282 -348h-246l-283 348h258z" />
    <glyph glyph-name="Gcircumflex" unicode="&#x11c;" horiz-adv-x="1503" 
d="M756 791h651v-162q0 -191 -72 -337.5t-217.5 -231.5t-347.5 -85q-147 0 -273.5 53.5t-217 149.5t-142 236t-51.5 307q0 215 83 383.5t240 265t363 96.5q130 0 240 -38.5t186.5 -105.5t127 -153.5t69.5 -187.5h-318q-31 94 -107 150.5t-196 56.5q-165 0 -266.5 -124.5
t-101.5 -342.5q0 -223 104.5 -347t269.5 -124q149 0 231.5 80.5t82.5 199.5v7h-338v254zM616 1579h-258l291 348h246l291 -348h-258l-156 172z" />
    <glyph glyph-name="gcircumflex" unicode="&#x11d;" horiz-adv-x="1253" 
d="M838 1059h286v-983q0 -234 -139 -370t-383 -136q-114 0 -206.5 30t-151 81t-92.5 113t-41 130h292q38 -117 201 -117q107 0 164 70.5t57 200.5v72q-97 -134 -297 -134q-197 0 -326.5 143.5t-129.5 389.5q0 239 132 386.5t333 147.5q109 0 186.5 -40.5t114.5 -102.5v119z
M602 268q105 0 167 78.5t62 198.5v8q0 120 -61 199t-168 79q-105 0 -168 -79.5t-63 -202.5t63 -202t168 -79zM465 1200h-258l282 348h246l283 -348h-256l-150 172z" />
    <glyph glyph-name="Gbreve" unicode="&#x11e;" horiz-adv-x="1503" 
d="M756 791h651v-162q0 -191 -72 -337.5t-217.5 -231.5t-347.5 -85q-147 0 -273.5 53.5t-217 149.5t-142 236t-51.5 307q0 215 83 383.5t240 265t363 96.5q130 0 240 -38.5t186.5 -105.5t127 -153.5t69.5 -187.5h-318q-31 94 -107 150.5t-196 56.5q-165 0 -266.5 -124.5
t-101.5 -342.5q0 -223 104.5 -347t269.5 -124q149 0 231.5 80.5t82.5 199.5v7h-338v254zM621 1921q0 -68 39 -114t112 -46t112.5 46.5t39.5 113.5h225q-2 -160 -103.5 -257t-273.5 -97t-273.5 97t-103.5 257h226z" />
    <glyph glyph-name="gbreve" unicode="&#x11f;" horiz-adv-x="1253" 
d="M838 1059h286v-983q0 -234 -139 -370t-383 -136q-114 0 -206.5 30t-151 81t-92.5 113t-41 130h292q38 -117 201 -117q107 0 164 70.5t57 200.5v72q-97 -134 -297 -134q-197 0 -326.5 143.5t-129.5 389.5q0 239 132 386.5t333 147.5q109 0 186.5 -40.5t114.5 -102.5v119z
M602 268q105 0 167 78.5t62 198.5v8q0 120 -61 199t-168 79q-105 0 -168 -79.5t-63 -202.5t63 -202t168 -79zM467 1542q0 -68 37.5 -114t107.5 -46t108 46.5t38 113.5h223q-2 -161 -101 -257.5t-268 -96.5t-267.5 96.5t-100.5 257.5h223z" />
    <glyph glyph-name="Gdotaccent" unicode="&#x120;" horiz-adv-x="1503" 
d="M756 791h651v-162q0 -191 -72 -337.5t-217.5 -231.5t-347.5 -85q-147 0 -273.5 53.5t-217 149.5t-142 236t-51.5 307q0 215 83 383.5t240 265t363 96.5q130 0 240 -38.5t186.5 -105.5t127 -153.5t69.5 -187.5h-318q-31 94 -107 150.5t-196 56.5q-165 0 -266.5 -124.5
t-101.5 -342.5q0 -223 104.5 -347t269.5 -124q149 0 231.5 80.5t82.5 199.5v7h-338v254zM772 1913q72 0 122 -49t50 -119q0 -72 -50 -121t-122 -49t-121 49t-49 121q0 71 49 119.5t121 48.5z" />
    <glyph glyph-name="gdotaccent" unicode="&#x121;" horiz-adv-x="1253" 
d="M838 1059h286v-983q0 -234 -139 -370t-383 -136q-114 0 -206.5 30t-151 81t-92.5 113t-41 130h292q38 -117 201 -117q107 0 164 70.5t57 200.5v72q-97 -134 -297 -134q-197 0 -326.5 143.5t-129.5 389.5q0 239 132 386.5t333 147.5q109 0 186.5 -40.5t114.5 -102.5v119z
M602 268q105 0 167 78.5t62 198.5v8q0 120 -61 199t-168 79q-105 0 -168 -79.5t-63 -202.5t63 -202t168 -79zM612 1534q72 0 122 -49t50 -119q0 -72 -50 -121t-122 -49t-121 49t-49 121q0 71 49 119.5t121 48.5z" />
    <glyph glyph-name="uni0122" unicode="&#x122;" horiz-adv-x="1503" 
d="M756 791h651v-162q0 -191 -72 -337.5t-217.5 -231.5t-347.5 -85q-147 0 -273.5 53.5t-217 149.5t-142 236t-51.5 307q0 215 83 383.5t240 265t363 96.5q130 0 240 -38.5t186.5 -105.5t127 -153.5t69.5 -187.5h-318q-31 94 -107 150.5t-196 56.5q-165 0 -266.5 -124.5
t-101.5 -342.5q0 -223 104.5 -347t269.5 -124q149 0 231.5 80.5t82.5 199.5v7h-338v254zM940 -285q0 -57 -25 -121l-92 -219h-205l82 201q-44 17 -73 54.5t-29 95.5q0 70 47 115.5t121 45.5t124 -49.5t50 -122.5z" />
    <glyph glyph-name="uni0123" unicode="&#x123;" horiz-adv-x="1253" 
d="M838 1059h286v-983q0 -234 -139 -370t-383 -136q-114 0 -206.5 30t-151 81t-92.5 113t-41 130h292q38 -117 201 -117q107 0 164 70.5t57 200.5v72q-97 -134 -297 -134q-197 0 -326.5 143.5t-129.5 389.5q0 239 132 386.5t333 147.5q109 0 186.5 -40.5t114.5 -102.5v119z
M602 268q105 0 167 78.5t62 198.5v8q0 120 -61 199t-168 79q-105 0 -168 -79.5t-63 -202.5t63 -202t168 -79zM442 1356q0 60 25 121l92 219h205l-82 -201q44 -17 73 -53.5t29 -93.5q0 -71 -47.5 -116.5t-120.5 -45.5q-74 0 -124 48.5t-50 121.5z" />
    <glyph glyph-name="Hcircumflex" unicode="&#x124;" horiz-adv-x="1513" 
d="M465 0h-313v1442h313v-563h584v563h313v-1442h-313v598h-584v-598zM600 1579h-258l291 348h246l290 -348h-258l-155 172z" />
    <glyph glyph-name="hcircumflex" unicode="&#x125;" horiz-adv-x="1222" 
d="M723 1083q77 0 144 -23.5t121 -70.5t85 -127.5t31 -185.5v-676h-299v610q0 101 -49 153t-133 52q-81 0 -138 -53.5t-57 -155.5v-606h-299v1489h299v-537q44 56 120.5 93.5t174.5 37.5zM150 1606h-252l258 348h245l258 -348h-251l-129 172z" />
    <glyph glyph-name="Hbar" unicode="&#x126;" horiz-adv-x="1591" 
d="M504 0h-311v1042h-138v224h138v176h311v-176h583v176h312v-176h137v-224h-137v-1042h-312v551h-583v-551zM504 1042v-211h583v211h-583z" />
    <glyph glyph-name="hbar" unicode="&#x127;" horiz-adv-x="1228" 
d="M0 1368h133v121h299v-121h248v-182h-248v-234q44 56 120.5 93.5t174.5 37.5q77 0 144 -23.5t121 -70.5t85 -127.5t31 -185.5v-676h-299v610q0 101 -49 153t-133 52q-81 0 -138 -53.5t-57 -155.5v-606h-299v1186h-133v182z" />
    <glyph glyph-name="Itilde" unicode="&#x128;" horiz-adv-x="616" 
d="M465 1442v-1442h-313v1442h313zM500 1901h184v-46q0 -135 -63.5 -207.5t-171.5 -72.5q-46 0 -90 19t-70.5 41.5t-56 41.5t-50.5 19q-29 0 -46 -20.5t-17 -57.5v-31h-185v45q0 136 63 209.5t171 73.5q46 0 90 -19t71 -41.5t56 -41.5t49 -19q29 0 47.5 20t18.5 58v29z" />
    <glyph glyph-name="itilde" unicode="&#x129;" horiz-adv-x="557" 
d="M428 1059v-1059h-299v1059h299zM455 1522h184v-45q0 -134 -62 -207.5t-163 -73.5q-50 0 -92 19t-65.5 41.5t-50.5 41.5t-50 19q-26 0 -42 -20.5t-16 -57.5v-31h-184v45q0 135 61.5 209t163.5 74q49 0 90.5 -19t65 -41.5t50.5 -41.5t50 -19q27 0 43.5 20t16.5 58v29z" />
    <glyph glyph-name="Imacron" unicode="&#x12a;" horiz-adv-x="616" 
d="M465 1442v-1442h-313v1442h313zM-20 1845h659v-211h-659v211z" />
    <glyph glyph-name="imacron" unicode="&#x12b;" horiz-adv-x="557" 
d="M428 1059v-1059h-299v1059h299zM-20 1468h593v-211h-593v211z" />
    <glyph glyph-name="Ibreve" unicode="&#x12c;" horiz-adv-x="616" 
d="M465 1442v-1442h-313v1442h313zM164 1921q0 -68 37.5 -114t107.5 -46t108 46.5t38 113.5h223q-2 -161 -101 -257.5t-268 -96.5t-267.5 96.5t-100.5 257.5h223z" />
    <glyph glyph-name="ibreve" unicode="&#x12d;" horiz-adv-x="557" 
d="M428 1059v-1059h-299v1059h299zM141 1542q0 -69 33.5 -114.5t101.5 -45.5t102 45.5t34 114.5h223q-2 -161 -97.5 -257.5t-261.5 -96.5t-261 96.5t-97 257.5h223z" />
    <glyph glyph-name="Iogonek" unicode="&#x12e;" horiz-adv-x="616" 
d="M465 1442v-1442q-75 -54 -113.5 -102.5t-38.5 -98.5q0 -44 28 -69t79 -25h80v-197h-140q-147 0 -225 61.5t-78 164.5q0 75 45.5 145t116.5 121h-67v1442h313z" />
    <glyph glyph-name="iogonek" unicode="&#x12f;" horiz-adv-x="557" 
d="M428 1059v-1059q-75 -54 -113.5 -102.5t-38.5 -98.5q0 -44 28 -69t79 -25h80v-197h-139q-147 0 -225.5 61.5t-78.5 164.5q0 75 45.5 145t116.5 121h-53v1059h299zM276 1534q72 0 122.5 -49t50.5 -119q0 -72 -50.5 -121t-122.5 -49t-121 49t-49 121q0 71 49 119.5
t121 48.5z" />
    <glyph glyph-name="Idotaccent" unicode="&#x130;" horiz-adv-x="616" 
d="M465 1442v-1442h-313v1442h313zM309 1913q72 0 122 -49t50 -119q0 -72 -50 -121t-122 -49t-121 49t-49 121q0 71 49 119.5t121 48.5z" />
    <glyph glyph-name="dotlessi" unicode="&#x131;" horiz-adv-x="557" 
d="M428 1059v-1059h-299v1059h299z" />
    <glyph glyph-name="Jcircumflex" unicode="&#x134;" horiz-adv-x="1183" 
d="M47 418h305q5 -64 52.5 -113t130.5 -49q93 0 142.5 60.5t49.5 170.5v955h313v-959q0 -241 -135 -374.5t-373 -133.5q-217 0 -350 126t-135 317zM737 1579h-258l283 348h246l282 -348h-256l-149 172z" />
    <glyph glyph-name="jcircumflex" unicode="&#x135;" horiz-adv-x="557" 
d="M-41 -395v239h43q129 0 129 168v1047h297v-1057q0 -205 -92 -301t-303 -96h-74zM150 1200h-252l258 348h245l258 -348h-251l-129 172z" />
    <glyph glyph-name="uni0136" unicode="&#x136;" horiz-adv-x="1361" 
d="M465 0h-313v1442h313v-594l504 594h366l-577 -692l590 -750h-381l-502 629v-629zM877 -285q0 -57 -25 -121l-92 -219h-205l82 201q-44 17 -73 54.5t-29 95.5q0 71 47 116t120 45q74 0 124.5 -49.5t50.5 -122.5z" />
    <glyph glyph-name="uni0137" unicode="&#x137;" horiz-adv-x="1130" 
d="M428 0h-299v1489h299v-850l346 420h338l-412 -498l420 -561h-348l-344 469v-469zM756 -285q0 -57 -25 -121l-92 -219h-205l82 201q-44 17 -73 54.5t-29 95.5q0 70 47 115.5t121 45.5t124 -49.5t50 -122.5z" />
    <glyph glyph-name="Lacute" unicode="&#x139;" horiz-adv-x="1189" 
d="M465 1442v-1163h653v-279h-966v1442h313zM664 1927l-224 -348h-243l192 348h275z" />
    <glyph glyph-name="lacute" unicode="&#x13a;" horiz-adv-x="557" 
d="M428 1489v-1489h-299v1489h299zM633 1954l-223 -348h-244l192 348h275z" />
    <glyph glyph-name="uni013B" unicode="&#x13b;" horiz-adv-x="1189" 
d="M465 1442v-1163h653v-279h-966v1442h313zM827 -285q0 -59 -24 -121l-92 -219h-205l82 201q-44 17 -73.5 54.5t-29.5 95.5q0 70 47 115.5t121 45.5t124 -49.5t50 -122.5z" />
    <glyph glyph-name="uni013C" unicode="&#x13c;" horiz-adv-x="557" 
d="M428 1489v-1489h-299v1489h299zM449 -285q0 -57 -25 -121l-92 -219h-205l82 201q-44 17 -73.5 54.5t-29.5 95.5q0 70 47 115.5t121 45.5t124.5 -49.5t50.5 -122.5z" />
    <glyph glyph-name="Lcaron" unicode="&#x13d;" horiz-adv-x="1189" 
d="M465 1442v-1163h653v-279h-966v1442h313zM948 1288q0 -60 -24 -121l-107 -254h-205l97 236q-44 17 -73.5 54t-29.5 95q0 69 47.5 114.5t120.5 45.5q74 0 124 -48.5t50 -121.5z" />
    <glyph glyph-name="lcaron" unicode="&#x13e;" horiz-adv-x="878" 
d="M428 1489v-1489h-299v1489h299zM883 1335q0 -57 -25 -121l-106 -253h-205l96 235q-44 17 -73 54.5t-29 95.5q0 69 47.5 114t120.5 45q74 0 124 -48.5t50 -121.5z" />
    <glyph glyph-name="Lslash" unicode="&#x141;" horiz-adv-x="1230" 
d="M807 887l-301 -144v-464h655v-279h-968v596l-152 -72v250l152 72v596h313v-449l301 144v-250z" />
    <glyph glyph-name="lslash" unicode="&#x142;" horiz-adv-x="653" 
d="M20 778l158 76v635h297v-492l158 78v-229l-158 -78v-768h-297v625l-158 -76v229z" />
    <glyph glyph-name="Nacute" unicode="&#x143;" horiz-adv-x="1529" 
d="M479 1442l598 -914v914h301v-1442h-295l-630 958v-958h-301v1442h327zM1124 1927l-223 -348h-244l193 348h274z" />
    <glyph glyph-name="nacute" unicode="&#x144;" horiz-adv-x="1222" 
d="M129 1059h287v-125q41 63 120.5 106t186.5 43q77 0 144 -23.5t121 -70.5t85 -127.5t31 -185.5v-676h-299v610q0 101 -49 153t-133 52q-81 0 -138 -53.5t-57 -155.5v-606h-299v1059zM977 1548l-223 -348h-244l192 348h275z" />
    <glyph glyph-name="uni0145" unicode="&#x145;" horiz-adv-x="1529" 
d="M479 1442l598 -914v914h301v-1442h-295l-630 958v-958h-301v1442h327zM930 -264q0 -57 -25 -121l-92 -219h-205l82 201q-102 40 -102 149q0 71 47.5 116.5t120.5 45.5q74 0 124 -49.5t50 -122.5z" />
    <glyph glyph-name="uni0146" unicode="&#x146;" horiz-adv-x="1222" 
d="M129 1059h287v-125q41 63 120.5 106t186.5 43q77 0 144 -23.5t121 -70.5t85 -127.5t31 -185.5v-676h-299v610q0 101 -49 153t-133 52q-81 0 -138 -53.5t-57 -155.5v-606h-299v1059zM786 -285q0 -59 -24 -121l-92 -219h-205l82 201q-44 17 -73.5 54.5t-29.5 95.5
q0 70 47 115.5t121 45.5t124 -49.5t50 -122.5z" />
    <glyph glyph-name="Ncaron" unicode="&#x147;" horiz-adv-x="1529" 
d="M479 1442l598 -914v914h301v-1442h-295l-630 958v-958h-301v1442h327zM614 1927l156 -172l156 172h258l-291 -348h-246l-291 348h258z" />
    <glyph glyph-name="ncaron" unicode="&#x148;" horiz-adv-x="1222" 
d="M129 1059h287v-125q41 63 120.5 106t186.5 43q77 0 144 -23.5t121 -70.5t85 -127.5t31 -185.5v-676h-299v610q0 101 -49 153t-133 52q-81 0 -138 -53.5t-57 -155.5v-606h-299v1059zM475 1548l148 -172l149 172h256l-283 -348h-245l-283 348h258z" />
    <glyph glyph-name="Eng" unicode="&#x14a;" horiz-adv-x="1529" 
d="M1077 1442h301v-1440q0 -204 -94.5 -300.5t-306.5 -96.5h-76v245h45q59 0 98 31t39 103v22l-630 952v-958h-301v1442h327l598 -907v907z" />
    <glyph glyph-name="eng" unicode="&#x14b;" horiz-adv-x="1222" 
d="M723 1083q77 0 144 -23.5t121 -70.5t85 -127.5t31 -185.5v-674q0 -205 -92.5 -301t-304.5 -96h-74v239h43q129 0 129 168v598q0 101 -49 153t-133 52q-81 0 -138 -53.5t-57 -155.5v-606h-299v1059h287v-125q41 63 120.5 106t186.5 43z" />
    <glyph glyph-name="Omacron" unicode="&#x14c;" horiz-adv-x="1552" 
d="M776 1466q202 0 359 -92.5t244 -262.5t87 -390t-87 -390t-244 -263t-359 -93t-359 93t-244 263t-87 390t87 390t244 262.5t359 92.5zM776 256q171 0 271 130t100 335t-100 335t-271 130t-270.5 -129.5t-99.5 -335.5t99.5 -335.5t270.5 -129.5zM436 1847h680v-213h-680
v213z" />
    <glyph glyph-name="omacron" unicode="&#x14d;" horiz-adv-x="1210" 
d="M606 1083q236 0 384.5 -153t148.5 -402t-148.5 -401t-384.5 -152q-238 0 -386 152t-148 401t148.5 402t385.5 153zM606 233q107 0 170.5 82t63.5 213q0 132 -63.5 214.5t-170.5 82.5q-109 0 -172 -82t-63 -215q0 -131 63.5 -213t171.5 -82zM276 1468h660v-211h-660v211z
" />
    <glyph glyph-name="Obreve" unicode="&#x14e;" horiz-adv-x="1552" 
d="M776 1466q202 0 359 -92.5t244 -262.5t87 -390t-87 -390t-244 -263t-359 -93t-359 93t-244 263t-87 390t87 390t244 262.5t359 92.5zM776 256q171 0 271 130t100 335t-100 335t-271 130t-270.5 -129.5t-99.5 -335.5t99.5 -335.5t270.5 -129.5zM625 1921q0 -68 39 -114
t112 -46t112.5 46.5t39.5 113.5h225q-2 -160 -103.5 -257t-273.5 -97t-273.5 97t-103.5 257h226z" />
    <glyph glyph-name="obreve" unicode="&#x14f;" horiz-adv-x="1210" 
d="M606 1083q236 0 384.5 -153t148.5 -402t-148.5 -401t-384.5 -152q-238 0 -386 152t-148 401t148.5 402t385.5 153zM606 233q107 0 170.5 82t63.5 213q0 132 -63.5 214.5t-170.5 82.5q-109 0 -172 -82t-63 -215q0 -131 63.5 -213t171.5 -82zM461 1542q0 -68 37.5 -114
t107.5 -46t108 46.5t38 113.5h223q-2 -161 -101 -257.5t-268 -96.5t-267.5 96.5t-100.5 257.5h223z" />
    <glyph glyph-name="Ohungarumlaut" unicode="&#x150;" horiz-adv-x="1552" 
d="M776 1466q202 0 359 -92.5t244 -262.5t87 -390t-87 -390t-244 -263t-359 -93t-359 93t-244 263t-87 390t87 390t244 262.5t359 92.5zM776 256q171 0 271 130t100 335t-100 335t-271 130t-270.5 -129.5t-99.5 -335.5t99.5 -335.5t270.5 -129.5zM909 1927l-213 -348h-233
l182 348h264zM1305 1927l-211 -348h-234l180 348h265z" />
    <glyph glyph-name="ohungarumlaut" unicode="&#x151;" horiz-adv-x="1210" 
d="M606 1083q236 0 384.5 -153t148.5 -402t-148.5 -401t-384.5 -152q-238 0 -386 152t-148 401t148.5 402t385.5 153zM606 233q107 0 170.5 82t63.5 213q0 132 -63.5 214.5t-170.5 82.5q-109 0 -172 -82t-63 -215q0 -131 63.5 -213t171.5 -82zM741 1548l-211 -348h-233
l180 348h264zM1130 1548l-210 -348h-234l180 348h264z" />
    <glyph glyph-name="OE" unicode="&#x152;" horiz-adv-x="2088" 
d="M1987 1442v-279h-654v-295h615v-268h-615v-321h654v-279h-1145q-343 0 -549.5 195t-206.5 526t206.5 526t549.5 195h1145zM406 721q0 -207 125 -327t333 -120h156v893h-156q-208 0 -333 -119.5t-125 -326.5z" />
    <glyph glyph-name="oe" unicode="&#x153;" horiz-adv-x="1921" 
d="M590 1083q259 0 395 -188q65 91 162.5 139.5t218.5 48.5q220 0 351.5 -145.5t131.5 -390.5v-103h-714v-4q0 -98 66.5 -163.5t170.5 -65.5q71 0 118.5 28.5t57.5 63.5h291q-12 -59 -44 -114t-86 -104.5t-140 -79.5t-191 -30q-261 0 -395 185q-136 -185 -393 -185
q-227 0 -372.5 152.5t-145.5 400.5t145.5 401.5t372.5 153.5zM606 233q107 0 170.5 82t63.5 213t-63.5 214t-170.5 83q-108 0 -171.5 -82.5t-63.5 -214.5q0 -131 63.5 -213t171.5 -82zM1354 850q-91 0 -149 -52.5t-68 -144.5h419q-6 91 -59.5 144t-142.5 53z" />
    <glyph glyph-name="Racute" unicode="&#x154;" horiz-adv-x="1335" 
d="M1225 967q0 -137 -64.5 -247.5t-181.5 -170.5l326 -549h-351l-286 489h-203v-489h-313v1442h557q121 0 219.5 -36.5t163 -100.5t99 -150.5t34.5 -187.5zM682 1174h-217v-420h217q105 0 165 58.5t60 150.5q0 94 -59.5 152.5t-165.5 58.5zM1022 1927l-223 -348h-244
l193 348h274z" />
    <glyph glyph-name="racute" unicode="&#x155;" horiz-adv-x="827" 
d="M723 1063h53v-283h-69q-134 0 -206.5 -64t-72.5 -179v-537h-299v1059h287v-166q95 170 307 170zM811 1548l-223 -348h-244l193 348h274z" />
    <glyph glyph-name="uni0156" unicode="&#x156;" horiz-adv-x="1335" 
d="M1225 967q0 -137 -64.5 -247.5t-181.5 -170.5l326 -549h-351l-286 489h-203v-489h-313v1442h557q121 0 219.5 -36.5t163 -100.5t99 -150.5t34.5 -187.5zM682 1174h-217v-420h217q105 0 165 58.5t60 150.5q0 94 -59.5 152.5t-165.5 58.5zM872 -285q0 -59 -24 -121
l-92 -219h-205l82 201q-44 17 -73.5 54.5t-29.5 95.5q0 70 47 115.5t121 45.5t124 -49.5t50 -122.5z" />
    <glyph glyph-name="uni0157" unicode="&#x157;" horiz-adv-x="827" 
d="M723 1063h53v-283h-69q-134 0 -206.5 -64t-72.5 -179v-537h-299v1059h287v-166q95 170 307 170zM449 -285q0 -57 -25 -121l-92 -219h-205l82 201q-44 17 -73.5 54.5t-29.5 95.5q0 70 47 115.5t121 45.5t124.5 -49.5t50.5 -122.5z" />
    <glyph glyph-name="Rcaron" unicode="&#x158;" horiz-adv-x="1335" 
d="M1225 967q0 -137 -64.5 -247.5t-181.5 -170.5l326 -549h-351l-286 489h-203v-489h-313v1442h557q121 0 219.5 -36.5t163 -100.5t99 -150.5t34.5 -187.5zM682 1174h-217v-420h217q105 0 165 58.5t60 150.5q0 94 -59.5 152.5t-165.5 58.5zM512 1927l156 -172l155 172h258
l-290 -348h-246l-291 348h258z" />
    <glyph glyph-name="rcaron" unicode="&#x159;" horiz-adv-x="827" 
d="M723 1063h53v-283h-69q-134 0 -206.5 -64t-72.5 -179v-537h-299v1059h287v-166q95 170 307 170zM309 1548l148 -172l149 172h256l-282 -348h-246l-283 348h258z" />
    <glyph glyph-name="Sacute" unicode="&#x15a;" horiz-adv-x="1298" 
d="M84 414h315q22 -79 89 -126.5t180 -47.5q106 0 167.5 48.5t61.5 127.5q0 130 -170 155l-231 37q-194 29 -295 131.5t-101 270.5q0 202 152 329t385 127q230 0 380 -113t179 -313h-311q-48 160 -248 160q-95 0 -157 -46t-62 -122q0 -118 164 -141l227 -35
q189 -29 297 -131.5t108 -284.5q0 -214 -147 -339.5t-401 -125.5q-239 0 -396.5 117.5t-185.5 321.5zM1001 1927l-223 -348h-243l192 348h274z" />
    <glyph glyph-name="sacute" unicode="&#x15b;" horiz-adv-x="1062" 
d="M362 313q12 -54 61.5 -83t123.5 -29q73 0 114 29t41 79q0 40 -29 61t-87 29l-180 21q-320 39 -320 311q0 156 124.5 254t317.5 98q186 0 306.5 -88t140.5 -243h-289q-30 104 -166 104q-65 0 -105 -29.5t-40 -72.5q0 -75 110 -88l189 -23q148 -18 233.5 -96t85.5 -219
q0 -165 -125.5 -259t-320.5 -94q-124 0 -225 35t-170 113t-80 190h290zM885 1548l-223 -348h-244l192 348h275z" />
    <glyph glyph-name="Scircumflex" unicode="&#x15c;" horiz-adv-x="1298" 
d="M84 414h315q22 -79 89 -126.5t180 -47.5q106 0 167.5 48.5t61.5 127.5q0 130 -170 155l-231 37q-194 29 -295 131.5t-101 270.5q0 202 152 329t385 127q230 0 380 -113t179 -313h-311q-48 160 -248 160q-95 0 -157 -46t-62 -122q0 -118 164 -141l227 -35
q189 -29 297 -131.5t108 -284.5q0 -214 -147 -339.5t-401 -125.5q-239 0 -396.5 117.5t-185.5 321.5zM492 1579h-259l291 348h246l291 -348h-258l-156 172z" />
    <glyph glyph-name="scircumflex" unicode="&#x15d;" horiz-adv-x="1062" 
d="M362 313q12 -54 61.5 -83t123.5 -29q73 0 114 29t41 79q0 40 -29 61t-87 29l-180 21q-320 39 -320 311q0 156 124.5 254t317.5 98q186 0 306.5 -88t140.5 -243h-289q-30 104 -166 104q-65 0 -105 -29.5t-40 -72.5q0 -75 110 -88l189 -23q148 -18 233.5 -96t85.5 -219
q0 -165 -125.5 -259t-320.5 -94q-124 0 -225 35t-170 113t-80 190h290zM383 1200h-258l283 348h245l283 -348h-256l-150 172z" />
    <glyph glyph-name="Scedilla" unicode="&#x15e;" horiz-adv-x="1298" 
d="M84 414h315q22 -79 89 -126.5t180 -47.5q106 0 167.5 48.5t61.5 127.5q0 130 -170 155l-231 37q-194 29 -295 131.5t-101 270.5q0 202 152 329t385 127q230 0 380 -113t179 -313h-311q-48 160 -248 160q-95 0 -157 -46t-62 -122q0 -118 164 -141l227 -35
q189 -29 297 -131.5t108 -284.5q0 -195 -121.5 -316.5t-336.5 -143.5l-27 -80q71 -9 124.5 -57.5t53.5 -133.5q0 -104 -79.5 -166.5t-233.5 -62.5h-129v168h104q44 0 69.5 18.5t25.5 52.5q0 68 -93 68h-61v43l55 152q-200 24 -328.5 137t-152.5 295z" />
    <glyph glyph-name="scedilla" unicode="&#x15f;" horiz-adv-x="1062" 
d="M362 313q12 -54 61.5 -83t123.5 -29q73 0 114 29t41 79q0 40 -29 61t-87 29l-180 21q-320 39 -320 311q0 156 124.5 254t317.5 98q186 0 306.5 -88t140.5 -243h-289q-30 104 -166 104q-65 0 -105 -29.5t-40 -72.5q0 -75 110 -88l189 -23q148 -18 233.5 -96t85.5 -219
q0 -146 -97.5 -235.5t-258.5 -110.5l-27 -82q71 -9 124.5 -57.5t53.5 -133.5q0 -104 -79.5 -166.5t-233.5 -62.5h-129v168h105q44 0 69 18t25 53q0 68 -92 68h-62v43l55 152q-157 20 -259 103.5t-115 227.5h290z" />
    <glyph glyph-name="Scaron" unicode="&#x160;" horiz-adv-x="1298" 
d="M84 414h315q22 -79 89 -126.5t180 -47.5q106 0 167.5 48.5t61.5 127.5q0 130 -170 155l-231 37q-194 29 -295 131.5t-101 270.5q0 202 152 329t385 127q230 0 380 -113t179 -313h-311q-48 160 -248 160q-95 0 -157 -46t-62 -122q0 -118 164 -141l227 -35
q189 -29 297 -131.5t108 -284.5q0 -214 -147 -339.5t-401 -125.5q-239 0 -396.5 117.5t-185.5 321.5zM492 1927l155 -172l156 172h258l-291 -348h-246l-291 348h259z" />
    <glyph glyph-name="scaron" unicode="&#x161;" horiz-adv-x="1062" 
d="M362 313q12 -54 61.5 -83t123.5 -29q73 0 114 29t41 79q0 40 -29 61t-87 29l-180 21q-320 39 -320 311q0 156 124.5 254t317.5 98q186 0 306.5 -88t140.5 -243h-289q-30 104 -166 104q-65 0 -105 -29.5t-40 -72.5q0 -75 110 -88l189 -23q148 -18 233.5 -96t85.5 -219
q0 -165 -125.5 -259t-320.5 -94q-124 0 -225 35t-170 113t-80 190h290zM383 1548l147 -172l150 172h256l-283 -348h-245l-283 348h258z" />
    <glyph glyph-name="uni0162" unicode="&#x162;" horiz-adv-x="1298" 
d="M63 1163v279h1172v-279h-428v-1163h-59l-33 -100q71 -9 124.5 -57.5t53.5 -133.5q0 -104 -79.5 -166.5t-233.5 -62.5h-129v168h104q44 0 69 18t25 53q0 68 -92 68h-61v43l63 170h-65v1163h-431z" />
    <glyph glyph-name="uni0163" unicode="&#x163;" horiz-adv-x="765" 
d="M492 393q0 -80 34.5 -109.5t106.5 -29.5h61v-256h-139l-31 -98q71 -9 124.5 -57.5t53.5 -133.5q0 -104 -79.5 -166.5t-233.5 -62.5h-129v168h105q44 0 69 18t25 53q0 68 -92 68h-62v43l74 197q-95 35 -140.5 119t-45.5 225v444h-162v244h162v270h299v-270h202v-244h-202
v-422z" />
    <glyph glyph-name="Tcaron" unicode="&#x164;" horiz-adv-x="1298" 
d="M63 1163v279h1172v-279h-428v-1163h-313v1163h-431zM496 1927l155 -172l156 172h258l-291 -348h-246l-290 348h258z" />
    <glyph glyph-name="tcaron" unicode="&#x165;" horiz-adv-x="847" 
d="M492 393q0 -80 34.5 -109.5t106.5 -29.5h61v-256h-114q-200 0 -293.5 87t-93.5 286v444h-162v244h162v270h299v-270h202v-244h-202v-422zM911 1516q0 -54 -26 -121l-92 -219h-203l82 200q-45 17 -75 54.5t-30 95.5q0 70 48 116t120 46q74 0 125 -49.5t51 -122.5z" />
    <glyph glyph-name="Tbar" unicode="&#x166;" horiz-adv-x="1298" 
d="M1100 522h-293v-522h-313v522h-293v242h293v399h-431v279h1172v-279h-428v-399h293v-242z" />
    <glyph glyph-name="tbar" unicode="&#x167;" horiz-adv-x="765" 
d="M31 662h162v161h-162v236h162v270h296v-270h205v-236h-205v-161h205v-201h-205v-74q0 -80 36 -109.5t108 -29.5h61v-250h-114q-200 0 -293.5 87t-93.5 286v90h-162v201z" />
    <glyph glyph-name="Utilde" unicode="&#x168;" horiz-adv-x="1495" 
d="M141 586v856h314v-848q0 -162 78.5 -250t214.5 -88t214 88t78 250v848h314v-856q0 -152 -46 -270t-128.5 -192t-191.5 -111.5t-240 -37.5t-240.5 37.5t-192 111.5t-128.5 192t-46 270zM942 1901h186v-46q0 -135 -63.5 -208.5t-171.5 -73.5q-47 0 -92.5 19t-74 42.5
t-58.5 42.5t-50 19q-29 0 -48 -21t-19 -59v-29h-184v45q0 136 62.5 209.5t170.5 73.5q47 0 92.5 -19t73.5 -41.5t58 -41.5t50 -19q30 0 49 20.5t19 57.5v29z" />
    <glyph glyph-name="utilde" unicode="&#x169;" horiz-adv-x="1222" 
d="M1096 0h-287v123q-42 -63 -122 -105.5t-187 -42.5q-77 0 -143 23t-120 70.5t-85 128t-31 186.5v676h297v-610q0 -101 49.5 -153t134.5 -52q81 0 138 53t57 156v606h299v-1059zM797 1522h184v-45q0 -135 -64 -208t-172 -73q-46 0 -89.5 19t-70 41.5t-56 41.5t-50.5 19
q-29 0 -46 -20.5t-17 -57.5v-31h-185v45q0 136 63 209.5t171 73.5q46 0 90 -19t71 -41.5t56 -41.5t49 -19q29 0 47.5 20t18.5 58v29z" />
    <glyph glyph-name="Umacron" unicode="&#x16a;" horiz-adv-x="1495" 
d="M141 586v856h314v-848q0 -162 78.5 -250t214.5 -88t214 88t78 250v848h314v-856q0 -152 -46 -270t-128.5 -192t-191.5 -111.5t-240 -37.5t-240.5 37.5t-192 111.5t-128.5 192t-46 270zM408 1847h679v-213h-679v213z" />
    <glyph glyph-name="umacron" unicode="&#x16b;" horiz-adv-x="1222" 
d="M1096 0h-287v123q-42 -63 -122 -105.5t-187 -42.5q-77 0 -143 23t-120 70.5t-85 128t-31 186.5v676h297v-610q0 -101 49.5 -153t134.5 -52q81 0 138 53t57 156v606h299v-1059zM276 1468h660v-211h-660v211z" />
    <glyph glyph-name="Ubreve" unicode="&#x16c;" horiz-adv-x="1495" 
d="M141 586v856h314v-848q0 -162 78.5 -250t214.5 -88t214 88t78 250v848h314v-856q0 -152 -46 -270t-128.5 -192t-191.5 -111.5t-240 -37.5t-240.5 37.5t-192 111.5t-128.5 192t-46 270zM596 1921q0 -67 39.5 -113.5t112.5 -46.5t112 46t39 114h225q-2 -160 -103 -257
t-273 -97t-273.5 97t-103.5 257h225z" />
    <glyph glyph-name="ubreve" unicode="&#x16d;" horiz-adv-x="1222" 
d="M1096 0h-287v123q-42 -63 -122 -105.5t-187 -42.5q-77 0 -143 23t-120 70.5t-85 128t-31 186.5v676h297v-610q0 -101 49.5 -153t134.5 -52q81 0 138 53t57 156v606h299v-1059zM461 1542q0 -68 37.5 -114t107.5 -46t108 46.5t38 113.5h223q-2 -161 -101 -257.5t-268 -96.5
t-267.5 96.5t-100.5 257.5h223z" />
    <glyph glyph-name="Uring" unicode="&#x16e;" horiz-adv-x="1495" 
d="M141 586v856h314v-848q0 -162 78.5 -250t214.5 -88t214 88t78 250v848h314v-856q0 -152 -46 -270t-128.5 -192t-191.5 -111.5t-240 -37.5t-240.5 37.5t-192 111.5t-128.5 192t-46 270zM997 1794q0 -103 -71 -171.5t-178 -68.5t-178.5 68.5t-71.5 171.5q0 104 71 172
t179 68q107 0 178 -68t71 -172zM659 1794q0 -38 26 -63t63 -25t62.5 25t25.5 63t-25.5 63t-62.5 25t-63 -25t-26 -63z" />
    <glyph glyph-name="uring" unicode="&#x16f;" horiz-adv-x="1222" 
d="M1096 0h-287v123q-42 -63 -122 -105.5t-187 -42.5q-77 0 -143 23t-120 70.5t-85 128t-31 186.5v676h297v-610q0 -101 49.5 -153t134.5 -52q81 0 138 53t57 156v606h299v-1059zM856 1415q0 -103 -71.5 -171t-178.5 -68t-178.5 68t-71.5 171q0 104 71 172t179 68t179 -68
t71 -172zM518 1415q0 -38 25.5 -63t62.5 -25t62.5 25t25.5 63t-25.5 63t-62.5 25t-62.5 -25t-25.5 -63z" />
    <glyph glyph-name="Uhungarumlaut" unicode="&#x170;" horiz-adv-x="1495" 
d="M141 586v856h314v-848q0 -162 78.5 -250t214.5 -88t214 88t78 250v848h314v-856q0 -152 -46 -270t-128.5 -192t-191.5 -111.5t-240 -37.5t-240.5 37.5t-192 111.5t-128.5 192t-46 270zM881 1927l-213 -348h-234l182 348h265zM1276 1927l-211 -348h-234l181 348h264z" />
    <glyph glyph-name="uhungarumlaut" unicode="&#x171;" horiz-adv-x="1222" 
d="M1096 0h-287v123q-42 -63 -122 -105.5t-187 -42.5q-77 0 -143 23t-120 70.5t-85 128t-31 186.5v676h297v-610q0 -101 49.5 -153t134.5 -52q81 0 138 53t57 156v606h299v-1059zM741 1548l-211 -348h-233l180 348h264zM1130 1548l-210 -348h-234l180 348h264z" />
    <glyph glyph-name="Uogonek" unicode="&#x172;" horiz-adv-x="1495" 
d="M1116 74q-8 -6 -36.5 -29t-41 -33.5t-38.5 -33t-39.5 -36t-32 -34.5t-28 -37.5t-16.5 -35.5t-7 -36q0 -44 27.5 -69t78.5 -25h80v-197h-139q-147 0 -225 61.5t-78 164.5q0 123 139 241h-12q-131 0 -240.5 37.5t-192 111.5t-128.5 192t-46 270v856h314v-848
q0 -162 78.5 -250t214.5 -88t214 88t78 250v848h314v-856q0 -355 -240 -512h2z" />
    <glyph glyph-name="uogonek" unicode="&#x173;" horiz-adv-x="1222" 
d="M1096 0q-75 -54 -113.5 -102.5t-38.5 -98.5q0 -44 28 -69t79 -25h79v-197h-139q-147 0 -225 61.5t-78 164.5q0 75 45.5 145t116.5 121h-41v123q-42 -63 -122 -105.5t-187 -42.5q-77 0 -143 23t-120 70.5t-85 128t-31 186.5v676h297v-610q0 -101 49.5 -153t134.5 -52
q81 0 138 53t57 156v606h299v-1059z" />
    <glyph glyph-name="Wcircumflex" unicode="&#x174;" horiz-adv-x="2072" 
d="M2030 1442l-426 -1442h-297l-273 993l-270 -993h-295l-426 1442h317l267 -942l266 942h287l268 -944l266 944h316zM879 1579h-258l290 348h246l291 -348h-258l-156 172z" />
    <glyph glyph-name="wcircumflex" unicode="&#x175;" horiz-adv-x="1667" 
d="M1651 1059l-330 -1059h-293l-197 694l-194 -694h-291l-328 1059h304l184 -647l184 647h289l184 -649l183 649h305zM686 1200h-258l283 348h245l283 -348h-256l-149 172z" />
    <glyph glyph-name="Ycircumflex" unicode="&#x176;" horiz-adv-x="1370" 
d="M842 0h-314v547l-508 895h340l326 -596l326 596h338l-508 -895v-547zM537 1579h-258l290 348h246l291 -348h-258l-156 172z" />
    <glyph glyph-name="ycircumflex" unicode="&#x177;" horiz-adv-x="1126" 
d="M799 1059h319l-557 -1450h-317l159 420l-395 1030h322l233 -682zM416 1200h-258l282 348h246l283 -348h-256l-150 172z" />
    <glyph glyph-name="Ydieresis" unicode="&#x178;" horiz-adv-x="1370" 
d="M842 0h-314v547l-508 895h340l326 -596l326 596h338l-508 -895v-547zM459 1901q67 0 113 -47t46 -113t-46 -112t-113 -46t-113.5 46t-46.5 112t46.5 113t113.5 47zM928 1901q66 0 112.5 -47t46.5 -113t-46.5 -112t-112.5 -46q-67 0 -113.5 46t-46.5 112t46.5 113
t113.5 47z" />
    <glyph glyph-name="Zacute" unicode="&#x179;" horiz-adv-x="1288" 
d="M102 248l695 915h-695v279h1082v-246l-695 -917h695v-279h-1082v248zM999 1927l-223 -348h-244l193 348h274z" />
    <glyph glyph-name="zacute" unicode="&#x17a;" horiz-adv-x="1046" 
d="M86 0v231l500 570h-500v258h875v-234l-500 -569h500v-256h-875zM879 1548l-224 -348h-243l192 348h275z" />
    <glyph glyph-name="Zdotaccent" unicode="&#x17b;" horiz-adv-x="1288" 
d="M102 248l695 915h-695v279h1082v-246l-695 -917h695v-279h-1082v248zM645 1913q72 0 122 -49t50 -119q0 -72 -50 -121t-122 -49t-121 49t-49 121q0 71 49 119.5t121 48.5z" />
    <glyph glyph-name="zdotaccent" unicode="&#x17c;" horiz-adv-x="1046" 
d="M86 0v231l500 570h-500v258h875v-234l-500 -569h500v-256h-875zM524 1534q72 0 122 -49t50 -119q0 -72 -50 -121t-122 -49t-121 49t-49 121q0 71 49 119.5t121 48.5z" />
    <glyph glyph-name="Zcaron" unicode="&#x17d;" horiz-adv-x="1288" 
d="M102 248l695 915h-695v279h1082v-246l-695 -917h695v-279h-1082v248zM489 1927l156 -172l156 172h258l-291 -348h-246l-291 348h258z" />
    <glyph glyph-name="zcaron" unicode="&#x17e;" horiz-adv-x="1046" 
d="M86 0v231l500 570h-500v258h875v-234l-500 -569h500v-256h-875zM377 1548l147 -172l150 172h256l-283 -348h-246l-282 348h258z" />
    <glyph glyph-name="uni018F" unicode="&#x18f;" horiz-adv-x="1488" 
d="M86 702v121h989q-3 167 -104 269t-250 102q-114 0 -189 -49t-114 -129h-316q22 93 72.5 173.5t127 143t185.5 98t236 35.5q206 0 361 -93.5t237 -262t82 -389.5q0 -340 -180.5 -543t-477.5 -203q-203 0 -354 96t-228 260t-77 371zM748 248q138 0 223 88t100 233h-653
q6 -136 95 -228.5t235 -92.5z" />
    <glyph glyph-name="florin" unicode="&#x192;" horiz-adv-x="1050" 
d="M244 944h184l21 119q31 195 135 287t303 92h96v-252h-68q-146 0 -174 -162l-14 -84h172v-244h-213l-104 -645q-33 -195 -137 -287t-302 -92h-96v252h66q150 0 174 162l100 610h-143v244z" />
    <glyph glyph-name="uni01CD" unicode="&#x1cd;" horiz-adv-x="1431" 
d="M553 1442h324l528 -1442h-324l-102 297h-528l-101 -297h-323zM713 1079l-174 -520h348zM561 1927l156 -172l155 172h258l-290 -348h-246l-291 348h258z" />
    <glyph glyph-name="uni01CE" unicode="&#x1ce;" horiz-adv-x="1146" 
d="M735 702q0 71 -48 110.5t-126 39.5q-72 0 -115.5 -28.5t-56.5 -73.5h-278q23 145 143.5 239t318.5 94q209 0 332 -101t123 -290v-692h-276v115q-111 -140 -314 -140q-159 0 -263.5 90.5t-104.5 245.5q0 162 115.5 252t318.5 90h231v49zM520 207q90 0 152.5 51.5
t62.5 140.5v47h-209q-70 0 -113.5 -32t-43.5 -88q0 -55 41 -87t110 -32zM430 1548l148 -172l149 172h256l-283 -348h-245l-283 348h258z" />
    <glyph glyph-name="uni01D1" unicode="&#x1d1;" horiz-adv-x="1552" 
d="M776 1466q202 0 359 -92.5t244 -262.5t87 -390t-87 -390t-244 -263t-359 -93t-359 93t-244 263t-87 390t87 390t244 262.5t359 92.5zM776 256q171 0 271 130t100 335t-100 335t-271 130t-270.5 -129.5t-99.5 -335.5t99.5 -335.5t270.5 -129.5zM621 1927l155 -172l156 172
h258l-291 -348h-246l-291 348h259z" />
    <glyph glyph-name="uni01D2" unicode="&#x1d2;" horiz-adv-x="1210" 
d="M606 1083q236 0 384.5 -153t148.5 -402t-148.5 -401t-384.5 -152q-238 0 -386 152t-148 401t148.5 402t385.5 153zM606 233q107 0 170.5 82t63.5 213q0 132 -63.5 214.5t-170.5 82.5q-109 0 -172 -82t-63 -215q0 -131 63.5 -213t171.5 -82zM459 1548l147 -172l150 172
h256l-283 -348h-246l-282 348h258z" />
    <glyph glyph-name="uni01D3" unicode="&#x1d3;" horiz-adv-x="1495" 
d="M141 586v856h314v-848q0 -162 78.5 -250t214.5 -88t214 88t78 250v848h314v-856q0 -152 -46 -270t-128.5 -192t-191.5 -111.5t-240 -37.5t-240.5 37.5t-192 111.5t-128.5 192t-46 270zM592 1927l156 -172l155 172h258l-291 -348h-245l-291 348h258z" />
    <glyph glyph-name="uni01D4" unicode="&#x1d4;" horiz-adv-x="1222" 
d="M1096 0h-287v123q-42 -63 -122 -105.5t-187 -42.5q-77 0 -143 23t-120 70.5t-85 128t-31 186.5v676h297v-610q0 -101 49.5 -153t134.5 -52q81 0 138 53t57 156v606h299v-1059zM459 1548l147 -172l150 172h256l-283 -348h-246l-282 348h258z" />
    <glyph glyph-name="uni0218" unicode="&#x218;" horiz-adv-x="1298" 
d="M84 414h315q22 -79 89 -126.5t180 -47.5q106 0 167.5 48.5t61.5 127.5q0 130 -170 155l-231 37q-194 29 -295 131.5t-101 270.5q0 202 152 329t385 127q230 0 380 -113t179 -313h-311q-48 160 -248 160q-95 0 -157 -46t-62 -122q0 -118 164 -141l227 -35
q189 -29 297 -131.5t108 -284.5q0 -214 -147 -339.5t-401 -125.5q-239 0 -396.5 117.5t-185.5 321.5zM836 -285q0 -57 -25 -121l-92 -219h-205l82 201q-44 17 -73 54.5t-29 95.5q0 70 47 115.5t121 45.5t124 -49.5t50 -122.5z" />
    <glyph glyph-name="uni0219" unicode="&#x219;" horiz-adv-x="1062" 
d="M362 313q12 -54 61.5 -83t123.5 -29q73 0 114 29t41 79q0 40 -29 61t-87 29l-180 21q-320 39 -320 311q0 156 124.5 254t317.5 98q186 0 306.5 -88t140.5 -243h-289q-30 104 -166 104q-65 0 -105 -29.5t-40 -72.5q0 -75 110 -88l189 -23q148 -18 233.5 -96t85.5 -219
q0 -165 -125.5 -259t-320.5 -94q-124 0 -225 35t-170 113t-80 190h290zM717 -285q0 -57 -25 -121l-92 -219h-205l82 201q-44 17 -73 54.5t-29 95.5q0 70 47 115.5t121 45.5t124 -49.5t50 -122.5z" />
    <glyph glyph-name="uni021A" unicode="&#x21a;" horiz-adv-x="1298" 
d="M63 1163v279h1172v-279h-428v-1163h-313v1163h-431zM821 -285q0 -59 -24 -121l-92 -219h-205l82 201q-44 17 -73.5 54.5t-29.5 95.5q0 70 47 115.5t121 45.5t124 -49.5t50 -122.5z" />
    <glyph glyph-name="uni021B" unicode="&#x21b;" horiz-adv-x="765" 
d="M492 393q0 -80 34.5 -109.5t106.5 -29.5h61v-256h-114q-200 0 -293.5 87t-93.5 286v444h-162v244h162v270h299v-270h202v-244h-202v-422zM614 -285q0 -59 -24 -121l-92 -219h-205l82 201q-44 17 -73.5 54.5t-29.5 95.5q0 70 47 115.5t121 45.5t124 -49.5t50 -122.5z" />
    <glyph glyph-name="uni0237" unicode="&#x237;" horiz-adv-x="557" 
d="M-41 -395v239h43q129 0 129 168v1047h297v-1057q0 -205 -92 -301t-303 -96h-74z" />
    <glyph glyph-name="uni0259" unicode="&#x259;" horiz-adv-x="1161" 
d="M72 514v113h716v4q0 97 -62.5 158t-168.5 61q-70 0 -119 -28t-61 -62h-289q11 58 45 113t89.5 103t144 77.5t196.5 29.5q243 0 385 -145.5t142 -402.5q0 -258 -139.5 -409t-370.5 -151t-369.5 145t-138.5 394zM575 209q92 0 147 55t64 154h-421q1 -96 59 -152.5
t151 -56.5z" />
    <glyph glyph-name="circumflex" unicode="&#x2c6;" horiz-adv-x="1064" 
d="M385 1200h-258l283 348h245l283 -348h-256l-150 172z" />
    <glyph glyph-name="caron" unicode="&#x2c7;" horiz-adv-x="1064" 
d="M385 1548l147 -172l150 172h256l-283 -348h-245l-283 348h258z" />
    <glyph glyph-name="breve" unicode="&#x2d8;" horiz-adv-x="1064" 
d="M387 1542q0 -68 37.5 -114t107.5 -46t108 46.5t38 113.5h223q-2 -161 -101 -257.5t-268 -96.5t-267.5 96.5t-100.5 257.5h223z" />
    <glyph glyph-name="dotaccent" unicode="&#x2d9;" horiz-adv-x="1064" 
d="M530 1534q72 0 122 -49t50 -119q0 -72 -50 -121t-122 -49t-121 49t-49 121q0 71 49 119.5t121 48.5z" />
    <glyph glyph-name="ring" unicode="&#x2da;" horiz-adv-x="1064" 
d="M782 1415q0 -103 -71.5 -171t-178.5 -68t-178 68t-71 171q0 104 71 172t178 68q108 0 179 -68t71 -172zM444 1415q0 -38 25.5 -63t62.5 -25t63 25t26 63t-26 63t-63 25t-62.5 -25t-25.5 -63z" />
    <glyph glyph-name="ogonek" unicode="&#x2db;" horiz-adv-x="1064" 
d="M719 0q-75 -54 -113.5 -102.5t-38.5 -98.5q0 -44 28 -69t79 -25h80v-197h-140q-147 0 -225 61.5t-78 164.5q0 96 72 182t170 131z" />
    <glyph glyph-name="tilde" unicode="&#x2dc;" horiz-adv-x="1064" 
d="M723 1522h184v-45q0 -135 -63.5 -208t-171.5 -73q-46 0 -89.5 19t-70 41.5t-56 41.5t-50.5 19q-29 0 -46.5 -20.5t-17.5 -57.5v-31h-184v45q0 136 62.5 209.5t170.5 73.5q46 0 90 -19t71 -41.5t56 -41.5t49 -19q29 0 47.5 20t18.5 58v29z" />
    <glyph glyph-name="hungarumlaut" unicode="&#x2dd;" horiz-adv-x="1064" 
d="M559 1548l-211 -348h-233l180 348h264zM948 1548l-211 -348h-233l180 348h264z" />
    <glyph glyph-name="gravecomb" unicode="&#x300;" 
d="M-354 1548h274l193 -348h-244z" />
    <glyph glyph-name="acutecomb" unicode="&#x301;" 
d="M354 1548l-223 -348h-244l193 348h274z" />
    <glyph glyph-name="uni0302" unicode="&#x302;" 
d="M-147 1200h-259l283 348h246l283 -348h-256l-150 172z" />
    <glyph glyph-name="tildecomb" unicode="&#x303;" 
d="M190 1522h185v-45q0 -135 -64 -208t-172 -73q-46 0 -89.5 19t-70 41.5t-56 41.5t-50.5 19q-29 0 -46 -20.5t-17 -57.5v-31h-185v45q0 136 63 209.5t171 73.5q46 0 90 -19t71 -41.5t56 -41.5t49 -19q29 0 47 20t18 58v29z" />
    <glyph glyph-name="uni0304" unicode="&#x304;" 
d="M-330 1468h660v-211h-660v211z" />
    <glyph glyph-name="uni0306" unicode="&#x306;" 
d="M-145 1542q0 -68 37.5 -114t107.5 -46t107.5 46t37.5 114h224q-2 -161 -101 -257.5t-268 -96.5t-268 96.5t-101 257.5h224z" />
    <glyph glyph-name="uni0307" unicode="&#x307;" 
d="M0 1534q72 0 122 -49t50 -119q0 -72 -50 -121t-122 -49t-121 49t-49 121q0 71 49 119.5t121 48.5z" />
    <glyph glyph-name="uni0308" unicode="&#x308;" 
d="M-223 1522q66 0 113 -46.5t47 -111.5q0 -66 -47 -113t-113 -47q-67 0 -114.5 47t-47.5 113q0 65 47.5 111.5t114.5 46.5zM225 1522q67 0 113.5 -46.5t46.5 -111.5q0 -66 -46.5 -113t-113.5 -47t-113 47t-46 113q0 65 46 111.5t113 46.5z" />
    <glyph glyph-name="uni030A" unicode="&#x30a;" 
d="M250 1415q0 -103 -71.5 -171t-178.5 -68t-178.5 68t-71.5 171q0 104 71 172t179 68t179 -68t71 -172zM-88 1415q0 -38 25.5 -63t62.5 -25t62.5 25t25.5 63t-25.5 63t-62.5 25t-62.5 -25t-25.5 -63z" />
    <glyph glyph-name="uni030B" unicode="&#x30b;" 
d="M135 1548l-211 -348h-233l180 348h264zM524 1548l-211 -348h-233l180 348h264z" />
    <glyph glyph-name="uni030C" unicode="&#x30c;" 
d="M-147 1548l147 -172l150 172h256l-283 -348h-246l-283 348h259z" />
    <glyph glyph-name="uni0312" unicode="&#x312;" 
d="M-170 1356q0 60 25 121l92 219h205l-82 -201q44 -17 73 -53.5t29 -93.5q0 -71 -47.5 -116.5t-120.5 -45.5q-74 0 -124 48.5t-50 121.5z" />
    <glyph glyph-name="uni0326" unicode="&#x326;" 
d="M170 -285q0 -57 -25 -121l-92 -219h-205l82 201q-44 17 -73 54.5t-29 95.5q0 70 47 115.5t121 45.5t124 -49.5t50 -122.5z" />
    <glyph glyph-name="uni0327" unicode="&#x327;" 
d="M96 29v-29l-33 -100q71 -9 125 -57.5t54 -133.5q0 -104 -80 -166.5t-234 -62.5h-129v168h105q44 0 69 18t25 53q0 68 -92 68h-62v43l74 199h178z" />
    <glyph glyph-name="uni0328" unicode="&#x328;" 
d="M0 0q-75 -54 -113.5 -102.5t-38.5 -98.5q0 -44 28 -69t79 -25h80v-197h-139q-147 0 -225.5 61.5t-78.5 164.5q0 96 72 182t170 131z" />
    <glyph glyph-name="uni037E" unicode="&#x37e;" horiz-adv-x="604" 
d="M481 147q0 -59 -24 -122l-135 -349h-218l123 322q-47 20 -77.5 59t-30.5 99q0 73 50.5 121.5t127.5 48.5q78 0 131 -52t53 -127zM303 1028q75 0 126.5 -51.5t51.5 -126.5t-51.5 -126.5t-126.5 -51.5q-77 0 -129.5 51.5t-52.5 126.5t52.5 126.5t129.5 51.5z" />
    <glyph glyph-name="tonos" unicode="&#x384;" horiz-adv-x="1064" 
d="M766 1548l-223 -348h-244l193 348h274z" />
    <glyph glyph-name="dieresistonos" unicode="&#x385;" horiz-adv-x="1064" 
d="M223 1497q57 0 97 -39.5t40 -95.5q0 -57 -40 -96t-97 -39t-97 39t-40 96q0 56 40 95.5t97 39.5zM709 1548l-136 -348h-198l102 348h232zM840 1497q57 0 97 -39.5t40 -95.5q0 -57 -40 -96t-97 -39t-97.5 39t-40.5 96q0 56 40.5 95.5t97.5 39.5z" />
    <glyph glyph-name="Alphatonos" unicode="&#x386;" horiz-adv-x="1439" 
d="M561 1442h324l528 -1442h-323l-103 297h-528l-101 -297h-323zM721 1079l-174 -520h348zM483 1442l-223 -348h-242l193 348h272z" />
    <glyph glyph-name="anoteleia" unicode="&#x387;" horiz-adv-x="604" 
d="M303 709q75 0 126.5 -52t51.5 -127t-51.5 -126.5t-126.5 -51.5q-77 0 -129.5 51.5t-52.5 126.5t53 127t129 52z" />
    <glyph glyph-name="Epsilontonos" unicode="&#x388;" horiz-adv-x="1560" 
d="M1458 1163h-653v-295h614v-268h-614v-321h653v-279h-966v1442h966v-279zM446 1442l-223 -348h-241l192 348h272z" />
    <glyph glyph-name="Etatonos" unicode="&#x389;" horiz-adv-x="1851" 
d="M805 0h-313v1442h313v-563h584v563h313v-1442h-313v598h-584v-598zM446 1442l-223 -348h-241l192 348h272z" />
    <glyph glyph-name="Iotatonos" unicode="&#x38a;" horiz-adv-x="954" 
d="M805 1442v-1442h-313v1442h313zM446 1442l-223 -348h-241l192 348h272z" />
    <glyph glyph-name="Omicrontonos" unicode="&#x38c;" horiz-adv-x="1751" 
d="M975 1466q202 0 359 -92.5t244 -262.5t87 -390t-87 -390t-244 -263t-359 -93t-359 93t-244 263t-87 390t87 390t244 262.5t359 92.5zM975 256q171 0 271 130t100 335t-100 335t-271 130t-271 -130t-100 -335t100 -335t271 -130zM446 1442l-223 -348h-241l192 348h272z
" />
    <glyph glyph-name="Upsilontonos" unicode="&#x38e;" horiz-adv-x="1814" 
d="M1286 0h-313v547l-508 895h340l325 -596l326 596h338l-508 -895v-547zM446 1442l-223 -348h-241l192 348h272z" />
    <glyph glyph-name="Omegatonos" unicode="&#x38f;" horiz-adv-x="1777" 
d="M1681 788q0 -160 -68.5 -293.5t-187.5 -224.5h256v-270h-563v315q97 60 171.5 182.5t74.5 268.5q0 184 -101 302t-272 118t-273 -118t-102 -302q0 -146 75.5 -268.5t172.5 -182.5v-315h-563v270h254q-117 92 -185.5 225t-68.5 293q0 302 192 490t498 188t498 -188
t192 -490zM446 1442l-223 -348h-241l192 348h272z" />
    <glyph glyph-name="iotadieresistonos" unicode="&#x390;" horiz-adv-x="657" 
d="M428 393q0 -79 34.5 -109t96.5 -30h37v-256h-80q-200 0 -293.5 87t-93.5 286v688h299v-666zM-4 1497q57 0 97 -39.5t40 -95.5q0 -57 -40 -96t-97 -39t-97 39t-40 96q0 56 40 95.5t97 39.5zM481 1548l-135 -348h-199l103 348h231zM612 1497q57 0 97.5 -39.5t40.5 -95.5
q0 -57 -40.5 -96t-97.5 -39t-97 39t-40 96q0 56 40 95.5t97 39.5z" />
    <glyph glyph-name="Alpha" unicode="&#x391;" horiz-adv-x="1431" 
d="M553 1442h324l528 -1442h-324l-102 297h-528l-101 -297h-323zM713 1079l-174 -520h348z" />
    <glyph glyph-name="Beta" unicode="&#x392;" horiz-adv-x="1323" 
d="M152 0v1442h581q112 0 200.5 -29.5t143.5 -81.5t84 -119.5t29 -146.5q0 -117 -54.5 -195.5t-134.5 -113.5q98 -29 171 -115.5t73 -226.5q0 -183 -131.5 -298.5t-355.5 -115.5h-606zM719 614h-256v-354h254q96 0 153.5 47t57.5 129q0 83 -56.5 130.5t-152.5 47.5z
M684 1182h-221v-324h229q88 0 135 45.5t47 116.5q0 77 -49 119.5t-141 42.5z" />
    <glyph glyph-name="Gamma" unicode="&#x393;" horiz-adv-x="1173" 
d="M1102 1163h-637v-1163h-313v1442h950v-279z" />
    <glyph glyph-name="uni0394" unicode="&#x394;" horiz-adv-x="1464" 
d="M893 1442l547 -1442h-1415l544 1442h324zM729 1083l-280 -802h567z" />
    <glyph glyph-name="Epsilon" unicode="&#x395;" horiz-adv-x="1220" 
d="M1118 1163h-653v-295h614v-268h-614v-321h653v-279h-966v1442h966v-279z" />
    <glyph glyph-name="Zeta" unicode="&#x396;" horiz-adv-x="1288" 
d="M102 248l695 915h-695v279h1082v-246l-695 -917h695v-279h-1082v248z" />
    <glyph glyph-name="Eta" unicode="&#x397;" horiz-adv-x="1513" 
d="M465 0h-313v1442h313v-563h584v563h313v-1442h-313v598h-584v-598z" />
    <glyph glyph-name="Theta" unicode="&#x398;" horiz-adv-x="1552" 
d="M776 1466q202 0 359 -92.5t244 -262.5t87 -390t-87 -390t-244 -263t-359 -93t-359 93t-244 263t-87 390t87 390t244 262.5t359 92.5zM776 250q175 0 276 131t101 340t-101 340t-276 131t-276 -131t-101 -340t101 -340t276 -131zM1051 606h-549v264h549v-264z" />
    <glyph glyph-name="Iota" unicode="&#x399;" horiz-adv-x="616" 
d="M465 1442v-1442h-313v1442h313z" />
    <glyph glyph-name="Kappa" unicode="&#x39a;" horiz-adv-x="1361" 
d="M465 0h-313v1442h313v-594l504 594h366l-577 -692l590 -750h-381l-502 629v-629z" />
    <glyph glyph-name="Lambda" unicode="&#x39b;" horiz-adv-x="1413" 
d="M33 0l510 1442h325l512 -1442h-331l-344 1038l-343 -1038h-329z" />
    <glyph glyph-name="Mu" unicode="&#x39c;" horiz-adv-x="1875" 
d="M152 1442h389l399 -1012l397 1012h387v-1442h-292v969l-379 -957h-230l-377 949v-961h-294v1442z" />
    <glyph glyph-name="Nu" unicode="&#x39d;" horiz-adv-x="1529" 
d="M479 1442l598 -914v914h301v-1442h-295l-630 958v-958h-301v1442h327z" />
    <glyph glyph-name="Xi" unicode="&#x39e;" horiz-adv-x="1267" 
d="M102 283h1063v-283h-1063v283zM201 870h866v-272h-866v272zM102 1442h1063v-283h-1063v283z" />
    <glyph glyph-name="Omicron" unicode="&#x39f;" horiz-adv-x="1552" 
d="M776 1466q202 0 359 -92.5t244 -262.5t87 -390t-87 -390t-244 -263t-359 -93t-359 93t-244 263t-87 390t87 390t244 262.5t359 92.5zM776 256q171 0 271 130t100 335t-100 335t-271 130t-270.5 -129.5t-99.5 -335.5t99.5 -335.5t270.5 -129.5z" />
    <glyph glyph-name="Pi" unicode="&#x3a0;" horiz-adv-x="1507" 
d="M152 1442h1204v-1442h-314v1163h-577v-1163h-313v1442z" />
    <glyph glyph-name="Rho" unicode="&#x3a1;" horiz-adv-x="1292" 
d="M700 1442q243 0 381 -136.5t138 -351.5q0 -209 -140 -347t-370 -138h-244v-469h-313v1442h548zM672 1174h-207v-437h207q105 0 167 60.5t62 156.5q0 99 -60.5 159.5t-168.5 60.5z" />
    <glyph glyph-name="Sigma" unicode="&#x3a3;" horiz-adv-x="1263" 
d="M1159 1442v-275h-672l379 -444l-383 -449h676v-274h-1057v246l408 475l-406 475v246h1055z" />
    <glyph glyph-name="Tau" unicode="&#x3a4;" horiz-adv-x="1298" 
d="M63 1163v279h1172v-279h-428v-1163h-313v1163h-431z" />
    <glyph glyph-name="Upsilon" unicode="&#x3a5;" horiz-adv-x="1370" 
d="M842 0h-314v547l-508 895h340l326 -596l326 596h338l-508 -895v-547z" />
    <glyph glyph-name="Phi" unicode="&#x3a6;" horiz-adv-x="1767" 
d="M1036 1333q103 -4 198.5 -30t178.5 -76.5t144.5 -120t97 -166.5t35.5 -211q0 -140 -54 -255t-146 -188.5t-208 -114.5t-246 -46v-148h-305v148q-104 4 -199.5 30t-178 76.5t-144 120.5t-96.5 167t-35 210q0 114 35 211t96.5 166.5t144 120t178 76.5t199.5 30v150h305
v-150zM731 389v678q-153 -3 -248.5 -94t-95.5 -244q0 -152 95.5 -243.5t248.5 -96.5zM1036 389q152 5 248 97t96 243q0 153 -96 244t-248 94v-678z" />
    <glyph glyph-name="Chi" unicode="&#x3a7;" horiz-adv-x="1425" 
d="M1026 0l-317 494l-316 -494h-350l475 725l-471 717h359l311 -492l315 492h346l-471 -723l475 -719h-356z" />
    <glyph glyph-name="Psi" unicode="&#x3a8;" horiz-adv-x="1806" 
d="M451 938q0 -152 78 -241.5t219 -100.5v846h313v-844q141 11 219 99.5t78 240.5v504h313v-527q0 -139 -45.5 -250t-127.5 -184t-192.5 -114.5t-244.5 -49.5v-317h-313v317q-134 8 -245 49.5t-193 114.5t-127.5 184t-45.5 250v527h314v-504z" />
    <glyph glyph-name="uni03A9" unicode="&#x3a9;" horiz-adv-x="1572" 
d="M1477 788q0 -160 -68.5 -293.5t-187.5 -224.5h256v-270h-564v315q97 60 171.5 182.5t74.5 268.5q0 184 -101 302t-272 118t-272.5 -118t-101.5 -302q0 -146 75 -268.5t172 -182.5v-315h-563v270h254q-117 92 -185.5 225t-68.5 293q0 302 192 490t498 188q202 0 359.5 -85
t244.5 -239.5t87 -353.5z" />
    <glyph glyph-name="Iotadieresis" unicode="&#x3aa;" horiz-adv-x="616" 
d="M465 1442v-1442h-313v1442h313zM86 1901q66 0 113 -46.5t47 -111.5q0 -66 -47 -113t-113 -47q-67 0 -114.5 47t-47.5 113q0 65 47.5 111.5t114.5 46.5zM535 1901q67 0 113 -46.5t46 -111.5q0 -66 -46 -113t-113 -47t-113.5 47t-46.5 113q0 65 46.5 111.5t113.5 46.5z" />
    <glyph glyph-name="Upsilondieresis" unicode="&#x3ab;" horiz-adv-x="1370" 
d="M842 0h-314v547l-508 895h340l326 -596l326 596h338l-508 -895v-547zM459 1901q67 0 113 -47t46 -113t-46 -112t-113 -46t-113.5 46t-46.5 112t46.5 113t113.5 47zM928 1901q66 0 112.5 -47t46.5 -113t-46.5 -112t-112.5 -46q-67 0 -113.5 46t-46.5 112t46.5 113
t113.5 47z" />
    <glyph glyph-name="alphatonos" unicode="&#x3ac;" horiz-adv-x="1255" 
d="M530 -25q-95 0 -178 37.5t-145.5 106.5t-98.5 174.5t-36 234.5q0 255 133 405t334 150q108 0 186 -41t115 -108v125h286v-1059h-286v125q-43 -67 -121.5 -108.5t-188.5 -41.5zM602 825q-104 0 -167.5 -81t-63.5 -216q0 -133 63.5 -214t167.5 -81t168 79.5t64 211.5v8
q0 134 -63.5 213.5t-168.5 79.5zM967 1548l-224 -348h-243l192 348h275z" />
    <glyph glyph-name="epsilontonos" unicode="&#x3ad;" horiz-adv-x="1091" 
d="M1026 743h-289q-11 49 -57 79t-121 30q-76 0 -119 -29.5t-43 -79.5q0 -46 41 -71t113 -25h151v-219h-153q-81 0 -124.5 -29t-43.5 -82q0 -55 47 -82.5t127 -27.5t131.5 30t63.5 87h290q-15 -163 -144.5 -256t-340.5 -93q-217 0 -345 85.5t-128 230.5q0 104 60 167.5
t139 86.5q-179 67 -179 225q0 136 125 224.5t324 88.5q205 0 331.5 -89t143.5 -251zM903 1548l-223 -348h-244l193 348h274z" />
    <glyph glyph-name="etatonos" unicode="&#x3ae;" horiz-adv-x="1222" 
d="M129 1059h287v-125q41 63 120.5 106t186.5 43q77 0 144 -23.5t121 -70.5t85 -127.5t31 -185.5v-1067h-299v1001q0 101 -49 153t-133 52q-81 0 -138 -53.5t-57 -155.5v-606h-299v1059zM977 1548l-223 -348h-244l192 348h275z" />
    <glyph glyph-name="iotatonos" unicode="&#x3af;" horiz-adv-x="657" 
d="M428 393q0 -79 34.5 -109t96.5 -30h37v-256h-80q-200 0 -293.5 87t-93.5 286v688h299v-666zM633 1548l-223 -348h-244l192 348h275z" />
    <glyph glyph-name="upsilondieresistonos" unicode="&#x3b0;" horiz-adv-x="1214" 
d="M797 1059h299v-627q0 -214 -135.5 -335.5t-354.5 -121.5q-217 0 -351 121.5t-134 335.5v627h297v-617q0 -101 51.5 -153.5t136.5 -52.5q87 0 139 52.5t52 153.5v617zM301 1497q57 0 97 -39.5t40 -95.5q0 -57 -40 -96t-97 -39t-97 39t-40 96q0 56 40 95.5t97 39.5z
M786 1548l-135 -348h-198l102 348h231zM918 1497q57 0 97 -39.5t40 -95.5q0 -57 -40 -96t-97 -39t-97.5 39t-40.5 96q0 56 40.5 95.5t97.5 39.5z" />
    <glyph glyph-name="alpha" unicode="&#x3b1;" horiz-adv-x="1255" 
d="M530 -25q-95 0 -178 37.5t-145.5 106.5t-98.5 174.5t-36 234.5q0 255 133 405t334 150q108 0 186 -41t115 -108v125h286v-1059h-286v125q-43 -67 -121.5 -108.5t-188.5 -41.5zM602 825q-104 0 -167.5 -81t-63.5 -216q0 -133 63.5 -214t167.5 -81t168 79.5t64 211.5v8
q0 134 -63.5 213.5t-168.5 79.5z" />
    <glyph glyph-name="beta" unicode="&#x3b2;" horiz-adv-x="1265" 
d="M934 799q46 -17 87.5 -45.5t80.5 -73t62.5 -111t23.5 -145.5q0 -188 -128.5 -318.5t-318.5 -130.5q-208 0 -313 134v-500h-299v1419q0 116 41.5 210t112.5 154t163 92t197 32q215 0 349 -116t134 -292q0 -118 -55.5 -196t-136.5 -113zM666 233q98 0 159.5 60.5
t61.5 152.5q0 95 -61.5 151t-170.5 56h-71v244h53q95 0 146 53.5t51 130.5t-54 126.5t-141 49.5q-92 0 -151.5 -59.5t-59.5 -165.5v-577q0 -98 70.5 -160t167.5 -62z" />
    <glyph glyph-name="gamma" unicode="&#x3b3;" horiz-adv-x="1126" 
d="M1118 1059l-405 -1055v-395h-299v391l-406 1059h322l233 -682l236 682h319z" />
    <glyph glyph-name="delta" unicode="&#x3b4;" horiz-adv-x="1218" 
d="M567 1249q-46 0 -73 -21.5t-27 -56.5q0 -71 127 -98q180 -40 250 -72q303 -141 303 -485q0 -112 -37 -210t-104.5 -172t-170.5 -116.5t-227 -42.5t-226 41t-169.5 113t-104 168.5t-36.5 208.5q0 168 77 277t211 155q-82 41 -130 108.5t-48 159.5q0 135 99 216t258 81h491
v-254h-463zM608 225q113 0 176.5 82t63.5 209q0 124 -65 202.5t-177 78.5q-107 0 -171 -78t-64 -203t63 -208t174 -83z" />
    <glyph glyph-name="epsilon" unicode="&#x3b5;" horiz-adv-x="1091" 
d="M1026 743h-289q-11 49 -57 79t-121 30q-76 0 -119 -29.5t-43 -79.5q0 -46 41 -71t113 -25h151v-219h-153q-81 0 -124.5 -29t-43.5 -82q0 -55 47 -82.5t127 -27.5t131.5 30t63.5 87h290q-15 -163 -144.5 -256t-340.5 -93q-217 0 -345 85.5t-128 230.5q0 104 60 167.5
t139 86.5q-179 67 -179 225q0 136 125 224.5t324 88.5q205 0 331.5 -89t143.5 -251z" />
    <glyph glyph-name="zeta" unicode="&#x3b6;" horiz-adv-x="1019" 
d="M655 942q-153 -148 -217.5 -245t-64.5 -205q0 -211 231 -244l58 -6q175 -24 254 -107.5t79 -257.5v-131h-264v90q0 61 -24 96t-91 43l-57 7q-240 32 -363.5 157t-123.5 324q0 79 21 153.5t52 133t88 128t106 119.5t128 125l137 131h-471v250h862v-235z" />
    <glyph glyph-name="eta" unicode="&#x3b7;" horiz-adv-x="1222" 
d="M129 1059h287v-125q41 63 120.5 106t186.5 43q77 0 144 -23.5t121 -70.5t85 -127.5t31 -185.5v-1067h-299v1001q0 101 -49 153t-133 52q-81 0 -138 -53.5t-57 -155.5v-606h-299v1059z" />
    <glyph glyph-name="theta" unicode="&#x3b8;" horiz-adv-x="1304" 
d="M651 1516q265 0 409 -205t144 -566t-144 -565.5t-409 -204.5q-264 0 -407.5 205t-143.5 565q0 361 143.5 566t407.5 205zM651 231q225 0 250 406h-500q27 -406 250 -406zM651 1257q-210 0 -245 -366h493q-34 366 -248 366z" />
    <glyph glyph-name="iota" unicode="&#x3b9;" horiz-adv-x="657" 
d="M428 393q0 -79 34.5 -109t96.5 -30h37v-256h-80q-200 0 -293.5 87t-93.5 286v688h299v-666z" />
    <glyph glyph-name="kappa" unicode="&#x3ba;" horiz-adv-x="1130" 
d="M428 0h-299v1059h299v-420l346 420h338l-412 -498l420 -561h-348l-344 469v-469z" />
    <glyph glyph-name="lambda" unicode="&#x3bb;" horiz-adv-x="1126" 
d="M242 1503q176 0 269.5 -77t164.5 -265l442 -1161h-319l-236 678l-233 -678h-322l398 1034l-19 51q-34 87 -78 123.5t-116 36.5h-31v258h80z" />
    <glyph glyph-name="uni03BC" unicode="&#x3bc;" horiz-adv-x="1234" 
d="M807 1059h299v-1059h-287v123q-42 -63 -122 -105.5t-187 -42.5q-43 0 -82 17v-383h-299v1450h299v-610q0 -101 49.5 -153t134.5 -52q81 0 138 53t57 156v606z" />
    <glyph glyph-name="nu" unicode="&#x3bd;" horiz-adv-x="1112" 
d="M1104 1059l-393 -1059h-312l-391 1059h322l227 -694l227 694h320z" />
    <glyph glyph-name="xi" unicode="&#x3be;" horiz-adv-x="1054" 
d="M111 1503h888v-250h-327q-100 0 -159.5 -51.5t-59.5 -130.5q0 -77 57 -124.5t156 -47.5h258v-250h-312q-111 0 -175 -54.5t-64 -143.5q0 -163 237 -203l82 -12q176 -27 253 -106t77 -253v-131h-264v90q0 60 -25 94.5t-92 44.5l-90 15q-236 35 -357.5 147.5t-121.5 288.5
q0 73 23 135t62 104t80.5 69.5t88.5 45.5q-168 86 -168 248q0 69 37 128.5t102 96.5h-186v250z" />
    <glyph glyph-name="omicron" unicode="&#x3bf;" horiz-adv-x="1210" 
d="M606 1083q236 0 384.5 -153t148.5 -402t-148.5 -401t-384.5 -152q-238 0 -386 152t-148 401t148.5 402t385.5 153zM606 233q107 0 170.5 82t63.5 213q0 132 -63.5 214.5t-170.5 82.5q-109 0 -172 -82t-63 -215q0 -131 63.5 -213t171.5 -82z" />
    <glyph glyph-name="pi" unicode="&#x3c0;" horiz-adv-x="1331" 
d="M506 0h-297v801h-156v258h1225v-258h-156v-801h-299v801h-317v-801z" />
    <glyph glyph-name="rho" unicode="&#x3c1;" horiz-adv-x="1232" 
d="M635 1083q233 0 379.5 -147t146.5 -408q0 -127 -38.5 -233t-103.5 -175t-149 -107t-176 -38q-97 0 -172 34t-116 91v-491h-297v923q0 173 70.5 299.5t188.5 189t267 62.5zM633 233q104 0 165.5 80t61.5 215t-61.5 216t-165.5 81q-105 0 -169.5 -80t-64.5 -213v-8
q0 -133 64.5 -212t169.5 -79z" />
    <glyph glyph-name="sigmafinal" unicode="&#x3c2;" horiz-adv-x="1140" 
d="M692 242q183 -27 262.5 -109t79.5 -256v-131h-264v90q0 61 -24 96t-91 43l-61 7q-252 29 -387 169.5t-135 378.5q0 158 63 283t183.5 197.5t279.5 72.5q107 0 195 -33t147 -89.5t94.5 -128.5t44.5 -154h-286q-17 61 -65.5 104t-129.5 43q-104 0 -165.5 -80t-61.5 -213
q0 -130 61 -196t182 -84z" />
    <glyph glyph-name="sigma" unicode="&#x3c3;" horiz-adv-x="1259" 
d="M1198 1059v-258h-213q148 -121 148 -314q0 -222 -148.5 -367t-380.5 -145q-236 0 -384 150.5t-148 392.5q0 245 147.5 393t394.5 148h584zM836 518q0 126 -62.5 204.5t-169.5 78.5q-106 0 -169.5 -78.5t-63.5 -204.5q0 -127 63 -206t170 -79q106 0 169 79.5t63 205.5z
" />
    <glyph glyph-name="tau" unicode="&#x3c4;" horiz-adv-x="1040" 
d="M45 801v258h934v-258h-328v-408q0 -79 34.5 -109t96.5 -30h58v-256h-99q-201 0 -295 87t-94 286v430h-307z" />
    <glyph glyph-name="upsilon" unicode="&#x3c5;" horiz-adv-x="1214" 
d="M797 1059h299v-627q0 -214 -135.5 -335.5t-354.5 -121.5q-217 0 -351 121.5t-134 335.5v627h297v-617q0 -101 51.5 -153.5t136.5 -52.5q87 0 139 52.5t52 153.5v617z" />
    <glyph glyph-name="phi" unicode="&#x3c6;" horiz-adv-x="1574" 
d="M934 1083q254 -9 411.5 -161t157.5 -394q0 -240 -158 -392t-411 -161v-366h-295v366q-254 9 -410.5 160.5t-156.5 392.5q0 242 157 394t410 161v385h295v-385zM639 227v602q-117 -3 -193.5 -84.5t-76.5 -216.5q0 -133 76.5 -214.5t193.5 -86.5zM1204 528q0 135 -76 216.5
t-194 84.5v-602q117 5 193.5 86.5t76.5 214.5z" />
    <glyph glyph-name="chi" unicode="&#x3c7;" horiz-adv-x="1128" 
d="M793 -391l-236 473l-231 -473h-318l387 727l-383 723h328l233 -467l230 467h313l-383 -725l387 -725h-327z" />
    <glyph glyph-name="psi" unicode="&#x3c8;" horiz-adv-x="1587" 
d="M1174 1059h296v-559q0 -235 -138 -368t-394 -150v-373h-289v373q-258 17 -395 150t-137 368v559h297v-529q0 -260 235 -284v1140h289v-1140q236 24 236 284v529z" />
    <glyph glyph-name="omega" unicode="&#x3c9;" horiz-adv-x="1632" 
d="M1036 1083q155 0 274.5 -73t182.5 -199.5t63 -284.5q0 -244 -112.5 -397.5t-306.5 -153.5q-237 0 -322 211q-85 -211 -319 -211q-193 0 -305.5 153.5t-112.5 397.5q0 158 62.5 284.5t181.5 199.5t274 73v-258q-99 0 -159 -83t-60 -216q0 -138 41.5 -215.5t120.5 -77.5
q69 0 102 57.5t33 143.5v275h284v-275q0 -86 33.5 -143.5t102.5 -57.5q80 0 120.5 76.5t40.5 216.5q0 133 -60 216t-159 83v258z" />
    <glyph glyph-name="iotadieresis" unicode="&#x3ca;" horiz-adv-x="657" 
d="M428 393q0 -79 34.5 -109t96.5 -30h37v-256h-80q-200 0 -293.5 87t-93.5 286v688h299v-666zM68 1522q67 0 113 -46.5t46 -111.5q0 -66 -46 -113t-113 -47t-113.5 47t-46.5 113q0 65 46.5 111.5t113.5 46.5zM496 1522q66 0 112.5 -46.5t46.5 -111.5q0 -66 -46.5 -113
t-112.5 -47q-67 0 -113.5 47t-46.5 113q0 65 46.5 111.5t113.5 46.5z" />
    <glyph glyph-name="upsilondieresis" unicode="&#x3cb;" horiz-adv-x="1214" 
d="M797 1059h299v-627q0 -214 -135.5 -335.5t-354.5 -121.5q-217 0 -351 121.5t-134 335.5v627h297v-617q0 -101 51.5 -153.5t136.5 -52.5q87 0 139 52.5t52 153.5v617zM383 1522q66 0 113 -46.5t47 -111.5q0 -66 -47 -113t-113 -47q-67 0 -114.5 47t-47.5 113
q0 65 47.5 111.5t114.5 46.5zM831 1522q67 0 113.5 -46.5t46.5 -111.5q0 -66 -46.5 -113t-113.5 -47t-113 47t-46 113q0 65 46 111.5t113 46.5z" />
    <glyph glyph-name="omicrontonos" unicode="&#x3cc;" horiz-adv-x="1210" 
d="M606 1083q236 0 384.5 -153t148.5 -402t-148.5 -401t-384.5 -152q-238 0 -386 152t-148 401t148.5 402t385.5 153zM606 233q107 0 170.5 82t63.5 213q0 132 -63.5 214.5t-170.5 82.5q-109 0 -172 -82t-63 -215q0 -131 63.5 -213t171.5 -82zM961 1548l-224 -348h-243
l192 348h275z" />
    <glyph glyph-name="upsilontonos" unicode="&#x3cd;" horiz-adv-x="1214" 
d="M797 1059h299v-627q0 -214 -135.5 -335.5t-354.5 -121.5q-217 0 -351 121.5t-134 335.5v627h297v-617q0 -101 51.5 -153.5t136.5 -52.5q87 0 139 52.5t52 153.5v617zM961 1548l-224 -348h-243l192 348h275z" />
    <glyph glyph-name="omegatonos" unicode="&#x3ce;" horiz-adv-x="1632" 
d="M1036 1083q155 0 274.5 -73t182.5 -199.5t63 -284.5q0 -244 -112.5 -397.5t-306.5 -153.5q-237 0 -322 211q-85 -211 -319 -211q-193 0 -305.5 153.5t-112.5 397.5q0 158 62.5 284.5t181.5 199.5t274 73v-258q-99 0 -159 -83t-60 -216q0 -138 41.5 -215.5t120.5 -77.5
q69 0 102 57.5t33 143.5v275h284v-275q0 -86 33.5 -143.5t102.5 -57.5q80 0 120.5 76.5t40.5 216.5q0 133 -60 216t-159 83v258zM1171 1548l-223 -348h-243l192 348h274z" />
    <glyph glyph-name="uni0400" unicode="&#x400;" horiz-adv-x="1220" 
d="M1118 1163h-653v-295h614v-268h-614v-321h653v-279h-966v1442h966v-279zM287 1927h274l193 -348h-244z" />
    <glyph glyph-name="uni0401" unicode="&#x401;" horiz-adv-x="1220" 
d="M1118 1163h-653v-295h614v-268h-614v-321h653v-279h-966v1442h966v-279zM408 1901q67 0 113 -47t46 -113t-46 -112t-113 -46t-113.5 46t-46.5 112t46.5 113t113.5 47zM877 1901q66 0 112.5 -47t46.5 -113t-46.5 -112t-112.5 -46q-67 0 -113.5 46t-46.5 112t46.5 113
t113.5 47z" />
    <glyph glyph-name="uni0402" unicode="&#x402;" horiz-adv-x="1693" 
d="M1124 905q220 0 357 -125.5t137 -339.5t-127.5 -339.5t-351.5 -125.5h-86v273h43q89 0 148 47.5t59 138.5q0 96 -65.5 146.5t-174.5 50.5q-68 0 -138.5 -21t-123.5 -57v-553h-314v1165h-417v277h1159v-277h-428v-342q135 82 323 82z" />
    <glyph glyph-name="uni0403" unicode="&#x403;" horiz-adv-x="1173" 
d="M1102 1163h-637v-1163h-313v1442h950v-279zM1010 1927l-224 -348h-243l192 348h275z" />
    <glyph glyph-name="uni0404" unicode="&#x404;" horiz-adv-x="1468" 
d="M1079 475h312q-8 -68 -35 -135.5t-78.5 -134t-121 -117t-171.5 -82t-221 -31.5q-143 0 -266.5 50.5t-215 144t-144 235.5t-52.5 316q0 168 51 308.5t140.5 236t214.5 148t272 52.5q135 0 248.5 -41t189.5 -111.5t123.5 -158.5t63.5 -188h-310q-27 95 -108 158t-207 63
q-137 0 -231.5 -84.5t-118.5 -241.5h508v-260h-512q22 -166 116 -257t238 -91q70 0 128 21t95 55t59.5 70.5t32.5 74.5z" />
    <glyph glyph-name="uni0405" unicode="&#x405;" horiz-adv-x="1298" 
d="M84 414h315q22 -79 89 -126.5t180 -47.5q106 0 167.5 48.5t61.5 127.5q0 130 -170 155l-231 37q-194 29 -295 131.5t-101 270.5q0 202 152 329t385 127q230 0 380 -113t179 -313h-311q-48 160 -248 160q-95 0 -157 -46t-62 -122q0 -118 164 -141l227 -35
q189 -29 297 -131.5t108 -284.5q0 -214 -147 -339.5t-401 -125.5q-239 0 -396.5 117.5t-185.5 321.5z" />
    <glyph glyph-name="uni0406" unicode="&#x406;" horiz-adv-x="616" 
d="M465 1442v-1442h-313v1442h313z" />
    <glyph glyph-name="uni0407" unicode="&#x407;" horiz-adv-x="616" 
d="M465 1442v-1442h-313v1442h313zM86 1901q66 0 113 -46.5t47 -111.5q0 -66 -47 -113t-113 -47q-67 0 -114.5 47t-47.5 113q0 65 47.5 111.5t114.5 46.5zM535 1901q67 0 113 -46.5t46 -111.5q0 -66 -46 -113t-113 -47t-113.5 47t-46.5 113q0 65 46.5 111.5t113.5 46.5z" />
    <glyph glyph-name="uni0408" unicode="&#x408;" horiz-adv-x="1183" 
d="M47 418h305q5 -64 52.5 -113t130.5 -49q93 0 142.5 60.5t49.5 170.5v955h313v-959q0 -241 -135 -374.5t-373 -133.5q-217 0 -350 126t-135 317z" />
    <glyph glyph-name="uni0409" unicode="&#x409;" horiz-adv-x="2146" 
d="M1561 954q238 0 375 -132.5t137 -344.5q0 -208 -139.5 -342.5t-366.5 -134.5h-553v1163h-398l-41 -628q-9 -126 -36.5 -220t-80.5 -168t-141.5 -112.5t-212.5 -38.5h-84v280h39q112 0 160.5 64.5t59.5 214.5l57 887h991v-488h234zM1530 684h-203v-416h203
q102 0 163.5 57.5t61.5 151.5q0 97 -59.5 152t-165.5 55z" />
    <glyph glyph-name="uni040A" unicode="&#x40a;" horiz-adv-x="2168" 
d="M465 0h-313v1442h313v-533h577v533h314v-529h239q230 0 365 -124t135 -330q0 -208 -132.5 -333.5t-360.5 -125.5h-560v631h-577v-631zM1567 645h-211v-377h211q97 0 154 51t57 140q0 87 -57 136.5t-154 49.5z" />
    <glyph glyph-name="uni040B" unicode="&#x40b;" horiz-adv-x="1720" 
d="M70 1165v277h1159v-277h-428v-348q131 84 303 84q111 0 201 -32.5t157 -97.5t103.5 -170.5t36.5 -244.5v-356h-314v350q0 273 -246 273q-139 0 -241 -76v-547h-314v1165h-417z" />
    <glyph glyph-name="uni040C" unicode="&#x40c;" horiz-adv-x="1361" 
d="M465 0h-313v1442h313v-594l504 594h366l-577 -692l590 -750h-381l-502 629v-629zM1053 1927l-224 -348h-243l192 348h275z" />
    <glyph glyph-name="uni040D" unicode="&#x40d;" horiz-adv-x="1529" 
d="M1378 1442v-1442h-307v946l-612 -946h-307v1442h307v-950l612 950h307zM410 1913h274l193 -348h-244z" />
    <glyph glyph-name="uni040E" unicode="&#x40e;" horiz-adv-x="1380" 
d="M27 1442h331l351 -715l319 715h326l-664 -1442h-328l185 401zM543 1921q0 -68 39 -114t112 -46t112.5 46.5t39.5 113.5h225q-2 -160 -103.5 -257t-273.5 -97t-273.5 97t-103.5 257h226z" />
    <glyph glyph-name="uni040F" unicode="&#x40f;" horiz-adv-x="1507" 
d="M152 0v1442h313v-1161h577v1161h314v-1442h-455v-315h-299v315h-450z" />
    <glyph glyph-name="uni0410" unicode="&#x410;" horiz-adv-x="1431" 
d="M553 1442h324l528 -1442h-324l-102 297h-528l-101 -297h-323zM713 1079l-174 -520h348z" />
    <glyph glyph-name="uni0411" unicode="&#x411;" horiz-adv-x="1286" 
d="M1098 1165h-633v-266h264q222 0 350.5 -121t128.5 -327q0 -195 -132 -323t-347 -128h-577v1442h946v-277zM684 645h-219v-381h219q97 0 153 53t56 140t-55.5 137.5t-153.5 50.5z" />
    <glyph glyph-name="uni0412" unicode="&#x412;" horiz-adv-x="1323" 
d="M152 0v1442h581q112 0 200.5 -29.5t143.5 -81.5t84 -119.5t29 -146.5q0 -117 -54.5 -195.5t-134.5 -113.5q98 -29 171 -115.5t73 -226.5q0 -183 -131.5 -298.5t-355.5 -115.5h-606zM719 614h-256v-354h254q96 0 153.5 47t57.5 129q0 83 -56.5 130.5t-152.5 47.5z
M684 1182h-221v-324h229q88 0 135 45.5t47 116.5q0 77 -49 119.5t-141 42.5z" />
    <glyph glyph-name="uni0413" unicode="&#x413;" horiz-adv-x="1173" 
d="M1102 1163h-637v-1163h-313v1442h950v-279z" />
    <glyph glyph-name="uni0414" unicode="&#x414;" horiz-adv-x="1568" 
d="M1524 279v-553h-301v274h-904v-274h-299v553h113q67 44 98.5 150.5t44.5 295.5l48 717h1024v-1163h176zM573 725q-13 -189 -34.5 -284t-75.5 -162h571v884h-430z" />
    <glyph glyph-name="uni0415" unicode="&#x415;" horiz-adv-x="1220" 
d="M1118 1163h-653v-295h614v-268h-614v-321h653v-279h-966v1442h966v-279z" />
    <glyph glyph-name="uni0416" unicode="&#x416;" horiz-adv-x="1998" 
d="M848 0v649l-467 -649h-361l539 743l-526 699h352l463 -611v611h303v-608l463 608h352l-526 -690l538 -752h-358l-469 647v-647h-303z" />
    <glyph glyph-name="uni0417" unicode="&#x417;" horiz-adv-x="1265" 
d="M84 1032q18 203 169 318.5t370 115.5q231 0 371.5 -110.5t140.5 -292.5q0 -115 -60 -195.5t-143 -111.5q41 -10 83 -35t82 -64.5t65.5 -101t25.5 -133.5q0 -205 -151.5 -326t-397.5 -121q-245 0 -399.5 120.5t-169.5 328.5h309q15 -80 82.5 -128t177.5 -48q107 0 169 49
t62 133q0 86 -62.5 128t-170.5 42h-193v266h164q102 0 155.5 45.5t53.5 120.5q0 73 -55.5 117.5t-145.5 44.5q-94 0 -154 -42t-73 -120h-305z" />
    <glyph glyph-name="uni0418" unicode="&#x418;" horiz-adv-x="1529" 
d="M1378 1442v-1442h-307v946l-612 -946h-307v1442h307v-950l612 950h307z" />
    <glyph glyph-name="uni0419" unicode="&#x419;" horiz-adv-x="1529" 
d="M1378 1442v-1442h-307v946l-612 -946h-307v1442h307v-950l612 950h307zM612 1907q0 -67 39.5 -113.5t112.5 -46.5t112 46t39 114h226q-2 -160 -103.5 -257.5t-273.5 -97.5t-273.5 97.5t-103.5 257.5h225z" />
    <glyph glyph-name="uni041A" unicode="&#x41a;" horiz-adv-x="1361" 
d="M465 0h-313v1442h313v-594l504 594h366l-577 -692l590 -750h-381l-502 629v-629z" />
    <glyph glyph-name="uni041B" unicode="&#x41b;" horiz-adv-x="1478" 
d="M20 -4v280h39q112 0 160.5 64.5t59.5 214.5l57 887h991v-1442h-313v1163h-398l-41 -628q-9 -126 -36.5 -220t-80.5 -168t-141.5 -112.5t-212.5 -38.5h-84z" />
    <glyph glyph-name="uni041C" unicode="&#x41c;" horiz-adv-x="1875" 
d="M152 1442h389l399 -1012l397 1012h387v-1442h-292v969l-379 -957h-230l-377 949v-961h-294v1442z" />
    <glyph glyph-name="uni041D" unicode="&#x41d;" horiz-adv-x="1513" 
d="M465 0h-313v1442h313v-563h584v563h313v-1442h-313v598h-584v-598z" />
    <glyph glyph-name="uni041E" unicode="&#x41e;" horiz-adv-x="1552" 
d="M776 1466q202 0 359 -92.5t244 -262.5t87 -390t-87 -390t-244 -263t-359 -93t-359 93t-244 263t-87 390t87 390t244 262.5t359 92.5zM776 256q171 0 271 130t100 335t-100 335t-271 130t-270.5 -129.5t-99.5 -335.5t99.5 -335.5t270.5 -129.5z" />
    <glyph glyph-name="uni041F" unicode="&#x41f;" horiz-adv-x="1507" 
d="M152 1442h1204v-1442h-314v1163h-577v-1163h-313v1442z" />
    <glyph glyph-name="uni0420" unicode="&#x420;" horiz-adv-x="1292" 
d="M700 1442q243 0 381 -136.5t138 -351.5q0 -209 -140 -347t-370 -138h-244v-469h-313v1442h548zM672 1174h-207v-437h207q105 0 167 60.5t62 156.5q0 99 -60.5 159.5t-168.5 60.5z" />
    <glyph glyph-name="uni0421" unicode="&#x421;" horiz-adv-x="1464" 
d="M1075 498h311q-5 -75 -31 -147.5t-77 -141t-122 -120t-173.5 -83t-222.5 -31.5q-143 0 -266 52t-213.5 146t-142.5 235.5t-52 312.5q0 220 86 390t239 262.5t349 92.5q138 0 251.5 -41t190 -112.5t123 -164.5t59.5 -202h-311q-27 104 -106.5 172t-206.5 68
q-157 0 -255.5 -127t-98.5 -338q0 -208 97.5 -336.5t258.5 -128.5q70 0 128 22.5t95.5 59t60 77.5t29.5 83z" />
    <glyph glyph-name="uni0422" unicode="&#x422;" horiz-adv-x="1298" 
d="M63 1163v279h1172v-279h-428v-1163h-313v1163h-431z" />
    <glyph glyph-name="uni0423" unicode="&#x423;" horiz-adv-x="1380" 
d="M27 1442h331l351 -715l319 715h326l-664 -1442h-328l185 401z" />
    <glyph glyph-name="uni0424" unicode="&#x424;" horiz-adv-x="1767" 
d="M1036 1333q103 -4 198.5 -30t178.5 -76.5t144.5 -120t97 -166.5t35.5 -211q0 -140 -54 -255t-146 -188.5t-208 -114.5t-246 -46v-148h-305v148q-104 4 -199.5 30t-178 76.5t-144 120.5t-96.5 167t-35 210q0 114 35 211t96.5 166.5t144 120t178 76.5t199.5 30v150h305
v-150zM731 389v678q-153 -3 -248.5 -94t-95.5 -244q0 -152 95.5 -243.5t248.5 -96.5zM1036 389q152 5 248 97t96 243q0 153 -96 244t-248 94v-678z" />
    <glyph glyph-name="uni0425" unicode="&#x425;" horiz-adv-x="1425" 
d="M1026 0l-317 494l-316 -494h-350l475 725l-471 717h359l311 -492l315 492h346l-471 -723l475 -719h-356z" />
    <glyph glyph-name="uni0426" unicode="&#x426;" horiz-adv-x="1576" 
d="M1530 281v-555h-301v274h-1077v1442h313v-1161h575v1161h314v-1161h176z" />
    <glyph glyph-name="uni0427" unicode="&#x427;" horiz-adv-x="1417" 
d="M954 1442h314v-1442h-314v567q-117 -65 -297 -65q-117 0 -214 34t-171 101.5t-115.5 177.5t-41.5 254v373h313v-365q0 -147 79.5 -222t209.5 -75q137 0 237 62v600z" />
    <glyph glyph-name="uni0428" unicode="&#x428;" horiz-adv-x="2041" 
d="M1178 1442v-1161h401v1161h313v-1442h-1740v1442h313v-1161h399v1161h314z" />
    <glyph glyph-name="uni0429" unicode="&#x429;" horiz-adv-x="2115" 
d="M2068 281v-555h-301v274h-1615v1442h313v-1161h399v1161h314v-1161h401v1161h313v-1161h176z" />
    <glyph glyph-name="uni042A" unicode="&#x42a;" horiz-adv-x="1503" 
d="M918 954q238 0 375 -132.5t137 -344.5q0 -209 -138.5 -343t-367.5 -134h-553v1161h-308v281h621v-488h234zM889 684h-205v-416h205q102 0 162.5 57.5t60.5 151.5q0 97 -59.5 152t-163.5 55z" />
    <glyph glyph-name="uni042B" unicode="&#x42b;" horiz-adv-x="1796" 
d="M696 954q238 0 375 -132.5t137 -344.5q0 -209 -138 -343t-365 -134h-553v1442h313v-488h231zM1645 1442v-1442h-312v1442h312zM668 684h-203v-416h203q102 0 162.5 57.5t60.5 151.5q0 97 -59 152t-164 55z" />
    <glyph glyph-name="uni042C" unicode="&#x42c;" horiz-adv-x="1284" 
d="M696 954q238 0 375 -132.5t137 -344.5q0 -209 -138 -343t-365 -134h-553v1442h313v-488h231zM668 684h-203v-416h203q102 0 162.5 57.5t60.5 151.5q0 97 -59 152t-164 55z" />
    <glyph glyph-name="uni042D" unicode="&#x42d;" horiz-adv-x="1468" 
d="M545 602v260h508q-26 158 -118.5 242t-229.5 84q-126 0 -207.5 -63t-108.5 -158h-309q16 100 63.5 188t123.5 158.5t189.5 111.5t248.5 41q147 0 271.5 -50.5t214.5 -144.5t140.5 -235.5t50.5 -314.5q0 -174 -52.5 -316.5t-144 -235.5t-214.5 -143.5t-266 -50.5
q-120 0 -222 31.5t-171.5 82t-121 117t-78 134t-34.5 135.5h311q10 -38 33 -74.5t60 -70.5t95 -55t128 -21q142 0 236 91.5t114 256.5h-510z" />
    <glyph glyph-name="uni042E" unicode="&#x42e;" horiz-adv-x="2088" 
d="M465 0h-313v1442h313v-563h184q43 268 224 427.5t448 159.5q306 0 494 -205.5t188 -539.5q0 -221 -85 -390.5t-240 -262.5t-357 -93q-275 0 -459 169t-219 454h-178v-598zM1321 256q170 0 266 129t96 336t-96 336t-266 129q-171 0 -268 -129.5t-97 -335.5t97 -335.5
t268 -129.5z" />
    <glyph glyph-name="uni042F" unicode="&#x42f;" horiz-adv-x="1335" 
d="M375 0h-344l327 549q-114 61 -178.5 168t-64.5 244q0 219 140 350t380 131h549v-1442h-312v483h-213zM432 961q0 -93 63.5 -152t170.5 -59h206v424h-206q-110 0 -172 -59t-62 -154z" />
    <glyph glyph-name="uni0430" unicode="&#x430;" horiz-adv-x="1146" 
d="M735 702q0 71 -48 110.5t-126 39.5q-72 0 -115.5 -28.5t-56.5 -73.5h-278q23 145 143.5 239t318.5 94q209 0 332 -101t123 -290v-692h-276v115q-111 -140 -314 -140q-159 0 -263.5 90.5t-104.5 245.5q0 162 115.5 252t318.5 90h231v49zM520 207q90 0 152.5 51.5
t62.5 140.5v47h-209q-70 0 -113.5 -32t-43.5 -88q0 -55 41 -87t110 -32z" />
    <glyph glyph-name="uni0431" unicode="&#x431;" horiz-adv-x="1243" 
d="M711 1040q207 0 333.5 -143.5t126.5 -380.5q0 -148 -62 -270.5t-182 -196.5t-276 -74q-267 0 -414 175.5t-147 490.5q0 181 27 314.5t89.5 239t169 169.5t261.5 90l432 72v-260l-403 -60q-149 -23 -217.5 -99.5t-83.5 -227.5q118 161 346 161zM637 225q111 0 173 82.5
t62 208.5q0 124 -62 202.5t-171 78.5q-113 0 -178.5 -77.5t-65.5 -201.5q0 -130 64 -211.5t178 -81.5z" />
    <glyph glyph-name="uni0432" unicode="&#x432;" horiz-adv-x="1110" 
d="M129 0v1059h504q178 0 272 -75.5t94 -199.5q0 -86 -43.5 -144t-111.5 -83q84 -24 139 -89t55 -167q0 -133 -102.5 -217t-290.5 -84h-516zM608 436h-186v-225h186q64 0 98.5 30.5t34.5 84.5t-34 82t-99 28zM588 848h-166v-207h166q56 0 87.5 28t31.5 76q0 50 -30.5 76.5
t-88.5 26.5z" />
    <glyph glyph-name="uni0433" unicode="&#x433;" horiz-adv-x="942" 
d="M881 801h-453v-801h-299v1059h752v-258z" />
    <glyph glyph-name="uni0434" unicode="&#x434;" horiz-adv-x="1318" 
d="M1266 258v-520h-287v262h-662v-262h-286v520h82q49 29 72.5 102t33.5 189l39 510h858v-801h150zM500 535q-9 -102 -24.5 -166.5t-53.5 -110.5h395v543h-299z" />
    <glyph glyph-name="uni0435" unicode="&#x435;" horiz-adv-x="1159" 
d="M1087 444h-714v-4q0 -98 66.5 -163.5t172.5 -65.5q70 0 117 28.5t59 63.5h289q-12 -59 -44.5 -114t-88 -104.5t-143 -79.5t-195.5 -30q-244 0 -389 146.5t-145 402.5q0 257 142.5 408t375.5 151q227 0 362 -145t135 -391v-103zM592 850q-90 0 -147.5 -52t-69.5 -145h422
q-6 91 -61 144t-144 53z" />
    <glyph glyph-name="uni0436" unicode="&#x436;" horiz-adv-x="1636" 
d="M965 1059v-434l317 434h332l-369 -500l373 -559h-338l-315 477v-477h-295v473l-314 -473h-338l373 551l-368 508h329l318 -432v432h295z" />
    <glyph glyph-name="uni0437" unicode="&#x437;" horiz-adv-x="1064" 
d="M80 748q17 159 145 247t318 88q179 0 295 -83.5t116 -219.5q0 -91 -45 -147.5t-112 -83.5q35 -8 67.5 -25t62.5 -45.5t48 -73t18 -100.5q0 -146 -125 -238t-333 -92q-199 0 -325.5 93.5t-146.5 253.5h287q17 -55 64 -85t118 -30q74 0 118 30.5t44 86.5q0 102 -159 102
h-144v219h127q67 0 104 27.5t37 77.5q0 49 -37 75.5t-100 26.5q-64 0 -106.5 -28t-53.5 -76h-282z" />
    <glyph glyph-name="uni0438" unicode="&#x438;" horiz-adv-x="1243" 
d="M1114 1059v-1059h-293v618l-409 -618h-283v1059h293v-617l409 617h283z" />
    <glyph glyph-name="uni0439" unicode="&#x439;" horiz-adv-x="1243" 
d="M1114 1059v-1059h-293v618l-409 -618h-283v1059h293v-617l409 617h283zM477 1528q0 -67 38 -113.5t108 -46.5t107.5 46t37.5 114h223q-2 -161 -100.5 -257.5t-267.5 -96.5t-268 96.5t-101 257.5h223z" />
    <glyph glyph-name="uni043A" unicode="&#x43a;" horiz-adv-x="1130" 
d="M428 0h-299v1059h299v-420l346 420h338l-412 -498l420 -561h-348l-344 469v-469z" />
    <glyph glyph-name="uni043B" unicode="&#x43b;" horiz-adv-x="1232" 
d="M31 -4v258h37q77 0 112 42t41 142l49 621h834v-1059h-299v801h-273l-28 -383q-17 -223 -111.5 -322.5t-281.5 -99.5h-80z" />
    <glyph glyph-name="uni043C" unicode="&#x43c;" horiz-adv-x="1585" 
d="M129 1059h383l285 -682l284 682h375v-1059h-285v672l-278 -664h-201l-278 662v-670h-285v1059z" />
    <glyph glyph-name="uni043D" unicode="&#x43d;" horiz-adv-x="1230" 
d="M428 0h-299v1059h299v-387h375v387h299v-1059h-299v414h-375v-414z" />
    <glyph glyph-name="uni043E" unicode="&#x43e;" horiz-adv-x="1210" 
d="M606 1083q236 0 384.5 -153t148.5 -402t-148.5 -401t-384.5 -152q-238 0 -386 152t-148 401t148.5 402t385.5 153zM606 233q107 0 170.5 82t63.5 213q0 132 -63.5 214.5t-170.5 82.5q-109 0 -172 -82t-63 -215q0 -131 63.5 -213t171.5 -82z" />
    <glyph glyph-name="uni043F" unicode="&#x43f;" horiz-adv-x="1224" 
d="M129 1059h967v-1059h-299v801h-369v-801h-299v1059z" />
    <glyph glyph-name="uni0440" unicode="&#x440;" horiz-adv-x="1255" 
d="M725 1083q196 0 327.5 -149t131.5 -406q0 -254 -133 -403.5t-334 -149.5q-99 0 -174 34.5t-115 92.5v-493h-299v1450h287v-123q43 66 121 106.5t188 40.5zM653 233q104 0 167 80t63 215t-63 216t-167 81t-167.5 -80t-63.5 -213v-8q0 -133 63 -212t168 -79z" />
    <glyph glyph-name="uni0441" unicode="&#x441;" horiz-adv-x="1146" 
d="M600 233q85 0 133 43t64 105h284q-14 -176 -145 -291t-338 -115q-239 0 -382.5 155t-143.5 398q0 118 37 220t104 176.5t166.5 116.5t218.5 42q209 0 336 -116.5t145 -286.5h-286q-18 60 -66.5 102.5t-128.5 42.5q-104 0 -165.5 -81.5t-61.5 -215.5q0 -135 62.5 -215
t166.5 -80z" />
    <glyph glyph-name="uni0442" unicode="&#x442;" horiz-adv-x="1040" 
d="M53 801v258h934v-258h-317v-801h-299v801h-318z" />
    <glyph glyph-name="uni0443" unicode="&#x443;" horiz-adv-x="1126" 
d="M799 1059h319l-557 -1450h-317l159 420l-395 1030h322l233 -682z" />
    <glyph glyph-name="uni0444" unicode="&#x444;" horiz-adv-x="1562" 
d="M928 1083q251 -9 407 -161.5t156 -393.5q0 -240 -156.5 -392t-406.5 -161v-366h-293v366q-252 9 -407.5 161t-155.5 392q0 241 156 393.5t407 161.5v385h293v-385zM635 225v606q-114 -3 -190 -86t-76 -217q0 -133 76 -215.5t190 -87.5zM1192 528q0 135 -75.5 217.5
t-188.5 85.5v-606q112 5 188 87.5t76 215.5z" />
    <glyph glyph-name="uni0445" unicode="&#x445;" horiz-adv-x="1126" 
d="M768 0l-213 326l-209 -326h-326l361 532l-356 527h337l209 -332l211 332h320l-357 -535l361 -524h-338z" />
    <glyph glyph-name="uni0446" unicode="&#x446;" horiz-adv-x="1296" 
d="M1243 258v-520h-287v262h-827v1059h299v-801h367v801h299v-801h149z" />
    <glyph glyph-name="uni0447" unicode="&#x447;" horiz-adv-x="1169" 
d="M741 1059h299v-1059h-299v399q-100 -51 -237 -51q-84 0 -156 25.5t-128 75.5t-88 133.5t-32 191.5v285h297v-254q0 -100 51 -150.5t146 -50.5q76 0 147 31v424z" />
    <glyph glyph-name="uni0448" unicode="&#x448;" horiz-adv-x="1718" 
d="M1008 1059v-801h284v801h297v-1059h-1460v1059h299v-801h283v801h297z" />
    <glyph glyph-name="uni0449" unicode="&#x449;" horiz-adv-x="1792" 
d="M1741 258v-520h-287v262h-1325v1059h299v-801h283v801h297v-801h284v801h297v-801h152z" />
    <glyph glyph-name="uni044A" unicode="&#x44a;" horiz-adv-x="1273" 
d="M618 1059v-301h183q186 0 295.5 -105.5t109.5 -271.5t-110.5 -273.5t-294.5 -107.5h-477v807h-271v252h565zM764 518h-146v-278h146q68 0 108.5 40t40.5 101q0 62 -40.5 99.5t-108.5 37.5z" />
    <glyph glyph-name="uni044B" unicode="&#x44b;" horiz-adv-x="1546" 
d="M424 1059v-301h182q186 0 296 -105.5t110 -271.5t-111 -273.5t-295 -107.5h-477v1059h295zM1417 1059v-1059h-293v1059h293zM569 518h-145v-278h145q68 0 109 40t41 101q0 62 -40.5 99.5t-109.5 37.5z" />
    <glyph glyph-name="uni044C" unicode="&#x44c;" horiz-adv-x="1079" 
d="M424 1059v-301h182q186 0 296 -105.5t110 -271.5t-111 -273.5t-295 -107.5h-477v1059h295zM569 518h-145v-278h145q68 0 109 40t41 101q0 62 -40.5 99.5t-109.5 37.5z" />
    <glyph glyph-name="uni044D" unicode="&#x44d;" horiz-adv-x="1142" 
d="M410 649h358q-17 93 -75.5 143t-143.5 50q-82 0 -132.5 -39t-66.5 -92h-280q10 72 46 137.5t94 118.5t146 84.5t193 31.5q237 0 379.5 -152t142.5 -403q0 -250 -143.5 -401.5t-384.5 -151.5q-208 0 -336 110.5t-144 270.5h279q15 -58 66 -98.5t139 -40.5q93 0 152 56
t71 155h-360v221z" />
    <glyph glyph-name="uni044E" unicode="&#x44e;" horiz-adv-x="1693" 
d="M428 0h-299v1059h299v-387h154q40 189 178 300t336 111q234 0 380 -153t146 -402t-146 -401t-380 -152q-205 0 -346 119t-175 320h-147v-414zM1096 233q107 0 167 81.5t60 213.5t-60.5 214.5t-166.5 82.5t-167 -82.5t-61 -214.5t60.5 -213.5t167.5 -81.5z" />
    <glyph glyph-name="uni044F" unicode="&#x44f;" horiz-adv-x="1120" 
d="M991 0h-295v324h-127l-207 -324h-329l248 379q-89 47 -137 129t-48 184q0 161 105.5 264t300.5 103h489v-1059zM391 690q0 -61 40.5 -100t111.5 -39h153v274h-153q-69 0 -110.5 -38t-41.5 -97z" />
    <glyph glyph-name="uni0450" unicode="&#x450;" horiz-adv-x="1159" 
d="M1087 444h-714v-4q0 -98 66.5 -163.5t172.5 -65.5q70 0 117 28.5t59 63.5h289q-12 -59 -44.5 -114t-88 -104.5t-143 -79.5t-195.5 -30q-244 0 -389 146.5t-145 402.5q0 257 142.5 408t375.5 151q227 0 362 -145t135 -391v-103zM592 850q-90 0 -147.5 -52t-69.5 -145h422
q-6 91 -61 144t-144 53zM236 1548h274l192 -348h-243z" />
    <glyph glyph-name="uni0451" unicode="&#x451;" horiz-adv-x="1159" 
d="M1087 444h-714v-4q0 -98 66.5 -163.5t172.5 -65.5q70 0 117 28.5t59 63.5h289q-12 -59 -44.5 -114t-88 -104.5t-143 -79.5t-195.5 -30q-244 0 -389 146.5t-145 402.5q0 257 142.5 408t375.5 151q227 0 362 -145t135 -391v-103zM592 850q-90 0 -147.5 -52t-69.5 -145h422
q-6 91 -61 144t-144 53zM367 1522q66 0 112.5 -46.5t46.5 -111.5q0 -66 -46.5 -113t-112.5 -47q-67 0 -114.5 47t-47.5 113q0 65 47.5 111.5t114.5 46.5zM815 1522q67 0 113.5 -46.5t46.5 -111.5q0 -66 -46.5 -113t-113.5 -47t-113.5 47t-46.5 113q0 65 46.5 111.5
t113.5 46.5z" />
    <glyph glyph-name="uni0452" unicode="&#x452;" horiz-adv-x="1228" 
d="M727 1083q77 0 144 -23.5t121 -70.5t85 -127.5t31 -185.5v-674q0 -205 -92 -301t-303 -96h-74v239h41q129 0 129 168v598q0 101 -49 153t-133 52q-81 0 -138 -53.5t-57 -155.5v-606h-299v1186h-135v182h135v121h299v-121h248v-182h-248v-234q44 56 120.5 93.5t174.5 37.5
z" />
    <glyph glyph-name="uni0453" unicode="&#x453;" horiz-adv-x="942" 
d="M881 801h-453v-801h-299v1059h752v-258zM868 1548l-223 -348h-244l193 348h274z" />
    <glyph glyph-name="uni0454" unicode="&#x454;" horiz-adv-x="1142" 
d="M731 649v-221h-360q14 -99 73 -155t152 -56q88 0 138 40t67 99h276q-16 -160 -142.5 -270.5t-334.5 -110.5q-241 0 -384.5 151.5t-143.5 401.5q0 251 142.5 403t381.5 152q105 0 193 -31.5t146.5 -84.5t95 -118.5t46.5 -137.5h-282q-16 53 -67.5 92t-133.5 39
q-85 0 -143.5 -50t-75.5 -143h356z" />
    <glyph glyph-name="uni0455" unicode="&#x455;" horiz-adv-x="1062" 
d="M362 313q12 -54 61.5 -83t123.5 -29q73 0 114 29t41 79q0 40 -29 61t-87 29l-180 21q-320 39 -320 311q0 156 124.5 254t317.5 98q186 0 306.5 -88t140.5 -243h-289q-30 104 -166 104q-65 0 -105 -29.5t-40 -72.5q0 -75 110 -88l189 -23q148 -18 233.5 -96t85.5 -219
q0 -165 -125.5 -259t-320.5 -94q-124 0 -225 35t-170 113t-80 190h290z" />
    <glyph glyph-name="uni0456" unicode="&#x456;" horiz-adv-x="557" 
d="M428 1059v-1059h-299v1059h299zM276 1534q72 0 122.5 -49t50.5 -119q0 -72 -50.5 -121t-122.5 -49t-121 49t-49 121q0 71 49 119.5t121 48.5z" />
    <glyph glyph-name="uni0457" unicode="&#x457;" horiz-adv-x="557" 
d="M428 1059v-1059h-299v1059h299zM102 1511q63 0 107.5 -43.5t44.5 -103.5q0 -62 -44.5 -106t-107.5 -44t-106 44t-43 106q0 60 43.5 103.5t105.5 43.5zM453 1511q63 0 107 -43.5t44 -103.5q0 -62 -44 -106t-107 -44q-61 0 -105.5 44t-44.5 106q0 60 44.5 103.5t105.5 43.5
z" />
    <glyph glyph-name="uni0458" unicode="&#x458;" horiz-adv-x="557" 
d="M-41 -395v239h43q129 0 129 168v1047h297v-1057q0 -205 -92 -301t-303 -96h-74zM279 1534q72 0 122 -49t50 -119q0 -72 -50 -121t-122 -49t-121 49t-49 121q0 71 49 119.5t121 48.5z" />
    <glyph glyph-name="uni0459" unicode="&#x459;" horiz-adv-x="1755" 
d="M1282 758q186 0 296 -105.5t110 -271.5t-111 -273.5t-295 -107.5h-477v801h-273l-28 -383q-17 -223 -111.5 -322.5t-281.5 -99.5h-80v258h37q77 0 112 42t41 142l49 621h830v-301h182zM1245 518h-145v-278h145q68 0 109 40t41 101q0 62 -40.5 99.5t-109.5 37.5z" />
    <glyph glyph-name="uni045A" unicode="&#x45a;" horiz-adv-x="1742" 
d="M424 0h-295v1059h295v-354h373v354h293v-346h202q176 0 279.5 -100t103.5 -257t-104 -256.5t-279 -99.5h-495v459h-373v-459zM1237 485h-147v-254h147q68 0 105.5 35.5t37.5 93.5q0 56 -37.5 90.5t-105.5 34.5z" />
    <glyph glyph-name="uni045B" unicode="&#x45b;" horiz-adv-x="1228" 
d="M0 1368h133v121h299v-121h248v-182h-248v-234q44 56 120.5 93.5t174.5 37.5q77 0 144 -23.5t121 -70.5t85 -127.5t31 -185.5v-676h-299v610q0 101 -49 153t-133 52q-81 0 -138 -53.5t-57 -155.5v-606h-299v1186h-133v182z" />
    <glyph glyph-name="uni045C" unicode="&#x45c;" horiz-adv-x="1130" 
d="M428 0h-299v1059h299v-420l346 420h338l-412 -498l420 -561h-348l-344 469v-469zM944 1548l-223 -348h-244l193 348h274z" />
    <glyph glyph-name="uni045D" unicode="&#x45d;" horiz-adv-x="1243" 
d="M1114 1059v-1059h-293v618l-409 -618h-283v1059h293v-617l409 617h283zM268 1534h275l192 -348h-243z" />
    <glyph glyph-name="uni045E" unicode="&#x45e;" horiz-adv-x="1126" 
d="M799 1059h319l-557 -1450h-317l159 420l-395 1030h322l233 -682zM418 1542q0 -68 37.5 -114t107.5 -46t108 46.5t38 113.5h223q-2 -161 -101 -257.5t-268 -96.5t-267.5 96.5t-100.5 257.5h223z" />
    <glyph glyph-name="uni045F" unicode="&#x45f;" horiz-adv-x="1226" 
d="M129 0v1059h299v-801h371v801h299v-1059h-342v-299h-287v299h-340z" />
    <glyph glyph-name="uni0462" unicode="&#x462;" horiz-adv-x="1546" 
d="M63 1053v237h351v176h311v-176h393v-237h-393v-156h264q224 0 352.5 -120t128.5 -326q0 -197 -132 -324t-349 -127h-575v1053h-351zM946 645h-221v-381h221q97 0 153 52.5t56 138.5q0 88 -55.5 139t-153.5 51z" />
    <glyph glyph-name="uni0463" unicode="&#x463;" horiz-adv-x="1300" 
d="M53 842v217h303v383h293v-383h338v-217h-338v-156h207q175 0 276 -94t101 -250t-101 -249t-278 -93h-498v842h-303zM799 469h-150v-250h150q67 0 104 35t37 92q0 56 -37 89.5t-104 33.5z" />
    <glyph glyph-name="uni0472" unicode="&#x472;" horiz-adv-x="1552" 
d="M776 1466q202 0 359 -92.5t244 -262.5t87 -390t-87 -390t-244 -263t-359 -93t-359 93t-244 263t-87 390t87 390t244 262.5t359 92.5zM776 250q158 0 256.5 109t116.5 288q-79 -72 -203 -72q-81 0 -194.5 41t-171.5 41q-101 0 -172 -49q25 -164 121.5 -261t246.5 -97z
M776 1192q-144 0 -239 -91.5t-125 -246.5q77 66 192 66q82 0 196.5 -40t170.5 -40q100 0 164 41q-35 143 -128 227t-231 84z" />
    <glyph glyph-name="uni0473" unicode="&#x473;" horiz-adv-x="1210" 
d="M606 1083q236 0 384.5 -153t148.5 -402t-148.5 -401t-384.5 -152q-238 0 -386 152t-148 401t148.5 402t385.5 153zM606 225q94 0 155 60.5t79 163.5q-48 -41 -119 -41q-55 0 -132 26.5t-114 26.5q-54 0 -102 -27q21 -97 81 -153t152 -56zM606 831q-92 0 -151 -54
t-80 -150q42 39 114 39q55 0 132 -27t114 -27q54 0 99 25q-22 91 -81 142.5t-147 51.5z" />
    <glyph glyph-name="uni0474" unicode="&#x474;" horiz-adv-x="1517" 
d="M1403 1446h70v-279h-33q-33 0 -59.5 -5.5t-46.5 -14t-37.5 -27.5t-30 -35.5t-27 -49t-24 -57.5t-25.5 -71l-324 -907h-325l-514 1442h329l349 -1045l196 588q24 73 41.5 120.5t43 101t50.5 86t61.5 65.5t79 50t99.5 27.5t127 10.5z" />
    <glyph glyph-name="uni0475" unicode="&#x475;" horiz-adv-x="1183" 
d="M1106 1063h61v-258h-32q-71 0 -110.5 -35t-76.5 -131l-237 -639h-312l-391 1059h322l227 -697l119 359q25 78 50 131.5t59 95.5t78.5 66.5t103.5 36.5t139 12z" />
    <glyph glyph-name="uni0490" unicode="&#x490;" horiz-adv-x="1173" 
d="M1102 1712v-549h-637v-1163h-313v1442h655v270h295z" />
    <glyph glyph-name="uni0491" unicode="&#x491;" horiz-adv-x="954" 
d="M895 1317v-516h-467v-801h-299v1059h483v258h283z" />
    <glyph glyph-name="uni0492" unicode="&#x492;" horiz-adv-x="1214" 
d="M952 537h-446v-537h-313v537h-150v241h150v664h952v-279h-639v-385h446v-241z" />
    <glyph glyph-name="uni0493" unicode="&#x493;" horiz-adv-x="978" 
d="M31 571h135v488h752v-256h-455v-232h305v-200h-305v-371h-297v371h-135v200z" />
    <glyph glyph-name="uni0496" unicode="&#x496;" horiz-adv-x="2052" 
d="M2005 279v-553h-299v274h-86l-469 647v-647h-303v649l-467 -649h-361l539 743l-526 699h352l463 -611v611h303v-608l463 608h352l-526 -690l338 -473h227z" />
    <glyph glyph-name="uni0497" unicode="&#x497;" horiz-adv-x="1679" 
d="M1626 258v-520h-287v262h-59l-315 477v-477h-295v473l-314 -473h-338l373 551l-368 508h329l318 -432v432h295v-434l317 434h332l-369 -500l201 -301h180z" />
    <glyph glyph-name="uni0498" unicode="&#x498;" horiz-adv-x="1265" 
d="M84 1032q18 203 169 318.5t370 115.5q231 0 371.5 -110.5t140.5 -292.5q0 -115 -60 -195.5t-143 -111.5q41 -10 83 -35t82 -64.5t65.5 -101t25.5 -133.5q0 -172 -108.5 -285.5t-293.5 -146.5v-326h-290v324q-187 33 -300.5 147t-125.5 289h309q15 -80 82.5 -128
t177.5 -48q107 0 169 49t62 133q0 86 -62.5 128t-170.5 42h-193v266h164q102 0 155.5 45.5t53.5 120.5q0 73 -55.5 117.5t-145.5 44.5q-94 0 -154 -42t-73 -120h-305z" />
    <glyph glyph-name="uni0499" unicode="&#x499;" horiz-adv-x="1064" 
d="M80 748q17 159 145 247t318 88q179 0 295 -83.5t116 -219.5q0 -91 -45 -147.5t-112 -83.5q35 -8 67.5 -25t62.5 -45.5t48 -73t18 -100.5q0 -120 -85 -204.5t-234 -112.5v-301h-275v303q-143 28 -232 115t-104 217h287q17 -55 64 -85t118 -30q74 0 118 30.5t44 86.5
q0 102 -159 102h-144v219h127q67 0 104 27.5t37 77.5q0 49 -37 75.5t-100 26.5q-64 0 -106.5 -28t-53.5 -76h-282z" />
    <glyph glyph-name="uni049A" unicode="&#x49a;" horiz-adv-x="1400" 
d="M1352 279v-553h-299v274h-86l-502 629v-629h-313v1442h313v-594l504 594h366l-577 -692l370 -471h224z" />
    <glyph glyph-name="uni049B" unicode="&#x49b;" horiz-adv-x="1173" 
d="M1118 258v-256l2 -2h-2v-262h-287v262h-59l-344 469v-469h-299v1059h299v-420l346 420h338l-412 -498l226 -303h192z" />
    <glyph glyph-name="uni049C" unicode="&#x49c;" horiz-adv-x="1591" 
d="M463 0h-311v1442h311v-570h153v322h213v-307l359 555h348l-453 -692l465 -750h-362l-357 588v-305h-213v321h-153v-604z" />
    <glyph glyph-name="uni049D" unicode="&#x49d;" horiz-adv-x="1316" 
d="M422 0h-293v1059h293v-397h110v231h187v-211l258 377h321l-344 -498l355 -561h-334l-256 420v-227h-187v231h-110v-424z" />
    <glyph glyph-name="uni04A0" unicode="&#x4a0;" horiz-adv-x="1583" 
d="M684 1442v-596l506 596h366l-579 -692l592 -750h-383l-502 633v-633h-313v1161h-308v281h621z" />
    <glyph glyph-name="uni04A1" unicode="&#x4a1;" horiz-adv-x="1318" 
d="M324 0v801h-271v258h565v-420l347 420h338l-412 -498l420 -561h-348l-345 469v-469h-294z" />
    <glyph glyph-name="uni04A2" unicode="&#x4a2;" horiz-adv-x="1583" 
d="M1536 279v-553h-299v274h-188v598h-584v-598h-313v1442h313v-563h584v563h313v-1163h174z" />
    <glyph glyph-name="uni04A3" unicode="&#x4a3;" horiz-adv-x="1304" 
d="M1251 258v-520h-286v262h-162v414h-375v-414h-299v1059h299v-387h375v387h299v-801h149z" />
    <glyph glyph-name="uni04A4" unicode="&#x4a4;" horiz-adv-x="2070" 
d="M465 0h-313v1442h313v-563h584v563h950v-279h-637v-1163h-313v598h-584v-598z" />
    <glyph glyph-name="uni04A5" unicode="&#x4a5;" horiz-adv-x="1615" 
d="M428 0h-299v1059h299v-387h375v387h753v-258h-454v-801h-299v414h-375v-414z" />
    <glyph glyph-name="uni04AA" unicode="&#x4aa;" horiz-adv-x="1464" 
d="M1075 498h311q-5 -82 -37.5 -162t-89.5 -151t-148.5 -123.5t-205.5 -73.5v-324h-291v326q-236 47 -382 241.5t-146 489.5q0 220 86 390t239 262.5t349 92.5q138 0 251.5 -41t190 -112.5t123 -164.5t59.5 -202h-311q-27 104 -106.5 172t-206.5 68q-157 0 -255.5 -127
t-98.5 -338q0 -208 97.5 -336.5t258.5 -128.5q70 0 128 22.5t95.5 59t60 77.5t29.5 83z" />
    <glyph glyph-name="uni04AB" unicode="&#x4ab;" horiz-adv-x="1146" 
d="M600 233q85 0 133 43t64 105h284q-12 -145 -104 -250.5t-242 -138.5v-305h-274v305q-182 41 -285.5 185.5t-103.5 350.5q0 118 37 220t104 176.5t166.5 116.5t218.5 42q209 0 336 -116.5t145 -286.5h-286q-18 60 -66.5 102.5t-128.5 42.5q-104 0 -165.5 -81.5
t-61.5 -215.5q0 -135 62.5 -215t166.5 -80z" />
    <glyph glyph-name="uni04AC" unicode="&#x4ac;" horiz-adv-x="1298" 
d="M981 279v-553h-299v274h-188v1163h-431v279h1172v-279h-428v-884h174z" />
    <glyph glyph-name="uni04AD" unicode="&#x4ad;" horiz-adv-x="1040" 
d="M819 258v-520h-287v262h-161v801h-318v258h934v-258h-317v-543h149z" />
    <glyph glyph-name="uni04AE" unicode="&#x4ae;" horiz-adv-x="1370" 
d="M842 0h-314v547l-508 895h340l326 -596l326 596h338l-508 -895v-547z" />
    <glyph glyph-name="uni04AF" unicode="&#x4af;" horiz-adv-x="1126" 
d="M1118 1059l-405 -1055v-395h-299v391l-406 1059h322l233 -682l236 682h319z" />
    <glyph glyph-name="uni04B0" unicode="&#x4b0;" horiz-adv-x="1366" 
d="M1167 498h-327v-498h-314v498h-327v235h223l-402 709h338l326 -602l326 602h336l-402 -709h223v-235z" />
    <glyph glyph-name="uni04B1" unicode="&#x4b1;" horiz-adv-x="1126" 
d="M201 10h209l-402 1049h322l233 -682l236 682h319l-403 -1049h211v-196h-213v-205h-299v205h-213v196z" />
    <glyph glyph-name="uni04B2" unicode="&#x4b2;" horiz-adv-x="1456" 
d="M1411 279v-553h-299v274h-86l-317 494l-316 -494h-350l475 725l-471 717h359l311 -492l315 492h346l-471 -723l291 -440h213z" />
    <glyph glyph-name="uni04B3" unicode="&#x4b3;" horiz-adv-x="1167" 
d="M1114 258v-520h-287v262h-59l-213 326l-209 -326h-326l361 532l-356 527h337l209 -332l211 332h320l-357 -535l183 -266h186z" />
    <glyph glyph-name="uni04B4" unicode="&#x4b4;" horiz-adv-x="1880" 
d="M63 1163v279h1057v-279h-364v-882h587v1161h314v-1161h176v-555h-301v274h-1090v1163h-379z" />
    <glyph glyph-name="uni04B5" unicode="&#x4b5;" horiz-adv-x="1540" 
d="M53 801v258h848v-258h-264v-543h401v801h299v-801h150v-520h-287v262h-862v801h-285z" />
    <glyph glyph-name="uni04B6" unicode="&#x4b6;" horiz-adv-x="1488" 
d="M1442 279v-553h-299v274h-189v567q-117 -65 -297 -65q-117 0 -214 34t-171 101.5t-115.5 177.5t-41.5 254v373h313v-365q0 -147 79.5 -222t209.5 -75q137 0 237 62v600h314v-1163h174z" />
    <glyph glyph-name="uni04B7" unicode="&#x4b7;" horiz-adv-x="1243" 
d="M1190 258v-520h-287v262h-162v399q-100 -51 -237 -51q-84 0 -156 25.5t-128 75.5t-88 133.5t-32 191.5v285h297v-254q0 -100 51 -150.5t146 -50.5q76 0 147 31v424h299v-801h150z" />
    <glyph glyph-name="uni04B8" unicode="&#x4b8;" horiz-adv-x="1447" 
d="M817 209h-215v297q-224 20 -355.5 161t-131.5 404v371h313v-365q0 -223 174 -280v325h215v-338q88 11 166 54v604h313v-1442h-313v569q-74 -41 -166 -55v-305z" />
    <glyph glyph-name="uni04B9" unicode="&#x4b9;" horiz-adv-x="1216" 
d="M692 143h-188v207q-182 5 -293 112t-111 316v281h297v-258q0 -81 24.5 -125.5t82.5 -61.5v242h188v-250q40 6 99 31v422h296v-1059h-296v406q-59 -28 -99 -37v-226z" />
    <glyph glyph-name="uni04BA" unicode="&#x4ba;" horiz-adv-x="1423" 
d="M465 0h-313v1442h313v-553q118 67 295 67q117 0 214.5 -34.5t172 -102t116.5 -178.5t42 -254v-387h-314v379q0 146 -80 221.5t-209 75.5q-138 0 -237 -60v-616z" />
    <glyph glyph-name="uni04BB" unicode="&#x4bb;" horiz-adv-x="1222" 
d="M723 1083q77 0 144 -23.5t121 -70.5t85 -127.5t31 -185.5v-676h-299v610q0 101 -49 153t-133 52q-81 0 -138 -53.5t-57 -155.5v-606h-299v1489h299v-537q44 56 120.5 93.5t174.5 37.5z" />
    <glyph glyph-name="uni04C0" unicode="&#x4c0;" horiz-adv-x="616" 
d="M465 1442v-1442h-313v1442h313z" />
    <glyph glyph-name="uni04C1" unicode="&#x4c1;" horiz-adv-x="1998" 
d="M848 0v649l-467 -649h-361l539 743l-526 699h352l463 -611v611h303v-608l463 608h352l-526 -690l538 -752h-358l-469 647v-647h-303zM848 1921q0 -68 39 -114t112 -46t112.5 46.5t39.5 113.5h225q-2 -160 -103.5 -257t-273.5 -97t-273 97t-103 257h225z" />
    <glyph glyph-name="uni04C2" unicode="&#x4c2;" horiz-adv-x="1636" 
d="M965 1059v-434l317 434h332l-369 -500l373 -559h-338l-315 477v-477h-295v473l-314 -473h-338l373 551l-368 508h329l318 -432v432h295zM672 1542q0 -68 37.5 -114t107.5 -46t108 46.5t38 113.5h223q-2 -161 -101 -257.5t-268 -96.5t-267.5 96.5t-100.5 257.5h223z" />
    <glyph glyph-name="uni04CF" unicode="&#x4cf;" horiz-adv-x="557" 
d="M428 1489v-1489h-299v1489h299z" />
    <glyph glyph-name="uni04D0" unicode="&#x4d0;" horiz-adv-x="1431" 
d="M553 1442h324l528 -1442h-324l-102 297h-528l-101 -297h-323zM713 1079l-174 -520h348zM565 1921q0 -67 39.5 -113.5t112.5 -46.5t112 46t39 114h226q-2 -160 -103.5 -257t-273.5 -97t-273.5 97t-103.5 257h225z" />
    <glyph glyph-name="uni04D1" unicode="&#x4d1;" horiz-adv-x="1146" 
d="M735 702q0 71 -48 110.5t-126 39.5q-72 0 -115.5 -28.5t-56.5 -73.5h-278q23 145 143.5 239t318.5 94q209 0 332 -101t123 -290v-692h-276v115q-111 -140 -314 -140q-159 0 -263.5 90.5t-104.5 245.5q0 162 115.5 252t318.5 90h231v49zM520 207q90 0 152.5 51.5
t62.5 140.5v47h-209q-70 0 -113.5 -32t-43.5 -88q0 -55 41 -87t110 -32zM432 1542q0 -67 38 -113.5t108 -46.5t107.5 46t37.5 114h223q-2 -161 -100.5 -257.5t-267.5 -96.5t-268 96.5t-101 257.5h223z" />
    <glyph glyph-name="uni04D2" unicode="&#x4d2;" horiz-adv-x="1431" 
d="M553 1442h324l528 -1442h-324l-102 297h-528l-101 -297h-323zM713 1079l-174 -520h348zM483 1901q67 0 113.5 -47t46.5 -113t-46.5 -112t-113.5 -46t-113 46t-46 112t46 113t113 47zM952 1901q66 0 113 -47t47 -113t-47 -112t-113 -46q-67 0 -113 46t-46 112t46 113
t113 47z" />
    <glyph glyph-name="uni04D3" unicode="&#x4d3;" horiz-adv-x="1146" 
d="M735 702q0 71 -48 110.5t-126 39.5q-72 0 -115.5 -28.5t-56.5 -73.5h-278q23 145 143.5 239t318.5 94q209 0 332 -101t123 -290v-692h-276v115q-111 -140 -314 -140q-159 0 -263.5 90.5t-104.5 245.5q0 162 115.5 252t318.5 90h231v49zM520 207q90 0 152.5 51.5
t62.5 140.5v47h-209q-70 0 -113.5 -32t-43.5 -88q0 -55 41 -87t110 -32zM354 1522q66 0 113 -46.5t47 -111.5q0 -66 -47 -113t-113 -47q-67 0 -114 47t-47 113q0 65 47 111.5t114 46.5zM803 1522q67 0 113.5 -46.5t46.5 -111.5q0 -66 -46.5 -113t-113.5 -47t-113.5 47
t-46.5 113q0 65 46.5 111.5t113.5 46.5z" />
    <glyph glyph-name="uni04D4" unicode="&#x4d4;" horiz-adv-x="2056" 
d="M817 1442h1137v-279h-654v-295h615v-268h-615v-321h654v-279h-963v299h-489l-168 -299h-328zM649 559h342v608z" />
    <glyph glyph-name="uni04D5" unicode="&#x4d5;" horiz-adv-x="1814" 
d="M559 1083q243 0 346 -155q133 155 355 155q220 0 351.5 -145.5t131.5 -390.5v-103h-715v-4q0 -98 66.5 -163.5t171.5 -65.5q71 0 118.5 28.5t57.5 63.5h289q-11 -58 -43 -113.5t-86 -105t-139.5 -79.5t-190.5 -30q-266 0 -400 191q-65 -90 -168 -140.5t-237 -50.5
q-174 0 -285.5 90.5t-111.5 245.5q0 162 115.5 252t318.5 90h231v49q0 72 -48.5 111t-127.5 39q-71 0 -114 -28.5t-56 -73.5h-278q23 144 140.5 238.5t307.5 94.5zM522 207q90 0 151.5 52t61.5 140v47h-209q-70 0 -113.5 -32t-43.5 -88q0 -55 41.5 -87t111.5 -32zM1247 850
q-91 0 -149 -52.5t-68 -144.5h420q-6 91 -60 144t-143 53z" />
    <glyph glyph-name="uni04D6" unicode="&#x4d6;" horiz-adv-x="1220" 
d="M1118 1163h-653v-295h614v-268h-614v-321h653v-279h-966v1442h966v-279zM489 1921q0 -67 39.5 -113.5t112.5 -46.5t112.5 46.5t39.5 113.5h225q-2 -160 -103.5 -257t-273.5 -97t-273.5 97t-103.5 257h225z" />
    <glyph glyph-name="uni04D7" unicode="&#x4d7;" horiz-adv-x="1159" 
d="M1087 444h-714v-4q0 -98 66.5 -163.5t172.5 -65.5q70 0 117 28.5t59 63.5h289q-12 -59 -44.5 -114t-88 -104.5t-143 -79.5t-195.5 -30q-244 0 -389 146.5t-145 402.5q0 257 142.5 408t375.5 151q227 0 362 -145t135 -391v-103zM592 850q-90 0 -147.5 -52t-69.5 -145h422
q-6 91 -61 144t-144 53zM444 1542q0 -67 38 -113.5t108 -46.5t107.5 46t37.5 114h223q-2 -161 -100.5 -257.5t-267.5 -96.5t-268 96.5t-101 257.5h223z" />
    <glyph glyph-name="uni04D8" unicode="&#x4d8;" horiz-adv-x="1488" 
d="M86 702v121h989q-3 167 -104 269t-250 102q-114 0 -189 -49t-114 -129h-316q22 93 72.5 173.5t127 143t185.5 98t236 35.5q206 0 361 -93.5t237 -262t82 -389.5q0 -340 -180.5 -543t-477.5 -203q-203 0 -354 96t-228 260t-77 371zM748 248q138 0 223 88t100 233h-653
q6 -136 95 -228.5t235 -92.5z" />
    <glyph glyph-name="uni04D9" unicode="&#x4d9;" horiz-adv-x="1161" 
d="M72 514v113h716v4q0 97 -62.5 158t-168.5 61q-70 0 -119 -28t-61 -62h-289q11 58 45 113t89.5 103t144 77.5t196.5 29.5q243 0 385 -145.5t142 -402.5q0 -258 -139.5 -409t-370.5 -151t-369.5 145t-138.5 394zM575 209q92 0 147 55t64 154h-421q1 -96 59 -152.5
t151 -56.5z" />
    <glyph glyph-name="uni04DA" unicode="&#x4da;" horiz-adv-x="1488" 
d="M86 702v121h989q-3 167 -104 269t-250 102q-114 0 -189 -49t-114 -129h-316q22 93 72.5 173.5t127 143t185.5 98t236 35.5q206 0 361 -93.5t237 -262t82 -389.5q0 -340 -180.5 -543t-477.5 -203q-203 0 -354 96t-228 260t-77 371zM748 248q138 0 223 88t100 233h-653
q6 -136 95 -228.5t235 -92.5zM510 1901q67 0 113.5 -47t46.5 -113t-46.5 -112t-113.5 -46t-113.5 46t-46.5 112t46.5 113t113.5 47zM979 1901q66 0 113 -47t47 -113t-47 -112t-113 -46q-67 0 -113.5 46t-46.5 112t46.5 113t113.5 47z" />
    <glyph glyph-name="uni04DB" unicode="&#x4db;" horiz-adv-x="1161" 
d="M72 514v113h716v4q0 97 -62.5 158t-168.5 61q-70 0 -119 -28t-61 -62h-289q11 58 45 113t89.5 103t144 77.5t196.5 29.5q243 0 385 -145.5t142 -402.5q0 -258 -139.5 -409t-370.5 -151t-369.5 145t-138.5 394zM575 209q92 0 147 55t64 154h-421q1 -96 59 -152.5
t151 -56.5zM356 1522q66 0 113 -46.5t47 -111.5q0 -66 -47 -113t-113 -47q-67 0 -114 47t-47 113q0 65 47 111.5t114 46.5zM805 1522q67 0 113.5 -46.5t46.5 -111.5q0 -66 -46.5 -113t-113.5 -47t-113.5 47t-46.5 113q0 65 46.5 111.5t113.5 46.5z" />
    <glyph glyph-name="uni04DC" unicode="&#x4dc;" horiz-adv-x="1998" 
d="M848 0v649l-467 -649h-361l539 743l-526 699h352l463 -611v611h303v-608l463 608h352l-526 -690l538 -752h-358l-469 647v-647h-303zM766 1901q67 0 113.5 -47t46.5 -113t-46.5 -112t-113.5 -46t-113.5 46t-46.5 112t46.5 113t113.5 47zM1235 1901q66 0 113 -47t47 -113
t-47 -112t-113 -46q-67 0 -113.5 46t-46.5 112t46.5 113t113.5 47z" />
    <glyph glyph-name="uni04DD" unicode="&#x4dd;" horiz-adv-x="1636" 
d="M965 1059v-434l317 434h332l-369 -500l373 -559h-338l-315 477v-477h-295v473l-314 -473h-338l373 551l-368 508h329l318 -432v432h295zM594 1522q66 0 113 -46.5t47 -111.5q0 -66 -47 -113t-113 -47q-67 0 -114.5 47t-47.5 113q0 65 47.5 111.5t114.5 46.5zM1042 1522
q67 0 113.5 -46.5t46.5 -111.5q0 -66 -46.5 -113t-113.5 -47t-113 47t-46 113q0 65 46 111.5t113 46.5z" />
    <glyph glyph-name="uni04DE" unicode="&#x4de;" horiz-adv-x="1265" 
d="M84 1032q18 203 169 318.5t370 115.5q231 0 371.5 -110.5t140.5 -292.5q0 -115 -60 -195.5t-143 -111.5q41 -10 83 -35t82 -64.5t65.5 -101t25.5 -133.5q0 -205 -151.5 -326t-397.5 -121q-245 0 -399.5 120.5t-169.5 328.5h309q15 -80 82.5 -128t177.5 -48q107 0 169 49
t62 133q0 86 -62.5 128t-170.5 42h-193v266h164q102 0 155.5 45.5t53.5 120.5q0 73 -55.5 117.5t-145.5 44.5q-94 0 -154 -42t-73 -120h-305zM391 1901q67 0 113.5 -47t46.5 -113t-46.5 -112t-113.5 -46t-113.5 46t-46.5 112t46.5 113t113.5 47zM860 1901q66 0 113 -47
t47 -113t-47 -112t-113 -46q-67 0 -113.5 46t-46.5 112t46.5 113t113.5 47z" />
    <glyph glyph-name="uni04DF" unicode="&#x4df;" horiz-adv-x="1064" 
d="M80 748q17 159 145 247t318 88q179 0 295 -83.5t116 -219.5q0 -91 -45 -147.5t-112 -83.5q35 -8 67.5 -25t62.5 -45.5t48 -73t18 -100.5q0 -146 -125 -238t-333 -92q-199 0 -325.5 93.5t-146.5 253.5h287q17 -55 64 -85t118 -30q74 0 118 30.5t44 86.5q0 102 -159 102
h-144v219h127q67 0 104 27.5t37 77.5q0 49 -37 75.5t-100 26.5q-64 0 -106.5 -28t-53.5 -76h-282zM317 1522q66 0 113 -46.5t47 -111.5q0 -66 -47 -113t-113 -47q-67 0 -114 47t-47 113q0 65 47 111.5t114 46.5zM766 1522q67 0 113.5 -46.5t46.5 -111.5q0 -66 -46.5 -113
t-113.5 -47t-113.5 47t-46.5 113q0 65 46.5 111.5t113.5 46.5z" />
    <glyph glyph-name="uni04E2" unicode="&#x4e2;" horiz-adv-x="1529" 
d="M1378 1442v-1442h-307v946l-612 -946h-307v1442h307v-950l612 950h307zM424 1833h680v-213h-680v213z" />
    <glyph glyph-name="uni04E3" unicode="&#x4e3;" horiz-adv-x="1243" 
d="M1114 1059v-1059h-293v618l-409 -618h-283v1059h293v-617l409 617h283zM293 1454h659v-211h-659v211z" />
    <glyph glyph-name="uni04E4" unicode="&#x4e4;" horiz-adv-x="1529" 
d="M1378 1442v-1442h-307v946l-612 -946h-307v1442h307v-950l612 950h307zM530 1886q67 0 113.5 -47t46.5 -113t-46.5 -111.5t-113.5 -45.5t-113 45.5t-46 111.5t46 113t113 47zM999 1886q66 0 113 -47t47 -113t-47 -111.5t-113 -45.5q-67 0 -113 45.5t-46 111.5t46 113
t113 47z" />
    <glyph glyph-name="uni04E5" unicode="&#x4e5;" horiz-adv-x="1243" 
d="M1114 1059v-1059h-293v618l-409 -618h-283v1059h293v-617l409 617h283zM399 1507q66 0 113 -46t47 -111q0 -66 -47 -113t-113 -47q-67 0 -114 47t-47 113q0 65 47 111t114 46zM848 1507q67 0 113.5 -46t46.5 -111q0 -66 -46.5 -113t-113.5 -47t-113.5 47t-46.5 113
q0 65 46.5 111t113.5 46z" />
    <glyph glyph-name="uni04E6" unicode="&#x4e6;" horiz-adv-x="1552" 
d="M776 1466q202 0 359 -92.5t244 -262.5t87 -390t-87 -390t-244 -263t-359 -93t-359 93t-244 263t-87 390t87 390t244 262.5t359 92.5zM776 256q171 0 271 130t100 335t-100 335t-271 130t-270.5 -129.5t-99.5 -335.5t99.5 -335.5t270.5 -129.5zM543 1901q67 0 113 -47
t46 -113t-46 -112t-113 -46t-113.5 46t-46.5 112t46.5 113t113.5 47zM1012 1901q66 0 112.5 -47t46.5 -113t-46.5 -112t-112.5 -46q-67 0 -113.5 46t-46.5 112t46.5 113t113.5 47z" />
    <glyph glyph-name="uni04E7" unicode="&#x4e7;" horiz-adv-x="1210" 
d="M606 1083q236 0 384.5 -153t148.5 -402t-148.5 -401t-384.5 -152q-238 0 -386 152t-148 401t148.5 402t385.5 153zM606 233q107 0 170.5 82t63.5 213q0 132 -63.5 214.5t-170.5 82.5q-109 0 -172 -82t-63 -215q0 -131 63.5 -213t171.5 -82zM383 1522q66 0 113 -46.5
t47 -111.5q0 -66 -47 -113t-113 -47q-67 0 -114.5 47t-47.5 113q0 65 47.5 111.5t114.5 46.5zM831 1522q67 0 113.5 -46.5t46.5 -111.5q0 -66 -46.5 -113t-113.5 -47t-113 47t-46 113q0 65 46 111.5t113 46.5z" />
    <glyph glyph-name="uni04E8" unicode="&#x4e8;" horiz-adv-x="1552" 
d="M776 1466q202 0 359 -92.5t244 -262.5t87 -390t-87 -390t-244 -263t-359 -93t-359 93t-244 263t-87 390t87 390t244 262.5t359 92.5zM776 250q150 0 246 97t123 259h-737q27 -163 123 -259.5t245 -96.5zM776 1192q-141 0 -235.5 -87.5t-126.5 -234.5h723
q-31 144 -124.5 233t-236.5 89z" />
    <glyph glyph-name="uni04E9" unicode="&#x4e9;" horiz-adv-x="1210" 
d="M606 1083q236 0 384.5 -153t148.5 -402t-148.5 -401t-384.5 -152q-238 0 -386 152t-148 401t148.5 402t385.5 153zM606 225q97 0 155.5 59t74.5 148h-463q21 -97 81 -152t152 -55zM606 831q-92 0 -149.5 -52.5t-79.5 -137.5h454q-22 89 -80.5 139.5t-144.5 50.5z" />
    <glyph glyph-name="uni04EA" unicode="&#x4ea;" horiz-adv-x="1552" 
d="M776 1466q202 0 359 -92.5t244 -262.5t87 -390t-87 -390t-244 -263t-359 -93t-359 93t-244 263t-87 390t87 390t244 262.5t359 92.5zM776 250q150 0 246 97t123 259h-737q27 -163 123 -259.5t245 -96.5zM776 1192q-141 0 -235.5 -87.5t-126.5 -234.5h723
q-31 144 -124.5 233t-236.5 89zM543 1901q67 0 113 -47t46 -113t-46 -112t-113 -46t-113.5 46t-46.5 112t46.5 113t113.5 47zM1012 1901q66 0 112.5 -47t46.5 -113t-46.5 -112t-112.5 -46q-67 0 -113.5 46t-46.5 112t46.5 113t113.5 47z" />
    <glyph glyph-name="uni04EB" unicode="&#x4eb;" horiz-adv-x="1210" 
d="M606 1083q236 0 384.5 -153t148.5 -402t-148.5 -401t-384.5 -152q-238 0 -386 152t-148 401t148.5 402t385.5 153zM606 225q97 0 155.5 59t74.5 148h-463q21 -97 81 -152t152 -55zM606 831q-92 0 -149.5 -52.5t-79.5 -137.5h454q-22 89 -80.5 139.5t-144.5 50.5z
M383 1522q66 0 113 -46.5t47 -111.5q0 -66 -47 -113t-113 -47q-67 0 -114.5 47t-47.5 113q0 65 47.5 111.5t114.5 46.5zM831 1522q67 0 113.5 -46.5t46.5 -111.5q0 -66 -46.5 -113t-113.5 -47t-113 47t-46 113q0 65 46 111.5t113 46.5z" />
    <glyph glyph-name="uni04EC" unicode="&#x4ec;" horiz-adv-x="1468" 
d="M545 602v260h508q-26 158 -118.5 242t-229.5 84q-126 0 -207.5 -63t-108.5 -158h-309q16 100 63.5 188t123.5 158.5t189.5 111.5t248.5 41q147 0 271.5 -50.5t214.5 -144.5t140.5 -235.5t50.5 -314.5q0 -174 -52.5 -316.5t-144 -235.5t-214.5 -143.5t-266 -50.5
q-120 0 -222 31.5t-171.5 82t-121 117t-78 134t-34.5 135.5h311q10 -38 33 -74.5t60 -70.5t95 -55t128 -21q142 0 236 91.5t114 256.5h-510zM471 1901q67 0 113.5 -47t46.5 -113t-46.5 -112t-113.5 -46t-113.5 46t-46.5 112t46.5 113t113.5 47zM940 1901q66 0 113 -47
t47 -113t-47 -112t-113 -46q-67 0 -113.5 46t-46.5 112t46.5 113t113.5 47z" />
    <glyph glyph-name="uni04ED" unicode="&#x4ed;" horiz-adv-x="1142" 
d="M410 649h358q-17 93 -75.5 143t-143.5 50q-82 0 -132.5 -39t-66.5 -92h-280q10 72 46 137.5t94 118.5t146 84.5t193 31.5q237 0 379.5 -152t142.5 -403q0 -250 -143.5 -401.5t-384.5 -151.5q-208 0 -336 110.5t-144 270.5h279q15 -58 66 -98.5t139 -40.5q93 0 152 56
t71 155h-360v221zM326 1522q66 0 112.5 -46.5t46.5 -111.5q0 -66 -46.5 -113t-112.5 -47q-67 0 -114.5 47t-47.5 113q0 65 47.5 111.5t114.5 46.5zM774 1522q67 0 113.5 -46.5t46.5 -111.5q0 -66 -46.5 -113t-113.5 -47t-113.5 47t-46.5 113q0 65 46.5 111.5t113.5 46.5z
" />
    <glyph glyph-name="uni04EE" unicode="&#x4ee;" horiz-adv-x="1380" 
d="M27 1442h331l351 -715l319 715h326l-664 -1442h-328l185 401zM354 1847h680v-213h-680v213z" />
    <glyph glyph-name="uni04EF" unicode="&#x4ef;" horiz-adv-x="1126" 
d="M799 1059h319l-557 -1450h-317l159 420l-395 1030h322l233 -682zM233 1468h660v-211h-660v211z" />
    <glyph glyph-name="uni04F0" unicode="&#x4f0;" horiz-adv-x="1380" 
d="M27 1442h331l351 -715l319 715h326l-664 -1442h-328l185 401zM461 1901q67 0 113.5 -47t46.5 -113t-46.5 -112t-113.5 -46t-113.5 46t-46.5 112t46.5 113t113.5 47zM930 1901q66 0 113 -47t47 -113t-47 -112t-113 -46q-67 0 -113.5 46t-46.5 112t46.5 113t113.5 47z" />
    <glyph glyph-name="uni04F1" unicode="&#x4f1;" horiz-adv-x="1126" 
d="M799 1059h319l-557 -1450h-317l159 420l-395 1030h322l233 -682zM340 1522q66 0 113 -46.5t47 -111.5q0 -66 -47 -113t-113 -47q-67 0 -114.5 47t-47.5 113q0 65 47.5 111.5t114.5 46.5zM788 1522q67 0 113.5 -46.5t46.5 -111.5q0 -66 -46.5 -113t-113.5 -47t-113 47
t-46 113q0 65 46 111.5t113 46.5z" />
    <glyph glyph-name="uni04F2" unicode="&#x4f2;" horiz-adv-x="1380" 
d="M27 1442h331l351 -715l319 715h326l-664 -1442h-328l185 401zM827 1927l-213 -348h-233l182 348h264zM1223 1927l-211 -348h-234l180 348h265z" />
    <glyph glyph-name="uni04F3" unicode="&#x4f3;" horiz-adv-x="1126" 
d="M799 1059h319l-557 -1450h-317l159 420l-395 1030h322l233 -682zM698 1548l-211 -348h-233l180 348h264zM1087 1548l-210 -348h-234l180 348h264z" />
    <glyph glyph-name="uni04F4" unicode="&#x4f4;" horiz-adv-x="1417" 
d="M954 1442h314v-1442h-314v567q-117 -65 -297 -65q-117 0 -214 34t-171 101.5t-115.5 177.5t-41.5 254v373h313v-365q0 -147 79.5 -222t209.5 -75q137 0 237 62v600zM459 1901q67 0 113 -47t46 -113t-46 -112t-113 -46t-113.5 46t-46.5 112t46.5 113t113.5 47zM928 1901
q66 0 112.5 -47t46.5 -113t-46.5 -112t-112.5 -46q-67 0 -113.5 46t-46.5 112t46.5 113t113.5 47z" />
    <glyph glyph-name="uni04F5" unicode="&#x4f5;" horiz-adv-x="1169" 
d="M741 1059h299v-1059h-299v399q-100 -51 -237 -51q-84 0 -156 25.5t-128 75.5t-88 133.5t-32 191.5v285h297v-254q0 -100 51 -150.5t146 -50.5q76 0 147 31v424zM350 1522q66 0 113 -46.5t47 -111.5q0 -66 -47 -113t-113 -47q-67 0 -114.5 47t-47.5 113q0 65 47.5 111.5
t114.5 46.5zM799 1522q67 0 113 -46.5t46 -111.5q0 -66 -46 -113t-113 -47t-113.5 47t-46.5 113q0 65 46.5 111.5t113.5 46.5z" />
    <glyph glyph-name="uni04F6" unicode="&#x4f6;" horiz-adv-x="1173" 
d="M639 279v-553h-299v274h-188v1442h950v-279h-637v-884h174z" />
    <glyph glyph-name="uni04F7" unicode="&#x4f7;" horiz-adv-x="942" 
d="M578 258v-520h-287v262h-162v1059h752v-258h-453v-543h150z" />
    <glyph glyph-name="uni04F8" unicode="&#x4f8;" horiz-adv-x="1796" 
d="M696 954q238 0 375 -132.5t137 -344.5q0 -209 -138 -343t-365 -134h-553v1442h313v-488h231zM1645 1442v-1442h-312v1442h312zM668 684h-203v-416h203q102 0 162.5 57.5t60.5 151.5q0 97 -59 152t-164 55zM666 1901q67 0 113 -47t46 -113t-46 -112t-113 -46t-113.5 46
t-46.5 112t46.5 113t113.5 47zM1135 1901q66 0 112.5 -47t46.5 -113t-46.5 -112t-112.5 -46q-67 0 -113.5 46t-46.5 112t46.5 113t113.5 47z" />
    <glyph glyph-name="uni04F9" unicode="&#x4f9;" horiz-adv-x="1546" 
d="M424 1059v-301h182q186 0 296 -105.5t110 -271.5t-111 -273.5t-295 -107.5h-477v1059h295zM1417 1059v-1059h-293v1059h293zM569 518h-145v-278h145q68 0 109 40t41 101q0 62 -40.5 99.5t-109.5 37.5zM551 1522q66 0 113 -46.5t47 -111.5q0 -66 -47 -113t-113 -47
q-67 0 -114.5 47t-47.5 113q0 65 47.5 111.5t114.5 46.5zM999 1522q67 0 113.5 -46.5t46.5 -111.5q0 -66 -46.5 -113t-113.5 -47t-113 47t-46 113q0 65 46 111.5t113 46.5z" />
    <glyph glyph-name="uni0512" unicode="&#x512;" horiz-adv-x="1478" 
d="M336 1442h991v-1417q0 -420 -412 -420h-92v262h43q65 0 106.5 39t41.5 131v1126h-398l-41 -628q-9 -126 -36.5 -220t-80.5 -168t-141.5 -112.5t-212.5 -38.5h-84v280h39q112 0 160.5 64.5t59.5 214.5z" />
    <glyph glyph-name="uni0513" unicode="&#x513;" horiz-adv-x="1232" 
d="M270 1059h834v-1057q0 -205 -92 -301t-303 -96h-76v239h39q133 0 133 168v789h-273l-28 -383q-17 -223 -111.5 -322.5t-281.5 -99.5h-80v258h37q77 0 112 42t41 142z" />
    <glyph glyph-name="uni051C" unicode="&#x51c;" horiz-adv-x="2072" 
d="M2030 1442l-426 -1442h-297l-273 993l-270 -993h-295l-426 1442h317l267 -942l266 942h287l268 -944l266 944h316z" />
    <glyph glyph-name="uni051D" unicode="&#x51d;" horiz-adv-x="1667" 
d="M1651 1059l-330 -1059h-293l-197 694l-194 -694h-291l-328 1059h304l184 -647l184 647h289l184 -649l183 649h305z" />
    <glyph glyph-name="uni0524" unicode="&#x524;" horiz-adv-x="1576" 
d="M1530 279v-553h-299v274h-189v1163h-577v-1163h-313v1442h1204v-1163h174z" />
    <glyph glyph-name="uni0525" unicode="&#x525;" horiz-adv-x="1298" 
d="M1245 258v-520h-287v262h-161v801h-369v-801h-299v1059h967v-801h149z" />
    <glyph glyph-name="Wgrave" unicode="&#x1e80;" horiz-adv-x="2072" 
d="M2030 1442l-426 -1442h-297l-273 993l-270 -993h-295l-426 1442h317l267 -942l266 942h287l268 -944l266 944h316zM680 1927h274l193 -348h-244z" />
    <glyph glyph-name="wgrave" unicode="&#x1e81;" horiz-adv-x="1667" 
d="M1651 1059l-330 -1059h-293l-197 694l-194 -694h-291l-328 1059h304l184 -647l184 647h289l184 -649l183 649h305zM479 1548h275l192 -348h-244z" />
    <glyph glyph-name="Wacute" unicode="&#x1e82;" horiz-adv-x="2072" 
d="M2030 1442l-426 -1442h-297l-273 993l-270 -993h-295l-426 1442h317l267 -942l266 942h287l268 -944l266 944h316zM1389 1927l-224 -348h-243l192 348h275z" />
    <glyph glyph-name="wacute" unicode="&#x1e83;" horiz-adv-x="1667" 
d="M1651 1059l-330 -1059h-293l-197 694l-194 -694h-291l-328 1059h304l184 -647l184 647h289l184 -649l183 649h305zM1188 1548l-223 -348h-244l192 348h275z" />
    <glyph glyph-name="Wdieresis" unicode="&#x1e84;" horiz-adv-x="2072" 
d="M2030 1442l-426 -1442h-297l-273 993l-270 -993h-295l-426 1442h317l267 -942l266 942h287l268 -944l266 944h316zM801 1901q67 0 113.5 -47t46.5 -113t-46.5 -112t-113.5 -46t-113.5 46t-46.5 112t46.5 113t113.5 47zM1270 1901q66 0 113 -47t47 -113t-47 -112t-113 -46
q-67 0 -113.5 46t-46.5 112t46.5 113t113.5 47z" />
    <glyph glyph-name="wdieresis" unicode="&#x1e85;" horiz-adv-x="1667" 
d="M1651 1059l-330 -1059h-293l-197 694l-194 -694h-291l-328 1059h304l184 -647l184 647h289l184 -649l183 649h305zM610 1522q66 0 113 -46.5t47 -111.5q0 -66 -47 -113t-113 -47q-67 0 -114 47t-47 113q0 65 47 111.5t114 46.5zM1059 1522q67 0 113.5 -46.5t46.5 -111.5
q0 -66 -46.5 -113t-113.5 -47t-113.5 47t-46.5 113q0 65 46.5 111.5t113.5 46.5z" />
    <glyph glyph-name="Ygrave" unicode="&#x1ef2;" horiz-adv-x="1370" 
d="M842 0h-314v547l-508 895h340l326 -596l326 596h338l-508 -895v-547zM338 1927h274l193 -348h-244z" />
    <glyph glyph-name="ygrave" unicode="&#x1ef3;" horiz-adv-x="1126" 
d="M799 1059h319l-557 -1450h-317l159 420l-395 1030h322l233 -682zM209 1548h274l193 -348h-244z" />
    <glyph glyph-name="uni2000" unicode="&#x2000;" horiz-adv-x="1024" 
 />
    <glyph glyph-name="uni2001" unicode="&#x2001;" horiz-adv-x="2048" 
 />
    <glyph glyph-name="uni2002" unicode="&#x2002;" horiz-adv-x="1056" 
 />
    <glyph glyph-name="uni2003" unicode="&#x2003;" horiz-adv-x="2048" 
 />
    <glyph glyph-name="uni2004" unicode="&#x2004;" horiz-adv-x="647" 
 />
    <glyph glyph-name="uni2005" unicode="&#x2005;" horiz-adv-x="512" 
 />
    <glyph glyph-name="uni2006" unicode="&#x2006;" horiz-adv-x="299" 
 />
    <glyph glyph-name="uni2007" unicode="&#x2007;" horiz-adv-x="1220" 
 />
    <glyph glyph-name="uni2008" unicode="&#x2008;" horiz-adv-x="604" 
 />
    <glyph glyph-name="uni2009" unicode="&#x2009;" horiz-adv-x="380" 
 />
    <glyph glyph-name="uni200A" unicode="&#x200a;" horiz-adv-x="94" 
 />
    <glyph glyph-name="uni200B" unicode="&#x200b;" 
 />
    <glyph glyph-name="endash" unicode="&#x2013;" horiz-adv-x="1024" 
d="M0 424v270h1024v-270h-1024z" />
    <glyph glyph-name="emdash" unicode="&#x2014;" horiz-adv-x="2048" 
d="M0 424v270h2048v-270h-2048z" />
    <glyph glyph-name="quoteleft" unicode="&#x2018;" horiz-adv-x="604" 
d="M121 985q0 60 24 123l129 334h218l-117 -307q47 -20 77.5 -59t30.5 -99q0 -73 -50.5 -121.5t-127.5 -48.5t-130.5 51.5t-53.5 126.5z" />
    <glyph glyph-name="quoteright" unicode="&#x2019;" horiz-adv-x="604" 
d="M483 1264q0 -60 -24 -123l-129 -334h-217l116 307q-47 20 -77.5 59t-30.5 99q0 73 50.5 121.5t127.5 48.5t130.5 -51.5t53.5 -126.5z" />
    <glyph glyph-name="quotesinglbase" unicode="&#x201a;" horiz-adv-x="604" 
d="M483 147q0 -59 -24 -122l-129 -334h-217l116 307q-47 20 -77.5 59t-30.5 99q0 73 50.5 121.5t127.5 48.5t130.5 -52t53.5 -127z" />
    <glyph glyph-name="quotedblleft" unicode="&#x201c;" horiz-adv-x="1067" 
d="M584 985q0 60 24 123l129 334h217l-116 -307q47 -20 77.5 -59t30.5 -99q0 -73 -50.5 -121.5t-127.5 -48.5t-130.5 51.5t-53.5 126.5zM123 985q0 60 24 123l129 334h218l-117 -307q47 -20 77.5 -59t30.5 -99q0 -73 -50.5 -121.5t-127.5 -48.5t-130.5 51.5t-53.5 126.5z
" />
    <glyph glyph-name="quotedblright" unicode="&#x201d;" horiz-adv-x="1067" 
d="M483 1264q0 -60 -24 -123l-129 -334h-217l116 307q-47 20 -77.5 59t-30.5 99q0 73 50.5 121.5t127.5 48.5t130.5 -51.5t53.5 -126.5zM944 1264q0 -60 -24 -123l-129 -334h-218l117 307q-47 20 -77.5 59t-30.5 99q0 73 50.5 121.5t127.5 48.5t130.5 -51.5t53.5 -126.5z
" />
    <glyph glyph-name="quotedblbase" unicode="&#x201e;" horiz-adv-x="1067" 
d="M483 147q0 -59 -24 -122l-129 -334h-217l116 307q-47 20 -77.5 59t-30.5 99q0 73 50.5 121.5t127.5 48.5t130.5 -52t53.5 -127zM944 147q0 -59 -24 -122l-129 -334h-218l117 307q-47 20 -77.5 59t-30.5 99q0 73 50.5 121.5t127.5 48.5t130.5 -52t53.5 -127z" />
    <glyph glyph-name="dagger" unicode="&#x2020;" horiz-adv-x="995" 
d="M907 969h-286v-578h-248v578h-285v245h285v332h248v-332h286v-245z" />
    <glyph glyph-name="daggerdbl" unicode="&#x2021;" horiz-adv-x="995" 
d="M907 375h-286v-332h-248v332h-285v246h285v348h-285v245h285v332h248v-332h286v-245h-286v-348h286v-246z" />
    <glyph glyph-name="bullet" unicode="&#x2022;" horiz-adv-x="937" 
d="M469 901q148 0 251 -102.5t103 -251.5q0 -148 -103 -250t-251 -102q-147 0 -250.5 102.5t-103.5 249.5q0 149 103.5 251.5t250.5 102.5z" />
    <glyph glyph-name="ellipsis" unicode="&#x2026;" horiz-adv-x="1742" 
d="M872 332q75 0 127 -51.5t52 -126.5t-52 -127t-127 -52q-76 0 -129 52t-53 127t52.5 126.5t129.5 51.5zM303 332q75 0 126.5 -51.5t51.5 -126.5t-51.5 -127t-126.5 -52q-76 0 -129 52t-53 127t52.5 126.5t129.5 51.5zM1444 332q75 0 126.5 -51.5t51.5 -126.5t-51.5 -127
t-126.5 -52q-76 0 -129 52t-53 127t52.5 126.5t129.5 51.5z" />
    <glyph glyph-name="perthousand" unicode="&#x2030;" horiz-adv-x="2801" 
d="M324 0l1022 1442h278l-1024 -1442h-276zM449 1253q-63 0 -100.5 -49.5t-37.5 -124.5t37.5 -124.5t100.5 -49.5t99 49t36 125t-36 125t-99 49zM68 1079q0 169 108 278t273 109t272.5 -108.5t107.5 -278.5t-107.5 -279.5t-272.5 -109.5t-273 109.5t-108 279.5zM1499 537
q-63 0 -100 -49.5t-37 -125.5t37 -125t100 -49t100 49t37 125t-37 125.5t-100 49.5zM1118 362q0 170 108 280t273 110t273 -110t108 -280q0 -169 -108 -278t-273 -109t-273 109t-108 278zM2353 537q-63 0 -100 -49.5t-37 -125.5t37 -125t100 -49t100 49t37 125t-37 125.5
t-100 49.5zM1972 362q0 170 108 280t273 110t273 -110t108 -280q0 -169 -108 -278t-273 -109t-273 109t-108 278z" />
    <glyph glyph-name="guilsinglleft" unicode="&#x2039;" horiz-adv-x="862" 
d="M418 539l348 -441h-313l-359 441l359 442h313z" />
    <glyph glyph-name="guilsinglright" unicode="&#x203a;" horiz-adv-x="862" 
d="M444 539l-350 442h316l356 -442l-356 -441h-316z" />
    <glyph glyph-name="fraction" unicode="&#x2044;" horiz-adv-x="630" 
d="M-334 0l1022 1442h277l-1022 -1442h-277z" />
    <glyph glyph-name="zerosuperior" unicode="&#x2070;" horiz-adv-x="909" 
d="M455 1597q173 0 280 -129t107 -335q0 -207 -107 -337t-280 -130t-281 130t-108 337q0 206 108 335t281 129zM455 870q72 0 108.5 74.5t36.5 188.5t-36.5 187t-108.5 73q-49 0 -82.5 -36.5t-48.5 -93.5t-15 -130q0 -115 36.5 -189t109.5 -74z" />
    <glyph glyph-name="foursuperior" unicode="&#x2074;" horiz-adv-x="886" 
d="M834 1036v-190h-119v-162h-230v162h-432v190l355 545h307v-545h119zM281 1036h204v310z" />
    <glyph glyph-name="fivesuperior" unicode="&#x2075;" horiz-adv-x="862" 
d="M502 1276q124 0 210.5 -76t86.5 -213q0 -147 -104.5 -234t-256.5 -87q-146 0 -247 76t-113 196h233q9 -27 42 -49.5t83 -22.5q52 0 86.5 32.5t34.5 82.5q0 49 -36 80t-85 31q-81 0 -119 -58h-233l43 547h614v-203h-415l-17 -176q74 74 193 74z" />
    <glyph glyph-name="sixsuperior" unicode="&#x2076;" horiz-adv-x="880" 
d="M520 1274q121 0 212 -78t91 -205q0 -138 -98.5 -231.5t-255.5 -93.5q-187 0 -295 127t-108 333q0 226 110 348.5t287 122.5q139 0 233.5 -75.5t108.5 -186.5h-227q-12 26 -42.5 45t-70.5 19q-154 0 -168 -223q71 98 223 98zM459 866q52 0 87.5 33t35.5 78q0 49 -35.5 81
t-87.5 32t-89.5 -32t-37.5 -81q0 -46 37.5 -78.5t89.5 -32.5z" />
    <glyph glyph-name="sevensuperior" unicode="&#x2077;" horiz-adv-x="770" 
d="M43 1581h674v-184l-336 -713h-256l334 694h-416v203z" />
    <glyph glyph-name="eightsuperior" unicode="&#x2078;" horiz-adv-x="878" 
d="M66 936q0 77 46 133.5t115 81.5q-58 24 -96.5 73t-38.5 119q0 105 96 179.5t252 74.5q155 0 251.5 -74.5t96.5 -179.5q0 -70 -39 -119t-98 -73q70 -25 116 -81.5t46 -133.5q0 -115 -105 -192.5t-268 -77.5q-164 0 -269 77.5t-105 192.5zM555 1317q0 39 -32 64.5t-83 25.5
t-83.5 -25.5t-32.5 -64.5q0 -38 34 -63t82 -25q47 0 81 25t34 63zM569 956q0 42 -36 71.5t-93 29.5t-94 -29.5t-37 -71.5q0 -43 37 -69.5t94 -26.5t93 26.5t36 69.5z" />
    <glyph glyph-name="ninesuperior" unicode="&#x2079;" horiz-adv-x="880" 
d="M360 991q-121 0 -212 77t-91 206q0 136 99 229.5t256 93.5q186 0 294.5 -127t108.5 -333q0 -226 -110 -348.5t-287 -122.5q-141 0 -234.5 75.5t-107.5 186.5h227q12 -26 41.5 -44t71.5 -18q154 0 168 221q-75 -96 -224 -96zM422 1397q-52 0 -87.5 -33t-35.5 -78
q0 -49 35 -80.5t88 -31.5q52 0 89.5 32t37.5 80q0 46 -37.5 78.5t-89.5 32.5z" />
    <glyph glyph-name="uni207A" unicode="&#x207a;" horiz-adv-x="847" 
d="M322 1458h204v-227h222v-197h-222v-229h-204v229h-224v197h224v227z" />
    <glyph glyph-name="uni207B" unicode="&#x207b;" horiz-adv-x="847" 
d="M748 1034h-648v197h648v-197z" />
    <glyph glyph-name="uni207C" unicode="&#x207c;" horiz-adv-x="847" 
d="M102 1196v195h641v-195h-641zM102 874v195h641v-195h-641z" />
    <glyph glyph-name="parenleftsuperior" unicode="&#x207d;" horiz-adv-x="536" 
d="M502 1690q-176 -249 -176 -557q0 -313 176 -560h-221q-79 99 -135 245t-56 315q0 167 56.5 313.5t134.5 243.5h221z" />
    <glyph glyph-name="parenrightsuperior" unicode="&#x207e;" horiz-adv-x="536" 
d="M35 1690h223q78 -98 133 -243.5t55 -313.5q0 -170 -55 -315t-133 -245h-223q178 246 178 560q0 153 -47 297t-131 260z" />
    <glyph glyph-name="zeroinferior" unicode="&#x2080;" horiz-adv-x="909" 
d="M455 651q173 0 280 -129.5t107 -335.5q0 -207 -107 -337t-280 -130t-281 130t-108 337q0 206 108 335.5t281 129.5zM455 -76q72 0 108.5 74t36.5 188t-36.5 187t-108.5 73q-49 0 -82.5 -36.5t-48.5 -93.5t-15 -130q0 -115 36.5 -188.5t109.5 -73.5z" />
    <glyph glyph-name="oneinferior" unicode="&#x2081;" horiz-adv-x="624" 
d="M489 635v-897h-237v645l-195 -121v232l211 141h221z" />
    <glyph glyph-name="twoinferior" unicode="&#x2082;" horiz-adv-x="841" 
d="M406 -59h370v-203h-694v190l348 301q31 27 47 43.5t30.5 41t14.5 48.5q0 37 -29.5 62t-76.5 25q-46 0 -76.5 -23t-38.5 -61h-229q9 125 103.5 205.5t246.5 80.5q155 0 247.5 -79.5t92.5 -198.5q0 -61 -25 -114t-55 -84t-80 -73z" />
    <glyph glyph-name="threeinferior" unicode="&#x2083;" horiz-adv-x="854" 
d="M70 377q12 125 113.5 199.5t240.5 74.5q147 0 240.5 -71t93.5 -177q0 -72 -39 -121t-94 -73q66 -17 117 -74t51 -141q0 -120 -102.5 -197.5t-260.5 -77.5q-151 0 -255.5 79t-113.5 210h230q11 -38 48 -63t91 -25q52 0 86.5 24.5t34.5 67.5q0 41 -34.5 62.5t-92.5 21.5
h-102v195h79q55 0 87 22.5t32 59.5q0 35 -29.5 56.5t-76.5 21.5q-44 0 -76 -22t-37 -52h-231z" />
    <glyph glyph-name="fourinferior" unicode="&#x2084;" horiz-adv-x="886" 
d="M834 90v-190h-119v-162h-230v162h-432v190l355 545h307v-545h119zM281 90h204v309z" />
    <glyph glyph-name="fiveinferior" unicode="&#x2085;" horiz-adv-x="862" 
d="M502 330q124 0 210.5 -76t86.5 -213q0 -147 -104.5 -234.5t-256.5 -87.5q-146 0 -247 76.5t-113 196.5h233q9 -27 42 -49.5t83 -22.5q52 0 86.5 32.5t34.5 82.5q0 49 -36 79.5t-85 30.5q-81 0 -119 -57h-233l43 547h614v-203h-415l-17 -176q74 74 193 74z" />
    <glyph glyph-name="sixinferior" unicode="&#x2086;" horiz-adv-x="880" 
d="M520 328q121 0 212 -78t91 -205q0 -138 -98.5 -232t-255.5 -94q-187 0 -295 127.5t-108 333.5q0 226 110 348.5t287 122.5q139 0 233.5 -75.5t108.5 -186.5h-227q-12 26 -42.5 45t-70.5 19q-154 0 -168 -224q72 99 223 99zM459 -80q52 0 87.5 33t35.5 78q0 49 -35.5 80.5
t-87.5 31.5t-89.5 -32t-37.5 -80q0 -46 37.5 -78.5t89.5 -32.5z" />
    <glyph glyph-name="seveninferior" unicode="&#x2087;" horiz-adv-x="770" 
d="M43 635h674v-184l-336 -713h-256l334 694h-416v203z" />
    <glyph glyph-name="eightinferior" unicode="&#x2088;" horiz-adv-x="878" 
d="M66 -10q0 77 46 133.5t115 81.5q-58 24 -96.5 73t-38.5 119q0 105 96 179.5t252 74.5q155 0 251.5 -74.5t96.5 -179.5q0 -70 -39 -119t-98 -73q70 -25 116 -81.5t46 -133.5q0 -115 -105 -193t-268 -78q-164 0 -269 78t-105 193zM555 371q0 39 -32 64.5t-83 25.5
t-83.5 -25.5t-32.5 -64.5q0 -38 34 -63t82 -25q47 0 81 25t34 63zM569 10q0 42 -36 71.5t-93 29.5t-94 -29.5t-37 -71.5q0 -43 37 -69.5t94 -26.5t93 26.5t36 69.5z" />
    <glyph glyph-name="nineinferior" unicode="&#x2089;" horiz-adv-x="880" 
d="M360 45q-121 0 -212 77t-91 206q0 136 99 229.5t256 93.5q186 0 294.5 -127.5t108.5 -333.5q0 -226 -110 -348.5t-287 -122.5q-140 0 -234 76t-108 187h227q12 -26 41.5 -44t71.5 -18q154 0 168 221q-75 -96 -224 -96zM422 451q-52 0 -87.5 -33t-35.5 -78q0 -49 35 -81
t88 -32q52 0 89.5 32t37.5 81q0 46 -37.5 78.5t-89.5 32.5z" />
    <glyph glyph-name="uni208A" unicode="&#x208a;" horiz-adv-x="847" 
d="M322 512h204v-227h222v-197h-222v-229h-204v229h-224v197h224v227z" />
    <glyph glyph-name="uni208B" unicode="&#x208b;" horiz-adv-x="847" 
d="M748 88h-648v197h648v-197z" />
    <glyph glyph-name="uni208C" unicode="&#x208c;" horiz-adv-x="847" 
d="M102 250v194h641v-194h-641zM102 -72v195h641v-195h-641z" />
    <glyph glyph-name="parenleftinferior" unicode="&#x208d;" horiz-adv-x="536" 
d="M502 743q-176 -249 -176 -557q0 -312 176 -559h-221q-79 99 -135 244.5t-56 314.5q0 167 56.5 313.5t134.5 243.5h221z" />
    <glyph glyph-name="parenrightinferior" unicode="&#x208e;" horiz-adv-x="536" 
d="M35 743h223q78 -98 133 -243.5t55 -313.5q0 -170 -55 -314.5t-133 -244.5h-223q178 246 178 559q0 153 -47 297t-131 260z" />
    <glyph glyph-name="Euro" unicode="&#x20ac;" horiz-adv-x="1398" 
d="M1049 406h292q-13 -79 -53 -154t-103.5 -138t-159 -101t-208.5 -38q-209 0 -356 129.5t-201 356.5h-207v198h180q-2 20 -2 62q0 40 2 63h-180v197h207q56 224 199.5 354.5t357.5 130.5q108 0 201 -35t157.5 -94.5t105.5 -136.5t54 -162h-288q-25 72 -81.5 119t-148.5 47
q-187 0 -252 -225h393l-32 -195h-389q-2 -20 -2 -63v-62h374l-30 -194h-314q65 -227 252 -227q90 0 149.5 49t82.5 119z" />
    <glyph glyph-name="uni20B4" unicode="&#x20b4;" horiz-adv-x="1398" 
d="M78 465v199h1243v-199h-770q-45 -39 -45 -100q0 -63 54 -102.5t142 -39.5q91 0 150.5 36t79.5 91h293q-26 -174 -166 -274.5t-359 -100.5t-356 104.5t-137 260.5q0 71 33 125h-162zM78 780v199h758q55 40 55 104q0 59 -50 96.5t-134 37.5q-82 0 -135 -34t-74 -93h-289
q30 166 167.5 271t342.5 105q213 0 343 -103t130 -253q0 -74 -41 -131h170v-199h-1243z" />
    <glyph glyph-name="uni20B8" unicode="&#x20b8;" horiz-adv-x="1251" 
d="M84 813v264h1083v-264h-389v-813h-305v813h-389zM84 1217v225h1083v-225h-1083z" />
    <glyph glyph-name="uni20BD" unicode="&#x20bd;" horiz-adv-x="1333" 
d="M55 217v203h197v141h-197v225h197v656h522q224 0 355 -122.5t131 -320.5q0 -196 -128.5 -317t-343.5 -121h-235v-141h405v-203h-405v-217h-301v217h-197zM737 1192h-184v-395h184q102 0 159.5 54t57.5 144t-56.5 143.5t-160.5 53.5z" />
    <glyph glyph-name="uni20BF" unicode="&#x20bf;" horiz-adv-x="1267" 
d="M152 35v1372h210v205h187v-205h133v205h188v-228q130 -36 199.5 -126t69.5 -209q0 -111 -51.5 -186.5t-126.5 -108.5q42 -12 80 -37t73 -63.5t55.5 -97t20.5 -128.5q0 -140 -85 -242t-235 -137v-231h-188v217h-133v-217h-187v217h-210zM690 618h-239v-335h237
q92 0 146.5 44.5t54.5 121.5q0 79 -54 124t-145 45zM657 1159h-206v-307h215q84 0 129 43t45 111q0 72 -48 112.5t-135 40.5z" />
    <glyph glyph-name="uni2116" unicode="&#x2116;" horiz-adv-x="2392" 
d="M479 1442l598 -914v914h301v-1442h-295l-630 958v-958h-301v1442h327zM1528 1087q0 165 108.5 272t282.5 107t282.5 -107t108.5 -272q0 -164 -109 -271t-282 -107t-282 107t-109 271zM1556 367v243h725v-243h-725zM1919 1257q-65 0 -106 -46.5t-41 -123.5
q0 -76 41 -121.5t106 -45.5q66 0 106.5 45.5t40.5 121.5q0 78 -40.5 124t-106.5 46z" />
    <glyph glyph-name="trademark" unicode="&#x2122;" horiz-adv-x="2146" 
d="M985 1442h309l217 -557l215 557h308v-897h-228v559l-215 -551h-161l-216 547v-555h-229v897zM53 1223v219h783v-219h-267v-678h-250v678h-266z" />
    <glyph glyph-name="oneeighth" unicode="&#x215b;" horiz-adv-x="2134" 
d="M489 1442v-897h-237v645l-195 -121v231l211 142h221zM291 0l1022 1442h276l-1022 -1442h-276zM1321 252q0 77 46.5 133.5t115.5 81.5q-58 24 -96.5 73t-38.5 119q0 105 96 179.5t252 74.5q155 0 251.5 -74.5t96.5 -179.5q0 -70 -39 -119t-98 -73q69 -25 115 -81.5
t46 -133.5q0 -115 -104.5 -192.5t-267.5 -77.5q-164 0 -269.5 77.5t-105.5 192.5zM1810 633q0 39 -32 64.5t-82 25.5q-51 0 -84 -26t-33 -64t34.5 -63t82.5 -25q47 0 80.5 25t33.5 63zM1825 272q0 42 -36 71.5t-93 29.5t-94 -29.5t-37 -71.5q0 -43 37 -69.5t94 -26.5
t93 26.5t36 69.5z" />
    <glyph glyph-name="threeeighths" unicode="&#x215c;" horiz-adv-x="2363" 
d="M70 1184q12 125 113.5 199.5t240.5 74.5q147 0 240.5 -71t93.5 -177q0 -72 -39 -121t-94 -73q66 -17 117 -74t51 -141q0 -120 -102.5 -197.5t-260.5 -77.5q-151 0 -255.5 79t-113.5 210h230q11 -38 48 -63t91 -25q52 0 86.5 24.5t34.5 67.5q0 41 -34.5 62.5t-92.5 21.5
h-102v195h79q55 0 87 22.5t32 59.5q0 35 -29 56t-77 21q-45 0 -76.5 -21.5t-36.5 -51.5h-231zM520 0l1022 1442h277l-1022 -1442h-277zM1550 252q0 77 46.5 133.5t115.5 81.5q-58 24 -96.5 73t-38.5 119q0 105 96 179.5t252 74.5q155 0 251.5 -74.5t96.5 -179.5
q0 -70 -39 -119t-98 -73q70 -25 116 -81.5t46 -133.5q0 -115 -105 -192.5t-268 -77.5q-164 0 -269.5 77.5t-105.5 192.5zM2040 633q0 39 -32 64.5t-83 25.5t-84 -26t-33 -64t34.5 -63t82.5 -25q47 0 81 25t34 63zM2054 272q0 42 -36 71.5t-93 29.5t-94 -29.5t-37 -71.5
q0 -43 37 -69.5t94 -26.5t93 26.5t36 69.5z" />
    <glyph glyph-name="fiveeighths" unicode="&#x215d;" horiz-adv-x="2371" 
d="M502 1137q124 0 210.5 -76t86.5 -213q0 -147 -104.5 -234.5t-256.5 -87.5q-146 0 -247 76.5t-113 196.5h233q9 -27 42 -49.5t83 -22.5q52 0 86.5 32.5t34.5 82.5q0 49 -36 79.5t-85 30.5q-81 0 -119 -57h-233l43 547h614v-203h-415l-17 -176q74 74 193 74zM528 0
l1022 1442h277l-1022 -1442h-277zM1559 252q0 77 46 133.5t115 81.5q-58 24 -96.5 73t-38.5 119q0 105 96 179.5t252 74.5q155 0 251.5 -74.5t96.5 -179.5q0 -70 -39 -119t-98 -73q70 -25 116 -81.5t46 -133.5q0 -115 -105 -192.5t-268 -77.5q-164 0 -269 77.5t-105 192.5z
M2048 633q0 39 -32 64.5t-83 25.5t-83.5 -25.5t-32.5 -64.5q0 -38 34 -63t82 -25q47 0 81 25t34 63zM2062 272q0 42 -36 71.5t-93 29.5t-94 -29.5t-37 -71.5q0 -43 37 -69.5t94 -26.5t93 26.5t36 69.5z" />
    <glyph glyph-name="seveneighths" unicode="&#x215e;" horiz-adv-x="2156" 
d="M43 1442h674v-185l-336 -712h-256l334 694h-416v203zM313 0l1022 1442h277l-1022 -1442h-277zM1343 252q0 77 46.5 133.5t115.5 81.5q-58 24 -96.5 73t-38.5 119q0 105 96 179.5t252 74.5q155 0 251.5 -74.5t96.5 -179.5q0 -70 -39 -119t-98 -73q70 -25 116 -81.5
t46 -133.5q0 -115 -105 -192.5t-268 -77.5q-164 0 -269.5 77.5t-105.5 192.5zM1833 633q0 39 -32 64.5t-83 25.5t-83.5 -25.5t-32.5 -64.5q0 -38 34 -63t82 -25q47 0 81 25t34 63zM1847 272q0 42 -36 71.5t-93 29.5t-94 -29.5t-37 -71.5q0 -43 37 -69.5t94 -26.5t93 26.5
t36 69.5z" />
    <glyph glyph-name="leftArrow" unicode="&#x2190;" horiz-adv-x="1755" 
d="M598 250l-471 471l471 471h340l-344 -344h1024v-254h-1024l344 -344h-340z" />
    <glyph glyph-name="upArrow" unicode="&#x2191;" horiz-adv-x="1167" 
d="M1055 1020v-342l-342 342v-1020h-258v1020l-342 -342v342l471 471z" />
    <glyph glyph-name="rightArrow" unicode="&#x2192;" horiz-adv-x="1755" 
d="M1157 250h-340l344 344h-1022v254h1022l-344 344h340l471 -471z" />
    <glyph glyph-name="downArrow" unicode="&#x2193;" horiz-adv-x="1167" 
d="M1055 422l-471 -471l-471 471v342l342 -344v1022h258v-1022l342 344v-342z" />
    <glyph glyph-name="leftRightArrow" unicode="&#x2194;" horiz-adv-x="2066" 
d="M567 281l-440 440l440 440h320l-318 -317h928l-317 317h319l440 -440l-440 -440h-319l317 317h-928l318 -317h-320z" />
    <glyph glyph-name="uni2196" unicode="&#x2196;" horiz-adv-x="1398" 
d="M143 776v666h666l235 -238h-483l725 -727l-178 -178l-727 725v-483z" />
    <glyph glyph-name="uni2197" unicode="&#x2197;" horiz-adv-x="1400" 
d="M1257 774l-241 -239v483l-723 -721l-180 180l718 723h-483l240 242h669v-668z" />
    <glyph glyph-name="uni2198" unicode="&#x2198;" horiz-adv-x="1400" 
d="M1257 668v-668h-669l-240 242h483l-718 723l180 180l723 -721v483z" />
    <glyph glyph-name="uni2199" unicode="&#x2199;" horiz-adv-x="1400" 
d="M143 668l242 239v-483l723 721l180 -180l-721 -723h484l-240 -242h-668v668z" />
    <glyph glyph-name="partialdiff" unicode="&#x2202;" horiz-adv-x="1234" 
d="M653 1489q30 -17 65.5 -41.5t84.5 -68t94.5 -95t91.5 -124.5t80 -153t55 -184t21 -215q0 -294 -140.5 -463.5t-400.5 -169.5q-120 0 -220.5 41t-168.5 112t-105.5 169.5t-37.5 212.5q0 232 134.5 375t342.5 143q147 0 239 -82q-25 71 -68 140t-90 122.5t-109 108
t-113.5 92.5t-114.5 80h360zM606 225q113 0 175.5 80.5t62.5 208.5q-3 121 -65 196.5t-173 75.5t-173 -76.5t-62 -199.5q0 -122 62 -203.5t173 -81.5z" />
    <glyph glyph-name="product" unicode="&#x220f;" horiz-adv-x="1449" 
d="M152 1442h1146v-1729h-313v1450h-520v-1450h-313v1729z" />
    </font>
</defs>
</svg>
