<?xml version="1.0" standalone="no"?>
<!DOCTYPE svg PUBLIC "-//W3C//DTD SVG 1.1//EN" "http://www.w3.org/Graphics/SVG/1.1/DTD/svg11.dtd" >
<svg xmlns="http://www.w3.org/2000/svg" xmlns:xlink="http://www.w3.org/1999/xlink" version="1.1">
<metadata>
Created by FontForge 20170731 at Tue Jan 19 19:36:29 2021
 By Aleksey,,,
(c)2014-16 Ilya Ruderman and Yury Ostromentsky, under exclusive license to CSTM Fonts. All rights reserved.
</metadata>
<defs>
<font id="Navigo-Bold" horiz-adv-x="2416" >
  <font-face 
    font-family="Navigo"
    font-weight="700"
    font-stretch="normal"
    units-per-em="2048"
    panose-1="2 7 5 3 7 7 6 4 3 3"
    ascent="1536"
    descent="-512"
    x-height="1034"
    cap-height="1536"
    bbox="-276 -532 3099 2353"
    underline-thickness="102"
    underline-position="-255"
    unicode-range="U+0020-1F7CA"
  />
<missing-glyph horiz-adv-x="1243" 
d="M160 -512v2048h923v-2048h-923zM367 -305h510v1634h-510v-1634z" />
    <glyph glyph-name="fi" unicode="fi" horiz-adv-x="1282" 
d="M227 0v782h-174v252h174v64q0 215 139 336.5t365 121.5q172 0 278.5 -67t141.5 -174v-137h-258q0 13 -7 30t-23 37.5t-52.5 34.5t-87.5 14q-186 0 -186 -194v-66h204v-252h-204v-782h-310zM844 0v1034h307v-1034h-307z" />
    <glyph glyph-name="fl" unicode="fl" horiz-adv-x="1282" 
d="M537 782v-782h-310v782h-174v252h174v53q0 222 137 345.5t377 123.5q126 0 236 -30t174 -78v-1448h-307v1278q-43 16 -103 16q-108 0 -156 -48.5t-48 -155.5v-56h204v-252h-204z" />
    <glyph glyph-name=".notdef" horiz-adv-x="1243" 
d="M160 -512v2048h923v-2048h-923zM367 -305h510v1634h-510v-1634z" />
    <glyph glyph-name=".null" horiz-adv-x="0" 
 />
    <glyph glyph-name="nonmarkingreturn" horiz-adv-x="682" 
 />
    <glyph glyph-name="space" unicode=" " horiz-adv-x="475" 
 />
    <glyph glyph-name="exclam" unicode="!" horiz-adv-x="638" 
d="M170 494l-20 1042h339l-20 -1042h-299zM156 0v330h329v-330h-329z" />
    <glyph glyph-name="quotedbl" unicode="&#x22;" horiz-adv-x="956" 
d="M145 940l-43 596h320l-41 -596h-236zM575 940l-40 596h319l-43 -596h-236z" />
    <glyph glyph-name="numbersign" unicode="#" horiz-adv-x="1409" 
d="M698 0l52 348h-197l-51 -348h-293l51 348h-180v256h219l41 287h-199v256h238l57 389h293l-57 -389h196l58 389h293l-58 -389h162v-256h-201l-41 -287h181v-256h-220l-51 -348h-293zM788 604l41 287h-196l-41 -287h196z" />
    <glyph glyph-name="dollar" unicode="$" horiz-adv-x="1284" 
d="M1217 446q0 -199 -134 -326t-358 -147l-10 -266h-215l10 270q-171 25 -280.5 107t-151.5 197v153h266q46 -132 178 -170l17 389l-19 4q-216 44 -326 152t-110 291q0 203 131.5 325.5t357.5 139.5l11 229h215l-11 -240q154 -25 252.5 -101t124.5 -191v-156h-268
q-31 119 -119 158l-14 -361h2q451 -95 451 -457zM403 1118q0 -57 33.5 -97t114.5 -67l12 328q-78 -13 -119 -56.5t-41 -107.5zM897 428q0 63 -33.5 105.5t-111.5 72.5l-15 -350q78 15 119 59t41 113z" />
    <glyph glyph-name="percent" unicode="%" horiz-adv-x="2209" 
d="M504 682q-199 0 -321 126t-122 316q0 193 122 318t321 125q196 0 319 -126t123 -317q0 -190 -122.5 -316t-319.5 -126zM444 -53l988 1614h319l-987 -1614h-320zM504 936q75 0 113 53t38 135q0 84 -38 136.5t-113 52.5q-76 0 -115 -53t-39 -136q0 -82 39 -135t115 -53z
M1704 -31q-199 0 -320.5 126.5t-121.5 316.5q0 193 122.5 317.5t319.5 124.5t319.5 -125t122.5 -317q0 -191 -122 -317t-320 -126zM1704 223q75 0 113 53.5t38 135.5q0 83 -38.5 135.5t-112.5 52.5t-113 -53t-39 -135t38.5 -135.5t113.5 -53.5z" />
    <glyph glyph-name="ampersand" unicode="&#x26;" horiz-adv-x="1546" 
d="M1182 0l-107 109q-204 -142 -457 -142q-255 0 -398.5 125.5t-143.5 325.5q0 56 13 106t32.5 87t48 70.5t54.5 55t57 40.5t50.5 28.5t39.5 17.5q-121 151 -121 334q0 182 128.5 296t330.5 114q111 0 198 -32.5t141 -87.5t81.5 -124.5t27.5 -148.5q0 -132 -79.5 -242.5
t-205.5 -181.5l205 -205q53 103 68 221h325q-38 -251 -167 -438l188 -185v-143h-309zM567 1151q0 -55 28.5 -107.5t90.5 -115.5q76 45 116 103.5t40 119.5q0 63 -37.5 104t-93.5 41q-65 0 -104.5 -39t-39.5 -106zM637 248q140 0 233 74l-321 327q-18 -8 -37 -21t-43 -36.5
t-39.5 -59t-15.5 -77.5q0 -96 58 -151.5t165 -55.5z" />
    <glyph glyph-name="quotesingle" unicode="'" horiz-adv-x="524" 
d="M145 940l-43 596h320l-41 -596h-236z" />
    <glyph glyph-name="parenleft" unicode="(" horiz-adv-x="786" 
d="M733 -471q-315 76 -485 344t-170 676t170 676t485 344v-258q-87 -29 -153.5 -105t-105 -182t-58 -226t-19.5 -249t19.5 -249t58 -226t105 -182t153.5 -105v-258z" />
    <glyph glyph-name="parenright" unicode=")" horiz-adv-x="786" 
d="M53 -471v258q87 29 153.5 105.5t106 182t59 225.5t19.5 249t-19.5 249t-59 225.5t-106 182t-153.5 105.5v258q316 -76 486 -343.5t170 -676.5t-170 -676.5t-486 -343.5z" />
    <glyph glyph-name="asterisk" unicode="*" horiz-adv-x="1071" 
d="M383 647l-221 164l198 221l-292 64l84 262l268 -117l-29 295h279l-33 -299l283 121l81 -262l-292 -64l198 -221l-221 -164l-151 260z" />
    <glyph glyph-name="plus" unicode="+" horiz-adv-x="1122" 
d="M1047 530h-353v-358h-268v358h-350v252h350v359h268v-359h353v-252z" />
    <glyph glyph-name="comma" unicode="," horiz-adv-x="571" 
d="M121 -287v617h330v-310l-125 -307h-205z" />
    <glyph glyph-name="hyphen" unicode="-" horiz-adv-x="825" 
d="M121 506v252h584v-252h-584z" />
    <glyph glyph-name="period" unicode="." horiz-adv-x="571" 
d="M121 0v330h330v-330h-330z" />
    <glyph glyph-name="slash" unicode="/" horiz-adv-x="1230" 
d="M47 -512l807 2189h330l-807 -2189h-330z" />
    <glyph glyph-name="zero" unicode="0" horiz-adv-x="1376" 
d="M688 -31q-178 0 -311 78t-199.5 206.5t-66.5 287.5v454q0 119 40 223t113 181.5t182.5 122.5t241.5 45q134 1 244.5 -44t182.5 -122.5t111.5 -182t39.5 -223.5v-454q0 -159 -68.5 -288t-201.5 -206.5t-308 -77.5zM688 258q116 0 183 80.5t67 202.5v454q0 124 -65 203.5
t-185 79.5q-116 0 -182 -80t-66 -203v-454q0 -123 64.5 -203t183.5 -80z" />
    <glyph glyph-name="one" unicode="1" horiz-adv-x="872" 
d="M358 0v1182l-90 -76h-237v154l389 276h278v-1536h-340z" />
    <glyph glyph-name="two" unicode="2" horiz-adv-x="1202" 
d="M1110 0h-1008v279l451 458q188 191 188 363q0 85 -49.5 131.5t-124.5 46.5q-44 0 -80.5 -17t-57.5 -41t-36.5 -54t-22 -52.5t-8.5 -40.5h-268v154q7 34 26 74.5t59 89t93 86.5t136.5 64t181.5 26q216 0 352.5 -115.5t136.5 -308.5q0 -85 -16.5 -154.5t-56 -138
t-89.5 -129.5t-133 -148l-245 -264h571v-309z" />
    <glyph glyph-name="three" unicode="3" horiz-adv-x="1261" 
d="M623 -27q-99 0 -186.5 26t-146.5 65.5t-104 89.5t-68.5 94t-31.5 82v153h268q6 -20 15 -42t30.5 -55.5t49 -59t72 -44t97.5 -18.5q102 0 159 56.5t57 144.5q0 90 -58.5 140t-181.5 50h-168v258h143q101 0 155 51.5t54 137.5q0 81 -50 128.5t-134 47.5q-46 0 -83.5 -16
t-60 -38t-39 -51.5t-23 -50.5t-9.5 -39h-262v154q7 34 26 73.5t59 86.5t93.5 83.5t136 61.5t178.5 25q224 0 366 -114t142 -300q0 -120 -60 -211.5t-167 -132.5q131 -31 207 -126.5t76 -233.5q0 -212 -151 -344t-400 -132z" />
    <glyph glyph-name="four" unicode="4" horiz-adv-x="1331" 
d="M1260 307h-197v-327h-320v327h-702v240l723 989h299v-965h197v-264zM743 571v506l-362 -506h362z" />
    <glyph glyph-name="five" unicode="5" horiz-adv-x="1208" 
d="M575 -27q-93 0 -174.5 24.5t-137 62t-98 85.5t-65 91.5t-30.5 82.5v154h268q2 -18 8.5 -40t24 -53.5t42 -56t66.5 -42t94 -17.5q103 0 163.5 71t60.5 171q0 104 -62.5 171.5t-169.5 67.5q-61 0 -109.5 -16.5t-66.5 -32.5l-18 -16l-226 86l76 770h817v-289h-551l-30 -262
q4 1 23 6l38 10t49.5 9t59.5 4q229 0 369.5 -135.5t140.5 -372.5q0 -238 -153 -385.5t-409 -147.5z" />
    <glyph glyph-name="six" unicode="6" horiz-adv-x="1267" 
d="M647 -27q-132 0 -240 42t-179 114t-109.5 167.5t-38.5 203.5q0 184 78 342t280 407l252 307h281v-139l-154 -182q-36 -43 -75.5 -88.5t-79 -89.5t-56.5 -64q52 21 94 21q238 -7 377.5 -147t139.5 -359q0 -111 -40 -209t-112.5 -170t-180.5 -114t-237 -42zM649 262
q111 0 174.5 67.5t63.5 172.5t-63.5 173t-176.5 68q-112 0 -174.5 -68t-62.5 -173q0 -106 62.5 -173t176.5 -67z" />
    <glyph glyph-name="seven" unicode="7" horiz-adv-x="1050" 
d="M203 -20v153q239 609 452 1104h-604v299h950v-279q-252 -594 -509 -1277h-289z" />
    <glyph glyph-name="eight" unicode="8" horiz-adv-x="1308" 
d="M653 -31q-130 0 -238 37.5t-179 102t-109.5 151.5t-38.5 186q0 73 22 142t76 133.5t133 101.5q-90 58 -132 144t-42 180q0 180 136.5 301t371.5 121q234 0 370 -121t136 -301q0 -105 -46.5 -188.5t-125.5 -135.5q80 -35 134.5 -99.5t77 -134t22.5 -143.5
q0 -99 -38.5 -186t-110 -151.5t-179.5 -102t-240 -37.5zM653 942q87 0 135 52.5t48 131.5q0 74 -48 124t-135 50t-134.5 -49.5t-47.5 -124.5q0 -79 47.5 -131.5t134.5 -52.5zM653 248q106 0 163.5 59.5t57.5 151.5q0 93 -58 154t-163 61q-103 0 -161 -61t-58 -154
q0 -92 57.5 -151.5t161.5 -59.5z" />
    <glyph glyph-name="nine" unicode="9" horiz-adv-x="1265" 
d="M299 -20v139q24 31 109 131t104 123q93 107 141 168q-38 -15 -71 -15q-248 7 -389.5 148t-141.5 366q0 108 39.5 204t111.5 168t179.5 113.5t236.5 41.5q132 0 240.5 -42t179.5 -114t109.5 -167.5t38.5 -203.5q0 -174 -66.5 -322.5t-226.5 -352.5q-18 -23 -79.5 -99.5
t-135 -167t-96.5 -118.5h-283zM618 797q112 0 175 67.5t63 171.5q0 107 -62.5 174.5t-177.5 67.5q-111 0 -174 -67.5t-63 -172.5t63 -173t176 -68z" />
    <glyph glyph-name="colon" unicode=":" horiz-adv-x="571" 
d="M121 705v329h330v-329h-330zM121 0v330h330v-330h-330z" />
    <glyph glyph-name="semicolon" unicode=";" horiz-adv-x="571" 
d="M121 705v329h330v-329h-330zM121 -330v660h330v-310l-125 -350h-205z" />
    <glyph glyph-name="less" unicode="&#x3c;" horiz-adv-x="1007" 
d="M870 123h-139l-651 414v217l651 413h139v-237l-462 -285l462 -287v-235z" />
    <glyph glyph-name="equal" unicode="=" horiz-adv-x="1204" 
d="M127 741v252h950v-252h-950zM127 291v252h950v-252h-950z" />
    <glyph glyph-name="greater" unicode="&#x3e;" horiz-adv-x="1007" 
d="M276 123h-139v235l465 287l-465 285v237h139l652 -413v-217z" />
    <glyph glyph-name="question" unicode="?" horiz-adv-x="1099" 
d="M365 494q-19 49 -19 92q0 53 19 98.5t49.5 77.5t67 61.5t73 58.5t67 61t49.5 75.5t19 95.5q0 73 -46 118.5t-122 45.5q-43 0 -77.5 -17t-54.5 -41t-33.5 -54t-18 -53t-4.5 -40h-268v154q7 35 25 75t56.5 88.5t90 86.5t132.5 64t177 26q212 0 347.5 -115t135.5 -303
q0 -76 -20 -140t-52.5 -108t-71.5 -80.5t-78 -66t-71.5 -57t-52.5 -60t-20 -68.5q0 -32 16 -75h-315zM362 0v330h330v-330h-330z" />
    <glyph glyph-name="at" unicode="@" horiz-adv-x="2181" 
d="M1016 -485q-205 0 -377.5 67t-295.5 190.5t-192 307t-69 407.5q0 140 32 271t91.5 244.5t150 207t203 160t254.5 103t301 36.5q215 0 398.5 -63.5t310.5 -174t198.5 -264t71.5 -329.5q0 -327 -185.5 -502.5t-508.5 -175.5h-187l-10 152q-25 -35 -49 -61t-60 -53
t-82.5 -41.5t-101.5 -14.5q-183 0 -268.5 141.5t-60.5 370.5q24 213 153 346.5t334 132.5q140 0 242 -94l22 63h240l-78 -676q150 6 220.5 104.5t70.5 286.5q0 88 -24 170t-77 156.5t-130 129.5t-191 87.5t-252 32.5q-219 0 -383 -95.5t-250 -264.5t-86 -388
q0 -167 47.5 -301.5t131 -220.5t195.5 -132t243 -46q107 0 200 14t147.5 30.5t133.5 45.5v-264q-104 -49 -209 -72.5t-264 -23.5zM1012 213q86 0 137.5 70t64.5 184l27 238q-2 1 -17.5 11t-29.5 18t-41 15t-55 7q-86 0 -143 -79.5t-70 -191.5q-34 -272 127 -272z" />
    <glyph glyph-name="A" unicode="A" horiz-adv-x="1445" 
d="M299 0h-272v143l522 1393h346l520 -1372v-164h-295l-119 326h-585zM911 604l-200 565l-201 -565h401z" />
    <glyph glyph-name="B" unicode="B" horiz-adv-x="1406" 
d="M168 0v1536h612q224 0 355 -112t131 -300q0 -113 -54.5 -197.5t-150.5 -121.5q123 -38 192.5 -130.5t69.5 -215.5q0 -212 -142.5 -335.5t-392.5 -123.5h-620zM494 918h233q96 0 151.5 46t55.5 126t-53 128t-146 48h-241v-348zM494 270h260q111 0 173 57t62 144
q0 85 -59.5 136.5t-173.5 51.5h-262v-389z" />
    <glyph glyph-name="C" unicode="C" horiz-adv-x="1492" 
d="M838 -31q-231 0 -402.5 101.5t-260.5 281.5t-89 416q0 238 93 419.5t264 280.5t395 99q117 0 215 -24t160.5 -59.5t109 -81t68.5 -83.5t30 -72v-155h-268q-5 26 -23.5 54.5t-52.5 60t-95.5 51.5t-139.5 20q-191 0 -303.5 -136.5t-112.5 -371.5q0 -232 113 -371t303 -139
q76 0 138.5 21.5t99 54.5t57 63t26.5 56h269v-156q-11 -39 -37.5 -81.5t-76.5 -87.5t-115 -80.5t-160.5 -58t-204.5 -22.5z" />
    <glyph glyph-name="D" unicode="D" horiz-adv-x="1556" 
d="M168 0v1536h539q230 0 406.5 -103.5t268 -275.5t91.5 -383q0 -160 -54 -301t-151 -246t-242.5 -166t-318.5 -61h-539zM508 289h192q130 0 227.5 66t146 175t48.5 244q0 131 -48.5 237.5t-146 171t-227.5 64.5h-192v-958z" />
    <glyph glyph-name="E" unicode="E" horiz-adv-x="1234" 
d="M168 0v1536h965v-289h-625v-325h553v-267h-553v-366h625v-289h-965z" />
    <glyph glyph-name="F" unicode="F" horiz-adv-x="1191" 
d="M168 0v1536h944v-289h-604v-346h543v-266h-543v-635h-340z" />
    <glyph glyph-name="G" unicode="G" horiz-adv-x="1576" 
d="M877 -31q-244 0 -424.5 102t-274.5 282t-94 415q0 173 55.5 320t155.5 253t248 166t325 60q110 0 206 -21.5t160.5 -55.5t113.5 -76.5t74 -83.5t32 -79v-153h-266q-6 22 -26.5 49t-56.5 58t-98 52t-137 21q-207 0 -326.5 -142t-119.5 -366q0 -226 122 -368t335 -142
q153 0 264 51v267h-318v262h635v-664q-19 -28 -65.5 -61.5t-118 -67t-178 -56t-223.5 -22.5z" />
    <glyph glyph-name="H" unicode="H" horiz-adv-x="1617" 
d="M168 0v1536h340v-604h602v604h340v-1536h-340v645h-602v-645h-340z" />
    <glyph glyph-name="I" unicode="I" horiz-adv-x="675" 
d="M168 0v1536h340v-1536h-340z" />
    <glyph glyph-name="J" unicode="J" horiz-adv-x="1062" 
d="M459 -31q-86 0 -157 19t-115.5 48t-77 66t-47 68.5t-19.5 60.5v154h266q0 -47 31 -87t96 -40q69 0 101 42.5t32 156.5v1079h338v-1067q0 -500 -448 -500z" />
    <glyph glyph-name="K" unicode="K" horiz-adv-x="1421" 
d="M508 668v-668h-340v1536h340v-659l555 659h268v-154l-502 -583l560 -639v-160h-299z" />
    <glyph glyph-name="L" unicode="L" horiz-adv-x="1165" 
d="M168 0v1536h340v-1247h614v-289h-954z" />
    <glyph glyph-name="M" unicode="M" horiz-adv-x="1906" 
d="M829 326l-342 723v-1049h-319v1536h418l372 -782l365 782h416v-1536h-338v1049l-344 -723h-228z" />
    <glyph glyph-name="N" unicode="N" horiz-adv-x="1628" 
d="M168 0v1536h319l654 -977v977h319v-1536h-319l-654 961v-961h-319z" />
    <glyph glyph-name="O" unicode="O" horiz-adv-x="1691" 
d="M846 -31q-169 0 -311.5 59.5t-241.5 165.5t-154 255t-55 325q0 232 94.5 412t268.5 280.5t399 100.5t399 -100.5t268.5 -280.5t94.5 -412q0 -176 -55 -325t-154 -255t-241.5 -165.5t-311.5 -59.5zM846 258q192 0 307 142t115 374q0 226 -115 365t-307 139t-307 -139
t-115 -365q0 -232 115 -374t307 -142z" />
    <glyph glyph-name="P" unicode="P" horiz-adv-x="1316" 
d="M168 0v1536h494q271 0 431 -137t160 -369q0 -103 -38 -196.5t-109.5 -168.5t-186.5 -119t-257 -44h-154v-502h-340zM502 784h157q117 0 185.5 67t68.5 177q0 99 -67.5 162t-186.5 63h-157v-469z" />
    <glyph glyph-name="Q" unicode="Q" horiz-adv-x="1691" 
d="M1532 -53v-160h-248l-172 225q-119 -43 -266 -43q-169 0 -311.5 59.5t-241.5 165.5t-154 255t-55 325q0 232 94.5 412t268.5 280.5t399 100.5t399 -100.5t268.5 -280.5t94.5 -412q0 -189 -62.5 -345.5t-179.5 -264.5zM424 774q0 -232 115 -374t307 -142q38 0 76 6
l-148 193v159h248l147 -194q99 141 99 352q0 226 -115 365t-307 139t-307 -139t-115 -365z" />
    <glyph glyph-name="R" unicode="R" horiz-adv-x="1396" 
d="M508 0h-340v1536h504q267 0 424 -132.5t157 -356.5q0 -140 -72.5 -250t-203.5 -172l354 -465v-160h-293l-393 541h-137v-541zM502 815h168q113 0 178 61.5t65 165.5q0 92 -64.5 148.5t-178.5 56.5h-168v-432z" />
    <glyph glyph-name="S" unicode="S" horiz-adv-x="1323" 
d="M664 -31q-225 0 -369 87t-197 225v153h269q66 -186 303 -186q109 0 174 47.5t65 132.5q0 75 -54 121t-171 72l-141 26q-213 42 -325 155.5t-112 297.5q0 219 152 343t408 124q211 0 349.5 -81.5t170.5 -223.5v-156h-266q-47 182 -263 182q-105 0 -163 -46t-58 -124
q0 -64 48.5 -106t156.5 -66l147 -33q216 -44 333.5 -161.5t117.5 -305.5q0 -218 -158 -347.5t-417 -129.5z" />
    <glyph glyph-name="T" unicode="T" horiz-adv-x="1300" 
d="M479 0v1247h-438v289h1219v-289h-441v-1247h-340z" />
    <glyph glyph-name="U" unicode="U" horiz-adv-x="1554" 
d="M784 -31q-142 0 -261.5 47t-200 127t-125.5 188.5t-45 231.5v973h340v-975q0 -130 78 -216.5t212 -86.5q140 0 220.5 86t80.5 217v975h320v-973q0 -122 -45 -231t-124.5 -189t-196 -127t-253.5 -47z" />
    <glyph glyph-name="V" unicode="V" horiz-adv-x="1452" 
d="M541 0l-508 1372v164h313l385 -1118l395 1118h299v-143l-514 -1393h-370z" />
    <glyph glyph-name="W" unicode="W" horiz-adv-x="2048" 
d="M1286 0l-264 938l-260 -938h-346l-367 1372v164h316l243 -1055l281 1055h289l272 -1055l254 1055h299v-143l-371 -1393h-346z" />
    <glyph glyph-name="X" unicode="X" horiz-adv-x="1413" 
d="M55 0v154l451 624l-428 598v160h299l354 -512l332 512h268v-154l-420 -594l449 -628v-160h-299l-371 541l-366 -541h-269z" />
    <glyph glyph-name="Y" unicode="Y" horiz-adv-x="1355" 
d="M510 0v614l-496 762v160h299l389 -623l365 623h266v-154l-483 -770v-612h-340z" />
    <glyph glyph-name="Z" unicode="Z" horiz-adv-x="1316" 
d="M1235 0h-1151v268l729 979h-709v289h1108v-268l-727 -979h750v-289z" />
    <glyph glyph-name="bracketleft" unicode="[" horiz-adv-x="794" 
d="M160 -471v2007h575v-258h-256v-1491h256v-258h-575z" />
    <glyph glyph-name="backslash" unicode="\" horiz-adv-x="1230" 
d="M854 -512l-807 2189h330l807 -2189h-330z" />
    <glyph glyph-name="bracketright" unicode="]" horiz-adv-x="792" 
d="M59 -471v258h256v1491h-256v258h574v-2007h-574z" />
    <glyph glyph-name="asciicircum" unicode="^" horiz-adv-x="1101" 
d="M774 848l-223 362l-223 -362h-238v133l352 555h217l353 -555v-133h-238z" />
    <glyph glyph-name="underscore" unicode="_" horiz-adv-x="1085" 
d="M0 -457v242h1085v-242h-1085z" />
    <glyph glyph-name="grave" unicode="`" horiz-adv-x="679" 
d="M352 1229l-198 184v123h292l158 -184v-123h-252z" />
    <glyph glyph-name="a" unicode="a" horiz-adv-x="1128" 
d="M403 -31q-163 0 -251.5 91.5t-88.5 230.5q0 152 112 236.5t333 84.5q47 0 95 -5t73 -10l24 -5v45q0 172 -170 172q-37 0 -69 -9.5t-51 -23.5t-32.5 -28t-18.5 -24l-5 -9h-233v137q4 9 11.5 23t40.5 51t75.5 65t119.5 51t169 23q473 0 473 -438v-627h-279l-20 131
q-98 -162 -308 -162zM504 207q92 0 144 52.5t52 115.5v45q-72 16 -172 16q-159 0 -159 -117q0 -112 135 -112z" />
    <glyph glyph-name="b" unicode="b" horiz-adv-x="1314" 
d="M774 -31q-113 0 -199.5 47t-138.5 131l-16 -147h-289v1536h309v-641q54 81 140 125.5t198 44.5q140 0 246 -72.5t160.5 -194.5t54.5 -272q0 -115 -31.5 -216.5t-90 -177t-147 -119.5t-196.5 -44zM684 248q116 0 181 75.5t65 192.5q0 119 -65 194.5t-183 75.5
q-107 0 -174.5 -76t-67.5 -192q0 -117 67.5 -193.5t176.5 -76.5z" />
    <glyph glyph-name="c" unicode="c" horiz-adv-x="1116" 
d="M614 -31q-132 0 -236.5 43t-170 118t-99.5 172.5t-34 211.5q0 153 63 277.5t187.5 200t289.5 75.5q71 0 133 -13.5t104 -34.5t76.5 -47t54 -52t33 -47t18.5 -35l5 -13v-137h-231q-1 5 -4 12t-17.5 26.5t-33.5 34t-56 26.5t-82 12q-113 0 -172 -80.5t-59 -204.5
q0 -122 59 -199t172 -77q48 0 85.5 11.5t57 27.5t32.5 32t17 27l3 12h231v-137q-2 -5 -5.5 -13.5t-18.5 -34t-34.5 -48t-54.5 -50.5t-77 -48t-103.5 -34t-132.5 -14z" />
    <glyph glyph-name="d" unicode="d" horiz-adv-x="1314" 
d="M537 -31q-141 0 -247.5 74.5t-160 197.5t-53.5 275q0 154 56.5 278.5t164 197.5t246.5 73q215 0 334 -170v641h307v-1536h-287l-18 147q-52 -83 -141 -130.5t-201 -47.5zM631 248q109 0 177.5 76.5t68.5 193.5q0 115 -68.5 191.5t-177.5 76.5q-116 0 -181 -76t-65 -194
q0 -117 65 -192.5t181 -75.5z" />
    <glyph glyph-name="e" unicode="e" horiz-adv-x="1193" 
d="M631 -31q-136 0 -243.5 41.5t-175.5 116t-103 172.5t-35 215q0 114 36.5 214t104.5 175t172 118.5t231 43.5q128 0 225.5 -37t157 -103.5t89.5 -153.5t30 -193q0 -32 -3.5 -65t-6.5 -50l-4 -17h-721q14 -108 77.5 -168.5t174.5 -60.5q52 0 93.5 9.5t64 23.5t38 28
t20.5 24l5 9h242v-137q-4 -8 -13 -22t-46 -49.5t-85 -62.5t-135 -49t-190 -22zM391 633h432q0 79 -54 132.5t-153 53.5q-182 0 -225 -186z" />
    <glyph glyph-name="f" unicode="f" horiz-adv-x="897" 
d="M227 0v782h-174v252h174v115q0 188 111 297.5t307 109.5q132 0 213.5 -49.5t112.5 -136.5v-139h-230q0 19 -22 41t-72 22q-110 0 -110 -143v-117h329v-252h-329v-782h-310z" />
    <glyph glyph-name="g" unicode="g" horiz-adv-x="1314" 
d="M625 -532q-81 0 -152 15t-119.5 39t-88.5 53t-63.5 58t-40 53t-22.5 39l-6 15v137h248q2 -6 6 -15t21.5 -32.5t41 -41.5t68 -33t98.5 -15q129 0 195 81t66 218v111q-110 -160 -340 -160q-139 0 -245 72t-161 192t-55 266q0 152 56 275.5t164 197.5t249 74q109 0 196 -48
t140 -130l16 145h289v-987q0 -263 -154 -421t-407 -158zM633 256q108 0 176 76.5t68 191.5q0 114 -68.5 189t-177.5 75q-115 0 -180.5 -75t-65.5 -189q0 -117 66 -192.5t182 -75.5z" />
    <glyph glyph-name="h" unicode="h" horiz-adv-x="1234" 
d="M131 0v1536h309v-629q41 65 119 111.5t184 46.5q80 0 143.5 -22.5t105.5 -61t70 -93t40 -115t12 -130.5v-643h-307v586q0 202 -170 202q-54 0 -93.5 -17.5t-61.5 -48t-32 -65.5t-10 -75v-582h-309z" />
    <glyph glyph-name="i" unicode="i" horiz-adv-x="569" 
d="M131 0v1034h307v-1034h-307zM123 1229v287h319v-287h-319z" />
    <glyph glyph-name="j" unicode="j" horiz-adv-x="565" 
d="M45 -532q-130 0 -210.5 51.5t-110.5 136.5v147h231q0 -23 20 -48t64 -25q51 0 70.5 32t19.5 109v1163h307v-1165q0 -187 -100 -294t-291 -107zM123 1229v287h319v-287h-319z" />
    <glyph glyph-name="k" unicode="k" horiz-adv-x="1136" 
d="M131 0v1536h309v-922l348 420h265v-137l-301 -356l342 -398v-143h-289l-365 446v-446h-309z" />
    <glyph glyph-name="l" unicode="l" horiz-adv-x="571" 
d="M131 0v1536h309v-1536h-309z" />
    <glyph glyph-name="m" unicode="m" horiz-adv-x="1777" 
d="M131 0v1034h287l14 -131q40 69 108 115.5t165 46.5q109 0 181.5 -48.5t106.5 -129.5q106 178 307 178q94 0 164 -33t111.5 -92t61.5 -133t20 -164v-643h-307v604q0 184 -148 184q-81 0 -120.5 -53.5t-39.5 -126.5v-608h-297v612q0 176 -147 176q-43 0 -75 -17t-50 -45.5
t-26.5 -62t-8.5 -71.5v-592h-307z" />
    <glyph glyph-name="n" unicode="n" horiz-adv-x="1234" 
d="M131 0v1034h289l14 -137q40 69 119 118.5t190 49.5q80 0 143.5 -22.5t105.5 -61t70 -93t40 -115t12 -130.5v-643h-307v586q0 202 -170 202q-54 0 -93.5 -17.5t-61.5 -48t-32 -65.5t-10 -75v-582h-309z" />
    <glyph glyph-name="o" unicode="o" horiz-adv-x="1241" 
d="M621 -31q-167 0 -293 75t-190 199t-64 277q0 152 64 274.5t190 196.5t293 74q166 0 292 -74t190 -196.5t64 -274.5q0 -153 -64 -277t-190 -199t-292 -75zM621 238q116 0 176.5 79t60.5 203q0 121 -60.5 199t-176.5 78t-177 -78t-61 -199q0 -124 61 -203t177 -79z" />
    <glyph glyph-name="p" unicode="p" horiz-adv-x="1314" 
d="M131 -512v1546h289l14 -147q52 83 142 130.5t202 47.5q142 0 248.5 -74t159.5 -196.5t53 -274.5q0 -155 -55.5 -279.5t-161.5 -198t-244 -73.5q-110 0 -196.5 44.5t-141.5 125.5v-651h-309zM684 248q118 0 182 76t64 196q0 117 -64.5 191.5t-181.5 74.5
q-109 0 -176.5 -75.5t-67.5 -190.5q0 -117 67.5 -194.5t176.5 -77.5z" />
    <glyph glyph-name="q" unicode="q" horiz-adv-x="1312" 
d="M877 -512v651q-119 -170 -340 -170q-140 0 -246 74.5t-160.5 197.5t-54.5 275q0 153 55.5 277t163 198t248.5 74q110 0 197 -47t139 -131l18 147h287v-1546h-307zM631 248q109 0 177.5 77.5t68.5 194.5q0 115 -68.5 190.5t-177.5 75.5q-116 0 -181 -74.5t-65 -191.5
q0 -120 65 -196t181 -76z" />
    <glyph glyph-name="r" unicode="r" horiz-adv-x="985" 
d="M131 0v1034h289l14 -135q37 71 108.5 118.5t168.5 47.5q116 0 181.5 -59t78.5 -160v-148h-236l-1 6q-2 5 -5.5 14t-9 19.5t-16 21.5t-24 20t-34 14.5t-45.5 5.5q-80 0 -120 -60.5t-40 -160.5v-578h-309z" />
    <glyph glyph-name="s" unicode="s" horiz-adv-x="1040" 
d="M528 -31q-100 0 -185 22t-137 55.5t-84 66t-42 61.5v139h231q9 -35 68 -76.5t153 -41.5q160 0 160 98q0 47 -38.5 70t-118.5 36l-132 17q-309 42 -309 309q0 151 114 245.5t308 94.5q168 0 269.5 -55t138.5 -142v-139h-234q-2 11 -12.5 27.5t-30.5 36.5t-56.5 33.5
t-80.5 13.5q-70 0 -104.5 -27t-34.5 -72q0 -78 131 -100l131 -18q162 -24 249 -93.5t87 -210.5q0 -157 -117.5 -253.5t-323.5 -96.5z" />
    <glyph glyph-name="t" unicode="t" horiz-adv-x="972" 
d="M598 -31q-190 0 -294.5 105.5t-104.5 292.5v415h-154v252h158l16 262h289v-262h410v-252h-410v-405q0 -78 27.5 -115t87.5 -37q54 0 76 26.5t22 53.5h221v-139q-35 -89 -120.5 -143t-223.5 -54z" />
    <glyph glyph-name="u" unicode="u" horiz-adv-x="1226" 
d="M494 -31q-99 0 -173 33.5t-116.5 93.5t-63 133.5t-20.5 161.5v643h309v-585q0 -203 164 -203q100 0 146 60.5t46 146.5v581h310v-1034h-289l-14 137q-40 -69 -116 -118.5t-183 -49.5z" />
    <glyph glyph-name="v" unicode="v" horiz-adv-x="1126" 
d="M702 0h-278l-385 891v143h278l258 -628l254 628h263v-137z" />
    <glyph glyph-name="w" unicode="w" horiz-adv-x="1638" 
d="M999 0l-188 596l-176 -596h-279l-309 891v143h279l190 -616l186 616h254l193 -614l184 614h262v-137l-317 -897h-279z" />
    <glyph glyph-name="x" unicode="x" horiz-adv-x="1144" 
d="M63 0v139l324 387l-317 365v143h282l234 -299l231 299h258v-137l-319 -375l325 -379v-143h-282l-242 309l-235 -309h-259z" />
    <glyph glyph-name="y" unicode="y" horiz-adv-x="1138" 
d="M418 -512h-262v143l258 463l-373 797v143h278l265 -606l274 606h256v-137z" />
    <glyph glyph-name="z" unicode="z" horiz-adv-x="1030" 
d="M946 0h-862v231l483 551h-473v252h842v-231l-483 -551h493v-252z" />
    <glyph glyph-name="braceleft" unicode="{" horiz-adv-x="843" 
d="M786 -475q-274 0 -414.5 123t-140.5 366v97q0 77 -9 129.5t-24.5 84t-43.5 48.5t-58.5 22.5t-77.5 5.5v258q59 0 94.5 9.5t65 39t41.5 88.5t12 154v97q0 243 140.5 366t414.5 123v-258q-122 0 -178.5 -53.5t-56.5 -177.5v-97q0 -331 -211 -420q211 -89 211 -419v-97
q0 -124 56.5 -177.5t178.5 -53.5v-258z" />
    <glyph glyph-name="bar" unicode="|" horiz-adv-x="628" 
d="M311 -512l-161 147v1895l163 147l166 -147v-1895z" />
    <glyph glyph-name="braceright" unicode="}" horiz-adv-x="845" 
d="M57 -475v258q123 0 179.5 53.5t56.5 177.5v97q0 330 211 419q-211 89 -211 420v97q0 124 -56.5 177.5t-179.5 53.5v258q274 0 414.5 -123t140.5 -366v-97q0 -77 9 -129.5t24.5 -84.5t44 -49t59 -22.5t78.5 -5.5v-258q-48 0 -78.5 -5.5t-59 -22.5t-44 -48.5t-24.5 -84
t-9 -129.5v-97q0 -243 -140.5 -366t-414.5 -123z" />
    <glyph glyph-name="asciitilde" unicode="~" horiz-adv-x="1185" 
d="M793 438q-55 0 -105 20t-81 44.5t-70.5 44.5t-75.5 20t-57.5 -33.5t-28.5 -84.5h-248q-1 184 77 286.5t206 102.5q59 0 109 -20t79 -43.5t67 -43.5t74 -20q34 0 53.5 31t32.5 96h246q3 -194 -71.5 -297t-206.5 -103z" />
    <glyph glyph-name="uni00A0" unicode="&#xa0;" horiz-adv-x="475" 
 />
    <glyph glyph-name="exclamdown" unicode="&#xa1;" horiz-adv-x="634" 
d="M168 756l-21 -1043h340l-20 1043h-299zM154 1249v-329h329v329h-329z" />
    <glyph glyph-name="cent" unicode="&#xa2;" horiz-adv-x="1155" 
d="M1077 211q-2 -5 -5 -13t-17.5 -31.5t-32.5 -45t-51.5 -48.5t-72.5 -47t-97 -35.5t-125 -19.5l-14 -264h-193l14 277q-200 40 -306.5 185t-106.5 345q0 213 126 365.5t343 181.5l14 268h192l-14 -268q79 -11 143.5 -39.5t100.5 -61t60 -63.5t32 -51l8 -21v-137h-221l-3 9
t-11 21.5t-22.5 29t-39.5 28.5t-59 23l-31 -568q41 6 73.5 20t49.5 30t28 31.5t14 25.5l3 10h221v-137zM369 514q0 -85 32.5 -152.5t96.5 -103.5l26 533q-76 -31 -115.5 -106t-39.5 -171z" />
    <glyph glyph-name="sterling" unicode="&#xa3;" horiz-adv-x="1259" 
d="M1161 266v-266h-1057v266q94 39 151 122t64 200v24h-213v236h156q-55 137 -55 272q0 205 134 326t357 121q78 0 146 -16t113.5 -41.5t83 -56.5t59 -61.5t36.5 -56t20 -41.5l5 -16v-143h-248q-1 6 -3.5 17t-16 38.5t-32.5 48.5t-56.5 38t-85.5 17q-89 0 -141 -50t-52 -138
q0 -23 1.5 -45t3 -37.5t7 -36.5t7.5 -30.5t9.5 -31t9 -25.5t10.5 -27t10 -25h383v-236h-338v-24q-6 -114 -52.5 -199t-125.5 -123h710z" />
    <glyph glyph-name="yen" unicode="&#xa5;" horiz-adv-x="1447" 
d="M1245 193h-348v-193h-338v193h-348v225h348v123h-348v225h266l-414 610v160h299l390 -596l362 596h268v-154l-403 -616h266v-225h-348v-123h348v-225z" />
    <glyph glyph-name="brokenbar" unicode="&#xa6;" horiz-adv-x="624" 
d="M147 813v717l164 147l166 -147v-717h-330zM309 -512l-162 147v742h330v-742z" />
    <glyph glyph-name="section" unicode="&#xa7;" horiz-adv-x="1216" 
d="M604 -254q-92 0 -171.5 19.5t-131.5 49t-91 67t-58 70.5t-25 62v154h268q0 -14 10.5 -34t32.5 -43.5t66.5 -39.5t101.5 -16q85 0 132.5 32.5t47.5 90.5q0 54 -37 80.5t-141 50.5l-151 28q-353 68 -353 334q0 76 30.5 137.5t86.5 96.5q-106 98 -106 268q0 191 137 302.5
t362 111.5q92 0 171 -19.5t131.5 -49.5t91.5 -67.5t58 -70.5t24 -62v-153h-269q0 14 -10.5 34t-32.5 43.5t-65 39.5t-99 16q-84 0 -134 -32.5t-50 -90.5q0 -54 37.5 -80.5t140.5 -50.5l152 -29q170 -33 261 -117t91 -216q0 -76 -30.5 -137.5t-86.5 -96.5q107 -99 107 -270
q0 -189 -134.5 -300.5t-363.5 -111.5zM676 549l82 -10q45 23 45 75q0 48 -41.5 77.5t-147.5 53.5l-77 19l-76 10q-45 -22 -45 -76q0 -48 38.5 -76.5t141.5 -52.5q1 0 40 -10t40 -10z" />
    <glyph glyph-name="dieresis" unicode="&#xa8;" horiz-adv-x="901" 
d="M113 1229v287h297v-287h-297zM532 1229v287h299v-287h-299z" />
    <glyph glyph-name="copyright" unicode="&#xa9;" horiz-adv-x="2080" 
d="M1040 -428q-202 0 -381 75t-305.5 202.5t-200 302.5t-73.5 368q0 192 73.5 366.5t200 302t305.5 202.5t381 75t381.5 -75t306 -202.5t200 -301.5t73.5 -367t-73.5 -368t-200 -302.5t-305.5 -202.5t-382 -75zM1040 -180q195 0 356 94.5t251 254.5t90 351
q0 142 -53.5 270.5t-145 223t-221.5 150t-277 55.5q-145 0 -274.5 -55.5t-221 -150t-145 -223t-53.5 -270.5t53.5 -271.5t145 -223.5t221 -149.5t274.5 -55.5zM1051 -10q-127 0 -227.5 41.5t-164 113.5t-96.5 166t-33 203t36 205.5t101 168.5t164.5 114t219.5 42
q70 0 131 -12.5t102.5 -32t75 -43.5t53 -47.5t32.5 -43t18 -31.5l5 -13v-135h-227q-1 4 -4 11.5t-16.5 26.5t-32.5 33t-55.5 26t-81.5 12q-112 0 -170 -79t-58 -202q0 -120 58 -196t170 -76q47 0 84 11t56.5 27t32 32t16.5 27l3 11h227v-135q-2 -5 -5.5 -13t-18 -31.5
t-33.5 -44.5t-53.5 -47t-75.5 -44.5t-102 -31.5t-131 -13z" />
    <glyph glyph-name="ordfeminine" unicode="&#xaa;" horiz-adv-x="1028" 
d="M379 614q-143 0 -221 79t-78 200q0 130 99 207.5t290 77.5q41 0 81 -4t60 -8l19 -5v29q0 143 -142 143q-32 0 -59 -8.5t-42.5 -20.5t-26.5 -24t-15 -20l-4 -9h-209v125q3 7 10 19.5t36 44t66 55.5t104 44t147 20q409 0 409 -375v-543h-246l-18 113q-84 -140 -260 -140z
M465 823q72 0 118 44t46 98v32q-56 15 -142 15q-68 0 -102.5 -26.5t-34.5 -72.5q0 -41 30.5 -65.5t84.5 -24.5z" />
    <glyph glyph-name="guillemotleft" unicode="&#xab;" horiz-adv-x="1329" 
d="M684 102h-244l-391 451l391 451h244v-134l-283 -317l283 -317v-134zM1227 102h-242l-391 451l391 451h242v-134l-281 -317l281 -317v-134z" />
    <glyph glyph-name="uni00AD" unicode="&#xad;" horiz-adv-x="825" 
d="M121 506v252h584v-252h-584z" />
    <glyph glyph-name="registered" unicode="&#xae;" horiz-adv-x="1445" 
d="M723 279q-171 0 -316.5 86t-231 236t-85.5 329t85.5 329t231 236t316.5 86t316.5 -86t231 -236t85.5 -329t-85.5 -329t-231 -236t-316.5 -86zM723 467q188 0 313 134.5t125 328.5t-125 328.5t-313 134.5t-313 -134.5t-125 -328.5t125 -328.5t313 -134.5zM657 844v-221
h-170v630h224q117 0 185.5 -55t68.5 -145q0 -107 -111 -166l143 -191v-73h-141l-162 221h-37zM655 973h47q42 0 67.5 21t25.5 55q0 32 -25 51.5t-68 19.5h-47v-147z" />
    <glyph glyph-name="macron" unicode="&#xaf;" horiz-adv-x="909" 
d="M154 1249v238h585v-238h-585z" />
    <glyph glyph-name="degree" unicode="&#xb0;" horiz-adv-x="915" 
d="M459 811q-167 0 -279 111t-112 268t112 268t279 111q165 0 277 -111t112 -268t-112 -268t-277 -111zM459 1047q59 0 95 41.5t36 101.5t-36 101.5t-95 41.5q-60 0 -96.5 -41.5t-36.5 -101.5t36.5 -101.5t96.5 -41.5z" />
    <glyph glyph-name="plusminus" unicode="&#xb1;" horiz-adv-x="1214" 
d="M1094 727h-353v-317h-268v317h-352v252h352v315h268v-315h353v-252zM131 45v252h963v-252h-963z" />
    <glyph glyph-name="acute" unicode="&#xb4;" horiz-adv-x="737" 
d="M147 1229v123l158 184h295v-123l-201 -184h-252z" />
    <glyph glyph-name="paragraph" unicode="&#xb6;" horiz-adv-x="1458" 
d="M557 -258v926h-41q-206 0 -331.5 115.5t-125.5 316.5q0 199 122.5 317.5t365.5 118.5h719v-1794h-279v1505h-153v-1505h-277z" />
    <glyph glyph-name="periodcentered" unicode="&#xb7;" horiz-adv-x="559" 
d="M121 528v314h317v-314h-317z" />
    <glyph glyph-name="cedilla" unicode="&#xb8;" horiz-adv-x="1024" 
d="M367 -459v164q139 0 139 74q0 71 -131 71v150h248v-82q79 -12 125.5 -56.5t46.5 -113.5q0 -185 -254 -207h-174z" />
    <glyph glyph-name="ordmasculine" unicode="&#xba;" horiz-adv-x="1083" 
d="M543 618q-145 0 -254 64.5t-164 171t-55 236.5t55 235t164 168t254 63q215 0 343 -133t128 -333q0 -97 -32.5 -182.5t-92 -150t-149 -102t-197.5 -37.5zM543 852q99 0 148.5 66t49.5 172t-49 170.5t-149 64.5q-101 0 -151 -64.5t-50 -170.5t50 -172t151 -66z" />
    <glyph glyph-name="guillemotright" unicode="&#xbb;" horiz-adv-x="1327" 
d="M344 102h-242v134l281 317l-281 317v134h242l391 -451zM887 102h-242v134l283 317l-283 317v134h242l391 -451z" />
    <glyph glyph-name="onequarter" unicode="&#xbc;" horiz-adv-x="2084" 
d="M379 -82l960 1700h310l-961 -1700h-309zM580 594h-279v645l-45 -39h-197v133l303 223h218v-962zM2013 156h-129v-201h-268v201h-442v159l434 603h276v-564h129v-198zM1616 354v244l-166 -244h166z" />
    <glyph glyph-name="onehalf" unicode="&#xbd;" horiz-adv-x="2111" 
d="M379 -82l960 1700h310l-961 -1700h-309zM301 594v645l-45 -39h-197v133l303 223h218v-962h-279zM2032 0h-725v197l315 243q56 49 82.5 88.5t26.5 83.5q0 47 -26.5 72t-76.5 25q-31 0 -55 -12t-36 -30.5t-18 -32.5t-8 -26h-200v107q7 33 28 69t58.5 73t103 61t146.5 24
q162 0 257 -76t95 -204q0 -104 -49.5 -184t-157.5 -167l-80 -75h320v-236z" />
    <glyph glyph-name="threequarters" unicode="&#xbe;" horiz-adv-x="2211" 
d="M516 -82l961 1700h309l-961 -1700h-309zM455 584q-88 0 -161 22.5t-117 56.5t-69.5 69t-31.5 65v112h219q5 -15 12.5 -30t24 -36.5t46 -34.5t68.5 -13q59 0 89 27.5t30 72.5q0 92 -135 92h-102v191h98q52 0 78 24.5t26 63.5q0 42 -27.5 65t-78.5 23q-32 0 -56 -11
t-36 -29t-17.5 -32t-7.5 -27h-217v115q4 21 18 44.5t43.5 50.5t69 48.5t99 35.5t129.5 14q155 0 254.5 -66.5t99.5 -189.5q0 -75 -36.5 -129t-102.5 -80q84 -20 129 -77t45 -144q0 -131 -104 -212t-279 -81zM2148 156h-127v-201h-268v201h-442v159l434 603h276v-564h127
v-198zM1753 354v244l-166 -244h166z" />
    <glyph glyph-name="questiondown" unicode="&#xbf;" horiz-adv-x="1097" 
d="M735 756q19 -49 19 -92q0 -53 -19 -98.5t-49.5 -77.5t-67 -62t-73 -59t-67 -61t-49.5 -75.5t-19 -95.5q0 -73 46 -118.5t122 -45.5q43 0 77.5 17t54.5 41t33.5 54t18 53t4.5 40h268v-153q-7 -35 -25 -75t-56.5 -88.5t-90 -86.5t-132.5 -64t-177 -26q-212 0 -347.5 114.5
t-135.5 302.5q0 76 20 140t52.5 108t71.5 80.5t78 66t71.5 57t52.5 60t20 68.5q0 33 -16 76h315zM737 1249v-329h-329v329h329z" />
    <glyph glyph-name="Agrave" unicode="&#xc0;" horiz-adv-x="1445" 
d="M299 0h-272v143l522 1393h346l520 -1372v-164h-295l-119 326h-585zM911 604l-200 565l-201 -565h401zM594 1649l-188 163v123h319l147 -163v-123h-278z" />
    <glyph glyph-name="Aacute" unicode="&#xc1;" horiz-adv-x="1445" 
d="M299 0h-272v143l522 1393h346l520 -1372v-164h-295l-119 326h-585zM911 604l-200 565l-201 -565h401zM571 1649v123l148 163h319v-123l-188 -163h-279z" />
    <glyph glyph-name="Acircumflex" unicode="&#xc2;" horiz-adv-x="1445" 
d="M299 0h-272v143l522 1393h346l520 -1372v-164h-295l-119 326h-585zM911 604l-200 565l-201 -565h401zM834 1638l-115 119l-115 -119h-237v123l188 164h328l188 -164v-123h-237z" />
    <glyph glyph-name="Atilde" unicode="&#xc3;" horiz-adv-x="1445" 
d="M299 0h-272v143l522 1393h346l520 -1372v-164h-295l-119 326h-585zM911 604l-200 565l-201 -565h401zM870 1622q-61 0 -133.5 30.5t-107.5 30.5q-60 0 -72 -51h-205q-8 126 50 203.5t167 77.5q62 0 130.5 -31t101.5 -31q59 0 69 52h205q8 -131 -42.5 -206t-162.5 -75z
" />
    <glyph glyph-name="Adieresis" unicode="&#xc4;" horiz-adv-x="1445" 
d="M299 0h-272v143l522 1393h346l520 -1372v-164h-295l-119 326h-585zM911 604l-200 565l-201 -565h401zM358 1638v277h308v-277h-308zM778 1638v277h309v-277h-309z" />
    <glyph glyph-name="Aring" unicode="&#xc5;" horiz-adv-x="1445" 
d="M299 0h-272v143l522 1393h346l520 -1372v-164h-295l-119 326h-585zM911 604l-200 565l-201 -565h401zM717 1608q-140 0 -211.5 51.5t-71.5 138.5q0 86 72 138.5t211 52.5q140 0 212 -52.5t72 -138.5q0 -87 -71.5 -138.5t-212.5 -51.5zM717 1743q34 0 58 15t24 40t-24 40
t-58 15t-58 -15t-24 -40t24 -40t58 -15z" />
    <glyph glyph-name="AE" unicode="&#xc6;" horiz-adv-x="2002" 
d="M14 154l781 1382h1106v-289h-625v-325h553v-267h-553v-366h625v-289h-965v315h-487l-177 -315h-258v154zM602 594h334v606z" />
    <glyph glyph-name="Ccedilla" unicode="&#xc7;" horiz-adv-x="1492" 
d="M1124 -252q0 -185 -254 -207h-174v164q140 0 140 74q0 71 -131 71v130q-290 41 -454.5 254t-164.5 534q0 238 93 419.5t264 280.5t395 99q117 0 215 -24t160.5 -59.5t109 -81t68.5 -83.5t30 -72v-155h-268q-5 26 -23.5 54.5t-52.5 60t-95.5 51.5t-139.5 20
q-191 0 -303.5 -136.5t-112.5 -371.5q0 -232 113 -371t303 -139q76 0 138.5 21.5t99 54.5t57 63t26.5 56h269v-156q-12 -45 -46 -93t-90 -96t-146 -85t-198 -50v-57q79 -12 125.5 -56.5t46.5 -113.5z" />
    <glyph glyph-name="Egrave" unicode="&#xc8;" horiz-adv-x="1234" 
d="M168 0v1536h965v-289h-625v-325h553v-267h-553v-366h625v-289h-965zM557 1649l-188 163v123h319l148 -163v-123h-279z" />
    <glyph glyph-name="Eacute" unicode="&#xc9;" horiz-adv-x="1234" 
d="M168 0v1536h965v-289h-625v-325h553v-267h-553v-366h625v-289h-965zM520 1649v123l148 163h319v-123l-188 -163h-279z" />
    <glyph glyph-name="Ecircumflex" unicode="&#xca;" horiz-adv-x="1234" 
d="M168 0v1536h965v-289h-625v-325h553v-267h-553v-366h625v-289h-965zM766 1638l-115 119l-114 -119h-238v123l188 164h328l189 -164v-123h-238z" />
    <glyph glyph-name="Edieresis" unicode="&#xcb;" horiz-adv-x="1234" 
d="M168 0v1536h965v-289h-625v-325h553v-267h-553v-366h625v-289h-965zM289 1638v277h307v-277h-307zM709 1638v277h309v-277h-309z" />
    <glyph glyph-name="Igrave" unicode="&#xcc;" horiz-adv-x="675" 
d="M168 0v1536h340v-1536h-340zM205 1649l-189 163v123h320l147 -163v-123h-278z" />
    <glyph glyph-name="Iacute" unicode="&#xcd;" horiz-adv-x="675" 
d="M168 0v1536h340v-1536h-340zM197 1649v123l147 163h320v-123l-189 -163h-278z" />
    <glyph glyph-name="Icircumflex" unicode="&#xce;" horiz-adv-x="675" 
d="M451 1638l-115 119l-115 -119h-237v123l188 164h328l188 -164v-123h-237zM168 0v1536h340v-1536h-340z" />
    <glyph glyph-name="Idieresis" unicode="&#xcf;" horiz-adv-x="675" 
d="M-27 1638v277h308v-277h-308zM393 1638v277h309v-277h-309zM168 0v1536h340v-1536h-340z" />
    <glyph glyph-name="Eth" unicode="&#xd0;" horiz-adv-x="1583" 
d="M1499 774q0 -160 -54 -301t-151 -246t-242.5 -166t-318.5 -61h-538v645h-164v258h164v633h538q230 0 406.5 -103.5t268 -275.5t91.5 -383zM535 289h192q130 0 227.5 66t146 175t48.5 244q0 131 -48.5 237.5t-146 171t-227.5 64.5h-192v-344h182v-258h-182v-356z" />
    <glyph glyph-name="Ntilde" unicode="&#xd1;" horiz-adv-x="1628" 
d="M168 0v1536h319l654 -977v977h319v-1536h-319l-654 961v-961h-319zM1004 1622q-61 0 -134 30.5t-108 30.5q-60 0 -72 -51h-205q-8 126 50 203.5t167 77.5q62 0 130.5 -31t101.5 -31q60 0 70 52h204q8 -131 -42 -206t-162 -75z" />
    <glyph glyph-name="Ograve" unicode="&#xd2;" horiz-adv-x="1691" 
d="M846 -31q-169 0 -311.5 59.5t-241.5 165.5t-154 255t-55 325q0 232 94.5 412t268.5 280.5t399 100.5t399 -100.5t268.5 -280.5t94.5 -412q0 -176 -55 -325t-154 -255t-241.5 -165.5t-311.5 -59.5zM846 258q192 0 307 142t115 374q0 226 -115 365t-307 139t-307 -139
t-115 -365q0 -232 115 -374t307 -142zM698 1649l-188 163v123h319l148 -163v-123h-279z" />
    <glyph glyph-name="Oacute" unicode="&#xd3;" horiz-adv-x="1691" 
d="M846 -31q-169 0 -311.5 59.5t-241.5 165.5t-154 255t-55 325q0 232 94.5 412t268.5 280.5t399 100.5t399 -100.5t268.5 -280.5t94.5 -412q0 -176 -55 -325t-154 -255t-241.5 -165.5t-311.5 -59.5zM846 258q192 0 307 142t115 374q0 226 -115 365t-307 139t-307 -139
t-115 -365q0 -232 115 -374t307 -142zM715 1649v123l147 163h320v-123l-189 -163h-278z" />
    <glyph glyph-name="Ocircumflex" unicode="&#xd4;" horiz-adv-x="1691" 
d="M846 -31q-169 0 -311.5 59.5t-241.5 165.5t-154 255t-55 325q0 232 94.5 412t268.5 280.5t399 100.5t399 -100.5t268.5 -280.5t94.5 -412q0 -176 -55 -325t-154 -255t-241.5 -165.5t-311.5 -59.5zM846 258q192 0 307 142t115 374q0 226 -115 365t-307 139t-307 -139
t-115 -365q0 -232 115 -374t307 -142zM961 1638l-115 119l-115 -119h-237v123l188 164h328l188 -164v-123h-237z" />
    <glyph glyph-name="Otilde" unicode="&#xd5;" horiz-adv-x="1691" 
d="M846 -31q-169 0 -311.5 59.5t-241.5 165.5t-154 255t-55 325q0 232 94.5 412t268.5 280.5t399 100.5t399 -100.5t268.5 -280.5t94.5 -412q0 -176 -55 -325t-154 -255t-241.5 -165.5t-311.5 -59.5zM846 258q192 0 307 142t115 374q0 226 -115 365t-307 139t-307 -139
t-115 -365q0 -232 115 -374t307 -142zM995 1622q-61 0 -133.5 30.5t-107.5 30.5q-60 0 -72 -51h-205q-8 126 50 203.5t167 77.5q62 0 130.5 -31t101.5 -31q59 0 69 52h205q8 -131 -42.5 -206t-162.5 -75z" />
    <glyph glyph-name="Odieresis" unicode="&#xd6;" horiz-adv-x="1691" 
d="M846 -31q-169 0 -311.5 59.5t-241.5 165.5t-154 255t-55 325q0 232 94.5 412t268.5 280.5t399 100.5t399 -100.5t268.5 -280.5t94.5 -412q0 -176 -55 -325t-154 -255t-241.5 -165.5t-311.5 -59.5zM846 258q192 0 307 142t115 374q0 226 -115 365t-307 139t-307 -139
t-115 -365q0 -232 115 -374t307 -142zM477 1638v277h307v-277h-307zM897 1638v277h309v-277h-309z" />
    <glyph glyph-name="multiply" unicode="&#xd7;" horiz-adv-x="1165" 
d="M901 129l-317 307l-320 -307l-178 190l307 299l-311 306l178 190l324 -313l321 313l180 -190l-313 -306l307 -299z" />
    <glyph glyph-name="Oslash" unicode="&#xd8;" horiz-adv-x="1691" 
d="M846 -31q-180 0 -332 70l-80 -121h-319l182 272q-102 109 -157.5 258t-55.5 326q0 232 94.5 412t268.5 280.5t399 100.5q183 0 332 -70l79 121h320l-182 -270q102 -107 157.5 -254t55.5 -320q0 -176 -55 -325t-154 -255t-241.5 -165.5t-311.5 -59.5zM414 774
q0 -173 75 -295l525 772q-73 37 -168 37q-197 0 -314.5 -142t-117.5 -372zM846 248q197 0 314.5 145t117.5 381q0 163 -72 285l-528 -776q75 -35 168 -35z" />
    <glyph glyph-name="Ugrave" unicode="&#xd9;" horiz-adv-x="1554" 
d="M784 -31q-142 0 -261.5 47t-200 127t-125.5 188.5t-45 231.5v973h340v-975q0 -130 78 -216.5t212 -86.5q140 0 220.5 86t80.5 217v975h320v-973q0 -122 -45 -231t-124.5 -189t-196 -127t-253.5 -47zM653 1649l-188 163v123h319l148 -163v-123h-279z" />
    <glyph glyph-name="Uacute" unicode="&#xda;" horiz-adv-x="1554" 
d="M784 -31q-142 0 -261.5 47t-200 127t-125.5 188.5t-45 231.5v973h340v-975q0 -130 78 -216.5t212 -86.5q140 0 220.5 86t80.5 217v975h320v-973q0 -122 -45 -231t-124.5 -189t-196 -127t-253.5 -47zM639 1649v123l147 163h320v-123l-188 -163h-279z" />
    <glyph glyph-name="Ucircumflex" unicode="&#xdb;" horiz-adv-x="1554" 
d="M784 -31q-142 0 -261.5 47t-200 127t-125.5 188.5t-45 231.5v973h340v-975q0 -130 78 -216.5t212 -86.5q140 0 220.5 86t80.5 217v975h320v-973q0 -122 -45 -231t-124.5 -189t-196 -127t-253.5 -47zM897 1638l-115 119l-114 -119h-238v123l188 164h328l189 -164v-123
h-238z" />
    <glyph glyph-name="Udieresis" unicode="&#xdc;" horiz-adv-x="1554" 
d="M784 -31q-142 0 -261.5 47t-200 127t-125.5 188.5t-45 231.5v973h340v-975q0 -130 78 -216.5t212 -86.5q140 0 220.5 86t80.5 217v975h320v-973q0 -122 -45 -231t-124.5 -189t-196 -127t-253.5 -47zM420 1638v277h307v-277h-307zM840 1638v277h309v-277h-309z" />
    <glyph glyph-name="Yacute" unicode="&#xdd;" horiz-adv-x="1355" 
d="M510 0v614l-496 762v160h299l389 -623l365 623h266v-154l-483 -770v-612h-340zM539 1649v123l147 163h320v-123l-189 -163h-278z" />
    <glyph glyph-name="Thorn" unicode="&#xde;" horiz-adv-x="1323" 
d="M168 0v1536h340v-174q374 -6 566 -163t192 -429q0 -271 -192 -426.5t-566 -161.5v-182h-340zM498 459q223 6 325.5 84t102.5 227q0 151 -102 229t-326 84v-624z" />
    <glyph glyph-name="germandbls" unicode="&#xdf;" horiz-adv-x="1263" 
d="M750 -31q-45 0 -86 6.5t-72 15t-35 9.5v252q5 -1 22.5 -6t32 -8.5t38 -7t46.5 -3.5q89 0 133.5 51t44.5 134q0 108 -74 165t-227 64v246q104 13 161 79t57 160q0 77 -44 124.5t-133 47.5q-87 0 -130.5 -57t-43.5 -158v-1083h-309v1081q0 223 131 349t361 126
q222 0 354.5 -108.5t132.5 -306.5q0 -108 -59.5 -201.5t-161.5 -144.5q140 -37 221.5 -140t81.5 -245q0 -86 -24.5 -162t-75 -140t-138.5 -101.5t-204 -37.5z" />
    <glyph glyph-name="agrave" unicode="&#xe0;" horiz-adv-x="1128" 
d="M403 -31q-163 0 -251.5 91.5t-88.5 230.5q0 152 112 236.5t333 84.5q47 0 95 -5t73 -10l24 -5v45q0 172 -170 172q-37 0 -69 -9.5t-51 -23.5t-32.5 -28t-18.5 -24l-5 -9h-233v137q4 9 11.5 23t40.5 51t75.5 65t119.5 51t169 23q473 0 473 -438v-627h-279l-20 131
q-98 -162 -308 -162zM504 207q92 0 144 52.5t52 115.5v45q-72 16 -172 16q-159 0 -159 -117q0 -112 135 -112zM473 1229l-199 184v123h293l158 -184v-123h-252z" />
    <glyph glyph-name="aacute" unicode="&#xe1;" horiz-adv-x="1128" 
d="M403 -31q-163 0 -251.5 91.5t-88.5 230.5q0 152 112 236.5t333 84.5q47 0 95 -5t73 -10l24 -5v45q0 172 -170 172q-37 0 -69 -9.5t-51 -23.5t-32.5 -28t-18.5 -24l-5 -9h-233v137q4 9 11.5 23t40.5 51t75.5 65t119.5 51t169 23q473 0 473 -438v-627h-279l-20 131
q-98 -162 -308 -162zM504 207q92 0 144 52.5t52 115.5v45q-72 16 -172 16q-159 0 -159 -117q0 -112 135 -112zM442 1229v123l158 184h295v-123l-201 -184h-252z" />
    <glyph glyph-name="acircumflex" unicode="&#xe2;" horiz-adv-x="1128" 
d="M403 -31q-163 0 -251.5 91.5t-88.5 230.5q0 152 112 236.5t333 84.5q47 0 95 -5t73 -10l24 -5v45q0 172 -170 172q-37 0 -69 -9.5t-51 -23.5t-32.5 -28t-18.5 -24l-5 -9h-233v137q4 9 11.5 23t40.5 51t75.5 65t119.5 51t169 23q473 0 473 -438v-627h-279l-20 131
q-98 -162 -308 -162zM504 207q92 0 144 52.5t52 115.5v45q-72 16 -172 16q-159 0 -159 -117q0 -112 135 -112zM698 1229l-125 149l-124 -149h-218v123l189 184h307l188 -184v-123h-217z" />
    <glyph glyph-name="atilde" unicode="&#xe3;" horiz-adv-x="1128" 
d="M403 -31q-163 0 -251.5 91.5t-88.5 230.5q0 152 112 236.5t333 84.5q47 0 95 -5t73 -10l24 -5v45q0 172 -170 172q-37 0 -69 -9.5t-51 -23.5t-32.5 -28t-18.5 -24l-5 -9h-233v137q4 9 11.5 23t40.5 51t75.5 65t119.5 51t169 23q473 0 473 -438v-627h-279l-20 131
q-98 -162 -308 -162zM504 207q92 0 144 52.5t52 115.5v45q-72 16 -172 16q-159 0 -159 -117q0 -112 135 -112zM739 1227q-43 0 -81 11t-60 24.5t-51.5 24.5t-59.5 11q-55 0 -71 -61h-195q-8 126 50 203.5t167 77.5q57 0 98.5 -17.5t75 -35t68.5 -17.5q60 0 70 59h194
q8 -130 -42.5 -205t-162.5 -75z" />
    <glyph glyph-name="adieresis" unicode="&#xe4;" horiz-adv-x="1128" 
d="M403 -31q-163 0 -251.5 91.5t-88.5 230.5q0 152 112 236.5t333 84.5q47 0 95 -5t73 -10l24 -5v45q0 172 -170 172q-37 0 -69 -9.5t-51 -23.5t-32.5 -28t-18.5 -24l-5 -9h-233v137q4 9 11.5 23t40.5 51t75.5 65t119.5 51t169 23q473 0 473 -438v-627h-279l-20 131
q-98 -162 -308 -162zM504 207q92 0 144 52.5t52 115.5v45q-72 16 -172 16q-159 0 -159 -117q0 -112 135 -112zM215 1229v287h297v-287h-297zM635 1229v287h299v-287h-299z" />
    <glyph glyph-name="aring" unicode="&#xe5;" horiz-adv-x="1128" 
d="M403 -31q-163 0 -251.5 91.5t-88.5 230.5q0 152 112 236.5t333 84.5q47 0 95 -5t73 -10l24 -5v45q0 172 -170 172q-37 0 -69 -9.5t-51 -23.5t-32.5 -28t-18.5 -24l-5 -9h-233v137q4 9 11.5 23t40.5 51t75.5 65t119.5 51t169 23q473 0 473 -438v-627h-279l-20 131
q-98 -162 -308 -162zM504 207q92 0 144 52.5t52 115.5v45q-72 16 -172 16q-159 0 -159 -117q0 -112 135 -112zM580 1163q-134 0 -203.5 54.5t-69.5 142.5q0 86 69.5 141t203.5 55t204 -55t70 -141q0 -88 -70 -142.5t-204 -54.5zM580 1298q30 0 50.5 17t20.5 45t-20.5 44.5
t-50.5 16.5q-29 0 -50.5 -16.5t-21.5 -44.5t21.5 -45t50.5 -17z" />
    <glyph glyph-name="ae" unicode="&#xe6;" horiz-adv-x="1837" 
d="M1274 -31q-268 0 -402 174q-129 -174 -409 -174q-186 0 -294 90t-108 232q0 153 115 240t346 87q49 0 98.5 -5t73.5 -10l25 -5v39q0 83 -50.5 127.5t-138.5 44.5q-38 0 -70 -9.5t-51 -23.5t-33 -28t-19 -24l-5 -9h-231v137q4 9 11.5 23t40.5 51t75 65t119 51t168 23
q250 0 372 -150q140 150 361 150q126 0 222 -37t155 -103.5t88.5 -153.5t29.5 -193q0 -32 -3.5 -65t-7.5 -50l-3 -17h-721q12 -107 76 -168t174 -61q52 0 93.5 9.5t64.5 23.5t39 28t21 24l5 9h242v-137q-4 -8 -13 -22t-46 -49.5t-85 -62.5t-135 -49t-190 -22zM1032 633h434
q0 79 -54 132.5t-155 53.5q-179 0 -225 -186zM512 197q95 0 151 53t56 125v28q-72 17 -176 17q-95 0 -135.5 -32.5t-40.5 -80.5q0 -55 38.5 -82.5t106.5 -27.5z" />
    <glyph glyph-name="ccedilla" unicode="&#xe7;" horiz-adv-x="1116" 
d="M903 -252q0 -185 -254 -207h-174v164q139 0 139 74q0 71 -131 71v132q-198 37 -303.5 182.5t-105.5 349.5q0 153 63 277.5t187.5 200t289.5 75.5q71 0 133 -13.5t104 -34.5t76.5 -47t54 -52t33 -47t18.5 -35l5 -13v-137h-231q-1 5 -4 12t-17.5 26.5t-33.5 34t-56 26.5
t-82 12q-113 0 -172 -80.5t-59 -204.5q0 -122 59 -199t172 -77q48 0 85.5 11.5t57 27.5t32.5 32t17 27l3 12h231v-137q-2 -8 -8 -20.5t-30 -47t-55 -63.5t-89 -58t-127 -42v-62q79 -12 125.5 -56.5t46.5 -113.5z" />
    <glyph glyph-name="egrave" unicode="&#xe8;" horiz-adv-x="1193" 
d="M631 -31q-136 0 -243.5 41.5t-175.5 116t-103 172.5t-35 215q0 114 36.5 214t104.5 175t172 118.5t231 43.5q128 0 225.5 -37t157 -103.5t89.5 -153.5t30 -193q0 -32 -3.5 -65t-6.5 -50l-4 -17h-721q14 -108 77.5 -168.5t174.5 -60.5q52 0 93.5 9.5t64 23.5t38 28
t20.5 24l5 9h242v-137q-4 -8 -13 -22t-46 -49.5t-85 -62.5t-135 -49t-190 -22zM391 633h432q0 79 -54 132.5t-153 53.5q-182 0 -225 -186zM471 1229l-199 184v123h293l158 -184v-123h-252z" />
    <glyph glyph-name="eacute" unicode="&#xe9;" horiz-adv-x="1193" 
d="M631 -31q-136 0 -243.5 41.5t-175.5 116t-103 172.5t-35 215q0 114 36.5 214t104.5 175t172 118.5t231 43.5q128 0 225.5 -37t157 -103.5t89.5 -153.5t30 -193q0 -32 -3.5 -65t-6.5 -50l-4 -17h-721q14 -108 77.5 -168.5t174.5 -60.5q52 0 93.5 9.5t64 23.5t38 28
t20.5 24l5 9h242v-137q-4 -8 -13 -22t-46 -49.5t-85 -62.5t-135 -49t-190 -22zM391 633h432q0 79 -54 132.5t-153 53.5q-182 0 -225 -186zM477 1229v123l158 184h295v-123l-201 -184h-252z" />
    <glyph glyph-name="ecircumflex" unicode="&#xea;" horiz-adv-x="1193" 
d="M631 -31q-136 0 -243.5 41.5t-175.5 116t-103 172.5t-35 215q0 114 36.5 214t104.5 175t172 118.5t231 43.5q128 0 225.5 -37t157 -103.5t89.5 -153.5t30 -193q0 -32 -3.5 -65t-6.5 -50l-4 -17h-721q14 -108 77.5 -168.5t174.5 -60.5q52 0 93.5 9.5t64 23.5t38 28
t20.5 24l5 9h242v-137q-4 -8 -13 -22t-46 -49.5t-85 -62.5t-135 -49t-190 -22zM391 633h432q0 79 -54 132.5t-153 53.5q-182 0 -225 -186zM743 1229l-125 149l-124 -149h-218v123l189 184h307l189 -184v-123h-218z" />
    <glyph glyph-name="edieresis" unicode="&#xeb;" horiz-adv-x="1193" 
d="M631 -31q-136 0 -243.5 41.5t-175.5 116t-103 172.5t-35 215q0 114 36.5 214t104.5 175t172 118.5t231 43.5q128 0 225.5 -37t157 -103.5t89.5 -153.5t30 -193q0 -32 -3.5 -65t-6.5 -50l-4 -17h-721q14 -108 77.5 -168.5t174.5 -60.5q52 0 93.5 9.5t64 23.5t38 28
t20.5 24l5 9h242v-137q-4 -8 -13 -22t-46 -49.5t-85 -62.5t-135 -49t-190 -22zM391 633h432q0 79 -54 132.5t-153 53.5q-182 0 -225 -186zM258 1229v287h297v-287h-297zM678 1229v287h299v-287h-299z" />
    <glyph glyph-name="igrave" unicode="&#xec;" horiz-adv-x="567" 
d="M129 0v1034h307v-1034h-307zM182 1229l-198 184v123h292l158 -184v-123h-252z" />
    <glyph glyph-name="iacute" unicode="&#xed;" horiz-adv-x="567" 
d="M131 0v1034h307v-1034h-307zM131 1229v123l158 184h295v-123l-201 -184h-252z" />
    <glyph glyph-name="icircumflex" unicode="&#xee;" horiz-adv-x="565" 
d="M129 0v1034h307v-1034h-307zM408 1229l-125 149l-125 -149h-217v123l188 184h307l189 -184v-123h-217z" />
    <glyph glyph-name="idieresis" unicode="&#xef;" horiz-adv-x="565" 
d="M129 0v1034h307v-1034h-307zM-78 1229v287h297v-287h-297zM342 1229v287h299v-287h-299z" />
    <glyph glyph-name="eth" unicode="&#xf0;" horiz-adv-x="1255" 
d="M621 -31q-127 0 -231 41t-172.5 113t-106 168.5t-37.5 208.5q0 227 133.5 375.5t355.5 148.5q152 0 248 -74q-54 122 -156 224l-317 -132v195l149 61q-119 70 -245 99v139h233q152 -39 285 -125l289 119v-195l-129 -55q245 -257 245 -670q0 -306 -142 -473.5t-402 -167.5
zM621 238q116 0 176.5 75t60.5 191q0 112 -60.5 182t-176.5 70q-118 0 -178 -70.5t-60 -185.5q0 -119 60 -190.5t178 -71.5z" />
    <glyph glyph-name="ntilde" unicode="&#xf1;" horiz-adv-x="1234" 
d="M131 0v1034h289l14 -137q40 69 119 118.5t190 49.5q80 0 143.5 -22.5t105.5 -61t70 -93t40 -115t12 -130.5v-643h-307v586q0 202 -170 202q-54 0 -93.5 -17.5t-61.5 -48t-32 -65.5t-10 -75v-582h-309zM766 1227q-43 0 -81 11t-60 24.5t-51.5 24.5t-59.5 11q-56 0 -72 -61
h-194q-8 126 50 203.5t167 77.5q57 0 98.5 -17.5t75 -35t68.5 -17.5q59 0 69 59h195q8 -130 -42.5 -205t-162.5 -75z" />
    <glyph glyph-name="ograve" unicode="&#xf2;" horiz-adv-x="1241" 
d="M621 -31q-167 0 -293 75t-190 199t-64 277q0 152 64 274.5t190 196.5t293 74q166 0 292 -74t190 -196.5t64 -274.5q0 -153 -64 -277t-190 -199t-292 -75zM621 238q116 0 176.5 79t60.5 203q0 121 -60.5 199t-176.5 78t-177 -78t-61 -199q0 -124 61 -203t177 -79z
M496 1229l-199 184v123h293l158 -184v-123h-252z" />
    <glyph glyph-name="oacute" unicode="&#xf3;" horiz-adv-x="1241" 
d="M473 1229v123l158 184h295v-123l-201 -184h-252zM621 -31q-167 0 -293 75t-190 199t-64 277q0 152 64 274.5t190 196.5t293 74q166 0 292 -74t190 -196.5t64 -274.5q0 -153 -64 -277t-190 -199t-292 -75zM621 238q116 0 176.5 79t60.5 203q0 121 -60.5 199t-176.5 78
t-177 -78t-61 -199q0 -124 61 -203t177 -79z" />
    <glyph glyph-name="ocircumflex" unicode="&#xf4;" horiz-adv-x="1241" 
d="M733 1229l-125 149l-125 -149h-217v123l189 184h307l188 -184v-123h-217zM621 -31q-167 0 -293 75t-190 199t-64 277q0 152 64 274.5t190 196.5t293 74q166 0 292 -74t190 -196.5t64 -274.5q0 -153 -64 -277t-190 -199t-292 -75zM621 238q116 0 176.5 79t60.5 203
q0 121 -60.5 199t-176.5 78t-177 -78t-61 -199q0 -124 61 -203t177 -79z" />
    <glyph glyph-name="otilde" unicode="&#xf5;" horiz-adv-x="1241" 
d="M776 1227q-43 0 -81 11t-60 24.5t-51.5 24.5t-59.5 11q-55 0 -71 -61h-195q-8 126 50 203.5t167 77.5q57 0 98.5 -17.5t75 -35t68.5 -17.5q59 0 69 59h195q8 -130 -42.5 -205t-162.5 -75zM621 -31q-167 0 -293 75t-190 199t-64 277q0 152 64 274.5t190 196.5t293 74
q166 0 292 -74t190 -196.5t64 -274.5q0 -153 -64 -277t-190 -199t-292 -75zM621 238q116 0 176.5 79t60.5 203q0 121 -60.5 199t-176.5 78t-177 -78t-61 -199q0 -124 61 -203t177 -79z" />
    <glyph glyph-name="odieresis" unicode="&#xf6;" horiz-adv-x="1241" 
d="M264 1229v287h297v-287h-297zM684 1229v287h299v-287h-299zM621 -31q-167 0 -293 75t-190 199t-64 277q0 152 64 274.5t190 196.5t293 74q166 0 292 -74t190 -196.5t64 -274.5q0 -153 -64 -277t-190 -199t-292 -75zM621 238q116 0 176.5 79t60.5 203q0 121 -60.5 199
t-176.5 78t-177 -78t-61 -199q0 -124 61 -203t177 -79z" />
    <glyph glyph-name="divide" unicode="&#xf7;" horiz-adv-x="1181" 
d="M426 950v330h330v-330h-330zM84 549v252h1014v-252h-1014zM426 70v329h330v-329h-330z" />
    <glyph glyph-name="oslash" unicode="&#xf8;" horiz-adv-x="1241" 
d="M621 -31q-127 0 -228 43l-90 -133h-225l158 234q-162 159 -162 407q0 152 64 274.5t190 196.5t293 74q128 0 229 -43l84 125h225l-151 -225q77 -75 118 -178.5t41 -223.5q0 -153 -64 -277t-190 -199t-292 -75zM371 522q0 -104 32 -157l293 430q-35 12 -75 12
q-119 0 -184.5 -81.5t-65.5 -203.5zM621 221q118 0 183.5 86t65.5 215q0 90 -32 144l-295 -433q35 -12 78 -12z" />
    <glyph glyph-name="ugrave" unicode="&#xf9;" horiz-adv-x="1226" 
d="M494 -31q-99 0 -173 33.5t-116.5 93.5t-63 133.5t-20.5 161.5v643h309v-585q0 -203 164 -203q100 0 146 60.5t46 146.5v581h310v-1034h-289l-14 137q-40 -69 -116 -118.5t-183 -49.5zM477 1229l-198 184v123h292l158 -184v-123h-252z" />
    <glyph glyph-name="uacute" unicode="&#xfa;" horiz-adv-x="1226" 
d="M494 -31q-99 0 -173 33.5t-116.5 93.5t-63 133.5t-20.5 161.5v643h309v-585q0 -203 164 -203q100 0 146 60.5t46 146.5v581h310v-1034h-289l-14 137q-40 -69 -116 -118.5t-183 -49.5zM475 1229v123l158 184h295v-123l-201 -184h-252z" />
    <glyph glyph-name="ucircumflex" unicode="&#xfb;" horiz-adv-x="1226" 
d="M729 1229l-125 149l-125 -149h-217v123l189 184h307l188 -184v-123h-217zM494 -31q-99 0 -173 33.5t-116.5 93.5t-63 133.5t-20.5 161.5v643h309v-585q0 -203 164 -203q100 0 146 60.5t46 146.5v581h310v-1034h-289l-14 137q-40 -69 -116 -118.5t-183 -49.5z" />
    <glyph glyph-name="udieresis" unicode="&#xfc;" horiz-adv-x="1226" 
d="M248 1229v287h297v-287h-297zM668 1229v287h299v-287h-299zM494 -31q-99 0 -173 33.5t-116.5 93.5t-63 133.5t-20.5 161.5v643h309v-585q0 -203 164 -203q100 0 146 60.5t46 146.5v581h310v-1034h-289l-14 137q-40 -69 -116 -118.5t-183 -49.5z" />
    <glyph glyph-name="yacute" unicode="&#xfd;" horiz-adv-x="1138" 
d="M463 1229v123l158 184h294v-123l-200 -184h-252zM418 -512h-262v143l258 463l-373 797v143h278l265 -606l274 606h256v-137z" />
    <glyph glyph-name="thorn" unicode="&#xfe;" horiz-adv-x="1314" 
d="M131 -512v2048h309l-4 -649q52 83 141 130.5t201 47.5q142 0 248.5 -74t159.5 -196.5t53 -274.5q0 -155 -55.5 -279.5t-161.5 -198t-244 -73.5q-110 0 -196.5 44.5t-141.5 125.5v-651h-309zM684 248q118 0 182 76t64 196q0 117 -64.5 191.5t-181.5 74.5
q-109 0 -176.5 -75.5t-67.5 -190.5q0 -117 67.5 -194.5t176.5 -77.5z" />
    <glyph glyph-name="ydieresis" unicode="&#xff;" horiz-adv-x="1138" 
d="M225 1229v287h297v-287h-297zM645 1229v287h299v-287h-299zM418 -512h-262v143l258 463l-373 797v143h278l265 -606l274 606h256v-137z" />
    <glyph glyph-name="Amacron" unicode="&#x100;" horiz-adv-x="1445" 
d="M299 0h-272v143l522 1393h346l520 -1372v-164h-295l-119 326h-585zM911 604l-200 565l-201 -565h401zM408 1649v225h626v-225h-626z" />
    <glyph glyph-name="amacron" unicode="&#x101;" horiz-adv-x="1128" 
d="M403 -31q-163 0 -251.5 91.5t-88.5 230.5q0 152 112 236.5t333 84.5q47 0 95 -5t73 -10l24 -5v45q0 172 -170 172q-37 0 -69 -9.5t-51 -23.5t-32.5 -28t-18.5 -24l-5 -9h-233v137q4 9 11.5 23t40.5 51t75.5 65t119.5 51t169 23q473 0 473 -438v-627h-279l-20 131
q-98 -162 -308 -162zM504 207q92 0 144 52.5t52 115.5v45q-72 16 -172 16q-159 0 -159 -117q0 -112 135 -112zM291 1249v238h586v-238h-586z" />
    <glyph glyph-name="Abreve" unicode="&#x102;" horiz-adv-x="1445" 
d="M299 0h-272v143l522 1393h346l520 -1372v-164h-295l-119 326h-585zM911 604l-200 565l-201 -565h401zM719 1618q-74 0 -133.5 14.5t-91.5 35t-53.5 40.5t-28.5 34l-6 15v154h163q1 -3 3.5 -9t13.5 -21t26 -26t43.5 -20.5t63.5 -9.5q36 0 63.5 9t41.5 21.5t23 25t11 21.5
l2 9h164v-154q-2 -6 -6.5 -15t-26.5 -33t-52.5 -42.5t-89 -33.5t-130.5 -15z" />
    <glyph glyph-name="abreve" unicode="&#x103;" horiz-adv-x="1128" 
d="M403 -31q-163 0 -251.5 91.5t-88.5 230.5q0 152 112 236.5t333 84.5q47 0 95 -5t73 -10l24 -5v45q0 172 -170 172q-37 0 -69 -9.5t-51 -23.5t-32.5 -28t-18.5 -24l-5 -9h-233v137q4 9 11.5 23t40.5 51t75.5 65t119.5 51t169 23q473 0 473 -438v-627h-279l-20 131
q-98 -162 -308 -162zM504 207q92 0 144 52.5t52 115.5v45q-72 16 -172 16q-159 0 -159 -117q0 -112 135 -112zM555 1204q-71 0 -129 15t-90.5 37t-55 44t-30.5 37l-8 15v153h164q1 -3 4 -9t15 -21t27.5 -26t43 -20.5t59.5 -9.5q33 0 59.5 9t41 21.5t24.5 25t13 21.5l3 9h164
v-153q-2 -6 -7.5 -16t-28.5 -35.5t-54 -45t-88.5 -35.5t-126.5 -16z" />
    <glyph glyph-name="Aogonek" unicode="&#x104;" horiz-adv-x="1445" 
d="M1026 -186q0 72 47 123t125 63h-78l-119 326h-585l-117 -326h-272v143l522 1393h346l520 -1372v-164q-32 -6 -54.5 -15t-42.5 -34t-20 -62q0 -34 16 -57t41.5 -33t47.5 -14t45 -4v-174h-164q-46 3 -86 13.5t-81.5 32.5t-66 63t-24.5 98zM911 604l-200 565l-201 -565h401z
" />
    <glyph glyph-name="aogonek" unicode="&#x105;" horiz-adv-x="1128" 
d="M621 -186q0 72 47 123t125 63h-62l-20 131q-98 -162 -308 -162q-163 0 -251.5 91.5t-88.5 230.5q0 152 112 236.5t333 84.5q47 0 95 -5t73 -10l24 -5v45q0 172 -170 172q-37 0 -69 -9.5t-51 -23.5t-32.5 -28t-18.5 -24l-5 -9h-233v137q4 9 11.5 23t40.5 51t75.5 65
t119.5 51t169 23q473 0 473 -438v-627q-32 -6 -54.5 -15t-42.5 -34t-20 -62q0 -34 15.5 -57t41.5 -33t47.5 -14t44.5 -4v-174h-163q-46 3 -86 13.5t-81.5 32.5t-66 63t-24.5 98zM504 207q92 0 144 52.5t52 115.5v45q-72 16 -172 16q-159 0 -159 -117q0 -112 135 -112z" />
    <glyph glyph-name="Cacute" unicode="&#x106;" horiz-adv-x="1492" 
d="M838 -31q-231 0 -402.5 101.5t-260.5 281.5t-89 416q0 238 93 419.5t264 280.5t395 99q117 0 215 -24t160.5 -59.5t109 -81t68.5 -83.5t30 -72v-155h-268q-5 26 -23.5 54.5t-52.5 60t-95.5 51.5t-139.5 20q-191 0 -303.5 -136.5t-112.5 -371.5q0 -232 113 -371t303 -139
q76 0 138.5 21.5t99 54.5t57 63t26.5 56h269v-156q-11 -39 -37.5 -81.5t-76.5 -87.5t-115 -80.5t-160.5 -58t-204.5 -22.5zM698 1649v123l148 163h319v-123l-188 -163h-279z" />
    <glyph glyph-name="cacute" unicode="&#x107;" horiz-adv-x="1116" 
d="M614 -31q-132 0 -236.5 43t-170 118t-99.5 172.5t-34 211.5q0 153 63 277.5t187.5 200t289.5 75.5q71 0 133 -13.5t104 -34.5t76.5 -47t54 -52t33 -47t18.5 -35l5 -13v-137h-231q-1 5 -4 12t-17.5 26.5t-33.5 34t-56 26.5t-82 12q-113 0 -172 -80.5t-59 -204.5
q0 -122 59 -199t172 -77q48 0 85.5 11.5t57 27.5t32.5 32t17 27l3 12h231v-137q-2 -5 -5.5 -13.5t-18.5 -34t-34.5 -48t-54.5 -50.5t-77 -48t-103.5 -34t-132.5 -14zM461 1229v123l157 184h295v-123l-200 -184h-252z" />
    <glyph glyph-name="Ccircumflex" unicode="&#x108;" horiz-adv-x="1492" 
d="M838 -31q-231 0 -402.5 101.5t-260.5 281.5t-89 416q0 238 93 419.5t264 280.5t395 99q117 0 215 -24t160.5 -59.5t109 -81t68.5 -83.5t30 -72v-155h-268q-5 26 -23.5 54.5t-52.5 60t-95.5 51.5t-139.5 20q-191 0 -303.5 -136.5t-112.5 -371.5q0 -232 113 -371t303 -139
q76 0 138.5 21.5t99 54.5t57 63t26.5 56h269v-156q-11 -39 -37.5 -81.5t-76.5 -87.5t-115 -80.5t-160.5 -58t-204.5 -22.5zM944 1638l-115 119l-114 -119h-238v123l189 164h327l189 -164v-123h-238z" />
    <glyph glyph-name="ccircumflex" unicode="&#x109;" horiz-adv-x="1116" 
d="M614 -31q-132 0 -236.5 43t-170 118t-99.5 172.5t-34 211.5q0 153 63 277.5t187.5 200t289.5 75.5q71 0 133 -13.5t104 -34.5t76.5 -47t54 -52t33 -47t18.5 -35l5 -13v-137h-231q-1 5 -4 12t-17.5 26.5t-33.5 34t-56 26.5t-82 12q-113 0 -172 -80.5t-59 -204.5
q0 -122 59 -199t172 -77q48 0 85.5 11.5t57 27.5t32.5 32t17 27l3 12h231v-137q-2 -5 -5.5 -13.5t-18.5 -34t-34.5 -48t-54.5 -50.5t-77 -48t-103.5 -34t-132.5 -14zM727 1229l-125 149l-125 -149h-217v123l189 184h307l188 -184v-123h-217z" />
    <glyph glyph-name="Cdotaccent" unicode="&#x10a;" horiz-adv-x="1492" 
d="M838 -31q-231 0 -402.5 101.5t-260.5 281.5t-89 416q0 238 93 419.5t264 280.5t395 99q117 0 215 -24t160.5 -59.5t109 -81t68.5 -83.5t30 -72v-155h-268q-5 26 -23.5 54.5t-52.5 60t-95.5 51.5t-139.5 20q-191 0 -303.5 -136.5t-112.5 -371.5q0 -232 113 -371t303 -139
q76 0 138.5 21.5t99 54.5t57 63t26.5 56h269v-156q-11 -39 -37.5 -81.5t-76.5 -87.5t-115 -80.5t-160.5 -58t-204.5 -22.5zM664 1659v276h340v-276h-340z" />
    <glyph glyph-name="cdotaccent" unicode="&#x10b;" horiz-adv-x="1116" 
d="M614 -31q-132 0 -236.5 43t-170 118t-99.5 172.5t-34 211.5q0 153 63 277.5t187.5 200t289.5 75.5q71 0 133 -13.5t104 -34.5t76.5 -47t54 -52t33 -47t18.5 -35l5 -13v-137h-231q-1 5 -4 12t-17.5 26.5t-33.5 34t-56 26.5t-82 12q-113 0 -172 -80.5t-59 -204.5
q0 -122 59 -199t172 -77q48 0 85.5 11.5t57 27.5t32.5 32t17 27l3 12h231v-137q-2 -5 -5.5 -13.5t-18.5 -34t-34.5 -48t-54.5 -50.5t-77 -48t-103.5 -34t-132.5 -14zM438 1229v287h320v-287h-320z" />
    <glyph glyph-name="Ccaron" unicode="&#x10c;" horiz-adv-x="1492" 
d="M838 -31q-231 0 -402.5 101.5t-260.5 281.5t-89 416q0 238 93 419.5t264 280.5t395 99q117 0 215 -24t160.5 -59.5t109 -81t68.5 -83.5t30 -72v-155h-268q-5 26 -23.5 54.5t-52.5 60t-95.5 51.5t-139.5 20q-191 0 -303.5 -136.5t-112.5 -371.5q0 -232 113 -371t303 -139
q76 0 138.5 21.5t99 54.5t57 63t26.5 56h269v-156q-11 -39 -37.5 -81.5t-76.5 -87.5t-115 -80.5t-160.5 -58t-204.5 -22.5zM991 1638h-327l-193 164v123h238l118 -119l111 119h238v-123z" />
    <glyph glyph-name="ccaron" unicode="&#x10d;" horiz-adv-x="1116" 
d="M614 -31q-132 0 -236.5 43t-170 118t-99.5 172.5t-34 211.5q0 153 63 277.5t187.5 200t289.5 75.5q71 0 133 -13.5t104 -34.5t76.5 -47t54 -52t33 -47t18.5 -35l5 -13v-137h-231q-1 5 -4 12t-17.5 26.5t-33.5 34t-56 26.5t-82 12q-113 0 -172 -80.5t-59 -204.5
q0 -122 59 -199t172 -77q48 0 85.5 11.5t57 27.5t32.5 32t17 27l3 12h231v-137q-2 -5 -5.5 -13.5t-18.5 -34t-34.5 -48t-54.5 -50.5t-77 -48t-103.5 -34t-132.5 -14zM752 1229h-308l-192 184v123h217l129 -150l121 150h217v-123z" />
    <glyph glyph-name="Dcaron" unicode="&#x10e;" horiz-adv-x="1556" 
d="M168 0v1536h539q230 0 406.5 -103.5t268 -275.5t91.5 -383q0 -160 -54 -301t-151 -246t-242.5 -166t-318.5 -61h-539zM508 289h192q130 0 227.5 66t146 175t48.5 244q0 131 -48.5 237.5t-146 171t-227.5 64.5h-192v-958zM877 1638h-328l-193 164v123h238l119 -119
l110 119h238v-123z" />
    <glyph glyph-name="dcaron" unicode="&#x10f;" horiz-adv-x="1337" 
d="M537 -31q-141 0 -247.5 74.5t-160 197.5t-53.5 275q0 154 56.5 278.5t164 197.5t246.5 73q215 0 334 -170v641h307v-1536h-287l-18 147q-52 -83 -141 -130.5t-201 -47.5zM631 248q109 0 177.5 76.5t68.5 193.5q0 115 -68.5 191.5t-177.5 76.5q-116 0 -181 -76t-65 -194
q0 -117 65 -192.5t181 -75.5zM1286 1145l-10 391h299v-184l-92 -207h-197z" />
    <glyph glyph-name="Dcroat" unicode="&#x110;" horiz-adv-x="1583" 
d="M1499 774q0 -160 -54 -301t-151 -246t-242.5 -166t-318.5 -61h-538v645h-164v258h164v633h538q230 0 406.5 -103.5t268 -275.5t91.5 -383zM535 289h192q130 0 227.5 66t146 175t48.5 244q0 131 -48.5 237.5t-146 171t-227.5 64.5h-192v-344h182v-258h-182v-356z" />
    <glyph glyph-name="dcroat" unicode="&#x111;" horiz-adv-x="1312" 
d="M879 147q-52 -83 -141 -130.5t-201 -47.5q-141 0 -247.5 74.5t-160 197.5t-53.5 275q0 154 56.5 278.5t164 197.5t246.5 73q215 0 334 -170v272h-269v222h269v147h307v-147h149v-222h-149v-1167h-287zM631 248q109 0 177.5 76.5t68.5 193.5q0 115 -68.5 191.5
t-177.5 76.5q-116 0 -181 -76t-65 -194q0 -117 65 -192.5t181 -75.5z" />
    <glyph glyph-name="Emacron" unicode="&#x112;" horiz-adv-x="1234" 
d="M168 0v1536h965v-289h-625v-325h553v-267h-553v-366h625v-289h-965zM344 1649v225h627v-225h-627z" />
    <glyph glyph-name="emacron" unicode="&#x113;" horiz-adv-x="1193" 
d="M631 -31q-136 0 -243.5 41.5t-175.5 116t-103 172.5t-35 215q0 114 36.5 214t104.5 175t172 118.5t231 43.5q128 0 225.5 -37t157 -103.5t89.5 -153.5t30 -193q0 -32 -3.5 -65t-6.5 -50l-4 -17h-721q14 -108 77.5 -168.5t174.5 -60.5q52 0 93.5 9.5t64 23.5t38 28
t20.5 24l5 9h242v-137q-4 -8 -13 -22t-46 -49.5t-85 -62.5t-135 -49t-190 -22zM391 633h432q0 79 -54 132.5t-153 53.5q-182 0 -225 -186zM322 1249v238h585v-238h-585z" />
    <glyph glyph-name="Ebreve" unicode="&#x114;" horiz-adv-x="1234" 
d="M168 0v1536h965v-289h-625v-325h553v-267h-553v-366h625v-289h-965zM653 1618q-74 0 -133.5 14.5t-91.5 35t-53.5 40.5t-28.5 34l-6 15v154h164q1 -3 3.5 -9t13 -21t25.5 -26t43.5 -20.5t63.5 -9.5q36 0 63.5 9t41.5 21.5t23 25t11 21.5l3 9h163v-154q-2 -6 -6.5 -15
t-26.5 -33t-52.5 -42.5t-89 -33.5t-130.5 -15z" />
    <glyph glyph-name="ebreve" unicode="&#x115;" horiz-adv-x="1193" 
d="M631 -31q-136 0 -243.5 41.5t-175.5 116t-103 172.5t-35 215q0 114 36.5 214t104.5 175t172 118.5t231 43.5q128 0 225.5 -37t157 -103.5t89.5 -153.5t30 -193q0 -32 -3.5 -65t-6.5 -50l-4 -17h-721q14 -108 77.5 -168.5t174.5 -60.5q52 0 93.5 9.5t64 23.5t38 28
t20.5 24l5 9h242v-137q-4 -8 -13 -22t-46 -49.5t-85 -62.5t-135 -49t-190 -22zM391 633h432q0 79 -54 132.5t-153 53.5q-182 0 -225 -186zM618 1204q-71 0 -129 15t-90.5 37t-55 44t-30.5 37l-8 15v153h164q1 -3 4 -9t15 -21t27.5 -26t43 -20.5t59.5 -9.5q33 0 59.5 9
t41 21.5t24.5 25t13 21.5l4 9h164v-153q-2 -6 -7.5 -16t-29 -35.5t-54.5 -45t-88.5 -35.5t-126.5 -16z" />
    <glyph glyph-name="Edotaccent" unicode="&#x116;" horiz-adv-x="1234" 
d="M168 0v1536h965v-289h-625v-325h553v-267h-553v-366h625v-289h-965zM492 1638v277h339v-277h-339z" />
    <glyph glyph-name="edotaccent" unicode="&#x117;" horiz-adv-x="1193" 
d="M631 -31q-136 0 -243.5 41.5t-175.5 116t-103 172.5t-35 215q0 114 36.5 214t104.5 175t172 118.5t231 43.5q128 0 225.5 -37t157 -103.5t89.5 -153.5t30 -193q0 -32 -3.5 -65t-6.5 -50l-4 -17h-721q14 -108 77.5 -168.5t174.5 -60.5q52 0 93.5 9.5t64 23.5t38 28
t20.5 24l5 9h242v-137q-4 -8 -13 -22t-46 -49.5t-85 -62.5t-135 -49t-190 -22zM391 633h432q0 79 -54 132.5t-153 53.5q-182 0 -225 -186zM457 1229v287h319v-287h-319z" />
    <glyph glyph-name="Eogonek" unicode="&#x118;" horiz-adv-x="1234" 
d="M745 -186q0 72 47.5 123t125.5 63h-750v1536h965v-289h-625v-325h553v-267h-553v-366h625v-289h2q-32 -6 -54.5 -15t-42.5 -34t-20 -62q0 -34 15.5 -57t41.5 -33t47.5 -14t44.5 -4v-174h-163q-46 3 -86 13.5t-82 32.5t-66.5 63t-24.5 98z" />
    <glyph glyph-name="eogonek" unicode="&#x119;" horiz-adv-x="1193" 
d="M1061 -240v-153h-164q-47 3 -87.5 13.5t-81.5 32.5t-65 63t-24 98q0 102 102 161q-53 -6 -110 -6q-136 0 -243.5 41.5t-175.5 116t-103 172.5t-35 215q0 114 36.5 214t104.5 175t172 118.5t231 43.5q128 0 225.5 -37t157 -103.5t89.5 -153.5t30 -193q0 -32 -3.5 -65
t-6.5 -50l-4 -17h-721q14 -108 77.5 -168.5t174.5 -60.5q52 0 93.5 9.5t64 23.5t38 28t20.5 24l5 9h242v-137q-23 -45 -84 -92q-105 -102 -105 -209q0 -32 16 -56t41 -35.5t48.5 -16.5t44.5 -5zM391 633h432q0 79 -54 132.5t-153 53.5q-182 0 -225 -186z" />
    <glyph glyph-name="Ecaron" unicode="&#x11a;" horiz-adv-x="1234" 
d="M168 0v1536h965v-289h-625v-325h553v-267h-553v-366h625v-289h-965zM831 1638h-327l-193 164v123h238l119 -119l110 119h238v-123z" />
    <glyph glyph-name="ecaron" unicode="&#x11b;" horiz-adv-x="1193" 
d="M770 1229h-307l-193 184v123h217l129 -150l121 150h217v-123zM631 -31q-136 0 -243.5 41.5t-175.5 116t-103 172.5t-35 215q0 114 36.5 214t104.5 175t172 118.5t231 43.5q128 0 225.5 -37t157 -103.5t89.5 -153.5t30 -193q0 -32 -3.5 -65t-6.5 -50l-4 -17h-721
q14 -108 77.5 -168.5t174.5 -60.5q52 0 93.5 9.5t64 23.5t38 28t20.5 24l5 9h242v-137q-4 -8 -13 -22t-46 -49.5t-85 -62.5t-135 -49t-190 -22zM391 633h432q0 79 -54 132.5t-153 53.5q-182 0 -225 -186z" />
    <glyph glyph-name="Gcircumflex" unicode="&#x11c;" horiz-adv-x="1576" 
d="M877 -31q-244 0 -424.5 102t-274.5 282t-94 415q0 173 55.5 320t155.5 253t248 166t325 60q110 0 206 -21.5t160.5 -55.5t113.5 -76.5t74 -83.5t32 -79v-153h-266q-6 22 -26.5 49t-56.5 58t-98 52t-137 21q-207 0 -326.5 -142t-119.5 -366q0 -226 122 -368t335 -142
q153 0 264 51v267h-318v262h635v-664q-19 -28 -65.5 -61.5t-118 -67t-178 -56t-223.5 -22.5zM958 1638l-114 119l-115 -119h-237v123l188 164h328l188 -164v-123h-238z" />
    <glyph glyph-name="gcircumflex" unicode="&#x11d;" horiz-adv-x="1314" 
d="M625 -532q-81 0 -152 15t-119.5 39t-88.5 53t-63.5 58t-40 53t-22.5 39l-6 15v137h248q2 -6 6 -15t21.5 -32.5t41 -41.5t68 -33t98.5 -15q129 0 195 81t66 218v111q-110 -160 -340 -160q-139 0 -245 72t-161 192t-55 266q0 152 56 275.5t164 197.5t249 74q109 0 196 -48
t140 -130l16 145h289v-987q0 -263 -154 -421t-407 -158zM633 256q108 0 176 76.5t68 191.5q0 114 -68.5 189t-177.5 75q-115 0 -180.5 -75t-65.5 -189q0 -117 66 -192.5t182 -75.5zM801 1229l-125 149l-125 -149h-217v123l188 184h307l189 -184v-123h-217z" />
    <glyph glyph-name="Gbreve" unicode="&#x11e;" horiz-adv-x="1576" 
d="M877 -31q-244 0 -424.5 102t-274.5 282t-94 415q0 173 55.5 320t155.5 253t248 166t325 60q110 0 206 -21.5t160.5 -55.5t113.5 -76.5t74 -83.5t32 -79v-153h-266q-6 22 -26.5 49t-56.5 58t-98 52t-137 21q-207 0 -326.5 -142t-119.5 -366q0 -226 122 -368t335 -142
q153 0 264 51v267h-318v262h635v-664q-19 -28 -65.5 -61.5t-118 -67t-178 -56t-223.5 -22.5zM858 1618q-74 0 -133.5 14.5t-91.5 35t-53.5 40.5t-27.5 34l-7 15v154h164q1 -3 3.5 -9t13 -21t25.5 -26t43.5 -20.5t63.5 -9.5q36 0 63.5 9t41.5 21.5t23 25t11 21.5l2 9h164
v-154q-2 -6 -6.5 -15t-26.5 -33t-52.5 -42.5t-89 -33.5t-130.5 -15z" />
    <glyph glyph-name="gbreve" unicode="&#x11f;" horiz-adv-x="1314" 
d="M625 -532q-81 0 -152 15t-119.5 39t-88.5 53t-63.5 58t-40 53t-22.5 39l-6 15v137h248q2 -6 6 -15t21.5 -32.5t41 -41.5t68 -33t98.5 -15q129 0 195 81t66 218v111q-110 -160 -340 -160q-139 0 -245 72t-161 192t-55 266q0 152 56 275.5t164 197.5t249 74q109 0 196 -48
t140 -130l16 145h289v-987q0 -263 -154 -421t-407 -158zM633 256q108 0 176 76.5t68 191.5q0 114 -68.5 189t-177.5 75q-115 0 -180.5 -75t-65.5 -189q0 -117 66 -192.5t182 -75.5zM668 1204q-71 0 -129 15t-91 37t-55.5 44t-30.5 37l-8 15v153h164q1 -3 4.5 -9t15.5 -21
t27.5 -26t43 -20.5t59.5 -9.5q33 0 59.5 9t41 21.5t24.5 25t13 21.5l3 9h164v-153q-2 -6 -7.5 -16t-28.5 -35.5t-54 -45t-88.5 -35.5t-126.5 -16z" />
    <glyph glyph-name="Gdotaccent" unicode="&#x120;" horiz-adv-x="1576" 
d="M877 -31q-244 0 -424.5 102t-274.5 282t-94 415q0 173 55.5 320t155.5 253t248 166t325 60q110 0 206 -21.5t160.5 -55.5t113.5 -76.5t74 -83.5t32 -79v-153h-266q-6 22 -26.5 49t-56.5 58t-98 52t-137 21q-207 0 -326.5 -142t-119.5 -366q0 -226 122 -368t335 -142
q153 0 264 51v267h-318v262h635v-664q-19 -28 -65.5 -61.5t-118 -67t-178 -56t-223.5 -22.5zM686 1638v277h340v-277h-340z" />
    <glyph glyph-name="gdotaccent" unicode="&#x121;" horiz-adv-x="1314" 
d="M625 -532q-81 0 -152 15t-119.5 39t-88.5 53t-63.5 58t-40 53t-22.5 39l-6 15v137h248q2 -6 6 -15t21.5 -32.5t41 -41.5t68 -33t98.5 -15q129 0 195 81t66 218v111q-110 -160 -340 -160q-139 0 -245 72t-161 192t-55 266q0 152 56 275.5t164 197.5t249 74q109 0 196 -48
t140 -130l16 145h289v-987q0 -263 -154 -421t-407 -158zM633 256q108 0 176 76.5t68 191.5q0 114 -68.5 189t-177.5 75q-115 0 -180.5 -75t-65.5 -189q0 -117 66 -192.5t182 -75.5zM522 1229v287h320v-287h-320z" />
    <glyph glyph-name="Gcommaaccent" unicode="&#x122;" horiz-adv-x="1576" 
d="M877 -31q-244 0 -424.5 102t-274.5 282t-94 415q0 173 55.5 320t155.5 253t248 166t325 60q110 0 206 -21.5t160.5 -55.5t113.5 -76.5t74 -83.5t32 -79v-153h-266q-6 22 -26.5 49t-56.5 58t-98 52t-137 21q-207 0 -326.5 -142t-119.5 -366q0 -226 122 -368t335 -142
q153 0 264 51v267h-318v262h635v-664q-19 -28 -65.5 -61.5t-118 -67t-178 -56t-223.5 -22.5zM739 -420l-10 314h320v-148l-113 -166h-197z" />
    <glyph glyph-name="gcommaaccent" unicode="&#x123;" horiz-adv-x="1314" 
d="M625 -532q-81 0 -152 15t-119.5 39t-88.5 53t-63.5 58t-40 53t-22.5 39l-6 15v137h248q2 -6 6 -15t21.5 -32.5t41 -41.5t68 -33t98.5 -15q129 0 195 81t66 218v111q-110 -160 -340 -160q-139 0 -245 72t-161 192t-55 266q0 152 56 275.5t164 197.5t249 74q109 0 196 -48
t140 -130l16 145h289v-987q0 -263 -154 -421t-407 -158zM633 256q108 0 176 76.5t68 191.5q0 114 -68.5 189t-177.5 75q-115 0 -180.5 -75t-65.5 -189q0 -117 66 -192.5t182 -75.5zM817 1563l10 -314h-319v148l113 166h196z" />
    <glyph glyph-name="Hcircumflex" unicode="&#x124;" horiz-adv-x="1617" 
d="M168 0v1536h340v-604h602v604h340v-1536h-340v645h-602v-645h-340zM924 1638l-115 119l-115 -119h-237v123l188 164h328l188 -164v-123h-237z" />
    <glyph glyph-name="hcircumflex" unicode="&#x125;" horiz-adv-x="1234" 
d="M131 0v1536h309v-629q41 65 119 111.5t184 46.5q80 0 143.5 -22.5t105.5 -61t70 -93t40 -115t12 -130.5v-643h-307v586q0 202 -170 202q-54 0 -93.5 -17.5t-61.5 -48t-32 -65.5t-10 -75v-582h-309zM737 1638l-114 119l-115 -119h-238v123l189 164h327l189 -164v-123h-238
z" />
    <glyph glyph-name="Hbar" unicode="&#x126;" horiz-adv-x="1673" 
d="M537 645v-645h-340v1110h-164v236h164v190h340v-190h602v190h340v-190h161v-236h-161v-1110h-340v645h-602zM537 932h602v178h-602v-178z" />
    <glyph glyph-name="hbar" unicode="&#x127;" horiz-adv-x="1232" 
d="M438 582v-582h-309v1167h-149v222h149v147h309v-147h297v-222h-297v-260q41 65 119 111.5t184 46.5q80 0 143.5 -22.5t105.5 -61t70 -93t40 -115t12 -130.5v-643h-307v586q0 202 -170 202q-54 0 -93.5 -17.5t-61.5 -48t-32 -65.5t-10 -75z" />
    <glyph glyph-name="Itilde" unicode="&#x128;" horiz-adv-x="675" 
d="M496 1622q-61 0 -134 30.5t-108 30.5q-60 0 -72 -51h-205q-8 126 50.5 203.5t167.5 77.5q62 0 130 -31t101 -31q60 0 70 52h204q8 -131 -42 -206t-162 -75zM170 0v1536h340v-1536h-340z" />
    <glyph glyph-name="itilde" unicode="&#x129;" horiz-adv-x="565" 
d="M131 0v1034h307v-1034h-307zM442 1227q-43 0 -81 11t-60 24.5t-51.5 24.5t-59.5 11q-55 0 -71 -61h-195q-8 126 50 203.5t167 77.5q57 0 98.5 -17.5t75 -35t68.5 -17.5q60 0 70 59h194q8 -130 -42.5 -205t-162.5 -75z" />
    <glyph glyph-name="Imacron" unicode="&#x12a;" horiz-adv-x="675" 
d="M25 1649v225h626v-225h-626zM168 0v1536h340v-1536h-340z" />
    <glyph glyph-name="imacron" unicode="&#x12b;" horiz-adv-x="565" 
d="M129 0v1034h307v-1034h-307zM-10 1249v238h585v-238h-585z" />
    <glyph glyph-name="Ibreve" unicode="&#x12c;" horiz-adv-x="675" 
d="M340 1618q-74 0 -133.5 14.5t-91.5 35t-53.5 40.5t-27.5 34l-7 15v154h163q1 -3 3.5 -9t13.5 -21t26 -26t43.5 -20.5t63.5 -9.5q36 0 63.5 9t41.5 21.5t23 25t11 21.5l2 9h164v-154q-2 -6 -6.5 -15t-26.5 -33t-52.5 -42.5t-89 -33.5t-130.5 -15zM168 0v1536h340v-1536
h-340z" />
    <glyph glyph-name="ibreve" unicode="&#x12d;" horiz-adv-x="565" 
d="M129 0v1034h307v-1034h-307zM287 1204q-71 0 -129 15t-91 37t-55.5 44t-30.5 37l-8 15v153h164q1 -3 4.5 -9t15.5 -21t27.5 -26t43 -20.5t59.5 -9.5q33 0 59.5 9t41 21.5t24.5 25t13 21.5l3 9h164v-153q-2 -6 -7.5 -16t-28.5 -35.5t-54 -45t-88.5 -35.5t-126.5 -16z" />
    <glyph glyph-name="Iogonek" unicode="&#x12e;" horiz-adv-x="675" 
d="M119 -186q0 72 47 123t125 63h-123v1536h340v-1536q-32 -6 -54.5 -15t-42.5 -34t-20 -62q0 -34 16 -57t41.5 -33t47.5 -14t45 -4v-174h-164q-46 3 -86 13.5t-81.5 32.5t-66 63t-24.5 98z" />
    <glyph glyph-name="iogonek" unicode="&#x12f;" horiz-adv-x="569" 
d="M123 1229v287h319v-287h-319zM39 -186q0 72 47 123t125 63h-80v1034h307v-1034h-10q-32 -6 -54.5 -15t-42.5 -34t-20 -62q0 -34 16 -57t41.5 -33t47.5 -14t45 -4v-174h-164q-46 3 -86 13.5t-81.5 32.5t-66 63t-24.5 98z" />
    <glyph glyph-name="Idotaccent" unicode="&#x130;" horiz-adv-x="675" 
d="M168 1638v277h340v-277h-340zM168 0v1536h340v-1536h-340z" />
    <glyph glyph-name="dotlessi" unicode="&#x131;" horiz-adv-x="569" 
d="M131 0v1034h307v-1034h-307z" />
    <glyph glyph-name="IJ" unicode="&#x132;" horiz-adv-x="1630" 
d="M168 0v1536h340v-1536h-340zM1026 -31q-86 0 -157 19t-115.5 48t-77 66t-47 68.5t-19.5 60.5v154h267q0 -47 31 -87t96 -40q69 0 101 42.5t32 156.5v1079h338v-1067q0 -249 -113.5 -374.5t-335.5 -125.5z" />
    <glyph glyph-name="ij" unicode="&#x133;" horiz-adv-x="1110" 
d="M131 0v1034h307v-1034h-307zM123 1229v287h319v-287h-319zM588 -532q-130 0 -211 51.5t-111 136.5v147h232q0 -23 20 -48t64 -25q51 0 70.5 32t19.5 109v1163h307v-1165q0 -187 -100 -294t-291 -107zM666 1229v287h319v-287h-319z" />
    <glyph glyph-name="Jcircumflex" unicode="&#x134;" horiz-adv-x="1062" 
d="M459 -31q-86 0 -157 19t-115.5 48t-77 66t-47 68.5t-19.5 60.5v154h266q0 -47 31 -87t96 -40q69 0 101 42.5t32 156.5v1079h338v-1067q0 -500 -448 -500zM850 1638l-115 119l-114 -119h-238v123l188 164h328l188 -164v-123h-237z" />
    <glyph glyph-name="jcircumflex" unicode="&#x135;" horiz-adv-x="565" 
d="M45 -532q-130 0 -210.5 51.5t-110.5 136.5v147h231q0 -23 20 -48t64 -25q51 0 70.5 32t19.5 109v1163h307v-1165q0 -187 -100 -294t-291 -107zM408 1229l-125 149l-125 -149h-217v123l188 184h307l189 -184v-123h-217z" />
    <glyph glyph-name="Kcommaaccent" unicode="&#x136;" horiz-adv-x="1421" 
d="M629 -420l-11 314h320v-148l-113 -166h-196zM508 668v-668h-340v1536h340v-659l555 659h268v-154l-502 -583l560 -639v-160h-299z" />
    <glyph glyph-name="kcommaaccent" unicode="&#x137;" horiz-adv-x="1136" 
d="M131 0v1536h309v-922l348 420h265v-137l-301 -356l342 -398v-143h-289l-365 446v-446h-309zM461 -420l-10 314h319v-148l-113 -166h-196z" />
    <glyph glyph-name="Lacute" unicode="&#x139;" horiz-adv-x="1165" 
d="M168 0v1536h340v-1247h614v-289h-954zM176 1649v123l148 163h319v-123l-188 -163h-279z" />
    <glyph glyph-name="lacute" unicode="&#x13a;" horiz-adv-x="571" 
d="M131 0v1536h309v-1536h-309zM125 1649v123l139 163h305v-123l-178 -163h-266z" />
    <glyph glyph-name="Lcommaaccent" unicode="&#x13b;" horiz-adv-x="1165" 
d="M168 0v1536h340v-1247h614v-289h-954zM532 -420l-10 314h320v-148l-113 -166h-197z" />
    <glyph glyph-name="lcommaaccent" unicode="&#x13c;" horiz-adv-x="571" 
d="M131 0v1536h309v-1536h-309zM135 -420l-10 314h307v-148l-108 -166h-189z" />
    <glyph glyph-name="Lcaron" unicode="&#x13d;" horiz-adv-x="1189" 
d="M168 0v1536h340v-1247h614v-289h-954zM815 1145l-10 391h299v-184l-92 -207h-197z" />
    <glyph glyph-name="lcaron" unicode="&#x13e;" horiz-adv-x="593" 
d="M131 0v1536h309v-1536h-309zM530 1145l-10 391h299v-184l-92 -207h-197z" />
    <glyph glyph-name="Ldot" unicode="&#x13f;" horiz-adv-x="1183" 
d="M768 647v314h317v-314h-317zM168 0v1536h340v-1247h614v-289h-954z" />
    <glyph glyph-name="ldot" unicode="&#x140;" horiz-adv-x="901" 
d="M131 0v1536h309v-1536h-309zM580 528v314h317v-314h-317z" />
    <glyph glyph-name="Lslash" unicode="&#x141;" horiz-adv-x="1210" 
d="M1167 289v-289h-954v514l-164 -70v289l164 70v733h340v-592l215 90v-289l-215 -90v-366h614z" />
    <glyph glyph-name="lslash" unicode="&#x142;" horiz-adv-x="768" 
d="M686 692l-154 -74v-618h-309v469l-153 -74v269l153 73v799h309v-649l154 74v-269z" />
    <glyph glyph-name="Nacute" unicode="&#x143;" horiz-adv-x="1628" 
d="M168 0v1536h319l654 -977v977h319v-1536h-319l-654 961v-961h-319zM666 1649v123l147 163h320v-123l-189 -163h-278z" />
    <glyph glyph-name="nacute" unicode="&#x144;" horiz-adv-x="1234" 
d="M131 0v1034h289l14 -137q40 69 119 118.5t190 49.5q80 0 143.5 -22.5t105.5 -61t70 -93t40 -115t12 -130.5v-643h-307v586q0 202 -170 202q-54 0 -93.5 -17.5t-61.5 -48t-32 -65.5t-10 -75v-582h-309zM442 1229v123l158 184h295v-123l-201 -184h-252z" />
    <glyph glyph-name="Ncommaaccent" unicode="&#x145;" horiz-adv-x="1628" 
d="M168 0v1536h319l654 -977v977h319v-1536h-319l-654 961v-961h-319zM649 -420l-10 314h319v-148l-112 -166h-197z" />
    <glyph glyph-name="ncommaaccent" unicode="&#x146;" horiz-adv-x="1234" 
d="M131 0v1034h289l14 -137q40 69 119 118.5t190 49.5q80 0 143.5 -22.5t105.5 -61t70 -93t40 -115t12 -130.5v-643h-307v586q0 202 -170 202q-54 0 -93.5 -17.5t-61.5 -48t-32 -65.5t-10 -75v-582h-309zM469 -420l-10 314h319v-148l-112 -166h-197z" />
    <glyph glyph-name="Ncaron" unicode="&#x147;" horiz-adv-x="1628" 
d="M168 0v1536h319l654 -977v977h319v-1536h-319l-654 961v-961h-319zM973 1638h-328l-192 164v123h237l119 -119l111 119h237v-123z" />
    <glyph glyph-name="ncaron" unicode="&#x148;" horiz-adv-x="1234" 
d="M131 0v1034h289l14 -137q40 69 119 118.5t190 49.5q80 0 143.5 -22.5t105.5 -61t70 -93t40 -115t12 -130.5v-643h-307v586q0 202 -170 202q-54 0 -93.5 -17.5t-61.5 -48t-32 -65.5t-10 -75v-582h-309zM741 1229h-307l-192 184v123h217l129 -150l121 150h217v-123z" />
    <glyph glyph-name="napostrophe" unicode="&#x149;" horiz-adv-x="1230" 
d="M123 1145l-10 391h299v-184l-93 -207h-196zM129 0v1034h289l14 -137q40 69 119 118.5t190 49.5q80 0 143.5 -22.5t105.5 -61t70 -93t40 -115t12 -130.5v-643h-307v586q0 202 -170 202q-54 0 -93.5 -17.5t-61.5 -48t-32 -65.5t-10 -75v-582h-309z" />
    <glyph glyph-name="Eng" unicode="&#x14a;" horiz-adv-x="1628" 
d="M1141 1536h319v-1610q0 -458 -401 -458q-81 0 -149.5 22t-112 57.5t-70 72t-37.5 71.5v143h268q0 -23 25.5 -52.5t73.5 -29.5q45 0 64.5 28.5t19.5 88.5v131l-654 961v-961h-319v1536h319l654 -977v977z" />
    <glyph glyph-name="eng" unicode="&#x14b;" horiz-adv-x="1234" 
d="M743 1065q80 0 143.5 -22.5t105.5 -61t70 -93t40 -115t12 -130.5v-713q0 -462 -469 -462v262q92 0 127 46t35 156v654q0 202 -170 202q-54 0 -93.5 -17.5t-61.5 -48t-32 -65.5t-10 -75v-582h-309v1034h289l14 -137q40 69 119 118.5t190 49.5z" />
    <glyph glyph-name="Omacron" unicode="&#x14c;" horiz-adv-x="1691" 
d="M846 -31q-169 0 -311.5 59.5t-241.5 165.5t-154 255t-55 325q0 232 94.5 412t268.5 280.5t399 100.5t399 -100.5t268.5 -280.5t94.5 -412q0 -176 -55 -325t-154 -255t-241.5 -165.5t-311.5 -59.5zM846 258q192 0 307 142t115 374q0 226 -115 365t-307 139t-307 -139
t-115 -365q0 -232 115 -374t307 -142zM526 1649v225h627v-225h-627z" />
    <glyph glyph-name="omacron" unicode="&#x14d;" horiz-adv-x="1241" 
d="M621 -31q-167 0 -293 75t-190 199t-64 277q0 152 64 274.5t190 196.5t293 74q166 0 292 -74t190 -196.5t64 -274.5q0 -153 -64 -277t-190 -199t-292 -75zM621 238q116 0 176.5 79t60.5 203q0 121 -60.5 199t-176.5 78t-177 -78t-61 -199q0 -124 61 -203t177 -79z
M334 1249v238h586v-238h-586z" />
    <glyph glyph-name="Obreve" unicode="&#x14e;" horiz-adv-x="1691" 
d="M846 -31q-169 0 -311.5 59.5t-241.5 165.5t-154 255t-55 325q0 232 94.5 412t268.5 280.5t399 100.5t399 -100.5t268.5 -280.5t94.5 -412q0 -176 -55 -325t-154 -255t-241.5 -165.5t-311.5 -59.5zM846 258q192 0 307 142t115 374q0 226 -115 365t-307 139t-307 -139
t-115 -365q0 -232 115 -374t307 -142zM842 1618q-54 0 -100.5 7.5t-77.5 20t-56 27.5t-39.5 29.5t-24 27t-12.5 20.5l-4 7v154h164q1 -3 3.5 -9t13.5 -21t26 -26t43.5 -20.5t63.5 -9.5q36 0 63.5 9t41.5 21.5t23 25t11 21.5l2 9h164v-154q-2 -6 -6.5 -15t-26.5 -33
t-52.5 -42.5t-89 -33.5t-130.5 -15z" />
    <glyph glyph-name="obreve" unicode="&#x14f;" horiz-adv-x="1241" 
d="M621 -31q-167 0 -293 75t-190 199t-64 277q0 152 64 274.5t190 196.5t293 74q166 0 292 -74t190 -196.5t64 -274.5q0 -153 -64 -277t-190 -199t-292 -75zM621 238q116 0 176.5 79t60.5 203q0 121 -60.5 199t-176.5 78t-177 -78t-61 -199q0 -124 61 -203t177 -79z
M616 1204q-71 0 -129 15t-90.5 37t-55 44t-30.5 37l-8 15v153h164q1 -3 4 -9t15 -21t27.5 -26t43 -20.5t59.5 -9.5q33 0 59.5 9t41 21.5t24.5 25t13 21.5l4 9h164v-153q-2 -6 -7.5 -16t-29 -35.5t-54.5 -45t-88.5 -35.5t-126.5 -16z" />
    <glyph glyph-name="Ohungarumlaut" unicode="&#x150;" horiz-adv-x="1691" 
d="M846 -31q-169 0 -311.5 59.5t-241.5 165.5t-154 255t-55 325q0 232 94.5 412t268.5 280.5t399 100.5t399 -100.5t268.5 -280.5t94.5 -412q0 -176 -55 -325t-154 -255t-241.5 -165.5t-311.5 -59.5zM846 258q192 0 307 142t115 374q0 226 -115 365t-307 139t-307 -139
t-115 -365q0 -232 115 -374t307 -142zM506 1645v122l112 164h289l-28 -123l-127 -163h-246zM909 1645v122l148 164h289v-123l-189 -163h-248z" />
    <glyph glyph-name="ohungarumlaut" unicode="&#x151;" horiz-adv-x="1241" 
d="M307 1229v123l113 184h278l-26 -133l-129 -174h-236zM700 1229v123l148 184h268v-123l-188 -184h-228zM621 -31q-167 0 -293 75t-190 199t-64 277q0 152 64 274.5t190 196.5t293 74q166 0 292 -74t190 -196.5t64 -274.5q0 -153 -64 -277t-190 -199t-292 -75zM621 238
q116 0 176.5 79t60.5 203q0 121 -60.5 199t-176.5 78t-177 -78t-61 -199q0 -124 61 -203t177 -79z" />
    <glyph glyph-name="OE" unicode="&#x152;" horiz-adv-x="2111" 
d="M2009 0h-944q-85 -20 -219 -20q-224 0 -398.5 103t-269 282.5t-94.5 404.5q0 226 94.5 404.5t268.5 280t399 101.5q134 0 219 -20h944v-289h-625v-325h553v-267h-553v-366h625v-289zM414 770q0 -222 118 -362t314 -140q124 0 198 29v948q-75 23 -198 23q-196 0 -314 -138
t-118 -360z" />
    <glyph glyph-name="oe" unicode="&#x153;" horiz-adv-x="1978" 
d="M1415 -31q-272 0 -411 176q-139 -176 -383 -176q-167 0 -293 75t-190 199t-64 277q0 152 64 274.5t190 196.5t293 74q123 0 222 -47.5t165 -132.5q143 180 395 180q128 0 225.5 -37t157 -103.5t89.5 -153.5t30 -193q0 -32 -3.5 -65t-7.5 -50l-4 -17h-721
q14 -108 77.5 -168.5t174.5 -60.5q52 0 93.5 9.5t64 23.5t38 28t20.5 24l5 9h244v-137q-4 -8 -13 -22t-46.5 -49.5t-85.5 -62.5t-135 -49t-191 -22zM1176 633h432q0 79 -54 132.5t-153 53.5q-182 0 -225 -186zM621 238q116 0 176.5 79t60.5 203q0 121 -60.5 199t-176.5 78
t-177 -78t-61 -199q0 -124 61 -203t177 -79z" />
    <glyph glyph-name="Racute" unicode="&#x154;" horiz-adv-x="1396" 
d="M508 0h-340v1536h504q267 0 424 -132.5t157 -356.5q0 -140 -72.5 -250t-203.5 -172l354 -465v-160h-293l-393 541h-137v-541zM502 815h168q113 0 178 61.5t65 165.5q0 92 -64.5 148.5t-178.5 56.5h-168v-432zM487 1649v123l148 163h319v-123l-188 -163h-279z" />
    <glyph glyph-name="racute" unicode="&#x155;" horiz-adv-x="985" 
d="M131 0v1034h289l14 -135q37 71 108.5 118.5t168.5 47.5q116 0 181.5 -59t78.5 -160v-148h-236l-1 6q-2 5 -5.5 14t-9 19.5t-16 21.5t-24 20t-34 14.5t-45.5 5.5q-80 0 -120 -60.5t-40 -160.5v-578h-309zM422 1229v123l158 184h294v-123l-200 -184h-252z" />
    <glyph glyph-name="Rcommaaccent" unicode="&#x156;" horiz-adv-x="1396" 
d="M508 0h-340v1536h504q267 0 424 -132.5t157 -356.5q0 -140 -72.5 -250t-203.5 -172l354 -465v-160h-293l-393 541h-137v-541zM502 815h168q113 0 178 61.5t65 165.5q0 92 -64.5 148.5t-178.5 56.5h-168v-432zM621 -420l-11 314h320v-148l-113 -166h-196z" />
    <glyph glyph-name="rcommaaccent" unicode="&#x157;" horiz-adv-x="985" 
d="M131 0v1034h289l14 -135q37 71 108.5 118.5t168.5 47.5q116 0 181.5 -59t78.5 -160v-148h-236l-1 6q-2 5 -5.5 14t-9 19.5t-16 21.5t-24 20t-34 14.5t-45.5 5.5q-80 0 -120 -60.5t-40 -160.5v-578h-309zM145 -420l-10 314h307v-148l-108 -166h-189z" />
    <glyph glyph-name="Rcaron" unicode="&#x158;" horiz-adv-x="1396" 
d="M508 0h-340v1536h504q267 0 424 -132.5t157 -356.5q0 -140 -72.5 -250t-203.5 -172l354 -465v-160h-293l-393 541h-137v-541zM502 815h168q113 0 178 61.5t65 165.5q0 92 -64.5 148.5t-178.5 56.5h-168v-432zM825 1638h-327l-193 164v123h238l119 -119l110 119h238v-123z
" />
    <glyph glyph-name="rcaron" unicode="&#x159;" horiz-adv-x="985" 
d="M131 0v1034h289l14 -135q37 71 108.5 118.5t168.5 47.5q116 0 181.5 -59t78.5 -160v-148h-236l-1 6q-2 5 -5.5 14t-9 19.5t-16 21.5t-24 20t-34 14.5t-45.5 5.5q-80 0 -120 -60.5t-40 -160.5v-578h-309zM684 1229h-307l-193 184v123h217l129 -150l121 150h217v-123z" />
    <glyph glyph-name="Sacute" unicode="&#x15a;" horiz-adv-x="1323" 
d="M664 -31q-225 0 -369 87t-197 225v153h269q66 -186 303 -186q109 0 174 47.5t65 132.5q0 75 -54 121t-171 72l-141 26q-213 42 -325 155.5t-112 297.5q0 219 152 343t408 124q211 0 349.5 -81.5t170.5 -223.5v-156h-266q-47 182 -263 182q-105 0 -163 -46t-58 -124
q0 -64 48.5 -106t156.5 -66l147 -33q216 -44 333.5 -161.5t117.5 -305.5q0 -218 -158 -347.5t-417 -129.5zM514 1649v123l148 163h319v-123l-188 -163h-279z" />
    <glyph glyph-name="sacute" unicode="&#x15b;" horiz-adv-x="1040" 
d="M528 -31q-100 0 -185 22t-137 55.5t-84 66t-42 61.5v139h231q9 -35 68 -76.5t153 -41.5q160 0 160 98q0 47 -38.5 70t-118.5 36l-132 17q-309 42 -309 309q0 151 114 245.5t308 94.5q168 0 269.5 -55t138.5 -142v-139h-234q-2 11 -12.5 27.5t-30.5 36.5t-56.5 33.5
t-80.5 13.5q-70 0 -104.5 -27t-34.5 -72q0 -78 131 -100l131 -18q162 -24 249 -93.5t87 -210.5q0 -157 -117.5 -253.5t-323.5 -96.5zM373 1229v123l157 184h295v-123l-200 -184h-252z" />
    <glyph glyph-name="Scircumflex" unicode="&#x15c;" horiz-adv-x="1323" 
d="M664 -31q-225 0 -369 87t-197 225v153h269q66 -186 303 -186q109 0 174 47.5t65 132.5q0 75 -54 121t-171 72l-141 26q-213 42 -325 155.5t-112 297.5q0 219 152 343t408 124q211 0 349.5 -81.5t170.5 -223.5v-156h-266q-47 182 -263 182q-105 0 -163 -46t-58 -124
q0 -64 48.5 -106t156.5 -66l147 -33q216 -44 333.5 -161.5t117.5 -305.5q0 -218 -158 -347.5t-417 -129.5zM776 1638l-114 119l-115 -119h-238v123l189 164h327l189 -164v-123h-238z" />
    <glyph glyph-name="scircumflex" unicode="&#x15d;" horiz-adv-x="1040" 
d="M528 -31q-100 0 -185 22t-137 55.5t-84 66t-42 61.5v139h231q9 -35 68 -76.5t153 -41.5q160 0 160 98q0 47 -38.5 70t-118.5 36l-132 17q-309 42 -309 309q0 151 114 245.5t308 94.5q168 0 269.5 -55t138.5 -142v-139h-234q-2 11 -12.5 27.5t-30.5 36.5t-56.5 33.5
t-80.5 13.5q-70 0 -104.5 -27t-34.5 -72q0 -78 131 -100l131 -18q162 -24 249 -93.5t87 -210.5q0 -157 -117.5 -253.5t-323.5 -96.5zM653 1229l-125 149l-125 -149h-217v123l189 184h307l188 -184v-123h-217z" />
    <glyph glyph-name="Scedilla" unicode="&#x15e;" horiz-adv-x="1323" 
d="M946 -252q0 -185 -254 -207h-174v164q139 0 139 74q0 71 -131 71v130q-167 25 -275.5 106t-152.5 195v153h269q66 -186 303 -186q109 0 174 47.5t65 132.5q0 75 -54 121t-171 72l-141 26q-213 42 -325 155.5t-112 297.5q0 219 152 343t408 124q211 0 349.5 -81.5
t170.5 -223.5v-156h-266q-47 182 -263 182q-105 0 -163 -46t-58 -124q0 -64 48.5 -106t156.5 -66l147 -33q216 -44 333.5 -161.5t117.5 -305.5q0 -193 -126 -318t-339 -153v-57q79 -12 125.5 -56.5t46.5 -113.5z" />
    <glyph glyph-name="scedilla" unicode="&#x15f;" horiz-adv-x="1040" 
d="M815 -250q0 -185 -254 -207h-174v164q139 0 139 74q0 72 -131 72v127q-131 24 -213.5 83t-101.5 111v139h231q9 -35 68 -76.5t153 -41.5q160 0 160 98q0 47 -38.5 70t-118.5 36l-132 17q-309 42 -309 309q0 151 114 245.5t308 94.5q168 0 269.5 -55t138.5 -142v-139h-234
q-2 11 -12.5 27.5t-30.5 36.5t-56.5 33.5t-80.5 13.5q-70 0 -104.5 -27t-34.5 -72q0 -78 131 -100l131 -18q162 -24 249 -93.5t87 -210.5q0 -132 -86 -224t-240 -118v-57q79 -12 125.5 -56.5t46.5 -113.5z" />
    <glyph glyph-name="Scaron" unicode="&#x160;" horiz-adv-x="1323" 
d="M664 -31q-225 0 -369 87t-197 225v153h269q66 -186 303 -186q109 0 174 47.5t65 132.5q0 75 -54 121t-171 72l-141 26q-213 42 -325 155.5t-112 297.5q0 219 152 343t408 124q211 0 349.5 -81.5t170.5 -223.5v-156h-266q-47 182 -263 182q-105 0 -163 -46t-58 -124
q0 -64 48.5 -106t156.5 -66l147 -33q216 -44 333.5 -161.5t117.5 -305.5q0 -218 -158 -347.5t-417 -129.5zM836 1638h-328l-193 164v123h238l119 -119l110 119h238v-123z" />
    <glyph glyph-name="scaron" unicode="&#x161;" horiz-adv-x="1040" 
d="M528 -31q-100 0 -185 22t-137 55.5t-84 66t-42 61.5v139h231q9 -35 68 -76.5t153 -41.5q160 0 160 98q0 47 -38.5 70t-118.5 36l-132 17q-309 42 -309 309q0 151 114 245.5t308 94.5q168 0 269.5 -55t138.5 -142v-139h-234q-2 11 -12.5 27.5t-30.5 36.5t-56.5 33.5
t-80.5 13.5q-70 0 -104.5 -27t-34.5 -72q0 -78 131 -100l131 -18q162 -24 249 -93.5t87 -210.5q0 -157 -117.5 -253.5t-323.5 -96.5zM676 1229h-307l-193 184v123h217l129 -150l121 150h217v-123z" />
    <glyph glyph-name="Tcommaaccent" unicode="&#x162;" horiz-adv-x="1300" 
d="M479 0v1247h-438v289h1219v-289h-441v-1247h-340zM504 -420l-10 314h319v-148l-113 -166h-196z" />
    <glyph glyph-name="tcommaaccent" unicode="&#x163;" horiz-adv-x="972" 
d="M449 -420l-11 314h320v-148l-113 -166h-196zM598 -31q-190 0 -294.5 105.5t-104.5 292.5v415h-154v252h158l16 262h289v-262h410v-252h-410v-405q0 -78 27.5 -115t87.5 -37q54 0 76 26.5t22 53.5h221v-139q-35 -89 -120.5 -143t-223.5 -54z" />
    <glyph glyph-name="Tcaron" unicode="&#x164;" horiz-adv-x="1300" 
d="M479 0v1247h-438v289h1219v-289h-441v-1247h-340zM817 1638h-328l-192 164v123h238l118 -119l111 119h237v-123z" />
    <glyph glyph-name="tcaron" unicode="&#x165;" horiz-adv-x="972" 
d="M682 1145l-10 391h299v-184l-92 -207h-197zM598 -31q-190 0 -294.5 105.5t-104.5 292.5v415h-154v252h158l16 262h289v-262h410v-252h-410v-405q0 -78 27.5 -115t87.5 -37q54 0 76 26.5t22 53.5h221v-139q-35 -89 -120.5 -143t-223.5 -54z" />
    <glyph glyph-name="Tbar" unicode="&#x166;" horiz-adv-x="1341" 
d="M1145 621h-305v-621h-340v621h-305v258h305v368h-439v289h1219v-289h-440v-368h305v-258z" />
    <glyph glyph-name="tbar" unicode="&#x167;" horiz-adv-x="978" 
d="M946 166q-35 -89 -120.5 -143t-223.5 -54q-190 0 -294.5 105.5t-104.5 292.5v100h-154v188h154v127h-154v252h158l16 262h289v-262h410v-252h-410v-127h410v-188h-410v-90q0 -78 27.5 -115t87.5 -37q54 0 76 26.5t22 53.5h221v-139z" />
    <glyph glyph-name="Utilde" unicode="&#x168;" horiz-adv-x="1554" 
d="M784 -31q-142 0 -261.5 47t-200 127t-125.5 188.5t-45 231.5v973h340v-975q0 -130 78 -216.5t212 -86.5q140 0 220.5 86t80.5 217v975h320v-973q0 -122 -45 -231t-124.5 -189t-196 -127t-253.5 -47zM942 1622q-61 0 -134 30.5t-108 30.5q-59 0 -71 -51h-205
q-8 126 50 203.5t167 77.5q62 0 130 -31t101 -31q60 0 70 52h205q8 -131 -42.5 -206t-162.5 -75z" />
    <glyph glyph-name="utilde" unicode="&#x169;" horiz-adv-x="1226" 
d="M494 -31q-99 0 -173 33.5t-116.5 93.5t-63 133.5t-20.5 161.5v643h309v-585q0 -203 164 -203q100 0 146 60.5t46 146.5v581h310v-1034h-289l-14 137q-40 -69 -116 -118.5t-183 -49.5zM772 1227q-43 0 -81 11t-60 24.5t-51.5 24.5t-59.5 11q-55 0 -71 -61h-195
q-8 126 50 203.5t167 77.5q57 0 98.5 -17.5t75 -35t68.5 -17.5q59 0 69 59h195q8 -130 -42.5 -205t-162.5 -75z" />
    <glyph glyph-name="Umacron" unicode="&#x16a;" horiz-adv-x="1554" 
d="M784 -31q-142 0 -261.5 47t-200 127t-125.5 188.5t-45 231.5v973h340v-975q0 -130 78 -216.5t212 -86.5q140 0 220.5 86t80.5 217v975h320v-973q0 -122 -45 -231t-124.5 -189t-196 -127t-253.5 -47zM475 1649v225h627v-225h-627z" />
    <glyph glyph-name="umacron" unicode="&#x16b;" horiz-adv-x="1226" 
d="M494 -31q-99 0 -173 33.5t-116.5 93.5t-63 133.5t-20.5 161.5v643h309v-585q0 -203 164 -203q100 0 146 60.5t46 146.5v581h310v-1034h-289l-14 137q-40 -69 -116 -118.5t-183 -49.5zM315 1249v238h586v-238h-586z" />
    <glyph glyph-name="Ubreve" unicode="&#x16c;" horiz-adv-x="1554" 
d="M784 -31q-142 0 -261.5 47t-200 127t-125.5 188.5t-45 231.5v973h340v-975q0 -130 78 -216.5t212 -86.5q140 0 220.5 86t80.5 217v975h320v-973q0 -122 -45 -231t-124.5 -189t-196 -127t-253.5 -47zM786 1618q-74 0 -133.5 14.5t-91.5 35t-53.5 40.5t-27.5 34l-7 15v154
h164q1 -3 3.5 -9t13 -21t25.5 -26t43.5 -20.5t63.5 -9.5q36 0 63.5 9t41.5 21.5t23 25t12 21.5l2 9h164v-154q-1 -3 -3.5 -8t-12.5 -19.5t-23 -27.5t-38 -29t-55.5 -27.5t-75.5 -19.5t-98 -8z" />
    <glyph glyph-name="ubreve" unicode="&#x16d;" horiz-adv-x="1226" 
d="M494 -31q-99 0 -173 33.5t-116.5 93.5t-63 133.5t-20.5 161.5v643h309v-585q0 -203 164 -203q100 0 146 60.5t46 146.5v581h310v-1034h-289l-14 137q-40 -69 -116 -118.5t-183 -49.5zM606 1204q-71 0 -129 15t-90.5 37t-55 44t-30.5 37l-8 15v153h164q1 -3 4 -9t15 -21
t27.5 -26t43 -20.5t59.5 -9.5q33 0 59.5 9t41 21.5t24.5 25t13 21.5l4 9h163v-153q-2 -6 -7.5 -16t-28.5 -35.5t-54 -45t-88.5 -35.5t-126.5 -16z" />
    <glyph glyph-name="Uring" unicode="&#x16e;" horiz-adv-x="1554" 
d="M782 1604q-140 0 -211 51.5t-71 138.5q0 86 71.5 138.5t210.5 52.5q141 0 213 -52.5t72 -138.5q0 -87 -72 -138.5t-213 -51.5zM782 1739q34 0 58 15t24 40t-24 40t-58 15t-58 -15t-24 -40t24 -40t58 -15zM784 -31q-142 0 -261.5 47t-200 127t-125.5 188.5t-45 231.5v973
h340v-975q0 -130 78 -216.5t212 -86.5q140 0 220.5 86t80.5 217v975h320v-973q0 -122 -45 -231t-124.5 -189t-196 -127t-253.5 -47z" />
    <glyph glyph-name="uring" unicode="&#x16f;" horiz-adv-x="1226" 
d="M494 -31q-99 0 -173 33.5t-116.5 93.5t-63 133.5t-20.5 161.5v643h309v-585q0 -203 164 -203q100 0 146 60.5t46 146.5v581h310v-1034h-289l-14 137q-40 -69 -116 -118.5t-183 -49.5zM604 1161q-134 0 -203 54.5t-69 142.5q0 87 69.5 141.5t202.5 54.5q134 0 204.5 -55
t70.5 -141q0 -87 -70.5 -142t-204.5 -55zM604 1296q30 0 51 17t21 45t-20.5 44.5t-51.5 16.5q-29 0 -50.5 -16.5t-21.5 -44.5t21.5 -45t50.5 -17z" />
    <glyph glyph-name="Uhungarumlaut" unicode="&#x170;" horiz-adv-x="1554" 
d="M784 -31q-142 0 -261.5 47t-200 127t-125.5 188.5t-45 231.5v973h340v-975q0 -130 78 -216.5t212 -86.5q140 0 220.5 86t80.5 217v975h320v-973q0 -122 -45 -231t-124.5 -189t-196 -127t-253.5 -47zM440 1649v123l113 163h289l-29 -123l-127 -163h-246zM844 1649v123
l147 163h289v-123l-188 -163h-248z" />
    <glyph glyph-name="uhungarumlaut" unicode="&#x171;" horiz-adv-x="1226" 
d="M494 -31q-99 0 -173 33.5t-116.5 93.5t-63 133.5t-20.5 161.5v643h309v-585q0 -203 164 -203q100 0 146 60.5t46 146.5v581h310v-1034h-289l-14 137q-40 -69 -116 -118.5t-183 -49.5zM301 1229v123l113 184h278l-26 -133l-129 -174h-236zM694 1229v123l148 184h268v-123
l-188 -184h-228z" />
    <glyph glyph-name="Uogonek" unicode="&#x172;" horiz-adv-x="1554" 
d="M1001 -219v-174h-163q-46 3 -86 13.5t-81.5 32.5t-66 63t-24.5 98q0 55 30 97t84 62q-246 29 -394 194.5t-148 395.5v973h340v-975q0 -130 78 -216.5t212 -86.5q140 0 220.5 86t80.5 217v975h320v-973q0 -209 -124 -367.5t-331 -207.5q-50 -18 -73 -42t-23 -65
q0 -31 15.5 -52.5t41 -31t47.5 -13t45 -3.5z" />
    <glyph glyph-name="uogonek" unicode="&#x173;" horiz-adv-x="1226" 
d="M707 -186q0 72 47 123t125 63h-72l-14 137q-40 -69 -116 -118.5t-183 -49.5q-99 0 -173 33.5t-116.5 93.5t-63 133.5t-20.5 161.5v643h309v-585q0 -203 164 -203q100 0 146 60.5t46 146.5v581h310v-1034q-32 -6 -54.5 -15t-42.5 -34t-20 -62q0 -34 15.5 -57t41.5 -33
t47.5 -14t44.5 -4v-174h-163q-46 3 -86 13.5t-81.5 32.5t-66 63t-24.5 98z" />
    <glyph glyph-name="Wcircumflex" unicode="&#x174;" horiz-adv-x="2048" 
d="M1286 0l-264 938l-260 -938h-346l-367 1372v164h316l243 -1055l281 1055h289l272 -1055l254 1055h299v-143l-371 -1393h-346zM1147 1638l-115 119l-114 -119h-238v123l188 164h328l188 -164v-123h-237z" />
    <glyph glyph-name="wcircumflex" unicode="&#x175;" horiz-adv-x="1638" 
d="M999 0l-188 596l-176 -596h-279l-309 891v143h279l190 -616l186 616h254l193 -614l184 614h262v-137l-317 -897h-279zM961 1229l-125 149l-125 -149h-217v123l188 184h307l189 -184v-123h-217z" />
    <glyph glyph-name="Ycircumflex" unicode="&#x176;" horiz-adv-x="1355" 
d="M510 0v614l-496 762v160h299l389 -623l365 623h266v-154l-483 -770v-612h-340zM795 1638l-115 119l-115 -119h-237v123l188 164h328l188 -164v-123h-237z" />
    <glyph glyph-name="ycircumflex" unicode="&#x177;" horiz-adv-x="1138" 
d="M418 -512h-262v143l258 463l-373 797v143h278l265 -606l274 606h256v-137zM715 1229l-125 149l-125 -149h-217v123l188 184h307l189 -184v-123h-217z" />
    <glyph glyph-name="Ydieresis" unicode="&#x178;" horiz-adv-x="1355" 
d="M510 0v614l-496 762v160h299l389 -623l365 623h266v-154l-483 -770v-612h-340zM322 1638v277h307v-277h-307zM741 1638v277h310v-277h-310z" />
    <glyph glyph-name="Zacute" unicode="&#x179;" horiz-adv-x="1316" 
d="M1235 0h-1151v268l729 979h-709v289h1108v-268l-727 -979h750v-289zM506 1649v123l147 163h320v-123l-189 -163h-278z" />
    <glyph glyph-name="zacute" unicode="&#x17a;" horiz-adv-x="1030" 
d="M946 0h-862v231l483 551h-473v252h842v-231l-483 -551h493v-252zM381 1229v123l158 184h295v-123l-201 -184h-252z" />
    <glyph glyph-name="Zdotaccent" unicode="&#x17b;" horiz-adv-x="1316" 
d="M1235 0h-1151v268l729 979h-709v289h1108v-268l-727 -979h750v-289zM485 1638v277h340v-277h-340z" />
    <glyph glyph-name="zdotaccent" unicode="&#x17c;" horiz-adv-x="1030" 
d="M946 0h-862v231l483 551h-473v252h842v-231l-483 -551h493v-252zM369 1229v287h319v-287h-319z" />
    <glyph glyph-name="Zcaron" unicode="&#x17d;" horiz-adv-x="1316" 
d="M1235 0h-1151v268l729 979h-709v289h1108v-268l-727 -979h750v-289zM840 1638h-328l-193 164v123h238l119 -119l110 119h238v-123z" />
    <glyph glyph-name="zcaron" unicode="&#x17e;" horiz-adv-x="1030" 
d="M946 0h-862v231l483 551h-473v252h842v-231l-483 -551h493v-252zM680 1229h-307l-193 184v123h217l129 -150l121 150h217v-123z" />
    <glyph glyph-name="florin" unicode="&#x192;" horiz-adv-x="1470" 
d="M297 -379q-132 1 -215 51t-113 135v138h232q0 -6 4.5 -15t13.5 -20.5t28.5 -19.5t45.5 -9q61 1 89.5 37t41.5 109l117 653h-172v252h217l39 217q36 197 138.5 302t299.5 105q132 0 213.5 -49.5t112.5 -136.5v-139h-230q0 19 -22 41t-72 22q-61 0 -89.5 -34.5
t-41.5 -108.5l-39 -219h287v-252h-332l-117 -653q-17 -94 -48.5 -165.5t-82.5 -126.5t-128 -84t-177 -30z" />
    <glyph glyph-name="Aringacute" unicode="&#x1fa;" horiz-adv-x="1445" 
d="M582 2066v123l147 164h320v-123l-189 -164h-278zM299 0h-272v143l522 1393h346l520 -1372v-164h-295l-119 326h-585zM911 604l-200 565l-201 -565h401zM717 1608q-140 0 -211.5 51.5t-71.5 138.5q0 86 72 138.5t211 52.5q140 0 212 -52.5t72 -138.5q0 -87 -71.5 -138.5
t-212.5 -51.5zM717 1743q34 0 58 15t24 40t-24 40t-58 15t-58 -15t-24 -40t24 -40t58 -15z" />
    <glyph glyph-name="aringacute" unicode="&#x1fb;" horiz-adv-x="1128" 
d="M403 -31q-163 0 -251.5 91.5t-88.5 230.5q0 152 112 236.5t333 84.5q47 0 95 -5t73 -10l24 -5v45q0 172 -170 172q-37 0 -69 -9.5t-51 -23.5t-32.5 -28t-18.5 -24l-5 -9h-233v137q4 9 11.5 23t40.5 51t75.5 65t119.5 51t169 23q473 0 473 -438v-627h-279l-20 131
q-98 -162 -308 -162zM504 207q92 0 144 52.5t52 115.5v45q-72 16 -172 16q-159 0 -159 -117q0 -112 135 -112zM580 1163q-134 0 -203.5 54.5t-69.5 142.5q0 86 69.5 141t203.5 55t204 -55t70 -141q0 -88 -70 -142.5t-204 -54.5zM580 1298q30 0 50.5 17t20.5 45t-20.5 44.5
t-50.5 16.5q-29 0 -50.5 -16.5t-21.5 -44.5t21.5 -45t50.5 -17zM440 1657v123l148 164h319v-123l-188 -164h-279z" />
    <glyph glyph-name="AEacute" unicode="&#x1fc;" horiz-adv-x="2002" 
d="M14 154l781 1382h1106v-289h-625v-325h553v-267h-553v-366h625v-289h-965v315h-487l-177 -315h-258v154zM602 594h334v606zM1214 1649v123l148 163h319v-123l-188 -163h-279z" />
    <glyph glyph-name="aeacute" unicode="&#x1fd;" horiz-adv-x="1837" 
d="M1274 -31q-268 0 -402 174q-129 -174 -409 -174q-186 0 -294 90t-108 232q0 153 115 240t346 87q49 0 98.5 -5t73.5 -10l25 -5v39q0 83 -50.5 127.5t-138.5 44.5q-38 0 -70 -9.5t-51 -23.5t-33 -28t-19 -24l-5 -9h-231v137q4 9 11.5 23t40.5 51t75 65t119 51t168 23
q250 0 372 -150q140 150 361 150q126 0 222 -37t155 -103.5t88.5 -153.5t29.5 -193q0 -32 -3.5 -65t-7.5 -50l-3 -17h-721q12 -107 76 -168t174 -61q52 0 93.5 9.5t64.5 23.5t39 28t21 24l5 9h242v-137q-4 -8 -13 -22t-46 -49.5t-85 -62.5t-135 -49t-190 -22zM1032 633h434
q0 79 -54 132.5t-155 53.5q-179 0 -225 -186zM512 197q95 0 151 53t56 125v28q-72 17 -176 17q-95 0 -135.5 -32.5t-40.5 -80.5q0 -55 38.5 -82.5t106.5 -27.5zM807 1229v123l158 184h295v-123l-201 -184h-252z" />
    <glyph glyph-name="Oslashacute" unicode="&#x1fe;" horiz-adv-x="1691" 
d="M846 -31q-180 0 -332 70l-80 -121h-319l182 272q-102 109 -157.5 258t-55.5 326q0 232 94.5 412t268.5 280.5t399 100.5q183 0 332 -70l79 121h320l-182 -270q102 -107 157.5 -254t55.5 -320q0 -176 -55 -325t-154 -255t-241.5 -165.5t-311.5 -59.5zM414 774
q0 -173 75 -295l525 772q-73 37 -168 37q-197 0 -314.5 -142t-117.5 -372zM846 248q197 0 314.5 145t117.5 381q0 163 -72 285l-528 -776q75 -35 168 -35zM725 1649v123l147 163h320v-123l-188 -163h-279z" />
    <glyph glyph-name="oslashacute" unicode="&#x1ff;" horiz-adv-x="1241" 
d="M621 -31q-127 0 -228 43l-90 -133h-225l158 234q-162 159 -162 407q0 152 64 274.5t190 196.5t293 74q128 0 229 -43l84 125h225l-151 -225q77 -75 118 -178.5t41 -223.5q0 -153 -64 -277t-190 -199t-292 -75zM371 522q0 -104 32 -157l293 430q-35 12 -75 12
q-119 0 -184.5 -81.5t-65.5 -203.5zM621 221q118 0 183.5 86t65.5 215q0 90 -32 144l-295 -433q35 -12 78 -12zM487 1229v123l158 184h295v-123l-201 -184h-252z" />
    <glyph glyph-name="Scommaaccent" unicode="&#x218;" horiz-adv-x="1323" 
d="M664 -31q-225 0 -369 87t-197 225v153h269q66 -186 303 -186q109 0 174 47.5t65 132.5q0 75 -54 121t-171 72l-141 26q-213 42 -325 155.5t-112 297.5q0 219 152 343t408 124q211 0 349.5 -81.5t170.5 -223.5v-156h-266q-47 182 -263 182q-105 0 -163 -46t-58 -124
q0 -64 48.5 -106t156.5 -66l147 -33q216 -44 333.5 -161.5t117.5 -305.5q0 -218 -158 -347.5t-417 -129.5zM532 -420l-10 314h320v-148l-113 -166h-197z" />
    <glyph glyph-name="scommaaccent" unicode="&#x219;" horiz-adv-x="1040" 
d="M528 -31q-100 0 -185 22t-137 55.5t-84 66t-42 61.5v139h231q9 -35 68 -76.5t153 -41.5q160 0 160 98q0 47 -38.5 70t-118.5 36l-132 17q-309 42 -309 309q0 151 114 245.5t308 94.5q168 0 269.5 -55t138.5 -142v-139h-234q-2 11 -12.5 27.5t-30.5 36.5t-56.5 33.5
t-80.5 13.5q-70 0 -104.5 -27t-34.5 -72q0 -78 131 -100l131 -18q162 -24 249 -93.5t87 -210.5q0 -157 -117.5 -253.5t-323.5 -96.5zM389 -420l-10 314h319v-148l-112 -166h-197z" />
    <glyph glyph-name="uni0237" unicode="&#x237;" horiz-adv-x="569" 
d="M47 -532q-130 0 -210.5 51.5t-110.5 136.5v147h231q0 -23 20 -48t64 -25q51 0 70.5 32t19.5 109v1163h307v-1165q0 -187 -100 -294t-291 -107z" />
    <glyph glyph-name="circumflex" unicode="&#x2c6;" horiz-adv-x="1024" 
d="M563 1229l-125 149l-125 -149h-217v123l189 184h307l188 -184v-123h-217z" />
    <glyph glyph-name="caron" unicode="&#x2c7;" horiz-adv-x="868" 
d="M596 1229h-307l-193 184v123h217l129 -150l121 150h217v-123z" />
    <glyph glyph-name="breve" unicode="&#x2d8;" horiz-adv-x="843" 
d="M446 1204q-71 0 -129 15t-90.5 37t-55 44t-30.5 37l-8 15v153h164q1 -3 4 -9t15 -21t27.5 -26t43 -20.5t59.5 -9.5q33 0 59.5 9t41 21.5t24.5 25t13 21.5l4 9h164v-153q-2 -6 -7.5 -16t-29 -35.5t-54.5 -45t-88.5 -35.5t-126.5 -16z" />
    <glyph glyph-name="dotaccent" unicode="&#x2d9;" horiz-adv-x="532" 
d="M154 1229v287h319v-287h-319z" />
    <glyph glyph-name="ring" unicode="&#x2da;" horiz-adv-x="1024" 
d="M463 1161q-134 0 -203.5 54.5t-69.5 142.5q0 86 69.5 141t203.5 55t204 -55t70 -141q0 -88 -70 -142.5t-204 -54.5zM463 1296q30 0 51 17t21 45t-20.5 44.5t-51.5 16.5q-29 0 -50.5 -16.5t-21.5 -44.5t21.5 -45t50.5 -17z" />
    <glyph glyph-name="ogonek" unicode="&#x2db;" horiz-adv-x="604" 
d="M356 -393q-46 3 -86 13.5t-81.5 32.5t-66 63t-24.5 98q0 72 47 123t125 63h217q-23 -5 -40.5 -11t-36 -18t-29 -33t-10.5 -49q0 -34 15.5 -57t41.5 -33t47.5 -14t44.5 -4v-174h-164z" />
    <glyph glyph-name="tilde" unicode="&#x2dc;" horiz-adv-x="925" 
d="M662 1227q-43 0 -81 11t-60 24.5t-51.5 24.5t-59.5 11q-56 0 -72 -61h-195q-8 126 50 203.5t167 77.5q57 0 98.5 -17.5t75 -35t68.5 -17.5q60 0 70 59h194q8 -130 -42.5 -205t-161.5 -75z" />
    <glyph glyph-name="hungarumlaut" unicode="&#x2dd;" horiz-adv-x="991" 
d="M94 1229v123l113 184h278l-26 -133l-129 -174h-236zM487 1229v123l148 184h268v-123l-188 -184h-228z" />
    <glyph glyph-name="afii10023" unicode="&#x401;" horiz-adv-x="1234" 
d="M168 0v1536h965v-289h-625v-325h553v-267h-553v-366h625v-289h-965zM289 1638v277h307v-277h-307zM709 1638v277h309v-277h-309z" />
    <glyph glyph-name="afii10051" unicode="&#x402;" horiz-adv-x="1712" 
d="M1192 -20q-94 0 -184 20v276q94 -14 137 -14q85 0 133.5 59t48.5 164q0 108 -61 165t-172 57q-126 0 -200.5 -67t-74.5 -169v-471h-340v1247h-438v289h1219v-289h-441v-395q52 69 143 110.5t212 41.5q228 0 360.5 -141.5t132.5 -368.5t-131 -370.5t-344 -143.5z" />
    <glyph glyph-name="afii10052" unicode="&#x403;" horiz-adv-x="1144" 
d="M516 1649v123l148 163h319v-123l-188 -163h-279zM168 0v1536h934v-289h-594v-1247h-340z" />
    <glyph glyph-name="afii10053" unicode="&#x404;" horiz-adv-x="1513" 
d="M1432 299q-8 -36 -35.5 -78.5t-78.5 -87.5t-117.5 -81t-161 -59.5t-199.5 -23.5q-178 0 -321 58.5t-237.5 164.5t-145 252.5t-50.5 323.5q0 234 93 415.5t265 282.5t396 101q98 0 183 -16.5t145 -44t107.5 -61t77 -70.5t46.5 -68.5t22 -59.5v-155h-268q-5 24 -23.5 52
t-52.5 60t-96 53t-139 21q-163 0 -271 -97.5t-131 -267.5h625v-268h-627q19 -178 127.5 -281.5t276.5 -103.5q76 0 138.5 22t99 55.5t57 63.5t26.5 54h269v-156z" />
    <glyph glyph-name="afii10054" unicode="&#x405;" horiz-adv-x="1323" 
d="M664 -31q-225 0 -369 87t-197 225v153h269q66 -186 303 -186q109 0 174 47.5t65 132.5q0 75 -54 121t-171 72l-141 26q-213 42 -325 155.5t-112 297.5q0 219 152 343t408 124q211 0 349.5 -81.5t170.5 -223.5v-156h-266q-47 182 -263 182q-105 0 -163 -46t-58 -124
q0 -64 48.5 -106t156.5 -66l147 -33q216 -44 333.5 -161.5t117.5 -305.5q0 -218 -158 -347.5t-417 -129.5z" />
    <glyph glyph-name="afii10055" unicode="&#x406;" horiz-adv-x="675" 
d="M168 0v1536h340v-1536h-340z" />
    <glyph glyph-name="afii10056" unicode="&#x407;" horiz-adv-x="675" 
d="M-27 1638v277h308v-277h-308zM393 1638v277h309v-277h-309zM168 0v1536h340v-1536h-340z" />
    <glyph glyph-name="afii10057" unicode="&#x408;" horiz-adv-x="1062" 
d="M459 -31q-86 0 -157 19t-115.5 48t-77 66t-47 68.5t-19.5 60.5v154h266q0 -47 31 -87t96 -40q69 0 101 42.5t32 156.5v1079h338v-1067q0 -500 -448 -500z" />
    <glyph glyph-name="afii10058" unicode="&#x409;" horiz-adv-x="2138" 
d="M39 0v311h53q97 0 143 121t52 379l14 725h1028v-502h166q138 0 250.5 -39.5t186.5 -108t113.5 -160.5t39.5 -198q0 -109 -39 -204.5t-112 -168t-186 -114t-253 -41.5h-506v1247h-385l-8 -446q-3 -156 -18.5 -277t-48.5 -222t-84 -166t-127 -100.5t-175 -35.5h-104z
M1323 283h170q117 0 184.5 64.5t67.5 176.5q0 97 -68 162.5t-184 65.5h-170v-469z" />
    <glyph glyph-name="afii10059" unicode="&#x40a;" horiz-adv-x="2213" 
d="M508 676v-676h-340v1536h340v-573h551v573h340v-573h184q273 0 427.5 -131t154.5 -338q0 -104 -38 -193.5t-110 -156.5t-183.5 -105.5t-250.5 -38.5h-524v676h-551zM1393 283h188q116 0 180 52t64 152q0 88 -64.5 140.5t-179.5 52.5h-188v-397z" />
    <glyph glyph-name="afii10060" unicode="&#x40b;" horiz-adv-x="1722" 
d="M479 0v1247h-438v289h1219v-289h-441v-395q44 69 136 110.5t214 41.5q219 0 344 -136.5t125 -384.5v-483h-340v455q0 123 -60 187.5t-173 64.5q-116 0 -181 -67.5t-65 -172.5v-467h-340z" />
    <glyph glyph-name="afii10061" unicode="&#x40c;" horiz-adv-x="1421" 
d="M625 1649v123l147 163h320v-123l-189 -163h-278zM508 668v-668h-340v1536h340v-659l555 659h268v-154l-502 -583l560 -639v-160h-299z" />
    <glyph glyph-name="afii10062" unicode="&#x40e;" horiz-adv-x="1343" 
d="M602 0h-268v154l180 315l-489 907v160h299l378 -717l359 717h268v-154zM702 1647q-80 0 -147.5 18t-108.5 45t-65 51.5t-33 44.5v136h238q-1 -17 8.5 -43t38 -51t69.5 -25q54 0 85.5 44t31.5 75h238v-136q-9 -20 -33 -44.5t-65 -51.5t-109 -45t-148 -18z" />
    <glyph glyph-name="afii10145" unicode="&#x40f;" horiz-adv-x="1597" 
d="M643 -307v307h-475v1536h340v-1247h582v1247h340v-1536h-478v-307h-309z" />
    <glyph glyph-name="afii10017" unicode="&#x410;" horiz-adv-x="1445" 
d="M299 0h-272v143l522 1393h346l520 -1372v-164h-295l-119 326h-585zM911 604l-200 565l-201 -565h401z" />
    <glyph glyph-name="afii10018" unicode="&#x411;" horiz-adv-x="1355" 
d="M168 0v1536h1003v-289h-663v-284h205q272 0 426.5 -130.5t154.5 -334.5q0 -104 -38.5 -194.5t-110 -158t-183 -106.5t-249.5 -39h-545zM502 283h209q114 0 178.5 56t64.5 159q0 90 -65 146t-178 56h-209v-417z" />
    <glyph glyph-name="afii10019" unicode="&#x412;" horiz-adv-x="1406" 
d="M168 0v1536h612q224 0 355 -112t131 -300q0 -113 -54.5 -197.5t-150.5 -121.5q123 -38 192.5 -130.5t69.5 -215.5q0 -212 -142.5 -335.5t-392.5 -123.5h-620zM494 918h233q96 0 151.5 46t55.5 126t-53 128t-146 48h-241v-348zM494 270h260q111 0 173 57t62 144
q0 85 -59.5 136.5t-173.5 51.5h-262v-389z" />
    <glyph glyph-name="afii10020" unicode="&#x413;" horiz-adv-x="1144" 
d="M168 0v1536h934v-289h-594v-1247h-340z" />
    <glyph glyph-name="afii10021" unicode="&#x414;" horiz-adv-x="1671" 
d="M23 -307v596h124q18 14 42.5 54.5t53 110t50.5 182.5t26 243l19 657h1069v-1247h215v-596h-309v307h-981v-307h-309zM489 289h578v958h-428l-12 -385q-5 -129 -22 -236t-41.5 -174.5t-41 -103t-33.5 -59.5z" />
    <glyph glyph-name="afii10022" unicode="&#x415;" horiz-adv-x="1234" 
d="M168 0v1536h965v-289h-625v-325h553v-267h-553v-366h625v-289h-965z" />
    <glyph glyph-name="afii10024" unicode="&#x416;" horiz-adv-x="2070" 
d="M870 668l-530 -668h-293v160l502 628l-467 590v158h276l512 -657v657h330v-657l514 657h268v-154l-462 -579l510 -643v-160h-299l-531 668v-668h-330v668z" />
    <glyph glyph-name="afii10025" unicode="&#x417;" horiz-adv-x="1282" 
d="M637 -31q-106 0 -198 22.5t-153 57t-107.5 78.5t-70 85t-30.5 79v153h268q3 -20 13 -43.5t32 -51t52.5 -49t78.5 -36t105 -14.5q115 0 177 56.5t62 150.5q0 92 -61.5 145t-188.5 53h-184v258h160q105 0 162 55t57 142q0 80 -59.5 129t-147.5 49q-60 0 -106.5 -17.5
t-72 -46t-38.5 -56.5t-16 -56h-269v154q7 34 27 71.5t62 79t98 74.5t143 54.5t189 21.5q234 0 376 -113t142 -311q0 -111 -58.5 -199t-160.5 -131q130 -34 203 -129.5t73 -232.5q0 -219 -148 -350.5t-411 -131.5z" />
    <glyph glyph-name="afii10026" unicode="&#x418;" horiz-adv-x="1646" 
d="M168 0v1536h340v-1020l633 1020h338v-1536h-338v1012l-633 -1012h-340z" />
    <glyph glyph-name="afii10027" unicode="&#x419;" horiz-adv-x="1646" 
d="M168 0v1536h340v-1020l633 1020h338v-1536h-338v1012l-633 -1012h-340zM831 1647q-80 0 -147.5 18t-108.5 45t-65 51.5t-33 44.5v136h238q-1 -17 8.5 -43t38 -51t69.5 -25q54 0 85.5 44t31.5 75h238v-136q-9 -20 -33 -44.5t-65 -51.5t-109 -45t-148 -18z" />
    <glyph glyph-name="afii10028" unicode="&#x41a;" horiz-adv-x="1421" 
d="M508 668v-668h-340v1536h340v-659l555 659h268v-154l-502 -583l560 -639v-160h-299z" />
    <glyph glyph-name="afii10029" unicode="&#x41b;" horiz-adv-x="1507" 
d="M39 0v311h53q97 0 143 121t52 379l14 725h1038v-1536h-340v1247h-395l-8 -446q-3 -156 -18.5 -277t-48.5 -222t-84 -166t-127 -100.5t-175 -35.5h-104z" />
    <glyph glyph-name="afii10030" unicode="&#x41c;" horiz-adv-x="1906" 
d="M829 326l-342 723v-1049h-319v1536h418l372 -782l365 782h416v-1536h-338v1049l-344 -723h-228z" />
    <glyph glyph-name="afii10031" unicode="&#x41d;" horiz-adv-x="1617" 
d="M168 0v1536h340v-604h602v604h340v-1536h-340v645h-602v-645h-340z" />
    <glyph glyph-name="afii10032" unicode="&#x41e;" horiz-adv-x="1691" 
d="M846 -31q-169 0 -311.5 59.5t-241.5 165.5t-154 255t-55 325q0 232 94.5 412t268.5 280.5t399 100.5t399 -100.5t268.5 -280.5t94.5 -412q0 -176 -55 -325t-154 -255t-241.5 -165.5t-311.5 -59.5zM846 258q192 0 307 142t115 374q0 226 -115 365t-307 139t-307 -139
t-115 -365q0 -232 115 -374t307 -142z" />
    <glyph glyph-name="afii10033" unicode="&#x41f;" horiz-adv-x="1597" 
d="M168 0v1536h1262v-1536h-340v1247h-582v-1247h-340z" />
    <glyph glyph-name="afii10034" unicode="&#x420;" horiz-adv-x="1316" 
d="M168 0v1536h494q271 0 431 -137t160 -369q0 -103 -38 -196.5t-109.5 -168.5t-186.5 -119t-257 -44h-154v-502h-340zM502 784h157q117 0 185.5 67t68.5 177q0 99 -67.5 162t-186.5 63h-157v-469z" />
    <glyph glyph-name="afii10035" unicode="&#x421;" horiz-adv-x="1492" 
d="M838 -31q-231 0 -402.5 101.5t-260.5 281.5t-89 416q0 238 93 419.5t264 280.5t395 99q117 0 215 -24t160.5 -59.5t109 -81t68.5 -83.5t30 -72v-155h-268q-5 26 -23.5 54.5t-52.5 60t-95.5 51.5t-139.5 20q-191 0 -303.5 -136.5t-112.5 -371.5q0 -232 113 -371t303 -139
q76 0 138.5 21.5t99 54.5t57 63t26.5 56h269v-156q-11 -39 -37.5 -81.5t-76.5 -87.5t-115 -80.5t-160.5 -58t-204.5 -22.5z" />
    <glyph glyph-name="afii10036" unicode="&#x422;" horiz-adv-x="1300" 
d="M479 0v1247h-438v289h1219v-289h-441v-1247h-340z" />
    <glyph glyph-name="afii10037" unicode="&#x423;" horiz-adv-x="1343" 
d="M602 0h-268v154l180 315l-489 907v160h299l378 -717l359 717h268v-154z" />
    <glyph glyph-name="afii10038" unicode="&#x424;" horiz-adv-x="1826" 
d="M743 -20v161q-150 3 -277 54.5t-214 137t-135.5 199.5t-48.5 242q0 127 48.5 240.5t135.5 198.5t214 136t277 54v153h340v-153q150 -3 277.5 -54.5t214 -137t135.5 -199.5t49 -242q0 -127 -49 -240.5t-135.5 -198.5t-214 -136t-277.5 -54v-161h-340zM743 416v714
q-160 -6 -251 -107t-91 -249q0 -150 90.5 -251t251.5 -107zM1083 414q160 6 251 107t91 249q0 150 -90.5 251t-251.5 107v-714z" />
    <glyph glyph-name="afii10039" unicode="&#x425;" horiz-adv-x="1413" 
d="M55 0v154l451 624l-428 598v160h299l354 -512l332 512h268v-154l-420 -594l449 -628v-160h-299l-371 541l-366 -541h-269z" />
    <glyph glyph-name="afii10040" unicode="&#x426;" horiz-adv-x="1697" 
d="M1335 -307v307h-1167v1536h340v-1247h582v1247h340v-1247h215v-596h-310z" />
    <glyph glyph-name="afii10041" unicode="&#x427;" horiz-adv-x="1464" 
d="M956 0v561h-239q-317 0 -474 141.5t-157 450.5v383h340v-383q0 -159 70.5 -234t224.5 -75h235v692h340v-1536h-340z" />
    <glyph glyph-name="afii10042" unicode="&#x428;" horiz-adv-x="2150" 
d="M168 0v1536h340v-1247h397v1247h340v-1247h397v1247h340v-1536h-1814z" />
    <glyph glyph-name="afii10043" unicode="&#x429;" horiz-adv-x="2250" 
d="M1888 -307v307h-1720v1536h340v-1247h397v1247h340v-1247h397v1247h340v-1247h216v-596h-310z" />
    <glyph glyph-name="afii10044" unicode="&#x42a;" horiz-adv-x="1527" 
d="M885 0h-516v1247h-328v289h668v-502h176q138 0 250.5 -39.5t186.5 -108t113.5 -160.5t39.5 -198q0 -109 -39 -204.5t-112 -168t-186 -114t-253 -41.5zM702 283h181q117 0 184.5 64.5t67.5 176.5q0 97 -68 162.5t-184 65.5h-181v-469z" />
    <glyph glyph-name="afii10045" unicode="&#x42b;" horiz-adv-x="1923" 
d="M168 0v1536h340v-502h174q139 0 252 -39.5t186.5 -108t113.5 -160.5t40 -198q0 -109 -39 -204.5t-112 -168t-186.5 -114t-254.5 -41.5h-514zM1415 0v1536h340v-1536h-340zM502 283h178q119 0 186.5 64.5t67.5 176.5q0 97 -68 162.5t-186 65.5h-178v-469z" />
    <glyph glyph-name="afii10046" unicode="&#x42c;" horiz-adv-x="1327" 
d="M168 0v1536h340v-502h174q139 0 252 -39.5t186.5 -108t113.5 -160.5t40 -198q0 -109 -39 -204.5t-112 -168t-186.5 -114t-254.5 -41.5h-514zM502 283h178q119 0 186.5 64.5t67.5 176.5q0 97 -68 162.5t-186 65.5h-178v-469z" />
    <glyph glyph-name="afii10047" unicode="&#x42d;" horiz-adv-x="1509" 
d="M692 -31q-107 0 -202 21.5t-163 55.5t-121 78t-83.5 88t-42.5 87v156h266q5 -18 18.5 -40t42 -50.5t65.5 -51t94.5 -38t123.5 -15.5q173 0 269.5 102t115.5 283h-600v268h600q-19 170 -115.5 267.5t-263.5 97.5q-80 0 -146 -21.5t-103.5 -53.5t-58.5 -60.5t-26 -50.5
h-268v155q8 31 32 69t73.5 83t115 82t166 61.5t215.5 24.5q225 0 391 -101.5t251 -280.5t85 -413q0 -238 -84.5 -418t-251 -282.5t-395.5 -102.5z" />
    <glyph glyph-name="afii10048" unicode="&#x42e;" horiz-adv-x="2217" 
d="M1401 -31q-197 0 -353.5 87t-250.5 239t-119 350h-170v-645h-340v1536h340v-604h176q21 140 81.5 256.5t151.5 200.5t215.5 131t268.5 47q219 0 386 -103t256 -282.5t89 -407.5q0 -231 -89 -413.5t-256 -287t-386 -104.5zM1401 258q182 0 287.5 144t105.5 372
q0 222 -106 363t-287 141q-120 0 -209.5 -66t-135.5 -179.5t-46 -258.5q0 -228 105 -372t286 -144z" />
    <glyph glyph-name="afii10049" unicode="&#x42f;" horiz-adv-x="1402" 
d="M895 553h-158l-383 -553h-282v160l342 471q-127 47 -206 157t-79 256q0 227 156 359.5t420 132.5h530v-1536h-340v553zM707 825h194v428h-194q-112 0 -175 -57.5t-63 -153.5q0 -97 64.5 -157t173.5 -60z" />
    <glyph glyph-name="afii10065" unicode="&#x430;" horiz-adv-x="1128" 
d="M403 -31q-163 0 -251.5 91.5t-88.5 230.5q0 152 112 236.5t333 84.5q47 0 95 -5t73 -10l24 -5v45q0 172 -170 172q-37 0 -69 -9.5t-51 -23.5t-32.5 -28t-18.5 -24l-5 -9h-233v137q4 9 11.5 23t40.5 51t75.5 65t119.5 51t169 23q473 0 473 -438v-627h-279l-20 131
q-98 -162 -308 -162zM504 207q92 0 144 52.5t52 115.5v45q-72 16 -172 16q-159 0 -159 -117q0 -112 135 -112z" />
    <glyph glyph-name="afii10066" unicode="&#x431;" horiz-adv-x="1284" 
d="M657 -31q-261 0 -407 165.5t-146 455.5v168q0 133 16 237.5t56 197.5t105 157.5t164.5 107t232.5 55.5l113 11q52 5 86.5 19t43.5 25l9 11h221v-137q-35 -84 -107.5 -126t-226.5 -59l-137 -14q-116 -13 -180.5 -54.5t-92 -117t-32.5 -207.5q48 90 139 140.5t209 50.5
q151 0 262.5 -70.5t168 -192.5t56.5 -278q0 -150 -66 -273.5t-193.5 -197.5t-293.5 -74zM657 238q118 0 182 77.5t64 198.5q0 118 -64 195t-182 77q-120 0 -181.5 -76t-61.5 -196q0 -122 62.5 -199t180.5 -77z" />
    <glyph glyph-name="afii10067" unicode="&#x432;" horiz-adv-x="1138" 
d="M131 0v1044h524q167 0 267 -71t100 -201q0 -76 -40.5 -134t-113.5 -87q93 -28 144 -90.5t51 -149.5q0 -153 -104 -232t-281 -79h-547zM428 645h166q121 0 121 94q0 90 -121 90h-166v-184zM428 215h184q144 0 144 107q0 106 -144 106h-184v-213z" />
    <glyph glyph-name="afii10068" unicode="&#x433;" horiz-adv-x="907" 
d="M131 0v1034h737v-252h-428v-782h-309z" />
    <glyph glyph-name="afii10069" unicode="&#x434;" horiz-adv-x="1304" 
d="M29 -287v535h100q74 54 92 325l31 461h844v-786h153v-535h-278v287h-664v-287h-278zM418 248h375v543h-289l-19 -250q-13 -192 -67 -293z" />
    <glyph glyph-name="afii10070" unicode="&#x435;" horiz-adv-x="1193" 
d="M631 -31q-136 0 -243.5 41.5t-175.5 116t-103 172.5t-35 215q0 114 36.5 214t104.5 175t172 118.5t231 43.5q128 0 225.5 -37t157 -103.5t89.5 -153.5t30 -193q0 -32 -3.5 -65t-6.5 -50l-4 -17h-721q14 -108 77.5 -168.5t174.5 -60.5q52 0 93.5 9.5t64 23.5t38 28
t20.5 24l5 9h242v-137q-4 -8 -13 -22t-46 -49.5t-85 -62.5t-135 -49t-190 -22zM391 633h432q0 79 -54 132.5t-153 53.5q-182 0 -225 -186z" />
    <glyph glyph-name="afii10072" unicode="&#x436;" horiz-adv-x="1675" 
d="M66 0v143l311 394l-309 362v135h268l346 -422v422h309v-422l342 422h264v-137l-299 -358l320 -396v-143h-285l-342 449v-449h-309v446l-336 -446h-280z" />
    <glyph glyph-name="afii10073" unicode="&#x437;" horiz-adv-x="1038" 
d="M508 -31q-60 0 -114.5 9.5t-92.5 21t-75 34t-56.5 36.5t-44 41t-30 34.5t-21.5 28.5v137h243q12 -22 23 -37t33 -36t56.5 -32t78.5 -11q82 0 122 31.5t40 86.5q0 109 -166 109h-154v196h144q139 0 139 113q0 49 -34.5 78t-102.5 29q-72 0 -113.5 -35.5t-60.5 -79.5h-238
v139q17 25 30.5 42t52 50.5t81.5 55t114.5 38.5t155.5 17q192 0 299 -76t107 -215q0 -167 -160 -225q98 -29 148.5 -94.5t50.5 -159.5q0 -157 -117.5 -241.5t-337.5 -84.5z" />
    <glyph glyph-name="afii10074" unicode="&#x438;" horiz-adv-x="1265" 
d="M131 0v1034h309v-614l396 614h299v-1034h-310v614l-395 -614h-299z" />
    <glyph glyph-name="afii10075" unicode="&#x439;" horiz-adv-x="1265" 
d="M131 0v1034h309v-614l396 614h299v-1034h-310v614l-395 -614h-299zM635 1194q-80 0 -145 21t-102 52.5t-57.5 58.5t-27.5 50v131h221q-1 -16 3.5 -35.5t15.5 -40.5t35 -35t57 -14q40 0 67.5 24.5t36.5 51t9 49.5h221v-131q-7 -23 -27.5 -50t-58 -58.5t-103 -52.5
t-145.5 -21z" />
    <glyph glyph-name="afii10076" unicode="&#x43a;" horiz-adv-x="1144" 
d="M131 0v1034h309v-420l355 420h262v-137l-305 -356l342 -398v-143h-289l-365 446v-446h-309z" />
    <glyph glyph-name="afii10077" unicode="&#x43b;" horiz-adv-x="1181" 
d="M47 0v264h21q83 3 118.5 62t38.5 190l11 518h815v-1034h-308v786h-243l-6 -307q-2 -86 -13 -155.5t-36 -131t-63.5 -103t-99 -65.5t-139.5 -24h-96z" />
    <glyph glyph-name="afii10078" unicode="&#x43c;" horiz-adv-x="1540" 
d="M649 180l-235 457v-637h-283v1034h381l262 -508l256 508h379v-1034h-299v641l-238 -461h-223z" />
    <glyph glyph-name="afii10079" unicode="&#x43d;" horiz-adv-x="1245" 
d="M131 0v1034h309v-383h365v383h309v-1034h-309v399h-365v-399h-309z" />
    <glyph glyph-name="afii10080" unicode="&#x43e;" horiz-adv-x="1241" 
d="M621 -31q-167 0 -293 75t-190 199t-64 277q0 152 64 274.5t190 196.5t293 74q166 0 292 -74t190 -196.5t64 -274.5q0 -153 -64 -277t-190 -199t-292 -75zM621 238q116 0 176.5 79t60.5 203q0 121 -60.5 199t-176.5 78t-177 -78t-61 -199q0 -124 61 -203t177 -79z" />
    <glyph glyph-name="afii10081" unicode="&#x43f;" horiz-adv-x="1224" 
d="M131 0v1034h963v-1034h-310v782h-344v-782h-309z" />
    <glyph glyph-name="afii10082" unicode="&#x440;" horiz-adv-x="1314" 
d="M131 -512v1546h289l14 -147q52 83 142 130.5t202 47.5q142 0 248.5 -74t159.5 -196.5t53 -274.5q0 -155 -55.5 -279.5t-161.5 -198t-244 -73.5q-110 0 -196.5 44.5t-141.5 125.5v-651h-309zM684 248q118 0 182 76t64 196q0 117 -64.5 191.5t-181.5 74.5
q-109 0 -176.5 -75.5t-67.5 -190.5q0 -117 67.5 -194.5t176.5 -77.5z" />
    <glyph glyph-name="afii10083" unicode="&#x441;" horiz-adv-x="1120" 
d="M614 -31q-132 0 -236.5 43t-170 118t-99.5 172.5t-34 211.5q0 153 63 277.5t187.5 200t289.5 75.5q71 0 133 -13.5t104 -34.5t76.5 -47t54 -52t33 -47t18.5 -35l5 -13v-137h-231q-1 5 -4 12t-17.5 26.5t-33.5 34t-56 26.5t-82 12q-113 0 -172 -80.5t-59 -204.5
q0 -122 59 -199t172 -77q48 0 85.5 11.5t57 27.5t32.5 32t17 27l3 12h231v-137q-2 -5 -5.5 -13.5t-18.5 -34t-34.5 -48t-54.5 -50.5t-77 -48t-103.5 -34t-132.5 -14z" />
    <glyph glyph-name="afii10084" unicode="&#x442;" horiz-adv-x="983" 
d="M336 0v782h-295v252h901v-252h-297v-782h-309z" />
    <glyph glyph-name="afii10085" unicode="&#x443;" horiz-adv-x="1138" 
d="M418 -512h-262v143l258 463l-373 797v143h278l265 -606l274 606h256v-137z" />
    <glyph glyph-name="afii10086" unicode="&#x444;" horiz-adv-x="1564" 
d="M629 -512v485q-167 5 -295 78.5t-195 195.5t-67 273q0 228 152.5 381t404.5 162v371h307v-371q166 -5 294 -79t195.5 -196.5t67.5 -271.5q0 -112 -39.5 -210t-111 -170.5t-176.5 -115.5t-230 -47v-485h-307zM629 242v553q-117 -3 -182.5 -80t-65.5 -195q0 -119 65.5 -197
t182.5 -81zM936 242q115 3 181.5 80t66.5 194q0 119 -66.5 197.5t-181.5 81.5v-553z" />
    <glyph glyph-name="afii10087" unicode="&#x445;" horiz-adv-x="1144" 
d="M63 0v139l324 387l-317 365v143h282l234 -299l231 299h258v-137l-319 -375l325 -379v-143h-282l-242 309l-235 -309h-259z" />
    <glyph glyph-name="afii10088" unicode="&#x446;" horiz-adv-x="1302" 
d="M969 -287v287h-838v1034h309v-786h344v786h310v-786h153v-535h-278z" />
    <glyph glyph-name="afii10089" unicode="&#x447;" horiz-adv-x="1153" 
d="M713 0v334h-168q-242 0 -356.5 100.5t-114.5 315.5v284h309v-284q0 -89 41.5 -128.5t128.5 -39.5h160v452h309v-1034h-309z" />
    <glyph glyph-name="afii10090" unicode="&#x448;" horiz-adv-x="1677" 
d="M131 0v1034h309v-786h244v786h309v-786h244v786h309v-1034h-1415z" />
    <glyph glyph-name="afii10091" unicode="&#x449;" horiz-adv-x="1755" 
d="M1421 -287v287h-1290v1034h309v-786h244v786h309v-786h244v786h309v-786h154v-535h-279z" />
    <glyph glyph-name="afii10092" unicode="&#x44a;" horiz-adv-x="1267" 
d="M770 0h-463v786h-266v248h575v-311h158q219 0 332 -96.5t113 -255.5q0 -166 -113.5 -268.5t-335.5 -102.5zM616 231h129q75 0 116.5 34t41.5 102q0 61 -40.5 93t-114.5 32h-132v-261z" />
    <glyph glyph-name="afii10093" unicode="&#x44b;" horiz-adv-x="1579" 
d="M131 0v1034h309v-311h158q219 0 331.5 -96.5t112.5 -255.5q0 -166 -113 -268.5t-335 -102.5h-463zM1139 0v1034h309v-1034h-309zM440 231h129q75 0 116.5 34t41.5 102q0 61 -41 93t-115 32h-131v-261z" />
    <glyph glyph-name="afii10094" unicode="&#x44c;" horiz-adv-x="1091" 
d="M131 0v1034h309v-311h158q219 0 331.5 -96.5t112.5 -255.5q0 -166 -113 -268.5t-335 -102.5h-463zM440 223h129q78 0 121 35.5t43 108.5q0 64 -42.5 97.5t-119.5 33.5h-131v-275z" />
    <glyph glyph-name="afii10095" unicode="&#x44d;" horiz-adv-x="1118" 
d="M506 -31q-92 0 -170 24t-123.5 58t-77.5 68t-45 58l-12 24v137h233q2 -5 5.5 -13t19.5 -28t36 -35.5t55.5 -28t78.5 -12.5q98 0 153 54t64 151h-344v188h342q-9 94 -64 145.5t-151 51.5q-43 0 -79 -11.5t-56 -28t-34 -33.5t-19 -28l-5 -12h-233v138q4 9 12 25t42.5 55.5
t78 70t122 55.5t171.5 25q127 0 230.5 -43.5t170 -119.5t102 -176t35.5 -214t-34 -211.5t-99.5 -172.5t-169.5 -118t-235 -43z" />
    <glyph glyph-name="afii10096" unicode="&#x44e;" horiz-adv-x="1687" 
d="M1077 -31q-210 0 -346 121t-170 313h-121v-403h-309v1034h309v-383h123q38 185 173 299.5t341 114.5q163 0 287 -74t187 -196.5t63 -274.5q0 -153 -63 -277t-187 -199t-287 -75zM1077 242q113 0 170.5 77.5t57.5 200.5q0 120 -57.5 196.5t-170.5 76.5t-171 -76.5
t-58 -196.5q0 -123 58 -200.5t171 -77.5z" />
    <glyph glyph-name="afii10097" unicode="&#x44f;" horiz-adv-x="1138" 
d="M698 346h-92l-274 -346h-248v139l223 252q-105 39 -161 113t-56 178q0 154 112 253t330 99h476v-1034h-310v346zM557 551h141v264h-141q-74 0 -116 -34t-42 -101q0 -63 41 -96t117 -33z" />
    <glyph glyph-name="afii10071" unicode="&#x451;" horiz-adv-x="1193" 
d="M631 -31q-136 0 -243.5 41.5t-175.5 116t-103 172.5t-35 215q0 114 36.5 214t104.5 175t172 118.5t231 43.5q128 0 225.5 -37t157 -103.5t89.5 -153.5t30 -193q0 -32 -3.5 -65t-6.5 -50l-4 -17h-721q14 -108 77.5 -168.5t174.5 -60.5q52 0 93.5 9.5t64 23.5t38 28
t20.5 24l5 9h242v-137q-4 -8 -13 -22t-46 -49.5t-85 -62.5t-135 -49t-190 -22zM391 633h432q0 79 -54 132.5t-153 53.5q-182 0 -225 -186zM258 1229v287h297v-287h-297zM678 1229v287h299v-287h-299z" />
    <glyph glyph-name="afii10099" unicode="&#x452;" horiz-adv-x="1232" 
d="M612 -270q106 0 149.5 45t43.5 157v654q0 202 -170 202q-54 0 -93.5 -17.5t-61.5 -48t-32 -65.5t-10 -75v-582h-309v1167h-149v222h149v147h309v-147h297v-222h-297v-260q41 65 119 111.5t184 46.5q80 0 143.5 -22.5t105.5 -61t70 -93t40 -115t12 -130.5v-410h2v-303
q0 -238 -126 -350t-376 -112v262z" />
    <glyph glyph-name="afii10100" unicode="&#x453;" horiz-adv-x="907" 
d="M131 0v1034h737v-252h-428v-782h-309zM360 1214v123l158 185h295v-123l-201 -185h-252z" />
    <glyph glyph-name="afii10101" unicode="&#x454;" horiz-adv-x="1118" 
d="M1040 201q-2 -5 -5.5 -13.5t-18.5 -32.5t-34.5 -46t-54.5 -48.5t-77 -46t-103.5 -32.5t-132.5 -13q-132 0 -236.5 43t-170 118t-99.5 172.5t-34 211.5q0 153 63 277.5t187.5 200t289.5 75.5q71 0 133 -12.5t104 -33t76.5 -45t54 -49.5t33 -45.5t18.5 -33.5l5 -12v-138
h-231q-1 5 -4 12.5t-17 27t-33.5 34.5t-55.5 27t-81 12q-91 0 -148 -52t-69 -138h332v-195h-334q11 -92 69 -146.5t150 -54.5q47 0 84 11.5t56.5 28.5t32.5 33.5t17 27.5l3 12h231v-137z" />
    <glyph glyph-name="afii10102" unicode="&#x455;" horiz-adv-x="1036" 
d="M526 -31q-100 0 -185 22t-137 55.5t-84 66t-42 61.5v139h231q9 -35 68 -76.5t153 -41.5q160 0 160 98q0 47 -39 70t-119 36l-131 17q-309 42 -309 309q0 151 114 245.5t308 94.5q168 0 269.5 -55t138.5 -142v-139h-234q-2 11 -12.5 27.5t-30.5 36.5t-56.5 33.5
t-80.5 13.5q-70 0 -104.5 -27t-34.5 -72q0 -78 131 -100l131 -18q162 -24 249 -93.5t87 -210.5q0 -157 -117.5 -253.5t-323.5 -96.5z" />
    <glyph glyph-name="afii10103" unicode="&#x456;" horiz-adv-x="569" 
d="M131 0v1034h307v-1034h-307zM123 1229v287h319v-287h-319z" />
    <glyph glyph-name="afii10104" unicode="&#x457;" horiz-adv-x="565" 
d="M-27 1229v287h273v-287h-273zM336 1229v287h272v-287h-272zM129 0v1034h307v-1034h-307z" />
    <glyph glyph-name="afii10105" unicode="&#x458;" horiz-adv-x="569" 
d="M47 -532q-130 0 -210.5 51.5t-110.5 136.5v147h231q0 -23 20 -48t64 -25q51 0 70.5 32t19.5 109v1163h307v-1165q0 -187 -100 -294t-291 -107zM125 1229v287h319v-287h-319z" />
    <glyph glyph-name="afii10106" unicode="&#x459;" horiz-adv-x="1703" 
d="M494 479q-2 -86 -13 -155.5t-36 -131t-63.5 -103t-99 -65.5t-139.5 -24h-96v264h21q83 3 118.5 62t38.5 190l11 518h815v-311h159q219 0 332 -96.5t113 -255.5q0 -166 -113.5 -268.5t-335.5 -102.5h-463v786h-243zM1051 225h131q78 0 121 35.5t43 106.5q0 64 -42.5 97.5
t-119.5 33.5h-133v-273z" />
    <glyph glyph-name="afii10107" unicode="&#x45a;" horiz-adv-x="1740" 
d="M440 426v-426h-309v1034h309v-372h344v372h310v-372h168q214 0 324 -88.5t110 -233.5q0 -151 -110 -245.5t-326 -94.5h-476v426h-344zM1094 215h135q72 0 112.5 31t40.5 90q0 52 -39.5 81t-111.5 29h-137v-231z" />
    <glyph glyph-name="afii10108" unicode="&#x45b;" horiz-adv-x="1232" 
d="M438 582v-582h-309v1167h-149v222h149v147h309v-147h297v-222h-297v-260q41 65 119 111.5t184 46.5q80 0 143.5 -22.5t105.5 -61t70 -93t40 -115t12 -130.5v-643h-307v586q0 202 -170 202q-54 0 -93.5 -17.5t-61.5 -48t-32 -65.5t-10 -75z" />
    <glyph glyph-name="afii10109" unicode="&#x45c;" horiz-adv-x="1144" 
d="M131 0v1034h309v-420l355 420h262v-137l-305 -356l342 -398v-143h-289l-365 446v-446h-309zM453 1214v123l157 185h295v-123l-200 -185h-252z" />
    <glyph glyph-name="afii10110" unicode="&#x45e;" horiz-adv-x="1138" 
d="M418 -512h-262v143l258 463l-373 797v143h278l265 -606l274 606h256v-137zM588 1194q-80 0 -145 21t-102 52.5t-57.5 58.5t-27.5 50v131h221q-1 -16 3.5 -35.5t15.5 -40.5t35 -35t57 -14q40 0 67.5 24.5t36 51t8.5 49.5h222v-131q-7 -23 -27.5 -50t-58 -58.5t-103 -52.5
t-145.5 -21z" />
    <glyph glyph-name="afii10193" unicode="&#x45f;" horiz-adv-x="1224" 
d="M473 -287v287h-342v1034h309v-786h344v786h310v-1034h-344v-287h-277z" />
    <glyph glyph-name="afii10050" unicode="&#x490;" horiz-adv-x="1144" 
d="M793 1843h309v-596h-594v-1247h-340v1536h625v307z" />
    <glyph glyph-name="afii10098" unicode="&#x491;" horiz-adv-x="907" 
d="M590 1311h278v-529h-428v-782h-309v1034h459v277z" />
    <glyph glyph-name="uni0492" unicode="&#x492;" horiz-adv-x="1206" 
d="M883 645h-316v-645h-340v645h-194v256h194v635h934v-289h-594v-346h316v-256z" />
    <glyph glyph-name="uni0493" unicode="&#x493;" horiz-adv-x="954" 
d="M721 379h-234v-379h-309v379h-133v221h133v434h737v-252h-428v-182h234v-221z" />
    <glyph glyph-name="uni0496" unicode="&#x496;" horiz-adv-x="2117" 
d="M2099 -307h-309v307h-66l-530 668v-668h-330v668l-530 -668h-293v160l502 628l-455 590v158h274l502 -657v657h330v-657l504 657h268v-154l-453 -579l416 -514h170v-596z" />
    <glyph glyph-name="uni0497" unicode="&#x497;" horiz-adv-x="1720" 
d="M1692 -287h-279v287h-88l-338 449v-449h-309v446l-332 -446h-285v143l312 394l-299 362v135h268l336 -422v422h309v-422l332 422h264v-137l-289 -358l248 -291h150v-535z" />
    <glyph glyph-name="uni0498" unicode="&#x498;" horiz-adv-x="1282" 
d="M1196 451q0 -181 -102.5 -304t-290.5 -161v-293h-307v287q-97 16 -176.5 53t-128.5 82.5t-77.5 90.5t-35.5 85v153h268q3 -20 13 -43.5t32 -51t52.5 -49t78.5 -36t105 -14.5q115 0 177 56.5t62 150.5q0 92 -61.5 145t-188.5 53h-184v258h160q105 0 162 55t57 142
q0 80 -59.5 129t-147.5 49q-60 0 -106.5 -17.5t-72 -46t-38.5 -56.5t-16 -56h-269v154q7 34 27 71.5t62 79t98 74.5t143 54.5t189 21.5q234 0 376 -113t142 -311q0 -111 -58.5 -199t-160.5 -131q130 -34 203 -129.5t73 -232.5z" />
    <glyph glyph-name="uni0499" unicode="&#x499;" horiz-adv-x="1038" 
d="M963 295q0 -126 -77.5 -206.5t-223.5 -106.5v-289h-279v287q-56 10 -106 30.5t-79 38.5t-59 48.5t-38.5 41.5t-26.5 35v137h243q12 -22 23 -37t33 -36t56.5 -32t78.5 -11q82 0 122 31.5t40 86.5q0 109 -166 109h-154v196h144q139 0 139 113q0 49 -34.5 78t-102.5 29
q-72 0 -113.5 -35.5t-60.5 -79.5h-238v139q17 25 30.5 42t52 50.5t81.5 55t114.5 38.5t155.5 17q192 0 299 -76t107 -215q0 -167 -160 -225q98 -29 148.5 -94.5t50.5 -159.5z" />
    <glyph glyph-name="uni049A" unicode="&#x49a;" horiz-adv-x="1470" 
d="M1452 -307h-309v307h-53l-582 668v-668h-340v1536h340v-659l555 659h268v-154l-502 -583l455 -510h168v-596z" />
    <glyph glyph-name="uni049B" unicode="&#x49b;" horiz-adv-x="1179" 
d="M1145 -287h-279v287h-61l-365 446v-446h-309v1034h309v-420l355 420h262v-137l-305 -356l264 -293h129v-535z" />
    <glyph glyph-name="uni049C" unicode="&#x49c;" horiz-adv-x="1667" 
d="M883 877l411 659h269v-154l-365 -579l422 -639v-164h-303l-434 668v-330h-267v870h267v-331zM168 0v1536h340v-1536h-340z" />
    <glyph glyph-name="uni049D" unicode="&#x49d;" horiz-adv-x="1372" 
d="M743 614l256 420h265v-137l-228 -356l262 -398v-143h-288l-267 446v-251h-225v634h225v-215zM131 0v1034h309v-1034h-309z" />
    <glyph glyph-name="uni04A0" unicode="&#x4a0;" horiz-adv-x="1814" 
d="M901 668v-668h-340v1249h-520v287h860v-659l555 659h268v-154l-499 -583l557 -639v-160h-299z" />
    <glyph glyph-name="uni04A1" unicode="&#x4a1;" horiz-adv-x="1429" 
d="M416 0v782h-377v252h686v-420l354 420h262v-137l-305 -356l342 -398v-143h-288l-365 446v-446h-309z" />
    <glyph glyph-name="uni04A2" unicode="&#x4a2;" horiz-adv-x="1718" 
d="M1665 -307h-309v307h-246v645h-602v-645h-340v1536h340v-604h602v604h340v-1247h215v-596z" />
    <glyph glyph-name="uni04A3" unicode="&#x4a3;" horiz-adv-x="1323" 
d="M1268 -287h-279v287h-184v399h-365v-399h-309v1034h309v-383h365v383h309v-786h154v-535z" />
    <glyph glyph-name="uni04AA" unicode="&#x4aa;" horiz-adv-x="1492" 
d="M1432 299q-12 -43 -44 -89t-84.5 -92.5t-136 -84t-184.5 -53.5v-287h-309v291q-276 51 -432 261t-156 523q0 238 93 419.5t264 280.5t395 99q117 0 215 -24t160.5 -59.5t109 -81t68.5 -83.5t30 -72v-155h-268q-5 26 -23.5 54.5t-52.5 60t-95.5 51.5t-139.5 20
q-191 0 -303.5 -136.5t-112.5 -371.5q0 -232 113 -371t303 -139q76 0 138.5 21.5t99 54.5t57 63t26.5 56h269v-156z" />
    <glyph glyph-name="uni04AB" unicode="&#x4ab;" horiz-adv-x="1120" 
d="M1040 211q-2 -7 -7.5 -20t-29 -46.5t-54 -62t-86.5 -58t-124 -42.5v-289h-276v293q-189 43 -289 186.5t-100 341.5q0 153 63 277.5t187.5 200t289.5 75.5q71 0 133 -13.5t104 -34.5t76.5 -47t54 -52t33 -47t18.5 -35l5 -13v-137h-231q-1 5 -4 12t-17.5 26.5t-33.5 34
t-56 26.5t-82 12q-113 0 -172 -80.5t-59 -204.5q0 -122 59 -199t172 -77q48 0 85.5 11.5t57 27.5t32.5 32t17 27l3 12h231v-137z" />
    <glyph glyph-name="uni04AE" unicode="&#x4ae;" horiz-adv-x="1355" 
d="M510 0v614l-496 762v160h299l389 -623l365 623h266v-154l-483 -770v-612h-340z" />
    <glyph glyph-name="uni04AF" unicode="&#x4af;" horiz-adv-x="1130" 
d="M719 -512h-309v516l-371 887v143h278l258 -665l254 665h265v-137l-375 -895v-514z" />
    <glyph glyph-name="uni04B0" unicode="&#x4b0;" horiz-adv-x="1378" 
d="M1178 387h-318v-387h-340v387h-315v258h297l-477 731v160h301l387 -623l364 623h269v-154l-465 -737h297v-258z" />
    <glyph glyph-name="uni04B1" unicode="&#x4b1;" horiz-adv-x="1128" 
d="M989 -221h-270v-291h-309v291h-271v221h273l-373 891v143h278l258 -665l254 665h265v-137l-377 -897h272v-221z" />
    <glyph glyph-name="uni04B2" unicode="&#x4b2;" horiz-adv-x="1472" 
d="M1448 -307h-309v307h-78l-371 541l-366 -541h-269v154l451 624l-428 598v160h299l354 -512l332 512h268v-154l-420 -594l361 -499h176v-596z" />
    <glyph glyph-name="uni04B3" unicode="&#x4b3;" horiz-adv-x="1177" 
d="M1137 -287h-277v287h-61l-242 309l-235 -309h-259v139l324 387l-317 365v143h282l234 -299l231 299h258v-137l-319 -375l239 -274h142v-535z" />
    <glyph glyph-name="uni04B6" unicode="&#x4b6;" horiz-adv-x="1564" 
d="M1511 -307h-307v307h-248v561h-239q-317 0 -474 141.5t-157 450.5v383h340v-383q0 -159 70.5 -234t224.5 -75h235v692h340v-1247h215v-596z" />
    <glyph glyph-name="uni04B7" unicode="&#x4b7;" horiz-adv-x="1230" 
d="M1176 -287h-279v287h-184v334h-168q-242 0 -356.5 100.5t-114.5 315.5v284h309v-284q0 -89 41.5 -128.5t128.5 -39.5h160v452h309v-786h154v-535z" />
    <glyph glyph-name="uni04B8" unicode="&#x4b8;" horiz-adv-x="1525" 
d="M1358 0h-340v561h-150v-274h-266v278q-262 19 -389 155t-127 413v403h340v-403q0 -122 42 -189.5t134 -87.5v301h266v-313h150v692h340v-1536z" />
    <glyph glyph-name="uni04B9" unicode="&#x4b9;" horiz-adv-x="1234" 
d="M1104 0h-309v334h-95v-191h-225v193q-207 13 -305 114.5t-98 299.5v284h309v-284q0 -131 94 -158v196h225v-206h95v452h309v-1034z" />
    <glyph glyph-name="uni04BA" unicode="&#x4ba;" horiz-adv-x="1454" 
d="M508 1536v-561h240q317 0 473.5 -141.5t156.5 -450.5v-383h-340v383q0 159 -70.5 234t-224.5 75h-235v-692h-340v1536h340z" />
    <glyph glyph-name="uni04BB" unicode="&#x4bb;" horiz-adv-x="1234" 
d="M131 0v1536h309v-629q41 65 119 111.5t184 46.5q80 0 143.5 -22.5t105.5 -61t70 -93t40 -115t12 -130.5v-643h-307v586q0 202 -170 202q-54 0 -93.5 -17.5t-61.5 -48t-32 -65.5t-10 -75v-582h-309z" />
    <glyph glyph-name="uni04C0" unicode="&#x4c0;" horiz-adv-x="675" 
d="M168 0v1536h340v-1536h-340z" />
    <glyph glyph-name="uni04C1" unicode="&#x4c1;" horiz-adv-x="2070" 
d="M870 668l-530 -668h-293v160l502 628l-467 590v158h276l512 -657v657h330v-657l514 657h268v-154l-462 -579l510 -643v-160h-299l-531 668v-668h-330v668zM1040 1647q-80 0 -147.5 18t-108.5 45t-65 51.5t-33 44.5v136h238q-1 -17 8.5 -43t38 -51t69.5 -25q54 0 85.5 44
t31.5 75h238v-136q-9 -20 -33 -44.5t-65 -51.5t-109 -45t-148 -18z" />
    <glyph glyph-name="uni04C2" unicode="&#x4c2;" horiz-adv-x="1675" 
d="M66 0v143l311 394l-309 362v135h268l346 -422v422h309v-422l342 422h264v-137l-299 -358l320 -396v-143h-285l-342 449v-449h-309v446l-336 -446h-280zM829 1204q-80 0 -145 21t-102 52.5t-57 58.5t-27 50v132h221q-1 -16 3.5 -35.5t15 -40.5t34.5 -35t57 -14
q40 0 67.5 24.5t36.5 51t9 49.5h221v-132q-7 -23 -27.5 -50t-58 -58.5t-103 -52.5t-145.5 -21z" />
    <glyph glyph-name="uni04CF" unicode="&#x4cf;" horiz-adv-x="675" 
d="M168 0v1536h340v-1536h-340z" />
    <glyph glyph-name="uni04D0" unicode="&#x4d0;" horiz-adv-x="1445" 
d="M299 0h-272v143l522 1393h346l520 -1372v-164h-295l-119 326h-585zM911 604l-200 565l-201 -565h401zM723 1647q-80 0 -147.5 18t-108.5 45t-65 51.5t-33 44.5v136h237q-1 -17 8.5 -43t38.5 -51t70 -25q54 0 85.5 44t31.5 75h237v-136q-9 -20 -32.5 -44.5t-64.5 -51.5
t-109 -45t-148 -18z" />
    <glyph glyph-name="uni04D1" unicode="&#x4d1;" horiz-adv-x="1128" 
d="M403 -31q-163 0 -251.5 91.5t-88.5 230.5q0 152 112 236.5t333 84.5q47 0 95 -5t73 -10l24 -5v45q0 172 -170 172q-37 0 -69 -9.5t-51 -23.5t-32.5 -28t-18.5 -24l-5 -9h-233v137q4 9 11.5 23t40.5 51t75.5 65t119.5 51t169 23q473 0 473 -438v-627h-279l-20 131
q-98 -162 -308 -162zM504 207q92 0 144 52.5t52 115.5v45q-72 16 -172 16q-159 0 -159 -117q0 -112 135 -112zM547 1204q-80 0 -145 21t-102 52.5t-57.5 58.5t-27.5 50v132h221q-1 -16 3.5 -35.5t15.5 -40.5t35 -35t57 -14q40 0 67.5 24.5t36 51t8.5 49.5h222v-132
q-7 -23 -27.5 -50t-58 -58.5t-103 -52.5t-145.5 -21z" />
    <glyph glyph-name="uni04D6" unicode="&#x4d6;" horiz-adv-x="1234" 
d="M168 0v1536h965v-289h-625v-325h553v-267h-553v-366h625v-289h-965zM657 1647q-80 0 -147.5 18t-108.5 45t-65 51.5t-33 44.5v136h238q-1 -17 8.5 -43t38 -51t69.5 -25q54 0 85.5 44t31.5 75h238v-136q-9 -20 -33 -44.5t-65 -51.5t-109 -45t-148 -18z" />
    <glyph glyph-name="uni04D7" unicode="&#x4d7;" horiz-adv-x="1193" 
d="M631 -31q-136 0 -243.5 41.5t-175.5 116t-103 172.5t-35 215q0 114 36.5 214t104.5 175t172 118.5t231 43.5q128 0 225.5 -37t157 -103.5t89.5 -153.5t30 -193q0 -32 -3.5 -65t-6.5 -50l-4 -17h-721q14 -108 77.5 -168.5t174.5 -60.5q52 0 93.5 9.5t64 23.5t38 28
t20.5 24l5 9h242v-137q-4 -8 -13 -22t-46 -49.5t-85 -62.5t-135 -49t-190 -22zM391 633h432q0 79 -54 132.5t-153 53.5q-182 0 -225 -186zM623 1204q-80 0 -145 21t-102 52.5t-57.5 58.5t-27.5 50v132h221q-1 -16 3.5 -35.5t15.5 -40.5t35 -35t57 -14q40 0 67.5 24.5t36 51
t8.5 49.5h221v-132q-7 -23 -27.5 -50t-58 -58.5t-102.5 -52.5t-145 -21z" />
    <glyph glyph-name="uni04D8" unicode="&#x4d8;" horiz-adv-x="1589" 
d="M782 -20q-160 0 -295.5 54.5t-225.5 147t-140.5 214.5t-50.5 257q0 56 5.5 107t10.5 74l6 22h1065q-18 199 -128 310.5t-302 111.5q-74 0 -136.5 -20.5t-99 -50.5t-57 -57t-24.5 -46h-269v153q10 32 34 68.5t73.5 81t114.5 79t166 58t219 23.5q231 0 403.5 -101.5
t262 -280.5t89.5 -411q0 -136 -32 -257t-94 -219t-149 -169.5t-201 -110t-245 -38.5zM772 270q151 0 247 88t126 242h-748q14 -142 117.5 -236t257.5 -94z" />
    <glyph glyph-name="uni04D9" unicode="&#x4d9;" horiz-adv-x="1193" 
d="M563 1065q136 0 243.5 -41.5t175.5 -116t103 -172.5t35 -215q0 -153 -62.5 -277t-188 -199t-294.5 -75q-128 0 -225.5 37t-157 104t-89 154t-29.5 193q0 32 3.5 64.5t6.5 49.5l4 17h721q-14 108 -77.5 168.5t-174.5 60.5q-52 0 -93.5 -9.5t-64 -23.5t-38 -28t-20.5 -24
l-5 -9h-242v137q4 8 13 22t46 49.5t85 62.5t135 49t190 22zM803 401h-432q0 -79 54 -132.5t153 -53.5q182 0 225 186z" />
    <glyph glyph-name="uni04E2" unicode="&#x4e2;" horiz-adv-x="1646" 
d="M168 0v1536h340v-1020l633 1020h338v-1536h-338v1012l-633 -1012h-340zM526 1649v225h627v-225h-627z" />
    <glyph glyph-name="uni04E3" unicode="&#x4e3;" horiz-adv-x="1265" 
d="M131 0v1034h309v-614l396 614h299v-1034h-310v614l-395 -614h-299zM342 1249v238h586v-238h-586z" />
    <glyph glyph-name="uni04E6" unicode="&#x4e6;" horiz-adv-x="1691" 
d="M846 -31q-169 0 -311.5 59.5t-241.5 165.5t-154 255t-55 325q0 232 94.5 412t268.5 280.5t399 100.5t399 -100.5t268.5 -280.5t94.5 -412q0 -176 -55 -325t-154 -255t-241.5 -165.5t-311.5 -59.5zM846 258q192 0 307 142t115 374q0 226 -115 365t-307 139t-307 -139
t-115 -365q0 -232 115 -374t307 -142zM471 1638v277h307v-277h-307zM891 1638v277h309v-277h-309z" />
    <glyph glyph-name="uni04E7" unicode="&#x4e7;" horiz-adv-x="1241" 
d="M621 -31q-167 0 -293 75t-190 199t-64 277q0 152 64 274.5t190 196.5t293 74q166 0 292 -74t190 -196.5t64 -274.5q0 -153 -64 -277t-190 -199t-292 -75zM621 238q116 0 176.5 79t60.5 203q0 121 -60.5 199t-176.5 78t-177 -78t-61 -199q0 -124 61 -203t177 -79z
M258 1229v287h297v-287h-297zM678 1229v287h299v-287h-299z" />
    <glyph glyph-name="uni04E8" unicode="&#x4e8;" horiz-adv-x="1691" 
d="M846 -31q-169 0 -311.5 59.5t-241.5 165.5t-154 255t-55 325q0 232 94.5 412t268.5 280.5t399 100.5t399 -100.5t268.5 -280.5t94.5 -412q0 -176 -55 -325t-154 -255t-241.5 -165.5t-311.5 -59.5zM846 1288q-169 0 -280.5 -102.5t-139.5 -284.5h840q-28 182 -139.5 284.5
t-280.5 102.5zM846 248q168 0 278.5 102t139.5 285h-836q29 -183 139.5 -285t278.5 -102z" />
    <glyph glyph-name="uni04E9" unicode="&#x4e9;" horiz-adv-x="1239" 
d="M621 -31q-167 0 -293 75t-190 199t-64 277q0 152 64 274.5t190 196.5t293 74q166 0 291.5 -74t189 -196.5t63.5 -274.5q0 -153 -63.5 -277t-189 -199t-291.5 -75zM621 819q-98 0 -159.5 -55t-76.5 -148h471q-15 93 -77 148t-158 55zM621 215q95 0 155.5 53t75.5 144h-463
q15 -91 76 -144t156 -53z" />
    <glyph glyph-name="uni04EE" unicode="&#x4ee;" horiz-adv-x="1343" 
d="M602 0h-268v154l180 315l-489 907v160h299l378 -717l359 717h268v-154zM389 1649v225h627v-225h-627z" />
    <glyph glyph-name="uni04EF" unicode="&#x4ef;" horiz-adv-x="1138" 
d="M418 -512h-262v143l258 463l-373 797v143h278l265 -606l274 606h256v-137zM297 1249v238h586v-238h-586z" />
    <glyph glyph-name="uni04F2" unicode="&#x4f2;" horiz-adv-x="1343" 
d="M602 0h-268v154l180 315l-489 907v160h299l378 -717l359 717h268v-154zM350 1649v123l113 163h289l-29 -123l-127 -163h-246zM754 1649v123l147 163h289v-123l-189 -163h-247z" />
    <glyph glyph-name="uni04F3" unicode="&#x4f3;" horiz-adv-x="1138" 
d="M264 1229v123l113 184h278l-26 -133l-129 -174h-236zM657 1229v123l148 184h268v-123l-188 -184h-228zM418 -512h-262v143l258 463l-373 797v143h278l265 -606l274 606h256v-137z" />
    <glyph glyph-name="Wgrave" unicode="&#x1e80;" horiz-adv-x="2048" 
d="M1286 0l-264 938l-260 -938h-346l-367 1372v164h316l243 -1055l281 1055h289l272 -1055l254 1055h299v-143l-371 -1393h-346zM901 1649l-188 163v123h319l148 -163v-123h-279z" />
    <glyph glyph-name="wgrave" unicode="&#x1e81;" horiz-adv-x="1638" 
d="M999 0l-188 596l-176 -596h-279l-309 891v143h279l190 -616l186 616h254l193 -614l184 614h262v-137l-317 -897h-279zM711 1229l-199 184v123h293l158 -184v-123h-252z" />
    <glyph glyph-name="Wacute" unicode="&#x1e82;" horiz-adv-x="2048" 
d="M1286 0l-264 938l-260 -938h-346l-367 1372v164h316l243 -1055l281 1055h289l272 -1055l254 1055h299v-143l-371 -1393h-346zM887 1649v123l147 163h320v-123l-189 -163h-278z" />
    <glyph glyph-name="wacute" unicode="&#x1e83;" horiz-adv-x="1638" 
d="M999 0l-188 596l-176 -596h-279l-309 891v143h279l190 -616l186 616h254l193 -614l184 614h262v-137l-317 -897h-279zM715 1229v123l157 184h295v-123l-200 -184h-252z" />
    <glyph glyph-name="Wdieresis" unicode="&#x1e84;" horiz-adv-x="2048" 
d="M1286 0l-264 938l-260 -938h-346l-367 1372v164h316l243 -1055l281 1055h289l272 -1055l254 1055h299v-143l-371 -1393h-346zM662 1638v277h307v-277h-307zM1081 1638v277h310v-277h-310z" />
    <glyph glyph-name="wdieresis" unicode="&#x1e85;" horiz-adv-x="1638" 
d="M999 0l-188 596l-176 -596h-279l-309 891v143h279l190 -616l186 616h254l193 -614l184 614h262v-137l-317 -897h-279zM473 1229v287h297v-287h-297zM893 1229v287h299v-287h-299z" />
    <glyph glyph-name="Ygrave" unicode="&#x1ef2;" horiz-adv-x="1355" 
d="M510 0v614l-496 762v160h299l389 -623l365 623h266v-154l-483 -770v-612h-340zM545 1649l-189 163v123h320l147 -163v-123h-278z" />
    <glyph glyph-name="ygrave" unicode="&#x1ef3;" horiz-adv-x="1138" 
d="M418 -512h-262v143l258 463l-373 797v143h278l265 -606l274 606h256v-137zM459 1229l-199 184v123h293l158 -184v-123h-252z" />
    <glyph glyph-name="thinspace" unicode="&#x2009;" horiz-adv-x="192" 
 />
    <glyph glyph-name="uni2010" unicode="&#x2010;" horiz-adv-x="825" 
d="M121 506v252h584v-252h-584z" />
    <glyph glyph-name="uni2011" unicode="&#x2011;" horiz-adv-x="825" 
d="M121 506v252h584v-252h-584z" />
    <glyph glyph-name="endash" unicode="&#x2013;" horiz-adv-x="1193" 
d="M121 506v252h952v-252h-952z" />
    <glyph glyph-name="emdash" unicode="&#x2014;" horiz-adv-x="1593" 
d="M121 506v252h1352v-252h-1352z" />
    <glyph glyph-name="uni2015" unicode="&#x2015;" horiz-adv-x="1593" 
d="M121 506v252h1352v-252h-1352z" />
    <glyph glyph-name="quoteleft" unicode="&#x2018;" horiz-adv-x="559" 
d="M436 1536v-616h-330v309l125 307h205z" />
    <glyph glyph-name="quoteright" unicode="&#x2019;" horiz-adv-x="542" 
d="M123 920v616h330v-309l-125 -307h-205z" />
    <glyph glyph-name="quotesinglbase" unicode="&#x201a;" horiz-adv-x="571" 
d="M121 -287v617h330v-310l-125 -307h-205z" />
    <glyph glyph-name="quotedblleft" unicode="&#x201c;" horiz-adv-x="1021" 
d="M899 1536v-616h-330v309l125 307h205zM436 1536v-616h-330v309l125 307h205z" />
    <glyph glyph-name="quotedblright" unicode="&#x201d;" horiz-adv-x="1005" 
d="M123 920v616h330v-309l-125 -307h-205zM586 920v616h329v-309l-124 -307h-205z" />
    <glyph glyph-name="quotedblbase" unicode="&#x201e;" horiz-adv-x="1034" 
d="M121 -287v617h330v-310l-125 -307h-205zM584 -287v617h329v-310l-125 -307h-204z" />
    <glyph glyph-name="dagger" unicode="&#x2020;" horiz-adv-x="1103" 
d="M481 -178l-135 235l92 842l-334 -37v303l334 -35l-55 406h338l-53 -406l331 35v-303l-331 37l92 -842l-129 -235h-150z" />
    <glyph glyph-name="daggerdbl" unicode="&#x2021;" horiz-adv-x="1103" 
d="M383 -170l55 375l-334 -35v301l334 -37l-78 248l78 250l-334 -37v301l334 -35l-55 375h338l-53 -375l331 35v-301l-331 37l77 -250l-77 -248l331 37v-301l-331 35l53 -375h-338z" />
    <glyph glyph-name="bullet" unicode="&#x2022;" horiz-adv-x="698" 
d="M348 459q-87 0 -140.5 56t-53.5 140t53.5 140.5t140.5 56.5q88 0 141.5 -56.5t53.5 -140.5t-53 -140t-142 -56z" />
    <glyph glyph-name="ellipsis" unicode="&#x2026;" horiz-adv-x="1697" 
d="M121 0v330h330v-330h-330zM684 0v330h330v-330h-330zM1247 0v330h330v-330h-330z" />
    <glyph glyph-name="perthousand" unicode="&#x2030;" horiz-adv-x="3162" 
d="M504 682q-199 0 -321 126t-122 316q0 193 122 318t321 125q196 0 319 -126t123 -317q0 -190 -122.5 -316t-319.5 -126zM444 -53l988 1614h319l-987 -1614h-320zM504 936q75 0 113 53t38 135q0 84 -38 136.5t-113 52.5q-76 0 -115 -53t-39 -136q0 -82 39 -135t115 -53z
M1704 -31q-199 0 -320.5 126.5t-121.5 316.5q0 193 122.5 317.5t319.5 124.5t319.5 -125t122.5 -317q0 -191 -122 -317t-320 -126zM2656 -31q-197 0 -318.5 126.5t-121.5 316.5q0 193 121.5 317.5t318.5 124.5t320 -125.5t123 -316.5t-122.5 -317t-320.5 -126zM1704 223
q75 0 113 53.5t38 135.5q0 83 -38.5 135.5t-112.5 52.5t-113 -53t-39 -135t38.5 -135.5t113.5 -53.5zM2656 223q77 0 114.5 53t37.5 136t-38 135.5t-114 52.5q-74 0 -112.5 -53t-38.5 -135t38.5 -135.5t112.5 -53.5z" />
    <glyph glyph-name="minute" unicode="&#x2032;" horiz-adv-x="536" 
d="M106 926l48 610h327l-139 -610h-236z" />
    <glyph glyph-name="second" unicode="&#x2033;" horiz-adv-x="976" 
d="M106 926l48 610h327l-139 -610h-236zM547 926l47 610h328l-140 -610h-235z" />
    <glyph glyph-name="guilsinglleft" unicode="&#x2039;" horiz-adv-x="786" 
d="M440 102l-391 451l391 451h244v-134l-283 -317l283 -317v-134h-244z" />
    <glyph glyph-name="guilsinglright" unicode="&#x203a;" horiz-adv-x="784" 
d="M102 102v134l281 317l-281 317v134h242l391 -451l-391 -451h-242z" />
    <glyph glyph-name="fraction" unicode="&#x2044;" horiz-adv-x="1234" 
d="M-18 -82l960 1700h309l-960 -1700h-309z" />
    <glyph glyph-name="Euro" unicode="&#x20ac;" horiz-adv-x="1634" 
d="M1540 258q-9 -27 -34 -61.5t-74 -75.5t-112 -74t-156.5 -55.5t-198.5 -22.5q-273 0 -452 134.5t-245 385.5h-192v216h153q-2 20 -2 63q0 41 2 59h-153v215h194q69 249 252.5 387t442.5 138q114 0 210 -21.5t157.5 -53t106.5 -71t65.5 -73t25.5 -60.5v-153h-256
q-4 15 -21.5 37.5t-51 50t-95 46.5t-137.5 19q-126 0 -219 -64.5t-129 -181.5h589l-65 -215h-565q0 -9 -1 -28.5t-1 -28.5q0 -19 4 -65h520l-66 -216h-409q35 -109 128 -174t214 -65q77 0 140 20t98 48.5t53.5 52.5t23.5 41h256v-154z" />
    <glyph glyph-name="uni20B4" unicode="&#x20b4;" horiz-adv-x="1476" 
d="M1378 852h-1284v205h787q59 32 59 104q0 66 -52 101.5t-151 35.5q-192 0 -239 -147h-267v154q45 117 183.5 189.5t349.5 72.5q235 0 370.5 -93.5t135.5 -256.5q0 -96 -43 -160h151v-205zM1296 250q-48 -120 -192 -200.5t-361 -80.5q-250 0 -402.5 107.5t-152.5 279.5
q0 84 31 148h-125v205h1284v-205h-809q-49 -33 -49 -111q0 -73 67 -114t165 -41q105 0 177.5 44t100.5 121h266v-153z" />
    <glyph glyph-name="uni20B8" unicode="&#x20b8;" horiz-adv-x="1312" 
d="M63 1300v236h1188v-236h-1188zM492 0v930h-431v237h1190v-237h-420v-930h-339z" />
    <glyph glyph-name="uni20BD" unicode="&#x20bd;" horiz-adv-x="1433" 
d="M1071 225h-420v-225h-338v225h-204v236h204v133h-204v262h204v680h494q258 0 409.5 -125.5t151.5 -339.5q0 -94 -36 -178.5t-104 -152t-177 -107t-244 -39.5h-156v-133h420v-236zM647 856h158q105 0 164 56.5t59 150.5q0 85 -58 137.5t-165 52.5h-158v-397z" />
    <glyph glyph-name="afii61352" unicode="&#x2116;" horiz-adv-x="2541" 
d="M174 0v1536h320l653 -977v977h319v-1536h-319l-653 961v-961h-320zM2015 672q-200 0 -323 121t-123 303q0 184 123 303t323 119q198 0 321.5 -119.5t123.5 -302.5t-123.5 -303.5t-321.5 -120.5zM2015 918q80 0 120 50t40 128q0 79 -40 128.5t-120 49.5q-81 0 -122.5 -50
t-41.5 -128t41 -128t123 -50zM1620 305v258h790v-258h-790z" />
    <glyph glyph-name="trademark" unicode="&#x2122;" horiz-adv-x="1929" 
d="M1214 881l-143 293v-375h-260v737h330l159 -330l160 330h328v-737h-268v379l-146 -297h-160zM270 799v481h-188v256h661v-256h-190v-481h-283z" />
    <glyph glyph-name="uni2139" unicode="&#x2139;" 
d="M1096 1249v226h225v-226h-225zM1106 0v1024h205v-1024h-205z" />
    <glyph glyph-name="onethird" unicode="&#x2153;" horiz-adv-x="2158" 
d="M379 -82l960 1700h310l-961 -1700h-309zM301 594v645l-45 -39h-197v133l303 223h218v-962h-279zM1700 -37q-71 0 -133 15t-103.5 38.5t-73 52.5t-48 56t-21.5 51v113h221q3 -14 11 -30t24 -37t46 -34.5t69 -13.5q60 0 90 27.5t30 72.5q0 93 -137 93h-102v190h98
q53 0 80 24.5t27 63.5q0 41 -29 64.5t-80 23.5q-32 0 -55.5 -11t-35.5 -28.5t-17 -31t-7 -27.5h-219v115q5 26 28 57t63.5 62.5t111 52t156.5 20.5q156 0 255 -65.5t99 -188.5q0 -153 -139 -211q84 -20 129 -77t45 -144q0 -131 -104 -212t-279 -81z" />
    <glyph glyph-name="twothirds" unicode="&#x2154;" horiz-adv-x="2326" 
d="M557 -82l961 1700h307l-961 -1700h-307zM811 621h-725v198l315 242q56 49 82.5 88.5t26.5 83.5q0 47 -26.5 72.5t-75.5 25.5q-31 0 -55 -12t-36.5 -31t-18 -33t-7.5 -26h-199v106q6 33 26.5 69t58 73.5t103 61.5t146.5 24q162 0 257 -76.5t95 -204.5q0 -104 -49 -183.5
t-158 -166.5l-79 -76h319v-235zM1876 -37q-87 0 -160 22.5t-116.5 56.5t-69 69t-31.5 65v113h219q3 -14 11 -30t24.5 -37t46.5 -34.5t68 -13.5q60 0 90.5 27.5t30.5 72.5q0 93 -136 93h-104v190h98q53 0 80 24.5t27 63.5q0 41 -28.5 64.5t-78.5 23.5q-33 0 -57 -11
t-35.5 -28.5t-16.5 -31t-7 -27.5h-220v115q5 26 28 57t64 62.5t111.5 52t157.5 20.5q155 0 254.5 -65.5t99.5 -188.5q0 -153 -139 -211q83 -20 128.5 -77.5t45.5 -143.5q0 -130 -105 -211.5t-280 -81.5z" />
    <glyph glyph-name="oneeighth" unicode="&#x215b;" horiz-adv-x="2152" 
d="M379 -82l960 1700h310l-961 -1700h-309zM580 594h-279v645l-45 -39h-197v133l303 223h218v-962zM1698 -31q-176 0 -276.5 84.5t-100.5 212.5q0 71 35 131.5t112 94.5q-62 28 -89 81.5t-27 112.5q0 118 92 195t254 77q161 0 252.5 -77t91.5 -195q0 -66 -31.5 -118.5
t-85.5 -75.5q78 -33 115 -94.5t37 -131.5q0 -128 -101 -212.5t-278 -84.5zM1698 571q45 0 71.5 27t26.5 68q0 39 -26.5 64.5t-71.5 25.5q-46 0 -73.5 -25.5t-27.5 -64.5q0 -41 27.5 -68t73.5 -27zM1698 178q52 0 81 29.5t29 75.5q0 45 -29.5 73.5t-80.5 28.5
q-52 0 -81.5 -28.5t-29.5 -75.5q0 -45 29.5 -74t81.5 -29z" />
    <glyph glyph-name="threeeighths" unicode="&#x215c;" horiz-adv-x="2275" 
d="M514 -82l961 1700h309l-961 -1700h-309zM453 584q-88 0 -161 22.5t-117 56.5t-69.5 69t-31.5 65v112h219q5 -15 12.5 -30t24 -36.5t46 -34.5t68.5 -13q59 0 89 27.5t30 72.5q0 92 -135 92h-102v191h98q52 0 78 24.5t26 63.5q0 42 -27.5 65t-78.5 23q-32 0 -56 -11
t-36 -29t-17.5 -32t-7.5 -27h-217v115q5 26 27.5 57t63.5 62.5t111 52.5t156 21q155 0 255 -66.5t100 -189.5q0 -75 -36.5 -129t-102.5 -80q84 -20 129 -77t45 -144q0 -131 -104 -212t-279 -81zM1833 -31q-176 0 -276.5 84.5t-100.5 212.5q0 70 35 131t113 95
q-62 28 -89.5 81.5t-27.5 112.5q0 119 91.5 195.5t254.5 76.5q161 0 251.5 -77t90.5 -195q0 -66 -30.5 -118.5t-84.5 -75.5q77 -33 113.5 -94.5t36.5 -131.5q0 -128 -100.5 -212.5t-276.5 -84.5zM1833 571q45 0 71.5 27t26.5 68q0 39 -26.5 64.5t-71.5 25.5q-46 0 -73 -25.5
t-27 -64.5q0 -41 27 -68t73 -27zM1833 178q51 0 81 29.5t30 75.5q0 45 -30 73.5t-81 28.5q-52 0 -81.5 -28.5t-29.5 -75.5q0 -45 29.5 -74t81.5 -29z" />
    <glyph glyph-name="fiveeighths" unicode="&#x215d;" horiz-adv-x="2226" 
d="M465 -82l960 1700h308l-961 -1700h-307zM414 592q-80 0 -147 20.5t-107 52.5t-63 65t-29 63v112h211q2 -13 7.5 -27.5t18.5 -32t37.5 -29t58.5 -11.5q56 0 84.5 32.5t28.5 80.5q0 51 -30.5 81.5t-86.5 30.5q-34 0 -60.5 -9t-36.5 -19l-9 -9l-189 49l48 494h579v-215h-375
l-12 -121q44 14 94 14q158 0 254 -78.5t96 -222.5q0 -140 -104 -230.5t-268 -90.5zM1782 -31q-176 0 -276.5 84.5t-100.5 212.5q0 70 35.5 131t111.5 95q-61 28 -88.5 81.5t-27.5 112.5q0 118 92 195t254 77q161 0 252.5 -77t91.5 -195q0 -66 -31 -118.5t-84 -75.5
q77 -33 113.5 -94.5t36.5 -131.5q0 -128 -101 -212.5t-278 -84.5zM1782 571q45 0 71.5 27t26.5 68q0 39 -26.5 64.5t-71.5 25.5t-72 -25.5t-27 -64.5q0 -41 26.5 -68t72.5 -27zM1782 178q52 0 81 29.5t29 75.5q0 45 -29.5 73.5t-80.5 28.5q-52 0 -81.5 -28.5t-29.5 -75.5
q0 -44 30 -73.5t81 -29.5z" />
    <glyph glyph-name="seveneighths" unicode="&#x215e;" horiz-adv-x="2131" 
d="M367 -82l960 1700h309l-960 -1700h-309zM422 602h-236v123l277 571h-400v240h691v-205zM1683 -31q-174 0 -275 84.5t-101 212.5q0 70 35.5 131t111.5 95q-61 28 -89 82t-28 112q0 118 92 195t254 77t253.5 -77t91.5 -195q0 -66 -30.5 -118.5t-84.5 -75.5
q76 -33 112.5 -94.5t36.5 -131.5q0 -128 -101 -212.5t-278 -84.5zM1683 571q46 0 73.5 27t27.5 68q0 39 -27.5 64.5t-73.5 25.5q-45 0 -71.5 -25.5t-26.5 -64.5q0 -41 26 -68t72 -27zM1683 178q53 0 83 29.5t30 75.5q0 45 -30 73.5t-83 28.5q-51 0 -79.5 -28.5t-28.5 -75.5
q0 -45 28.5 -74t79.5 -29z" />
    <glyph glyph-name="uni2190" unicode="&#x2190;" 
d="M1257 111v-134h-145l-743 771l743 770h145v-134l-501 -534h1255v-205h-1255z" />
    <glyph glyph-name="uni2191" unicode="&#x2191;" 
d="M1845 709h133v145l-770 743l-770 -743v-145h133l535 501v-1255h205v1255z" />
    <glyph glyph-name="uni2192" unicode="&#x2192;" 
d="M1157 100v-133h146l743 770l-743 770h-146v-133l502 -534h-1256v-205h1256z" />
    <glyph glyph-name="uni2193" unicode="&#x2193;" horiz-adv-x="2441" 
d="M569 799h-133v-146l770 -743l770 743v146h-133l-534 -502v1255h-205v-1255z" />
    <glyph glyph-name="uni2194" unicode="&#x2194;" 
d="M1004 369v-115h-123l-461 483l461 484h123v-115l-263 -281h934l-262 281v115h125l459 -484l-459 -483h-125v115l260 280h-930z" />
    <glyph glyph-name="uni2195" unicode="&#x2195;" 
d="M1210 -51l-483 461v122h115l280 -262v934l-280 -262h-115v125l483 459l484 -459v-125h-115l-281 260v-930l281 260h115v-122z" />
    <glyph glyph-name="uni2196" unicode="&#x2196;" 
d="M1704 104l-866 865l-9 -709l-94 -96l-92 96v1038h1038l97 -92l-97 -94l-708 -8l864 -866z" />
    <glyph glyph-name="uni2197" unicode="&#x2197;" 
d="M713 104l866 865l8 -709l94 -96l93 96v1038h-1039l-96 -92l96 -94l709 -8l-864 -866z" />
    <glyph glyph-name="uni2198" unicode="&#x2198;" 
d="M731 1350l866 -865l9 709l94 96l92 -96v-1038h-1038l-97 92l97 94l708 8l-864 867z" />
    <glyph glyph-name="uni2199" unicode="&#x2199;" horiz-adv-x="2238" 
d="M1696 1364l-867 -864l-8 708l-94 97l-92 -97v-1038h1038l96 92l-96 94l-708 9l864 866z" />
    <glyph glyph-name="uni21B0" unicode="&#x21b0;" 
d="M1757 92h-180v494q0 126 -70 199t-196 73h-529l271 -291v-118h-127l-475 499l475 498h127v-119l-269 -289h527q219 0 332.5 -119.5t113.5 -332.5v-494z" />
    <glyph glyph-name="uni21B1" unicode="&#x21b1;" 
d="M666 92h180v494q0 126 70 199t196 73h528l-270 -291v-118h127l475 499l-475 498h-127v-119l268 -289h-526q-219 0 -332.5 -119.5t-113.5 -332.5v-494z" />
    <glyph glyph-name="uni21B2" unicode="&#x21b2;" 
d="M1757 1382h-180v-493q0 -126 -70 -199.5t-196 -73.5h-529l271 291v119h-127l-475 -500l475 -497h127v118l-269 289h527q219 0 332.5 120t113.5 333v493z" />
    <glyph glyph-name="uni21B3" unicode="&#x21b3;" 
d="M647 1382h180v-493q0 -126 70.5 -199.5t196.5 -73.5h528l-270 291v119h127l475 -500l-475 -497h-127v118l268 289h-526q-219 0 -333 120t-114 333v493z" />
    <glyph glyph-name="minus" unicode="&#x2212;" horiz-adv-x="1163" 
d="M127 530v252h909v-252h-909z" />
    <glyph glyph-name="approxequal" unicode="&#x2248;" horiz-adv-x="1210" 
d="M817 664q-60 0 -114.5 20t-88 44.5t-76 44.5t-81.5 20q-70 0 -86 -119h-248q-1 184 77 286.5t206 102.5q63 0 118 -20t87 -43.5t73.5 -43.5t81.5 -20q34 0 53.5 30t30.5 95h248q1 -193 -73.5 -295t-207.5 -102zM817 193q-60 0 -114.5 20t-88 44.5t-76 44.5t-81.5 20
q-70 0 -86 -119h-248q-1 184 77 286.5t206 102.5q63 0 118 -20t87 -43.5t73.5 -43.5t81.5 -20q34 0 53.5 30t30.5 95h248q1 -193 -73.5 -295t-207.5 -102z" />
    <glyph glyph-name="notequal" unicode="&#x2260;" horiz-adv-x="1204" 
d="M1077 291h-487l-129 -256h-295l129 256h-168v252h295l102 198h-397v252h524l123 244h295l-123 -244h131v-252h-258l-102 -198h360v-252z" />
    <glyph glyph-name="lessequal" unicode="&#x2264;" horiz-adv-x="1083" 
d="M942 369h-139l-694 362v217l694 363h139v-238l-489 -233l489 -234v-237zM115 45v252h827v-252h-827z" />
    <glyph glyph-name="greaterequal" unicode="&#x2265;" horiz-adv-x="1083" 
d="M279 369h-138v237l490 234l-490 233v238h138l694 -363v-217zM141 45v252h828v-252h-828z" />
    <glyph glyph-name="Pcircle" unicode="&#x24c5;" horiz-adv-x="1759" 
d="M881 -20q-169 0 -319.5 63t-256.5 169.5t-167.5 252t-61.5 305.5t61.5 305t167.5 250.5t256.5 168t319.5 62.5t318.5 -62.5t255 -168t167 -250.5t61.5 -305t-61.5 -305.5t-167 -252t-255 -169.5t-318.5 -63zM881 205q158 0 287.5 77t201.5 206.5t72 281.5t-72 280.5
t-201.5 204.5t-287.5 76t-288 -76t-203 -204.5t-73 -280.5t73 -281.5t203.5 -206.5t287.5 -77zM627 346v830h282q157 0 249.5 -76t92.5 -201q0 -127 -90 -216t-252 -89h-63v-248h-219zM846 764h57q61 0 96 34t35 93q0 49 -35 82t-96 33h-57v-242z" />
    <glyph glyph-name="uni2615" unicode="&#x2615;" 
d="M1688 655h-197l-37 -223h-606l-119 592h1020zM1606 748l30 184h-98l-31 -184h99zM688 289v92h965v-92h-965z" />
    <glyph glyph-name="uni267F" unicode="&#x267f;" 
d="M1665 131l-149 305q-17 -194 -143.5 -301.5t-301.5 -107.5q-125 0 -227.5 60t-158.5 158t-56 210q0 154 85 277t232 157l-20 229l71 94l-41 172l48 99h147l66 -127l-41 -125l-72 -21l104 -82l35 -217h215l60 -47v-76h-261l17 -129h311l232 -528h-152zM754 455
q0 -130 87.5 -221t229.5 -91q140 0 230.5 91.5t91.5 246.5h-404l-28 293q-94 -30 -150.5 -112.5t-56.5 -206.5z" />
    <glyph glyph-name="uni26FD" unicode="&#x26fd;" 
d="M1100 1190v192h616v-1278h-622v981l-93 -145v-584q0 -243 -229 -243q-93 0 -151 51t-58 143q0 38 9.5 72t19 53.5t35.5 63.5l397 694h76zM1624 1290h-432v-301h432v301zM662 309q0 -47 31.5 -75.5t84.5 -28.5q72 0 101.5 42t29.5 136v424l-170 -305q-31 -55 -44 -80
t-23 -55.5t-10 -57.5z" />
    <glyph glyph-name="uni2764" unicode="&#x2764;" 
d="M1208 201l-463 465q-48 45 -75 107.5t-27 129.5t27 130.5t75 107.5q89 86 222 86q131 0 223 -86l18 -19l19 19q89 86 221 86q134 0 223 -86q48 -45 75.5 -108t27.5 -130q0 -134 -103 -237z" />
    <glyph glyph-name="uni2B0E" unicode="&#x2b0e;" 
d="M543 1241v-180h493q126 0 199.5 -70t73.5 -196v-529l-291 271h-119v-127l500 -476l497 476v127h-118l-289 -269v527q0 219 -120 332.5t-333 113.5h-493z" />
    <glyph glyph-name="uni2B0F" unicode="&#x2b0f;" 
d="M590 164v180h493q126 0 199.5 70t73.5 196v529l-291 -271h-119v127l500 475l498 -475v-127h-119l-289 269v-527q0 -219 -120 -332.5t-333 -113.5h-493z" />
    <glyph glyph-name="uni2B10" unicode="&#x2b10;" 
d="M1847 1245v-180h-493q-126 0 -199.5 -70t-73.5 -196v-529l291 271h119v-127l-500 -475l-497 475v127h118l289 -269v527q0 219 120 332.5t333 113.5h493z" />
    <glyph glyph-name="uni2B11" unicode="&#x2b11;" 
d="M1825 135v180h-494q-126 0 -199 70.5t-73 196.5v528l291 -270h118v127l-499 475l-498 -475v-127h119l289 268v-526q0 -219 119.5 -333t332.5 -114h494z" />
    <glyph glyph-name="fillframe1" unicode="&#xe004;" 
d="M473 -324l-319 367v1382l319 367h1471l319 -367v-1382l-319 -367h-1471z" />
    <glyph glyph-name="uniE006" unicode="&#xe006;" 
d="M1208 -322q-209 0 -394 73t-327 206q-157 148 -245 353t-88 427t88 427.5t245 353.5q142 133 327 205.5t394 72.5t394 -72.5t327 -205.5q157 -148 245.5 -353.5t88.5 -427.5t-88 -427t-246 -353q-142 -133 -327 -206t-394 -73zM1208 -178q181 0 347 64.5t290 183.5
q129 125 202 297t73 370t-73 371t-202 297q-124 119 -290 183.5t-347 64.5t-347 -64.5t-290 -183.5q-129 -124 -201.5 -297t-72.5 -371t72.5 -370.5t201.5 -296.5q124 -119 290 -183.5t347 -64.5z" />
    <glyph glyph-name="fillframeround" unicode="&#xe007;" 
d="M1208 -322q-209 0 -394 73t-327 206q-157 148 -245 353t-88 427t88 427.5t245 353.5q142 133 327 205.5t394 72.5t394 -72.5t327 -205.5q157 -148 245.5 -353.5t88.5 -427.5t-88 -427t-246 -353q-142 -133 -327 -206t-394 -73z" />
    <glyph glyph-name="noframe1" unicode="&#xe008;" 
d="M473 -324l-319 367v1382l319 367h1471l319 -367v-1382l-319 -367h-1471zM522 1649l-63 -74l1595 -1571l66 76v1309l-226 260h-1372zM522 -180h1372l68 78l-1595 1570l-70 -79v-1309z" />
    <glyph glyph-name="regframe1" unicode="&#xe00c;" 
d="M473 -324l-319 367v1382l319 367h1471l319 -367v-1382l-319 -367h-1471zM522 -180h1372l226 260v1309l-226 260h-1372l-225 -260v-1309z" />
    <glyph glyph-name="uniE50C" unicode="&#xe50c;" 
d="M940 45v82l190 106l-30 484l-656 -121v104l648 289q-6 262 25.5 404.5t88.5 142.5q56 0 88.5 -141.5t32.5 -405.5l645 -289v-104l-653 121l-33 -484l191 -106v-82l-269 51z" />
    <glyph glyph-name="uniE519" unicode="&#xe519;" 
d="M1436 -63v702h-164l-68 131l-71 -233l143 -263l65 -333h-127l-81 307l-154 207h-14l-117 -242h-348v104l250 23l239 602l-90 -12l-135 -228l-62 43v56l132 231l264 53l-25 160l47 74h133l56 -129l-70 -123l-53 -10l151 -299h99v487q0 8 8 12l184 123h-698v-284h-92v377
h874v-1348z" />
    <glyph glyph-name="uniE51F" unicode="&#xe51f;" 
d="M922 1165v256l-99 -92h-51v57l199 191l198 -191v-57h-51l-98 92v-256h-98zM1444 1145l-199 190v58h51l99 -93v256h98v-256l98 93h51v-58zM643 113v983h1131v-983h-1131zM735 205h946v799h-946v-799zM1452 287l-12 155h-39l33 144l-48 35l41 157l52 43l-37 27l14 57l25 31
h35l26 -31l12 -57l-34 -27l51 -43l41 -157l-45 -35l30 -144h-38l-13 -155h-37v155h-18v-155h-39zM868 287v250l-41 38l11 203l84 47l-19 23l-10 53l29 35h45l28 -37l-12 -51l-16 -23l84 -47l10 -200l-41 -41v-250h-55v225h-41v-225h-56zM1147 287v250l-41 38l10 203l84 47
l-18 23l-11 53l29 35h45l29 -37l-12 -51l-17 -23l84 -47l10 -200l-41 -41v-250h-55v225h-41v-225h-55z" />
    <glyph glyph-name="uniE521" unicode="&#xe521;" 
d="M580 141l102 338h-164l162 373l102 352l129 72l-96 24l68 160l51 43h119l57 -121l-39 -114l-86 -15l45 -63l119 -242h129l39 -39v-47h-254l-96 168l-45 -172l100 -379h-109v-338h-102v338h-23l-106 -338h-102zM1405 858l-43 82l-129 115l16 73l197 -127h80l-21 129h74
l68 -169q4 31 24 54t60 23q41 0 64.5 -25.5t23.5 -62.5t-21 -64.5t-67 -27.5q-55 0 -80 45l-33 -45h-213zM1075 141v672h764v-672h-102v570h-559v-570h-103z" />
    <glyph glyph-name="uniE524" unicode="&#xe524;" 
d="M506 1055v94l708 434l711 -434v-94h-94l-617 372l-614 -372h-94zM502 283v671h112v-436h1198v283h113v-518h-113v123h-1196v-123h-114zM666 569v97h221l22 51h-170l-77 47l14 125l115 43l120 -55l39 -70l68 125l743 -131v-232h-1095z" />
    <glyph glyph-name="uniE527" unicode="&#xe527;" 
d="M995 162h-389v379h230l186 190v291l49 106l-49 111l39 90h108l56 -90l-58 -115l88 -155l211 213h392v-375h-226zM719 274h225l635 646h164v149h-223l-633 -641h-168v-154z" />
    <glyph glyph-name="uniE52A" unicode="&#xe52a;" 
d="M588 180v113h211v254h248v246h249v247h248v246h316v-110h-203v-248h-248v-248h-248v-248h-250v-252h-323z" />
    <glyph glyph-name="uniE52E" unicode="&#xe52e;" 
d="M897 885q-55 49 -55 131q0 84 49.5 140t138.5 56q0 78 55.5 131.5t133.5 53.5q75 0 130.5 -54t55.5 -131q86 0 136 -57t50 -139q0 -79 -55 -131h-639zM1196 0l-260 823h553l-246 -823h-47z" />
    <glyph glyph-name="uniE52F" unicode="&#xe52f;" 
d="M848 326v92l113 155l-89 306l-208 295h-109v92h172l127 -174h918l-168 -568h-572l-80 -106h711v-92h-815zM993 111q-35 0 -61.5 26.5t-26.5 61.5t26.5 61.5t61.5 26.5q37 0 62.5 -25.5t25.5 -62.5t-25.5 -62.5t-62.5 -25.5zM1493 111q-35 0 -60.5 25.5t-25.5 62.5
t25.5 62.5t60.5 25.5q37 0 63.5 -25.5t26.5 -62.5t-26.5 -62.5t-63.5 -25.5z" />
    <glyph glyph-name="uniE530" unicode="&#xe530;" 
d="M786 301l-200 657h323l49 232h498l49 -232h330l-201 -657h-848zM1020 958h377l-23 129h-332z" />
    <glyph glyph-name="uniE536" unicode="&#xe536;" 
d="M1034 199v393h-393v346h393v395h346v-395h396v-346h-396v-393h-346z" />
    <glyph glyph-name="uniE542" unicode="&#xe542;" 
d="M588 950l-94 94q120 148 306 220.5t408 72.5q439 0 715 -293l-94 -94q-156 139 -298 196.5t-323 57.5q-186 0 -336 -59t-284 -195zM754 784l-95 95q94 104 239 164.5t310 60.5t308 -59.5t241 -165.5l-94 -95q-114 105 -222 147t-233 42q-129 0 -240 -42t-214 -147z
M920 618l-95 95q83 87 176 122t207 35q112 0 205.5 -36t177.5 -121l-94 -95q-96 119 -289 119q-166 0 -288 -119zM1024 176l-63 221l-64 -221h-74l-80 299v35h74l53 -201l58 201h78l59 -205l53 205h60v-31l-80 -303h-74zM1348 176v334h200v-66h-125v-71h111v-66h-111v-131
h-75zM1210 176v334h86v-334h-86zM1585 176v334h86v-334h-86z" />
    <glyph glyph-name="uniE545" unicode="&#xe545;" 
d="M938 78v850l162 147v74h-88l-250 -223l-70 78l273 245h133v101h121v-101h143l260 123h39v-358h-39l-262 135h-141v-74l161 -145v-852h-442z" />
    <glyph glyph-name="uniE547" unicode="&#xe547;" 
d="M1083 422q-18 43 -18 90q0 53 21 98t54.5 78.5t74.5 65t81.5 66t74 73.5t54.5 95t21 124q0 98 -66 159.5t-170 61.5q-63 0 -112 -25t-74 -60t-41.5 -70.5t-20.5 -60.5l-4 -25h-159v139q2 6 5.5 16t18 39t33.5 55.5t53.5 59t75.5 55.5t102 39t130 16q198 0 322 -109
t124 -290q0 -81 -21.5 -148.5t-56 -112.5t-76 -82t-83.5 -66.5t-76.5 -58t-56 -63.5t-21.5 -75q0 -45 16 -84h-205zM1079 0v240h238v-240h-238z" />
    <glyph glyph-name="uniE549" unicode="&#xe549;" 
d="M1735 172q-103 -93 -239.5 -145t-287.5 -52t-286.5 52t-239.5 145q-114 106 -177 255.5t-63 309.5q0 161 62.5 310.5t177.5 255.5q103 93 239 144.5t287 51.5q261 0 447 -125l-10 148l57 45l61 -37l29 -385l-401 -29l-45 55l36 64l195 14q-160 109 -369 109
q-123 0 -236.5 -43.5t-199.5 -124.5q-85 -83 -133.5 -201.5t-48.5 -251.5t48.5 -251t133.5 -201q86 -81 199.5 -124.5t236.5 -43.5t237.5 43.5t199.5 124.5zM1141 580v-99h-324v70l146 162q33 37 45 65t12 64q0 61 -55 61q-30 0 -48.5 -19.5t-22.5 -39.5l-3 -19h-78v66
q1 4 4 10t15.5 22.5t29 29t47.5 22.5t68 10q68 0 110.5 -37.5t42.5 -101.5q0 -50 -22.5 -94.5t-71.5 -100.5l-63 -71h168zM1546 600h-73v-125h-97v125h-217v76l207 303h107v-291h73v-88zM1708 649v-168h-96v498h96v-209q34 49 98 49q58 0 89.5 -39t31.5 -100v-199h-98v168
q0 78 -57 78q-64 0 -64 -78zM1268 688h108v158z" />
    <glyph glyph-name="uniE54A" unicode="&#xe54a;" 
d="M881 479l-88 -305h-156l149 524l-260 70l21 63l90 39l235 -55l484 80l123 391h37l49 -133l336 -68l-25 -116l-104 -72h-232l111 -723h-160l-64 305h-301l-86 -305h-157l86 305h-88z" />
    <glyph glyph-name="uniE54B" unicode="&#xe54b;" 
d="M586 129v92h303v121l-115 14v95h363v-95l-115 -14v-121h256v314q-58 -25 -121 -25q-124 0 -209 82q-45 42 -70.5 101.5t-25.5 123.5q0 132 96 225q66 63 166 78q3 109 80 183q70 67 174 67q98 0 172 -67q44 -41 66 -99q119 -15 211 -100q59 -54 92 -129t33 -156
q0 -83 -33.5 -160.5t-91.5 -128.5q-107 -104 -265 -104q-74 0 -141 25v-230h367v-92h-1192z" />
    <glyph glyph-name="uniE54C" unicode="&#xe54c;" 
d="M1821 911l-613 381l-626 -381h-121v133l749 482l748 -482v-133h-137zM930 -29v1018h315q185 0 294.5 -91.5t109.5 -244.5q0 -98 -44 -180t-137.5 -135t-222.5 -53h-125v-314h-190zM1120 444h123q99 0 157 55.5t58 145.5q0 76 -58 129t-157 53h-123v-383z" />
    <glyph glyph-name="uniE54D" unicode="&#xe54d;" 
d="M889 0v1434h366q221 0 351.5 -119t130.5 -318q0 -93 -30.5 -176.5t-89 -150t-152 -105.5t-210.5 -39h-165v-526h-201zM1090 698h165q128 0 204.5 80t76.5 213q0 113 -75.5 192t-205.5 79h-165v-564z" />
    <glyph glyph-name="uniE565" unicode="&#xe565;" 
d="M1528 920l-346 81l118 64l-120 207q-13 22 -30 40.5t-30 22.5h266q26 0 39 -6t25 -26l66 -113l104 61zM1036 915l-215 123l135 234q14 26 32.5 39.5t53.5 13.5q56 0 84 -51l60 -100zM1622 508l-149 260l215 125l137 -238q16 -31 16 -53q0 -44 -28 -69t-74 -25h-117z
M719 342l-107 184q-26 45 -26 76q0 26 24 68l41 71l-112 68l342 78l96 -336l-109 67l-131 -227q-14 -24 -18 -49zM1468 86l-245 258l245 250v-129h279q21 0 29 4l-117 -203q-26 -47 -72 -47h-119v-133zM854 217q-44 0 -72 24t-28 66q0 25 16 53l57 103h301v-246h-274z" />
    <glyph glyph-name="uniE569" unicode="&#xe569;" 
d="M1208 1796q209 0 394 -72.5t327 -205.5q157 -148 245.5 -353.5t88.5 -427.5t-88 -427t-246 -353q-142 -133 -327 -206t-394 -73t-394 73t-327 206q-157 148 -245 353t-88 427t88 427.5t245 353.5q142 133 327 205.5t394 72.5zM1737 997q0 -139 -66.5 -255t-191.5 -173
l430 -430q100 119 155.5 272.5t55.5 325.5q0 198 -73 371t-202 297q-124 119 -290 183.5t-347 64.5q-166 0 -321.5 -55t-278.5 -158l281 -281v275h366q221 0 351.5 -119t130.5 -318zM1208 -178q168 0 323.5 55.5t278.5 159.5l-1300 1302q-101 -122 -157 -275.5t-56 -326.5
q0 -198 72.5 -370.5t201.5 -296.5q124 -119 290 -183.5t347 -64.5zM1090 1262v-304l249 -249q93 25 145 99.5t52 182.5q0 113 -75.5 192t-205.5 79h-165zM889 801l274 -275h-73v-526h-201v801z" />
    <glyph glyph-name="uniE56A" unicode="&#xe56a;" 
d="M1208 1796q209 0 394 -72.5t327 -205.5q157 -148 245.5 -353.5t88.5 -427.5t-88 -427t-246 -353q-142 -133 -327 -206t-394 -73t-394 73t-327 206q-157 148 -245 353t-88 427t88 427.5t245 353.5q142 133 327 205.5t394 72.5zM1540 897l88 -477l281 -281
q100 119 155.5 272.5t55.5 325.5q0 198 -73 371t-202 297q-124 119 -290 183.5t-347 64.5q-166 0 -321.5 -55t-278.5 -158l576 -576l170 27l125 395h37l49 -133l336 -68l-25 -116l-104 -72h-232zM1208 -178q168 0 323.5 55.5t278.5 159.5l-1300 1302q-101 -122 -157 -275.5
t-56 -326.5q0 -198 72.5 -370.5t201.5 -296.5q124 -119 290 -183.5t347 -64.5zM881 479l-88 -305h-156l149 524l-260 70l21 63l90 39l235 -55l336 -336h-82l-86 -305h-157l86 305h-88zM1309 381l204 -207h-200z" />
    <glyph glyph-name="uniE56B" unicode="&#xe56b;" 
d="M1208 1796q209 0 394 -72.5t327 -205.5q157 -148 245.5 -353.5t88.5 -427.5t-88 -427t-246 -353q-142 -133 -327 -206t-394 -73t-394 73t-327 206q-157 148 -245 353t-88 427t88 427.5t245 353.5q142 133 327 205.5t394 72.5zM1489 823l-62 -202l482 -482
q100 119 155.5 272.5t55.5 325.5q0 198 -73 371t-202 297q-124 119 -290 183.5t-347 64.5q-166 0 -321.5 -55t-278.5 -158l283 -283q55 55 139 55q0 78 55.5 131.5t133.5 53.5q75 0 130.5 -54t55.5 -131q86 0 136 -57t50 -139q0 -79 -55 -131h-373l62 -62h264zM1208 -178
q168 0 323.5 55.5t278.5 159.5l-1300 1302q-101 -122 -157 -275.5t-56 -326.5q0 -198 72.5 -370.5t201.5 -296.5q124 -119 290 -183.5t347 -64.5zM969 719l377 -377l-103 -342h-45z" />
    <glyph glyph-name="uniE56C" unicode="&#xe56c;" 
d="M1208 1796q209 0 394 -72.5t327 -205.5q157 -148 245.5 -353.5t88.5 -427.5t-88 -427t-246 -353q-142 -133 -327 -206t-394 -73t-394 73t-327 206q-157 148 -245 353t-88 427t88 427.5t245 353.5q142 133 327 205.5t394 72.5zM1628 1071h-90l-47 -514l418 -418
q100 119 155.5 272.5t55.5 325.5q0 198 -73 371t-202 297q-124 119 -290 183.5t-347 64.5q-166 0 -321.5 -55t-278.5 -158l238 -238l12 53h463l27 281h114l-26 -281h151zM1208 -178q168 0 323.5 55.5t278.5 159.5l-1300 1302q-101 -122 -157 -275.5t-56 -326.5
q0 -198 72.5 -370.5t201.5 -296.5q124 -119 290 -183.5t347 -64.5zM938 752l520 -521l-14 -151h-443z" />
    <glyph glyph-name="uniE56D" unicode="&#xe56d;" 
d="M1208 1796q209 0 394 -72.5t327 -205.5q157 -148 245.5 -353.5t88.5 -427.5t-88 -427t-246 -353q-142 -133 -327 -206t-394 -73t-394 73t-327 206q-157 148 -245 353t-88 427t88 427.5t245 353.5q142 133 327 205.5t394 72.5zM1872 305h-129l166 -166
q100 119 155.5 272.5t55.5 325.5q0 198 -73 371t-202 297q-124 119 -290 183.5t-347 64.5q-166 0 -321.5 -55t-278.5 -158l154 -154h389v-201h721v-780zM1208 -178q168 0 323.5 55.5t278.5 159.5l-1300 1302q-101 -122 -157 -275.5t-56 -326.5q0 -198 72.5 -370.5
t201.5 -296.5q124 -119 290 -183.5t347 -64.5zM1423 1225h297v-92h-297v92zM1053 1200h-205l117 -117h88v117zM1278 412l106 -107h-839v778h65l330 -333q-6 -30 -6 -54q0 -119 84.5 -203.5t202.5 -84.5q33 0 57 4zM1221 983q-64 0 -127 -29l385 -385q30 55 30 127
q0 118 -84.5 202.5t-203.5 84.5z" />
    <glyph glyph-name="uniE588" unicode="&#xe588;" 
d="M1313 92h-473v182h489q160 0 251 82.5t91 212.5t-91 212.5t-251 82.5h-500l238 -256v-119h-129l-442 467l442 465h129v-118l-238 -256h484q125 0 228 -38t170.5 -103t104.5 -151.5t37 -185.5t-37 -186t-104.5 -151.5t-170.5 -102t-228 -37.5z" />
    <glyph glyph-name="uniE589" unicode="&#xe589;" 
d="M1341 1348h-473v-183h490q160 0 251 -82.5t91 -212.5t-91 -212.5t-251 -82.5h-500l238 256v119h-129l-443 -467l443 -465h129v119l-238 256h483q125 0 228 37.5t171 102.5t105 151.5t37 185.5q0 133 -63 240.5t-187.5 172.5t-290.5 65z" />
    <glyph glyph-name="uniE58A" unicode="&#xe58a;" 
d="M1057 113h473v182h-490q-160 0 -251 82.5t-91 212.5t91 212.5t251 82.5h500l-237 -256v-119h129l442 467l-442 465h-129v-119l237 -256h-483q-125 0 -228 -37.5t-171 -102.5t-105 -151.5t-37 -185.5t37 -186t105 -151.5t171 -102t228 -37.5z" />
    <glyph glyph-name="uniE58B" unicode="&#xe58b;" 
d="M1063 1321h473v-182h-489q-160 0 -251 -82.5t-91 -212.5t91 -212.5t251 -82.5h499l-237 256v119h129l442 -467l-442 -465h-129v119l237 256h-483q-125 0 -228 37.5t-171 102.5t-105 151.5t-37 185.5t37 186t105 151.5t171 102t228 37.5z" />
    <glyph glyph-name="uniE58C" unicode="&#xe58c;" 
d="M1821 838v-473h-183v489q0 160 -82.5 251t-212.5 91t-212 -91t-82 -251v-500l256 238h118v-129l-467 -443l-464 443v129h118l256 -238v484q0 125 37.5 228t102.5 170.5t151.5 104.5t185.5 37t186 -37t152 -104.5t102.5 -170.5t37.5 -228z" />
    <glyph glyph-name="uniE592" unicode="&#xe592;" 
d="M864 367q-44 0 -105 24.5t-118 24.5q-33 0 -49 -2l-186 204v93h372l137 442h943v-762q-53 -24 -101 -24q-44 0 -105 24.5t-118 24.5t-118 -24.5t-105 -24.5t-105.5 24.5t-118.5 24.5q-55 0 -117 -24.5t-106 -24.5zM877 711h284v348h-178zM1253 850h211v209h-211v-209z
M1556 850h209v209h-209v-209zM864 207q-61 0 -120 24.5t-103 24.5q-46 0 -115 -29v105q55 22 115 22q57 0 118 -24.5t105 -24.5t106 24.5t117 24.5q57 0 118.5 -24.5t105.5 -24.5t105 24.5t118 24.5t118 -24.5t105 -24.5q46 0 101 25v-107q-50 -16 -101 -16q-61 0 -120 24.5
t-103 24.5t-103 -24.5t-120 -24.5t-120.5 24.5t-103.5 24.5t-103 -24.5t-120 -24.5z" />
    <glyph glyph-name="uniE596" unicode="&#xe596;" 
d="M969 307l-88 -307h-154l94 338l64 721l-117 -119l-29 -317h-73l-45 49l32 346l168 170l164 55l-20 172l47 98h147l66 -127l-47 -151l-80 -23l76 -51l239 -456l-27 -87l-2 -2l340 -616h-114l-465 844v-182l141 -287l109 -375h-154l-76 291l-145 246h-19z" />
    <glyph glyph-name="uniE599" unicode="&#xe599;" 
d="M1407 162h389v379h-229l-187 190v291l-49 106l49 111l-39 90h-108l-55 -90l57 -115l-88 -155l-211 213h-391v-375h225zM1683 274h-225l-635 646h-164v149h224l633 -641h167v-154z" />
    <glyph glyph-name="uniE59C" unicode="&#xe59c;" 
d="M1829 180v113h-211v254h-248v246h-250v247h-248v246h-315v-110h203v-248h248v-248h247v-248h250v-252h324z" />
    <glyph glyph-name="uniE5A0" unicode="&#xe5a0;" 
d="M584 838v-473h182v489q0 160 82.5 251t212.5 91t212.5 -91t82.5 -251v-500l-256 238h-119v-129l467 -443l465 443v129h-119l-256 -238v484q0 125 -37.5 228t-102.5 170.5t-151.5 104.5t-185.5 37t-186 -37t-151.5 -104.5t-102 -170.5t-37.5 -228z" />
    <glyph glyph-name="uniE5A1" unicode="&#xe5a1;" 
d="M1833 575v474h-182v-490q0 -160 -82.5 -251t-212.5 -91t-212.5 91t-82.5 251v500l256 -238h119v129l-467 443l-465 -443v-129h119l256 238v-484q0 -125 37.5 -228t102.5 -170.5t151.5 -104.5t185.5 -37t186 37t151.5 104.5t102 170.5t37.5 228z" />
    <glyph glyph-name="uniE5A2" unicode="&#xe5a2;" 
d="M592 575v474h182v-490q0 -160 82.5 -251t212.5 -91t212.5 91t82.5 251v500l-256 -238h-119v129l467 443l465 -443v-129h-119l-256 238v-484q0 -125 -37.5 -228t-102.5 -170.5t-151.5 -104.5t-185.5 -37t-186 37t-151.5 104.5t-102 170.5t-37.5 228z" />
    <glyph glyph-name="uniE5A3" unicode="&#xe5a3;" 
d="M1008 147v336h157v-178h467v869h-467v-185h-157v342h782v-1184h-782zM760 393l-338 344l338 350h112v-104l-151 -166h657v-158h-657l151 -163v-103h-112z" />
    <glyph glyph-name="uniE5A4" unicode="&#xe5a4;" 
d="M1444 147v336h-158v-178h-467v869h467v-185h158v342h-782v-1184h782zM1692 393l338 344l-338 350h-113v-104l152 -166h-658v-158h658l-152 -163v-103h113z" />
    <glyph glyph-name="uniE5A5" unicode="&#xe5a5;" 
d="M1800 958h-336v-157h178v-467h-868v467h184v157h-342v-782h1184v782zM1554 1206l-344 338l-350 -338v-112h105l165 151v-657h158v657l164 -151h102v112z" />
    <glyph glyph-name="uniE5A6" unicode="&#xe5a6;" horiz-adv-x="2437" 
d="M1800 514h-336v158h178v467h-868v-467h184v-158h-342v782h1184v-782zM1554 266l-344 -338l-350 338v113h105l165 -152v658h158v-658l164 152h102v-113z" />
    <glyph glyph-name="uniF50A" unicode="&#xf50a;" horiz-adv-x="1282" 
d="M930 -252q0 -185 -254 -207h-174v164q139 0 139 74q0 71 -131 71v127q-81 12 -151 39t-118 60t-83.5 72t-54.5 75t-25 68v153h268q3 -20 13 -43.5t32 -51t52.5 -49t78.5 -36t105 -14.5q115 0 177 56.5t62 150.5q0 92 -61.5 145t-188.5 53h-184v258h160q105 0 162 55
t57 142q0 80 -59.5 129t-147.5 49q-60 0 -106.5 -17.5t-72 -46t-38.5 -56.5t-16 -56h-269v154q7 34 27 71.5t62 79t98 74.5t143 54.5t189 21.5q234 0 376 -113t142 -311q0 -111 -58.5 -199t-160.5 -131q130 -34 203 -129.5t73 -232.5q0 -191 -115 -318t-323 -156v-59
q79 -12 125.5 -56.5t46.5 -113.5z" />
    <glyph glyph-name="uniF50B" unicode="&#xf50b;" horiz-adv-x="1038" 
d="M809 -252q0 -185 -254 -207h-174v164q139 0 139 74q0 71 -131 71v130q-71 12 -128 36t-96 59t-54 52t-37 47v137h243q12 -22 23 -37t33 -36t56.5 -32t78.5 -11q82 0 122 31.5t40 86.5q0 109 -166 109h-154v196h144q139 0 139 113q0 49 -34.5 78t-102.5 29
q-72 0 -113.5 -35.5t-60.5 -79.5h-238v139q17 25 30.5 42t52 50.5t81.5 55t114.5 38.5t155.5 17q192 0 299 -76t107 -215q0 -167 -160 -225q98 -29 148.5 -94.5t50.5 -159.5q0 -132 -83.5 -213.5t-242.5 -104.5v-59q79 -12 125.5 -56.5t46.5 -113.5z" />
    <glyph glyph-name="uniF50E" unicode="&#xf50e;" horiz-adv-x="1445" 
d="M299 0h-272v143l522 1393h346l520 -1372v-164h-295l-119 326h-585zM911 604l-200 565l-201 -565h401zM408 1649v225h626v-225h-626z" />
    <glyph glyph-name="uniF50F" unicode="&#xf50f;" horiz-adv-x="1128" 
d="M403 -31q-163 0 -251.5 91.5t-88.5 230.5q0 152 112 236.5t333 84.5q47 0 95 -5t73 -10l24 -5v45q0 172 -170 172q-37 0 -69 -9.5t-51 -23.5t-32.5 -28t-18.5 -24l-5 -9h-233v137q4 9 11.5 23t40.5 51t75.5 65t119.5 51t169 23q473 0 473 -438v-627h-279l-20 131
q-98 -162 -308 -162zM504 207q92 0 144 52.5t52 115.5v45q-72 16 -172 16q-159 0 -159 -117q0 -112 135 -112zM291 1249v238h586v-238h-586z" />
    <glyph glyph-name="uniF510" unicode="&#xf510;" horiz-adv-x="1234" 
d="M168 0v1536h965v-289h-625v-325h553v-267h-553v-366h625v-289h-965zM344 1649v225h627v-225h-627z" />
    <glyph glyph-name="uniF511" unicode="&#xf511;" horiz-adv-x="1193" 
d="M631 -31q-136 0 -243.5 41.5t-175.5 116t-103 172.5t-35 215q0 114 36.5 214t104.5 175t172 118.5t231 43.5q128 0 225.5 -37t157 -103.5t89.5 -153.5t30 -193q0 -32 -3.5 -65t-6.5 -50l-4 -17h-721q14 -108 77.5 -168.5t174.5 -60.5q52 0 93.5 9.5t64 23.5t38 28
t20.5 24l5 9h242v-137q-4 -8 -13 -22t-46 -49.5t-85 -62.5t-135 -49t-190 -22zM391 633h432q0 79 -54 132.5t-153 53.5q-182 0 -225 -186zM322 1249v238h585v-238h-585z" />
    <glyph glyph-name="uniF518" unicode="&#xf518;" horiz-adv-x="1691" 
d="M846 -31q-169 0 -311.5 59.5t-241.5 165.5t-154 255t-55 325q0 232 94.5 412t268.5 280.5t399 100.5t399 -100.5t268.5 -280.5t94.5 -412q0 -176 -55 -325t-154 -255t-241.5 -165.5t-311.5 -59.5zM846 258q192 0 307 142t115 374q0 226 -115 365t-307 139t-307 -139
t-115 -365q0 -232 115 -374t307 -142zM526 1649v225h627v-225h-627z" />
    <glyph glyph-name="uniF519" unicode="&#xf519;" horiz-adv-x="1241" 
d="M621 -31q-167 0 -293 75t-190 199t-64 277q0 152 64 274.5t190 196.5t293 74q166 0 292 -74t190 -196.5t64 -274.5q0 -153 -64 -277t-190 -199t-292 -75zM621 238q116 0 176.5 79t60.5 203q0 121 -60.5 199t-176.5 78t-177 -78t-61 -199q0 -124 61 -203t177 -79z
M334 1249v238h586v-238h-586z" />
    <glyph glyph-name="uniF51A" unicode="&#xf51a;" horiz-adv-x="1691" 
d="M846 -31q-169 0 -311.5 59.5t-241.5 165.5t-154 255t-55 325q0 232 94.5 412t268.5 280.5t399 100.5t399 -100.5t268.5 -280.5t94.5 -412q0 -176 -55 -325t-154 -255t-241.5 -165.5t-311.5 -59.5zM846 258q192 0 307 142t115 374q0 226 -115 365t-307 139t-307 -139
t-115 -365q0 -232 115 -374t307 -142zM848 1647q-80 0 -147.5 18t-108.5 45t-65 51.5t-33 44.5v136h237q-1 -17 8.5 -43t38.5 -51t70 -25q54 0 85.5 44t31.5 75h237v-136q-9 -20 -32.5 -44.5t-64.5 -51.5t-109 -45t-148 -18z" />
    <glyph glyph-name="uniF51B" unicode="&#xf51b;" horiz-adv-x="1241" 
d="M621 -31q-167 0 -293 75t-190 199t-64 277q0 152 64 274.5t190 196.5t293 74q166 0 292 -74t190 -196.5t64 -274.5q0 -153 -64 -277t-190 -199t-292 -75zM621 238q116 0 176.5 79t60.5 203q0 121 -60.5 199t-176.5 78t-177 -78t-61 -199q0 -124 61 -203t177 -79z
M618 1204q-80 0 -145 21t-102 52.5t-57 58.5t-27 50v132h221q-1 -16 3.5 -35.5t15 -40.5t34.5 -35t57 -14q40 0 67.5 24.5t36.5 51t9 49.5h221v-132q-7 -23 -27.5 -50t-58 -58.5t-103 -52.5t-145.5 -21z" />
    <glyph glyph-name="uniF522" unicode="&#xf522;" horiz-adv-x="1509" 
d="M692 -31q-107 0 -202 21.5t-163 55.5t-121 78t-83.5 88t-42.5 87v156h266q5 -18 18.5 -40t42 -50.5t65.5 -51t94.5 -38t123.5 -15.5q173 0 269.5 102t115.5 283h-600v268h600q-19 170 -115.5 267.5t-263.5 97.5q-80 0 -146 -21.5t-103.5 -53.5t-58.5 -60.5t-26 -50.5
h-268v155q8 31 32 69t73.5 83t115 82t166 61.5t215.5 24.5q225 0 391 -101.5t251 -280.5t85 -413q0 -238 -84.5 -418t-251 -282.5t-395.5 -102.5zM379 1649v225h627v-225h-627z" />
    <glyph glyph-name="uniF523" unicode="&#xf523;" horiz-adv-x="1118" 
d="M506 -31q-92 0 -170 24t-123.5 58t-77.5 68t-45 58l-12 24v137h233q2 -5 5.5 -13t19.5 -28t36 -35.5t55.5 -28t78.5 -12.5q98 0 153 54t64 151h-344v188h342q-9 94 -64 145.5t-151 51.5q-43 0 -79 -11.5t-56 -28t-34 -33.5t-19 -28l-5 -12h-233v138q4 9 12 25t42.5 55.5
t78 70t122 55.5t171.5 25q127 0 230.5 -43.5t170 -119.5t102 -176t35.5 -214t-34 -211.5t-99.5 -172.5t-169.5 -118t-235 -43zM238 1251v238h585v-238h-585z" />
    <glyph glyph-name="uniF524" unicode="&#xf524;" horiz-adv-x="1509" 
d="M692 -31q-107 0 -202 21.5t-163 55.5t-121 78t-83.5 88t-42.5 87v156h266q5 -18 18.5 -40t42 -50.5t65.5 -51t94.5 -38t123.5 -15.5q173 0 269.5 102t115.5 283h-600v268h600q-19 170 -115.5 267.5t-263.5 97.5q-80 0 -146 -21.5t-103.5 -53.5t-58.5 -60.5t-26 -50.5
h-268v155q8 31 32 69t73.5 83t115 82t166 61.5t215.5 24.5q225 0 391 -101.5t251 -280.5t85 -413q0 -238 -84.5 -418t-251 -282.5t-395.5 -102.5zM696 1647q-80 0 -147.5 18t-108.5 45t-65 51.5t-33 44.5v136h238q-1 -17 8.5 -43t38 -51t69.5 -25q54 0 85.5 44t31.5 75h238
v-136q-9 -20 -33 -44.5t-65 -51.5t-109 -45t-148 -18z" />
    <glyph glyph-name="uniF525" unicode="&#xf525;" horiz-adv-x="1118" 
d="M506 -31q-92 0 -170 24t-123.5 58t-77.5 68t-45 58l-12 24v137h233q2 -5 5.5 -13t19.5 -28t36 -35.5t55.5 -28t78.5 -12.5q98 0 153 54t64 151h-344v188h342q-9 94 -64 145.5t-151 51.5q-43 0 -79 -11.5t-56 -28t-34 -33.5t-19 -28l-5 -12h-233v138q4 9 12 25t42.5 55.5
t78 70t122 55.5t171.5 25q127 0 230.5 -43.5t170 -119.5t102 -176t35.5 -214t-34 -211.5t-99.5 -172.5t-169.5 -118t-235 -43zM518 1204q-80 0 -145 21t-102 52.5t-57.5 58.5t-27.5 50v132h222q-1 -16 3.5 -35.5t15 -40.5t34.5 -35t57 -14q40 0 67.5 24.5t36.5 51t9 49.5
h221v-132q-7 -23 -27.5 -50t-58 -58.5t-103 -52.5t-145.5 -21z" />
    <glyph glyph-name="uniF528" unicode="&#xf528;" horiz-adv-x="1402" 
d="M895 553h-158l-383 -553h-282v160l342 471q-127 47 -206 157t-79 256q0 227 156 359.5t420 132.5h530v-1536h-340v553zM707 825h194v428h-194q-112 0 -175 -57.5t-63 -153.5q0 -97 64.5 -157t173.5 -60zM434 1649v225h627v-225h-627z" />
    <glyph glyph-name="uniF529" unicode="&#xf529;" horiz-adv-x="1138" 
d="M698 346h-92l-274 -346h-248v139l223 252q-105 39 -161 113t-56 178q0 154 112 253t330 99h476v-1034h-310v346zM557 551h141v264h-141q-74 0 -116 -34t-42 -101q0 -63 41 -96t117 -33zM299 1249v238h586v-238h-586z" />
    <glyph glyph-name="uniF52C" unicode="&#xf52c;" horiz-adv-x="2217" 
d="M1401 -31q-197 0 -353.5 87t-250.5 239t-119 350h-170v-645h-340v1536h340v-604h176q21 140 81.5 256.5t151.5 200.5t215.5 131t268.5 47q219 0 386 -103t256 -282.5t89 -407.5q0 -231 -89 -413.5t-256 -287t-386 -104.5zM1401 258q182 0 287.5 144t105.5 372
q0 222 -106 363t-287 141q-120 0 -209.5 -66t-135.5 -179.5t-46 -258.5q0 -228 105 -372t286 -144zM678 1649v225h627v-225h-627z" />
    <glyph glyph-name="uniF52D" unicode="&#xf52d;" horiz-adv-x="1687" 
d="M1077 -31q-210 0 -346 121t-170 313h-121v-403h-309v1034h309v-383h123q38 185 173 299.5t341 114.5q163 0 287 -74t187 -196.5t63 -274.5q0 -153 -63 -277t-187 -199t-287 -75zM1077 242q113 0 170.5 77.5t57.5 200.5q0 120 -57.5 196.5t-170.5 76.5t-171 -76.5
t-58 -196.5q0 -123 58 -200.5t171 -77.5zM463 1249v238h586v-238h-586z" />
    <glyph glyph-name="uniF536" unicode="&#xf536;" horiz-adv-x="1923" 
d="M168 0v1536h340v-502h174q139 0 252 -39.5t186.5 -108t113.5 -160.5t40 -198q0 -109 -39 -204.5t-112 -168t-186.5 -114t-254.5 -41.5h-514zM1415 0v1536h340v-1536h-340zM502 283h178q119 0 186.5 64.5t67.5 176.5q0 97 -68 162.5t-186 65.5h-178v-469zM967 1647
q-80 0 -147.5 18t-109 45t-65.5 51.5t-33 44.5v136h238q-1 -17 8.5 -43t38.5 -51t70 -25q54 0 85 44t31 75h238v-136q-9 -20 -32.5 -44.5t-64.5 -51.5t-109 -45t-148 -18z" />
    <glyph glyph-name="uniF537" unicode="&#xf537;" horiz-adv-x="1579" 
d="M131 0v1034h309v-311h158q219 0 331.5 -96.5t112.5 -255.5q0 -166 -113 -268.5t-335 -102.5h-463zM1139 0v1034h309v-1034h-309zM440 231h129q75 0 116.5 34t41.5 102q0 61 -41 93t-115 32h-131v-261zM774 1204q-80 0 -145 21t-102 52.5t-57.5 58.5t-27.5 50v132h222
q-1 -16 3.5 -35.5t15 -40.5t34.5 -35t57 -14q40 0 67.5 24.5t36.5 51t9 49.5h221v-132q-7 -23 -27.5 -50t-58 -58.5t-103 -52.5t-145.5 -21z" />
    <glyph glyph-name="uniF53C" unicode="&#xf53c;" horiz-adv-x="1112" 
d="M168 0v1536h944v-289h-604v-346h543v-266h-543v-635h-340z" />
    <glyph glyph-name="uniF53D" unicode="&#xf53d;" horiz-adv-x="940" 
d="M815 350h-375v-350h-309v1034h737v-252h-428v-200h375v-232z" />
    <glyph glyph-name="uniF53E" unicode="&#xf53e;" horiz-adv-x="1492" 
d="M1124 -252q0 -185 -254 -207h-174v164q140 0 140 74q0 71 -131 71v130q-290 41 -454.5 254t-164.5 534q0 238 93 419.5t264 280.5t395 99q117 0 215 -24t160.5 -59.5t109 -81t68.5 -83.5t30 -72v-155h-268q-5 26 -23.5 54.5t-52.5 60t-95.5 51.5t-139.5 20
q-191 0 -303.5 -136.5t-112.5 -371.5q0 -232 113 -371t303 -139q76 0 138.5 21.5t99 54.5t57 63t26.5 56h269v-156q-12 -45 -46 -93t-90 -96t-146 -85t-198 -50v-57q79 -12 125.5 -56.5t46.5 -113.5z" />
    <glyph glyph-name="uniF53F" unicode="&#xf53f;" horiz-adv-x="1120" 
d="M903 -252q0 -185 -254 -207h-174v164q139 0 139 74q0 71 -131 71v132q-198 37 -303.5 182.5t-105.5 349.5q0 153 63 277.5t187.5 200t289.5 75.5q71 0 133 -13.5t104 -34.5t76.5 -47t54 -52t33 -47t18.5 -35l5 -13v-137h-231q-1 5 -4 12t-17.5 26.5t-33.5 34t-56 26.5
t-82 12q-113 0 -172 -80.5t-59 -204.5q0 -122 59 -199t172 -77q48 0 85.5 11.5t57 27.5t32.5 32t17 27l3 12h231v-137q-2 -8 -8 -20.5t-30 -47t-55 -63.5t-89 -58t-127 -42v-62q79 -12 125.5 -56.5t46.5 -113.5z" />
    <glyph glyph-name="commaaccent" unicode="&#xf6c3;" horiz-adv-x="561" 
d="M156 -420l-11 314h320v-148l-113 -166h-196z" />
    <glyph glyph-name="cyrbreve" unicode="&#xf6d4;" horiz-adv-x="933" 
d="M487 1194q-80 0 -145 21t-102 52.5t-57 58.5t-27 50v131h221q-1 -16 3.5 -35.5t15 -40.5t34.5 -35t57 -14q40 0 67.5 24.5t36.5 51t9 49.5h221v-131q-7 -23 -27.5 -50t-58 -58.5t-103 -52.5t-145.5 -21z" />
    <glyph glyph-name="f_f" unicode="&#xfb00;" horiz-adv-x="1511" 
d="M537 0h-310v782h-174v252h174v86q0 200 106 313t304 113q103 0 143 -20v-262q-51 22 -98 22q-71 0 -108 -41.5t-37 -138.5v-72h307v115q0 189 110.5 298t305.5 109q132 0 214 -49.5t111 -136.5v-139h-229q0 19 -22 41t-70 22q-113 0 -113 -143v-117h330v-252h-330v-782
h-307v782h-307v-782z" />
    <glyph glyph-name="f_f_i" unicode="&#xfb03;" horiz-adv-x="1898" 
d="M537 0h-310v782h-174v252h174v86q0 200 106 313t304 113q103 0 143 -20v-262q-51 22 -98 22q-71 0 -108 -41.5t-37 -138.5v-72h307v64q0 216 138.5 337t365.5 121q171 0 277.5 -67t139.5 -174v-137h-256q0 13 -7 30t-24 37.5t-53.5 34.5t-87.5 14q-186 0 -186 -194v-66
h205v-252h-205v-782h-307v782h-307v-782zM1458 0v1034h309v-1034h-309z" />
    <glyph glyph-name="f_f_l" unicode="&#xfb04;" horiz-adv-x="1898" 
d="M537 0h-310v782h-174v252h174v86q0 200 106 313t304 113q103 0 143 -20v-262q-59 22 -98 22q-72 0 -108.5 -41.5t-36.5 -138.5v-72h307v53q0 222 136 345.5t376 123.5q127 0 237 -30t174 -78v-1448h-309v1278q-43 16 -100 16q-110 0 -158.5 -49t-48.5 -155v-56h205v-252
h-205v-782h-307v782h-307v-782z" />
    <glyph glyph-name="u1F374" unicode="&#x1f374;" 
d="M1309 0l47 680l-109 47l76 522l113 156h67l33 -664l-45 -61l47 -680h-229zM899 0l47 815l-90 80v498h74v-326h43v326h74v-324h40v324h72v-496l-86 -82l47 -815h-221z" />
    <glyph glyph-name="u1F3DB" unicode="&#x1f3db;" 
d="M610 283v92h82v92h62v481h-144v92l598 349l600 -349v-92h-143v-481h61v-92h82v-92h82v-93h-1362v93h82zM958 467v481h-112v-481h112zM1163 467v481h-112v-481h112zM1368 467v481h-113v-481h113zM1573 467v481h-113v-481h113z" />
    <glyph glyph-name="u1F4B1" unicode="&#x1f4b1;" 
d="M465 389v655h1487v-655h-1487zM557 481h1303v471h-1303v-471zM799 549q-73 0 -121.5 49.5t-48.5 118.5q0 70 48 120t122 50q73 0 120.5 -49.5t47.5 -120.5q0 -69 -47.5 -118.5t-120.5 -49.5zM1210 549q-74 0 -122 49t-48 119q0 72 47.5 121t122.5 49t121.5 -49.5
t46.5 -120.5q0 -69 -47.5 -118.5t-120.5 -49.5zM1620 547q-72 0 -120 50.5t-48 119.5t48 119.5t120 50.5q74 0 121 -50t47 -120t-47 -120t-121 -50zM1198 590h25v26q25 3 40 17.5t15 36.5q0 24 -11.5 37.5t-43.5 25.5v64q18 -3 26 -23h23v21q-17 25 -49 30v23h-25v-25
q-51 -9 -51 -55q0 -42 51 -57v-72q-26 9 -33 29h-20v-21q12 -28 53 -31v-26zM1626 614q25 0 44 8.5t26 17.5l6 9v19h-21q-1 -3 -4 -8t-16.5 -13t-32.5 -8q-47 0 -65 45h75l11 27h-93v16h103l12 29h-106q16 43 63 43q12 0 21.5 -3t15 -6.5t9 -7.5t4.5 -7l1 -3h23v19
q-2 4 -7 9t-24.5 14t-44.5 9q-36 0 -60.5 -18.5t-33.5 -48.5h-21l-12 -29h25v-16h-13l-12 -27h31q9 -32 34 -51t62 -19zM754 616h30v33h64v25h-64v16h25q34 0 52 19.5t18 48.5q0 28 -19 44.5t-51 16.5h-55v-104h-35v-25h35v-16h-35v-25h35v-33zM1198 743q-22 8 -22 27
q0 24 22 27v-54zM784 715v80h23q21 0 32 -11.5t11 -27.5q0 -19 -11.5 -30t-31.5 -11h-23zM1223 639v61q28 -9 28 -30q0 -22 -28 -31z" />
    <glyph glyph-name="u1F4B3" unicode="&#x1f4b3;" 
d="M567 287v860h1282v-860h-1282zM659 1055v-121h1098v121h-1098zM659 379h1098v371h-1098v-371zM1030 549h297v-82h-297v82zM729 549h215v-82h-215v82z" />
    <glyph glyph-name="u1F4F1" unicode="&#x1f4f1;" 
d="M903 164v1210h610v-1210h-610zM1108 1231h201v51h-201v-51zM985 412h447v731h-447v-731zM1208 225q26 0 45 19t19 45q0 24 -19.5 42.5t-44.5 18.5t-44 -18t-19 -43q0 -26 18.5 -45t44.5 -19z" />
    <glyph glyph-name="u1F4F5" unicode="&#x1f4f5;" 
d="M1208 1796q209 0 394 -72.5t327 -205.5q157 -148 245.5 -353.5t88.5 -427.5t-88 -427t-246 -353q-142 -133 -327 -206t-394 -73t-394 73t-327 206q-157 148 -245 353t-88 427t88 427.5t245 353.5q142 133 327 205.5t394 72.5zM1513 1372v-837l396 -396
q100 119 155.5 272.5t55.5 325.5q0 198 -73 371t-202 297q-124 119 -290 183.5t-347 64.5q-166 0 -321.5 -55t-278.5 -158l295 -295v227h610zM1208 -178q168 0 323.5 55.5t278.5 159.5l-1300 1302q-101 -122 -157 -275.5t-56 -326.5q0 -198 72.5 -370.5t201.5 -296.5
q124 -119 290 -183.5t347 -64.5zM1309 1231v51h-201v-51h201zM985 1143v-80l447 -447v527h-447zM903 786l82 -81v-293h293l235 -236v-12h-610v622zM1272 289q0 24 -19.5 42.5t-44.5 18.5t-44 -18t-19 -43q0 -26 18.5 -45t44.5 -19t45 19t19 45z" />
    <glyph glyph-name="u1F4F7" unicode="&#x1f4f7;" 
d="M545 305v780h186v201h420v-201h721v-780h-1327zM1423 1133v92h297v-92h-297zM834 1083h219v117h-219v-117zM1221 408q120 0 204 84t84 204q0 118 -84.5 202.5t-203.5 84.5t-203 -84.5t-84 -202.5q0 -119 84.5 -203.5t202.5 -84.5zM1221 469q-92 0 -159 67.5t-67 159.5
t67 159t159 67t158.5 -67t66.5 -159q0 -94 -65.5 -160.5t-159.5 -66.5z" />
    <glyph glyph-name="u1F681" unicode="&#x1f681;" 
d="M1038 207v266l-114 168h-279l-104 -160h-107l72 230l-72 229h107l102 -160h283l264 154v188h92v-188h330l233 -270v-189l-82 -78h-116v-190h-609zM561 1030v92h557v-92h-557zM1354 1030v92h608v-92h-608zM1452 633h299l-192 223h-107v-223zM1130 299h424v96h-424v-96z
" />
    <glyph glyph-name="u1F687" unicode="&#x1f687;" 
d="M670 123v819q0 250 145.5 405.5t392.5 155.5t393 -155.5t146 -405.5v-819h-102l-234 274v66h143v758l-346 26l-346 -26v-758h144v-66l-234 -274h-102zM1055 1163v39h305v-39h-305zM1098 539v579l110 4l111 -4v-579h-221zM922 846v258l125 10v-268h-125zM1370 846v268
l125 -10v-258h-125zM1139 578h139v268h-139v-268zM973 547q-25 0 -42.5 17.5t-17.5 39.5q0 23 17 39t43 16q25 0 42 -16t17 -39q0 -22 -17.5 -39.5t-41.5 -17.5zM1444 547q-24 0 -42 17.5t-18 39.5q0 23 17.5 39t42.5 16q26 0 42.5 -15.5t16.5 -39.5q0 -23 -17 -40t-42 -17z
M1104 391v41h209v-41h-209zM999 268l54 76h307l53 -76h-414zM895 121l72 100h479l72 -100h-623z" />
    <glyph glyph-name="u1F688" unicode="&#x1f688;" 
d="M1595 82l-84 98h-612l-84 -98h-131l283 332v80h-174v915l411 35l418 -35v-915h-172v-80l283 -332h-138zM1530 1329l-277 23v-396h277v373zM1161 956v396l-276 -23v-373h276zM1489 596q32 0 53 21t21 49t-21 47.5t-53 19.5q-29 0 -50.5 -19.5t-21.5 -47.5t21.5 -49
t50.5 -21zM926 733q-31 0 -51.5 -19.5t-20.5 -47.5t21 -49t51 -21t50.5 21t20.5 49t-20.5 47.5t-50.5 19.5zM1331 408v49h-248v-49h248zM967 258h479l-62 72h-356z" />
    <glyph glyph-name="u1F68C" unicode="&#x1f68c;" 
d="M856 354q0 72 -48 115t-116 43q-70 0 -118 -42.5t-48 -115.5h-92v412l133 416h1397v-828h-94q0 72 -48 115t-116 43q-70 0 -118 -42.5t-48 -115.5h-684zM526 608h156l63 170v314h-114l-105 -320v-164zM838 1092v-314h133v314h-133zM1063 1092v-314h133v314h-133z
M1288 1092v-314h133v314h-133zM1513 1092v-314h134v314h-134zM1872 1092h-133v-314h133v314zM692 459q45 0 80 -31.5t35 -83.5q0 -54 -35 -85.5t-80 -31.5q-49 0 -83 31.5t-34 85.5q0 53 34.5 84t82.5 31zM1706 459q45 0 80 -31.5t35 -83.5q0 -54 -35 -85.5t-80 -31.5
q-49 0 -83 31.5t-34 85.5q0 53 34.5 84t82.5 31z" />
    <glyph glyph-name="u1F68D" unicode="&#x1f68d;" 
d="M666 80v1304h1085v-1304h-235v166h-615v-166h-235zM942 1159h531v123h-531v-123zM788 647h840v410h-840v-410zM788 422h236v113h-236v-113zM1393 422h235v113h-235v-113z" />
    <glyph glyph-name="u1F690" unicode="&#x1f690;" 
d="M877 436q0 72 -48 115t-116 43q-70 0 -118 -42.5t-48 -115.5h-133v369l202 336h1348v-705h-115q0 72 -47.5 115t-115.5 43q-70 0 -118 -42.5t-48 -115.5h-643zM569 860h320v191h-215zM981 860h236v191h-236v-191zM1309 860h235v191h-235v-191zM1872 1051h-236v-191h236
v191zM713 541q45 0 79.5 -31.5t34.5 -83.5q0 -54 -34.5 -85.5t-79.5 -31.5q-49 0 -83 31.5t-34 85.5q0 53 34.5 84t82.5 31zM1686 541q45 0 79.5 -31.5t34.5 -83.5q0 -54 -34.5 -85.5t-79.5 -31.5q-49 0 -83 31.5t-34 85.5q0 53 34.5 84t82.5 31z" />
    <glyph glyph-name="u1F695" unicode="&#x1f695;" 
d="M1040 1401h-71v-215h-66v215h-72v53h209v-53zM1448 1186l-57 92l-62 -92h-47v31l74 106l-70 100v31h55l54 -86l57 86h47v-29l-67 -100l69 -106v-33h-53zM1538 1186v268h64v-268h-64zM1225 1186l-25 57h-102l-23 -57h-49v26l92 242h64l92 -237v-31h-49zM1114 1290h68
l-33 94zM872 395q0 72 -47.5 115t-115.5 43q-70 0 -118 -42.5t-48 -115.5h-133v299l319 123l342 283h578l192 -281l127 -69l39 -355h-141q0 72 -48 115t-116 43q-70 0 -118 -42.5t-48 -115.5h-664zM1575 1010h-455l-231 -191h819zM709 500q45 0 79.5 -31.5t34.5 -83.5
q0 -54 -34.5 -85.5t-79.5 -31.5q-49 0 -83 31.5t-34 85.5q0 53 34.5 84t82.5 31zM1702 500q45 0 80 -31.5t35 -83.5q0 -54 -35 -85.5t-80 -31.5q-49 0 -83 31.5t-34 85.5q0 53 34.5 84t82.5 31z" />
    <glyph glyph-name="u1F696" unicode="&#x1f696;" 
d="M1014 1421h-72v-215h-65v215h-72v54h209v-54zM1421 1206l-57 92l-61 -92h-48v31l74 106l-69 101v31h55l53 -86l57 86h48v-29l-68 -100l70 -107v-33h-54zM1511 1206v269h64v-269h-64zM1198 1206l-24 58h-103l-22 -58h-50v27l93 242h63l92 -238v-31h-49zM1087 1311h68
l-33 94zM592 178v123l-78 37v266l373 500h653l373 -500v-266l-78 -37v-123h-246v123h-751v-123h-246zM1481 1014h-535l-145 -203h831zM752 584h-156v-129h156v129zM977 584h-156v-129h156v129zM1606 584h-156v-129h156v129zM1831 584h-156v-129h156v129z" />
    <glyph glyph-name="u1F697" unicode="&#x1f697;" 
d="M410 457v299l319 123l342 282h578l192 -280l127 -70l39 -354h-141q0 72 -48 114.5t-116 42.5q-70 0 -118 -42t-48 -115h-664q0 72 -47.5 114.5t-115.5 42.5q-70 0 -118 -42t-48 -115h-133zM889 881h819l-133 190h-455zM709 330q-49 0 -83 31t-34 85q0 53 34.5 84t82.5 31
q45 0 79.5 -31.5t34.5 -83.5q0 -54 -34.5 -85t-79.5 -31zM1702 330q-49 0 -83 31t-34 85q0 53 34.5 84t82.5 31q45 0 80 -31.5t35 -83.5q0 -54 -35 -85t-80 -31z" />
    <glyph glyph-name="u1F698" unicode="&#x1f698;" 
d="M592 281v163l-78 37v267l373 499h653l373 -499v-267l-78 -37v-163h-246v163h-751v-163h-246zM801 954h831l-151 203h-535zM596 598h156v129h-156v-129zM821 598h156v129h-156v-129zM1450 598h156v129h-156v-129zM1675 598h156v129h-156v-129z" />
    <glyph glyph-name="u1F69A" unicode="&#x1f69a;" 
d="M414 436v289l202 334h271v205h1016v-828h-115q0 72 -48 115t-116 43q-70 0 -118 -42.5t-48 -115.5h-581q0 72 -48 115t-116 43q-70 0 -118 -42.5t-48 -115.5h-133zM563 778h326v189h-211zM713 309q-49 0 -83 31.5t-34 85.5q0 53 34.5 84t82.5 31q45 0 79.5 -31.5
t34.5 -83.5q0 -54 -34.5 -85.5t-79.5 -31.5zM1624 309q-49 0 -83 31.5t-34 85.5q0 53 34.5 84t82.5 31q45 0 80 -31.5t35 -83.5q0 -54 -35 -85.5t-80 -31.5z" />
    <glyph glyph-name="u1F69B" unicode="&#x1f69b;" 
d="M414 412v229l161 270h302v-315h59v541h1034v-725h-72q0 58 -38.5 92.5t-92.5 34.5q-57 0 -95 -34t-38 -93h-434q-1 59 -36.5 93t-90.5 34q-54 0 -92 -34t-41 -93h-156q0 58 -38 92.5t-93 34.5t-94 -34t-39 -93h-106zM535 686h260v152h-168zM653 309q-39 0 -66.5 25
t-27.5 69q0 42 27.5 67.5t66.5 25.5q36 0 64 -25.5t28 -67.5q0 -43 -28 -68.5t-64 -25.5zM1073 309q-36 0 -63.5 25t-30.5 69q3 42 30.5 67.5t63.5 25.5q38 0 66.5 -25.5t25.5 -67.5q3 -43 -25.5 -68.5t-66.5 -25.5zM1767 309q-39 0 -66.5 25t-27.5 69q0 42 27.5 67.5
t66.5 25.5q35 0 64 -25.5t29 -67.5q0 -43 -29 -68.5t-64 -25.5z" />
    <glyph glyph-name="u1F6A6" unicode="&#x1f6a6;" 
d="M1120 -41v301h-168v1276h502v-1276h-168v-301h-166zM1202 1151q63 0 107.5 43t44.5 106t-44.5 107.5t-107.5 44.5q-62 0 -105.5 -44.5t-43.5 -107.5t43.5 -106t105.5 -43zM1202 770q63 0 107.5 44.5t44.5 107.5q0 62 -44.5 106.5t-107.5 44.5q-61 0 -105 -44.5
t-44 -106.5q0 -63 43.5 -107.5t105.5 -44.5zM1202 823q-40 0 -69 29t-29 70q0 40 29 69t69 29t70.5 -29.5t30.5 -68.5q0 -41 -30.5 -70t-70.5 -29zM1202 391q63 0 107.5 44t44.5 106q0 63 -44.5 107t-107.5 44q-62 0 -105.5 -44t-43.5 -107q0 -62 44 -106t105 -44zM1202 442
q-40 0 -69 29.5t-29 69.5q0 41 29 70.5t69 29.5t70.5 -29.5t30.5 -70.5q0 -40 -30.5 -69.5t-70.5 -29.5z" />
    <glyph glyph-name="u1F6A7" unicode="&#x1f6a7;" 
d="M870 397l-94 -274h-160l111 315l59 289l19 47l-148 72v55l109 250l164 94l147 12l-28 164l49 86h145l55 -123l-55 -135l-80 -24l45 -103l-26 -121l121 -393l165 -82l64 109l307 -510h-668l-81 307l-140 234h-14zM825 1061l-71 -176l80 -41l112 282zM1090 721l4 -6l82 -41
l-54 149zM1233 459l51 -256l152 262l-281 137z" />
    <glyph glyph-name="u1F6AB" unicode="&#x1f6ab;" 
d="M1208 -322q-209 0 -394 73t-327 206q-157 148 -245 353t-88 427t88 427.5t245 353.5q142 133 327 205.5t394 72.5t394 -72.5t327 -205.5q157 -148 245.5 -353.5t88.5 -427.5t-88 -427t-246 -353q-142 -133 -327 -206t-394 -73zM1208 1653q-166 0 -321.5 -55t-278.5 -158
l1301 -1301q100 119 155.5 272.5t55.5 325.5q0 198 -73 371t-202 297q-124 119 -290 183.5t-347 64.5zM571 70q124 -119 290 -183.5t347 -64.5q168 0 323.5 55.5t278.5 159.5l-1300 1302q-101 -122 -157 -275.5t-56 -326.5q0 -198 72.5 -370.5t201.5 -296.5z" />
    <glyph glyph-name="u1F6AC" unicode="&#x1f6ac;" 
d="M1831 344h-1213v270q0 133 63.5 211t168.5 103q-57 59 -57 143q0 113 75 173.5t222 60.5v-103q-95 0 -145 -35t-50 -98q0 -54 32.5 -89t78.5 -40v-102q-163 0 -224 -66t-61 -229v-37h65q0 95 53 156t154 61h99q71 0 102 21t31 75v219h61q195 0 195 119q0 125 -197 125
v102q148 0 222.5 -61t74.5 -166q0 -108 -72 -165.5t-182 -57.5v-156q0 -157 -188 -157h-109q-71 0 -106 -33.5t-35 -79.5h942v-164z" />
    </font>
</defs>
</svg>
